<svg width="198" height="235" viewBox="0 0 198 235" fill="none" xmlns="http://www.w3.org/2000/svg">
<g clip-path="url(#clip0_52_4985)">
<path d="M5.84005 122.14C6.00005 123.14 6.17001 124.14 6.42001 125.07C7.28765 128.183 8.81184 131.075 10.89 133.55C12.9722 136.007 15.2899 138.254 17.81 140.26C19.0201 141.361 20.4193 142.236 21.94 142.84C22.1095 139.616 22.6292 136.421 23.49 133.31C23.34 133.85 18.07 131.31 17.8 131.16C13.99 129.34 11.22 125.63 9.31002 121.95C8.09346 119.363 7.20327 116.636 6.66 113.83C6.48 113.07 5.66 112.37 5.41 113.5C4.75 116.26 5.37005 119.39 5.84005 122.14Z" fill="#805539"/>
<path d="M72.93 119.93L71.93 122.26C71.65 122.92 71.36 123.58 71.03 124.26C70.611 125.046 70.1469 125.807 69.64 126.54C67.6978 129.394 65.3765 131.971 62.74 134.2C62.5744 133.438 62.5372 132.654 62.63 131.88C62.7633 129.947 62.9033 128.02 63.05 126.1C63.0691 125.58 63.16 125.065 63.32 124.57C63.5099 124.103 63.7659 123.665 64.08 123.27C64.79 122.27 65.52 121.34 66.27 120.4C67.34 119.07 68.46 117.78 69.48 116.4C72.17 112.817 74.2016 108.784 75.48 104.49C75.57 104.2 75.79 103.84 76.07 103.95C76.35 104.06 76.28 104.22 76.31 104.39C77.23 109.8 75.06 115.03 72.93 119.93Z" fill="#805539"/>
<path d="M69.31 172.59C67.21 167.84 61.65 151.98 66.74 125.69C69.1141 113.92 73.8791 102.763 80.74 92.91C85.8 85.54 91.68 74.02 91.36 60.65C90.8 37.4 86.6 -4.63003 57.18 0.419972C31.91 4.74997 5.37998 22.74 1.97998 62.56C1.07663 73.9942 2.16618 85.4986 5.20001 96.56C7.30001 104.39 10.53 114.48 14.88 122.56C23.29 138.25 6.76 227.62 37.57 233.78C68.38 239.94 79.04 219.21 76.51 201C75.6088 194.114 74.2084 187.303 72.32 180.62C71.4928 177.881 70.4873 175.198 69.31 172.59Z" fill="#FAAE64"/>
<path d="M48.63 229.42C48.6273 229.353 48.6379 229.286 48.661 229.223C48.6842 229.16 48.7196 229.103 48.7651 229.053C48.8106 229.004 48.8654 228.964 48.9262 228.936C48.9871 228.908 49.053 228.893 49.12 228.89C50.4603 228.84 51.7963 228.706 53.12 228.49C53.2457 228.482 53.3699 228.521 53.4687 228.599C53.5674 228.677 53.6338 228.789 53.6549 228.913C53.676 229.038 53.6504 229.165 53.583 229.272C53.5157 229.378 53.4112 229.456 53.29 229.49C51.9168 229.715 50.5307 229.852 49.14 229.9C49.0098 229.9 48.8844 229.851 48.7895 229.761C48.6947 229.672 48.6376 229.55 48.63 229.42ZM45 229.84C43.67 229.74 42.28 229.58 40.87 229.36C40.7352 229.338 40.6145 229.264 40.534 229.153C40.4536 229.043 40.4198 228.905 40.44 228.77C40.4644 228.637 40.5397 228.519 40.6498 228.44C40.76 228.362 40.8963 228.33 41.0299 228.35C42.4099 228.57 43.7699 228.73 45.0299 228.82C45.0965 228.824 45.1618 228.841 45.2217 228.87C45.2816 228.9 45.335 228.941 45.3788 228.991C45.4226 229.041 45.4558 229.1 45.4767 229.163C45.4975 229.227 45.5054 229.293 45.5 229.36C45.4923 229.49 45.4352 229.612 45.3404 229.701C45.2455 229.791 45.1202 229.84 44.99 229.84H45ZM56.73 228.18C56.6883 228.051 56.6984 227.911 56.7582 227.79C56.8179 227.669 56.9226 227.575 57.05 227.53C58.3268 227.116 59.5648 226.59 60.75 225.96C60.8088 225.927 60.8736 225.906 60.9405 225.899C61.0075 225.892 61.0752 225.898 61.1397 225.918C61.2041 225.938 61.264 225.97 61.3156 226.013C61.3672 226.057 61.4095 226.11 61.44 226.17C61.4715 226.229 61.491 226.294 61.4975 226.36C61.504 226.427 61.4974 226.494 61.4779 226.558C61.4584 226.623 61.4264 226.682 61.3839 226.734C61.3414 226.786 61.2891 226.828 61.23 226.86C59.9943 227.52 58.7026 228.069 57.37 228.5C57.3172 228.51 57.2628 228.51 57.21 228.5C57.107 228.501 57.0061 228.472 56.9204 228.414C56.8347 228.357 56.7683 228.276 56.73 228.18ZM36.7799 228.47C35.4309 228.023 34.1567 227.376 33 226.55C32.9353 226.515 32.8788 226.466 32.8343 226.408C32.7898 226.349 32.7582 226.282 32.7417 226.21C32.7252 226.138 32.7241 226.064 32.7386 225.991C32.753 225.919 32.7826 225.851 32.8254 225.791C32.8682 225.731 32.9232 225.681 32.9868 225.644C33.0504 225.607 33.1212 225.584 33.1944 225.576C33.2677 225.568 33.3417 225.576 33.4116 225.599C33.4815 225.623 33.5457 225.66 33.6 225.71C34.6682 226.482 35.8486 227.086 37.1 227.5C37.2199 227.534 37.3231 227.611 37.3901 227.716C37.4571 227.822 37.4832 227.948 37.4635 228.071C37.4438 228.194 37.3797 228.306 37.2832 228.385C37.1867 228.464 37.0646 228.505 36.94 228.5L36.7799 228.47ZM64.01 224.47C63.9271 224.363 63.889 224.228 63.904 224.094C63.9189 223.959 63.9857 223.836 64.09 223.75C65.1373 222.911 66.1048 221.977 66.98 220.96C67.0239 220.909 67.0774 220.868 67.1374 220.838C67.1974 220.808 67.2628 220.79 67.3296 220.786C67.3965 220.781 67.4636 220.79 67.5271 220.811C67.5907 220.832 67.6495 220.866 67.7 220.91C67.7999 221 67.8609 221.126 67.8702 221.26C67.8795 221.394 67.8364 221.527 67.75 221.63C66.8403 222.692 65.8362 223.669 64.75 224.55C64.6586 224.621 64.5459 224.66 64.43 224.66C64.3502 224.662 64.2709 224.646 64.1982 224.613C64.1255 224.58 64.0612 224.531 64.01 224.47ZM29.92 223.67C29.0221 222.592 28.2254 221.434 27.54 220.21C27.4742 220.092 27.4573 219.952 27.4928 219.821C27.5283 219.691 27.6133 219.579 27.73 219.51C27.8489 219.447 27.9876 219.431 28.1176 219.466C28.2476 219.502 28.3593 219.585 28.43 219.7C29.0822 220.871 29.8421 221.98 30.7 223.01C30.763 223.084 30.8034 223.175 30.8165 223.272C30.8296 223.368 30.8147 223.466 30.7737 223.555C30.7327 223.643 30.6672 223.718 30.585 223.77C30.5028 223.822 30.4074 223.85 30.31 223.85C30.2357 223.851 30.1621 223.835 30.0946 223.804C30.0272 223.773 29.9675 223.727 29.92 223.67ZM69.5 218.4C69.4411 218.367 69.3895 218.322 69.3483 218.269C69.3071 218.215 69.2772 218.154 69.2604 218.088C69.2436 218.023 69.2402 217.955 69.2504 217.888C69.2606 217.821 69.2843 217.757 69.32 217.7C70.0026 216.543 70.5976 215.336 71.1 214.09C71.1503 213.957 71.2514 213.85 71.3808 213.792C71.5102 213.734 71.6573 213.73 71.79 213.78C71.9226 213.83 72.0297 213.931 72.0879 214.061C72.146 214.19 72.1503 214.337 72.1 214.47C71.5804 215.766 70.9619 217.019 70.25 218.22C70.204 218.296 70.1394 218.358 70.0624 218.402C69.9854 218.446 69.8985 218.469 69.81 218.47C69.7017 218.483 69.5924 218.458 69.5 218.4ZM25.7199 216.46C25.2199 215.25 24.72 213.93 24.32 212.54C24.2822 212.41 24.2967 212.27 24.3601 212.151C24.4236 212.031 24.5311 211.941 24.66 211.9C24.7243 211.88 24.792 211.873 24.8591 211.879C24.9262 211.885 24.9914 211.905 25.0509 211.937C25.1104 211.968 25.163 212.011 25.2058 212.063C25.2485 212.115 25.2806 212.175 25.3 212.24C25.72 213.6 26.18 214.89 26.67 216.07C26.7195 216.195 26.7179 216.334 26.6655 216.457C26.6131 216.581 26.5141 216.679 26.39 216.73C26.3242 216.745 26.2558 216.745 26.19 216.73C26.0942 216.734 25.9992 216.71 25.9161 216.663C25.833 216.615 25.765 216.545 25.7199 216.46ZM72.7199 210.87C72.6524 210.858 72.5879 210.833 72.5304 210.795C72.4728 210.758 72.4235 210.709 72.3852 210.652C72.3469 210.595 72.3205 210.531 72.3076 210.464C72.2947 210.396 72.2955 210.327 72.31 210.26C72.6318 208.942 72.8755 207.607 73.04 206.26C73.0551 206.126 73.1224 206.004 73.2273 205.92C73.3322 205.835 73.4661 205.796 73.6 205.81C73.6671 205.817 73.7321 205.838 73.7912 205.871C73.8503 205.904 73.9023 205.948 73.9442 206.001C73.9861 206.054 74.017 206.115 74.0351 206.18C74.0533 206.245 74.0583 206.313 74.05 206.38C73.8847 207.761 73.6342 209.13 73.3 210.48C73.2729 210.592 73.2087 210.691 73.118 210.762C73.0272 210.833 72.9151 210.871 72.8 210.87H72.7199ZM23.24 208.54C22.93 207.27 22.65 205.9 22.39 204.54C22.3726 204.472 22.3692 204.402 22.3801 204.333C22.391 204.264 22.4159 204.198 22.4532 204.139C22.4906 204.081 22.5396 204.03 22.5973 203.991C22.655 203.952 22.7202 203.925 22.7887 203.912C22.8572 203.899 22.9276 203.9 22.9956 203.915C23.0637 203.93 23.1279 203.96 23.1842 204.001C23.2406 204.042 23.288 204.094 23.3233 204.154C23.3587 204.214 23.3814 204.281 23.39 204.35C23.65 205.75 23.93 207.1 24.23 208.35C24.2464 208.415 24.25 208.483 24.2403 208.549C24.2306 208.615 24.2079 208.679 24.1736 208.737C24.1392 208.794 24.0938 208.845 24.04 208.885C23.9862 208.925 23.925 208.954 23.86 208.97H23.74C23.618 208.969 23.5002 208.926 23.407 208.848C23.3137 208.769 23.2511 208.66 23.23 208.54H23.24ZM73.31 202.26V202.05C73.3079 200.764 73.2411 199.479 73.11 198.2C73.0959 198.066 73.1354 197.932 73.2196 197.827C73.3039 197.722 73.4263 197.655 73.56 197.64C73.627 197.633 73.6947 197.64 73.7593 197.659C73.8238 197.678 73.8838 197.71 73.9359 197.753C73.988 197.796 74.0311 197.849 74.0627 197.908C74.0943 197.968 74.1137 198.033 74.12 198.1C74.2615 199.429 74.3316 200.764 74.33 202.1V202.26C74.3068 202.375 74.2443 202.479 74.1531 202.554C74.062 202.629 73.9478 202.669 73.83 202.669C73.7122 202.669 73.598 202.629 73.5068 202.554C73.4157 202.479 73.3532 202.375 73.33 202.26H73.31ZM21.7 200.44C21.5 199.1 21.33 197.73 21.17 196.34C21.1767 196.22 21.226 196.105 21.3091 196.018C21.3921 195.93 21.5034 195.875 21.6234 195.862C21.7433 195.848 21.8641 195.878 21.9642 195.946C22.0643 196.013 22.1372 196.114 22.17 196.23C22.32 197.61 22.5 198.96 22.69 200.29C22.7071 200.425 22.6707 200.561 22.5884 200.67C22.5062 200.778 22.3846 200.85 22.25 200.87H22.18C22.0599 200.861 21.947 200.81 21.8609 200.726C21.7749 200.642 21.7215 200.53 21.71 200.41L21.7 200.44ZM72.56 194.15C72.35 192.73 72.14 191.38 71.91 190.1C71.8895 189.966 71.922 189.83 72.0004 189.72C72.0788 189.61 72.197 189.534 72.33 189.51C72.3963 189.499 72.4643 189.5 72.5299 189.515C72.5956 189.53 72.6576 189.558 72.7124 189.597C72.7673 189.636 72.8139 189.686 72.8495 189.743C72.8851 189.8 72.9091 189.864 72.92 189.93C73.14 191.21 73.36 192.57 73.57 194C73.5813 194.066 73.5791 194.135 73.5634 194.2C73.5477 194.266 73.5189 194.328 73.4787 194.382C73.4386 194.436 73.3878 194.481 73.3296 194.515C73.2714 194.55 73.2069 194.572 73.14 194.58H73.07C72.9453 194.576 72.8263 194.527 72.7345 194.443C72.6427 194.358 72.5843 194.244 72.57 194.12L72.56 194.15ZM20.77 192.23C20.65 190.88 20.55 189.5 20.46 188.12C20.4517 187.984 20.4974 187.85 20.5873 187.747C20.6771 187.644 20.8038 187.58 20.94 187.57C21.007 187.566 21.0741 187.575 21.1376 187.597C21.201 187.619 21.2594 187.653 21.3096 187.698C21.3598 187.742 21.4007 187.797 21.4299 187.857C21.4591 187.917 21.4761 187.983 21.48 188.05C21.57 189.43 21.67 190.8 21.79 192.14C21.8011 192.276 21.758 192.412 21.67 192.517C21.582 192.621 21.4563 192.687 21.32 192.7C21.2514 192.704 21.1826 192.694 21.1179 192.671C21.0532 192.648 20.9938 192.612 20.9434 192.565C20.893 192.518 20.8525 192.462 20.8244 192.399C20.7963 192.336 20.7812 192.269 20.7799 192.2L20.77 192.23ZM71.16 186.07C70.8699 184.63 70.58 183.3 70.29 182.07C70.2595 181.937 70.2829 181.798 70.3551 181.683C70.4273 181.567 70.5424 181.485 70.675 181.455C70.8076 181.424 70.9469 181.448 71.0622 181.52C71.1776 181.592 71.2595 181.707 71.29 181.84C71.58 183.07 71.8699 184.42 72.16 185.84C72.1745 185.906 72.1756 185.974 72.1632 186.04C72.1508 186.106 72.1251 186.169 72.0877 186.225C72.0504 186.281 72.0021 186.329 71.9458 186.366C71.8895 186.403 71.8263 186.428 71.76 186.44H71.66C71.5447 186.44 71.433 186.4 71.3437 186.327C71.2544 186.254 71.193 186.153 71.17 186.04L71.16 186.07ZM20.24 184C20.17 182.63 20.12 181.26 20.07 179.88C20.0673 179.744 20.1181 179.612 20.2116 179.513C20.3052 179.414 20.4338 179.355 20.57 179.35C20.7055 179.35 20.836 179.401 20.9345 179.494C21.0331 179.587 21.0923 179.715 21.1 179.85C21.1 181.22 21.19 182.59 21.26 183.95C21.2627 184.017 21.2521 184.084 21.2289 184.147C21.2057 184.21 21.1704 184.267 21.1249 184.317C21.0793 184.366 21.0246 184.406 20.9637 184.434C20.9028 184.462 20.837 184.477 20.77 184.48C20.7022 184.481 20.6348 184.469 20.5718 184.444C20.5087 184.419 20.4513 184.382 20.4029 184.334C20.3544 184.287 20.316 184.23 20.2897 184.168C20.2635 184.105 20.25 184.038 20.25 183.97L20.24 184ZM69.24 178.06L69.18 177.85C68.85 176.67 68.4599 175.44 68.0299 174.21C67.9849 174.077 67.9943 173.932 68.0562 173.807C68.1181 173.681 68.2274 173.585 68.36 173.54C68.4926 173.495 68.6377 173.504 68.7633 173.566C68.889 173.628 68.9849 173.737 69.0299 173.87C69.4699 175.12 69.86 176.37 70.19 177.58L70.25 177.78C70.2679 177.844 70.2728 177.91 70.2643 177.976C70.2557 178.042 70.234 178.105 70.2004 178.162C70.1667 178.219 70.1219 178.269 70.0685 178.308C70.0152 178.347 69.9544 178.375 69.89 178.39H69.77C69.6665 178.382 69.5677 178.343 69.4859 178.279C69.4041 178.215 69.3429 178.128 69.31 178.03L69.24 178.06ZM19.93 175.75C19.93 174.38 19.93 173.01 19.86 171.63C19.86 171.495 19.9137 171.365 20.0094 171.269C20.105 171.174 20.2347 171.12 20.37 171.12C20.4365 171.119 20.5025 171.131 20.5644 171.155C20.6262 171.18 20.6825 171.216 20.73 171.263C20.7775 171.309 20.8152 171.365 20.841 171.426C20.8667 171.488 20.88 171.553 20.88 171.62C20.88 172.99 20.88 174.36 20.95 175.73C20.9513 175.797 20.9394 175.864 20.915 175.926C20.8906 175.988 20.8541 176.045 20.8077 176.094C20.7613 176.142 20.7058 176.181 20.6444 176.207C20.583 176.234 20.517 176.249 20.45 176.25C20.3843 176.246 20.32 176.229 20.2608 176.201C20.2016 176.172 20.1486 176.132 20.105 176.083C20.0613 176.033 20.0278 175.976 20.0063 175.914C19.9849 175.852 19.9759 175.786 19.98 175.72L19.93 175.75ZM66.57 170.4L66.51 170.25C66.02 169.08 65.51 167.76 65.11 166.33C65.0903 166.264 65.0837 166.195 65.0906 166.127C65.0975 166.059 65.1179 165.993 65.1504 165.932C65.1829 165.872 65.2269 165.819 65.2801 165.775C65.3332 165.732 65.3943 165.7 65.46 165.68C65.5257 165.66 65.5946 165.654 65.6628 165.661C65.731 165.668 65.7971 165.688 65.8575 165.72C65.9178 165.753 65.9712 165.797 66.0145 165.85C66.0578 165.903 66.0903 165.964 66.11 166.03C66.4935 167.327 66.9475 168.602 67.4699 169.85L67.5299 170.01C67.5563 170.072 67.5703 170.138 67.571 170.205C67.5717 170.272 67.5591 170.339 67.534 170.401C67.509 170.463 67.4718 170.52 67.4248 170.568C67.3778 170.616 67.3218 170.654 67.26 170.68C67.1937 170.69 67.1262 170.69 67.06 170.68C66.965 170.674 66.8735 170.643 66.7958 170.588C66.718 170.533 66.6571 170.458 66.62 170.37L66.57 170.4ZM19.83 167.52C19.83 166.35 19.83 165.19 19.83 164.04V163.4C19.8151 163.326 19.8168 163.25 19.8351 163.176C19.8533 163.103 19.8876 163.035 19.9354 162.976C19.9832 162.918 20.0434 162.871 20.1117 162.839C20.1799 162.806 20.2545 162.789 20.33 162.789C20.4055 162.789 20.48 162.806 20.5483 162.839C20.6165 162.871 20.6767 162.918 20.7245 162.976C20.7724 163.035 20.8066 163.103 20.8249 163.176C20.8431 163.25 20.8449 163.326 20.83 163.4V164.04C20.83 165.19 20.83 166.35 20.83 167.52C20.825 167.654 20.7697 167.781 20.6751 167.875C20.5805 167.97 20.4537 168.025 20.32 168.03C20.1918 168.013 20.0751 167.947 19.9934 167.847C19.9118 167.747 19.8712 167.619 19.88 167.49L19.83 167.52ZM64.11 162.26C63.81 160.94 63.55 159.57 63.33 158.19C63.3185 158.124 63.3204 158.056 63.3353 157.99C63.3503 157.924 63.378 157.862 63.4171 157.807C63.4561 157.753 63.5056 157.706 63.5628 157.67C63.6199 157.635 63.6835 157.611 63.75 157.6C63.8851 157.58 64.0227 157.614 64.1331 157.694C64.2435 157.774 64.3179 157.895 64.34 158.03C64.55 159.39 64.81 160.74 65.11 162.03C65.1247 162.096 65.1263 162.164 65.1146 162.23C65.1029 162.296 65.0782 162.359 65.042 162.416C65.0057 162.473 64.9586 162.522 64.9034 162.56C64.8481 162.599 64.7857 162.626 64.7199 162.64H64.61C64.4957 162.643 64.3839 162.607 64.2929 162.538C64.2019 162.469 64.1373 162.371 64.11 162.26ZM20.39 159.74C20.2547 159.74 20.125 159.686 20.0293 159.591C19.9337 159.495 19.88 159.365 19.88 159.23V155.12C19.88 154.985 19.9337 154.855 20.0293 154.759C20.125 154.664 20.2547 154.61 20.39 154.61C20.5253 154.61 20.6549 154.664 20.7506 154.759C20.8462 154.855 20.9 154.985 20.9 155.12V159.23C20.9 159.365 20.8462 159.495 20.7506 159.591C20.6549 159.686 20.5253 159.74 20.39 159.74ZM62.7799 154.08C62.6399 152.75 62.53 151.37 62.45 149.96C62.4444 149.825 62.4913 149.694 62.5808 149.593C62.6704 149.492 62.7956 149.43 62.93 149.42C62.997 149.416 63.0641 149.425 63.1275 149.447C63.191 149.469 63.2495 149.503 63.2997 149.548C63.3498 149.592 63.3907 149.647 63.4199 149.707C63.4491 149.767 63.4661 149.833 63.4699 149.9C63.5499 151.29 63.66 152.66 63.8 153.98C63.8069 154.047 63.8004 154.115 63.781 154.179C63.7615 154.244 63.7295 154.304 63.6867 154.356C63.644 154.408 63.5913 154.451 63.5318 154.483C63.4723 154.514 63.4071 154.534 63.34 154.54C63.2092 154.554 63.0779 154.518 62.9735 154.438C62.8692 154.357 62.7998 154.24 62.7799 154.11V154.08ZM20.42 151.52C20.3521 151.52 20.285 151.506 20.2225 151.48C20.1599 151.454 20.1033 151.416 20.0558 151.367C20.0083 151.319 19.9709 151.261 19.9459 151.198C19.9209 151.135 19.9086 151.068 19.91 151V149.75C19.91 148.75 19.91 147.83 19.91 146.9C19.9072 146.832 19.9184 146.764 19.943 146.7C19.9675 146.636 20.0048 146.578 20.0526 146.53C20.1004 146.481 20.1576 146.443 20.2208 146.417C20.284 146.391 20.3517 146.379 20.42 146.38C20.5562 146.38 20.6869 146.433 20.7842 146.529C20.8814 146.624 20.9374 146.754 20.94 146.89V151.01C20.94 151.145 20.8863 151.275 20.7906 151.371C20.695 151.466 20.5652 151.52 20.43 151.52H20.42ZM62.31 145.86V145.04C62.31 143.97 62.31 142.86 62.37 141.72C62.3776 141.587 62.4358 141.463 62.5325 141.372C62.6292 141.28 62.7571 141.23 62.89 141.23C62.9578 141.231 63.0247 141.246 63.0868 141.274C63.1488 141.301 63.2048 141.341 63.2513 141.39C63.2979 141.439 63.3341 141.497 63.3579 141.561C63.3818 141.625 63.3927 141.692 63.39 141.76C63.39 142.88 63.33 143.98 63.33 145.04V145.85C63.3313 145.917 63.3194 145.983 63.2948 146.044C63.2703 146.106 63.2337 146.162 63.1871 146.21C63.1405 146.257 63.085 146.295 63.0237 146.321C62.9623 146.347 62.8965 146.36 62.83 146.36C62.7627 146.363 62.6955 146.352 62.6325 146.328C62.5695 146.304 62.512 146.268 62.4634 146.221C62.4148 146.174 62.3762 146.118 62.3498 146.056C62.3235 145.994 62.3099 145.927 62.31 145.86ZM19.85 142.86C19.85 141.44 19.82 140.07 19.76 138.75C19.7599 138.615 19.8119 138.486 19.9051 138.389C19.9984 138.292 20.1256 138.235 20.26 138.23C20.3276 138.224 20.3957 138.233 20.4598 138.255C20.524 138.277 20.5828 138.312 20.6326 138.359C20.6824 138.405 20.7222 138.461 20.7492 138.523C20.7763 138.585 20.7902 138.652 20.79 138.72C20.79 140.05 20.86 141.42 20.88 142.84C20.8813 142.908 20.8691 142.975 20.844 143.038C20.819 143.101 20.7817 143.159 20.7342 143.207C20.6867 143.255 20.63 143.294 20.5675 143.32C20.5049 143.346 20.4378 143.36 20.37 143.36C20.3008 143.359 20.2326 143.344 20.1694 143.316C20.1061 143.288 20.0491 143.247 20.0016 143.197C19.9541 143.147 19.917 143.088 19.8927 143.023C19.8684 142.958 19.8573 142.889 19.86 142.82L19.85 142.86ZM63.06 138.18C62.9934 138.176 62.9282 138.159 62.8683 138.13C62.8084 138.1 62.755 138.059 62.7112 138.009C62.6674 137.959 62.6341 137.9 62.6133 137.837C62.5924 137.773 62.5846 137.706 62.59 137.64C62.69 136.29 62.8199 134.91 62.9699 133.52C62.9898 133.387 63.0599 133.266 63.1658 133.182C63.2717 133.098 63.4055 133.058 63.54 133.07C63.6745 133.087 63.7969 133.157 63.881 133.263C63.965 133.37 64.0042 133.505 63.99 133.64C63.84 135.01 63.71 136.38 63.61 137.71C63.6023 137.84 63.5452 137.962 63.4504 138.051C63.3556 138.141 63.2302 138.19 63.1 138.19L63.06 138.18ZM19.58 134.66C19.49 133.15 19.39 131.81 19.26 130.58C19.2401 130.508 19.236 130.433 19.2481 130.36C19.2603 130.287 19.2884 130.217 19.3304 130.155C19.3723 130.094 19.4272 130.043 19.4911 130.005C19.5551 129.967 19.6266 129.943 19.7005 129.936C19.7745 129.928 19.8493 129.937 19.9195 129.962C19.9897 129.986 20.0536 130.026 20.1069 130.078C20.1602 130.13 20.2015 130.192 20.2279 130.262C20.2544 130.331 20.2653 130.406 20.26 130.48C20.39 131.72 20.5 133.07 20.58 134.6C20.5841 134.667 20.5748 134.734 20.5529 134.798C20.5309 134.861 20.4967 134.919 20.4521 134.97C20.4075 135.02 20.3534 135.061 20.293 135.09C20.2326 135.119 20.167 135.136 20.1 135.14C19.9638 135.137 19.8341 135.081 19.7387 134.984C19.6434 134.887 19.59 134.756 19.59 134.62L19.58 134.66ZM63.94 130.01C63.8736 130 63.8098 129.977 63.7523 129.943C63.6948 129.909 63.6446 129.863 63.6047 129.809C63.5647 129.755 63.5358 129.694 63.5196 129.629C63.5033 129.564 63.5001 129.496 63.51 129.43C63.71 128.1 63.93 126.74 64.18 125.35C64.2089 125.218 64.2871 125.102 64.3987 125.026C64.5102 124.95 64.6465 124.919 64.7799 124.94C64.9131 124.967 65.0305 125.044 65.1072 125.156C65.1838 125.269 65.2135 125.406 65.19 125.54C64.94 126.91 64.72 128.26 64.52 129.54C64.5011 129.659 64.4404 129.768 64.3489 129.847C64.2573 129.925 64.1408 129.969 64.02 129.97L63.94 130.01ZM18.68 126.56C18.4452 125.252 18.0559 123.976 17.52 122.76C17.4617 122.638 17.4542 122.498 17.4992 122.37C17.5442 122.243 17.638 122.138 17.76 122.08C17.8201 122.05 17.8858 122.032 17.953 122.028C18.0202 122.023 18.0876 122.033 18.1511 122.055C18.2146 122.078 18.2729 122.113 18.3225 122.158C18.3722 122.204 18.4121 122.259 18.44 122.32C19.016 123.597 19.4325 124.941 19.68 126.32C19.7065 126.453 19.6792 126.59 19.6042 126.703C19.5292 126.815 19.4125 126.893 19.2799 126.92H19.18C19.0647 126.92 18.953 126.88 18.8637 126.807C18.7744 126.734 18.713 126.633 18.69 126.52L18.68 126.56ZM65.41 121.92C65.344 121.905 65.2818 121.876 65.2268 121.837C65.1719 121.797 65.1254 121.747 65.0901 121.69C65.0547 121.632 65.0312 121.568 65.0209 121.501C65.0105 121.434 65.0136 121.366 65.0299 121.3C65.3399 119.97 65.6999 118.62 66.0299 117.3C66.0483 117.234 66.0795 117.173 66.1216 117.119C66.1637 117.066 66.216 117.021 66.2754 116.987C66.3349 116.954 66.4003 116.933 66.468 116.924C66.5357 116.916 66.6043 116.922 66.67 116.94C66.7356 116.958 66.7971 116.989 66.8507 117.032C66.9043 117.074 66.9491 117.126 66.9825 117.185C67.0159 117.245 67.0374 117.31 67.0455 117.378C67.0536 117.446 67.0483 117.514 67.0299 117.58C66.6499 118.89 66.2999 120.22 66.0299 121.58C66.0049 121.691 65.9427 121.79 65.8536 121.861C65.7645 121.932 65.6538 121.971 65.54 121.97L65.41 121.92ZM15.76 119.03C15.22 117.82 14.69 116.53 14.17 115.21C14.1206 115.083 14.1234 114.941 14.1777 114.816C14.2319 114.69 14.3333 114.591 14.46 114.54C14.586 114.491 14.7263 114.494 14.85 114.548C14.9738 114.603 15.0709 114.704 15.12 114.83C15.64 116.15 16.12 117.42 16.69 118.61C16.7253 118.688 16.7403 118.774 16.7337 118.859C16.7272 118.945 16.6992 119.027 16.6523 119.099C16.6055 119.171 16.5413 119.229 16.4657 119.27C16.3902 119.31 16.3056 119.331 16.2199 119.33C16.1194 119.325 16.0228 119.29 15.9425 119.229C15.8622 119.169 15.8021 119.085 15.77 118.99L15.76 119.03ZM67.64 114.03C67.5765 114.01 67.5177 113.977 67.4671 113.933C67.4165 113.89 67.375 113.837 67.3452 113.777C67.3154 113.718 67.2978 113.653 67.2934 113.586C67.2891 113.52 67.2981 113.453 67.32 113.39C67.77 112.08 68.25 110.78 68.76 109.51C68.8091 109.384 68.9062 109.283 69.0299 109.228C69.1537 109.174 69.294 109.171 69.42 109.22C69.5466 109.271 69.648 109.37 69.7023 109.496C69.7566 109.621 69.7594 109.763 69.71 109.89C69.21 111.14 68.71 112.43 68.29 113.72C68.2561 113.82 68.1915 113.907 68.1053 113.968C68.019 114.029 67.9156 114.061 67.81 114.06C67.7504 114.038 67.696 114.004 67.65 113.96L67.64 114.03ZM12.75 111.26C12.29 109.95 11.86 108.64 11.45 107.34C11.4283 107.276 11.4197 107.209 11.4247 107.142C11.4297 107.075 11.4481 107.01 11.4789 106.95C11.5097 106.89 11.5523 106.837 11.604 106.794C11.6557 106.751 11.7156 106.719 11.7799 106.7C11.9086 106.662 12.0471 106.675 12.1664 106.736C12.2856 106.798 12.3765 106.903 12.42 107.03C12.83 108.32 13.26 109.62 13.71 110.92C13.7336 110.983 13.7443 111.05 13.7414 111.117C13.7385 111.184 13.7221 111.25 13.6932 111.311C13.6642 111.372 13.6233 111.426 13.573 111.47C13.5226 111.515 13.4638 111.549 13.4 111.57C13.3438 111.58 13.2862 111.58 13.23 111.57C13.1279 111.574 13.0271 111.546 12.9413 111.49C12.8555 111.435 12.7887 111.354 12.75 111.26ZM70.64 106.26C70.5181 106.201 70.4237 106.098 70.3771 105.971C70.3304 105.844 70.335 105.704 70.39 105.58C70.96 104.33 71.56 103.08 72.19 101.86C72.252 101.742 72.3573 101.652 72.4839 101.609C72.6105 101.566 72.7488 101.574 72.87 101.63C72.9308 101.66 72.9851 101.701 73.0296 101.752C73.0742 101.803 73.1082 101.863 73.1296 101.927C73.151 101.991 73.1594 102.059 73.1543 102.126C73.1493 102.194 73.1307 102.26 73.1 102.32C72.4799 103.53 71.88 104.77 71.32 106C71.2799 106.089 71.2153 106.164 71.1338 106.217C71.0523 106.27 70.9573 106.299 70.86 106.3C70.7881 106.318 70.7132 106.322 70.64 106.31V106.26ZM10.25 103.37C9.85998 102.01 9.49 100.68 9.15 99.37C9.13201 99.3043 9.12732 99.2357 9.13627 99.1682C9.14522 99.1007 9.16758 99.0356 9.20207 98.9769C9.23655 98.9182 9.28248 98.867 9.33707 98.8263C9.39167 98.7856 9.45387 98.7563 9.52 98.74C9.585 98.7235 9.65261 98.72 9.71897 98.7297C9.78534 98.7394 9.84913 98.762 9.90672 98.7964C9.96431 98.8308 10.0146 98.8762 10.0546 98.93C10.0946 98.9838 10.1236 99.0449 10.14 99.11C10.48 100.38 10.84 101.7 11.23 103.06C11.267 103.19 11.2509 103.329 11.1853 103.447C11.1197 103.566 11.0099 103.653 10.88 103.69C10.8339 103.7 10.7861 103.7 10.74 103.69C10.6409 103.698 10.5417 103.676 10.4546 103.628C10.3676 103.58 10.2965 103.508 10.25 103.42V103.37ZM74.35 98.92C74.2316 98.8527 74.1444 98.7417 74.107 98.6108C74.0696 98.4799 74.0851 98.3396 74.15 98.22C74.83 97.04 75.55 95.84 76.29 94.67C76.3261 94.6135 76.373 94.5647 76.428 94.5264C76.4829 94.488 76.5449 94.4609 76.6104 94.4465C76.6759 94.4321 76.7435 94.4307 76.8095 94.4425C76.8755 94.4542 76.9385 94.4789 76.995 94.515C77.0514 94.5511 77.1002 94.598 77.1386 94.653C77.1769 94.7079 77.2041 94.7699 77.2185 94.8354C77.2329 94.9009 77.2343 94.9685 77.2225 95.0345C77.2108 95.1005 77.1861 95.1635 77.15 95.22C76.42 96.38 75.71 97.56 75.04 98.72C74.9976 98.7996 74.9342 98.866 74.8565 98.9119C74.7789 98.9578 74.6901 98.9813 74.6 98.98C74.5042 99.0032 74.4039 98.9997 74.31 98.97L74.35 98.92ZM8.15 95.39C7.84 94.05 7.54997 92.69 7.29997 91.39C7.28544 91.3242 7.28438 91.2562 7.29679 91.19C7.3092 91.1238 7.33481 91.0608 7.37217 91.0048C7.40953 90.9488 7.45781 90.9008 7.51414 90.8639C7.57047 90.827 7.6337 90.8019 7.69999 90.79C7.76635 90.777 7.83462 90.7773 7.90086 90.7909C7.96709 90.8046 8.02996 90.8312 8.08579 90.8694C8.14163 90.9075 8.18934 90.9564 8.22611 91.0132C8.26288 91.0699 8.28797 91.1334 8.29997 91.2C8.55997 92.53 8.84 93.88 9.15 95.2C9.18025 95.3325 9.15737 95.4715 9.08634 95.5874C9.01532 95.7033 8.9018 95.7868 8.77 95.82H8.65C8.53663 95.8198 8.42642 95.7826 8.33616 95.714C8.2459 95.6454 8.18053 95.5492 8.15 95.44V95.39ZM78.64 91.9C78.5811 91.8669 78.5294 91.8223 78.4883 91.7687C78.4471 91.7152 78.4172 91.6539 78.4004 91.5884C78.3835 91.523 78.3802 91.4549 78.3904 91.3881C78.4007 91.3214 78.4243 91.2573 78.46 91.2C79.15 90.02 79.81 88.81 80.46 87.62C80.523 87.5029 80.6293 87.4151 80.7561 87.3752C80.883 87.3354 81.0204 87.3467 81.1391 87.4066C81.2577 87.4666 81.3483 87.5706 81.3915 87.6964C81.4346 87.8221 81.4269 87.9598 81.37 88.08C80.75 89.29 80.08 90.52 79.37 91.72C79.324 91.7957 79.2594 91.8584 79.1824 91.9021C79.1054 91.9459 79.0185 91.9692 78.93 91.97C78.8336 91.9934 78.7323 91.9865 78.64 91.95V91.9ZM6.63999 87.28C6.42999 85.91 6.24995 84.53 6.09995 83.18C6.10672 83.0595 6.15603 82.9453 6.23905 82.8577C6.32207 82.7701 6.43343 82.7149 6.55338 82.7017C6.67334 82.6885 6.79413 82.7182 6.8942 82.7857C6.99428 82.8531 7.06716 82.9538 7.09995 83.07C7.23995 84.4 7.41998 85.77 7.62998 87.12C7.65018 87.2551 7.61639 87.3927 7.53593 87.5031C7.45546 87.6135 7.3348 87.6879 7.19999 87.71H7.11997C7.00242 87.7181 6.88577 87.6844 6.79063 87.6149C6.69549 87.5453 6.62796 87.4444 6.59995 87.33L6.63999 87.28ZM82.45 84.6C82.327 84.5452 82.2306 84.4441 82.1819 84.3185C82.1332 84.193 82.1361 84.0534 82.19 83.93C82.72 82.66 83.1899 81.38 83.66 80.12C83.705 79.9874 83.801 79.8781 83.9266 79.8162C84.0523 79.7543 84.1974 79.7449 84.33 79.79C84.4626 79.8351 84.5719 79.931 84.6338 80.0566C84.6957 80.1823 84.705 80.3274 84.66 80.46C84.2199 81.74 83.71 83.04 83.17 84.33C83.1287 84.4206 83.0627 84.4977 82.9795 84.5526C82.8964 84.6074 82.7995 84.6377 82.7 84.64C82.6062 84.6708 82.5056 84.6742 82.41 84.65L82.45 84.6ZM5.72996 79.06C5.63996 77.69 5.56996 76.31 5.53996 74.93C5.53728 74.8635 5.5479 74.7971 5.57121 74.7348C5.59451 74.6725 5.63006 74.6154 5.6757 74.567C5.72133 74.5186 5.77618 74.4797 5.83701 74.4528C5.89785 74.4258 5.96341 74.4112 6.02995 74.41C6.16618 74.4072 6.29808 74.4581 6.39719 74.5516C6.49631 74.6451 6.55476 74.7738 6.55998 74.91C6.55998 76.27 6.65998 77.64 6.74998 78.99C6.75544 79.057 6.7476 79.1244 6.72691 79.1884C6.70621 79.2524 6.67305 79.3116 6.62937 79.3627C6.58569 79.4138 6.53235 79.4558 6.47239 79.4862C6.41243 79.5167 6.34699 79.5349 6.27995 79.54C6.14483 79.5602 6.00723 79.5264 5.89683 79.4459C5.78643 79.3655 5.71212 79.2448 5.68998 79.11L5.72996 79.06ZM85.21 76.85C85.1452 76.8337 85.0842 76.8047 85.0308 76.7645C84.9774 76.7243 84.9326 76.6738 84.899 76.616C84.8655 76.5582 84.8438 76.4943 84.8354 76.428C84.827 76.3617 84.8319 76.2943 84.85 76.23C85.1899 74.9 85.4899 73.57 85.7199 72.23C85.7443 72.095 85.8211 71.9751 85.9335 71.8964C86.0459 71.8178 86.1848 71.7867 86.32 71.81C86.4511 71.8367 86.5669 71.9129 86.6432 72.0228C86.7196 72.1327 86.7507 72.2678 86.73 72.4C86.49 73.74 86.19 75.11 85.83 76.46C85.803 76.5692 85.7399 76.6662 85.651 76.7351C85.5621 76.8041 85.4525 76.841 85.34 76.84C85.2908 76.8769 85.2314 76.8979 85.17 76.9L85.21 76.85ZM6.02 71.32C5.95302 71.3187 5.88692 71.3042 5.82554 71.2773C5.76416 71.2505 5.7087 71.2119 5.66227 71.1636C5.61584 71.1153 5.57938 71.0583 5.55497 70.9959C5.53056 70.9335 5.51867 70.867 5.52 70.8C5.52 69.4 5.59997 68.02 5.67997 66.67C5.68236 66.6016 5.69879 66.5344 5.72819 66.4726C5.75759 66.4108 5.79937 66.3557 5.85093 66.3107C5.90249 66.2657 5.96273 66.2318 6.02793 66.211C6.09314 66.1903 6.16187 66.1831 6.22996 66.19C6.29656 66.1938 6.36176 66.2108 6.42167 66.2402C6.48158 66.2695 6.53498 66.3106 6.57877 66.3609C6.62257 66.4112 6.65586 66.4698 6.67667 66.5332C6.69749 66.5966 6.70543 66.6635 6.69999 66.73C6.61999 68.06 6.56996 69.44 6.53996 70.82C6.53734 70.9535 6.48249 71.0807 6.38712 71.1742C6.29176 71.2677 6.16349 71.32 6.02995 71.32H6.02ZM86.73 68.78C86.6629 68.7749 86.5975 68.7567 86.5376 68.7263C86.4776 68.6958 86.4243 68.6539 86.3806 68.6028C86.3369 68.5516 86.3038 68.4924 86.2831 68.4284C86.2624 68.3644 86.2545 68.297 86.26 68.23C86.38 66.9 86.44 65.56 86.44 64.16H86.95L87.4699 64.25C87.4699 65.59 87.3999 66.96 87.2799 68.32C87.2698 68.4473 87.2113 68.5659 87.1164 68.6514C87.0216 68.7369 86.8977 68.7829 86.77 68.78H86.73ZM6.48997 63.11C6.42287 63.1037 6.35772 63.0842 6.2982 63.0526C6.23868 63.021 6.186 62.978 6.14323 62.9259C6.10045 62.8738 6.06842 62.8138 6.04899 62.7493C6.02955 62.6847 6.02305 62.617 6.02995 62.55C6.17995 61.15 6.35999 59.77 6.56999 58.45C6.59217 58.3172 6.66499 58.1981 6.77317 58.1179C6.88135 58.0377 7.01646 58.0026 7.15 58.02C7.28481 58.0421 7.40548 58.1164 7.48594 58.2268C7.5664 58.3372 7.60019 58.4749 7.57999 58.61C7.37999 59.91 7.19997 61.28 7.04997 62.66C7.03521 62.7846 6.97505 62.8994 6.88096 62.9824C6.78687 63.0654 6.66544 63.1109 6.53996 63.11H6.48997ZM86.34 60.11C86.34 58.78 86.23 57.41 86.15 56C86.1445 55.8637 86.1928 55.7307 86.2845 55.6297C86.3761 55.5287 86.5038 55.4678 86.64 55.46C86.7079 55.4529 86.7766 55.4603 86.8415 55.4818C86.9063 55.5034 86.9658 55.5385 87.016 55.5849C87.0661 55.6313 87.1059 55.6879 87.1324 55.7508C87.159 55.8138 87.1718 55.8817 87.17 55.95C87.25 57.36 87.31 58.74 87.36 60.07C87.3626 60.137 87.3521 60.2038 87.3289 60.2667C87.3057 60.3296 87.2703 60.3874 87.2248 60.4366C87.1793 60.4858 87.1246 60.5256 87.0637 60.5536C87.0028 60.5817 86.937 60.5974 86.87 60.6C86.8016 60.6054 86.7329 60.5973 86.6677 60.5761C86.6025 60.5549 86.5422 60.5211 86.4902 60.4764C86.4381 60.4318 86.3954 60.3774 86.3645 60.3162C86.3336 60.255 86.315 60.1883 86.31 60.12L86.34 60.11ZM7.68998 55.02C7.55738 54.9934 7.44077 54.9153 7.36576 54.8028C7.29075 54.6903 7.26346 54.5526 7.28996 54.42C7.56996 53.07 7.88996 51.72 8.22996 50.42C8.26444 50.2874 8.35021 50.1739 8.46836 50.1045C8.58651 50.0351 8.72736 50.0155 8.85996 50.05C8.99257 50.0845 9.10607 50.1702 9.17545 50.2884C9.24484 50.4065 9.26444 50.5474 9.22996 50.68C8.88996 51.98 8.57998 53.32 8.30998 54.68C8.28485 54.7937 8.22156 54.8955 8.13059 54.9682C8.03963 55.041 7.92647 55.0804 7.80998 55.08L7.68998 55.02ZM85.88 51.9C85.78 50.56 85.6599 49.19 85.5299 47.81C85.5159 47.6761 85.5553 47.5422 85.6396 47.4373C85.7239 47.3324 85.8462 47.2651 85.98 47.25C86.1148 47.2387 86.2487 47.2805 86.3533 47.3664C86.4579 47.4523 86.5248 47.5755 86.54 47.71C86.68 49.1 86.7999 50.47 86.91 51.83C86.9182 51.9663 86.8725 52.1005 86.7827 52.2034C86.6929 52.3063 86.5662 52.3697 86.43 52.38C86.3603 52.3883 86.2896 52.3827 86.2221 52.3636C86.1546 52.3444 86.0917 52.312 86.0368 52.2683C85.9819 52.2246 85.9362 52.1704 85.9024 52.1089C85.8687 52.0474 85.8475 51.9798 85.84 51.91L85.88 51.9ZM9.71 47.06C9.5815 47.0187 9.47461 46.9281 9.41276 46.8082C9.3509 46.6882 9.3391 46.5486 9.37998 46.42C9.79998 45.1 10.27 43.79 10.76 42.52C10.7833 42.4567 10.8189 42.3988 10.8648 42.3494C10.9107 42.3 10.966 42.2602 11.0274 42.2323C11.0888 42.2044 11.1551 42.1889 11.2225 42.1868C11.2898 42.1847 11.357 42.196 11.42 42.22C11.5484 42.2692 11.6522 42.3674 11.7084 42.493C11.7646 42.6186 11.7688 42.7613 11.7199 42.89C11.2299 44.14 10.72 45.43 10.35 46.73C10.3208 46.8337 10.2577 46.9247 10.1706 46.9882C10.0836 47.0517 9.97766 47.084 9.86997 47.08C9.80342 47.0921 9.73497 47.0886 9.66996 47.07L9.71 47.06ZM85.06 43.74C84.89 42.38 84.69 41.03 84.48 39.68C84.4685 39.6136 84.4703 39.5457 84.4853 39.48C84.5002 39.4144 84.528 39.3523 84.5671 39.2975C84.6061 39.2426 84.6556 39.196 84.7127 39.1604C84.7699 39.1248 84.8336 39.1009 84.9 39.09C85.0351 39.0698 85.1727 39.1036 85.2831 39.184C85.3935 39.2645 85.4678 39.3852 85.49 39.52C85.7 40.88 85.9 42.24 86.07 43.61C86.087 43.7439 86.0502 43.8791 85.9678 43.9859C85.8853 44.0927 85.7638 44.1625 85.63 44.18H85.57C85.4408 44.1917 85.312 44.1537 85.2099 44.0739C85.1077 43.994 85.0398 43.8781 85.02 43.75L85.06 43.74ZM12.63 39.38C12.5098 39.3195 12.4171 39.2156 12.3706 39.0894C12.3242 38.9631 12.3276 38.8239 12.38 38.7C12.97 37.44 13.59 36.2 14.25 35C14.3211 34.8942 14.4292 34.819 14.5531 34.789C14.6769 34.759 14.8075 34.7764 14.9191 34.8379C15.0307 34.8993 15.1153 35.0003 15.1562 35.121C15.197 35.2417 15.1913 35.3734 15.14 35.49C14.5 36.67 13.88 37.89 13.31 39.13C13.2699 39.2187 13.2053 39.294 13.1238 39.3472C13.0423 39.4003 12.9473 39.4291 12.85 39.43C12.7612 39.4435 12.6706 39.4295 12.59 39.39L12.63 39.38ZM83.76 35.64C83.49 34.27 83.19 32.92 82.88 31.64C82.8636 31.5756 82.8602 31.5086 82.87 31.4429C82.8798 31.3772 82.9026 31.3142 82.937 31.2574C82.9715 31.2006 83.0169 31.1512 83.0706 31.1122C83.1243 31.0731 83.1853 31.0452 83.25 31.03C83.315 31.0135 83.3826 31.01 83.449 31.0197C83.5153 31.0293 83.5791 31.052 83.6367 31.0864C83.6943 31.1208 83.7446 31.1661 83.7846 31.2199C83.8246 31.2738 83.8536 31.335 83.87 31.4C84.19 32.69 84.49 34.05 84.76 35.4C84.7865 35.5326 84.7592 35.6703 84.6842 35.7828C84.6092 35.8953 84.4926 35.9734 84.36 36H84.26C84.1432 36.0145 84.025 35.9874 83.9262 35.9234C83.8274 35.8594 83.7544 35.7626 83.7199 35.65L83.76 35.64ZM16.51 32.14C16.3964 32.068 16.3159 31.954 16.2859 31.8229C16.256 31.6918 16.2789 31.5542 16.35 31.44C17.1 30.27 17.89 29.12 18.7 28.02C18.7404 27.9657 18.7911 27.92 18.8493 27.8855C18.9076 27.8511 18.972 27.8285 19.039 27.8192C19.106 27.8099 19.1742 27.814 19.2396 27.8313C19.305 27.8486 19.3663 27.8788 19.42 27.92C19.4739 27.9594 19.5195 28.0093 19.5538 28.0667C19.5882 28.124 19.6107 28.1877 19.62 28.2538C19.6293 28.32 19.6252 28.3875 19.6081 28.4521C19.5909 28.5167 19.561 28.5772 19.52 28.63C18.72 29.71 17.94 30.84 17.21 31.98C17.1659 32.0544 17.1028 32.1158 17.0273 32.1579C16.9518 32.2001 16.8664 32.2215 16.7799 32.22C16.6715 32.2351 16.5613 32.2103 16.4699 32.15L16.51 32.14ZM81.81 27.69C81.41 26.35 80.97 25.04 80.52 23.82C80.4962 23.7577 80.485 23.6912 80.4872 23.6245C80.4895 23.5579 80.505 23.4923 80.533 23.4317C80.561 23.3712 80.6007 23.3168 80.65 23.2719C80.6993 23.2269 80.7571 23.1923 80.82 23.17C80.883 23.146 80.9501 23.1347 81.0175 23.1368C81.0849 23.1389 81.1512 23.1544 81.2126 23.1823C81.2739 23.2102 81.3292 23.25 81.3751 23.2994C81.421 23.3487 81.4566 23.4067 81.48 23.47C81.94 24.71 82.38 26.03 82.79 27.4C82.81 27.4643 82.8171 27.532 82.8108 27.5991C82.8046 27.6662 82.785 27.7314 82.7534 27.7909C82.7218 27.8504 82.6787 27.903 82.6266 27.9458C82.5745 27.9886 82.5145 28.0206 82.45 28.04H82.3C82.1863 28.0508 82.0723 28.0232 81.9762 27.9616C81.8801 27.8999 81.8075 27.8078 81.77 27.7L81.81 27.69ZM21.31 25.52C21.2147 25.4244 21.1612 25.2949 21.1612 25.16C21.1612 25.025 21.2147 24.8956 21.31 24.8C22.21 23.74 23.16 22.72 24.13 21.8C24.2272 21.7136 24.3537 21.6676 24.4837 21.6714C24.6138 21.6752 24.7374 21.7286 24.8294 21.8206C24.9214 21.9125 24.9747 22.0362 24.9786 22.1662C24.9824 22.2962 24.9364 22.4228 24.85 22.52C23.85 23.47 22.97 24.47 22.08 25.52C22.0324 25.5771 21.9728 25.6229 21.9053 25.654C21.8378 25.6851 21.7643 25.7008 21.69 25.7C21.6176 25.6981 21.5464 25.6811 21.481 25.6501C21.4156 25.6191 21.3573 25.5748 21.31 25.52ZM78.91 20.08C78.3377 18.852 77.7036 17.6538 77.01 16.49C76.9399 16.3746 76.9184 16.2361 76.9502 16.1048C76.9821 15.9736 77.0647 15.8604 77.18 15.79C77.2954 15.7199 77.4339 15.6984 77.5651 15.7303C77.6963 15.7621 77.8096 15.8448 77.88 15.96C78.6111 17.1505 79.2787 18.3789 79.88 19.64C79.9349 19.7636 79.9395 19.9037 79.8929 20.0307C79.8462 20.1576 79.7519 20.2614 79.63 20.32C79.5626 20.3564 79.4865 20.3737 79.41 20.37C79.3073 20.3765 79.2049 20.3525 79.1159 20.3008C79.0269 20.2492 78.9553 20.1724 78.91 20.08ZM27.06 19.65C26.9671 19.5532 26.9152 19.4242 26.9152 19.29C26.9152 19.1558 26.9671 19.0268 27.06 18.93C28.11 18.03 29.2 17.15 30.3 16.33C30.4087 16.2491 30.5451 16.2147 30.6792 16.2344C30.8133 16.2541 30.9341 16.3262 31.015 16.435C31.0959 16.5437 31.1303 16.6802 31.1106 16.8142C31.0909 16.9483 31.0187 17.0691 30.91 17.15C29.83 17.96 28.76 18.82 27.73 19.7C27.6406 19.7839 27.5226 19.8304 27.4 19.83C27.3343 19.8239 27.2703 19.8049 27.212 19.774C27.1536 19.7431 27.102 19.701 27.06 19.65ZM33.6 14.65C33.5289 14.5358 33.506 14.3982 33.5359 14.2671C33.5659 14.136 33.6464 14.022 33.76 13.95C34.92 13.21 36.12 12.5 37.33 11.84C37.4508 11.7759 37.592 11.762 37.7231 11.8013C37.8541 11.8406 37.9643 11.9299 38.0299 12.05C38.0936 12.1693 38.1072 12.3091 38.0678 12.4385C38.0285 12.5679 37.9393 12.6763 37.82 12.74C36.63 13.39 35.45 14.08 34.31 14.81C34.2288 14.8605 34.1355 14.8882 34.04 14.89C33.9549 14.8945 33.8701 14.8777 33.7933 14.841C33.7164 14.8043 33.6499 14.749 33.6 14.68V14.65ZM74.7 13.15C73.8664 12.1013 72.9355 11.1337 71.92 10.26C71.8201 10.1698 71.7591 10.0443 71.7497 9.91007C71.7404 9.77579 71.7835 9.64313 71.87 9.53998C71.9132 9.48867 71.9662 9.44639 72.0259 9.41559C72.0855 9.38479 72.1506 9.36608 72.2175 9.36051C72.2844 9.35493 72.3517 9.36262 72.4156 9.38312C72.4795 9.40362 72.5388 9.43654 72.59 9.47998C73.6477 10.391 74.6216 11.395 75.5 12.48C75.542 12.5316 75.5733 12.591 75.5921 12.6549C75.6108 12.7187 75.6167 12.7857 75.6092 12.8518C75.6018 12.9179 75.5812 12.9819 75.5487 13.04C75.5162 13.0981 75.4724 13.149 75.42 13.19C75.3312 13.2671 75.2176 13.3097 75.1 13.31C75.0279 13.3167 74.9553 13.3087 74.8865 13.2863C74.8177 13.264 74.7543 13.2278 74.7 13.18V13.15ZM40.79 10.67C40.735 10.5464 40.7304 10.4062 40.7771 10.2793C40.8238 10.1523 40.918 10.0486 41.04 9.98999C42.29 9.41999 43.57 8.89 44.87 8.4C44.9337 8.36909 45.0031 8.35178 45.0739 8.34919C45.1447 8.34659 45.2152 8.35876 45.281 8.38492C45.3468 8.41109 45.4064 8.45069 45.4561 8.50116C45.5058 8.55164 45.5444 8.61188 45.5695 8.6781C45.5946 8.74432 45.6056 8.81506 45.6018 8.88578C45.5981 8.95649 45.5797 9.02564 45.5478 9.08884C45.5158 9.15204 45.4711 9.20791 45.4164 9.25287C45.3616 9.29783 45.2982 9.3309 45.23 9.34998C43.96 9.83998 42.6899 10.35 41.4699 10.92C41.401 10.952 41.326 10.969 41.25 10.97C41.1559 10.9718 41.063 10.9476 40.9818 10.8999C40.9007 10.8523 40.8342 10.7831 40.79 10.7V10.67ZM48.45 7.66999C48.4123 7.54004 48.4267 7.40051 48.4902 7.28101C48.5536 7.16151 48.6612 7.07144 48.79 7.02997C50.1 6.63997 51.45 6.26999 52.79 5.95999C52.8556 5.94489 52.9236 5.94287 52.9901 5.95404C53.0565 5.96522 53.1201 5.98937 53.1772 6.02512C53.2343 6.06087 53.2838 6.1075 53.3229 6.16239C53.362 6.21727 53.3898 6.27931 53.4049 6.34497C53.42 6.41063 53.4221 6.47864 53.4109 6.54508C53.3998 6.61152 53.3756 6.6751 53.3398 6.73221C53.3041 6.78932 53.2574 6.83882 53.2026 6.8779C53.1477 6.91698 53.0857 6.94489 53.02 6.95999C51.69 7.26999 50.37 7.62999 49.08 8.01999C49.0305 8.0297 48.9795 8.0297 48.93 8.01999C48.8304 8.02384 48.7318 7.99841 48.6465 7.94687C48.5612 7.89533 48.4929 7.81994 48.45 7.72998V7.66999ZM68.65 7.95999C67.4812 7.33094 66.2428 6.84092 64.96 6.49997C64.8274 6.46549 64.7139 6.37975 64.6445 6.2616C64.5751 6.14345 64.5555 6.00258 64.59 5.86997C64.6245 5.73736 64.7102 5.6239 64.8283 5.55451C64.9465 5.48512 65.0873 5.46549 65.2199 5.49997C66.5832 5.86027 67.899 6.38057 69.14 7.04999C69.2726 7.08314 69.3866 7.16761 69.4569 7.28482C69.5272 7.40203 69.5481 7.54238 69.515 7.67499C69.4818 7.8076 69.3973 7.92159 69.2801 7.99192C69.1629 8.06224 69.0226 8.08314 68.89 8.04999C68.8088 8.05862 68.7266 8.04836 68.65 8.01999V7.95999ZM56.44 5.72998C56.4301 5.66366 56.4333 5.59601 56.4496 5.53095C56.4658 5.46588 56.4947 5.40468 56.5346 5.3508C56.5746 5.29693 56.6248 5.25144 56.6824 5.21698C56.7399 5.18253 56.8036 5.15978 56.87 5.15C58.2599 4.94335 59.6656 4.863 61.07 4.90998C61.1855 4.93319 61.2894 4.99568 61.3641 5.08683C61.4387 5.17797 61.4795 5.29216 61.4795 5.40998C61.4795 5.52779 61.4387 5.64198 61.3641 5.73313C61.2894 5.82427 61.1855 5.88676 61.07 5.90998C59.7324 5.86587 58.3937 5.94286 57.07 6.13999H57C56.8805 6.15553 56.7594 6.12911 56.6573 6.06528C56.5551 6.00145 56.4783 5.90415 56.44 5.78998V5.72998Z" fill="#EFD9A2"/>
<path d="M5.49997 80.5799C5.58146 81.8933 5.33396 83.2063 4.77994 84.3999C4.23097 85.8915 3.77023 87.4141 3.4 88.9599C1.28 97.5299 1.55999 106.78 3.13999 115.39C3.75877 119.369 4.98999 123.228 6.78995 126.83C7.17951 127.568 7.60676 128.286 8.06998 128.98C7.49998 123.39 6.84996 117.81 6.16996 112.22C5.51212 107.864 5.39795 103.444 5.82999 99.0599C6.27782 95.3766 7.26153 91.7786 8.74997 88.3799C8.89719 87.8905 9.21701 87.4712 9.65 87.1999C10.4 86.9099 11.18 87.6799 11.77 88.3799C15.3745 92.6395 19.4242 96.5015 23.8499 99.8999C26.9599 102.26 30.53 104.9 31.19 108.9C31.7 112.06 30.1899 115.06 28.7799 117.68C25.2925 124.01 21.4636 130.146 17.31 136.06C16.8 136.76 16.3099 137.48 15.7799 138.17C11.9699 143.38 7.77997 149.04 8.55997 155.58C8.89613 158.038 9.91895 160.352 11.511 162.255C13.103 164.159 15.1996 165.575 17.56 166.34C17.56 164.62 17.56 162.9 17.56 161.2C17.37 161.11 17.15 161.06 16.95 160.98C16.2133 160.647 15.5719 160.135 15.0844 159.491C14.597 158.846 14.2791 158.089 14.1599 157.29C13.938 155.693 14.0921 154.067 14.61 152.54C15.357 150.087 16.3627 147.72 17.61 145.48C19.92 141.22 22.82 137.33 25.51 133.31C28.2 129.29 30.18 124.68 33.51 121.02C34.0411 120.326 34.7257 119.765 35.51 119.38C36.2394 119.14 37.0193 119.099 37.77 119.26C44.24 120.33 47.6099 128.26 51.6599 132.59C56.2299 137.52 61.4399 141.92 64.66 147.59C65.2819 148.681 65.8137 149.822 66.25 151C66.4401 151.364 66.5394 151.769 66.5394 152.18C66.5394 152.591 66.4401 152.996 66.25 153.36C65.97 153.76 65.4999 153.95 65.16 154.3C65.1016 154.356 65.0512 154.42 65.01 154.49C65.09 155.38 65.1799 156.23 65.2799 157.06C65.6045 157.469 66.0541 157.76 66.56 157.89C69.02 158.45 72.69 157.06 72.51 154.09C72.26 149.88 69.72 146.3 67.13 143.09C66.38 142.14 65.61 141.19 64.84 140.25C60.65 135.12 56.24 130.02 52.27 124.32C50.27 121.4 47.8799 118.43 45.9699 115.4C44.0599 112.37 46.28 109.33 48.5 107.25C54.3333 101.783 60.12 95.9665 65.86 89.7999C66.6769 88.8061 67.6619 87.9633 68.77 87.3098C69.2879 87.0034 69.889 86.8675 70.4883 86.9213C71.0877 86.9751 71.655 87.216 72.11 87.6099C72.705 88.3271 73.1076 89.184 73.2799 90.0999C74.3434 94.1199 74.9242 98.2524 75.01 102.41C75.2402 110.182 73.7194 117.906 70.56 125.01C72.05 121.74 74.84 119.51 76.56 116.37C78.2453 113.142 79.2462 109.602 79.5 105.97C80.31 96.5899 75.5 85.6799 81.5 77.3899C83.5 74.5799 86.21 72.3099 88.62 69.8199C91.03 67.3299 93.28 64.4999 94.13 61.1299C94.46 59.8199 93.9 57.2799 93.52 55.9099C93.2226 54.8863 92.817 53.8974 92.31 52.9599C92.05 52.4399 90.87 51.1398 90.87 50.6198C90.8752 50.7064 90.8752 50.7933 90.87 50.8799C90.8014 52.7712 90.4647 54.6432 89.87 56.4399C86.8 65.4399 79.72 71.0599 73.21 75.9999C72.409 69.9594 70.6219 64.0914 67.92 58.6299C65.6285 54.1978 62.8982 50.0068 59.77 46.1198C57.61 43.3598 52.9999 39.6199 54.7199 35.6899C55.5199 33.8699 57.03 32.4199 57.83 30.5999C58.63 28.7799 58.3 26.1199 56.42 25.4599C54.98 24.9599 53.42 25.8599 52.26 26.7899C50.7584 27.9434 49.3476 29.2104 48.04 30.5799C46.61 32.0599 45.3 33.6599 43.76 35.0199C41.8925 36.5574 39.9138 37.9546 37.84 39.1999C29.01 44.9699 21.91 52.0199 15.2 60.0699C12.88 62.8599 10.84 66.0199 8.62998 68.9299C7.99998 69.7699 7.08998 70.7099 6.06998 70.4199C5.58306 70.2203 5.173 69.8698 4.9 69.4199C3.47119 67.5151 2.44998 65.3366 1.9 63.0199C1.87201 62.9345 1.84864 62.8477 1.82999 62.7599C0.992999 63.5288 0.44868 64.5644 0.289952 65.6899C-0.329039 68.5757 0.171407 71.589 1.68998 74.1198C2.18758 75.0148 2.75254 75.8706 3.37998 76.6799C4.40364 77.7807 5.13283 79.1222 5.49997 80.5799ZM15.65 70.1699C16.4445 68.5326 17.435 66.998 18.5999 65.5999C23.0006 60.3993 27.6738 55.4356 32.5999 50.7299C36.52 47.0299 41.96 41.3599 48.05 43.2399C51.36 44.2399 54.32 47.4798 56 50.3698C58.8667 55.127 61.49 60.0267 63.86 65.0499C65.8 69.3399 68.24 74.4899 66.45 79.2499C65.7792 80.8868 64.7547 82.3552 63.45 83.5499C59.1 87.7699 55.08 92.3899 50.84 96.7799C47.05 100.71 42.02 107.87 35.95 103.06C30.26 98.5399 24.53 93.9799 19.64 88.5699C17.6628 86.4497 15.9194 84.123 14.44 81.6299C12.8 78.8199 13.16 76.1899 14.32 73.1599C14.74 72.1499 15.17 71.1499 15.65 70.1699Z" fill="#A16D4B"/>
<path d="M191.76 122.14C191.59 123.14 191.43 124.14 191.18 125.07C190.313 128.185 188.785 131.078 186.7 133.55C184.623 136.012 182.305 138.26 179.78 140.26C178.573 141.361 177.178 142.235 175.66 142.84C175.492 139.615 174.969 136.419 174.1 133.31C174.26 133.85 179.53 131.31 179.8 131.16C183.61 129.34 186.37 125.63 188.28 121.95C189.5 119.364 190.393 116.636 190.94 113.83C191.11 113.07 191.94 112.37 192.19 113.5C192.85 116.26 192.23 119.39 191.76 122.14Z" fill="#805539"/>
<path d="M124.66 119.93L125.66 122.26C125.94 122.92 126.23 123.58 126.56 124.26C126.976 125.046 127.436 125.807 127.94 126.54C129.883 129.397 132.208 131.974 134.85 134.2C135.018 133.438 135.052 132.653 134.95 131.88C134.817 129.947 134.677 128.02 134.53 126.1C134.514 125.58 134.427 125.066 134.27 124.57C134.081 124.1 133.821 123.662 133.5 123.27C132.8 122.27 132.07 121.34 131.31 120.4C130.25 119.07 129.13 117.78 128.11 116.4C125.416 112.819 123.384 108.786 122.11 104.49C122.02 104.2 121.8 103.84 121.52 103.95C121.24 104.06 121.31 104.22 121.28 104.39C120.37 109.8 122.54 115.03 124.66 119.93Z" fill="#805539"/>
<path d="M128.31 172.59C130.41 167.84 135.96 151.98 130.87 125.69C128.501 113.919 123.735 102.761 116.87 92.91C111.81 85.54 105.87 74.02 106.25 60.65C106.81 37.4 111.01 -4.63003 140.42 0.419972C165.7 4.74997 192.22 22.74 195.63 62.56C196.535 73.9949 195.442 85.5 192.4 96.56C190.31 104.39 187.08 114.48 182.73 122.56C174.32 138.25 190.85 227.62 160.03 233.78C129.21 239.94 118.63 219.26 121.15 201C122.054 194.114 123.457 187.302 125.35 180.62C126.161 177.882 127.15 175.199 128.31 172.59Z" fill="#FAAE64"/>
<path d="M148.46 229.91C147.069 229.863 145.683 229.726 144.31 229.5C144.244 229.489 144.18 229.465 144.123 229.43C144.066 229.394 144.016 229.347 143.977 229.293C143.938 229.238 143.91 229.176 143.895 229.11C143.88 229.044 143.879 228.976 143.89 228.91C143.9 228.844 143.922 228.781 143.957 228.724C143.992 228.666 144.037 228.617 144.091 228.578C144.145 228.539 144.207 228.511 144.272 228.496C144.337 228.481 144.404 228.479 144.47 228.49C145.794 228.706 147.13 228.84 148.47 228.89C148.585 228.913 148.689 228.976 148.764 229.067C148.839 229.158 148.88 229.272 148.88 229.39C148.88 229.508 148.839 229.622 148.764 229.713C148.689 229.804 148.585 229.867 148.47 229.89L148.46 229.91ZM152.56 229.84C152.444 229.817 152.341 229.754 152.266 229.663C152.191 229.572 152.151 229.458 152.151 229.34C152.151 229.222 152.191 229.108 152.266 229.017C152.341 228.926 152.444 228.863 152.56 228.84C153.86 228.75 155.22 228.59 156.56 228.37C156.626 228.359 156.693 228.361 156.758 228.376C156.823 228.391 156.884 228.419 156.939 228.458C156.993 228.497 157.038 228.546 157.073 228.604C157.107 228.661 157.13 228.724 157.14 228.79C157.151 228.856 157.15 228.924 157.135 228.99C157.12 229.056 157.092 229.118 157.053 229.173C157.014 229.227 156.964 229.274 156.907 229.31C156.85 229.345 156.786 229.369 156.72 229.38C155.31 229.6 153.92 229.76 152.59 229.86L152.56 229.84ZM140.38 228.53H140.22C138.891 228.097 137.603 227.548 136.37 226.89C136.311 226.859 136.259 226.816 136.216 226.764C136.174 226.712 136.142 226.653 136.122 226.589C136.103 226.524 136.096 226.457 136.102 226.391C136.109 226.324 136.128 226.259 136.16 226.2C136.19 226.14 136.233 226.087 136.284 226.043C136.336 226 136.396 225.968 136.46 225.948C136.525 225.928 136.592 225.922 136.659 225.929C136.726 225.936 136.791 225.957 136.85 225.99C138.032 226.62 139.266 227.146 140.54 227.56C140.66 227.594 140.763 227.671 140.83 227.777C140.897 227.882 140.923 228.008 140.904 228.131C140.884 228.254 140.82 228.366 140.723 228.445C140.627 228.524 140.505 228.565 140.38 228.56V228.53ZM160.66 228.53C160.553 228.531 160.449 228.497 160.362 228.434C160.276 228.371 160.212 228.282 160.18 228.18C160.158 228.117 160.149 228.05 160.153 227.984C160.158 227.917 160.175 227.852 160.205 227.793C160.235 227.733 160.276 227.68 160.327 227.637C160.378 227.593 160.437 227.56 160.5 227.54C161.751 227.126 162.932 226.522 164 225.75C164.112 225.689 164.241 225.672 164.365 225.7C164.489 225.729 164.598 225.801 164.672 225.905C164.745 226.008 164.779 226.135 164.766 226.261C164.752 226.387 164.694 226.504 164.6 226.59C163.443 227.416 162.169 228.063 160.82 228.51L160.66 228.53ZM133.19 224.7C133.074 224.7 132.961 224.661 132.87 224.59C131.784 223.709 130.78 222.732 129.87 221.67C129.781 221.568 129.737 221.435 129.746 221.3C129.755 221.165 129.818 221.039 129.92 220.95C130.022 220.861 130.155 220.817 130.29 220.826C130.425 220.835 130.551 220.898 130.64 221C131.514 222.015 132.478 222.948 133.52 223.79C133.574 223.831 133.619 223.883 133.652 223.942C133.686 224 133.707 224.066 133.714 224.133C133.722 224.2 133.716 224.268 133.696 224.333C133.676 224.398 133.644 224.458 133.6 224.51C133.547 224.564 133.483 224.605 133.412 224.631C133.341 224.657 133.265 224.667 133.19 224.66V224.7ZM167.29 223.89C167.169 223.891 167.052 223.849 166.96 223.77C166.909 223.727 166.866 223.674 166.836 223.614C166.805 223.555 166.786 223.489 166.781 223.423C166.775 223.356 166.783 223.288 166.803 223.224C166.824 223.16 166.857 223.101 166.9 223.05C167.755 222.017 168.514 220.909 169.17 219.74C169.241 219.625 169.352 219.542 169.482 219.507C169.612 219.471 169.751 219.487 169.87 219.55C169.987 219.619 170.072 219.731 170.107 219.861C170.143 219.992 170.126 220.132 170.06 220.25C169.375 221.474 168.578 222.632 167.68 223.71C167.631 223.757 167.573 223.793 167.509 223.817C167.446 223.841 167.378 223.853 167.31 223.85L167.29 223.89ZM127.84 218.51C127.751 218.509 127.665 218.486 127.588 218.442C127.511 218.398 127.446 218.336 127.4 218.26C126.688 217.059 126.07 215.806 125.55 214.51C125.524 214.448 125.511 214.382 125.511 214.315C125.511 214.249 125.524 214.182 125.551 214.121C125.577 214.059 125.615 214.004 125.663 213.957C125.711 213.911 125.768 213.874 125.83 213.85C125.892 213.824 125.959 213.811 126.027 213.811C126.094 213.811 126.161 213.824 126.224 213.85C126.286 213.876 126.342 213.914 126.39 213.962C126.437 214.01 126.475 214.067 126.5 214.13C127.002 215.376 127.597 216.583 128.28 217.74C128.347 217.857 128.365 217.996 128.331 218.126C128.298 218.257 128.215 218.369 128.1 218.44C128.018 218.474 127.928 218.484 127.84 218.47V218.51ZM171.4 216.81C171.337 216.824 171.273 216.824 171.21 216.81C171.148 216.786 171.091 216.749 171.043 216.703C170.995 216.656 170.957 216.601 170.931 216.539C170.904 216.478 170.891 216.412 170.891 216.345C170.891 216.278 170.904 216.212 170.93 216.15C171.42 214.97 171.93 213.68 172.3 212.32C172.319 212.256 172.351 212.195 172.394 212.143C172.437 212.091 172.49 212.048 172.549 212.017C172.609 211.985 172.674 211.965 172.741 211.959C172.808 211.953 172.876 211.96 172.94 211.98C173.069 212.021 173.176 212.112 173.24 212.231C173.303 212.351 173.318 212.49 173.28 212.62C172.84 214.01 172.37 215.33 171.88 216.54C171.827 216.617 171.754 216.678 171.67 216.718C171.586 216.759 171.493 216.776 171.4 216.77V216.81ZM124.76 210.92C124.646 210.921 124.535 210.882 124.446 210.811C124.357 210.74 124.295 210.641 124.27 210.53C123.931 209.181 123.68 207.812 123.52 206.43C123.5 206.359 123.495 206.285 123.506 206.212C123.518 206.139 123.545 206.069 123.586 206.008C123.626 205.946 123.68 205.894 123.743 205.856C123.806 205.817 123.876 205.792 123.95 205.784C124.023 205.775 124.097 205.782 124.167 205.805C124.238 205.828 124.302 205.865 124.356 205.915C124.41 205.965 124.453 206.026 124.482 206.095C124.51 206.163 124.523 206.236 124.52 206.31C124.68 207.657 124.923 208.993 125.25 210.31C125.266 210.375 125.27 210.443 125.26 210.509C125.251 210.575 125.228 210.639 125.194 210.697C125.159 210.754 125.114 210.805 125.06 210.845C125.006 210.885 124.945 210.914 124.88 210.93L124.76 210.92ZM173.87 208.92H173.75C173.618 208.887 173.505 208.803 173.434 208.688C173.363 208.572 173.34 208.433 173.37 208.3C173.67 207.05 173.96 205.7 174.22 204.3C174.229 204.231 174.251 204.164 174.287 204.104C174.322 204.044 174.369 203.992 174.426 203.951C174.482 203.91 174.546 203.881 174.614 203.865C174.682 203.85 174.753 203.849 174.821 203.862C174.89 203.875 174.955 203.902 175.013 203.941C175.07 203.98 175.119 204.031 175.157 204.09C175.194 204.148 175.219 204.214 175.23 204.283C175.241 204.352 175.237 204.423 175.22 204.49C174.96 205.9 174.67 207.27 174.37 208.49C174.351 208.61 174.291 208.72 174.2 208.801C174.108 208.881 173.992 208.927 173.87 208.93V208.92ZM123.77 202.73C123.65 202.719 123.538 202.665 123.454 202.579C123.37 202.493 123.319 202.38 123.31 202.26V202.05C123.31 200.74 123.38 199.41 123.51 198.05C123.525 197.914 123.593 197.789 123.7 197.703C123.807 197.617 123.944 197.576 124.08 197.59C124.214 197.605 124.336 197.673 124.42 197.777C124.505 197.882 124.544 198.016 124.53 198.15C124.399 199.429 124.332 200.714 124.33 202V202.26C124.326 202.329 124.309 202.396 124.278 202.458C124.248 202.52 124.205 202.575 124.153 202.62C124.1 202.665 124.039 202.698 123.974 202.719C123.908 202.74 123.839 202.747 123.77 202.74V202.73ZM175.39 200.84H175.31C175.244 200.83 175.18 200.808 175.122 200.773C175.065 200.739 175.015 200.693 174.975 200.639C174.935 200.585 174.906 200.524 174.89 200.459C174.873 200.394 174.87 200.326 174.88 200.26C175.07 198.93 175.24 197.58 175.4 196.2C175.415 196.066 175.482 195.944 175.587 195.86C175.692 195.775 175.826 195.736 175.96 195.75C176.027 195.756 176.092 195.776 176.151 195.807C176.21 195.839 176.262 195.882 176.304 195.935C176.346 195.987 176.377 196.047 176.395 196.112C176.413 196.176 176.418 196.244 176.41 196.31C176.26 197.7 176.09 199.07 175.89 200.41C175.873 200.531 175.814 200.642 175.722 200.723C175.63 200.804 175.512 200.849 175.39 200.85V200.84ZM124.52 194.55H124.44C124.374 194.54 124.31 194.517 124.252 194.483C124.195 194.449 124.145 194.403 124.105 194.349C124.065 194.295 124.036 194.234 124.02 194.169C124.003 194.104 124 194.036 124.01 193.97C124.22 192.54 124.44 191.18 124.67 189.9C124.68 189.833 124.703 189.769 124.738 189.711C124.773 189.653 124.82 189.603 124.875 189.564C124.93 189.524 124.993 189.497 125.059 189.482C125.125 189.468 125.194 189.467 125.26 189.48C125.326 189.491 125.389 189.515 125.446 189.551C125.503 189.586 125.552 189.633 125.59 189.688C125.628 189.743 125.655 189.805 125.669 189.871C125.683 189.937 125.683 190.004 125.67 190.07C125.45 191.35 125.23 192.7 125.02 194.12C125.003 194.241 124.944 194.352 124.852 194.433C124.76 194.514 124.642 194.559 124.52 194.56V194.55ZM176.31 192.67C176.176 192.655 176.052 192.588 175.966 192.483C175.88 192.379 175.839 192.245 175.85 192.11C175.97 190.77 176.07 189.4 176.16 188.02C176.162 187.953 176.179 187.886 176.207 187.825C176.236 187.764 176.277 187.71 176.327 187.665C176.378 187.62 176.437 187.586 176.501 187.564C176.565 187.543 176.633 187.535 176.7 187.54C176.835 187.553 176.96 187.617 177.05 187.719C177.139 187.822 177.186 187.954 177.18 188.09C177.09 189.47 176.98 190.85 176.87 192.2C176.865 192.268 176.846 192.334 176.815 192.395C176.784 192.456 176.741 192.509 176.689 192.553C176.637 192.597 176.577 192.63 176.511 192.65C176.446 192.67 176.378 192.677 176.31 192.67ZM125.93 186.45H125.82C125.687 186.424 125.571 186.345 125.496 186.233C125.421 186.12 125.393 185.983 125.42 185.85C125.72 184.4 126.01 183.05 126.3 181.85C126.314 181.785 126.341 181.722 126.38 181.668C126.418 181.613 126.468 181.566 126.524 181.531C126.581 181.495 126.645 181.472 126.711 181.461C126.777 181.451 126.845 181.454 126.91 181.47C126.976 181.484 127.038 181.511 127.093 181.55C127.149 181.588 127.196 181.637 127.232 181.694C127.268 181.751 127.293 181.814 127.305 181.88C127.316 181.946 127.315 182.014 127.3 182.08C127.01 183.31 126.72 184.64 126.43 186.08C126.399 186.188 126.333 186.283 126.243 186.35C126.152 186.417 126.042 186.452 125.93 186.45ZM176.84 184.45C176.773 184.447 176.707 184.432 176.646 184.404C176.585 184.376 176.531 184.336 176.485 184.287C176.44 184.237 176.404 184.18 176.381 184.117C176.358 184.054 176.347 183.987 176.35 183.92C176.41 182.56 176.47 181.19 176.51 179.82C176.515 179.684 176.574 179.555 176.673 179.462C176.772 179.368 176.904 179.317 177.04 179.32C177.107 179.323 177.173 179.338 177.234 179.366C177.295 179.394 177.349 179.434 177.395 179.483C177.44 179.533 177.476 179.59 177.499 179.653C177.522 179.716 177.533 179.783 177.53 179.85C177.53 181.23 177.44 182.6 177.37 183.97C177.362 184.104 177.303 184.231 177.204 184.322C177.105 184.413 176.975 184.463 176.84 184.46V184.45ZM127.84 178.45H127.72C127.655 178.435 127.594 178.407 127.541 178.368C127.487 178.329 127.441 178.279 127.407 178.223C127.373 178.166 127.35 178.103 127.34 178.037C127.33 177.971 127.334 177.904 127.35 177.84L127.4 177.64C127.74 176.43 128.13 175.18 128.57 173.93C128.615 173.803 128.709 173.699 128.831 173.641C128.953 173.583 129.093 173.575 129.22 173.62C129.284 173.641 129.343 173.675 129.393 173.72C129.443 173.764 129.484 173.818 129.513 173.879C129.542 173.94 129.559 174.006 129.561 174.073C129.564 174.14 129.554 174.207 129.53 174.27C129.1 175.5 128.72 176.73 128.39 177.91L128.33 178.12C128.283 178.218 128.207 178.3 128.112 178.354C128.018 178.407 127.908 178.431 127.8 178.42L127.84 178.45ZM177.11 176.26C177.043 176.259 176.977 176.244 176.916 176.217C176.854 176.191 176.799 176.152 176.752 176.104C176.706 176.055 176.669 175.998 176.645 175.936C176.621 175.874 176.609 175.807 176.61 175.74C176.61 174.37 176.66 173 176.68 171.63C176.68 171.564 176.693 171.498 176.719 171.436C176.745 171.375 176.782 171.32 176.83 171.273C176.877 171.226 176.934 171.19 176.996 171.165C177.057 171.141 177.124 171.129 177.19 171.13C177.325 171.13 177.455 171.184 177.551 171.279C177.646 171.375 177.7 171.505 177.7 171.64C177.7 173.02 177.7 174.39 177.63 175.76C177.63 175.827 177.616 175.894 177.59 175.956C177.564 176.018 177.525 176.074 177.477 176.121C177.428 176.168 177.37 176.204 177.307 176.228C177.245 176.252 177.177 176.263 177.11 176.26ZM130.5 170.73C130.437 170.739 130.373 170.739 130.31 170.73C130.185 170.677 130.086 170.577 130.034 170.452C129.981 170.327 129.98 170.186 130.03 170.06L130.1 169.9C130.57 168.77 131.03 167.48 131.46 166.08C131.48 166.014 131.512 165.953 131.555 165.9C131.599 165.847 131.652 165.803 131.713 165.77C131.773 165.738 131.839 165.718 131.907 165.711C131.975 165.704 132.044 165.71 132.11 165.73C132.176 165.75 132.237 165.782 132.29 165.826C132.343 165.869 132.387 165.922 132.42 165.983C132.452 166.043 132.472 166.109 132.479 166.177C132.486 166.245 132.48 166.314 132.46 166.38C132.02 167.81 131.55 169.13 131.06 170.3L131 170.45C130.947 170.532 130.872 170.598 130.784 170.641C130.696 170.683 130.597 170.7 130.5 170.69V170.73ZM177.21 168.04C177.076 168.035 176.949 167.98 176.855 167.885C176.76 167.791 176.705 167.664 176.7 167.53V163.41C176.731 163.301 176.797 163.206 176.887 163.138C176.977 163.07 177.087 163.033 177.2 163.033C177.313 163.033 177.423 163.07 177.513 163.138C177.603 163.206 177.669 163.301 177.7 163.41V164.05C177.7 165.2 177.7 166.36 177.7 167.53C177.69 167.655 177.635 167.772 177.545 167.858C177.454 167.945 177.335 167.996 177.21 168V168.04ZM132.99 162.73H132.88C132.814 162.716 132.752 162.689 132.697 162.65C132.641 162.612 132.594 162.563 132.558 162.506C132.522 162.45 132.497 162.386 132.485 162.32C132.474 162.254 132.475 162.186 132.49 162.12C132.79 160.83 133.04 159.48 133.26 158.12C133.282 157.985 133.356 157.865 133.467 157.784C133.577 157.704 133.715 157.67 133.85 157.69C133.916 157.701 133.98 157.725 134.037 157.761C134.094 157.796 134.144 157.843 134.183 157.898C134.222 157.952 134.25 158.014 134.265 158.08C134.28 158.146 134.281 158.214 134.27 158.28C134.05 159.66 133.79 161.03 133.49 162.35C133.455 162.454 133.388 162.543 133.297 162.604C133.207 162.666 133.099 162.696 132.99 162.69V162.73ZM177.21 159.81C177.075 159.81 176.945 159.756 176.849 159.661C176.754 159.565 176.7 159.435 176.7 159.3V155.19C176.7 155.055 176.754 154.925 176.849 154.829C176.945 154.734 177.075 154.68 177.21 154.68C177.345 154.68 177.475 154.734 177.571 154.829C177.666 154.925 177.72 155.055 177.72 155.19V159.3C177.72 159.435 177.666 159.565 177.571 159.661C177.475 159.756 177.345 159.81 177.21 159.81ZM134.31 154.61H134.25C134.116 154.595 133.994 154.528 133.91 154.423C133.825 154.318 133.786 154.184 133.8 154.05C133.94 152.73 134.05 151.36 134.13 149.97C134.138 149.837 134.198 149.711 134.297 149.622C134.396 149.532 134.526 149.485 134.66 149.49C134.796 149.498 134.924 149.559 135.016 149.66C135.107 149.761 135.155 149.894 135.15 150.03C135.07 151.44 134.96 152.82 134.82 154.15C134.799 154.269 134.736 154.377 134.642 154.454C134.549 154.531 134.431 154.572 134.31 154.57V154.61ZM177.18 151.61C177.045 151.61 176.915 151.556 176.819 151.461C176.724 151.365 176.67 151.235 176.67 151.1V146.98C176.67 146.845 176.724 146.715 176.819 146.619C176.915 146.524 177.045 146.47 177.18 146.47C177.249 146.467 177.317 146.479 177.381 146.504C177.445 146.529 177.503 146.567 177.551 146.617C177.599 146.666 177.636 146.724 177.66 146.788C177.684 146.853 177.694 146.921 177.69 146.99V151.09C177.691 151.158 177.679 151.225 177.654 151.288C177.629 151.351 177.592 151.409 177.544 151.457C177.497 151.506 177.44 151.544 177.378 151.57C177.315 151.597 177.248 151.61 177.18 151.61ZM134.76 146.42C134.625 146.42 134.495 146.366 134.399 146.271C134.304 146.175 134.25 146.045 134.25 145.91V145.1C134.25 144.04 134.25 142.94 134.19 141.82C134.187 141.753 134.198 141.686 134.221 141.623C134.244 141.56 134.28 141.503 134.325 141.453C134.371 141.404 134.425 141.364 134.486 141.336C134.547 141.308 134.613 141.293 134.68 141.29C134.814 141.29 134.943 141.34 135.041 141.431C135.14 141.522 135.2 141.647 135.21 141.78C135.21 142.92 135.27 144.03 135.27 145.1V145.92C135.253 146.043 135.192 146.155 135.098 146.236C135.004 146.317 134.884 146.361 134.76 146.36V146.42ZM177.22 143.42C177.152 143.42 177.085 143.407 177.022 143.38C176.96 143.354 176.903 143.316 176.856 143.267C176.808 143.219 176.771 143.161 176.746 143.098C176.721 143.035 176.709 142.968 176.71 142.9C176.71 141.48 176.76 140.11 176.8 138.78C176.8 138.712 176.814 138.645 176.841 138.583C176.868 138.521 176.908 138.465 176.957 138.419C177.007 138.373 177.066 138.337 177.13 138.315C177.194 138.293 177.262 138.285 177.33 138.29C177.397 138.291 177.462 138.306 177.523 138.333C177.584 138.36 177.639 138.399 177.684 138.447C177.73 138.495 177.765 138.553 177.789 138.615C177.812 138.677 177.823 138.744 177.82 138.81C177.78 140.143 177.75 141.513 177.73 142.92C177.706 143.036 177.642 143.141 177.549 143.214C177.455 143.287 177.339 143.325 177.22 143.32V143.42ZM134.49 138.25C134.36 138.25 134.234 138.201 134.14 138.111C134.045 138.022 133.988 137.9 133.98 137.77C133.88 136.44 133.75 135.07 133.6 133.7C133.58 133.629 133.575 133.555 133.586 133.482C133.598 133.409 133.625 133.339 133.666 133.278C133.706 133.216 133.76 133.164 133.823 133.126C133.886 133.087 133.956 133.062 134.03 133.054C134.103 133.045 134.177 133.052 134.247 133.075C134.318 133.097 134.382 133.135 134.436 133.185C134.491 133.235 134.533 133.297 134.562 133.365C134.59 133.433 134.603 133.506 134.6 133.58C134.76 134.97 134.89 136.35 134.99 137.7C134.995 137.767 134.988 137.833 134.967 137.897C134.946 137.96 134.913 138.019 134.869 138.069C134.825 138.119 134.772 138.161 134.712 138.19C134.652 138.219 134.587 138.236 134.52 138.24L134.49 138.25ZM177.49 135.25C177.356 135.24 177.23 135.178 177.141 135.077C177.051 134.976 177.004 134.845 177.01 134.71C177.1 133.18 177.21 131.83 177.34 130.59C177.346 130.523 177.366 130.458 177.397 130.398C177.429 130.339 177.472 130.286 177.524 130.243C177.576 130.2 177.636 130.168 177.701 130.149C177.765 130.13 177.833 130.123 177.9 130.13C177.967 130.136 178.032 130.156 178.092 130.187C178.151 130.219 178.204 130.262 178.247 130.314C178.29 130.366 178.322 130.426 178.341 130.491C178.36 130.555 178.367 130.623 178.36 130.69C178.23 131.92 178.12 133.26 178.03 134.77C177.99 134.878 177.915 134.969 177.817 135.029C177.719 135.089 177.604 135.114 177.49 135.1V135.25ZM133.57 130.12C133.449 130.121 133.331 130.078 133.239 129.999C133.147 129.92 133.087 129.81 133.07 129.69C132.87 128.37 132.65 127.02 132.4 125.69C132.387 125.624 132.387 125.555 132.401 125.489C132.415 125.423 132.441 125.36 132.479 125.304C132.518 125.248 132.566 125.201 132.623 125.164C132.68 125.127 132.743 125.102 132.81 125.09C132.943 125.069 133.08 125.1 133.191 125.176C133.303 125.252 133.381 125.368 133.41 125.5C133.66 126.89 133.88 128.25 134.08 129.58C134.09 129.646 134.087 129.714 134.07 129.779C134.054 129.844 134.025 129.905 133.985 129.959C133.945 130.013 133.895 130.059 133.838 130.093C133.78 130.128 133.716 130.15 133.65 130.16L133.57 130.12ZM178.41 127.12H178.31C178.177 127.093 178.061 127.015 177.986 126.903C177.911 126.79 177.883 126.653 177.91 126.52C178.159 125.143 178.572 123.8 179.14 122.52C179.169 122.459 179.21 122.404 179.26 122.359C179.31 122.314 179.368 122.278 179.432 122.256C179.495 122.233 179.563 122.223 179.63 122.226C179.698 122.23 179.764 122.246 179.825 122.275C179.886 122.304 179.941 122.345 179.986 122.395C180.032 122.445 180.067 122.503 180.089 122.567C180.112 122.63 180.122 122.698 180.119 122.765C180.115 122.833 180.099 122.899 180.07 122.96C179.534 124.176 179.145 125.452 178.91 126.76C178.85 126.831 178.772 126.885 178.684 126.915C178.596 126.945 178.501 126.95 178.41 126.93V127.12ZM132.06 122.12C131.946 122.121 131.836 122.082 131.746 122.011C131.657 121.94 131.595 121.841 131.57 121.73C131.25 120.41 130.91 119.08 130.57 117.73C130.552 117.664 130.546 117.596 130.555 117.528C130.563 117.46 130.584 117.395 130.617 117.335C130.651 117.276 130.696 117.224 130.749 117.182C130.803 117.14 130.864 117.108 130.93 117.09C130.996 117.072 131.064 117.066 131.132 117.075C131.2 117.083 131.265 117.104 131.325 117.137C131.384 117.171 131.436 117.216 131.478 117.269C131.52 117.323 131.552 117.384 131.57 117.45C131.95 118.77 132.3 120.12 132.57 121.45C132.6 121.583 132.577 121.722 132.506 121.838C132.435 121.953 132.322 122.037 132.19 122.07L132.06 122.12ZM181.37 119.52C181.301 119.534 181.229 119.534 181.16 119.52C181.098 119.493 181.042 119.454 180.995 119.405C180.948 119.356 180.911 119.298 180.887 119.235C180.863 119.171 180.852 119.104 180.854 119.036C180.856 118.968 180.872 118.902 180.9 118.84C181.42 117.65 181.9 116.38 182.46 115.06C182.51 114.927 182.611 114.82 182.741 114.762C182.87 114.704 183.017 114.7 183.15 114.75C183.283 114.8 183.39 114.901 183.448 115.031C183.506 115.16 183.51 115.307 183.46 115.44C182.94 116.76 182.41 118.05 181.87 119.26C181.794 119.304 181.708 119.327 181.62 119.327C181.532 119.327 181.446 119.304 181.37 119.26V119.52ZM129.78 114.22C129.674 114.221 129.571 114.189 129.485 114.128C129.399 114.067 129.334 113.98 129.3 113.88C128.86 112.59 128.38 111.3 127.88 110.05C127.855 109.988 127.843 109.921 127.843 109.854C127.844 109.787 127.858 109.72 127.885 109.659C127.911 109.597 127.95 109.541 127.998 109.494C128.046 109.447 128.103 109.41 128.165 109.385C128.227 109.36 128.294 109.348 128.361 109.348C128.428 109.349 128.495 109.363 128.557 109.39C128.618 109.416 128.674 109.455 128.721 109.503C128.768 109.551 128.805 109.608 128.83 109.67C129.33 110.94 129.83 112.24 130.27 113.55C130.293 113.627 130.298 113.708 130.285 113.788C130.271 113.867 130.239 113.942 130.192 114.007C130.144 114.072 130.082 114.125 130.011 114.162C129.94 114.199 129.86 114.219 129.78 114.22ZM184.37 111.86C184.314 111.87 184.256 111.87 184.2 111.86C184.136 111.839 184.077 111.805 184.026 111.76C183.976 111.716 183.934 111.662 183.905 111.602C183.875 111.541 183.857 111.476 183.853 111.408C183.849 111.341 183.858 111.274 183.88 111.21C184.34 109.91 184.77 108.61 185.18 107.32C185.223 107.193 185.314 107.088 185.434 107.026C185.553 106.965 185.691 106.952 185.82 106.99C185.884 107.009 185.944 107.041 185.996 107.084C186.048 107.127 186.09 107.18 186.121 107.24C186.152 107.3 186.17 107.365 186.175 107.432C186.18 107.499 186.172 107.566 186.15 107.63C185.74 108.93 185.31 110.24 184.85 111.55C184.783 111.602 184.704 111.637 184.62 111.651C184.536 111.665 184.45 111.658 184.37 111.63V111.86ZM126.74 106.58C126.642 106.58 126.547 106.552 126.465 106.499C126.383 106.446 126.319 106.37 126.28 106.28C125.72 105.05 125.12 103.81 124.5 102.6C124.469 102.54 124.45 102.475 124.444 102.408C124.438 102.341 124.446 102.273 124.466 102.209C124.487 102.145 124.52 102.086 124.563 102.034C124.607 101.983 124.66 101.941 124.72 101.91C124.843 101.853 124.982 101.845 125.111 101.888C125.239 101.931 125.346 102.021 125.41 102.14C126.04 103.36 126.64 104.61 127.21 105.86C127.264 105.985 127.267 106.126 127.219 106.253C127.17 106.38 127.074 106.483 126.95 106.54C126.863 106.499 126.79 106.433 126.74 106.35V106.58ZM186.86 104.02C186.81 104.03 186.76 104.03 186.71 104.02C186.582 103.981 186.473 103.893 186.408 103.775C186.343 103.658 186.326 103.52 186.36 103.39C186.76 102.03 187.12 100.71 187.46 99.44C187.477 99.3744 187.507 99.3127 187.548 99.2586C187.589 99.2045 187.64 99.1589 187.698 99.1246C187.757 99.0902 187.822 99.0677 187.889 99.0584C187.956 99.049 188.024 99.053 188.09 99.07C188.156 99.0871 188.217 99.1169 188.271 99.1578C188.326 99.1987 188.371 99.2499 188.405 99.3084C188.44 99.3669 188.462 99.4316 188.472 99.4988C188.481 99.566 188.477 99.6344 188.46 99.7001C188.13 100.98 187.76 102.31 187.37 103.7C187.301 103.759 187.217 103.799 187.127 103.815C187.038 103.83 186.945 103.822 186.86 103.79V104.02ZM123 99.26C122.909 99.26 122.819 99.2359 122.74 99.1903C122.661 99.1446 122.596 99.079 122.55 99C121.89 97.84 121.18 96.66 120.45 95.5C120.414 95.4436 120.389 95.3805 120.378 95.3146C120.366 95.2486 120.367 95.1809 120.381 95.1155C120.396 95.05 120.423 94.988 120.461 94.933C120.5 94.878 120.549 94.8312 120.605 94.7951C120.661 94.7589 120.724 94.7343 120.79 94.7225C120.856 94.7108 120.924 94.7121 120.99 94.7265C121.055 94.7409 121.117 94.7681 121.172 94.8064C121.227 94.8448 121.274 94.8936 121.31 94.9501C122.05 96.12 122.77 97.32 123.44 98.5C123.474 98.5584 123.496 98.6229 123.505 98.6898C123.513 98.7567 123.509 98.8246 123.491 98.8897C123.473 98.9548 123.443 99.0158 123.402 99.069C123.36 99.1223 123.309 99.1668 123.25 99.2001C123.153 99.1669 123.067 99.1082 123 99.03V99.26ZM188.95 96.07H188.83C188.698 96.0369 188.585 95.9534 188.514 95.8375C188.443 95.7216 188.42 95.5826 188.45 95.4501C188.76 94.1301 189.04 92.7801 189.3 91.4501C189.309 91.3808 189.331 91.3141 189.367 91.254C189.402 91.1939 189.449 91.1418 189.506 91.1007C189.562 91.0596 189.626 91.0305 189.694 91.0152C189.762 90.9999 189.833 90.9988 189.901 91.0118C189.97 91.0248 190.035 91.0517 190.093 91.0909C190.15 91.1301 190.199 91.1807 190.237 91.2396C190.274 91.2985 190.299 91.3644 190.31 91.4333C190.321 91.5021 190.317 91.5725 190.3 91.6401C190.04 92.98 189.76 94.34 189.45 95.6401C189.393 95.7159 189.316 95.7746 189.228 95.8098C189.14 95.8451 189.044 95.8555 188.95 95.84V96.07ZM118.7 92.25C118.611 92.2493 118.525 92.226 118.448 92.1822C118.371 92.1384 118.306 92.0757 118.26 92C117.56 90.8 116.89 89.5701 116.26 88.3601C116.229 88.3011 116.21 88.2366 116.205 88.1702C116.199 88.1039 116.206 88.0371 116.227 87.9738C116.247 87.9105 116.28 87.8518 116.324 87.8014C116.367 87.751 116.42 87.7097 116.48 87.6801C116.54 87.6489 116.605 87.6299 116.672 87.6241C116.739 87.6183 116.807 87.6259 116.871 87.6463C116.935 87.6668 116.994 87.6997 117.046 87.7433C117.097 87.7868 117.139 87.8401 117.17 87.9001C117.78 89.0901 118.44 90.3 119.17 91.48C119.204 91.5378 119.227 91.6017 119.236 91.6682C119.246 91.7347 119.242 91.8024 119.225 91.8674C119.209 91.9325 119.179 91.9936 119.139 92.0472C119.098 92.1009 119.048 92.146 118.99 92.1801C118.877 92.1628 118.775 92.1061 118.7 92.0201V92.25ZM190.5 87.9901H190.42C190.285 87.9679 190.165 87.8936 190.084 87.7832C190.004 87.6728 189.97 87.5352 189.99 87.4001C190.2 86.0501 190.37 84.68 190.52 83.35C190.553 83.2339 190.626 83.1332 190.726 83.0657C190.826 82.9983 190.947 82.9685 191.067 82.9817C191.187 82.9949 191.298 83.0502 191.381 83.1378C191.464 83.2254 191.513 83.3396 191.52 83.4601C191.37 84.8101 191.19 86.19 190.98 87.56C190.925 87.6334 190.852 87.6906 190.767 87.7258C190.683 87.761 190.591 87.7728 190.5 87.76V87.9901ZM114.98 84.9201C114.88 84.9202 114.782 84.8909 114.698 84.8358C114.615 84.7807 114.549 84.7022 114.51 84.6101C113.96 83.3201 113.46 82.0201 113.01 80.7401C112.965 80.6075 112.974 80.4624 113.036 80.3367C113.098 80.2111 113.207 80.1151 113.34 80.07C113.473 80.025 113.618 80.0344 113.743 80.0963C113.869 80.1582 113.965 80.2675 114.01 80.4001C114.45 81.6601 114.94 82.9401 115.48 84.2101C115.506 84.2718 115.52 84.3381 115.521 84.4052C115.522 84.4723 115.509 84.5388 115.484 84.6011C115.459 84.6633 115.422 84.72 115.375 84.7679C115.328 84.8158 115.272 84.8539 115.21 84.88C115.114 84.8447 115.033 84.7777 114.98 84.69V84.9201ZM191.4 79.82C191.333 79.815 191.268 79.7968 191.208 79.7663C191.148 79.7359 191.094 79.6939 191.051 79.6428C191.007 79.5917 190.974 79.5325 190.953 79.4685C190.932 79.4045 190.925 79.3371 190.93 79.2701C191.02 77.9201 191.08 76.55 191.12 75.19C191.121 75.1231 191.136 75.057 191.163 74.9956C191.189 74.9342 191.228 74.8787 191.276 74.8323C191.325 74.7859 191.382 74.7494 191.444 74.725C191.506 74.7006 191.573 74.6887 191.64 74.69C191.707 74.6913 191.773 74.7058 191.834 74.7327C191.896 74.7595 191.951 74.7982 191.998 74.8465C192.044 74.8948 192.081 74.9517 192.105 75.0141C192.129 75.0765 192.141 75.1431 192.14 75.2101C192.14 76.5901 192.04 77.97 191.95 79.34C191.896 79.4338 191.814 79.5083 191.715 79.5531C191.616 79.5979 191.506 79.6108 191.4 79.59V79.82ZM112.31 76.9201C112.196 76.9216 112.085 76.885 111.995 76.8161C111.904 76.7473 111.839 76.6501 111.81 76.54C111.46 75.19 111.15 73.82 110.92 72.48C110.897 72.3475 110.927 72.2111 111.003 72.1006C111.08 71.9901 111.198 71.9144 111.33 71.8901C111.464 71.8696 111.6 71.902 111.71 71.9804C111.82 72.0589 111.896 72.1771 111.92 72.31C112.16 73.62 112.45 74.95 112.8 76.31C112.834 76.44 112.815 76.5779 112.747 76.694C112.68 76.81 112.57 76.8949 112.44 76.9301C112.396 76.9357 112.352 76.9323 112.31 76.9201ZM191.62 71.37C191.553 71.3714 191.487 71.3594 191.426 71.3349C191.364 71.3104 191.307 71.2737 191.26 71.2272C191.212 71.1806 191.175 71.1251 191.149 71.0637C191.123 71.0024 191.11 70.9365 191.11 70.87C191.11 69.49 191.03 68.11 190.94 66.78C190.934 66.6454 190.981 66.5138 191.071 66.4131C191.16 66.3123 191.286 66.2503 191.42 66.2401C191.488 66.2331 191.556 66.2403 191.621 66.2612C191.685 66.282 191.745 66.3161 191.796 66.3612C191.846 66.4064 191.887 66.4616 191.916 66.5234C191.944 66.5851 191.959 66.6521 191.96 66.72C192.05 68.07 192.1 69.45 192.13 70.85C192.131 70.917 192.119 70.9836 192.095 71.046C192.071 71.1084 192.034 71.1653 191.988 71.2136C191.941 71.2619 191.886 71.3006 191.824 71.3274C191.763 71.3543 191.697 71.3687 191.63 71.37H191.62ZM110.87 68.8301C110.744 68.8305 110.623 68.7833 110.53 68.698C110.437 68.6127 110.38 68.4956 110.37 68.37C110.24 67.01 110.18 65.6401 110.18 64.3001L110.69 64.2101H111.2C111.2 65.6101 111.27 66.95 111.38 68.28C111.387 68.3465 111.38 68.4137 111.361 68.4777C111.341 68.5416 111.309 68.601 111.266 68.6522C111.223 68.7035 111.171 68.7457 111.111 68.7762C111.052 68.8067 110.987 68.8251 110.92 68.8301H110.87ZM191.11 63.16C190.985 63.1609 190.863 63.1155 190.769 63.0325C190.675 62.9495 190.615 62.8347 190.6 62.7101C190.45 61.3301 190.27 59.96 190.07 58.66C190.05 58.5907 190.045 58.518 190.056 58.4466C190.066 58.3752 190.091 58.3069 190.13 58.2461C190.169 58.1852 190.22 58.1333 190.28 58.0937C190.341 58.0541 190.409 58.0278 190.48 58.0164C190.551 58.005 190.624 58.0089 190.693 58.0277C190.763 58.0465 190.828 58.0798 190.884 58.1255C190.939 58.1712 190.985 58.2282 191.017 58.2928C191.049 58.3574 191.067 58.428 191.07 58.5C191.27 59.82 191.45 61.2 191.6 62.6C191.614 62.7339 191.575 62.8678 191.49 62.9727C191.406 63.0776 191.284 63.145 191.15 63.16H191.11ZM110.8 60.6101C110.733 60.6075 110.667 60.5917 110.606 60.5637C110.545 60.5356 110.491 60.4959 110.445 60.4466C110.4 60.3974 110.364 60.3397 110.341 60.2768C110.318 60.2139 110.307 60.147 110.31 60.0801C110.31 58.7501 110.42 57.3701 110.49 55.9601C110.491 55.8917 110.506 55.8244 110.534 55.7621C110.563 55.6999 110.603 55.6441 110.654 55.5982C110.705 55.5522 110.764 55.5172 110.829 55.4952C110.893 55.4731 110.962 55.4646 111.03 55.47C111.097 55.4739 111.163 55.4909 111.223 55.5201C111.283 55.5494 111.337 55.5902 111.382 55.6404C111.427 55.6906 111.461 55.749 111.483 55.8125C111.505 55.8759 111.514 55.9431 111.51 56.0101C111.443 57.4234 111.383 58.7934 111.33 60.12C111.322 60.2562 111.261 60.3839 111.16 60.4756C111.059 60.5672 110.926 60.6155 110.79 60.6101H110.8ZM189.8 55.0401C189.683 55.0424 189.569 55.0037 189.478 54.9306C189.386 54.8575 189.323 54.7547 189.3 54.6401C189.03 53.3001 188.72 51.9601 188.38 50.6401C188.363 50.5744 188.359 50.506 188.368 50.4388C188.378 50.3716 188.4 50.3069 188.435 50.2484C188.469 50.1899 188.514 50.1388 188.569 50.0979C188.623 50.0569 188.684 50.0271 188.75 50.0101C188.816 49.993 188.884 49.989 188.951 49.9984C189.018 50.0077 189.083 50.0302 189.142 50.0646C189.2 50.0989 189.251 50.1445 189.292 50.1986C189.333 50.2528 189.363 50.3144 189.38 50.38C189.72 51.71 190.04 53.06 190.31 54.38C190.325 54.4458 190.326 54.5138 190.313 54.58C190.301 54.6462 190.275 54.7092 190.238 54.7652C190.2 54.8213 190.152 54.8692 190.096 54.9061C190.039 54.943 189.976 54.9682 189.91 54.9801L189.8 55.0401ZM111.2 52.3901C111.066 52.3773 110.941 52.3128 110.854 52.2102C110.766 52.1075 110.722 51.9748 110.73 51.84C110.84 50.48 110.96 49.11 111.1 47.72C111.106 47.6529 111.126 47.5878 111.157 47.5282C111.189 47.4687 111.232 47.416 111.284 47.3733C111.336 47.3305 111.396 47.2985 111.461 47.279C111.525 47.2596 111.593 47.2532 111.66 47.2601C111.794 47.2751 111.916 47.3425 112 47.4474C112.085 47.5523 112.124 47.6862 112.11 47.82C111.97 49.2001 111.85 50.57 111.75 51.91C111.742 52.04 111.685 52.1622 111.59 52.2514C111.496 52.3407 111.37 52.3903 111.24 52.3901H111.2ZM187.73 47.09C187.621 47.0929 187.515 47.0602 187.426 46.9971C187.338 46.9339 187.273 46.8437 187.24 46.7401C186.83 45.4401 186.37 44.1501 185.88 42.9001C185.831 42.7727 185.833 42.631 185.888 42.5056C185.942 42.3802 186.043 42.2812 186.17 42.2301C186.233 42.2061 186.3 42.1948 186.368 42.1969C186.435 42.199 186.501 42.2145 186.563 42.2424C186.624 42.2702 186.679 42.31 186.725 42.3594C186.771 42.4088 186.807 42.4668 186.83 42.53C187.33 43.8 187.83 45.1101 188.22 46.4301C188.258 46.5587 188.245 46.6971 188.184 46.8164C188.122 46.9357 188.017 47.0266 187.89 47.07C187.851 47.0819 187.811 47.0886 187.77 47.09H187.73ZM112.03 44.19H111.97C111.835 44.1725 111.713 44.1031 111.629 43.9966C111.545 43.8901 111.506 43.755 111.52 43.62C111.7 42.25 111.89 40.89 112.11 39.53C112.132 39.3952 112.206 39.2746 112.317 39.1941C112.427 39.1136 112.565 39.0799 112.7 39.1C112.766 39.111 112.83 39.1349 112.887 39.1705C112.944 39.2061 112.994 39.2527 113.033 39.3076C113.072 39.3624 113.1 39.4244 113.115 39.4901C113.13 39.5557 113.131 39.6237 113.12 39.69C112.9 41.04 112.71 42.39 112.54 43.75C112.522 43.8655 112.467 43.9717 112.381 44.0515C112.296 44.1313 112.186 44.1801 112.07 44.19H112.03ZM184.75 39.44C184.652 39.4404 184.557 39.4122 184.475 39.3589C184.393 39.3056 184.329 39.2295 184.29 39.1401C183.71 37.9001 183.1 36.68 182.46 35.5C182.409 35.3834 182.403 35.2518 182.444 35.1311C182.485 35.0104 182.569 34.9094 182.681 34.8479C182.792 34.7865 182.923 34.7691 183.047 34.7991C183.171 34.8291 183.279 34.9043 183.35 35.0101C184 36.2101 184.63 37.4501 185.21 38.7101C185.268 38.8321 185.276 38.9722 185.231 39.0997C185.186 39.2273 185.092 39.3317 184.97 39.3901C184.914 39.4194 184.853 39.4365 184.79 39.44H184.75ZM113.34 36.06H113.31C113.244 36.0482 113.181 36.023 113.124 35.9861C113.068 35.9492 113.02 35.9013 112.982 35.8453C112.945 35.7892 112.919 35.7262 112.907 35.66C112.894 35.5938 112.895 35.5258 112.91 35.4601C113.18 34.0701 113.48 32.7101 113.8 31.4601C113.816 31.3944 113.844 31.3325 113.884 31.2778C113.924 31.2232 113.974 31.1769 114.031 31.1416C114.089 31.1064 114.153 31.0828 114.22 31.0722C114.286 31.0616 114.354 31.0643 114.42 31.0801C114.486 31.0958 114.548 31.1244 114.602 31.164C114.657 31.2037 114.703 31.2538 114.738 31.3114C114.774 31.3689 114.797 31.4329 114.808 31.4996C114.818 31.5663 114.816 31.6344 114.8 31.7001C114.49 32.9801 114.19 34.3301 113.92 35.7001C113.888 35.8145 113.815 35.9136 113.716 35.9796C113.617 36.0455 113.498 36.0741 113.38 36.06H113.34ZM180.85 32.2601C180.764 32.2596 180.679 32.2374 180.604 32.1954C180.529 32.1534 180.466 32.0931 180.42 32.0201C179.69 30.8801 178.92 29.7501 178.11 28.6701C178.029 28.5613 177.995 28.4249 178.014 28.2908C178.034 28.1567 178.106 28.0359 178.215 27.9551C178.324 27.8742 178.46 27.8398 178.594 27.8595C178.728 27.8792 178.849 27.9513 178.93 28.06C179.75 29.16 180.54 30.3101 181.29 31.4801C181.361 31.5943 181.384 31.7319 181.354 31.863C181.324 31.9941 181.244 32.1081 181.13 32.1801C181.047 32.2351 180.949 32.263 180.85 32.2601ZM115.31 28.07H115.16C115.095 28.0506 115.035 28.0186 114.983 27.9759C114.931 27.9331 114.888 27.8804 114.857 27.8209C114.825 27.7614 114.805 27.6963 114.799 27.6292C114.793 27.5621 114.8 27.4944 114.82 27.4301C115.23 26.0601 115.67 24.74 116.13 23.5C116.153 23.4344 116.189 23.3739 116.235 23.322C116.281 23.2702 116.338 23.2279 116.4 23.1978C116.463 23.1676 116.531 23.15 116.6 23.1461C116.67 23.1422 116.739 23.1521 116.805 23.1751C116.871 23.198 116.931 23.2337 116.983 23.2801C117.035 23.3264 117.077 23.3826 117.107 23.4452C117.137 23.5079 117.155 23.5759 117.159 23.6454C117.163 23.7149 117.153 23.7844 117.13 23.85C116.68 25.07 116.24 26.38 115.84 27.72C115.804 27.8297 115.732 27.9241 115.636 27.9876C115.54 28.0512 115.425 28.0802 115.31 28.07ZM175.92 25.6401C175.847 25.6401 175.775 25.624 175.71 25.5929C175.644 25.5617 175.586 25.5164 175.54 25.4601C174.65 24.4601 173.72 23.4601 172.77 22.4601C172.684 22.3628 172.638 22.2363 172.641 22.1063C172.645 21.9763 172.699 21.8526 172.791 21.7606C172.883 21.6687 173.006 21.6153 173.136 21.6115C173.266 21.6077 173.393 21.6537 173.49 21.7401C174.49 22.7401 175.41 23.7401 176.31 24.7401C176.405 24.8357 176.459 24.9651 176.459 25.1C176.459 25.235 176.405 25.3645 176.31 25.4601C176.218 25.5642 176.089 25.6287 175.95 25.6401H175.92ZM118.19 20.37C118.117 20.3724 118.044 20.3552 117.98 20.32C117.919 20.2921 117.864 20.2522 117.818 20.2028C117.772 20.1534 117.737 20.0954 117.713 20.0321C117.69 19.9689 117.68 19.9017 117.682 19.8344C117.685 19.7671 117.701 19.7011 117.73 19.6401C118.35 18.3301 119 17.0901 119.68 15.9601C119.754 15.8461 119.869 15.765 120.001 15.7333C120.133 15.7017 120.272 15.722 120.39 15.7901C120.503 15.8622 120.584 15.9754 120.616 16.1058C120.648 16.2363 120.628 16.374 120.56 16.4901C119.866 17.6538 119.232 18.852 118.66 20.0801C118.619 20.1632 118.557 20.2339 118.479 20.2849C118.402 20.3359 118.312 20.3653 118.22 20.37H118.19ZM170.12 19.8301C170.059 19.8313 169.999 19.8205 169.942 19.7981C169.885 19.7758 169.834 19.7425 169.79 19.7001C168.79 18.8201 167.69 17.9601 166.61 17.1501C166.556 17.1106 166.511 17.0607 166.476 17.0034C166.442 16.946 166.419 16.8824 166.41 16.8162C166.401 16.75 166.405 16.6826 166.422 16.618C166.439 16.5534 166.469 16.4929 166.51 16.44C166.59 16.3317 166.709 16.2594 166.842 16.2388C166.975 16.2182 167.111 16.251 167.22 16.3301C168.32 17.1501 169.41 18.0301 170.46 18.9301C170.541 18.9981 170.598 19.0894 170.625 19.1916C170.652 19.2938 170.646 19.4016 170.609 19.5004C170.571 19.5992 170.504 19.6839 170.417 19.743C170.329 19.802 170.226 19.8324 170.12 19.8301ZM163.53 14.9201C163.434 14.9182 163.341 14.8906 163.26 14.84C162.12 14.11 160.94 13.4201 159.75 12.7701C159.631 12.7064 159.541 12.5979 159.502 12.4685C159.463 12.3391 159.476 12.1994 159.54 12.0801C159.606 11.9626 159.714 11.8751 159.843 11.836C159.971 11.7968 160.11 11.809 160.23 11.87C161.45 12.53 162.65 13.2401 163.81 13.9801C163.922 14.0537 164 14.1683 164.028 14.2993C164.057 14.4303 164.032 14.5671 163.96 14.6801C163.919 14.7502 163.86 14.8088 163.79 14.8507C163.721 14.8926 163.641 14.9164 163.56 14.9201H163.53ZM122.47 13.37C122.352 13.3716 122.238 13.3288 122.15 13.25C122.098 13.2091 122.054 13.1581 122.021 13.1C121.989 13.042 121.968 12.978 121.961 12.9119C121.953 12.8457 121.959 12.7788 121.978 12.7149C121.997 12.6511 122.028 12.5916 122.07 12.5401C122.946 11.4528 123.92 10.4485 124.98 9.54005C125.083 9.45253 125.217 9.40969 125.352 9.42094C125.487 9.43219 125.612 9.49661 125.7 9.60005C125.788 9.70348 125.83 9.83746 125.819 9.97248C125.808 10.1075 125.743 10.2325 125.64 10.32C124.629 11.199 123.699 12.1661 122.86 13.2101C122.814 13.2593 122.758 13.2987 122.696 13.3262C122.634 13.3537 122.568 13.3686 122.5 13.37H122.47ZM156.31 11C156.237 10.9977 156.166 10.9807 156.1 10.9501C154.88 10.3901 153.61 9.87005 152.34 9.38005C152.277 9.35777 152.219 9.32313 152.17 9.27818C152.121 9.23322 152.081 9.17887 152.053 9.1183C152.025 9.05772 152.009 8.99216 152.007 8.92549C152.005 8.85881 152.016 8.79236 152.04 8.73005C152.063 8.6668 152.099 8.60881 152.145 8.55943C152.191 8.51005 152.246 8.47026 152.307 8.44236C152.369 8.41446 152.435 8.399 152.502 8.39689C152.57 8.39478 152.637 8.40606 152.7 8.43006C153.99 8.92006 155.28 9.43006 156.53 10.0201C156.65 10.0805 156.743 10.1844 156.789 10.3107C156.836 10.437 156.832 10.5761 156.78 10.7001C156.739 10.7903 156.673 10.8667 156.59 10.92C156.506 10.9732 156.409 11.0011 156.31 11ZM148.62 8.09004C148.574 8.0992 148.526 8.0992 148.48 8.09004C147.19 7.70004 145.87 7.34004 144.54 7.03004C144.474 7.01494 144.412 6.98706 144.357 6.94798C144.303 6.9089 144.256 6.8594 144.22 6.80229C144.184 6.74518 144.16 6.6816 144.149 6.61515C144.138 6.54871 144.14 6.48071 144.155 6.41505C144.17 6.34939 144.198 6.28735 144.237 6.23246C144.276 6.17758 144.326 6.13095 144.383 6.0952C144.44 6.05944 144.503 6.03526 144.57 6.02409C144.636 6.01291 144.704 6.01494 144.77 6.03004C146.12 6.34004 147.47 6.71005 148.77 7.10005C148.835 7.11946 148.895 7.15147 148.947 7.19423C148.999 7.23698 149.042 7.28965 149.073 7.34916C149.105 7.40867 149.125 7.47384 149.131 7.54094C149.137 7.60803 149.13 7.67572 149.11 7.74006C149.079 7.83885 149.018 7.92557 148.936 7.98826C148.853 8.05096 148.754 8.08651 148.65 8.09004H148.62ZM128.62 8.09004C128.528 8.08797 128.438 8.062 128.359 8.01466C128.28 7.96732 128.215 7.90024 128.17 7.82005C128.106 7.7007 128.093 7.56096 128.132 7.43156C128.171 7.30216 128.261 7.1937 128.38 7.13005C129.621 6.46062 130.937 5.94035 132.3 5.58006C132.433 5.54558 132.574 5.56517 132.692 5.63456C132.81 5.70395 132.896 5.81745 132.93 5.95005C132.964 6.08266 132.945 6.22354 132.875 6.34169C132.806 6.45983 132.693 6.54558 132.56 6.58006C131.277 6.921 130.039 7.411 128.87 8.04005C128.816 8.06204 128.758 8.07554 128.7 8.08006L128.62 8.09004ZM140.62 6.24006H140.55C139.226 6.04293 137.888 5.96594 136.55 6.01005C136.434 5.98684 136.331 5.92435 136.256 5.8332C136.181 5.74205 136.141 5.62787 136.141 5.51005C136.141 5.39224 136.181 5.27805 136.256 5.1869C136.331 5.09575 136.434 5.03327 136.55 5.01005C137.951 4.96313 139.353 5.04345 140.74 5.25004C140.855 5.28012 140.956 5.34945 141.025 5.44606C141.095 5.54266 141.128 5.66047 141.12 5.77909C141.111 5.89772 141.062 6.00972 140.98 6.09571C140.898 6.18171 140.788 6.23629 140.67 6.25004L140.62 6.24006Z" fill="#EFD9A2"/>
<path d="M194.23 76.6799C194.864 75.8732 195.432 75.0171 195.93 74.1198C197.449 71.589 197.949 68.5757 197.33 65.6899C197.171 64.5644 196.627 63.5288 195.79 62.7599C195.771 62.8477 195.748 62.9345 195.72 63.0199C195.166 65.335 194.145 67.5128 192.72 69.4199C192.443 69.87 192.03 70.2202 191.54 70.4199C190.54 70.7099 189.62 69.7699 188.99 68.9299C186.78 66.0199 184.74 62.8599 182.42 60.0699C175.7 52.0199 168.61 44.9699 159.78 39.1999C157.706 37.9546 155.727 36.5574 153.86 35.0199C152.32 33.6599 151.01 32.0199 149.58 30.5799C148.269 29.21 146.855 27.943 145.35 26.7899C144.15 25.8599 142.63 24.9599 141.2 25.4599C139.32 26.1199 139 28.7699 139.79 30.5999C140.58 32.4299 142.1 33.8699 142.9 35.6899C144.61 39.6199 140 43.3598 137.9 46.1198C134.772 50.0068 132.041 54.1978 129.75 58.6299C127.048 64.0914 125.261 69.9594 124.46 75.9999C117.95 71.0599 110.87 65.4099 107.8 56.4399C107.205 54.6432 106.869 52.7712 106.8 50.8799C106.795 50.7933 106.795 50.7064 106.8 50.6198C106.8 51.1398 105.62 52.4399 105.35 52.9599C104.878 53.8833 104.5 54.8514 104.22 55.8499C103.84 57.2199 103.22 59.7599 103.61 61.0699C104.46 64.4399 106.7 67.2699 109.12 69.7599C111.54 72.2499 114.2 74.5199 116.23 77.3299C122.23 85.6199 117.39 96.5299 118.23 105.91C118.492 109.542 119.496 113.081 121.18 116.31C122.89 119.45 125.67 121.68 127.18 124.95C124.017 117.846 122.493 110.122 122.72 102.35C122.765 98.1984 123.299 94.0666 124.31 90.0399C124.478 89.1226 124.881 88.2647 125.48 87.5499C125.935 87.156 126.502 86.9151 127.102 86.8613C127.701 86.8075 128.302 86.9434 128.82 87.2499C129.923 87.9066 130.904 88.749 131.72 89.7399C137.473 95.8999 143.263 101.717 149.09 107.19C151.31 109.27 153.59 112.19 151.62 115.34C149.65 118.49 147.33 121.34 145.32 124.26C141.32 129.96 136.94 135.06 132.75 140.19C131.98 141.13 131.21 142.08 130.46 143.03C127.87 146.28 125.32 149.86 125.08 154.03C124.89 157.03 128.56 158.39 131.08 157.83C131.586 157.7 132.035 157.409 132.36 157C132.46 156.17 132.55 155.32 132.63 154.43C132.589 154.36 132.538 154.296 132.48 154.24C132.14 153.89 131.67 153.7 131.38 153.3C131.192 152.935 131.094 152.53 131.094 152.12C131.094 151.709 131.192 151.305 131.38 150.94C131.82 149.762 132.355 148.621 132.98 147.53C136.16 141.88 141.37 137.53 145.98 132.53C149.98 128.17 153.4 120.27 159.86 119.2C160.614 119.038 161.397 119.08 162.13 119.32C162.913 119.707 163.597 120.268 164.13 120.96C167.47 124.62 169.37 129.11 172.13 133.25C174.89 137.39 177.72 141.16 180.02 145.42C181.271 147.658 182.277 150.025 183.02 152.48C183.533 154.008 183.687 155.633 183.47 157.23C183.351 158.029 183.033 158.786 182.545 159.431C182.058 160.075 181.417 160.587 180.68 160.92C180.47 161 180.26 161.05 180.06 161.14C180.06 162.84 180.06 164.56 180.06 166.28C182.42 165.513 184.516 164.097 186.108 162.194C187.699 160.291 188.723 157.978 189.06 155.52C189.86 148.98 185.65 143.32 181.83 138.11C181.32 137.42 180.83 136.7 180.31 136C176.15 130.093 172.315 123.964 168.82 117.64C167.37 115.02 165.9 112.02 166.41 108.86C167.07 104.79 170.64 102.2 173.75 99.8599C178.176 96.4615 182.226 92.5995 185.83 88.3398C186.41 87.6398 187.2 86.8699 187.95 87.1599C188.383 87.4312 188.703 87.8505 188.85 88.3398C190.338 91.7386 191.322 95.3366 191.77 99.0199C192.197 103.404 192.083 107.824 191.43 112.18C190.75 117.77 190.1 123.35 189.52 128.94C189.99 128.248 190.421 127.53 190.81 126.79C192.61 123.188 193.841 119.329 194.46 115.35C196.04 106.74 196.32 97.4899 194.2 88.9199C193.821 87.3766 193.36 85.8545 192.82 84.3599C192.261 83.1678 192.013 81.8536 192.1 80.5399C192.475 79.0951 193.208 77.7678 194.23 76.6799ZM183.23 73.1599C184.39 76.1599 184.75 78.8199 183.11 81.6299C181.631 84.123 179.887 86.4497 177.91 88.5699C173.02 93.9799 167.29 98.5699 161.59 103.06C155.53 107.87 150.49 100.71 146.71 96.7799C142.47 92.3899 138.44 87.7799 134.1 83.5499C132.81 82.3531 131.802 80.8843 131.15 79.2499C129.36 74.4899 131.8 69.3399 133.74 65.0499C136.11 60.0267 138.733 55.127 141.6 50.3698C143.28 47.4798 146.23 44.2599 149.6 43.2399C155.68 41.3599 161.13 47.0299 165.05 50.7299C169.976 55.4355 174.65 60.3991 179.05 65.5999C180.236 66.993 181.243 68.5281 182.05 70.1699C182.43 71.1499 182.86 72.1499 183.24 73.1599H183.23Z" fill="#A16D4B"/>
</g>
<defs>
<clipPath id="clip0_52_4985">
<rect width="197.6" height="234.89" fill="white"/>
</clipPath>
</defs>
</svg>
