<svg width="243" height="184" viewBox="0 0 243 184" fill="none" xmlns="http://www.w3.org/2000/svg">
<g clip-path="url(#clip0_52_4969)">
<path d="M238.75 109.48C237.75 112.3 235.68 114.61 233.75 116.86C226.95 124.62 219.07 131.29 212.12 139.05C208.63 142.95 205.29 147.05 201.35 150.47C195.66 155.41 188.87 158.84 182.15 162.21C170.4 168.11 158.38 174.09 145.52 176.37C144.36 176.58 143.21 176.75 142.03 176.89C139.68 177.18 137.15 177.3 135.09 176.1C131.92 174.24 131.09 170.04 130.8 166.33C130.453 161.627 130.517 156.902 130.99 152.21C131.29 149.21 131.77 146.21 131.29 143.21C130.62 139.11 126.54 134.27 122.11 134.89C118.21 135.43 114.76 139.37 114.11 143.21C113.63 146.21 114.11 149.21 114.4 152.21C114.872 156.902 114.938 161.626 114.6 166.33C114.53 167.38 114.397 168.426 114.2 169.46C113.68 172.18 112.6 174.75 110.3 176.1C108.25 177.3 105.71 177.18 103.36 176.89C102.19 176.75 101.02 176.58 99.87 176.37C87.01 174.09 74.99 168.11 63.24 162.21C56.53 158.84 49.73 155.41 44.05 150.47C40.05 147.04 36.77 142.95 33.27 139.05C26.27 131.29 18.44 124.62 11.64 116.86C9.63998 114.61 7.63998 112.3 6.63998 109.48C5.82558 106.989 5.51621 104.361 5.72997 101.75C5.72997 100.75 5.83997 99.75 5.90997 98.82C6.61997 89.33 7.34997 79.76 9.90997 70.61C14 55.99 22.76 42.51 23.46 27.32C23.62 24.01 23.38 20.67 23.82 17.38C24.54 12.05 27 7.14996 29.43 2.37996C29.5681 1.92591 29.7976 1.50491 30.1044 1.14284C30.4112 0.780765 30.7888 0.485295 31.2141 0.274553C31.6393 0.0638116 32.1031 -0.0577635 32.5771 -0.0826245C33.051 -0.107486 33.525 -0.0351343 33.97 0.129961C50.82 1.74996 67.62 4.39999 84.41 6.52999C103.804 8.92578 123.378 9.50829 142.88 8.26998C146.33 8.04998 149.76 7.76996 153.15 7.43996C155.78 7.17996 158.38 6.88995 160.97 6.55995C177.76 4.42995 194.57 1.77999 211.42 0.15999C212.461 -0.0945288 213.559 0.0258147 214.52 0.499956C215.152 1.00396 215.644 1.66158 215.95 2.40999C218.37 7.19999 220.84 12.1 221.56 17.41C222 20.7 221.77 24.04 221.92 27.35C222.63 42.54 231.37 56.02 235.47 70.64C238.04 79.79 238.76 89.36 239.47 98.85C239.75 102.41 239.98 106.12 238.75 109.48Z" fill="#7FA1BA"/>
<path d="M114.19 169.46C113.67 172.18 112.59 174.75 110.29 176.1C108.24 177.3 105.7 177.18 103.35 176.89C102.18 176.75 101.01 176.58 99.86 176.37C87 174.09 74.98 168.11 63.23 162.21C56.52 158.84 49.72 155.41 44.04 150.47C40.04 147.04 36.76 142.95 33.26 139.05C26.26 131.29 18.43 124.62 11.63 116.86C9.62995 114.61 7.62995 112.3 6.62995 109.48C5.81556 106.989 5.5062 104.361 5.71997 101.75C5.90997 101.65 6.11997 101.54 6.32997 101.45C13.45 98.1599 21.78 100.11 29.25 102.45C41.35 106.31 53.11 111.17 64.85 116.04C70.21 118.26 75.63 120.52 80.29 124.04C83.3443 126.472 86.197 129.148 88.82 132.04C92.82 136.28 96.8566 140.517 100.93 144.75C104.93 148.99 109.1 153.35 111.51 158.75C112.96 162.157 113.864 165.771 114.19 169.46Z" fill="#7593AA"/>
<path d="M131.15 169.46C131.67 172.18 132.75 174.75 135.05 176.1C137.1 177.3 139.64 177.18 141.99 176.89C143.16 176.75 144.33 176.58 145.48 176.37C158.34 174.09 170.36 168.11 182.11 162.21C188.82 158.84 195.62 155.41 201.3 150.47C205.3 147.04 208.58 142.95 212.08 139.05C219.08 131.29 226.91 124.62 233.71 116.86C235.71 114.61 237.71 112.3 238.71 109.48C239.524 106.989 239.834 104.361 239.62 101.75C239.43 101.65 239.22 101.54 239.01 101.45C231.89 98.1599 223.56 100.11 216.09 102.45C203.99 106.31 192.23 111.17 180.49 116.04C175.13 118.26 169.71 120.52 165.05 124.04C161.996 126.472 159.143 129.148 156.52 132.04C152.52 136.28 148.483 140.517 144.41 144.75C140.41 148.99 136.24 153.35 133.83 158.75C132.38 162.157 131.476 165.771 131.15 169.46Z" fill="#7593AA"/>
<path d="M117.68 165.78C117.618 165.514 117.581 165.243 117.57 164.97C117.97 164.92 118.42 165.26 118.74 164.97C119.06 164.68 118.93 164.47 118.86 164.2C118.634 163.235 118.083 162.377 117.3 161.77C116.747 161.466 116.25 161.071 115.83 160.6C116.12 160.6 116.39 160.81 116.68 160.89C116.82 160.941 116.973 160.948 117.118 160.91C117.262 160.873 117.392 160.793 117.49 160.68C117.553 160.563 117.588 160.433 117.59 160.3C117.52 159.258 117.067 158.279 116.32 157.55L114.18 154.87C113.96 154.61 113.75 154.22 113.98 153.96C114.088 153.864 114.214 153.789 114.35 153.74C114.517 153.604 114.635 153.417 114.687 153.208C114.74 152.999 114.723 152.779 114.64 152.58C114.459 152.186 114.185 151.843 113.84 151.58C112.97 150.8 112.07 150.06 111.13 149.36C111.01 149.27 108.79 147.82 109.96 147.94C110.148 147.98 110.342 147.98 110.53 147.94C110.81 147.86 110.9 147.49 110.87 147.2C110.796 146.733 110.612 146.291 110.334 145.908C110.056 145.526 109.691 145.215 109.27 145C108.432 144.564 107.546 144.229 106.63 144C104.52 143.38 103.46 141.85 102.56 139.87C101.963 138.188 101.08 136.622 99.95 135.24C98.36 133.61 95.95 132.94 94.45 131.24C93.24 129.83 92.8 127.85 91.45 126.55C89.92 125.06 87.68 124.83 85.79 124.04C83.9 123.25 84.19 121.21 82.9 119.69C81.61 118.17 79.33 117.69 77.27 117.45C75.21 117.21 73.02 117.06 71.36 115.83C69.16 114.19 68.36 110.92 65.75 109.92C64.5817 109.598 63.371 109.456 62.16 109.5C61.403 109.462 60.6668 109.24 60.0151 108.853C59.3634 108.466 58.8159 107.926 58.42 107.28C57.53 106.05 56.59 104.59 55.02 104.21C53.45 103.83 51.84 104.58 50.24 104.36C48.38 104.09 48.63 103.13 47.78 101.68C47.5125 101.284 47.162 100.951 46.7527 100.704C46.3434 100.457 45.8852 100.302 45.41 100.25C44.4577 100.16 43.4975 100.211 42.56 100.4C41.8542 100.454 41.1527 100.555 40.46 100.7C39.949 100.954 39.3973 101.117 38.83 101.18C37.4794 100.951 36.2574 100.24 35.39 99.1799C34.09 97.8199 32.07 96.35 30.56 97.47C29.05 98.59 28.72 97.99 27.8 96.79C27.2673 96.1421 26.5548 95.6662 25.7523 95.4224C24.9498 95.1786 24.093 95.1778 23.29 95.42C21.9 95.86 20.71 97.05 19.29 97.04C17.29 97.04 15.73 94.75 13.73 94.97C12.73 95.08 11.97 95.75 11.03 95.97C10.0279 96.095 9.01151 96.0374 8.02998 95.8C6.56441 95.5438 5.05646 95.8625 3.81998 96.6899C3.35727 97.0451 2.99308 97.5127 2.76204 98.0483C2.531 98.5839 2.4408 99.1697 2.49998 99.7499C2.65998 101.22 1.91998 102.26 1.17998 103.56C0.619977 104.56 -0.820017 107.16 0.779983 107.85C1.08998 107.98 1.47997 108.02 1.65997 108.31C1.7521 108.539 1.7696 108.791 1.70998 109.03C1.70336 109.64 1.77393 110.248 1.91998 110.84C2.00998 111.54 1.85998 112.29 1.91998 112.99C2.00998 114.59 2.64999 116.34 4.10999 116.99C4.63982 117.149 5.15504 117.353 5.64998 117.6C7.18998 118.6 6.64999 121.43 8.32999 122.28C8.84092 122.472 9.37596 122.594 9.91998 122.64C10.1925 122.663 10.4546 122.756 10.6819 122.908C10.9093 123.06 11.0944 123.267 11.22 123.51C11.2867 123.84 11.3269 124.174 11.34 124.51C11.3924 124.799 11.5268 125.066 11.7272 125.281C11.9275 125.496 12.1854 125.648 12.47 125.72C12.9 125.83 13.37 125.72 13.8 125.85C15.34 126.26 13.71 128.04 13.64 128.85C13.5 130.27 15.33 130.94 16.74 130.99C18.15 131.04 19.95 131.25 20.31 132.63C20.3387 133.109 20.426 133.582 20.57 134.04C21.45 135.7 24.51 133.66 24.68 136.25C24.6538 136.929 24.5361 137.602 24.33 138.25C24.2297 138.572 24.2083 138.914 24.2675 139.246C24.3266 139.579 24.4647 139.892 24.67 140.16C25.55 141.07 27.16 140.29 28.32 140.8C28.7168 141.031 29.0521 141.355 29.2975 141.743C29.5429 142.131 29.6913 142.572 29.73 143.03C29.7992 143.944 29.9771 144.848 30.26 145.72C30.4592 146.161 30.7534 146.553 31.1216 146.868C31.4898 147.183 31.9229 147.412 32.39 147.54C33.77 147.91 35.47 147.41 36.5 148.4C36.8708 148.839 37.2053 149.307 37.5 149.8C38.71 151.41 41.21 150.43 42.34 152.11C43.16 153.33 43.14 153.84 44.56 154.43C45.64 154.87 46.74 154.67 47.64 155.57C49.07 157.02 48.93 161.22 51.59 159.76C52.59 159.23 53.59 160.48 53.79 161.56C53.99 162.64 54.13 164 55.13 164.46C56.54 165.12 58.35 163.31 59.6 164.23C60.15 164.64 60.28 165.39 60.6 166.01C62.4 170.01 66.6 164.55 66.38 170.01C66.3325 170.333 66.3812 170.662 66.5199 170.957C66.6586 171.253 66.8812 171.501 67.16 171.67C68.05 172.02 68.82 171.06 69.64 170.89C70.0617 170.817 70.4954 170.865 70.8904 171.03C71.2854 171.195 71.6252 171.469 71.87 171.82C72.87 173.16 73.54 174.82 75.06 175.73C75.6297 176.058 76.2834 176.211 76.9396 176.17C77.5957 176.129 78.2253 175.896 78.75 175.5C79.7 174.76 80.2 174.5 81.22 175.23C81.9465 175.937 82.793 176.509 83.72 176.92C84.9 177.31 86.35 176.53 87.39 177.22C88.43 177.91 88.49 179.47 89.6 179.76C90.71 180.05 91.6 178.89 92.77 179.05C93.94 179.21 94.02 180.48 94.92 181.13C95.82 181.78 97.12 181.18 97.92 180.37C98.3076 179.809 98.8597 179.383 99.5 179.15C100.263 179.144 101.001 179.422 101.57 179.93C102.2 180.34 103.07 180.67 103.68 180.22C103.97 180 104.13 179.64 104.43 179.44C104.712 179.307 105.028 179.261 105.336 179.309C105.645 179.357 105.932 179.497 106.16 179.71C106.604 180.14 107.09 180.525 107.61 180.86C108.109 181.079 108.673 181.097 109.185 180.91C109.697 180.724 110.118 180.348 110.36 179.86C110.437 179.586 110.57 179.33 110.75 179.11C111.19 178.69 111.85 179.42 112.34 179.47C115.68 179.79 115.34 178.05 115.29 175.4C115.81 176.4 117.54 175.94 117.94 174.86C118.094 174.375 118.125 173.86 118.03 173.36C117.97 173 117.46 172.11 117.57 171.8C117.85 171.01 119.07 171.63 119.57 170.96C119.66 170.798 119.716 170.62 119.735 170.436C119.754 170.252 119.735 170.066 119.68 169.89C119.18 168.48 118.05 167.27 117.68 165.78ZM63.23 162.21C56.52 158.84 49.72 155.41 44.04 150.47C40.04 147.04 36.76 142.95 33.26 139.05C26.26 131.29 18.43 124.62 11.63 116.86C9.62997 114.61 7.62997 112.3 6.62997 109.48C6.44986 108.993 6.29959 108.495 6.17998 107.99L6.22998 108.07C6.4255 108.377 6.71228 108.615 7.04999 108.75C7.91999 109 8.64998 107.91 8.56998 106.99C8.48998 106.07 7.98998 105.26 7.84998 104.35C7.49998 102.04 8.84998 102.89 9.66998 102.95C10.1 102.95 10.32 103.71 10.96 103.67C11.88 103.59 12.36 102.36 12.96 101.86C13.3095 101.613 13.727 101.48 14.155 101.48C14.583 101.48 15.0005 101.613 15.35 101.86C16.0405 102.381 16.5056 103.147 16.65 104C16.88 105.17 16.74 106.55 17.65 107.34C17.8603 107.508 18.1057 107.627 18.3681 107.688C18.6305 107.749 18.9033 107.75 19.1662 107.692C19.4292 107.633 19.6757 107.517 19.8875 107.35C20.0993 107.184 20.271 106.972 20.39 106.73C20.73 105.94 20.74 104.82 21.63 104.39C22.0103 104.188 22.4538 104.139 22.8688 104.255C23.2838 104.37 23.6386 104.64 23.86 105.01C24.11 105.47 24.27 106.01 24.71 106.28C24.9703 106.399 25.2566 106.449 25.5419 106.427C25.8271 106.404 26.1019 106.309 26.34 106.15C26.5899 105.985 26.8677 105.866 27.16 105.8C28.35 105.62 28.84 107.42 28.89 108.27C28.8738 108.491 28.9056 108.712 28.9833 108.919C29.061 109.127 29.1827 109.314 29.34 109.47C30.67 110.38 34.54 104.12 35.82 109.25C35.8623 109.699 35.9878 110.137 36.19 110.54C36.4811 110.823 36.8657 110.989 37.271 111.007C37.6764 111.026 38.0744 110.895 38.39 110.64C39.0225 110.111 39.6907 109.627 40.39 109.19C40.9776 108.947 41.6337 108.928 42.2344 109.136C42.8351 109.345 43.3387 109.766 43.65 110.32C44 110.97 44.06 111.78 44.55 112.32C45.28 113.15 46.55 113.02 47.65 113.11C48.9694 113.239 50.222 113.752 51.2529 114.586C52.2838 115.419 53.0476 116.537 53.45 117.8C53.7 118.62 53.93 119.63 54.74 119.86C55.74 120.14 56.74 119.1 57.68 119.74C58.62 120.38 58.56 121.63 59.12 122.39C59.3937 122.705 59.7317 122.957 60.1113 123.129C60.4908 123.302 60.903 123.391 61.32 123.39C61.7148 123.437 62.1152 123.393 62.49 123.26C63.58 122.83 64.33 121.71 65.38 121.26C65.5711 121.182 65.7761 121.145 65.9823 121.149C66.1886 121.154 66.3916 121.201 66.579 121.287C66.7664 121.373 66.9342 121.497 67.0719 121.651C67.2097 121.804 67.3145 121.984 67.38 122.18C67.44 122.4 67.44 122.64 67.48 122.86C67.5816 123.311 67.8364 123.713 68.201 123.998C68.5657 124.282 69.0177 124.431 69.48 124.42C70.05 124.42 70.62 124.24 71.19 124.26C72.55 124.31 72.74 126.19 73.11 127.17C73.4121 127.922 73.9188 128.575 74.5728 129.054C75.2267 129.533 76.0017 129.819 76.81 129.88C77.28 129.88 77.76 129.88 78.23 129.88C79.54 130 80.15 131.46 81.15 132.19C82.71 133.31 85.39 133.03 86.06 134.85C86.27 135.43 86.2 136.12 86.55 136.63C87.11 137.44 88.31 137.3 89.24 137.58C92 138.43 91.9 142.7 94.16 144.51C95.5 145.57 97.52 145.65 98.56 147C99.89 148.73 99.05 151.81 100.9 152.93C102.28 153.78 104.74 153.18 105.12 154.77C105.32 155.6 104.68 156.6 105.19 157.29C105.85 158.19 107.1 157.48 107.95 157.81C108.595 158.12 109.156 158.579 109.588 159.149C110.019 159.72 110.308 160.385 110.43 161.09C110.499 161.375 110.482 161.675 110.38 161.95C110.07 162.63 109.09 162.59 108.46 162.95C108.065 163.275 107.805 163.736 107.731 164.243C107.657 164.749 107.774 165.265 108.06 165.69C108.655 166.52 109.464 167.173 110.4 167.58C111.334 167.995 112.154 168.63 112.79 169.43C113.002 169.739 113.143 170.091 113.204 170.461C113.264 170.831 113.243 171.209 113.14 171.57C113.03 171.925 112.814 172.239 112.521 172.467C112.228 172.696 111.871 172.83 111.5 172.85C110.86 172.85 110.32 172.43 109.68 172.52C109.536 172.534 109.398 172.583 109.277 172.664C109.157 172.744 109.058 172.853 108.99 172.98C108.77 173.48 109.25 174.06 109.12 174.6C108.84 175.77 104.8 175.85 103.85 175.95C101.602 176.214 99.3268 176.116 97.11 175.66C85.06 173.27 74.04 167.63 63.23 162.21Z" fill="#BCD7F0"/>
<path d="M241.86 99.8702V99.6902C241.884 99.3243 241.832 98.9575 241.706 98.613C241.581 98.2686 241.384 97.9542 241.13 97.6902C240.22 97.0202 238.71 97.6902 237.95 96.8302C237.784 96.6281 237.643 96.4065 237.53 96.1702C237.136 95.5631 236.546 95.109 235.859 94.8834C235.171 94.6578 234.427 94.6743 233.75 94.9302C233.42 95.0702 233.11 95.2702 232.75 95.3802C230.75 96.0602 228.75 93.9802 226.75 94.3802C225.57 94.6302 224.62 95.7202 223.41 95.7002C222.41 95.7002 221.56 94.8602 220.58 94.5502C220.167 94.425 219.731 94.3905 219.303 94.4491C218.875 94.5078 218.465 94.6583 218.1 94.8902C217.45 95.4372 216.841 96.0322 216.28 96.6702C215.326 97.4341 214.182 97.9217 212.97 98.0802C212.104 98.1111 211.254 98.3295 210.48 98.7202C209.48 99.3602 209.19 101.37 207.78 101.26C207.304 101.139 206.851 100.94 206.44 100.67C205.853 100.427 205.196 100.419 204.604 100.648C204.012 100.878 203.53 101.326 203.26 101.9C203.118 102.547 202.868 103.166 202.52 103.73C201.1 105.25 197.89 102.43 196.75 104.17C196.49 104.57 196.46 105.11 196.12 105.44C195.22 106.32 193.94 104.75 192.7 104.6C190.23 104.31 189.79 109.49 187.33 109.1C186.95 109.04 186.6 108.83 186.22 108.73C184.91 108.38 183.61 109.4 182.93 110.58C182.25 111.76 181.93 113.14 181.18 114.28C180.959 114.667 180.603 114.959 180.18 115.1C179.49 115.28 178.82 114.75 178.1 114.68C175.86 114.45 175.22 118.36 173 118.74C171.46 119 169.7 117.43 168.5 118.43C167.93 118.91 167.83 119.77 167.36 120.34C165.97 122.01 162.83 120.14 161.25 121.63C160.84 122.09 160.548 122.642 160.4 123.24L158.98 127.48C158.841 128.043 158.543 128.554 158.12 128.95C157.01 129.76 155.38 128.64 154.12 129.15C152.06 129.97 153.12 133.72 151.18 134.86C150.18 135.46 148.75 135.04 147.87 135.81C147.15 136.45 147.21 137.48 146.98 138.33C146.785 139.191 146.279 139.949 145.56 140.46L144.39 141.31C144.114 141.535 143.798 141.708 143.46 141.82C142.22 142.16 140.7 141.34 140.06 142.82C139.5 144.14 140.94 146.45 138.56 146.62C137.838 146.547 137.108 146.629 136.42 146.86C135.47 147.38 135.42 148.68 135 149.68C134.738 150.296 134.316 150.831 133.778 151.23C133.24 151.629 132.606 151.878 131.94 151.95C131.667 151.94 131.395 151.998 131.15 152.12C130.942 152.294 130.786 152.523 130.7 152.78C129.994 154.167 129.566 155.679 129.44 157.23C129.528 157.762 129.406 158.307 129.1 158.75C128.74 159.11 128.1 159.1 127.7 159.36C127.401 159.617 127.166 159.939 127.012 160.301C126.857 160.664 126.788 161.057 126.81 161.45C126.831 162.459 126.726 163.467 126.5 164.45C126.29 165.01 125.77 165.37 125.75 166.03C125.75 166.95 126.44 167.49 127.16 167.93C128.64 168.83 131.16 169.56 130.82 171.77C130.63 172.77 129.82 173.83 130.32 174.69C130.82 175.55 131.94 175.33 132.7 175.8C134.7 177.04 132.91 181.22 135.1 182.01C136.66 182.57 138.67 180.48 139.82 181.69C140.36 182.25 140.37 183.36 141.13 183.56C142.32 183.87 142.24 181.8 142.69 180.64C143.52 178.49 145.1 180.03 146.02 181.04C146.54 181.62 147.37 182.11 148.02 181.72C149.07 181.12 148.96 179.72 149.78 178.9C150.98 177.74 152 178.6 153.1 179.41C153.82 179.93 155.02 180.18 155.43 179.41C156.15 178.03 154.56 176.95 156.94 176.63C158.43 176.44 159.44 177.98 160.83 176.69C161.18 176.37 160.83 175.43 161.34 174.92C161.639 174.598 162.016 174.357 162.434 174.221C162.852 174.084 163.298 174.057 163.73 174.14C164.93 174.42 166.31 175.47 167.19 174.59C167.436 174.271 167.62 173.908 167.73 173.52C168.65 171.3 170.65 171.08 172.73 171.39C173.89 171.57 175.25 171.59 176.01 170.71C176.26 170.362 176.487 169.998 176.69 169.62C176.976 169.182 177.364 168.818 177.82 168.561C178.276 168.303 178.787 168.159 179.31 168.14C179.64 168.14 180.03 168.14 180.2 167.87C180.37 167.6 180.3 167.53 180.45 167.48C180.54 167.446 180.64 167.446 180.73 167.48C181.65 167.84 182.9 168.6 182.73 166.94C182.67 166.38 182.28 166.2 182.68 165.61C183.08 165.02 184.12 165.02 184.84 164.99C185.13 165.009 185.419 164.96 185.687 164.847C185.954 164.734 186.191 164.561 186.38 164.34C186.68 163.89 186.61 163.28 186.88 162.82C187.31 162.07 188.35 162.02 189.22 162.01C190.09 162 191.15 161.78 191.38 160.94C191.405 160.812 191.445 160.688 191.5 160.57C191.84 160.05 193.03 160.67 193.5 160.66C194.394 160.626 195.257 160.327 195.98 159.8C196.638 159.313 197.094 158.602 197.26 157.8C197.42 156.98 197.19 155.73 197.93 155.15C198.49 154.7 199.32 155.04 200.02 154.89C200.428 154.754 200.787 154.5 201.05 154.16C201.314 153.82 201.47 153.409 201.5 152.98C201.6 152.36 201.57 151.64 202.04 151.21C202.23 151.047 202.456 150.93 202.7 150.87C203.54 150.63 204.43 150.64 205.28 150.45C205.71 150.389 206.118 150.222 206.468 149.964C206.817 149.705 207.096 149.364 207.28 148.97C207.44 148.54 207.41 148.05 207.61 147.63C208.29 146.2 210.96 147.08 212.03 145.78C212.95 144.64 211.79 141.98 213.69 141.78C214.023 141.76 214.357 141.76 214.69 141.78C215.141 141.772 215.578 141.62 215.938 141.346C216.297 141.073 216.561 140.693 216.69 140.26C216.94 139.4 216.69 138.32 217.34 137.72C217.943 137.365 218.658 137.255 219.34 137.41C220.03 137.41 220.89 137.23 221.04 136.55C221.13 136.11 220.86 135.64 221.04 135.21C221.35 134.21 223.53 134.21 224.29 133.42C225.05 132.63 225.24 130.55 226.7 130.52C227.09 130.52 227.47 130.65 227.86 130.63C228.319 130.549 228.736 130.309 229.037 129.953C229.338 129.597 229.506 129.147 229.51 128.68C229.498 128.299 229.542 127.918 229.64 127.55C230.21 126.13 232.83 126.64 233.38 125.21C233.469 124.7 233.533 124.186 233.57 123.67C233.99 122.1 235.51 123.04 236.57 122.67C239.48 121.51 236.67 117.8 239.37 116.75C239.964 116.594 240.517 116.311 240.99 115.92C241.432 115.32 241.651 114.584 241.61 113.84C241.72 112.24 242.09 110.59 242.08 109.01C242.066 108.33 241.951 107.656 241.74 107.01C241.61 106.62 242.45 104.95 242.54 104.45C242.78 103.546 242.78 102.595 242.54 101.69C242.235 101.116 242.006 100.504 241.86 99.8702ZM233.71 116.87C226.91 124.63 219.04 131.3 212.08 139.06C208.58 142.96 205.26 147.06 201.3 150.48C195.62 155.42 188.82 158.85 182.11 162.22C177.06 164.75 172.02 167.28 166.84 169.53C164.24 170.67 161.61 171.74 158.93 172.7C157.597 173.18 156.263 173.63 154.93 174.05C153.854 174.311 152.761 174.498 151.66 174.61C150.57 174.8 149.74 173.29 148.66 173.43C147.83 173.53 147.4 174.49 146.66 174.81C145.834 174.995 144.97 174.871 144.23 174.46C143.43 174.17 142.38 174.07 141.9 174.77C141.78 174.94 141.71 175.15 141.6 175.34C140.79 176.64 138.66 175.57 138.55 174.34C138.55 173.96 138.62 173.54 138.43 173.21C138 172.47 136.9 173.04 136.05 173.03C135.68 173.011 135.324 172.877 135.032 172.648C134.741 172.419 134.527 172.105 134.42 171.75C134.318 171.39 134.296 171.011 134.356 170.641C134.417 170.271 134.558 169.919 134.77 169.61C135.406 168.81 136.226 168.175 137.16 167.76C138.096 167.353 138.905 166.7 139.5 165.87C139.783 165.445 139.899 164.929 139.826 164.423C139.752 163.918 139.493 163.457 139.1 163.13C138.46 162.73 137.49 162.77 137.18 162.13C137.078 161.855 137.061 161.555 137.13 161.27C137.252 160.565 137.541 159.9 137.972 159.33C138.404 158.759 138.965 158.3 139.61 157.99C140.46 157.66 141.71 158.37 142.37 157.47C142.88 156.78 142.24 155.78 142.44 154.95C142.82 153.36 145.27 153.95 146.65 153.11C148.51 151.99 147.65 148.91 148.99 147.18C150.04 145.83 152.06 145.75 153.4 144.69C155.66 142.88 155.56 138.61 158.32 137.76C159.25 137.48 160.45 137.62 161.01 136.81C161.36 136.3 161.29 135.61 161.5 135.03C162.17 133.21 164.84 133.49 166.41 132.37C167.19 131.8 167.79 130.87 168.61 130.37C169.43 129.87 170.43 130.63 171.45 130.3C171.773 130.149 172.058 129.928 172.284 129.653C172.511 129.378 172.673 129.056 172.76 128.71C172.915 128.119 173.154 127.553 173.47 127.03C173.87 126.52 174.47 126.29 174.85 125.77C175.23 125.25 175.22 124.77 175.78 124.53C176.5 124.17 177.33 124.53 178.08 124.53C178.542 124.541 178.994 124.392 179.359 124.108C179.724 123.823 179.978 123.421 180.08 122.97C180.08 122.75 180.08 122.51 180.17 122.29C180.9 119.44 183.72 123.12 184.75 123.29C185.137 123.284 185.517 123.19 185.863 123.017C186.21 122.844 186.513 122.596 186.75 122.29C187.36 121.7 188.16 121.43 188.75 120.94C189.47 120.33 189.75 119.49 190.92 119.63C191.57 119.71 192.19 120.13 192.82 119.95C193.63 119.72 193.82 118.71 194.1 117.89C194.505 116.627 195.271 115.51 196.304 114.676C197.336 113.843 198.59 113.33 199.91 113.2C201 113.11 202.28 113.2 203.01 112.41C203.5 111.86 203.56 111.05 203.91 110.41C204.219 109.857 204.721 109.436 205.32 109.228C205.919 109.019 206.574 109.038 207.16 109.28C207.859 109.717 208.527 110.202 209.16 110.73C209.474 110.985 209.87 111.115 210.274 111.096C210.678 111.078 211.061 110.912 211.35 110.63C211.56 110.229 211.689 109.791 211.73 109.34C213.01 104.21 216.87 110.47 218.2 109.56C218.64 109.26 218.64 108.62 218.66 108.15C218.612 107.523 218.733 106.895 219.01 106.33C219.144 105.996 219.392 105.72 219.71 105.55C220.17 105.37 220.66 105.66 221.12 105.81C221.459 105.949 221.831 105.981 222.189 105.902C222.546 105.824 222.871 105.638 223.12 105.37C223.262 105.139 223.415 104.915 223.58 104.7C223.967 104.457 224.412 104.321 224.869 104.307C225.326 104.293 225.779 104.401 226.18 104.62C226.87 105.11 226.89 106.1 227.18 106.82C227.299 107.062 227.471 107.274 227.683 107.44C227.894 107.607 228.141 107.724 228.404 107.782C228.667 107.841 228.939 107.839 229.202 107.779C229.464 107.718 229.71 107.599 229.92 107.43C230.79 106.64 230.66 105.26 230.92 104.09C231.064 103.237 231.529 102.471 232.22 101.95C232.569 101.703 232.987 101.57 233.415 101.57C233.843 101.57 234.261 101.703 234.61 101.95C235.25 102.45 235.72 103.68 236.61 103.76C237.25 103.76 237.47 103.07 237.9 103.04C238.76 102.98 240.07 102.13 239.72 104.44C239.58 105.35 239.07 106.17 238.99 107.08C238.971 107.514 239.094 107.942 239.34 108.3C239.22 108.73 239.1 109.15 238.94 109.57C237.69 112.27 235.69 114.61 233.71 116.86V116.87Z" fill="#BCD7F0"/>
<path d="M120.43 11.7898C119.667 12.1323 119.01 12.6748 118.53 13.3598C118.192 14.0709 118.031 14.853 118.06 15.6398C117.853 19.9265 117.647 24.2231 117.44 28.5298C117.366 29.1077 117.449 29.695 117.68 30.2298C118.09 30.9698 119.03 31.2298 119.5 31.9598C119.893 32.77 119.965 33.699 119.7 34.5598C116.25 54.3698 119.06 74.6598 119.38 94.7598C119.554 97.001 119.282 99.2544 118.58 101.39C116.631 81.453 116.03 61.4075 116.78 41.3898C116.991 39.1192 116.832 36.8296 116.31 34.6098C115.88 33.1798 115.14 31.8698 114.68 30.4498C114.081 28.2383 113.814 25.9498 113.89 23.6598C113.89 21.4398 113.82 19.2298 113.79 17.0198C113.672 15.8411 113.85 14.6516 114.31 13.5598C116.25 9.82978 123.98 9.13981 127.5 9.21981C125.49 9.15981 122.17 10.8498 120.43 11.7898Z" fill="#7593AA"/>
<path d="M82.91 38.1498C82.8027 38.4775 82.7625 38.8234 82.7917 39.167C82.8209 39.5106 82.919 39.8449 83.08 40.1498C84 41.4698 86.72 41.6098 88.93 41.5498C90.34 41.5498 91.93 41.4298 92.79 40.7098C93.0856 40.4243 93.3012 40.0663 93.4153 39.6715C93.5294 39.2767 93.5379 38.8589 93.44 38.4598C93.0251 33.249 93.0753 28.0116 93.59 22.8097C94.04 18.1697 95.84 13.4798 95.85 8.89977C95.8811 8.58664 95.8034 8.27235 95.63 8.00976C94.95 7.13976 92.96 7.42975 91.49 7.18975C90.02 6.94975 88.85 6.09975 87.38 6.18975C82.57 6.50975 84.67 16.6398 84.69 18.5698C84.7527 25.1395 84.1564 31.699 82.91 38.1498Z" fill="#7593AA"/>
<path d="M84.86 39.3299C84.7008 40.0472 84.7423 40.7945 84.98 41.4898C85.62 42.8898 87.51 43.0399 89.05 42.9799C89.4983 43.0951 89.9692 43.0885 90.4141 42.9609C90.8591 42.8333 91.2618 42.5892 91.5809 42.2538C91.8999 41.9185 92.1237 41.504 92.229 41.0532C92.3343 40.6025 92.3174 40.1318 92.18 39.6898C91.8933 34.1525 91.9267 28.6033 92.28 23.0698C92.6 18.1398 93.85 13.1699 93.85 8.29989C93.8763 7.97905 93.8249 7.65658 93.7 7.35989C93.23 6.42989 91.84 6.73983 90.83 6.48983C89.82 6.23983 88.99 5.32984 87.97 5.43984C84.63 5.76984 86.09 16.5299 86.1 18.5799C86.1469 25.5164 85.7327 32.4483 84.86 39.3299Z" fill="#7FA1BA"/>
<path d="M158.98 26.0399C158.438 30.0155 158.234 34.0299 158.37 38.0399C158.431 38.7531 158.274 39.468 157.92 40.0899C156.92 41.5499 153.22 41.5099 151.25 41.5799C150.415 41.6829 149.569 41.5109 148.84 41.0899C148.639 40.9012 148.487 40.6652 148.4 40.4033C148.313 40.1413 148.292 39.8618 148.34 39.5899C148.52 35.5899 150.1 31.7399 150.42 27.7799C150.78 23.3799 149.58 19.0299 148.3 14.7799C147.64 12.5499 146.17 10.5799 144.84 8.50989L144.67 8.22992C148.17 8.00992 151.637 7.73324 155.07 7.3999C155.79 8.6699 156.2 11.0799 156.63 11.9999C158.73 16.5099 159.83 21.2699 158.98 26.0399Z" fill="#7593AA"/>
<path d="M151.61 28.96C151.37 33.15 150.21 37.24 150.08 41.43C150 41.9845 150.132 42.5489 150.45 43.01C150.688 43.2183 150.969 43.3718 151.273 43.4599C151.578 43.548 151.897 43.5685 152.21 43.52C153.66 43.45 156.37 43.52 157.1 41.95C157.369 41.2632 157.485 40.5262 157.44 39.79C157.339 35.5615 157.489 31.3307 157.89 27.12C158.404 22.1031 157.814 17.0344 156.16 12.27C155.78 11.1 155.43 7.63002 154.65 6.76002C153.65 5.59002 150.12 6.58001 148.73 6.69001C148.2 6.69001 147.57 6.84003 147.34 7.33003C147.277 7.54168 147.259 7.76435 147.289 7.98329C147.318 8.20222 147.393 8.41246 147.51 8.60005C148.596 10.7003 149.448 12.9136 150.05 15.2C150.98 19.75 151.88 24.33 151.61 28.96Z" fill="#7FA1BA"/>
<path d="M132.79 21.6898C132.79 22.6609 132.502 23.6102 131.962 24.4176C131.423 25.2251 130.656 25.8544 129.759 26.226C128.862 26.5976 127.875 26.6949 126.922 26.5054C125.97 26.316 125.095 25.8484 124.408 25.1617C123.721 24.475 123.254 23.6001 123.064 22.6477C122.875 21.6952 122.972 20.708 123.344 19.8108C123.715 18.9136 124.345 18.1468 125.152 17.6072C125.96 17.0677 126.909 16.7798 127.88 16.7798C128.525 16.7785 129.164 16.9045 129.761 17.1508C130.357 17.3971 130.899 17.7588 131.355 18.215C131.811 18.6712 132.173 19.213 132.419 19.8093C132.665 20.4056 132.791 21.0446 132.79 21.6898Z" fill="#C9DDF2"/>
<path d="M26.8 64.0698C26.8 64.5568 26.6555 65.0328 26.3847 65.4376C26.114 65.8423 25.7292 66.1576 25.2791 66.3435C24.829 66.5294 24.3339 66.5776 23.8564 66.4818C23.3789 66.3861 22.9406 66.1508 22.597 65.8057C22.2533 65.4607 22.0199 65.0214 21.9261 64.5436C21.8323 64.0657 21.8824 63.5708 22.0701 63.1215C22.2579 62.6722 22.5747 62.2887 22.9806 62.0196C23.3864 61.7504 23.863 61.6079 24.35 61.6099C24.6726 61.6099 24.992 61.6736 25.2899 61.7973C25.5878 61.9211 25.8583 62.1024 26.086 62.331C26.3136 62.5595 26.4939 62.8308 26.6164 63.1292C26.7389 63.4276 26.8013 63.7473 26.8 64.0698Z" fill="#C9DDF2"/>
<path d="M78.12 46.5798C75.93 51.8898 72.12 56.7698 66.78 58.9298C64.9239 59.6364 62.9956 60.1362 61.03 60.4199C49.5446 62.3747 37.7778 61.9149 26.48 59.0698C26.92 53.3032 27.3666 47.5298 27.82 41.7498C28.07 38.5998 28.34 35.3398 29.82 32.5698C30.49 36.1098 30.07 39.7499 30.18 43.3499C30.29 46.9499 31.09 50.7699 33.66 53.2899C36.23 55.8099 40.06 56.5099 43.66 56.6599C47.8966 56.767 52.1329 56.4319 56.3 55.6599C59.81 55.0599 63.43 54.2199 66.19 51.9699C68.1058 50.2149 69.7117 48.1493 70.94 45.8599C72.77 42.8599 74.61 39.8598 76.23 36.7698C76.77 35.7698 79.23 29.0598 80.06 29.1798C83.84 29.6698 78.82 44.8798 78.12 46.5798Z" fill="#7593AA"/>
<path d="M217.51 64.0698C217.512 64.554 217.657 65.0266 217.928 65.4282C218.198 65.8298 218.581 66.1423 219.029 66.3262C219.477 66.5101 219.969 66.5572 220.444 66.4615C220.919 66.3659 221.354 66.1317 221.696 65.7887C222.038 65.4457 222.27 65.0091 222.364 64.5341C222.457 64.0591 222.408 63.5671 222.222 63.12C222.037 62.6729 221.723 62.2908 221.32 62.022C220.917 61.7533 220.444 61.6099 219.96 61.6099C219.637 61.6099 219.318 61.6736 219.02 61.7973C218.722 61.9211 218.452 62.1024 218.224 62.3309C217.996 62.5595 217.816 62.8308 217.694 63.1292C217.571 63.4276 217.509 63.7472 217.51 64.0698Z" fill="#C9DDF2"/>
<path d="M166.19 46.5798C168.38 51.8898 172.19 56.7698 177.53 58.9298C179.383 59.6363 181.308 60.136 183.27 60.4199C194.759 62.3747 206.529 61.9149 217.83 59.0698C217.377 53.3032 216.93 47.5298 216.49 41.7498C216.24 38.5998 215.97 35.3398 214.49 32.5698C213.81 36.1098 214.24 39.7499 214.12 43.3499C214 46.9499 213.21 50.7699 210.64 53.2899C208.07 55.8099 204.25 56.5099 200.64 56.6599C196.4 56.7666 192.161 56.4315 187.99 55.6599C184.49 55.0599 180.86 54.2199 178.11 51.9699C176.194 50.2126 174.585 48.1475 173.35 45.8599C171.52 42.8599 169.69 39.8598 168.06 36.7698C167.53 35.7698 165.06 29.0598 164.24 29.1798C160.46 29.6698 165.49 44.8798 166.19 46.5798Z" fill="#7593AA"/>
</g>
<defs>
<clipPath id="clip0_52_4969">
<rect width="242.73" height="183.61" fill="white"/>
</clipPath>
</defs>
</svg>
