<svg width="145" height="353" viewBox="0 0 145 353" fill="none" xmlns="http://www.w3.org/2000/svg">
<g clip-path="url(#clip0_51_4798)">
<path d="M45.32 348.59C43.25 348.33 41.19 348.07 39.13 347.79L34.06 347.1C32.5 346.89 30.95 346.65 29.39 346.41C28.63 346.3 27.86 346.15 27.1 346.02L25.17 345.67C23.61 345.36 22.07 345.04 20.52 344.67L16.33 343.73C15.1 343.45 13.86 343.17 12.64 342.85L11.5 342.54C10.99 326.94 11.12 311.33 11.1 295.73C9.38001 255.28 8.04001 214.82 6.27001 174.37C4.63001 150.1 2.85001 125.83 1.27001 101.56C0.560008 87.56 -1.39999 73.27 1.58001 59.46C3.29001 51.24 5.75 43.06 10.11 35.74C14.47 28.42 19.75 21.38 23.42 13.63C24.92 9.83996 24.63 5.62996 25.58 1.70996C25.6398 1.12045 25.7401 0.535738 25.88 -0.0400391L28.46 0.0499649C33.24 0.219965 38.02 0.409963 42.8 0.649963C45.1 0.759963 47.39 0.92996 49.69 1.09996C51.99 1.26996 54.25 1.44996 56.53 1.66996C58.81 1.88996 61.14 2.11996 63.44 2.39996C64.66 2.53996 65.87 2.67997 67.08 2.83997L70.95 3.34996H70.83L74.65 3.88996L78.29 4.44997C80.69 4.81997 83.08 5.24996 85.47 5.67996C87.86 6.10996 90.13 6.58996 92.47 7.07996L93.52 7.29996L92.8 12.85C90.28 32.43 85.8 51.67 82.95 71.21C73.46 144.98 67.61 219.28 55.38 292.67C52.3 311.33 49.22 329.99 46.26 348.67L45.32 348.59Z" fill="#B0B0B0"/>
<path d="M89.24 292.7C77.01 219.31 71.16 145.01 61.67 71.2402C58.86 51.7002 54.35 32.4602 51.83 12.8802C51.5833 11.0269 51.34 9.1769 51.1 7.33024L52.15 7.11024C54.48 6.62024 56.8 6.11024 59.15 5.71024C61.5 5.31024 63.93 4.85024 66.33 4.48024L69.98 3.92023L73.79 3.38023H73.68L77.54 2.87024C78.75 2.71024 79.97 2.57024 81.18 2.43024C83.48 2.15024 85.79 1.92024 88.09 1.70024C90.39 1.48024 92.65 1.29023 94.94 1.13023C97.23 0.970234 99.53 0.790237 101.82 0.680237C106.6 0.440237 111.38 0.250238 116.16 0.0802383L118.74 -0.00976562C118.88 0.566011 118.98 1.15072 119.04 1.74023C119.99 5.66023 119.7 9.87024 121.21 13.6602C124.87 21.4102 130.1 28.4002 134.51 35.7702C138.92 43.1402 141.33 51.2702 143.04 59.4902C146.04 73.3002 144.04 87.5602 143.35 101.59C141.79 125.86 140.01 150.13 138.35 174.4C136.59 214.85 135.25 255.31 133.53 295.76C133.53 311.1 133.63 326.45 133.14 341.76L131.89 342.16L131.64 342.23C128.64 343.11 125.64 343.86 122.59 344.55C119.54 345.24 116.68 345.71 113.72 346.22H113.59H113.69C108.69 347.05 103.77 347.78 98.78 348.38L98.33 348.44C95.34 329.87 92.24 311.28 89.24 292.7Z" fill="#B0B0B0"/>
<path d="M68.99 18.7198C59.6166 18.6431 50.2603 17.9079 40.99 16.5198C36.75 15.5198 32.21 14.8798 28.35 12.8498C27.57 11.3098 29.84 11.8498 30.63 12.0898C33.12 12.6798 35.63 13.1998 38.14 13.6698C63.6456 18.1332 89.8248 16.866 114.78 9.95978C114.971 9.91763 115.17 9.94483 115.342 10.0365C115.514 10.1281 115.648 10.2782 115.72 10.4598C116.37 12.0298 110.59 12.6198 109.5 13.1998C96.2955 16.8002 82.6764 18.656 68.99 18.7198Z" fill="#818181"/>
<path d="M64.32 14.2398C63.699 13.8489 63.1893 13.3045 62.8399 12.6593C62.4905 12.014 62.3133 11.2897 62.3254 10.556C62.3375 9.82234 62.5384 9.10416 62.9087 8.47075C63.2791 7.83733 63.8065 7.31006 64.44 6.93977C65.5269 6.26917 66.8268 6.03346 68.08 6.27977C68.64 6.34977 69.08 7.01977 68.47 7.37977C68.1399 7.44744 67.8059 7.49421 67.47 7.51977C66.5965 7.67926 65.7953 8.10958 65.18 8.74977C64.8952 9.05868 64.6955 9.43613 64.6001 9.84529C64.5048 10.2544 64.5171 10.6813 64.636 11.0843C64.7549 11.4872 64.9762 11.8525 65.2783 12.1444C65.5805 12.4363 65.9532 12.6449 66.36 12.7498C66.8151 12.9424 67.3163 12.9986 67.8027 12.9116C68.2892 12.8246 68.7398 12.5982 69.1 12.2598C69.4412 11.9136 69.6932 11.4898 69.8343 11.0247C69.9754 10.5596 70.0014 10.0671 69.91 9.58977C69.7731 9.16559 69.5558 8.77175 69.27 8.42977C69.1608 8.28064 69.1098 8.09685 69.1263 7.91279C69.1429 7.72874 69.226 7.55702 69.36 7.42977C70.46 6.42977 71.83 9.14977 71.79 10.0698C71.8682 10.9702 71.6845 11.874 71.2612 12.6725C70.8378 13.471 70.1928 14.1301 69.4036 14.5706C68.6145 15.0112 67.7148 15.2143 66.813 15.1556C65.9111 15.0969 65.0454 14.7789 64.32 14.2398Z" fill="#818181"/>
<path d="M74.06 15.9C73.9124 15.8923 73.7735 15.8274 73.6727 15.7192C73.572 15.611 73.5172 15.4678 73.52 15.32C73.52 14.22 73.52 13.11 73.52 12.01C73.52 10.42 73.52 8.84001 73.35 7.26001C73.3158 6.16906 73.0678 5.09542 72.62 4.10001C72.5887 4.04026 72.5703 3.97456 72.566 3.90721C72.5618 3.83987 72.5718 3.77238 72.5953 3.70915C72.6189 3.64593 72.6556 3.58839 72.7029 3.54029C72.7503 3.49219 72.8072 3.45462 72.87 3.43001C73.87 3.07001 74.31 6.33001 74.41 7.01001C74.6935 9.78041 74.777 12.5676 74.66 15.35C74.6523 15.5021 74.585 15.645 74.4727 15.7479C74.3604 15.8508 74.2122 15.9055 74.06 15.9Z" fill="#818181"/>
<path d="M73.76 66.8899C73.5973 66.8847 73.4432 66.8157 73.3309 66.6978C73.2187 66.58 73.1573 66.4227 73.16 66.2599C73.16 63.7199 73.11 61.1799 73.11 58.6399C73.11 51.1533 73.1267 43.6599 73.16 36.1599C73.16 31.0699 73.21 25.9899 73.07 20.8999C73.0421 20.8075 73.0455 20.7085 73.0795 20.6181C73.1134 20.5277 73.1762 20.4511 73.2581 20.3999C73.3399 20.3487 73.4364 20.3259 73.5325 20.3349C73.6286 20.344 73.7191 20.3844 73.79 20.4499C73.9119 20.612 73.9816 20.8073 73.99 21.0099C74.05 21.4999 74.09 22.0099 74.12 22.4699C74.26 24.2799 74.29 26.0999 74.35 27.9199C74.5 34.1899 74.52 40.4699 74.54 46.7499C74.54 51.6099 74.5133 56.4699 74.46 61.3299C74.46 62.9799 74.4 64.6399 74.39 66.3299C74.3772 66.4864 74.3046 66.632 74.1873 66.7363C74.0699 66.8406 73.9169 66.8956 73.76 66.8899Z" fill="#818181"/>
<path d="M43.24 340.65C39.6 340.42 36.11 339.97 32.5 339.59C26.1905 339.082 19.9428 337.981 13.84 336.3C13.54 336.19 13.12 336.09 13.07 335.72C13.0596 335.632 13.076 335.543 13.117 335.465C13.1581 335.386 13.2218 335.322 13.3 335.28C13.7245 335.135 14.1797 335.104 14.62 335.19C20.13 336.03 25.62 336.98 31.2 337.42C35.28 337.82 39.3433 338.324 43.39 338.93C43.5973 338.975 43.7812 339.093 43.9072 339.264C44.0331 339.435 44.0925 339.645 44.0741 339.856C44.0557 340.068 43.9607 340.265 43.8071 340.411C43.6536 340.557 43.4519 340.642 43.24 340.65Z" fill="#818181"/>
<path d="M98.24 339.83C98.07 338.4 100.44 338.83 101.35 338.53C103.98 338.15 106.6 337.69 109.23 337.28C115.63 336.33 121.87 334.73 128.31 334.15C128.575 334.121 128.841 334.198 129.049 334.365C129.258 334.532 129.391 334.775 129.42 335.04C129.449 335.305 129.372 335.571 129.205 335.779C129.038 335.988 128.795 336.121 128.53 336.15C125.42 336.56 122.3 336.96 119.21 337.51C112.76 338.69 106.28 339.35 99.76 340.07C99.16 340.13 98.5 340.54 98.24 339.83Z" fill="#818181"/>
<path d="M17.99 328.22C17.8836 328.217 17.7788 328.194 17.6815 328.151C17.5842 328.108 17.4964 328.046 17.423 327.969C17.3497 327.892 17.2922 327.801 17.2539 327.702C17.2157 327.602 17.1974 327.496 17.2 327.39C17.26 325.89 17.28 324.39 17.29 322.88C17.67 291.16 16.75 259.42 17.59 227.7C18.18 201.37 18.41 175.04 19.59 148.7C20.24 133.44 21.98 118.26 22.67 103.01C23.24 91.88 22.91 80.72 23.39 69.59C23.71 64.01 24.39 58.45 25.09 52.92C26.01 47.54 27.09 42.2 28.59 36.92C29.8681 31.8378 31.5398 26.8628 33.59 22.04C33.8295 21.5586 34.1071 21.0972 34.42 20.66C34.4897 20.5913 34.5784 20.5451 34.6747 20.5272C34.7709 20.5094 34.8703 20.5208 34.96 20.56C35.0291 20.5934 35.09 20.6416 35.1382 20.7013C35.1865 20.761 35.2209 20.8306 35.2391 20.9052C35.2572 20.9797 35.2587 21.0574 35.2433 21.1326C35.2279 21.2077 35.196 21.2786 35.15 21.34C33.9143 24.0704 32.8912 26.8921 32.09 29.78C31.09 33.01 30.18 36.26 29.38 39.55C28.19 44.36 27.2 49.23 26.49 54.13C25.89 58.81 25.42 63.51 25.12 68.19C24.58 79.4 25.12 90.63 24.63 101.83C24.09 118.33 22.16 134.76 21.63 151.26C20.07 201.58 19.92 251.93 19.42 302.26C19.34 308.63 19.18 315 18.99 321.36C18.92 323.36 18.82 325.36 18.73 327.36C18.7389 327.571 18.6673 327.776 18.5299 327.936C18.3925 328.096 18.1995 328.197 17.99 328.22Z" fill="#818181"/>
<path d="M28.39 338.02C27.85 325.02 28.83 312.14 29.16 299.2C29.42 288.96 29.54 278.72 30.11 268.49C30.68 258.26 31.34 248.01 31.87 237.76C32.87 215.76 33.77 193.84 35.53 171.92C36.31 161.75 37.43 151.62 38.3 141.46C40 120.9 41.3 100.31 42.42 79.7099C43.42 64.7899 44.04 49.8199 45.75 34.9599C46.19 31.7899 46.65 28.6299 47.04 25.4499C47.16 24.4499 47.26 23.5399 47.38 22.5799C47.38 22.2899 47.38 21.9099 47.67 21.7099C47.7304 21.6691 47.7998 21.6436 47.8722 21.6356C47.9447 21.6275 48.018 21.6372 48.0859 21.6638C48.1537 21.6903 48.2142 21.733 48.2619 21.788C48.3097 21.8431 48.3433 21.909 48.36 21.9799C48.2 27.3299 47.44 32.6599 46.95 37.9799C44.65 70.2099 43.51 102.52 40.81 134.73C39.92 145.81 38.72 156.99 37.71 168.04C36.58 181.89 35.57 195.75 34.82 209.62C33.96 230.1 32.66 250.55 31.53 271.01C31.05 281.3 31 291.6 30.77 301.9C30.33 313.9 29.88 325.9 29.85 337.95C29.8423 338.139 29.7623 338.318 29.6265 338.45C29.4907 338.583 29.3094 338.658 29.12 338.66C28.941 338.661 28.7678 338.597 28.6332 338.479C28.4986 338.361 28.412 338.198 28.39 338.02Z" fill="#818181"/>
<path d="M39.52 337.11C39.2801 337.059 39.067 336.922 38.9214 336.725C38.7757 336.528 38.7076 336.284 38.73 336.04C38.81 335.11 38.87 334.17 38.96 333.25C39.28 330.38 39.77 327.54 40.15 324.68C41.15 317.23 41.68 309.73 42.34 302.25C43.29 291.12 44.52 280.01 45.34 268.87C46.71 250.21 47.44 231.51 49.03 212.87C50.62 194.23 52.48 175.79 53.6 157.2C55.21 129.44 56.46 101.66 58.6 73.9298C59.31 63.9298 59.84 53.9298 60.02 43.9298C60.14 37.2498 60.38 30.5698 60.22 23.9298C60.2213 23.8628 60.2358 23.7967 60.2626 23.7354C60.2895 23.674 60.3282 23.6185 60.3764 23.5721C60.4247 23.5256 60.4817 23.4892 60.5441 23.4648C60.6065 23.4403 60.673 23.4285 60.74 23.4298C60.814 23.4329 60.8865 23.4519 60.9526 23.4853C61.0188 23.5187 61.077 23.5659 61.1234 23.6237C61.1698 23.6814 61.2033 23.7484 61.2217 23.8202C61.2401 23.892 61.2429 23.9668 61.23 24.0398C61.5 30.8898 61.3 37.7598 61.23 44.6098C61.13 58.6098 60.16 72.4798 59.23 86.3998C57.58 110.27 56.71 134.19 55.36 158.08C54.27 178.08 52.3 198.08 50.73 218.08C49.73 231.74 49.04 245.43 48.16 259.08C47.26 274.9 45.51 290.66 44.16 306.46C43.52 315.28 42.45 324.05 41.04 332.78C40.88 333.98 40.65 335.17 40.49 336.38C40.4308 336.591 40.3038 336.777 40.1285 336.909C39.9532 337.041 39.7394 337.111 39.52 337.11Z" fill="#818181"/>
<path d="M5.15003 146.54C5.03314 146.537 4.9179 146.512 4.81091 146.465C4.70393 146.418 4.60728 146.35 4.52649 146.265C4.4457 146.181 4.38235 146.081 4.34006 145.972C4.29777 145.863 4.27736 145.747 4.28001 145.63C4.28001 143.02 4.28002 140.42 4.38002 137.82C4.62002 127.32 4.92003 116.82 5.45003 106.34C5.96003 97.29 6.56002 88.26 7.63002 79.34C8.63002 71.25 10.28 63.25 11.88 55.26C12.9419 50.2087 14.2975 45.2235 15.94 40.33C17.53 35.87 19.36 31.5 21.2 27.14C21.74 25.88 22.29 24.63 22.89 23.4C23.29 22.59 23.68 21.79 24.14 21.01C24.2209 20.8761 24.3517 20.7798 24.5036 20.7423C24.6555 20.7048 24.8161 20.7292 24.95 20.81C25.084 20.8909 25.1803 21.0217 25.2178 21.1736C25.2553 21.3255 25.2309 21.4861 25.15 21.62C24.88 22.04 24.65 22.47 24.41 22.91C23.16 25.41 22.09 28 21.07 30.6C19.77 33.9 18.49 37.22 17.37 40.6C15.3943 47.0209 13.8443 53.5651 12.73 60.19C11.73 65.48 10.73 70.76 10.09 76.09C8.67003 87.32 8.09002 98.64 7.50002 109.95C7.00002 119.82 6.76002 129.7 6.30002 139.57C6.20002 141.62 6.10002 143.66 6.07002 145.71C6.04984 145.939 5.94376 146.152 5.7731 146.306C5.60244 146.46 5.37985 146.543 5.15003 146.54Z" fill="#818181"/>
<path d="M105.24 334.28C104.057 328.083 103.202 321.828 102.68 315.54C102.26 311.46 101.86 307.39 101.68 303.29C99.8 254.29 98.62 205.29 96.58 156.35C95.94 143.17 95.18 129.99 94.19 116.83C93.4 107.05 92.34 97.3001 91.6 87.5101C90.86 77.7201 90.32 68.0101 89.4 58.2801C88.61 50.4701 87.4 42.7001 86.54 34.8901C86.36 33.1501 86.15 31.4001 86.04 29.6401C85.8845 28.2669 85.9351 26.8783 86.19 25.5201C86.2447 25.3374 86.3292 25.1651 86.44 25.0101C86.533 24.902 86.6492 24.8165 86.78 24.7601C86.98 24.6501 87.2 24.7601 87.34 24.9501C87.4282 25.0735 87.5251 25.1905 87.63 25.3001C87.6821 25.3556 87.711 25.4289 87.711 25.5051C87.711 25.5812 87.6821 25.6545 87.63 25.7101C87.42 25.9101 87.18 25.7101 87.04 25.5301C86.8715 26.3082 86.8276 27.1082 86.91 27.9001C86.97 29.2201 87.12 30.5401 87.28 31.9001C87.59 34.5401 87.99 37.1701 88.37 39.7901C91.13 55.5401 92.24 71.5401 93.43 87.5401C94.24 97.3601 95.3 107.15 96.11 116.97C97.1967 131.41 98.0934 145.867 98.8 160.34C100.653 204.573 102.27 248.797 103.65 293.01C103.9 300.5 104.32 307.82 105.15 315.25C105.72 321.49 106.59 327.7 107.01 333.95C107.02 334.075 107.004 334.201 106.963 334.321C106.922 334.44 106.858 334.549 106.774 334.643C106.69 334.736 106.588 334.812 106.473 334.864C106.359 334.917 106.236 334.946 106.11 334.95C105.912 334.947 105.721 334.88 105.564 334.759C105.407 334.638 105.294 334.47 105.24 334.28Z" fill="#818181"/>
<path d="M113.03 338.97C112.827 338.962 112.634 338.875 112.494 338.728C112.354 338.58 112.277 338.384 112.28 338.18C112.28 336.61 112.28 335.05 112.28 333.48C112.58 314.92 113.22 296.36 114.09 277.81C114.79 264.11 115.76 250.41 115.58 236.69C115.46 221.87 115.64 207.06 115.15 192.25C113.817 164.823 111.727 137.447 108.88 110.12C106.41 84.6901 104 59.2101 99.64 34.0201C98.99 30.5601 98.32 27.1001 97.52 23.6601C97.25 22.4701 96.96 21.2901 96.66 20.1101C96.5695 19.7989 96.5026 19.4814 96.46 19.1601C96.4551 19.0552 96.4834 18.9513 96.5408 18.8634C96.5983 18.7754 96.682 18.7078 96.78 18.6701C96.9034 18.6246 97.0397 18.6295 97.1595 18.6837C97.2793 18.738 97.3729 18.8373 97.42 18.9601C97.95 20.4001 98.33 21.8901 98.75 23.3701C99.67 26.7701 100.53 30.1901 101.21 33.6501C106.93 62.4001 109.38 91.6501 112.41 120.77C114.71 141.35 116.11 162 117.35 182.67C117.79 189.47 117.98 196.29 118.02 203.1C118.02 217.9 118.02 232.69 117.79 247.48C117.37 260.48 116.33 273.38 115.68 286.34C114.99 301.06 114.53 315.79 114.06 330.52C113.98 333.08 113.88 335.65 113.8 338.22C113.792 338.42 113.708 338.609 113.565 338.749C113.422 338.888 113.23 338.968 113.03 338.97Z" fill="#818181"/>
<path d="M124.18 334.84C124.062 334.837 123.946 334.812 123.839 334.764C123.731 334.716 123.634 334.647 123.553 334.562C123.472 334.476 123.409 334.375 123.367 334.265C123.325 334.155 123.306 334.038 123.31 333.92C123.37 332.35 123.38 330.79 123.45 329.22C123.64 324.36 123.76 319.5 123.88 314.63C124.42 284.13 125.58 253.63 126.17 223.14C126.51 199.21 125.9 175.29 125.17 151.37C124.59 130.32 125.79 109.17 123.39 88.2001C121.21 69.1201 116.83 50.3901 112.74 31.6601C111.916 27.7688 110.888 23.9235 109.66 20.1401C109.23 20.1401 109.31 19.5601 109.28 19.2701C109.282 19.199 109.305 19.13 109.345 19.0718C109.386 19.0136 109.444 18.9689 109.51 18.9432C109.576 18.9175 109.649 18.9121 109.718 18.9275C109.788 18.943 109.851 18.9787 109.9 19.0301C110.237 19.3551 110.491 19.7564 110.64 20.2001C110.91 20.8301 111.17 21.4701 111.38 22.1201C112.15 24.4401 112.81 26.7901 113.43 29.1201C119.09 51.1201 124.27 73.3201 126.21 95.9701C127.53 112.82 127.09 129.74 127.35 146.62C127.63 163.7 128.43 180.76 128.48 197.84C128.83 237.62 126.92 277.38 125.98 317.15C125.84 321.37 125.66 325.6 125.41 329.82C125.33 331.23 125.19 332.64 125.06 334.05C125.033 334.266 124.93 334.465 124.768 334.61C124.606 334.755 124.397 334.837 124.18 334.84Z" fill="#818181"/>
<path d="M73.56 40.7602C64.93 40.4302 56.32 39.6802 47.7 39.2002C42.01 38.8402 36.3 38.5802 30.64 37.8302C26.41 37.3002 22.22 36.4602 18.07 35.5202C17.07 35.3002 16.07 35.0602 15.01 34.8102C14.39 34.5902 13.01 34.6202 13.33 33.6502C13.3651 33.5752 13.4151 33.508 13.4769 33.4529C13.5388 33.3978 13.6112 33.3558 13.6898 33.3296C13.7684 33.3034 13.8515 33.2935 13.9341 33.3005C14.0166 33.3075 14.0969 33.3312 14.17 33.3702C14.58 33.4802 15.17 33.5902 15.51 33.6802C21.18 34.8702 26.86 36.0302 32.62 36.6802C42.18 37.6802 51.8 37.9502 61.38 38.6802C65.45 38.9402 69.52 39.2302 73.59 39.4102C73.7547 39.4337 73.905 39.5167 74.0126 39.6435C74.1203 39.7704 74.1776 39.9323 74.1739 40.0985C74.1702 40.2648 74.1057 40.424 73.9926 40.5459C73.8794 40.6679 73.7256 40.7441 73.56 40.7602Z" fill="#818181"/>
<path d="M79.54 39.5398C79.4154 39.5398 79.2958 39.4902 79.2077 39.4021C79.1195 39.314 79.07 39.1944 79.07 39.0698C79.07 38.9451 79.1195 38.8256 79.2077 38.7374C79.2958 38.6493 79.4154 38.5998 79.54 38.5998C80.68 38.5498 81.82 38.4598 82.96 38.3598C85.64 38.1298 88.32 37.8198 90.96 37.3598C96.4 36.5298 101.76 35.2998 107.12 34.0998C112.99 32.7798 118.89 31.5698 124.76 30.2398C124.898 30.2257 125.036 30.2622 125.148 30.3424C125.261 30.4226 125.341 30.5411 125.373 30.6757C125.404 30.8103 125.386 30.9519 125.321 31.0741C125.256 31.1963 125.149 31.2907 125.02 31.3398C117.72 33.0998 110.38 34.6998 103.02 36.3398C95.3244 38.2121 87.456 39.2845 79.54 39.5398Z" fill="#818181"/>
<path d="M57.86 45.9101C44.8534 45.4544 31.9206 43.7499 19.24 40.8201C16.92 40.2901 14.61 39.7201 12.35 38.9901C12.2171 38.9651 12.0972 38.8945 12.0108 38.7904C11.9245 38.6863 11.8773 38.5553 11.8773 38.4201C11.8773 38.2849 11.9245 38.1539 12.0108 38.0498C12.0972 37.9457 12.2171 37.8751 12.35 37.8501C13.56 38.1201 14.77 38.4901 15.99 38.7701C23.56 40.5301 31.23 41.8401 38.93 42.8701C43.85 43.4401 48.76 43.8701 53.69 44.1401C58.11 44.3501 62.52 44.4701 66.94 44.5401C67.0346 44.5401 67.1282 44.5587 67.2155 44.5949C67.3029 44.6311 67.3823 44.6841 67.4491 44.751C67.516 44.8178 67.569 44.8972 67.6052 44.9846C67.6414 45.0719 67.66 45.1655 67.66 45.2601C67.66 45.3547 67.6414 45.4483 67.6052 45.5356C67.569 45.623 67.516 45.7024 67.4491 45.7692C67.3823 45.8361 67.3029 45.8891 67.2155 45.9253C67.1282 45.9615 67.0346 45.9801 66.94 45.9801H64.2C62.05 45.9901 59.95 45.9701 57.86 45.9101Z" fill="#818181"/>
<path d="M82.68 44.08C82.2 44.08 81.68 44.0299 81.24 43.9999C80.8 43.9699 80.35 43.87 80.42 43.4C80.4398 43.2732 80.5085 43.1593 80.6113 43.0827C80.7141 43.006 80.8429 42.9727 80.97 42.9899C85.9828 43.0705 90.9951 42.7999 95.97 42.1799C105.68 41.0099 115.11 38.4999 124.45 35.7099C125.26 35.4599 126.07 35.21 126.88 34.94C127.051 34.8771 127.239 34.8842 127.404 34.9596C127.57 35.0349 127.699 35.1725 127.763 35.3424C127.828 35.5124 127.823 35.7009 127.749 35.8671C127.676 36.0333 127.539 36.1637 127.37 36.23C125.92 36.72 124.47 37.2299 123.02 37.6399C115.819 39.8905 108.467 41.6282 101.02 42.84C94.9492 43.7383 88.8166 44.153 82.68 44.08Z" fill="#818181"/>
<path d="M72.98 163.31C72.8023 163.302 72.6344 163.226 72.5114 163.098C72.3884 162.969 72.3198 162.798 72.32 162.62C72.32 161.74 72.37 160.86 72.4 159.98C72.49 157.22 72.55 154.47 72.6 151.71C72.71 140.4 73.5 129.11 73.71 117.79C73.98 104.89 74.4 91.9301 73.43 79.0501C73.37 78.4401 73.3 77.8301 73.27 77.2101C73.27 77.059 73.3301 76.914 73.437 76.8071C73.5439 76.7002 73.6889 76.6401 73.84 76.6401C73.9912 76.6401 74.1362 76.7002 74.2431 76.8071C74.35 76.914 74.41 77.059 74.41 77.2101C76.21 95.8401 75.34 114.62 74.72 133.3C74.26 141.96 74.12 150.64 73.72 159.3C73.72 160.41 73.65 161.51 73.62 162.61C73.6255 162.787 73.5617 162.959 73.4422 163.09C73.3227 163.221 73.1568 163.3 72.98 163.31Z" fill="#818181"/>
<path d="M75.83 66.9601C61.7 66.6601 47.56 65.8701 33.52 64.2401C27.8064 63.5268 22.1325 62.5255 16.52 61.2401C12.8455 60.4301 9.25112 59.2922 5.77996 57.8401C4.93943 57.4742 4.13578 57.0288 3.37997 56.5101C3.20625 56.4123 3.0772 56.251 3.01997 56.0601C3.00284 55.9688 3.00786 55.8748 3.03463 55.7858C3.06141 55.6969 3.10913 55.6157 3.17381 55.5491C3.23848 55.4825 3.31823 55.4323 3.40631 55.4029C3.49439 55.3735 3.58824 55.3657 3.67997 55.3801C5.90187 56.274 8.17607 57.0321 10.49 57.6501C14.59 58.7201 18.75 59.5301 22.93 60.2301C39.84 62.9601 56.93 64.1201 74.08 64.8601C85.579 65.4312 97.1059 64.9995 108.53 63.5701C115.53 62.5701 122.42 61.5701 129.05 59.1201C130.33 58.6701 131.62 58.2101 132.85 57.6501C133.033 57.5865 133.233 57.5932 133.411 57.669C133.59 57.7449 133.733 57.8843 133.814 58.0603C133.896 58.2362 133.908 58.4361 133.85 58.6209C133.792 58.8057 133.667 58.9622 133.5 59.0601C132.261 59.6638 130.993 60.2044 129.7 60.6801C125.845 62.0683 121.862 63.0732 117.81 63.6801C103.959 66.1585 89.8973 67.2572 75.83 66.9601Z" fill="#818181"/>
<path d="M49.02 93.3998C41.76 93.1998 34.58 91.9598 27.43 90.7698C21.16 89.6298 14.85 88.6198 8.65998 87.0498C7.15998 86.6598 5.65998 86.2298 4.18998 85.7198C3.65603 85.5546 3.14779 85.3156 2.67998 85.0098C2.57539 84.9107 2.51218 84.7758 2.50304 84.632C2.4939 84.4883 2.53953 84.3464 2.63074 84.2349C2.72195 84.1235 2.85197 84.0506 2.99468 84.0311C3.13739 84.0116 3.2822 84.0469 3.39998 84.1298C5.27265 84.851 7.20282 85.413 9.16997 85.8098C14.45 87.0198 19.8 87.8098 25.17 88.7198C32.32 89.8798 39.48 91.0898 46.72 91.5398C54.44 92.0098 62.17 91.2698 69.87 90.7298C70.0689 90.7086 70.2681 90.7672 70.4237 90.8929C70.5794 91.0185 70.6788 91.2009 70.7 91.3998C70.7212 91.5987 70.6625 91.7979 70.5369 91.9535C70.4112 92.1092 70.2289 92.2086 70.03 92.2298C63.0582 93.0604 56.0409 93.4512 49.02 93.3998Z" fill="#818181"/>
<path d="M45.47 97.6001C38.5887 97.4843 31.7315 96.7547 24.98 95.4201C21.78 94.8001 18.81 94.1001 15.68 93.4201C12.0618 92.6369 8.48695 91.6656 4.96997 90.5101C4.14659 90.254 3.36749 89.8729 2.65997 89.3801C2.00997 88.7701 2.88996 87.9601 3.49996 88.6501C6.42912 89.7126 9.43877 90.5386 12.5 91.1201C23.87 93.6001 35.39 95.7501 47.07 95.6701C52.5036 95.6718 57.9327 95.358 63.33 94.7301C63.93 94.6701 64.52 94.5901 65.12 94.5001C65.359 94.4769 65.5975 94.549 65.7835 94.7009C65.9695 94.8528 66.0879 95.072 66.113 95.3108C66.138 95.5496 66.0677 95.7886 65.9173 95.9758C65.7669 96.163 65.5486 96.2831 65.31 96.3101C58.7401 97.2542 52.1068 97.6855 45.47 97.6001Z" fill="#818181"/>
<path d="M99.42 94.1099C95.69 93.9799 80.42 93.4499 78.73 90.7599C79.02 89.7599 80.16 90.5599 80.83 90.6699C83.1825 91.2358 85.5716 91.6367 87.98 91.8699C97.1549 92.9091 106.428 92.7106 115.55 91.2799C121.629 90.4612 127.643 89.2215 133.55 87.5699C135.826 86.8275 138.023 85.8628 140.11 84.6899C140.255 84.6127 140.423 84.5904 140.582 84.6272C140.742 84.6639 140.883 84.7572 140.98 84.8899C141.54 86.1299 139.36 86.4999 138.63 87.0999C133.1 89.9499 126.79 90.9399 120.75 92.0999C113.72 93.4468 106.578 94.1199 99.42 94.1099Z" fill="#818181"/>
<path d="M101.07 100.27C96.5789 100.124 92.1008 99.7064 87.66 99.0201C83.95 98.3901 80.13 97.8901 76.66 96.4801C76.5918 96.4628 76.5279 96.4314 76.4727 96.3877C76.4174 96.3441 76.372 96.2893 76.3394 96.2269C76.3068 96.1646 76.2877 96.096 76.2834 96.0257C76.2791 95.9555 76.2897 95.8851 76.3145 95.8192C76.3393 95.7533 76.3777 95.6934 76.4273 95.6434C76.4768 95.5934 76.5364 95.5544 76.602 95.529C76.6677 95.5036 76.738 95.4923 76.8083 95.496C76.8786 95.4996 76.9473 95.518 77.01 95.5501C78.7887 96.1577 80.6199 96.5996 82.48 96.8701C84.8 97.2501 87.13 97.6001 89.48 97.8701C98.8444 98.9089 108.303 98.761 117.63 97.4301C123.74 96.5201 129.91 95.5201 135.63 93.1401C137.78 92.2601 139.95 91.4101 142.09 90.4901C142.263 90.4421 142.447 90.4604 142.607 90.5414C142.767 90.6223 142.892 90.7601 142.955 90.9278C143.019 91.0954 143.018 91.2808 142.952 91.4477C142.887 91.6146 142.761 91.751 142.6 91.8301C138.16 93.8301 133.83 96.0701 129.09 97.2501C119.92 99.465 110.501 100.48 101.07 100.27Z" fill="#818181"/>
<path d="M45.29 129.4C38.5779 129.301 31.8799 128.756 25.24 127.77C18.76 126.77 12.13 125.48 6.30998 122.3C5.06538 121.717 3.99873 120.813 3.21997 119.68C3.18729 119.618 3.16858 119.55 3.16513 119.48C3.16169 119.41 3.1736 119.34 3.20003 119.275C3.22646 119.21 3.26677 119.152 3.31813 119.104C3.36949 119.057 3.43065 119.021 3.49733 118.999C3.56401 118.978 3.63459 118.971 3.7041 118.98C3.77362 118.988 3.84039 119.012 3.89972 119.05C3.95906 119.087 4.00951 119.137 4.04756 119.195C4.08561 119.254 4.11034 119.321 4.11998 119.39C9.11998 123.74 20.74 125.48 27.36 126.39C33.1504 127.115 38.9753 127.532 44.81 127.64C52.8796 127.511 60.9175 126.597 68.81 124.91C69.0017 124.884 69.1963 124.93 69.3559 125.04C69.5154 125.149 69.6286 125.314 69.6735 125.502C69.7184 125.69 69.6917 125.888 69.5986 126.058C69.5056 126.228 69.3528 126.357 69.17 126.42C64.9466 127.561 60.6293 128.321 56.27 128.69C52.63 129.05 48.96 129.38 45.29 129.4Z" fill="#818181"/>
<path d="M40.29 133.94C32.5363 133.737 24.81 132.934 17.18 131.54C14.9668 131.127 12.7823 130.572 10.64 129.88C9.15698 129.496 7.75481 128.849 6.50002 127.97C6.44379 127.914 6.40145 127.847 6.37646 127.772C6.35147 127.697 6.34454 127.617 6.35624 127.539C6.36794 127.461 6.39795 127.387 6.44379 127.323C6.48964 127.259 6.55004 127.206 6.62003 127.17C6.97003 126.96 7.29004 127.35 7.56003 127.48C10.9455 128.843 14.4852 129.787 18.1 130.29C22.37 130.97 26.72 131.47 31.01 131.81H30.91C37.325 132.351 43.7671 132.498 50.2 132.25C53.6184 131.963 57.013 131.442 60.36 130.69C62.44 130.26 64.53 129.84 66.57 129.26C66.7636 129.213 66.9677 129.246 67.1375 129.35C67.3072 129.454 67.4286 129.621 67.475 129.815C67.5214 130.008 67.489 130.213 67.385 130.382C67.2809 130.552 67.1136 130.673 66.92 130.72C62.6503 131.93 58.3083 132.868 53.92 133.53C49.3984 134.077 44.8364 134.215 40.29 133.94Z" fill="#818181"/>
<path d="M104.35 129.02C97.29 128.73 90.13 128.62 83.24 126.95C81.9869 126.629 80.7546 126.231 79.55 125.76C79.06 125.51 77.98 125.31 78.29 124.58C78.3263 124.516 78.3772 124.462 78.4384 124.421C78.4995 124.38 78.5694 124.355 78.6423 124.346C78.7153 124.337 78.7892 124.346 78.8582 124.371C78.9273 124.396 78.9895 124.436 79.04 124.49C79.9127 124.852 80.812 125.146 81.73 125.37C87.97 127 94.48 127.09 100.89 127.31C110.113 127.738 119.353 127.023 128.4 125.18C131.38 124.479 134.312 123.59 137.18 122.52C137.359 122.439 137.563 122.432 137.747 122.502C137.93 122.571 138.079 122.711 138.16 122.89C138.241 123.069 138.247 123.273 138.178 123.456C138.109 123.64 137.969 123.789 137.79 123.87C137.24 124.13 136.68 124.38 136.11 124.61C126.03 128.46 115.06 129.31 104.35 129.02Z" fill="#818181"/>
<path d="M105.89 135.15C99.0511 134.977 92.2288 134.392 85.46 133.4C82.7554 133.083 80.0802 132.551 77.46 131.81C77.04 131.67 76.61 131.52 76.18 131.4C76.0996 131.398 76.0206 131.378 75.9486 131.342C75.8766 131.306 75.8134 131.255 75.7634 131.191C75.7135 131.128 75.6779 131.055 75.6594 130.977C75.6408 130.898 75.6397 130.817 75.6561 130.738C75.6724 130.659 75.7059 130.585 75.7541 130.521C75.8022 130.456 75.864 130.403 75.9349 130.365C76.0059 130.327 76.0843 130.305 76.1647 130.301C76.245 130.296 76.3254 130.31 76.4 130.34C81.88 132.06 87.82 132.27 93.47 132.88C102.47 133.66 111.55 133.88 120.47 132.25C124.518 131.605 128.508 130.635 132.4 129.35C134.32 128.61 136.32 127.82 138.13 126.97C138.301 126.878 138.502 126.858 138.687 126.915C138.873 126.971 139.029 127.099 139.12 127.27C139.212 127.441 139.231 127.641 139.175 127.827C139.119 128.013 138.991 128.168 138.82 128.26C133.893 130.838 128.592 132.627 123.11 133.56C117.446 134.722 111.671 135.255 105.89 135.15Z" fill="#818181"/>
<path d="M102.08 160.99C94.8276 160.825 87.6049 160.005 80.5 158.54C79.5 158.25 77.55 158.08 76.98 157.14C76.9434 157.057 76.9267 156.967 76.9313 156.876C76.9358 156.786 76.9615 156.698 77.0062 156.619C77.0509 156.54 77.1134 156.473 77.1888 156.423C77.2641 156.373 77.3501 156.341 77.44 156.33C77.5472 156.323 77.6543 156.345 77.7507 156.392C77.8471 156.439 77.9296 156.511 77.99 156.6C78.7396 156.91 79.5261 157.121 80.33 157.23C88.5 158.45 96.78 159.39 105.04 158.97C113.3 158.55 121.41 156.22 129.29 153.8C131.35 153.15 133.43 152.54 135.48 151.8C135.587 151.76 135.701 151.741 135.815 151.745C135.929 151.749 136.042 151.776 136.146 151.823C136.25 151.87 136.343 151.938 136.421 152.021C136.499 152.105 136.56 152.203 136.6 152.31C136.64 152.417 136.659 152.531 136.655 152.645C136.651 152.759 136.624 152.871 136.577 152.975C136.53 153.079 136.462 153.173 136.379 153.251C136.295 153.329 136.197 153.39 136.09 153.43C135.28 153.76 134.46 154.08 133.63 154.43C123.46 157.89 112.91 160.97 102.08 160.99Z" fill="#818181"/>
<path d="M101.03 167.68C94.0405 167.46 87.0838 166.627 80.24 165.19C78.9929 164.917 77.7885 164.477 76.66 163.88C76.5818 163.852 76.5109 163.807 76.4527 163.748C76.3944 163.689 76.3502 163.618 76.3234 163.539C76.2967 163.461 76.288 163.377 76.2981 163.295C76.3082 163.212 76.3367 163.133 76.3817 163.064C76.4266 162.994 76.4867 162.935 76.5576 162.892C76.6284 162.849 76.708 162.822 76.7906 162.814C76.8731 162.806 76.9564 162.817 77.0343 162.846C77.1121 162.874 77.1824 162.92 77.24 162.98C77.52 163.11 77.8 163.22 78.09 163.34C80.3001 164.002 82.5662 164.461 84.86 164.71C95.5536 166.256 106.405 166.374 117.13 165.06C122.2 164.36 127.33 163.51 131.98 161.31C133.9 160.4 135.73 159.31 137.58 158.31C137.773 158.206 137.998 158.183 138.208 158.245C138.418 158.307 138.594 158.449 138.7 158.64C138.8 158.834 138.821 159.06 138.757 159.269C138.694 159.478 138.551 159.654 138.36 159.76C136.28 160.95 134.24 162.24 132.05 163.22C128.334 164.847 124.41 165.948 120.39 166.49C113.991 167.518 107.507 167.917 101.03 167.68Z" fill="#818181"/>
<path d="M92.02 192.96C87.0948 192.836 82.1804 192.435 77.3 191.76C77.2291 191.745 77.1618 191.716 77.1021 191.675C77.0424 191.634 76.9913 191.581 76.9519 191.521C76.9124 191.46 76.8853 191.392 76.8721 191.32C76.8589 191.249 76.8599 191.176 76.875 191.105C76.8901 191.034 76.919 190.967 76.9601 190.907C77.0012 190.847 77.0537 190.796 77.1145 190.757C77.1753 190.717 77.2433 190.69 77.3146 190.677C77.3859 190.664 77.4591 190.665 77.53 190.68C79.73 190.99 81.91 191 84.11 191.15C87.72 191.34 91.34 191.48 94.96 191.39C101.649 191.212 108.313 190.507 114.89 189.28C120.53 188.28 126.25 187.28 131.65 185.28C132.956 184.837 134.232 184.309 135.47 183.7C135.683 183.609 135.923 183.6 136.142 183.677C136.361 183.753 136.544 183.909 136.654 184.113C136.765 184.317 136.795 184.555 136.738 184.781C136.682 185.006 136.543 185.202 136.35 185.33C131.1 188.12 125.22 189.33 119.43 190.38C110.408 192.192 101.222 193.057 92.02 192.96Z" fill="#818181"/>
<path d="M98.31 198.1C92.419 197.881 86.5559 197.179 80.78 196C79.66 195.75 78.54 195.46 77.42 195.2C77.2802 195.2 77.1458 195.146 77.045 195.049C76.9443 194.952 76.8852 194.82 76.88 194.68C76.8829 194.606 76.9017 194.534 76.9353 194.468C76.9688 194.402 77.0162 194.345 77.0742 194.299C77.1322 194.253 77.1994 194.221 77.2712 194.204C77.343 194.187 77.4176 194.185 77.49 194.2C78.96 194.52 80.43 194.8 81.91 195.03C89.396 196.242 96.9794 196.747 104.56 196.54C110.783 196.233 116.952 195.227 122.95 193.54C126.1 192.72 129.26 191.96 132.36 190.99C132.538 190.939 132.729 190.958 132.895 191.041C133.06 191.125 133.189 191.267 133.254 191.441C133.319 191.615 133.317 191.806 133.248 191.978C133.179 192.15 133.047 192.29 132.88 192.37C131.44 192.85 129.98 193.3 128.52 193.73C123.597 195.22 118.588 196.408 113.52 197.29C108.489 198.06 103.394 198.331 98.31 198.1Z" fill="#818181"/>
<path d="M112.14 225.87C107.711 225.684 103.304 225.145 98.96 224.26C94.13 223.32 89.32 222.43 84.77 220.59C83.936 220.24 83.1245 219.84 82.34 219.39C81.99 219.16 81.45 218.96 81.45 218.48C81.4532 218.379 81.4825 218.281 81.5351 218.195C81.5877 218.109 81.6618 218.038 81.75 217.99C82.05 217.82 82.32 217.99 82.57 218.16C83.03 218.39 83.5 218.6 83.97 218.81C85.2703 219.347 86.6069 219.792 87.97 220.14C92.222 221.192 96.5241 222.029 100.86 222.65C105.834 223.526 110.881 223.914 115.93 223.81C120.56 223.75 125.02 222.41 129.43 221.11C130.33 220.83 131.23 220.54 132.11 220.22C132.307 220.156 132.521 220.171 132.708 220.26C132.895 220.349 133.04 220.507 133.115 220.7C133.189 220.894 133.186 221.108 133.107 221.3C133.028 221.491 132.879 221.645 132.69 221.73C131.86 222.07 131.03 222.39 130.19 222.73C126.86 223.926 123.439 224.852 119.96 225.5C117.37 225.858 114.753 225.982 112.14 225.87Z" fill="#818181"/>
<path d="M114.16 230.63C108.32 230.63 102.49 230.4 96.66 230.02C93.552 229.884 90.461 229.486 87.42 228.83C86.72 228.61 83 227.83 84.1 226.83C84.1715 226.789 84.2525 226.767 84.335 226.767C84.4175 226.767 84.4986 226.789 84.57 226.83C85.9495 227.479 87.4256 227.897 88.94 228.07C96.01 229.07 103.18 228.94 110.3 229.07C113.558 229.169 116.818 229.052 120.06 228.72C123.184 228.256 126.253 227.475 129.22 226.39C130.22 226.04 131.22 225.69 132.14 225.3C132.326 225.231 132.532 225.236 132.715 225.312C132.899 225.388 133.047 225.53 133.13 225.71C133.213 225.891 133.226 226.096 133.164 226.285C133.103 226.474 132.973 226.633 132.8 226.73C131.96 227.12 131.11 227.49 130.24 227.81C125.108 229.765 119.651 230.722 114.16 230.63Z" fill="#818181"/>
<path d="M105.11 257.12C102.36 257.06 99.67 256.82 96.96 256.53C93.56 256.11 90.11 255.95 86.76 255.27C86.6925 255.264 86.6273 255.242 86.5687 255.208C86.5101 255.174 86.4596 255.128 86.4206 255.072C86.3817 255.017 86.3552 254.954 86.343 254.887C86.3308 254.82 86.3332 254.752 86.35 254.686C86.3667 254.62 86.3976 254.559 86.4403 254.506C86.483 254.454 86.5366 254.411 86.5974 254.381C86.6582 254.351 86.7247 254.334 86.7925 254.332C86.8603 254.331 86.9277 254.343 86.99 254.37C88.73 254.58 90.49 254.62 92.24 254.75C96.56 255 100.86 255.47 105.19 255.46C114.29 255.46 121.3 252.09 129.04 247.81C129.86 247.37 130.65 246.88 131.48 246.46C131.678 246.364 131.904 246.343 132.115 246.404C132.327 246.464 132.508 246.601 132.625 246.787C132.742 246.973 132.786 247.196 132.748 247.413C132.71 247.63 132.593 247.824 132.42 247.96C129.833 249.576 127.163 251.055 124.42 252.39C118.472 255.535 111.838 257.16 105.11 257.12Z" fill="#818181"/>
<path d="M102.57 261.67C99.1058 261.519 95.6551 261.141 92.24 260.54C90.95 260.28 89.66 259.98 88.36 259.74C87.9729 259.693 87.5912 259.61 87.22 259.49C87.1324 259.43 87.0637 259.347 87.0217 259.249C86.9798 259.152 86.9665 259.044 86.9832 258.939C87 258.835 87.0462 258.737 87.1164 258.657C87.1867 258.578 87.2781 258.52 87.3801 258.49C88.9321 258.577 90.476 258.774 92 259.08C94.29 259.44 96.6 259.66 98.91 259.82C102.31 260.117 105.731 260.063 109.12 259.66C111.978 259.374 114.803 258.825 117.56 258.02C120.747 256.928 123.826 255.546 126.76 253.89C128.07 253.16 129.38 252.42 130.66 251.64C130.846 251.54 131.063 251.511 131.269 251.559C131.475 251.607 131.657 251.728 131.78 251.9C131.915 252.088 131.97 252.321 131.935 252.549C131.899 252.777 131.775 252.982 131.59 253.12C130.15 254.12 128.71 255.02 127.22 255.88C124.264 257.592 121.128 258.973 117.87 260C112.881 261.314 107.725 261.877 102.57 261.67Z" fill="#818181"/>
<path d="M107.24 286.62C102.29 286.62 96.44 285.62 92.24 282.96C92.1604 282.868 92.1162 282.751 92.1154 282.629C92.1146 282.508 92.1573 282.39 92.2357 282.297C92.3141 282.204 92.4231 282.142 92.5431 282.123C92.6631 282.103 92.7861 282.127 92.89 282.19C96.2133 283.822 99.8253 284.783 103.52 285.02C111.714 285.567 119.899 283.837 127.17 280.02C128.713 279.179 130.202 278.244 131.63 277.22C131.8 277.096 132.009 277.038 132.219 277.056C132.428 277.074 132.624 277.168 132.77 277.32C133.53 278.2 132.32 278.95 131.67 279.42C130.67 280.09 129.67 280.69 128.67 281.3C122.24 285.05 114.63 286.54 107.24 286.62Z" fill="#818181"/>
<path d="M107.09 283.12C103.383 283.007 99.6978 282.518 96.09 281.66C93.9697 281.115 91.8829 280.447 89.84 279.66C89.1718 279.42 88.5259 279.123 87.91 278.77C87.8534 278.737 87.8046 278.692 87.7668 278.638C87.729 278.585 87.7031 278.524 87.6907 278.459C87.6784 278.395 87.68 278.329 87.6954 278.265C87.7108 278.201 87.7397 278.141 87.78 278.09C87.8222 278.038 87.8755 277.996 87.9361 277.967C87.9966 277.938 88.0629 277.923 88.13 277.923C88.1971 277.923 88.2634 277.938 88.3239 277.967C88.3845 277.996 88.4378 278.038 88.48 278.09L88.42 278.03C90.9972 279.112 93.6776 279.929 96.42 280.47C101.806 281.563 107.329 281.806 112.79 281.19C117.685 280.816 122.475 279.58 126.94 277.54C128.53 276.82 130.07 275.99 131.67 275.31L133.42 274.61C133.618 274.538 133.836 274.538 134.033 274.612C134.231 274.685 134.397 274.826 134.5 275.01C134.607 275.213 134.631 275.451 134.566 275.671C134.5 275.892 134.351 276.078 134.15 276.19C133.39 276.56 132.65 276.98 131.92 277.4C129.796 278.554 127.602 279.572 125.35 280.45C119.55 282.66 113.24 283.16 107.09 283.12Z" fill="#818181"/>
<path d="M102.77 313.2C100.806 313.209 98.8489 312.981 96.94 312.52H97.02C92.58 311.59 94.86 309.43 95.45 310.75C96.5948 311.229 97.8116 311.513 99.05 311.59C101.907 311.828 104.782 311.741 107.62 311.33C114.2 310.8 120.649 309.196 126.71 306.58C127.38 306.42 128.3 305.73 128.78 306.58C128.829 306.67 128.861 306.769 128.872 306.871C128.883 306.973 128.874 307.076 128.845 307.174C128.816 307.273 128.768 307.365 128.704 307.444C128.64 307.524 128.56 307.591 128.47 307.64C126.641 308.658 124.706 309.473 122.7 310.07C120.513 310.804 118.278 311.386 116.01 311.81C111.642 312.632 107.214 313.097 102.77 313.2Z" fill="#818181"/>
<path d="M107.35 318.06C104.908 318.042 102.48 317.679 100.14 316.98C98.3461 316.482 96.6298 315.739 95.04 314.77C94.9864 314.689 94.9585 314.594 94.9602 314.497C94.9618 314.4 94.9928 314.305 95.0491 314.226C95.1055 314.147 95.1845 314.087 95.2757 314.054C95.3669 314.02 95.466 314.016 95.56 314.04C98.2693 315.088 101.103 315.78 103.99 316.1C108.114 316.325 112.247 315.903 116.24 314.85C120.803 313.858 125.188 312.171 129.24 309.85C129.941 309.405 130.609 308.91 131.24 308.37C131.344 308.283 131.465 308.217 131.595 308.176C131.725 308.135 131.861 308.12 131.997 308.133C132.133 308.145 132.264 308.183 132.385 308.246C132.506 308.309 132.613 308.395 132.7 308.5C132.787 308.604 132.853 308.725 132.894 308.855C132.935 308.985 132.949 309.121 132.937 309.257C132.925 309.392 132.887 309.524 132.824 309.645C132.761 309.766 132.674 309.873 132.57 309.96C131.324 311.097 129.919 312.047 128.4 312.78C124.615 314.749 120.577 316.19 116.4 317.06C113.432 317.744 110.395 318.079 107.35 318.06Z" fill="#818181"/>
<path d="M43.85 159.93C38.5394 159.81 33.2579 159.109 28.1 157.84C22.7759 156.63 17.5458 155.04 12.45 153.08C11.45 152.69 10.45 152.29 9.44999 151.85C8.5628 151.529 7.75709 151.017 7.08998 150.35C6.79998 150.03 6.88997 149.44 7.41997 149.49C7.49954 149.49 7.5775 149.512 7.64478 149.555C7.71205 149.597 7.76588 149.658 7.79998 149.73C8.0697 149.935 8.35755 150.116 8.65998 150.27C10.58 151.17 12.6 151.83 14.58 152.54C22.3312 155.215 30.3525 157.033 38.5 157.96C43.6585 158.407 48.8528 158.202 53.96 157.35C57.39 156.67 60.79 155.85 64.18 155.01C64.7 154.88 65.18 154.76 65.72 154.61C65.89 154.54 66.07 154.48 66.24 154.4C66.445 154.33 66.6685 154.339 66.8671 154.426C67.0656 154.512 67.2247 154.669 67.3135 154.867C67.4022 155.064 67.4141 155.288 67.3469 155.494C67.2797 155.699 67.1382 155.873 66.95 155.98C65.5436 156.555 64.0875 157 62.6 157.31C61.18 157.65 59.76 157.99 58.33 158.31C53.5857 159.428 48.7241 159.972 43.85 159.93Z" fill="#818181"/>
<path d="M49.46 163.38C37.46 162.71 25.18 161.73 13.83 157.38C12.54 156.83 6.37999 154.58 6.61999 153.14C6.63245 153.032 6.68044 152.931 6.7564 152.853C6.83236 152.776 6.93199 152.726 7.03962 152.711C7.14725 152.696 7.25678 152.717 7.35097 152.771C7.44517 152.825 7.5187 152.909 7.55999 153.01L7.90998 153.27C11.09 154.936 14.4435 156.247 17.91 157.18C27.69 160.01 37.91 160.75 48.04 161.29C51.0366 161.492 54.0434 161.492 57.04 161.29C60.8114 160.904 64.5486 160.235 68.22 159.29C68.4428 159.237 68.6775 159.274 68.8725 159.394C69.0676 159.514 69.2069 159.707 69.26 159.93C69.313 160.153 69.2754 160.387 69.1554 160.582C69.0354 160.777 68.8428 160.917 68.62 160.97C65.4993 161.959 62.2966 162.669 59.05 163.09C55.8698 163.491 52.6586 163.588 49.46 163.38Z" fill="#818181"/>
<path d="M43.14 188.7C39.1594 188.465 35.2056 187.896 31.32 187H31.39L29.39 186.56C24.8857 185.607 20.436 184.412 16.06 182.98C13.4016 182.088 10.86 180.879 8.49001 179.38C8.44536 179.328 8.41136 179.268 8.38996 179.203C8.36856 179.138 8.36018 179.07 8.36528 179.001C8.37039 178.933 8.38889 178.866 8.41973 178.805C8.45056 178.744 8.49313 178.69 8.545 178.645C8.59687 178.601 8.65704 178.567 8.72205 178.545C8.78706 178.524 8.85564 178.515 8.92389 178.52C8.99214 178.526 9.05873 178.544 9.11983 178.575C9.18093 178.606 9.23535 178.648 9.28 178.7C14.28 181.54 19.94 182.8 25.5 184.01C40.5 187.25 46.98 187.89 62.06 184.1L63.8 183.77C64.0254 183.717 64.2627 183.756 64.4596 183.878C64.6565 184 64.797 184.195 64.85 184.42C64.903 184.646 64.8644 184.883 64.7425 185.08C64.6206 185.277 64.4254 185.417 64.2 185.47C57.35 187.54 50.24 188.98 43.14 188.7Z" fill="#818181"/>
<path d="M53.95 192.96C46.5449 192.868 39.1546 192.273 31.83 191.18C27.5 190.46 23.21 189.46 18.94 188.45C16.0368 187.875 13.1793 187.089 10.39 186.1C10.2381 186.036 10.1115 185.923 10.03 185.78C9.99426 185.711 9.97939 185.633 9.98719 185.556C9.99498 185.478 10.0251 185.405 10.0739 185.345C10.1227 185.284 10.188 185.239 10.2619 185.215C10.3358 185.191 10.415 185.189 10.49 185.21C14.6 186.42 18.86 187.06 23.04 187.99C29.4176 189.36 35.8892 190.249 42.4 190.65C48.71 191 55.06 191.47 61.35 190.79C63.11 190.6 64.86 190.37 66.61 190.14C66.8192 190.141 67.0207 190.218 67.1761 190.359C67.3314 190.499 67.4296 190.691 67.4519 190.899C67.4742 191.107 67.419 191.316 67.2969 191.486C67.1747 191.656 66.9943 191.775 66.79 191.82C62.5582 192.623 58.2571 193.005 53.95 192.96Z" fill="#818181"/>
<path d="M46.42 212.37C36.93 212.22 27.54 210.62 18.15 209.37C16.0171 209.13 13.9113 208.691 11.86 208.06C11.7916 208.017 11.7364 207.955 11.7005 207.883C11.6646 207.81 11.6494 207.729 11.6567 207.648C11.6639 207.568 11.6933 207.491 11.7415 207.426C11.7897 207.361 11.855 207.31 11.93 207.28C12.282 207.242 12.6379 207.269 12.98 207.36C14.19 207.56 15.4 207.71 16.62 207.86C26.06 208.73 35.46 210.12 44.94 210.36C49.8582 210.454 54.7763 210.166 59.65 209.5L62.76 209.16C63.0027 209.133 63.246 209.204 63.4363 209.357C63.6267 209.51 63.7485 209.732 63.775 209.975C63.8016 210.217 63.7306 210.461 63.5777 210.651C63.4249 210.841 63.2027 210.963 62.96 210.99C57.503 211.974 51.9647 212.436 46.42 212.37Z" fill="#818181"/>
<path d="M48.77 218.01C43.01 217.92 37.29 217.24 31.56 216.74C26 216.24 20.38 215.74 14.99 214.24C13.59 213.74 11.9 213.45 10.93 212.24C10.9005 212.186 10.8819 212.126 10.8755 212.064C10.869 212.002 10.8748 211.94 10.8924 211.881C10.9101 211.821 10.9393 211.766 10.9783 211.718C11.0174 211.67 11.0655 211.63 11.12 211.6C11.1745 211.57 11.2343 211.552 11.2959 211.546C11.3576 211.539 11.4199 211.545 11.4793 211.562C11.5388 211.58 11.5942 211.609 11.6423 211.648C11.6905 211.687 11.7305 211.736 11.76 211.79C12.8443 212.469 14.0499 212.931 15.31 213.15C22.16 214.79 29.23 214.9 36.22 215.44C40.91 215.79 45.6 216.15 50.3 216.06C53.75 215.99 57.1 215.87 60.52 215.64C60.7852 215.612 61.0506 215.691 61.2579 215.859C61.4651 216.027 61.5972 216.27 61.625 216.535C61.6529 216.8 61.5742 217.066 61.4063 217.273C61.2385 217.48 60.9952 217.612 60.73 217.64C56.75 217.92 52.7633 218.043 48.77 218.01Z" fill="#818181"/>
<path d="M43.8 237.94C36.5231 237.846 29.2686 237.114 22.12 235.75C18.6984 235.186 15.3463 234.261 12.12 232.99C11.63 232.75 10.73 232.24 11.27 231.63C11.3287 231.576 11.398 231.536 11.4734 231.511C11.5488 231.486 11.6286 231.476 11.7077 231.484C11.7868 231.492 11.8634 231.516 11.9327 231.554C12.002 231.593 12.0624 231.646 12.11 231.71C12.2209 231.786 12.338 231.853 12.46 231.91C13.4064 232.326 14.3866 232.661 15.39 232.91C21.5166 234.381 27.7546 235.341 34.04 235.78C38.4907 236.14 42.9601 236.21 47.42 235.99C51.5665 235.631 55.6897 235.04 59.77 234.22C60.0069 234.202 60.2423 234.269 60.4342 234.409C60.6261 234.549 60.7618 234.753 60.8172 234.984C60.8725 235.215 60.8438 235.458 60.7362 235.67C60.6286 235.882 60.4492 236.048 60.23 236.14C54.8294 237.301 49.3238 237.904 43.8 237.94Z" fill="#818181"/>
<path d="M42 244.54C37.3887 244.36 32.793 243.893 28.24 243.14C24.433 242.593 20.6794 241.723 17.02 240.54C15.4008 240.091 13.8525 239.418 12.42 238.54C12.351 238.482 12.2992 238.407 12.2702 238.321C12.2413 238.236 12.2364 238.145 12.256 238.057C12.2756 237.969 12.319 237.888 12.3815 237.824C12.4439 237.759 12.523 237.713 12.61 237.69C12.87 237.62 13.12 237.82 13.34 237.94C13.5283 238.043 13.7219 238.137 13.92 238.22C15.2574 238.786 16.6344 239.254 18.04 239.62C23.9325 241.154 29.9614 242.105 36.04 242.46C41.2 242.79 46.48 243.01 51.52 241.67C53.82 241.05 56.1 240.37 58.37 239.67C58.5915 239.586 58.837 239.594 59.0527 239.692C59.2683 239.789 59.4365 239.968 59.52 240.19C59.6035 240.411 59.5957 240.657 59.4982 240.872C59.4007 241.088 59.2215 241.256 59 241.34C55.966 242.591 52.8086 243.52 49.58 244.11C47.0725 244.492 44.5346 244.636 42 244.54Z" fill="#818181"/>
<path d="M43.24 263.74C40.93 263.65 38.56 263.45 36.24 263.25C30.63 262.73 24.96 262.71 19.41 261.67C18.04 261.31 14.83 260.89 14.18 259.67C14.1424 259.557 14.1467 259.434 14.192 259.323C14.2373 259.213 14.3206 259.122 14.427 259.068C14.5333 259.013 14.6556 258.999 14.7717 259.027C14.8878 259.055 14.9901 259.123 15.06 259.22C15.1055 259.281 15.1594 259.335 15.22 259.38C17.3993 260.247 19.7001 260.77 22.04 260.93C25.57 261.33 29.12 261.39 32.67 261.53C37.04 261.67 41.41 262.14 45.79 261.97C47.79 261.85 49.79 261.62 51.79 261.34C51.8819 261.305 51.9799 261.288 52.0784 261.29C52.1769 261.292 52.274 261.314 52.3641 261.354C52.4541 261.394 52.5355 261.451 52.6034 261.523C52.6713 261.594 52.7245 261.678 52.76 261.77C52.7954 261.862 52.8125 261.96 52.81 262.058C52.8076 262.157 52.7858 262.254 52.7459 262.344C52.706 262.434 52.6487 262.515 52.5773 262.583C52.506 262.651 52.4219 262.705 52.33 262.74C49.3778 263.582 46.3047 263.92 43.24 263.74Z" fill="#818181"/>
<path d="M37.72 268.74C33.6421 268.681 29.5714 268.377 25.53 267.83C21.53 267.26 17.53 266.57 13.98 264.58C13.8953 264.574 13.8131 264.549 13.7396 264.507C13.6662 264.464 13.6037 264.405 13.5568 264.335C13.51 264.264 13.4801 264.183 13.4696 264.099C13.4591 264.015 13.4682 263.929 13.4963 263.849C13.5243 263.769 13.5705 263.697 13.6312 263.637C13.6919 263.578 13.7655 263.534 13.8463 263.508C13.927 263.482 14.0127 263.474 14.0966 263.487C14.1805 263.5 14.2604 263.531 14.33 263.58C14.76 263.79 15.17 264.04 15.62 264.23C17.8773 265.163 20.2477 265.795 22.67 266.11C29.4697 267.172 36.3721 267.417 43.23 266.84C45.9218 266.54 48.5932 266.079 51.23 265.46C53.32 265.03 55.32 264.24 57.42 263.89C57.6036 263.866 57.7897 263.91 57.9424 264.015C58.0952 264.12 58.2037 264.277 58.2472 264.457C58.2907 264.637 58.266 264.827 58.1779 264.99C58.0897 265.153 57.9445 265.278 57.77 265.34C51.3463 267.714 44.5374 268.874 37.69 268.76L37.72 268.74Z" fill="#818181"/>
<path d="M37.24 288.38C30.81 287.93 19.37 287.54 14.24 283.79C13.77 283.49 13.24 282.56 14.06 282.37C14.1734 282.361 14.2866 282.389 14.3823 282.45C14.478 282.512 14.551 282.603 14.59 282.71C14.6219 282.754 14.6588 282.794 14.7 282.83C20.4 287.27 43.39 287.33 50.97 286.4C51.1662 286.367 51.3676 286.413 51.5298 286.528C51.6921 286.644 51.8018 286.819 51.835 287.015C51.8681 287.211 51.822 287.413 51.7066 287.575C51.5913 287.737 51.4162 287.847 51.22 287.88C49.4011 288.18 47.5631 288.351 45.72 288.39C42.84 288.54 40.03 288.54 37.24 288.38Z" fill="#818181"/>
<path d="M34.9 291.42C30.3637 291.365 25.847 290.815 21.43 289.78C18.77 289.08 16.1 288.37 13.49 287.48C12.83 287.12 13.38 286.24 14.04 286.63C16.56 287.39 19.12 288.05 21.68 288.63C27.9264 289.927 34.3375 290.238 40.68 289.55C44.4676 289.306 48.215 288.632 51.85 287.54C52.0531 287.472 52.2744 287.486 52.4677 287.578C52.6611 287.669 52.8116 287.832 52.8877 288.032C52.9638 288.232 52.9598 288.454 52.8763 288.651C52.7929 288.848 52.6366 289.005 52.44 289.09C51.0595 289.619 49.6336 290.02 48.18 290.29C43.7977 291.076 39.3521 291.454 34.9 291.42Z" fill="#818181"/>
<path d="M41.11 315.36C34.5227 315.202 27.9855 314.169 21.67 312.29C18.897 311.413 16.2612 310.151 13.84 308.54C13.59 308.32 13.27 308.12 13.16 307.79C13.1455 307.726 13.1446 307.66 13.1573 307.595C13.17 307.531 13.196 307.47 13.2337 307.416C13.2714 307.363 13.3199 307.317 13.3761 307.284C13.4323 307.25 13.4949 307.228 13.56 307.22C13.6428 307.214 13.7256 307.229 13.8008 307.264C13.876 307.299 13.9411 307.353 13.99 307.42C14.1497 307.576 14.3238 307.717 14.51 307.84C19.97 311.21 26.41 312.33 32.68 313.12C36.96 313.538 41.2603 313.712 45.56 313.64C45.6993 313.647 45.8334 313.695 45.9462 313.777C46.059 313.859 46.1456 313.972 46.1953 314.102C46.2451 314.232 46.256 314.374 46.2266 314.51C46.1973 314.647 46.129 314.772 46.03 314.87C45.8612 315.015 45.6418 315.087 45.42 315.07C43.98 315.18 42.55 315.39 41.11 315.36Z" fill="#818181"/>
<path d="M41.52 323.65C34.8988 323 28.4166 321.337 22.3 318.72C19.45 317.47 16.72 315.94 13.94 314.57H13.99C13.8826 314.529 13.7919 314.453 13.7321 314.355C13.6722 314.257 13.6466 314.142 13.6591 314.027C13.6717 313.913 13.7218 313.806 13.8015 313.723C13.8813 313.641 13.9863 313.587 14.1 313.57C14.4975 313.671 14.8806 313.822 15.24 314.02L18.58 315.62C21.2442 316.926 24.0018 318.032 26.83 318.93C29.9623 319.939 33.1687 320.701 36.42 321.21C39.6693 321.747 42.949 322.081 46.24 322.21C46.3503 322.212 46.459 322.237 46.56 322.281C46.6609 322.326 46.752 322.39 46.8282 322.47C46.9043 322.55 46.964 322.644 47.0037 322.747C47.0435 322.85 47.0626 322.96 47.06 323.07C47.06 323.72 46.4 323.96 45.83 323.88C44.39 323.84 42.95 323.78 41.52 323.65Z" fill="#818181"/>
<path d="M73.5 73.6602C73.2728 73.6524 73.0576 73.5559 72.9006 73.3914C72.7436 73.2269 72.6573 73.0076 72.66 72.7802C72.66 72.0502 72.66 71.3202 72.71 70.6002C72.78 68.4902 72.79 66.3702 72.92 64.2602C72.97 63.7202 72.92 62.3902 73.78 62.8702C74.01 63.0502 74 63.3902 74.02 63.6602C74.1 64.6602 74.14 65.7902 74.18 66.7602C74.24 68.2502 74.3 69.7602 74.35 71.2402C74.32 72.0702 74.75 73.6002 73.5 73.6602Z" fill="#818181"/>
<path d="M79.29 71.54C73.17 71.41 67.07 70.73 60.98 70.22C52.11 69.5 43.23 68.9 34.41 67.72C28.4104 67.0465 22.4564 66.0146 16.58 64.63C12.2029 63.6657 7.90934 62.3549 3.74001 60.71C3.34238 60.5664 2.93458 60.4527 2.52 60.37C2.44515 60.37 2.37104 60.3552 2.30188 60.3266C2.23272 60.2979 2.16989 60.256 2.11696 60.203C2.06403 60.1501 2.02204 60.0873 1.99339 60.0181C1.96475 59.949 1.95001 59.8748 1.95001 59.8C1.95001 59.7251 1.96475 59.651 1.99339 59.5818C2.02204 59.5127 2.06403 59.4499 2.11696 59.3969C2.16989 59.344 2.23272 59.302 2.30188 59.2734C2.37104 59.2447 2.44515 59.23 2.52 59.23C3.68925 59.44 4.8325 59.7753 5.93001 60.23C7.37001 60.76 8.81 61.23 10.28 61.67C16.1933 63.3322 22.2051 64.6214 28.28 65.53C39.72 67.22 51.28 68.19 62.78 69.13C67.01 69.5 71.22 69.95 75.46 70.13C85.1752 70.647 94.9143 70.5033 104.61 69.7C109.351 69.1274 114.057 68.3029 118.71 67.23C124.54 65.9964 130.222 64.146 135.66 61.71C136.61 61.29 137.58 60.92 138.52 60.5C139.02 60.2 139.75 59.96 140.1 60.61C140.2 60.8027 140.22 61.0268 140.156 61.2343C140.093 61.4418 139.951 61.6161 139.76 61.72C130.76 66.97 120.3 68.87 110.11 70.35C99.92 71.83 89.58 71.8 79.29 71.54Z" fill="#818181"/>
<path d="M83.24 178.54C83.17 177.76 82.82 176.12 84.05 176.19C84.89 176.39 84.86 177.55 85.05 178.19C85.063 178.415 84.994 178.637 84.8557 178.815C84.7174 178.993 84.5193 179.114 84.2981 179.157C84.0769 179.2 83.8478 179.161 83.6532 179.047C83.4586 178.934 83.3118 178.754 83.24 178.54Z" fill="#818181"/>
<path d="M86.69 173.61C86.52 172.2 88.14 171.97 88.18 173.45C88.42 174.54 86.67 174.71 86.69 173.61Z" fill="#818181"/>
<path d="M85.45 186.25C85.02 184.75 86.86 183.8 87.25 185.5C88.04 187.09 85.7 188.1 85.45 186.25Z" fill="#818181"/>
<path d="M63.86 110.82C61.71 110.82 63.57 103.17 65.43 105.29C65.94 106.72 65.31 108.35 65.21 109.83C65.1583 110.138 64.9883 110.414 64.7362 110.599C64.484 110.784 64.1697 110.863 63.86 110.82Z" fill="#818181"/>
<path d="M63.04 119.95C61.74 119.95 61.75 117.95 62.97 117.75C64.35 117.64 64.49 119.99 63.04 119.95Z" fill="#818181"/>
<path d="M23.24 226.63C22.74 225.21 24.86 224.74 24.82 226.25C25.06 227.35 23.42 227.81 23.24 226.63Z" fill="#818181"/>
<path d="M94.24 246.84C94.24 245.79 93.24 244.04 94.81 243.75C94.9803 243.721 95.1553 243.736 95.3181 243.794C95.4808 243.852 95.6256 243.952 95.7384 244.083C95.8512 244.214 95.9282 244.372 95.9618 244.541C95.9953 244.711 95.9844 244.886 95.93 245.05C95.93 245.77 96.39 246.55 96.05 247.24C95.9372 247.404 95.778 247.531 95.5927 247.604C95.4075 247.677 95.2046 247.693 95.0102 247.65C94.8158 247.607 94.6386 247.507 94.5014 247.363C94.3642 247.218 94.2732 247.036 94.24 246.84Z" fill="#818181"/>
<path d="M30.62 78.9199C30.68 77.9999 30.34 76.6699 31.16 76.0299C32.97 75.4799 32.11 77.8699 32.29 78.8499C32.2777 79.0577 32.1888 79.2535 32.0403 79.3994C31.8919 79.5453 31.6946 79.6309 31.4866 79.6397C31.2787 79.6484 31.0749 79.5796 30.9148 79.4466C30.7546 79.3136 30.6496 79.1259 30.62 78.9199Z" fill="#D4D4D4"/>
<path d="M30.54 106.8C29.09 106.8 29.41 103.47 30.87 103.85C31.87 104.08 31.78 106.94 30.54 106.8Z" fill="#D4D4D4"/>
<path d="M31.39 116.43C31.394 116.256 31.4495 116.087 31.5495 115.945C31.6495 115.802 31.7894 115.693 31.9517 115.63C32.114 115.567 32.2912 115.554 32.4611 115.591C32.631 115.629 32.7858 115.717 32.906 115.842C33.0262 115.968 33.1065 116.127 33.1365 116.298C33.1666 116.47 33.1452 116.646 33.075 116.805C33.0048 116.965 32.8889 117.099 32.7421 117.193C32.5953 117.286 32.424 117.334 32.25 117.33C32.0175 117.322 31.7973 117.224 31.6365 117.055C31.4758 116.887 31.3873 116.663 31.39 116.43Z" fill="#D4D4D4"/>
<path d="M97.47 82.9798C95.85 82.9798 96.39 79.5198 97.96 80.1398C98.9 80.6098 98.74 83.0598 97.47 82.9798Z" fill="#D4D4D4"/>
<path d="M100.05 77.5402C100.14 76.5402 99.32 74.5402 100.65 74.1602C102.13 74.2302 101.37 76.3802 101.73 77.3702C101.753 77.5929 101.686 77.8156 101.544 77.989C101.403 78.1625 101.198 78.2726 100.975 78.2952C100.752 78.3177 100.53 78.2508 100.356 78.1092C100.183 77.9676 100.073 77.7629 100.05 77.5402Z" fill="#D4D4D4"/>
<path d="M26.61 170.54C25.22 170.25 26.09 168.19 25.91 167.17C25.9152 166.954 26.0053 166.749 26.1607 166.6C26.3161 166.45 26.5242 166.367 26.74 166.37C26.8765 166.378 27.0091 166.419 27.1271 166.488C27.2451 166.557 27.3451 166.653 27.4191 166.768C27.4932 166.882 27.5391 167.013 27.5531 167.149C27.5672 167.285 27.549 167.423 27.5 167.55C27.24 168.48 27.97 170.38 26.61 170.54Z" fill="#D4D4D4"/>
<path d="M106.01 240.81C105.76 240.09 105.76 239.07 106.73 238.96C107.7 238.85 107.86 239.78 107.92 240.49C107.901 240.711 107.809 240.919 107.658 241.082C107.508 241.245 107.308 241.353 107.089 241.39C106.87 241.427 106.646 241.39 106.45 241.285C106.255 241.18 106.1 241.013 106.01 240.81Z" fill="#D4D4D4"/>
<path d="M33.15 276.54C33.15 275.73 32.68 274.22 33.91 274.17C35.14 274.12 34.66 275.6 34.83 276.36C34.8292 276.569 34.7513 276.771 34.6112 276.926C34.4711 277.082 34.2786 277.18 34.0706 277.202C33.8626 277.224 33.6537 277.169 33.4838 277.047C33.314 276.925 33.1951 276.744 33.15 276.54Z" fill="#D4D4D4"/>
<path d="M35.66 274.35C35.6641 274.136 35.7316 273.928 35.854 273.753C35.9764 273.577 36.1483 273.442 36.3476 273.364C36.547 273.287 36.765 273.27 36.9739 273.316C37.1828 273.363 37.3733 273.47 37.521 273.625C37.6688 273.78 37.7673 273.975 37.8039 274.186C37.8405 274.397 37.8137 274.614 37.7268 274.809C37.6399 275.005 37.4968 275.17 37.3158 275.284C37.1348 275.398 36.9239 275.456 36.71 275.45C36.4262 275.44 36.1576 275.319 35.9615 275.113C35.7654 274.908 35.6572 274.634 35.66 274.35Z" fill="#D4D4D4"/>
<path d="M36.16 282.36C36.164 282.202 36.2148 282.048 36.306 281.919C36.3972 281.79 36.5247 281.69 36.6723 281.634C36.8199 281.577 36.9811 281.565 37.1355 281.6C37.2898 281.634 37.4304 281.714 37.5394 281.829C37.6484 281.943 37.7211 282.088 37.7481 282.244C37.775 282.399 37.7552 282.56 37.691 282.704C37.6269 282.849 37.5213 282.971 37.3876 283.056C37.2539 283.141 37.0982 283.184 36.94 283.18C36.7287 283.172 36.5288 283.082 36.3831 282.929C36.2373 282.775 36.1573 282.571 36.16 282.36Z" fill="#D4D4D4"/>
<path d="M104.8 248.06C104.8 246.83 103.56 244.2 105.33 243.87C106.88 244.1 105.91 246.66 106.33 247.8C106.326 247.984 106.259 248.161 106.139 248.3C106.018 248.439 105.854 248.532 105.673 248.563C105.491 248.594 105.305 248.56 105.146 248.469C104.987 248.377 104.864 248.232 104.8 248.06Z" fill="#D4D4D4"/>
<path d="M110.74 243.25C109.74 243.25 109.83 241.77 110.31 241.17C111.76 240.09 112.24 243.25 110.74 243.25Z" fill="#D4D4D4"/>
<path d="M122.97 47.4302C122.803 46.8937 122.749 46.3286 122.81 45.7702C122.856 45.643 122.941 45.5332 123.052 45.4556C123.163 45.378 123.295 45.3364 123.43 45.3364C123.565 45.3364 123.697 45.378 123.808 45.4556C123.919 45.5332 124.004 45.643 124.05 45.7702C125.36 47.9502 123.63 48.7802 122.97 47.4302Z" fill="#D4D4D4"/>
<path d="M127.47 45.4499C127.27 44.0299 128.13 43.6599 128.9 44.8999C128.969 44.9982 129.015 45.1109 129.034 45.2295C129.053 45.3482 129.045 45.4696 129.01 45.5846C128.975 45.6996 128.915 45.8051 128.833 45.8931C128.751 45.9811 128.65 46.0493 128.538 46.0924C128.426 46.1355 128.305 46.1525 128.185 46.1421C128.066 46.1316 127.95 46.0939 127.847 46.032C127.744 45.97 127.657 45.8854 127.591 45.7845C127.526 45.6837 127.484 45.5692 127.47 45.4499Z" fill="#D4D4D4"/>
<path d="M126.88 55.14C126.2 54.47 127.02 52.8 127.97 53.48C128.92 54.16 128.04 56.15 126.88 55.14Z" fill="#D4D4D4"/>
</g>
<defs>
<clipPath id="clip0_51_4798">
<rect width="144.59" height="352.65" fill="white"/>
</clipPath>
</defs>
</svg>
