<svg width="114" height="82" viewBox="0 0 114 82" fill="none" xmlns="http://www.w3.org/2000/svg">
<g clip-path="url(#clip0_55_5368)">
<path d="M59.24 81.8799C55.06 81.7499 51.14 80.2199 47.38 78.5199C44.1072 77.171 40.967 75.5206 38 73.5899C36.8717 72.8086 35.6924 72.1037 34.47 71.4799C32.92 70.6999 31.31 70.0699 29.71 69.4099C27.5465 68.4111 25.3141 67.569 23.03 66.8899C17.67 65.3899 11.66 65.4699 6.64999 68.0499C5.34411 68.7907 3.9795 69.4228 2.56998 69.9399C1.49998 70.1699 0.09 69.6399 0 68.4099C0.0684369 67.4122 0.366155 66.4438 0.869995 65.5799C2.29 62.5099 5.09 60.4599 7.59 58.3299C9.22265 56.9696 10.9321 55.7041 12.71 54.5399C14.55 53.3699 16.51 52.4199 18.4 51.3599C20.5495 50.0246 22.7919 48.8449 25.11 47.8299C25.33 47.7599 25.68 47.6099 26.11 47.4499C26.2258 47.4232 26.337 47.3794 26.44 47.3199L26.71 47.2299C26.7147 47.2001 26.7147 47.1697 26.71 47.1399C26.7962 47.065 26.8703 46.9773 26.93 46.8799C27.2296 46.3617 27.4615 45.8072 27.62 45.2299C28.164 43.3662 28.5849 41.4688 28.88 39.5499C29.21 37.6699 29.56 35.7999 29.96 33.9399V34.0999C30.01 33.8599 30.06 33.6199 30.12 33.3699C30.63 31.1299 31.29 28.9299 31.99 26.7399C32.1567 26.2799 32.3367 25.8199 32.53 25.3599C32.7 24.9799 32.89 24.5999 33.08 24.2299C33.27 23.8599 33.41 23.6499 33.6 23.3799L34.05 22.7199C34.9233 21.5599 35.8433 20.4366 36.81 19.3499C37.42 18.6999 38.05 18.0499 38.71 17.4399C39.37 16.8299 40.1 16.2099 40.81 15.6099C41.35 15.1599 41.91 14.7199 42.43 14.2299C42.95 13.7399 43.48 13.2299 43.98 12.7099L44.09 12.5899L44.15 12.6799C45.01 12.1699 45.88 11.6799 46.75 11.2399C49.85 9.68992 52.57 7.48993 55.75 6.11993C64.98 1.73993 71.98 0.619923 81.69 4.33992C85.3062 5.4819 88.8465 6.85131 92.29 8.43993C93.8029 9.2823 95.2684 10.207 96.68 11.2099C98.38 12.3699 100.08 13.5199 101.68 14.7999C106.576 18.969 110.285 24.3574 112.43 30.4199C113.504 34.0807 113.907 37.9056 113.62 41.7099C113.41 44.8599 113.06 48.0099 112.79 51.1599C112.622 53.8903 112.167 56.5954 111.43 59.2299C111.235 60.1954 110.866 61.1172 110.34 61.9499C109.64 62.8199 108.54 62.7799 107.49 62.7499C107.17 62.7499 106.86 62.7499 106.56 62.7499C103.78 62.7499 101 62.6599 98.23 62.7499C96.492 62.7774 94.762 62.992 93.07 63.3899C92.27 63.6399 91.48 63.9099 90.68 64.1899C89.8 64.8099 88.93 65.4599 88.09 66.1399C86.46 67.4799 85.09 69.0799 83.46 70.4499C81.83 71.8199 79.95 72.8999 78.26 74.2099C77.34 74.9299 76.42 75.6699 75.51 76.3999C71.0776 79.871 65.6292 81.7925 60 81.8699L59.24 81.8799Z" fill="#721010"/>
<path d="M70.1501 6.40023C67.8801 6.00023 64.7501 3.40023 67.1501 1.19023C70.1501 -0.949771 77.15 -0.419774 76.6 4.41023C75.86 7.09023 72.3201 7.10023 70.1501 6.40023Z" fill="#4F0B0B"/>
<path d="M83.64 64.5802C75.41 64.0102 74.35 62.3902 67.85 58.1502C65.7583 56.8443 63.5566 55.7234 61.27 54.8002C59.0128 53.6085 56.6736 52.5792 54.27 51.7202C52.6403 51.1072 50.9695 50.6093 49.27 50.2302C47.63 49.9302 45.99 49.7002 44.35 49.3902C39.9552 48.4726 35.4676 48.0765 30.98 48.2102C30.1181 48.2197 29.261 48.3408 28.43 48.5702C28.2 48.6202 27.96 48.7902 27.74 48.7002C27.6582 48.6771 27.5823 48.6368 27.5172 48.5822C27.4521 48.5275 27.3994 48.4596 27.3625 48.383C27.3256 48.3065 27.3054 48.2229 27.3033 48.1379C27.3011 48.053 27.3171 47.9685 27.35 47.8902C27.45 47.6302 27.73 47.5302 27.98 47.4402C29.5031 46.9638 31.0948 46.7442 32.69 46.7902C36.7897 46.7732 40.8817 47.1482 44.91 47.9102C47.4333 48.2042 49.9328 48.6754 52.39 49.3202C54.7657 50.0252 57.0827 50.9145 59.32 51.9802C61.56 53.1502 63.88 54.1802 66.15 55.2802C69.05 56.8302 71.72 58.7802 74.56 60.4202C78.79 62.9202 83.85 63.2202 88.65 63.3002C88.8098 63.3199 88.9568 63.3974 89.0635 63.5181C89.1701 63.6387 89.229 63.7942 89.229 63.9552C89.229 64.1162 89.1701 64.2716 89.0635 64.3922C88.9568 64.5129 88.8098 64.5904 88.65 64.6102C86.96 64.6202 85.3 64.6502 83.64 64.5802Z" fill="#4F0B0B"/>
<path d="M86.94 62.0998C84.8506 61.9124 82.7822 61.5376 80.76 60.9798C78.7018 60.5259 76.7094 59.8136 74.83 58.8598C73.76 58.2898 72.77 57.5798 71.73 56.9498C69.4949 55.5877 67.154 54.4072 64.73 53.4198C63.47 52.8598 62.19 52.3498 60.98 51.6898C60.17 51.2498 59.37 50.7798 58.55 50.3498C57.4042 49.8368 56.2248 49.4025 55.02 49.0498C52.2986 48.2604 49.5044 47.7478 46.68 47.5198C43.5249 46.9728 40.3442 46.5856 37.15 46.3598C35.5749 46.323 33.999 46.3764 32.43 46.5198C31.48 46.5898 30.54 46.6698 29.59 46.6898C29.5053 46.7037 29.4185 46.6946 29.3385 46.6636C29.2586 46.6325 29.1884 46.5806 29.1353 46.5132C29.0822 46.4458 29.0482 46.3654 29.0367 46.2804C29.0252 46.1954 29.0367 46.1089 29.07 46.0298C29.124 45.9279 29.2046 45.8426 29.3032 45.7827C29.4018 45.7229 29.5147 45.6908 29.63 45.6898C29.99 45.6898 30.36 45.6198 30.72 45.5798L32.65 45.3698C38.22 44.5398 43.75 45.8898 49.27 46.4598C52.7323 46.8608 56.1177 47.7636 59.32 49.1398C61.2735 50.2359 63.2942 51.2078 65.37 52.0498C67.8706 53.0859 70.2877 54.3128 72.6 55.7198C74.1532 56.821 75.8316 57.7341 77.6 58.4398C81.0519 59.6914 84.6522 60.4881 88.31 60.8098C89.89 60.8598 91.45 60.5098 93.02 60.4298C93.1871 60.4112 93.3547 60.4598 93.486 60.5648C93.6172 60.6699 93.7014 60.8227 93.72 60.9898C93.7385 61.1569 93.69 61.3245 93.585 61.4558C93.4799 61.5871 93.327 61.6712 93.16 61.6898C91.1059 62.0372 89.0218 62.1745 86.94 62.0998Z" fill="#4F0B0B"/>
<path d="M108.76 61.9202C106.654 61.8453 104.555 61.655 102.47 61.3502C100.47 61.2202 98.47 61.2502 96.53 61.1902C96.4454 61.1846 96.3629 61.1614 96.2877 61.1222C96.2126 61.0829 96.1465 61.0284 96.0936 60.9622C96.0407 60.8959 96.0021 60.8194 95.9805 60.7374C95.9588 60.6554 95.9545 60.5698 95.9677 60.4861C95.981 60.4024 96.0115 60.3223 96.0575 60.2511C96.1034 60.1798 96.1637 60.1189 96.2345 60.0722C96.3052 60.0255 96.385 59.9942 96.4686 59.98C96.5522 59.9659 96.6378 59.9694 96.72 59.9902C98.24 59.8702 99.72 59.6802 101.3 59.6802C102.771 59.7119 104.236 59.8692 105.68 60.1502C106.706 60.3619 107.745 60.5088 108.79 60.5902C108.952 60.6135 109.1 60.6953 109.206 60.8203C109.312 60.9453 109.368 61.1047 109.365 61.2685C109.361 61.4322 109.297 61.5889 109.186 61.709C109.074 61.8291 108.923 61.9042 108.76 61.9202Z" fill="#4F0B0B"/>
<path d="M41.18 46.5498C41.0624 46.5472 40.9505 46.4986 40.8682 46.4145C40.786 46.3304 40.74 46.2174 40.74 46.0998C40.69 41.3798 41.74 36.7698 42.74 32.1798C43.74 28.1798 44.57 23.9898 46.87 20.4998C49.1003 17.1418 51.7595 14.0893 54.78 11.4198C57.2448 9.45407 60.0425 7.94683 63.04 6.96978C64.82 6.40978 66.6 5.85977 68.34 5.19977C68.98 5.05977 70.72 3.90977 70.83 5.02977C70.8248 5.15623 70.7709 5.27579 70.6796 5.3634C70.5883 5.45101 70.4666 5.49988 70.34 5.49978C67.47 6.78978 64.42 7.61978 61.51 8.81978C59.7189 9.66209 58.0084 10.6663 56.4 11.8198C54.8547 13.0318 53.4313 14.3915 52.15 15.8798C49.74 18.6298 47.31 21.4898 46.02 24.9598C44.7593 28.7237 43.7569 32.5693 43.02 36.4698C42.68 38.0198 42.29 39.5698 42.08 41.1498C41.9 42.3998 41.75 43.6598 41.68 44.9198C41.55 45.4098 41.91 46.5198 41.18 46.5498Z" fill="#4F0B0B"/>
<path d="M100.61 59.3102C100.477 59.3025 100.353 59.2444 100.262 59.1477C100.17 59.051 100.12 58.9231 100.12 58.7902C100.12 56.2502 100.12 53.7102 100.06 51.1702C99.92 44.5102 99.96 37.8402 99.33 31.1702C98.84 26.8902 97.82 22.5302 95.2 19.0202C93.7245 17.1382 92.0737 15.4004 90.27 13.8302C87.958 11.7795 85.4454 9.96701 82.77 8.42018C80.56 7.33018 78.1 6.96018 75.77 6.32018C75.13 6.16018 74.49 5.94018 73.85 5.77018C73.7657 5.77244 73.682 5.75633 73.6047 5.72296C73.5273 5.68958 73.4581 5.63976 73.402 5.57694C73.3458 5.51413 73.3041 5.43983 73.2795 5.35922C73.255 5.27862 73.2483 5.19363 73.26 5.11019C73.4 4.44019 74.12 4.64018 74.59 4.81018C75.06 4.98018 75.59 5.11018 76.08 5.24018C77.7 5.64018 79.34 5.97018 80.94 6.42018C82.603 6.89857 84.1698 7.66336 85.57 8.68019C87.8395 10.0839 89.9722 11.6977 91.94 13.5002C96.2 17.2802 98.86 21.1202 99.94 26.8002C101.02 32.2402 100.89 37.8002 101.08 43.3002C101.17 48.4302 101.26 53.5602 101.2 58.6902C101.215 58.7723 101.21 58.8567 101.186 58.9366C101.162 59.0165 101.12 59.0896 101.062 59.15C101.005 59.2104 100.934 59.2564 100.855 59.2842C100.777 59.3121 100.693 59.321 100.61 59.3102Z" fill="#4F0B0B"/>
<path d="M76.36 58.3402C76.2842 58.3389 76.2095 58.3225 76.1402 58.292C76.0709 58.2616 76.0083 58.2176 75.9562 58.1626C75.9041 58.1077 75.8634 58.0429 75.8366 57.9721C75.8097 57.9013 75.7973 57.8258 75.8 57.7502C75.8 56.6402 75.9 55.5302 75.9 54.4302C75.96 50.9902 75.9866 47.5535 75.98 44.1202C75.98 35.4102 76.21 26.6802 75.25 18.0202C75.02 16.0202 74.66 14.1602 74.25 12.2402C73.71 9.89016 73.5 7.44017 72.75 5.15017C72.6959 5.07051 72.67 4.97499 72.6767 4.87891C72.6833 4.78283 72.722 4.69176 72.7865 4.6203C72.8511 4.54883 72.9378 4.5011 73.0327 4.48475C73.1276 4.46841 73.2252 4.4844 73.31 4.53016C73.55 4.66016 73.64 4.97016 73.73 5.20016C74.0972 6.36733 74.3911 7.55632 74.61 8.76017C75.07 11.0202 75.61 13.2602 75.99 15.5402C76.4447 18.4448 76.7352 21.3728 76.86 24.3102C77.26 31.2302 77.08 38.1702 77.14 45.0902C77.14 48.8202 77.23 52.5502 77.03 56.2702C77.03 56.7702 77.03 57.2702 76.97 57.7802C76.9622 57.9349 76.8938 58.0804 76.7797 58.1852C76.6656 58.2899 76.5148 58.3456 76.36 58.3402Z" fill="#4F0B0B"/>
<path d="M68.95 5.65998C68.8145 5.63994 68.6905 5.57264 68.6 5.46998C68.0237 5.24048 67.4102 5.11847 66.79 5.10998C65.0477 5.06321 63.3042 5.12667 61.57 5.29998C61.4206 5.30621 61.2745 5.25556 61.1611 5.15824C61.0477 5.06091 60.9754 4.92418 60.9589 4.77565C60.9424 4.62711 60.9829 4.47786 61.0722 4.35801C61.1615 4.23817 61.2929 4.15667 61.4399 4.12998C63.7593 3.76917 66.1206 3.76917 68.4399 4.12998C68.7954 4.18815 69.1355 4.3174 69.4399 4.50998C69.5587 4.59466 69.6449 4.71734 69.6844 4.85771C69.7239 4.99809 69.7143 5.14774 69.6571 5.28189C69.6 5.41605 69.4987 5.52665 69.3701 5.59541C69.2415 5.66417 69.0933 5.68694 68.95 5.65998Z" fill="#4F0B0B"/>
<path d="M61.65 78.2101C58.03 77.9401 54.21 77.7001 50.96 75.9301C48.53 74.6501 46.26 73.0801 43.9 71.6801C42.28 70.6801 40.57 69.8301 38.9 68.8701C37.23 67.9101 35.82 66.8701 34.18 66.0401C32.9796 65.485 31.7221 65.0625 30.43 64.7801C26.9 63.7801 23.37 62.6901 19.69 62.5301C16.5688 62.4184 13.4469 62.7313 10.41 63.4601C7.49063 63.9019 4.80395 65.3104 2.78001 67.4601C2.72166 67.5529 2.62882 67.6188 2.52192 67.6432C2.41502 67.6675 2.30283 67.6485 2.21 67.5901C2.11717 67.5318 2.05133 67.4389 2.02695 67.332C2.00258 67.2251 2.02165 67.1129 2.07999 67.0201C3.34818 65.5198 4.93733 64.3237 6.72999 63.5201C9.38007 62.4716 12.1637 61.7984 15 61.5201C16.8376 61.3423 18.6852 61.2889 20.53 61.3601C23.2948 61.6154 26.0258 62.155 28.68 62.9701C31.41 63.6901 34.22 64.2701 36.61 65.8601C39 67.4501 41.37 68.6301 43.81 69.9201C46.62 71.4801 49.37 73.3201 52.22 74.6901C54.0553 75.4852 56.0072 75.9783 58 76.1501C60.9175 76.7161 63.9228 76.6445 66.81 75.9401C70.318 74.7888 73.6753 73.2209 76.81 71.2701C78.47 70.3501 80.2 69.5501 81.81 68.5401C83.42 67.5301 85.26 66.0601 87.02 64.9901L88.02 64.3901C88.1313 64.3353 88.2584 64.3213 88.379 64.3505C88.4996 64.3798 88.6061 64.4504 88.68 64.5501C88.758 64.6603 88.7892 64.7968 88.7667 64.9299C88.7442 65.063 88.6699 65.1817 88.56 65.2601C86.37 66.8401 84.27 68.5601 82.02 70.0501C80.48 71.0501 78.84 71.8401 77.27 72.7701C74.944 74.2788 72.4714 75.5486 69.89 76.5601C67.3067 77.7363 64.487 78.3009 61.65 78.2101Z" fill="#4F0B0B"/>
<path d="M51.6699 33.0098C51.7599 32.4298 51.6699 31.5198 52.3899 31.3798C53.5099 31.2798 53.2699 32.9498 52.9299 33.5798C52.8235 33.6854 52.6875 33.7563 52.54 33.7829C52.3924 33.8095 52.2402 33.7907 52.1036 33.7289C51.9669 33.6671 51.8523 33.5652 51.7749 33.4368C51.6975 33.3084 51.6609 33.1595 51.6699 33.0098Z" fill="#4F0B0B"/>
<path d="M52.4301 41.1499C52.5801 40.2899 52.27 38.3699 53.67 38.6899C54.38 38.9499 54.4701 41.2099 54.1801 41.7999C54.0464 41.9515 53.8698 42.0591 53.6738 42.1084C53.4777 42.1576 53.2713 42.1463 53.0818 42.0759C52.8923 42.0056 52.7286 41.8794 52.6122 41.7141C52.4959 41.5487 52.4324 41.352 52.4301 41.1499Z" fill="#4F0B0B"/>
<path d="M54.4699 36.58C53.3699 35.26 55.47 33.81 55.87 35.58C56.08 36.43 55.1699 37.21 54.4699 36.58Z" fill="#4F0B0B"/>
<path d="M64.13 64.1C63.8411 64.0232 63.585 63.8547 63.4001 63.6198C63.2152 63.3849 63.1116 63.0963 63.1048 62.7975C63.0981 62.4987 63.1885 62.2057 63.3626 61.9627C63.5367 61.7197 63.7849 61.5397 64.07 61.45C66.77 59.94 67.49 64.45 64.13 64.1Z" fill="#4F0B0B"/>
<path d="M62.14 66.8001C61.69 66.3401 62.35 65.9601 62.64 65.6401C62.93 65.3201 63.24 64.8501 63.64 65.2001C64.04 65.5501 63.52 65.9301 63.3 66.2001C63.08 66.4701 62.62 67.2101 62.14 66.8001Z" fill="#4F0B0B"/>
<path d="M67.98 65.2899C67.03 64.3699 69.1299 62.6899 69.7199 63.9699C70.0799 64.7999 68.68 65.9499 67.98 65.2899Z" fill="#4F0B0B"/>
<path d="M84.0901 32.5199C83.9801 31.5999 83.99 30.0999 85.27 30.1899C86.27 30.2899 86.22 31.3899 86.35 32.1899C86.3938 32.4896 86.3167 32.7944 86.1357 33.0373C85.9548 33.2801 85.6847 33.4411 85.385 33.4849C85.0853 33.5287 84.7805 33.4516 84.5377 33.2706C84.2948 33.0896 84.1338 32.8196 84.0901 32.5199Z" fill="#4F0B0B"/>
<path d="M85.12 36.6302C85.2085 36.1677 85.322 35.7104 85.46 35.2602C85.46 34.9602 85.69 34.5902 86.05 34.7602C86.1045 34.7916 86.1498 34.8368 86.1813 34.8912C86.2129 34.9456 86.2297 35.0073 86.23 35.0702C86.3 35.2902 86.36 35.4702 86.44 35.6602C86.6 36.1102 86.9 36.6602 86.66 37.0902C86.5709 37.257 86.4269 37.388 86.2523 37.4608C86.0777 37.5336 85.8832 37.5438 85.702 37.4896C85.5207 37.4355 85.3638 37.3203 85.2577 37.1637C85.1517 37.0071 85.103 36.8186 85.12 36.6302Z" fill="#4F0B0B"/>
<path d="M87.08 32.3399C87.01 30.4299 89.33 30.3399 89.38 32.2699C89.4059 32.4326 89.3969 32.5991 89.3536 32.7581C89.3102 32.9171 89.2334 33.065 89.1283 33.192C89.0233 33.319 88.8924 33.4222 88.7443 33.4947C88.5963 33.5671 88.4345 33.6072 88.2698 33.6122C88.105 33.6172 87.9411 33.587 87.7889 33.5237C87.6367 33.4604 87.4998 33.3654 87.3872 33.245C87.2746 33.1246 87.189 32.9817 87.136 32.8256C87.083 32.6695 87.0639 32.5039 87.08 32.3399Z" fill="#4F0B0B"/>
</g>
<defs>
<clipPath id="clip0_55_5368">
<rect width="113.68" height="81.89" fill="white"/>
</clipPath>
</defs>
</svg>
