<svg width="60" height="60" viewBox="0 0 60 60" fill="none" xmlns="http://www.w3.org/2000/svg">
<circle cx="30" cy="30" r="30" fill="#4287C7"/>
<path d="M45.8837 20.8047L39.0088 17.1302C38.8531 17.0457 38.6781 17.0009 38.5001 17H34.2498C33.968 17 33.6977 17.1097 33.4984 17.3051C33.2992 17.5004 33.1872 17.7654 33.1872 18.0417C33.1872 18.8705 32.8514 19.6653 32.2536 20.2514C31.6557 20.8374 30.8449 21.1667 29.9995 21.1667C29.154 21.1667 28.3432 20.8374 27.7454 20.2514C27.1476 19.6653 26.8117 18.8705 26.8117 18.0417C26.8117 17.7654 26.6998 17.5004 26.5005 17.3051C26.3012 17.1097 26.031 17 25.7492 17H21.4988C21.3204 17.0007 21.145 17.0455 20.9888 17.1302L14.1152 20.8047C13.6252 21.0585 13.2579 21.4925 13.0939 22.0114C12.9298 22.5304 12.9823 23.0919 13.2399 23.5729L15.7994 28.3659C15.9855 28.7105 16.2645 28.9984 16.6059 29.1984C16.9474 29.3984 17.3382 29.5027 17.736 29.5H20.4363V39.9167C20.4363 40.4692 20.6602 40.9991 21.0587 41.3898C21.4572 41.7805 21.9978 42 22.5614 42H37.4375C38.0012 42 38.5417 41.7805 38.9403 41.3898C39.3388 40.9991 39.5627 40.4692 39.5627 39.9167V29.5H42.2643C42.6621 29.5027 43.0529 29.3984 43.3944 29.1984C43.7358 28.9984 44.0148 28.7105 44.2009 28.3659L46.7604 23.5729C47.0179 23.0917 47.0702 22.5301 46.9059 22.0111C46.7415 21.4922 46.374 21.0583 45.8837 20.8047ZM17.736 27.4167C17.7163 27.4176 17.697 27.4116 17.6815 27.3997L15.1353 22.6328L20.4363 19.7969V27.4167H17.736ZM37.4375 39.9167H22.5614V19.0833H24.7928C25.038 20.2593 25.6899 21.3162 26.6384 22.0752C27.5869 22.8343 28.7738 23.2488 29.9982 23.2488C31.2225 23.2488 32.4094 22.8343 33.3579 22.0752C34.3064 21.3162 34.9583 20.2593 35.2035 19.0833H37.4375V39.9167ZM42.3188 27.3984C42.3114 27.4049 42.3028 27.4099 42.2935 27.413C42.2841 27.4162 42.2742 27.4174 42.2643 27.4167H39.5627V19.7969L44.865 22.6328L42.3188 27.3984Z" fill="white"/>
</svg>
