<svg width="225" height="168" viewBox="0 0 225 168" fill="none" xmlns="http://www.w3.org/2000/svg">
<g clip-path="url(#clip0_50_4483)">
<path d="M214.9 143.82C197.03 143.33 181.7 136.37 167.17 127.16C166.61 126.8 166.03 126.47 165.49 126.09C153.144 117.622 140.096 110.225 126.49 103.98C117.8 99.9 109.66 94.57 101.6 89.31C98.19 87.08 95.38 83.78 92.72 80.62C89.587 76.8751 87.9173 72.1216 88.02 67.24C88.08 46.91 88.02 26.58 88.02 6.24003C88.02 1.95003 89.34 -0.0199719 92.02 -0.00997189C94.7 2.81073e-05 96.02 1.99003 96.02 6.24003C96.02 25.73 96.18 45.2401 95.93 64.73C95.86 70.73 97.82 75.57 102.18 79.31C106.151 82.8709 110.451 86.0483 115.02 88.8C123.11 93.41 131.58 97.32 139.82 101.68C146.42 105.17 152.99 108.75 159.43 112.55C167.02 117.03 174.31 122.06 182 126.35C191.886 131.977 202.958 135.197 214.32 135.75C220.32 136.02 223.91 140.15 224.04 146.23C224.3 158.09 215.44 166.98 202.47 167.89C196.631 168.164 190.796 167.267 185.31 165.25C182.189 164.085 178.778 163.941 175.57 164.84C158.43 169.68 141.32 168.23 124.17 164.54C115.56 162.69 106.83 161.25 98.09 160.17C87.09 158.82 76.71 162.65 66.09 164.37C56.41 165.93 46.65 167.51 36.88 167.81C11.5 168.58 -3.20998 149.19 0.670019 125.68C3.39023 109.605 7.04307 93.7012 11.61 78.05C16.56 60.82 16.91 43.63 14.56 26.13C13.68 19.53 13 12.9 12.24 6.29005C12.1155 5.46292 12.0753 4.62529 12.12 3.79005C12.1276 2.85865 12.4789 1.96285 13.1063 1.27448C13.7338 0.586116 14.5933 0.15364 15.52 0.0600354C17.86 -0.269965 19.36 1.06005 19.93 3.20005C20.2592 4.6644 20.4732 6.15226 20.57 7.65003C21.73 19.08 22.83 30.52 24.03 41.94C25.35 54.45 22.74 66.45 19.7 78.44C16.23 92.14 12.79 105.86 9.65003 119.64C8.61704 124.189 8.13358 128.846 8.21003 133.51C8.51003 148.89 19.09 159.36 34.5 159.87C44.8455 160.265 55.1901 159.065 65.17 156.31C85.17 150.69 104.89 151.41 124.86 156.24C132.86 158.19 141.26 159.05 149.52 159.8C157.356 160.382 165.231 159.511 172.75 157.23C177.718 155.773 183.017 155.899 187.91 157.59C192.183 158.941 196.629 159.662 201.11 159.73C204.259 159.654 207.345 158.828 210.11 157.32C214.94 154.79 216.74 149.34 214.9 143.82Z" fill="#4287C7"/>
<path d="M34.33 85.94C34.8893 83.4169 35.587 80.9264 36.42 78.48C36.5684 77.9924 36.8198 77.5423 37.1572 77.1602C37.4945 76.7781 37.91 76.4729 38.3755 76.2653C38.8411 76.0577 39.3457 75.9524 39.8554 75.9567C40.3651 75.9609 40.868 76.0746 41.33 76.29C41.8121 76.4434 42.2592 76.6903 42.6458 77.0167C43.0324 77.343 43.3509 77.7423 43.5831 78.1918C43.8153 78.6413 43.9566 79.1322 43.9989 79.6363C44.0413 80.1405 43.9839 80.648 43.83 81.13C43.65 81.93 43.25 82.69 43.05 83.49C41.62 89.37 43.27 94.34 47.55 98.49C48.38 99.3 49.41 99.91 50.25 100.71C52.25 102.66 52.5399 104.63 51.0699 106.42C49.5999 108.21 47.6599 108.48 45.2899 106.9C38.2799 102.19 34.74 95.53 34.33 85.94Z" fill="#4287C7"/>
</g>
<defs>
<clipPath id="clip0_50_4483">
<rect width="224.03" height="167.98" fill="white"/>
</clipPath>
</defs>
</svg>
