<!-- icon666.com - MILLIONS vector ICONS FREE --><svg version="1.1" id="Capa_1" xmlns="http://www.w3.org/2000/svg" xmlns:xlink="http://www.w3.org/1999/xlink" x="0px" y="0px" viewBox="0 0 512 512" style="enable-background:new 0 0 512 512;" xml:space="preserve"><linearGradient id="SVGID_1_" gradientUnits="userSpaceOnUse" x1="256" y1="514" x2="256" y2="2" gradientTransform="matrix(1 0 0 -1 0 514)"><stop offset="0" style="stop-color:#2AF598"></stop><stop offset="1" style="stop-color:#009EFD"></stop></linearGradient><path style="fill:url(#SVGID_1_);" d="M411,155C411,69.533,341.467,0,256,0S101,69.533,101,155c0,78.691,58.946,143.871,135,153.712 V399h-75v40h75v73h40v-73h75v-40h-75v-90.288C352.054,298.871,411,233.691,411,155z M141,155c0-63.411,51.589-115,115-115 s115,51.589,115,115s-51.589,115-115,115S141,218.411,141,155z"></path></svg>