<svg width="245" height="217" viewBox="0 0 245 217" fill="none" xmlns="http://www.w3.org/2000/svg">
<path d="M203.21 136.34C203.21 151.46 163.21 163.72 113.84 163.72C64.47 163.72 24.47 151.46 24.47 136.34C24.47 121.22 64.47 108.96 113.84 108.96C163.21 108.96 203.21 121.22 203.21 136.34Z" fill="#D3A062"/>
<mask id="mask0_55_5775" style="mask-type:luminance" maskUnits="userSpaceOnUse" x="24" y="108" width="180" height="56">
<path d="M203.21 136.34C203.21 151.46 163.21 163.72 113.84 163.72C64.47 163.72 24.47 151.46 24.47 136.34C24.47 121.22 64.47 108.96 113.84 108.96C163.21 108.96 203.21 121.22 203.21 136.34Z" fill="white"/>
</mask>
<g mask="url(#mask0_55_5775)">
<path d="M102.88 47.6599L4.26 156.72L0 154.69L98.63 45.6299L102.88 47.6599Z" fill="#E0AF73"/>
<path d="M112.17 53.6198L13.56 162.68L9.29004 160.65L107.91 51.5898L112.17 53.6198Z" fill="#E0AF73"/>
<path d="M120.65 60.6401L22.03 169.71L17.77 167.68L116.39 58.6201L120.65 60.6401Z" fill="#E0AF73"/>
<path d="M137.3 57.8698L38.69 166.93L34.42 164.9L133.04 55.8398L137.3 57.8698Z" fill="#E0AF73"/>
<path d="M146.59 63.8198L47.97 172.88L43.72 170.86L142.33 61.7998L146.59 63.8198Z" fill="#E0AF73"/>
<path d="M155.07 70.8498L56.4399 179.91L52.1899 177.88L150.81 68.8198L155.07 70.8498Z" fill="#E0AF73"/>
<path d="M171.82 68.8601L73.1999 177.92L68.9399 175.89L167.56 66.8301L171.82 68.8601Z" fill="#E0AF73"/>
<path d="M181.11 74.81L82.49 183.88L78.23 181.85L176.85 72.79L181.11 74.81Z" fill="#E0AF73"/>
<path d="M189.59 81.8398L90.95 190.91L86.7 188.88L185.33 79.8198L189.59 81.8398Z" fill="#E0AF73"/>
<path d="M206.23 79.06L107.61 188.12L103.34 186.1L201.97 77.04L206.23 79.06Z" fill="#E0AF73"/>
<path d="M215.54 85.02L116.91 194.09L112.64 192.06L211.26 83L215.54 85.02Z" fill="#E0AF73"/>
<path d="M224.01 92.05L125.38 201.11L121.12 199.08L219.75 90.02L224.01 92.05Z" fill="#E0AF73"/>
<path d="M235.76 94.7297L137.14 203.8L132.87 201.76L231.5 92.6997L235.76 94.7297Z" fill="#E0AF73"/>
<path d="M244.23 101.76L145.61 210.83L141.34 208.8L239.98 99.73L244.23 101.76Z" fill="#E0AF73"/>
<path d="M11.13 142.17L161.46 213.72L158.67 216.8L8.32996 145.25L11.13 142.17Z" fill="#E0AF73"/>
<path d="M19.32 135.43L169.68 206.97L166.89 210.06L16.53 138.52L19.32 135.43Z" fill="#E0AF73"/>
<path d="M29.02 129.28L179.36 200.82L176.57 203.91L26.23 132.38L29.02 129.28Z" fill="#E0AF73"/>
<path d="M25.18 117.2L175.54 188.74L172.74 191.84L22.39 120.3L25.18 117.2Z" fill="#E0AF73"/>
<path d="M33.4 110.46L183.75 182L180.95 185.09L30.6 113.55L33.4 110.46Z" fill="#E0AF73"/>
<path d="M43.09 104.31L193.43 175.86L190.64 178.95L40.29 107.4L43.09 104.31Z" fill="#E0AF73"/>
<path d="M40.35 92.1597L190.68 163.7L187.89 166.8L37.54 95.2597L40.35 92.1597Z" fill="#E0AF73"/>
<path d="M48.55 85.4199L198.89 156.96L196.1 160.05L45.77 88.5099L48.55 85.4199Z" fill="#E0AF73"/>
<path d="M58.24 79.27L208.59 150.82L205.8 153.91L55.45 82.36L58.24 79.27Z" fill="#E0AF73"/>
<path d="M54.41 67.1997L204.76 138.74L201.96 141.83L51.62 70.2797L54.41 67.1997Z" fill="#E0AF73"/>
<path d="M62.6199 60.4497L212.97 132L210.17 135.09L59.8199 63.5397L62.6199 60.4497Z" fill="#E0AF73"/>
<path d="M72.31 54.2998L222.66 125.85L219.86 128.94L69.52 57.3898L72.31 54.2998Z" fill="#E0AF73"/>
<path d="M76 45.7798L226.35 117.32L223.56 120.42L73.2 48.8798L76 45.7798Z" fill="#E0AF73"/>
<path d="M85.69 39.6299L236.04 111.17L233.25 114.26L82.9 42.7299L85.69 39.6299Z" fill="#E0AF73"/>
</g>
<path d="M156.89 45.6502C143.11 36.0002 128.3 45.6502 113.89 45.6502C99.48 45.6502 84.61 36.0002 70.84 45.6502C57.07 55.3002 52.59 126.58 52.59 126.58C53.96 146.21 113.89 147.93 113.89 147.93C113.89 147.93 173.81 146.21 175.19 126.58C175.14 126.58 170.66 55.2902 156.89 45.6502Z" fill="#E8B96D"/>
<mask id="mask1_55_5775" style="mask-type:luminance" maskUnits="userSpaceOnUse" x="52" y="41" width="124" height="107">
<path d="M156.89 45.6502C143.11 36.0002 128.3 45.6502 113.89 45.6502C99.4801 45.6502 84.6101 36.0002 70.8401 45.6502C57.0701 55.3002 52.5901 126.58 52.5901 126.58C53.9601 146.21 113.89 147.93 113.89 147.93C113.89 147.93 173.81 146.21 175.19 126.58C175.14 126.58 170.66 55.2902 156.89 45.6502Z" fill="white"/>
</mask>
<g mask="url(#mask1_55_5775)">
<path d="M98.2007 3.7198L25.8538 114.213L28.987 116.265L101.334 5.77129L98.2007 3.7198Z" fill="#D3A062"/>
<path d="M103.418 12.0398L31.2759 122.032L34.3949 124.078L106.537 14.0854L103.418 12.0398Z" fill="#D3A062"/>
<path d="M109.632 19.1256L37.4849 129.126L40.6039 131.172L112.751 21.1713L109.632 19.1256Z" fill="#D3A062"/>
<path d="M121.811 16.3253L49.6635 126.326L52.7825 128.372L124.93 18.371L121.811 16.3253Z" fill="#D3A062"/>
<path d="M128.6 22.3337L56.4584 132.326L59.569 134.366L131.711 24.3739L128.6 22.3337Z" fill="#D3A062"/>
<path d="M134.862 29.4761L62.6959 139.464L65.8146 141.511L137.981 31.5223L134.862 29.4761Z" fill="#D3A062"/>
<path d="M147.044 27.3883L74.8966 137.389L78.0156 139.435L150.163 29.434L147.044 27.3883Z" fill="#D3A062"/>
<path d="M153.859 33.4083L81.7114 143.409L84.8304 145.455L156.978 35.454L153.859 33.4083Z" fill="#D3A062"/>
<path d="M160.116 40.5586L87.95 150.547L91.0686 152.593L163.235 42.6048L160.116 40.5586Z" fill="#D3A062"/>
<path d="M172.226 37.672L100.079 147.673L103.198 149.719L175.345 39.7177L172.226 37.672Z" fill="#D3A062"/>
<path d="M179.013 43.6862L106.865 153.687L109.984 155.733L182.132 45.7318L179.013 43.6862Z" fill="#D3A062"/>
<path d="M185.303 50.8604L113.137 160.849L116.255 162.895L188.422 52.9066L185.303 50.8604Z" fill="#D3A062"/>
<path d="M196.97 55.57L124.82 165.56L121.7 163.51L193.86 53.52L196.97 55.57Z" fill="#D3A062"/>
<path d="M200.023 60.5695L127.876 170.57L130.995 172.616L203.142 62.6151L200.023 60.5695Z" fill="#D3A062"/>
<path d="M32.6393 103.438L30.5985 106.548L140.578 178.709L142.619 175.598L32.6393 103.438Z" fill="#D3A062"/>
<path d="M38.6092 96.5812L36.5635 99.7002L146.564 171.847L148.61 168.728L38.6092 96.5812Z" fill="#D3A062"/>
<path d="M45.7301 90.4102L155.71 162.56L153.67 165.68L43.6801 93.5302L45.7301 90.4102Z" fill="#D3A062"/>
<path d="M42.92 78.23L152.91 150.38L150.87 153.5L40.88 81.35L42.92 78.23Z" fill="#D3A062"/>
<path d="M48.9074 71.4069L46.8617 74.5259L156.863 146.673L158.908 143.554L48.9074 71.4069Z" fill="#D3A062"/>
<path d="M56.044 65.2583L53.9978 68.377L163.986 140.543L166.032 137.425L56.044 65.2583Z" fill="#D3A062"/>
<path d="M54.0101 52.98L164 125.13L161.95 128.25L51.9601 56.1L54.0101 52.98Z" fill="#D3A062"/>
<path d="M60.0553 46.2217L58.0145 49.332L167.994 121.493L170.035 118.383L60.0553 46.2217Z" fill="#D3A062"/>
<path d="M67.0559 39.9495L65.0157 43.0601L175.017 115.207L177.057 112.097L67.0559 39.9495Z" fill="#D3A062"/>
<path d="M64.3413 27.8419L62.3005 30.9521L172.289 103.119L174.33 100.008L64.3413 27.8419Z" fill="#D3A062"/>
<path d="M70.3374 21.025L68.2966 24.1353L178.285 96.3016L180.326 93.1914L70.3374 21.025Z" fill="#D3A062"/>
<path d="M77.4401 14.8218L75.3939 17.9404L185.382 90.1068L187.428 86.9882L77.4401 14.8218Z" fill="#D3A062"/>
<path d="M80.0774 6.18815L78.0317 9.30713L188.033 81.4543L190.078 78.3353L80.0774 6.18815Z" fill="#D3A062"/>
<path d="M87.1715 -0.0105757L85.1259 3.1084L195.127 75.2556L197.172 72.1366L87.1715 -0.0105757Z" fill="#D3A062"/>
</g>
<path d="M175.14 126.58C175.205 124.523 175.051 122.464 174.68 120.44C105.99 143.44 53 120.44 53 120.44C52.62 124.13 52.54 126.58 52.54 126.58C53.91 146.21 113.84 147.93 113.84 147.93C113.84 147.93 173.77 146.21 175.14 126.58Z" fill="#17A9C1"/>
</svg>
