<svg width="240" height="241" viewBox="0 0 240 241" fill="none" xmlns="http://www.w3.org/2000/svg">
<g clip-path="url(#clip0_47_4474)">
<path d="M50.9 82.8101C50.9 75.0301 50.35 67.5101 50.99 60.1001C53.52 31.1801 77.79 5.5801 106.54 1.1001C126.97 -2.0399 146.17 0.980097 162.8 13.9901C182.17 29.1501 191.02 49.2501 189.48 73.8601C189.3 76.8601 189.16 79.8601 189 82.7601C190.55 83.3401 191.83 83.7601 193 84.2901C196.5 86.0001 199.28 88.7601 199.58 92.5601C200.2 100.49 201.05 108.56 198.25 116.3C196.262 122.191 192.209 127.164 186.84 130.3C185.748 130.872 184.818 131.71 184.135 132.735C183.452 133.761 183.037 134.942 182.93 136.17C182.36 139.94 181.38 143.66 180.49 147.38C178.815 155.06 175.27 162.209 170.17 168.19C169.398 169.049 168.804 170.052 168.423 171.142C168.042 172.232 167.881 173.387 167.95 174.54C168.08 182.04 167.95 189.54 167.95 197.03C167.95 204.52 170.51 208.27 177.73 210.88C196.35 217.587 214.977 224.273 233.61 230.94C235.039 231.381 236.43 231.937 237.77 232.6C238.628 232.977 239.306 233.673 239.659 234.541C240.012 235.41 240.012 236.382 239.66 237.25C239.52 237.736 239.285 238.189 238.969 238.583C238.653 238.978 238.262 239.306 237.819 239.548C237.375 239.791 236.888 239.943 236.385 239.997C235.883 240.05 235.375 240.004 234.89 239.86C233.76 239.574 232.65 239.21 231.57 238.77C212.79 232.01 194.013 225.247 175.24 218.48C164.42 214.64 160 208.33 160 196.76C160 191.76 160 186.76 160 180.95C158.45 182.31 157.43 183.26 156.35 184.14C150.7 188.79 145.2 193.63 139.35 197.94C137.114 199.33 134.532 200.061 131.9 200.05C124.08 200.31 116.24 200.05 108.41 200.2C105.55 200.391 102.716 199.562 100.41 197.86C95.1633 193.767 89.99 189.59 84.89 185.33C83.5972 184.043 82.4286 182.637 81.4 181.13L80.4 181.61C80.29 182.8 80.09 183.99 80.08 185.18C80.08 189.51 80.08 193.84 80.08 198.18C79.98 207.85 75.31 214.74 66.27 218.07C53.27 222.85 40.27 227.44 27.27 232.07L8.48002 238.81C7.25085 239.318 5.97922 239.716 4.68 240C3.76505 240.19 2.81218 240.03 2.00895 239.553C1.20572 239.075 0.610336 238.315 0.340002 237.42C-0.0372203 236.564 -0.0630885 235.593 0.26795 234.718C0.598989 233.843 1.26045 233.133 2.10999 232.74C3.44255 232.065 4.83109 231.506 6.26002 231.07L61.19 211.28C69.88 208.13 72 205.13 72 195.73C72 188.57 72.08 181.4 71.95 174.24C71.95 172.68 71.63 170.71 70.67 169.64C62.15 160.14 59.28 148.37 57.11 136.34C56.9674 135.128 56.5409 133.966 55.8649 132.95C55.189 131.933 54.2828 131.09 53.22 130.49C44.53 125.02 40.22 116.94 40.02 106.7C39.96 104.03 40.02 101.37 40.02 98.7001C40 89.1301 41.86 86.3901 50.9 82.8101ZM120.5 192.13C122.995 191.995 125.495 191.995 127.99 192.13C130.06 192.411 132.167 192.21 134.146 191.542C136.125 190.874 137.924 189.758 139.4 188.28C146.47 181.48 153.57 174.7 160.4 167.62C166.46 161.28 171.07 153.95 172.86 145.2C174.36 137.87 176.13 130.54 176.93 123.12C178.79 105.91 180.42 88.6601 181.61 71.3801C182.663 57.5966 178.617 43.9063 170.24 32.9101C156.89 15.1301 138.84 7.5401 116.8 8.1301C84.32 8.9701 57.42 36.4501 58.47 68.9101C59.21 91.3801 61.04 113.82 65.19 135.97C66.69 143.97 68.07 152.13 72.88 158.97C80.2864 169.484 89.0716 178.955 99 187.13C103.28 190.7 107.8 192.91 113.55 192.13C115.864 191.982 118.186 191.982 120.5 192.13ZM51.66 91.5601C48.66 92.1201 48.03 93.8601 48.03 96.0101C48.03 100.15 47.82 104.3 48.13 108.42C48.2196 110.811 48.8254 113.155 49.9059 115.29C50.9865 117.426 52.5162 119.302 54.39 120.79C53.42 110.47 52.56 101.18 51.66 91.5601ZM185.66 120.9C189.45 117.67 191.12 114.4 191.49 110.9C191.952 105.627 192.069 100.329 191.84 95.0401C191.84 93.8401 190.32 92.6701 189.5 91.4901L188.5 91.9201C187.54 101.13 186.63 110.44 185.62 120.9H185.66Z" fill="#4287C7"/>
</g>
<defs>
<clipPath id="clip0_47_4474">
<rect width="240" height="240.08" fill="white"/>
</clipPath>
</defs>
</svg>
