<svg width="101" height="111" viewBox="0 0 101 111" fill="none" xmlns="http://www.w3.org/2000/svg">
<g clip-path="url(#clip0_51_4603)">
<path d="M0.579969 83.2601C0.253243 85.2288 0.276948 87.2397 0.649976 89.2001C1.28838 93.0699 2.29289 96.8703 3.64998 100.55C5.26998 104.8 8.37997 108.88 13.18 109.48C18.899 109.977 24.6407 110.164 30.38 110.04C35.4023 110.009 40.4156 109.611 45.38 108.85C51.19 107.85 56.99 106.71 62.9 106.5C71.47 105.86 100.3 105.08 100.2 93.5001C100.43 87.4501 98.79 81.5001 96.48 75.9401C95.5217 73.4753 94.2872 71.127 92.8 68.9401C91.8658 67.5683 90.7565 66.3245 89.5 65.2402C88.23 64.1502 86.83 62.9901 86.5 61.2901C84.35 50.1101 81.58 38.8201 75.91 28.8201C73.3336 24.2684 70.1994 20.0558 66.58 16.2801C61.42 9.65013 55.08 4.28015 46.98 1.70015C43.789 0.660952 40.4647 0.0883553 37.11 0.000135971C34.1446 -0.00751424 31.1871 0.307678 28.29 0.940138C21.4324 2.59155 15.1882 6.16467 10.29 11.2402C8.90008 12.821 7.69557 14.5555 6.69996 16.4101C4.72398 19.8554 3.23324 23.557 2.26997 27.4101C-0.900029 41.0701 0.119969 55.2702 1.43997 69.1102C1.64997 71.3602 1.83997 73.6002 1.87997 75.8602C1.90214 77.15 1.778 78.4382 1.50996 79.7001C1.11098 80.8618 0.800112 82.0518 0.579969 83.2601Z" fill="#AA8E79"/>
<path d="M7.45998 78.2901C15.14 77.4001 22.74 75.9601 30.39 74.8901C42.13 73.2701 53.82 71.2701 65.53 69.4201C71 68.5401 76.47 67.7001 81.9 66.5701L85.41 65.8901C85.97 65.7001 86.96 65.89 86.96 65.03C86.9521 64.9365 86.9234 64.846 86.876 64.765C86.8286 64.684 86.7637 64.6146 86.6861 64.5619C86.6085 64.5092 86.5201 64.4745 86.4273 64.4603C86.3345 64.4462 86.2398 64.4529 86.15 64.4801C84.3 64.7201 82.46 65.0501 80.61 65.3601C74.82 66.3601 68.99 67.2401 63.17 68.1601C54.64 69.4901 46.1 71.0001 37.54 72.0801C28.34 73.2601 19.17 74.34 9.98998 75.62L7.16997 76.0401C6.89465 76.104 6.6529 76.2679 6.49163 76.5C6.33035 76.7322 6.26107 77.0159 6.2972 77.2962C6.33333 77.5765 6.47231 77.8335 6.68717 78.0171C6.90203 78.2007 7.17745 78.298 7.45998 78.2901Z" fill="#70533E"/>
<path d="M95.68 97.3C95.8642 97.2591 96.0258 97.1493 96.1317 96.9932C96.2377 96.837 96.28 96.6463 96.25 96.46C95.95 94.72 95.58 93 95.19 91.28C94.8 89.56 94.44 87.84 94.05 86.12C92.6 79.99 90.98 73.72 87.49 68.39C86.77 67.39 85.49 65.54 84.21 65.5C84.0629 65.514 83.9256 65.5802 83.8229 65.6866C83.7202 65.7929 83.6589 65.9325 83.65 66.08C83.658 66.2144 83.6975 66.3451 83.7652 66.4615C83.833 66.5778 83.9271 66.6767 84.04 66.75C84.3473 67.0651 84.6345 67.399 84.9 67.75C86.34 69.8751 87.528 72.1604 88.44 74.56C90.3858 79.7173 92.0548 84.9747 93.44 90.31C93.98 92.42 94.44 94.56 94.84 96.71C94.8742 96.8991 94.9815 97.0671 95.1388 97.1776C95.2961 97.288 95.4905 97.332 95.68 97.3Z" fill="#70533E"/>
<path d="M85.58 84.0901C85.6615 84.0745 85.7391 84.043 85.8084 83.9973C85.8777 83.9517 85.9373 83.8928 85.9838 83.824C86.0302 83.7552 86.0626 83.678 86.0792 83.5966C86.0957 83.5153 86.096 83.4315 86.08 83.3501C85.85 82.3501 85.59 81.3501 85.33 80.3501L84.25 76.2701C83.5641 73.393 82.6717 70.569 81.58 67.8201C81.23 67.1501 80.58 64.8201 79.58 66.0401C79.38 66.4201 79.75 66.9001 79.85 67.2301C81.46 71.5601 82.85 76.0001 84.08 80.4301C84.37 81.4901 84.63 82.5401 84.88 83.6001C84.9158 83.7536 85.007 83.8886 85.1362 83.979C85.2654 84.0694 85.4234 84.109 85.58 84.0901Z" fill="#70533E"/>
<path d="M85.73 103.44C85.9081 103.401 86.0646 103.296 86.1669 103.145C86.2693 102.994 86.3098 102.81 86.28 102.63C85.82 99.7299 85.2 96.8599 84.66 93.9799C83.1351 85.2882 80.7913 76.7602 77.66 68.5099C77.4999 67.9923 77.2419 67.5102 76.9 67.0899C76.32 66.7599 75.9 67.3999 76.14 67.9399C77.38 72.0999 78.72 76.2199 79.84 80.4099C81.45 86.6899 83 92.9999 84.34 99.3499C84.57 100.53 84.79 101.71 84.97 102.9C85.0062 103.069 85.1043 103.218 85.245 103.318C85.3857 103.418 85.5587 103.461 85.73 103.44Z" fill="#70533E"/>
<path d="M77.3 104.82C77.466 104.786 77.6122 104.689 77.7074 104.549C77.8027 104.409 77.8395 104.237 77.81 104.07C76.69 97.7102 75.6 91.3469 74.54 84.9802C73.54 79.3002 72.27 73.6302 70.79 68.0602C70.7158 67.9546 70.6127 67.8727 70.4931 67.8243C70.3735 67.7759 70.2424 67.7631 70.1157 67.7874C69.989 67.8117 69.8719 67.872 69.7787 67.9612C69.6854 68.0504 69.6199 68.1647 69.59 68.2902C69.5937 68.6836 69.6373 69.0756 69.72 69.4602C71.51 78.5902 73.52 87.6702 75.23 96.8202C75.69 99.3135 76.13 101.81 76.55 104.31C76.5839 104.476 76.6813 104.622 76.8214 104.718C76.9615 104.813 77.1332 104.85 77.3 104.82Z" fill="#70533E"/>
<path d="M70.67 105.49C70.889 105.442 71.081 105.311 71.2058 105.125C71.3307 104.938 71.3787 104.711 71.34 104.49C70.73 101.49 70.18 98.49 69.63 95.49C68.63 89.6199 67.44 83.7599 66.5 77.8699C66.17 75.7699 65.87 73.6699 65.58 71.5599C65.552 70.9028 65.4308 70.253 65.22 69.6299C65.1576 69.5578 65.0768 69.5038 64.9862 69.4738C64.8956 69.4437 64.7987 69.4386 64.7055 69.4591C64.6123 69.4796 64.5263 69.5249 64.4567 69.5901C64.3871 69.6554 64.3364 69.7383 64.31 69.8299C64.2151 70.8723 64.2352 71.922 64.37 72.96C64.61 75.61 64.94 78.1999 65.37 80.8199C66.51 88.3099 67.97 95.7399 69.37 103.17C69.58 104 69.41 105.64 70.67 105.49Z" fill="#70533E"/>
<path d="M58.38 76.82C58.31 75.2 58.26 73.59 58.12 71.98C58.0807 71.4083 58.0005 70.8402 57.88 70.28C57.8281 70.1233 57.7177 69.9928 57.5719 69.9156C57.4261 69.8385 57.256 69.8206 57.0973 69.8657C56.9386 69.9109 56.8035 70.0156 56.7202 70.158C56.6368 70.3004 56.6117 70.4695 56.65 70.63C56.75 72.72 56.84 74.82 56.94 76.91C56.9519 77.1009 57.0392 77.2793 57.1827 77.4059C57.3262 77.5325 57.5141 77.5969 57.705 77.585C57.896 77.5731 58.0744 77.4857 58.2009 77.3423C58.3275 77.1988 58.3919 77.0109 58.38 76.82Z" fill="#70533E"/>
<path d="M55.29 103.87C55.4876 103.827 55.661 103.709 55.7745 103.542C55.888 103.374 55.9329 103.17 55.9 102.97C55.66 101.45 55.44 99.9701 55.23 98.4501C54.99 96.5801 54.79 94.7101 54.55 92.8401C53.77 87.1201 52.91 81.4101 52.19 75.6801C52.02 74.3101 51.87 72.9301 51.76 71.5501C51.71 71.2001 51.81 70.7801 51.52 70.5501C51.4404 70.4808 51.3447 70.4325 51.2416 70.4098C51.1385 70.3871 51.0314 70.3906 50.93 70.4201C50.18 70.5301 50.53 72.6201 50.47 73.2101C50.56 75.7601 50.82 78.3001 51.1 80.8301C51.77 86.8301 52.63 92.8301 53.69 98.7401C53.93 100.25 54.16 101.74 54.4 103.3C54.4454 103.492 54.5636 103.659 54.7297 103.765C54.8958 103.872 55.0967 103.909 55.29 103.87Z" fill="#70533E"/>
<path d="M46.18 93.1901C45.5 86.3601 44.8 79.5301 44.02 72.7201C44.02 71.6201 42.63 71.7201 42.74 72.7801C42.86 78.8501 43.74 84.8701 44.35 90.9101L44.59 93.2901C44.6103 93.4987 44.7097 93.6916 44.8677 93.8292C45.0258 93.9669 45.2306 94.0387 45.44 94.0301C45.5438 94.0237 45.6454 93.9969 45.7388 93.9512C45.8322 93.9055 45.9157 93.8418 45.9845 93.7638C46.0532 93.6857 46.1059 93.5949 46.1395 93.4964C46.173 93.398 46.1868 93.2939 46.18 93.1901Z" fill="#70533E"/>
<path d="M43.05 106.7C43.2588 106.659 43.443 106.537 43.5627 106.361C43.6825 106.185 43.7282 105.969 43.69 105.76C43.35 104.33 43.03 102.89 42.69 101.44C42.09 98.5601 41.51 95.6701 40.89 92.7801C39.77 87.3801 38.71 81.9601 37.75 76.5301C37.6 75.6601 37.45 74.8001 37.29 73.9301C37.2 73.5301 37.19 72.8501 36.63 72.8701C36.07 72.8901 36.19 73.5901 36.23 74.0101C36.33 75.1001 36.47 76.2201 36.6 77.2801C37.4 83.5534 38.4533 89.7734 39.76 95.9401C40.39 98.7901 41.08 101.63 41.76 104.48C42.03 105.25 41.88 106.82 43.05 106.7Z" fill="#70533E"/>
<path d="M32.47 85.9102C32.18 82.1102 31.85 78.2902 31.63 74.4902C31.5911 74.377 31.5199 74.2777 31.425 74.2047C31.3301 74.1317 31.2159 74.0882 31.0965 74.0797C30.9771 74.0711 30.8578 74.0979 30.7535 74.1567C30.6492 74.2155 30.5645 74.3036 30.51 74.4102C30.4245 75.8799 30.4479 77.3539 30.58 78.8202C30.71 81.2102 30.89 83.6002 31.09 85.9802C31.0993 86.1632 31.1809 86.335 31.3168 86.4578C31.3842 86.5187 31.4628 86.5656 31.5483 86.5961C31.6337 86.6265 31.7244 86.6398 31.815 86.6352C31.9056 86.6306 31.9944 86.6082 32.0764 86.5693C32.1583 86.5303 32.2318 86.4757 32.2926 86.4083C32.3535 86.341 32.4004 86.2624 32.4308 86.1769C32.4613 86.0914 32.4746 86.0008 32.47 85.9102Z" fill="#70533E"/>
<path d="M35.74 106.57C35.8499 106.55 35.9545 106.508 36.0475 106.446C36.1404 106.384 36.2198 106.304 36.2806 106.21C36.3415 106.117 36.3826 106.011 36.4014 105.901C36.4202 105.791 36.4163 105.679 36.39 105.57C36.02 103.86 35.68 102.15 35.39 100.42C35.02 97.94 34.39 95.51 33.8 93.08C33.64 92.41 33.47 91.73 33.34 91.08C33.337 90.9819 33.3131 90.8855 33.2699 90.7974C33.2267 90.7092 33.1652 90.6313 33.0894 90.5689C33.0137 90.5064 32.9255 90.4608 32.8308 90.4351C32.7361 90.4095 32.6369 90.4043 32.54 90.42C32.4472 90.4384 32.3593 90.4759 32.2818 90.5302C32.2044 90.5845 32.1391 90.6543 32.0902 90.7352C32.0412 90.8162 32.0097 90.9064 31.9976 91.0002C31.9856 91.094 31.9932 91.1893 32.02 91.28C32.14 92.13 32.25 92.99 32.37 93.83C32.6877 96.4131 33.1619 98.9744 33.79 101.5C34.14 102.96 34.44 104.43 34.79 105.9C34.8314 106.113 34.9534 106.301 35.1304 106.426C35.3074 106.551 35.5258 106.602 35.74 106.57Z" fill="#70533E"/>
<path d="M30.24 108C30.3501 107.98 30.455 107.938 30.5484 107.876C30.6417 107.814 30.7216 107.734 30.7833 107.641C30.8449 107.547 30.8871 107.442 30.9071 107.332C30.9272 107.222 30.9248 107.109 30.9 107C30.17 103.94 29.59 100.84 29.06 97.7399C27.81 90.5399 26.3 83.3699 25.78 76.0699C25.7515 75.9633 25.6904 75.8682 25.6052 75.7979C25.5201 75.7277 25.4151 75.6858 25.305 75.6781C25.1949 75.6703 25.0851 75.6972 24.991 75.7549C24.8968 75.8126 24.8231 75.8983 24.78 75.9999C24.6927 76.2329 24.6553 76.4816 24.67 76.7299C24.655 79.7803 24.8555 82.8278 25.27 85.8499C25.89 90.9299 26.86 95.9499 27.89 100.96C28.2 102.45 28.49 103.96 28.82 105.43C28.95 106.06 29.1 106.69 29.25 107.31C29.2667 107.422 29.306 107.529 29.3656 107.625C29.4251 107.721 29.5036 107.804 29.5963 107.868C29.689 107.933 29.7939 107.978 29.9046 108C30.0153 108.023 30.1294 108.023 30.24 108Z" fill="#70533E"/>
<path d="M20.98 109.02C21.73 108.85 21.71 108.15 21.59 107.55C20.79 100.63 20.59 93.6402 20.22 86.6902C20.0264 83.4539 20.0832 80.2076 20.39 76.9802C20.3845 76.8583 20.3463 76.7401 20.2794 76.6381C20.2126 76.5361 20.1195 76.4538 20.01 76.4002C18.82 75.9802 18.89 77.7002 18.77 78.4002C18.64 79.7202 18.56 81.0502 18.5 82.4002C18.15 89.4002 18.87 96.4501 19.5 103.4C19.65 105.04 19.8 106.67 20.02 108.3C20.0546 108.522 20.1743 108.721 20.3536 108.855C20.5329 108.99 20.7577 109.049 20.98 109.02Z" fill="#70533E"/>
<path d="M13.43 106.35C13.5654 106.329 13.695 106.28 13.8107 106.207C13.9265 106.133 14.0259 106.037 14.1028 105.923C14.1797 105.81 14.2324 105.682 14.2578 105.547C14.2831 105.412 14.2804 105.274 14.25 105.14C13.73 102.79 13.41 100.4 13.1 98.0202C12.83 95.9602 12.62 94.0202 12.36 91.9502C11.8722 88.7789 11.5983 85.5783 11.54 82.3702C11.54 81.3702 11.54 80.3202 11.66 79.2902C11.6936 79.1762 11.6953 79.0552 11.6649 78.9403C11.6345 78.8254 11.5731 78.721 11.4876 78.6385C11.402 78.5561 11.2954 78.4986 11.1795 78.4725C11.0636 78.4463 10.9427 78.4525 10.83 78.4902C10.8598 78.486 10.8901 78.486 10.92 78.4902C10.4 78.5902 10.36 79.1902 10.3 79.6202C10.19 80.3102 10.11 81.0102 10.04 81.7102C9.53 86.6302 10.17 91.6602 10.78 96.5202C11.19 99.5202 11.57 102.58 12.21 105.52C12.2633 105.791 12.4213 106.03 12.6496 106.186C12.878 106.341 13.1583 106.4 13.43 106.35Z" fill="#70533E"/>
<path d="M7.07 99.8999C6.65 93.1599 5.65999 86.3699 5.83999 79.6299C5.83465 79.4072 5.74595 79.1945 5.59144 79.034C5.43692 78.8735 5.22783 78.7768 5.00545 78.7629C4.78308 78.7491 4.5636 78.8192 4.3904 78.9594C4.2172 79.0995 4.10288 79.2995 4.07 79.5199C3.95314 86.3673 4.23695 93.2156 4.91999 100.03C4.95676 100.3 5.09419 100.546 5.30472 100.719C5.51526 100.892 5.78336 100.979 6.05529 100.962C6.32722 100.946 6.58289 100.827 6.77106 100.63C6.95924 100.433 7.06602 100.172 7.07 99.8999Z" fill="#70533E"/>
<path d="M75.64 66.5801C75.7053 66.4885 75.7476 66.3825 75.7633 66.2711C75.779 66.1597 75.7675 66.0461 75.73 65.9401C75.62 65.2101 75.45 64.5001 75.28 63.7901C74.89 62.1701 74.41 60.5701 73.92 58.9801C72.76 55.2668 71.4534 51.6001 70 47.9801C67.3912 41.6023 64.3092 35.4285 60.78 29.5101C55.78 21.0101 49.78 12.9701 42.28 6.45009C40.2733 4.64003 38.1449 2.96946 35.91 1.45009C35.7791 1.40079 35.6355 1.39646 35.5018 1.43779C35.3682 1.47913 35.2521 1.56379 35.1719 1.6784C35.0917 1.793 35.0518 1.93103 35.0588 2.07076C35.0657 2.21049 35.1189 2.34396 35.21 2.45009C35.63 2.76009 36.06 3.0701 36.47 3.3901C38.86 5.2901 41.08 7.3901 43.29 9.4901C54.55 20.4901 62.68 34.2501 68.66 48.6901C70.24 52.6101 71.66 56.6101 72.86 60.6901C73.27 62.0701 73.66 63.4601 74 64.8701C74.1 65.2701 74.19 65.6701 74.27 66.0701C74.257 66.2348 74.298 66.3993 74.3869 66.5387C74.4758 66.678 74.6076 66.7846 74.7625 66.8422C74.9174 66.8999 75.0868 66.9055 75.2452 66.8582C75.4035 66.8109 75.5421 66.7133 75.64 66.5801Z" fill="#70533E"/>
<path d="M59.15 67.9999C59.2597 67.9783 59.3641 67.9354 59.4572 67.8734C59.5503 67.8115 59.6302 67.7318 59.6925 67.6389C59.7547 67.546 59.798 67.4417 59.8199 67.3321C59.8418 67.2224 59.8418 67.1095 59.82 66.9999C58.8048 60.2862 57.277 53.6602 55.25 47.1799C52.8902 39.3074 49.9933 31.606 46.58 24.1299C43.21 16.9899 39.44 9.85987 34.16 3.93987C33.3953 3.11342 32.5769 2.33839 31.71 1.61986C31.31 1.24986 30.62 0.889874 30.26 1.53987C30.07 1.90987 30.26 2.24987 30.55 2.53987C30.93 3.01987 31.33 3.53988 31.73 3.97988C32.44 4.83988 33.16 5.75986 33.82 6.64986C38.3569 13.1933 42.201 20.191 45.29 27.5299C49.5939 37.2492 53.1639 47.2773 55.97 57.5299C56.42 59.2599 56.84 60.9699 57.25 62.7099C57.6 64.2499 57.95 65.7799 58.18 67.3399C58.2236 67.5547 58.3494 67.744 58.5307 67.8673C58.7119 67.9906 58.9341 68.0382 59.15 67.9999Z" fill="#70533E"/>
<path d="M43.37 71.6901C44.22 71.4601 43.76 70.5501 43.61 69.9701C41.61 62.7001 40.06 55.3701 38.61 47.9701C36.43 36.2801 33.56 24.7301 31.39 13.0401C31 10.7201 30.68 8.39011 30.29 6.04011C30.29 5.57011 30.15 4.95012 29.56 4.99012C29.3893 5.00045 29.2296 5.07759 29.1154 5.20487C29.0012 5.33216 28.9418 5.49932 28.95 5.67012C29.01 6.41012 29.05 7.14011 29.09 7.88011C29.27 10.3001 29.68 12.6901 30.09 15.0901C31.39 23.3601 33.5 31.4701 35.19 39.6601C36.97 48.0801 38.63 56.5301 40.8 64.8601C41.29 66.7401 41.8 68.6301 42.43 70.4601C42.58 71.0001 42.64 71.8201 43.37 71.6901Z" fill="#70533E"/>
<path d="M29.89 70.3902C30.1255 70.3442 30.3333 70.2069 30.4682 70.0084C30.603 69.8099 30.654 69.5661 30.61 69.3302C30.25 67.6102 29.99 65.8802 29.76 64.1402C29.03 58.8902 28.33 53.6402 27.63 48.3902C26.544 40.7682 25.9196 33.0875 25.76 25.3902C25.5325 19.3738 25.8505 13.3492 26.71 7.39022C26.863 6.28771 27.1553 5.20906 27.58 4.1802C27.6303 4.10833 27.6636 4.02602 27.6774 3.93941C27.6913 3.85281 27.6853 3.76416 27.66 3.6802C26.56 2.0602 25.55 6.19021 25.4 6.91021C23.99 13.1302 23.87 19.5502 23.86 25.9102C23.836 34.1138 24.4041 42.3084 25.56 50.4302C26.23 55.4302 26.99 60.4302 27.95 65.3702C28.25 66.8302 28.53 68.3002 28.83 69.7602C28.8953 69.9791 29.0406 70.1654 29.237 70.2821C29.4334 70.3988 29.6665 70.4374 29.89 70.3902Z" fill="#70533E"/>
<path d="M20.4 75.0298C20.5074 74.9913 20.5976 74.9159 20.6544 74.8169C20.7112 74.7179 20.7309 74.602 20.71 74.4898C20.56 73.6698 20.37 72.8698 20.21 72.0598C19.5833 69.0531 19.02 66.0265 18.52 62.9798C16.75 51.8598 14.7 40.6998 14.63 29.4098C14.5156 24.0811 15.3799 18.7766 17.18 13.7598C18.4091 10.9738 20.1958 8.46896 22.43 6.39981C23.2652 5.58631 24.1466 4.82172 25.07 4.10984C25.7 3.63984 26.35 3.17983 27.07 2.75983C27.2636 2.62722 27.3966 2.42312 27.4397 2.19245C27.4828 1.96178 27.4326 1.72343 27.3 1.52982C27.1674 1.33621 26.9633 1.20323 26.7326 1.1601C26.502 1.11697 26.2636 1.16723 26.07 1.29984C24.3608 2.39424 22.7452 3.62847 21.24 4.98984C10.24 14.9198 11.04 32.2298 13.15 45.6798C14.5718 54.6044 16.4678 63.4469 18.83 72.1698C19.0584 72.955 19.3322 73.7263 19.65 74.4798C19.77 74.8198 20.02 75.1498 20.4 75.0298Z" fill="#70533E"/>
<path d="M74.34 62.1C74.531 62.0617 74.6995 61.9505 74.81 61.79C75.4078 60.9567 75.9554 60.0884 76.45 59.19C76.83 58.52 77.18 57.83 77.52 57.14C77.64 56.89 77.83 56.63 77.74 56.34C77.52 55.79 76.91 55.93 76.67 56.4C75.91 57.51 75.14 58.61 74.42 59.75C74.15 60.16 73.87 60.57 73.59 60.97C73.512 61.091 73.4709 61.2321 73.4718 61.376C73.4728 61.52 73.5157 61.6605 73.5953 61.7805C73.6749 61.9004 73.7877 61.9945 73.92 62.0513C74.0523 62.108 74.1982 62.125 74.34 62.1Z" fill="#70533E"/>
<path d="M74.24 58.7401C74.5764 56.2684 75.1217 53.8297 75.87 51.4501C76.03 51.1001 76.32 50.71 76.01 50.37C75.9236 50.2687 75.806 50.1989 75.6756 50.1718C75.5453 50.1446 75.4096 50.1616 75.29 50.22C74.7373 50.7998 74.3445 51.5131 74.15 52.29C73.6183 54.3303 73.2307 56.4054 72.99 58.5C72.9768 58.6575 73.0223 58.8143 73.1177 58.9403C73.2132 59.0662 73.3518 59.1523 73.507 59.1821C73.6622 59.2119 73.823 59.1833 73.9583 59.1016C74.0936 59.02 74.1939 58.8912 74.24 58.7401Z" fill="#70533E"/>
<path d="M72.18 51.4599C72.18 50.2399 72.36 49.0499 72.52 47.8699C72.6518 46.2648 72.8958 44.6709 73.25 43.0999C73.2588 42.9409 73.2079 42.7843 73.1074 42.6608C73.0068 42.5373 72.8639 42.4557 72.7064 42.432C72.549 42.4082 72.3883 42.444 72.2558 42.5324C72.1233 42.6208 72.0286 42.7554 71.99 42.9099C71.1423 45.647 70.7042 48.4945 70.69 51.3599C70.6951 51.5465 70.7696 51.7245 70.899 51.8591C71.0283 51.9938 71.2032 52.0753 71.3895 52.0878C71.5758 52.1003 71.7601 52.0429 71.9062 51.9268C72.0524 51.8106 72.1501 51.6442 72.18 51.4599Z" fill="#70533E"/>
<path d="M74.38 61.3299C75.64 60.0699 65.5 53.9799 64.21 53.3899C64.0467 53.3249 63.8649 53.3238 63.7008 53.3867C63.5367 53.4495 63.4023 53.5718 63.3242 53.7293C63.2461 53.8867 63.2301 54.0678 63.2793 54.2365C63.3286 54.4052 63.4395 54.5492 63.59 54.6399C66.6465 56.3313 69.5924 58.215 72.41 60.2799C72.77 60.5699 73.11 60.8599 73.41 61.1799C73.4509 61.2679 73.5129 61.3445 73.5905 61.4029C73.6682 61.4612 73.7589 61.4995 73.8549 61.5143C73.9508 61.5292 74.049 61.5201 74.1406 61.4879C74.2322 61.4558 74.3144 61.4015 74.38 61.3299Z" fill="#70533E"/>
<path d="M71.88 54.7498C71.9655 54.7035 72.0399 54.6391 72.098 54.5612C72.1561 54.4833 72.1965 54.3936 72.2165 54.2984C72.2365 54.2033 72.2355 54.1049 72.2137 54.0102C72.1918 53.9155 72.1496 53.8266 72.09 53.7498L72.14 53.8198C70.9893 52.6769 69.679 51.7068 68.25 50.9398C66.45 49.8598 64.66 48.7698 62.84 47.7298C62.6789 47.6557 62.4952 47.6473 62.3281 47.7066C62.1609 47.766 62.0236 47.8882 61.9454 48.0474C61.8671 48.2065 61.8541 48.39 61.9091 48.5585C61.9642 48.7271 62.0829 48.8675 62.24 48.9498C63.76 49.8098 65.17 50.6798 66.63 51.5998C68.09 52.5198 69.63 53.3998 71.02 54.5198C71.02 54.5198 71.02 54.4598 70.97 54.4298C71.0075 54.5117 71.061 54.5852 71.1275 54.6459C71.194 54.7066 71.2721 54.7533 71.357 54.7832C71.4419 54.8131 71.532 54.8255 71.6219 54.8198C71.7118 54.814 71.7995 54.7902 71.88 54.7498Z" fill="#70533E"/>
<path d="M69.01 47.0302C69.1355 46.8907 69.2006 46.7073 69.1913 46.5199C69.1819 46.3325 69.0988 46.1565 68.96 46.0302C68.36 45.5202 67.75 45.0302 67.13 44.5502C65.4454 43.13 63.4889 42.0683 61.38 41.4302C61.2567 41.3641 61.1209 41.3246 60.9814 41.3143C60.8418 41.3039 60.7017 41.323 60.57 41.3702C60.4551 41.4289 60.3599 41.5199 60.2962 41.6322C60.2325 41.7444 60.2031 41.8728 60.2116 42.0015C60.2201 42.1303 60.2662 42.2537 60.3441 42.3566C60.422 42.4594 60.5284 42.5372 60.65 42.5802C61.29 42.7902 61.92 43.0502 62.54 43.3002C63.8435 43.865 65.0619 44.6088 66.16 45.5102C66.79 46.0202 67.42 46.5102 68.02 47.0702C68.1577 47.1939 68.3382 47.2589 68.5231 47.2515C68.7081 47.244 68.8827 47.1646 69.01 47.0302Z" fill="#70533E"/>
<path d="M68.91 47.46C68.9676 44.7278 69.2015 42.0021 69.61 39.3C69.7 38.75 69.81 38.21 69.95 37.68C70.06 37.31 70.3 36.75 69.83 36.53H69.89C69.22 36.14 69.01 37.04 68.89 37.53C68.3522 39.693 67.9977 41.8974 67.83 44.12C67.73 45.22 67.72 46.33 67.73 47.43C67.7372 47.5761 67.7986 47.7144 67.9021 47.8179C68.0056 47.9214 68.1438 47.9827 68.29 47.99C68.4411 47.9961 68.5889 47.9448 68.7039 47.8465C68.8188 47.7483 68.8925 47.6102 68.91 47.46Z" fill="#70533E"/>
<path d="M65.67 40.8201C66.23 40.7101 66.24 40.1201 66.13 39.6601C66.01 38.6001 65.97 37.5301 65.95 36.4701C65.9504 35.093 66.1285 33.7217 66.48 32.3902C66.66 31.9202 66.63 31.3301 66.02 31.2601C65.9391 31.2547 65.8579 31.2655 65.7812 31.2919C65.7044 31.3182 65.6337 31.3596 65.5732 31.4136C65.5127 31.4677 65.4635 31.5332 65.4286 31.6064C65.3938 31.6797 65.3738 31.7591 65.37 31.8401C64.881 33.5708 64.6386 35.3618 64.65 37.1601C64.63 38.2121 64.7104 39.2635 64.89 40.3002C64.9285 40.4704 65.0309 40.6192 65.1761 40.716C65.3213 40.8128 65.4981 40.8501 65.67 40.8201Z" fill="#70533E"/>
<path d="M66.05 40.16C66.39 39.34 65.26 39.0999 64.8 38.6499C62.9483 37.2216 61.0077 35.9123 58.99 34.73C58.32 34.48 56.99 33.62 56.54 34.51C56.4954 34.5972 56.4685 34.6924 56.461 34.79C56.4535 34.8877 56.4654 34.9859 56.4961 35.0789C56.5268 35.1719 56.5756 35.2579 56.6398 35.3319C56.704 35.4059 56.7823 35.4664 56.87 35.51C57.71 35.88 58.52 36.3 59.32 36.74C60.85 37.64 62.32 38.62 63.82 39.61C64.45 39.91 65.47 41.09 66.05 40.16Z" fill="#70533E"/>
<path d="M62.94 34.1801C63.29 33.9301 63.23 33.4301 63.23 33.1001C63.23 31.7401 63.23 30.5501 63.23 29.2301C63.23 27.9101 63.47 26.7801 63.68 25.5701C63.73 25.2901 63.84 24.9601 63.62 24.7201C63.5432 24.6301 63.4384 24.5683 63.3224 24.5448C63.2064 24.5212 63.0859 24.5372 62.98 24.5901C62.8882 24.6286 62.8103 24.6943 62.7567 24.7782C62.7031 24.8622 62.6763 24.9605 62.68 25.0601C62.6047 25.3433 62.5446 25.6304 62.5 25.9201C62.0598 27.9983 61.832 30.1158 61.82 32.2401C60.0368 30.6327 57.9813 29.3561 55.75 28.4701C55.15 28.2201 54.55 28.0001 53.95 27.7701C53.8128 27.7211 53.6623 27.7247 53.5275 27.78C53.3927 27.8354 53.2832 27.9388 53.22 28.0701C53.1501 28.2136 53.1392 28.3788 53.1897 28.5302C53.2402 28.6816 53.348 28.8072 53.49 28.8801C55.604 29.811 57.6375 30.9148 59.57 32.1801C60.07 32.5601 60.57 32.9401 61.03 33.3601C61.49 33.7801 62.21 34.7201 62.94 34.1801Z" fill="#70533E"/>
<path d="M58.2 27.8199C59.15 27.5799 58.73 26.1499 58.85 25.4199C58.8297 23.6853 59.0279 21.955 59.44 20.27C59.55 19.67 60.17 18.7599 59.33 18.4199C59.2413 18.3945 59.1484 18.3873 59.0569 18.399C58.9654 18.4106 58.8772 18.4407 58.7977 18.4875C58.7182 18.5342 58.649 18.5967 58.5944 18.671C58.5397 18.7454 58.5008 18.8301 58.48 18.9199C57.8139 21.149 57.4771 23.4635 57.48 25.7899C55.3943 23.9275 52.8003 22.7297 50.03 22.3499C49.17 22.1999 48.3 22.07 47.44 21.96C47.2799 21.9301 47.1144 21.9634 46.9783 22.0529C46.8422 22.1423 46.746 22.2811 46.71 22.4399C46.6804 22.6015 46.7151 22.7682 46.8066 22.9045C46.8981 23.0409 47.0393 23.1361 47.2 23.1699C49.73 23.7299 52.36 24.17 54.6 25.52C55.25 25.92 55.87 26.3599 56.48 26.8199C57.09 27.2799 57.47 27.9399 58.2 27.8199Z" fill="#70533E"/>
<path d="M54.45 21.67C54.6426 21.3744 54.7242 21.02 54.68 20.67C54.68 20.11 54.68 19.55 54.78 18.99C54.89 17.46 55.27 15.9399 55.34 14.4099C55.311 14.2383 55.219 14.0837 55.0821 13.9761C54.9452 13.8686 54.7732 13.816 54.5996 13.8285C54.4259 13.841 54.2632 13.9177 54.1431 14.0437C54.023 14.1697 53.9542 14.3359 53.95 14.51C53.8 16.35 53.38 18.11 53.3 19.95C51.7104 18.6349 49.9213 17.5817 48 16.83C47.38 16.62 46.74 16.43 46.11 16.23C45.9902 16.2222 45.8711 16.2539 45.771 16.3202C45.6708 16.3865 45.5951 16.4838 45.5555 16.5971C45.5158 16.7105 45.5143 16.8337 45.5513 16.9479C45.5882 17.0622 45.6615 17.1613 45.76 17.23C47.6387 17.9124 49.4203 18.8369 51.06 19.98C51.66 20.39 52.25 20.82 52.82 21.27C53.39 21.72 53.93 22.22 54.45 21.67Z" fill="#70533E"/>
<path d="M49.58 14.4699C49.7227 13.5587 49.8195 12.6409 49.87 11.7199C49.9696 10.757 50.1983 9.81187 50.55 8.90995C50.6253 8.79779 50.6637 8.66496 50.66 8.52995C50.6543 8.44386 50.6288 8.36027 50.5854 8.28568C50.542 8.21109 50.482 8.14752 50.41 8.09995C49.06 7.20995 48.6 12.42 48.41 13.23C46.9701 12.1262 45.3678 11.2524 43.66 10.64C43.5274 10.5869 43.3792 10.5887 43.2479 10.645C43.1166 10.7012 43.0131 10.8073 42.96 10.9399C42.907 11.0726 42.9088 11.2208 42.9651 11.3521C43.0213 11.4834 43.1274 11.5869 43.26 11.64C44.4688 12.2179 45.6321 12.8865 46.74 13.64C47.58 13.99 48.85 15.6399 49.58 14.4699Z" fill="#70533E"/>
<path d="M59.77 66.5799C60.5516 63.508 61.6893 60.5379 63.16 57.7299C63.47 57.2699 63.93 56.7299 63.32 56.2599C63.239 56.2054 63.1473 56.1688 63.051 56.1524C62.9547 56.136 62.856 56.1402 62.7615 56.1648C62.667 56.1894 62.5787 56.2337 62.5026 56.2949C62.4265 56.3562 62.3643 56.4329 62.32 56.5199C61.4553 57.8328 60.7122 59.2219 60.1 60.6699C59.0867 62.4219 58.453 64.3673 58.24 66.3799C58.2135 66.5828 58.2687 66.7879 58.3934 66.9501C58.5181 67.1123 58.7021 67.2184 58.905 67.2449C59.1079 67.2714 59.313 67.2163 59.4753 67.0915C59.6375 66.9668 59.7435 66.7828 59.77 66.5799Z" fill="#70533E"/>
<path d="M59.02 67.2599C59.62 67.0099 59.31 66.4199 58.96 66.0899C58.096 65.1453 57.1147 64.3152 56.04 63.6199C54.1675 62.3564 52.1539 61.316 50.04 60.5199C49.44 60.2999 48.85 60.0699 48.24 59.8999C48.0437 59.8244 47.8263 59.8244 47.63 59.8999C47.488 59.9724 47.3702 60.0847 47.291 60.2232C47.2118 60.3616 47.1748 60.5201 47.1843 60.6793C47.1939 60.8385 47.2496 60.9915 47.3448 61.1194C47.4399 61.2474 47.5703 61.3449 47.72 61.3999C48.51 61.6099 49.28 61.8899 50.06 62.1499C52.5571 62.9407 54.9056 64.1403 57.01 65.6999C57.5188 66.0818 57.9878 66.514 58.41 66.9899C58.4623 67.1006 58.5527 67.1889 58.6647 67.2384C58.7767 67.288 58.9028 67.2956 59.02 67.2599Z" fill="#70533E"/>
<path d="M57.83 58.7401C58.25 57.6601 58.46 56.4801 58.83 55.3901C59.3749 53.9161 60.044 52.4909 60.83 51.1301C60.9415 51.0009 60.9976 50.8331 60.9864 50.6628C60.9752 50.4926 60.8975 50.3336 60.77 50.2201C59.95 49.6001 59.52 50.8301 59.21 51.4001C58.1708 53.2008 57.393 55.1403 56.9 57.1601C55.2515 55.3792 53.1913 54.0298 50.9 53.2301C50.28 53.0101 49.65 52.8201 49.01 52.6601C48.8509 52.6177 48.6814 52.6402 48.5389 52.7227C48.3964 52.8052 48.2925 52.941 48.25 53.1001C48.2076 53.2592 48.2301 53.4287 48.3126 53.5712C48.3951 53.7138 48.5309 53.8177 48.69 53.8601C50.7509 54.4317 52.6919 55.37 54.42 56.6301C55.0896 57.1765 55.7273 57.7608 56.33 58.3801C56.68 58.8201 57.39 59.3601 57.83 58.7401Z" fill="#70533E"/>
<path d="M55.81 50.5499C56.28 50.4699 56.47 49.9999 56.65 49.6099C56.83 49.2199 57.1 48.7199 57.34 48.2899C57.94 47.2899 58.61 46.2899 59.27 45.2899C59.3762 45.2265 59.4574 45.1286 59.5001 45.0126C59.5428 44.8965 59.5444 44.7694 59.5046 44.6523C59.4648 44.5353 59.386 44.4354 59.2814 44.3694C59.1769 44.3034 59.0528 44.2754 58.93 44.2899C58.45 44.4499 58.22 44.9699 57.93 45.2899C56.9718 46.4405 56.1403 47.6911 55.45 49.0199C53.3577 47.3031 50.9913 45.9509 48.45 45.0199L46.45 44.3199C46.3712 44.2936 46.288 44.2831 46.2052 44.289C46.1223 44.2949 46.0415 44.317 45.9672 44.3542C45.8929 44.3913 45.8266 44.4427 45.7722 44.5055C45.7178 44.5682 45.6763 44.6411 45.65 44.7198C45.6238 44.7986 45.6133 44.8818 45.6191 44.9647C45.625 45.0475 45.6472 45.1284 45.6843 45.2027C45.7215 45.277 45.7729 45.3432 45.8356 45.3976C45.8984 45.4521 45.9712 45.4936 46.05 45.5199C48.2625 46.2856 50.3958 47.2634 52.42 48.4399C53.0657 48.8352 53.6869 49.2693 54.28 49.7399C54.73 50.1099 55.19 50.6499 55.81 50.5499Z" fill="#70533E"/>
<path d="M54.86 46.5898C55.35 46.4298 55.45 45.8998 55.56 45.4698C55.73 44.8798 55.89 44.2798 56.05 43.6898C56.37 42.4398 56.76 41.2098 57.16 39.9898C57.2047 39.8648 57.2113 39.7294 57.1788 39.6006C57.1464 39.4719 57.0765 39.3557 56.9779 39.2668C56.8794 39.1778 56.7566 39.1202 56.6252 39.1012C56.4938 39.0821 56.3598 39.1025 56.24 39.1598C55.81 39.3698 55.85 39.9298 55.65 40.3098C55.1567 41.7298 54.6867 43.1598 54.24 44.5998C51.99 41.9698 48.69 40.5998 45.37 39.8298C45.1883 39.8045 45.0037 39.8467 44.851 39.9483C44.6983 40.0499 44.5881 40.2039 44.5413 40.3813C44.4945 40.5586 44.5143 40.747 44.597 40.9107C44.6797 41.0744 44.8195 41.2022 44.99 41.2698C47.3627 41.8889 49.6142 42.9031 51.65 44.2698C52.2087 44.7135 52.7335 45.1981 53.22 45.7198C53.64 46.1298 54.19 46.8198 54.86 46.5898Z" fill="#70533E"/>
<path d="M52.95 40.3099C53.0738 39.915 53.1378 39.5038 53.14 39.0899C53.2271 38.0077 53.401 36.9343 53.66 35.8799C53.82 35.3099 53.99 34.7499 54.19 34.1899C54.39 33.6299 54.81 32.7199 53.96 32.6699C53.8237 32.6821 53.6965 32.7437 53.6026 32.8432C53.5086 32.9427 53.4543 33.0732 53.45 33.2099C52.6394 34.8522 52.0863 36.6094 51.81 38.4199C49.3548 35.923 46.2632 34.1455 42.87 33.2799C42.23 33.0999 41.59 32.9399 40.94 32.7799C40.7791 32.7564 40.6152 32.7931 40.4796 32.883C40.3441 32.9729 40.2466 33.1096 40.2057 33.267C40.1648 33.4244 40.1834 33.5913 40.258 33.7358C40.3326 33.8803 40.458 33.9922 40.61 34.0499C42.1 34.5399 43.61 34.9799 45.06 35.5699C46.6877 36.2884 48.2222 37.2018 49.63 38.2899C50.2392 38.7692 50.7987 39.3086 51.3 39.8999C51.7 40.4499 52.43 41.1299 52.95 40.3099Z" fill="#70533E"/>
<path d="M50.13 32.5102C50.6 31.4402 50.86 30.2702 51.27 29.1602C51.47 28.5302 52.1 27.0902 50.91 27.1602C50.7655 27.191 50.6367 27.2724 50.5468 27.3897C50.457 27.507 50.412 27.6526 50.42 27.8002C50.02 29.0502 49.42 30.2202 49 31.4602C47.22 30.4602 45.58 29.2202 43.72 28.3802C42.0505 27.6302 40.2984 27.0798 38.5 26.7402C38.3181 26.715 38.1334 26.7603 37.9838 26.8668C37.8342 26.9733 37.7309 27.133 37.6951 27.3132C37.6594 27.4933 37.6938 27.6803 37.7913 27.8359C37.8889 27.9915 38.0423 28.1039 38.22 28.1502C40.5867 28.7548 42.8655 29.6623 45 30.8502C46 31.4202 46.93 32.0202 47.91 32.5702C48.58 32.9702 49.58 33.2802 50.13 32.5102Z" fill="#70533E"/>
<path d="M45.2 23.0601C45.6 22.6601 45.63 22.0601 45.88 21.5301C46.1968 20.6877 46.6721 19.9137 47.28 19.2501C47.3476 19.2039 47.4047 19.1439 47.4475 19.074C47.4902 19.0042 47.5177 18.926 47.5281 18.8448C47.5385 18.7635 47.5316 18.681 47.5078 18.6026C47.484 18.5243 47.4438 18.4518 47.39 18.3901C46.39 17.2801 44.66 21.1501 44.34 21.8801C41.5668 20.725 38.6907 19.8344 35.75 19.2201C35.5996 19.1899 35.4434 19.2186 35.3134 19.3C35.1834 19.3815 35.0896 19.5097 35.0512 19.6582C35.0128 19.8067 35.0327 19.9642 35.1069 20.0985C35.1811 20.2328 35.3038 20.3335 35.45 20.3801C36.82 20.7601 38.17 21.2101 39.53 21.6301C40.89 22.0501 42.21 22.5201 43.53 23.0101C44.05 23.2301 44.72 23.4901 45.2 23.0601Z" fill="#70533E"/>
<path d="M46.81 28.1199C46.9208 28.0812 47.0185 28.0124 47.0922 27.9211C47.166 27.8298 47.2128 27.7198 47.2273 27.6033C47.2419 27.4869 47.2236 27.3687 47.1746 27.2621C47.1256 27.1555 47.0478 27.0647 46.95 26.9999C46.2737 26.6123 45.5683 26.2779 44.84 25.9999C43.05 25.2899 41.22 24.6399 39.4 23.9999C39.2249 23.9427 39.0344 23.9569 38.8697 24.0392C38.705 24.1216 38.5793 24.2656 38.52 24.4399C38.4632 24.6136 38.4775 24.8028 38.56 24.9659C38.6425 25.1291 38.7864 25.2527 38.96 25.3099L42.13 26.4099C43.5144 26.8507 44.8731 27.3682 46.2 27.9599C46.2807 28.0346 46.3786 28.0883 46.485 28.1162C46.5914 28.1441 46.703 28.1453 46.81 28.1199Z" fill="#70533E"/>
<path d="M43.33 18.7498C43.8 17.6498 43.89 16.4398 44.33 15.3398C44.45 14.9198 44.81 14.7198 44.92 14.3398C44.9388 14.2331 44.9297 14.1235 44.8938 14.0214C44.8578 13.9193 44.7962 13.8282 44.7148 13.7568C44.6334 13.6855 44.535 13.6363 44.4291 13.614C44.3231 13.5918 44.2132 13.5972 44.11 13.6298C42.94 14.3698 42.67 16.3998 42.27 17.6298C39.9051 16.3204 37.3855 15.3126 34.77 14.6298C34.686 14.6074 34.5983 14.6019 34.5121 14.6134C34.4259 14.625 34.3429 14.6534 34.2677 14.697C34.1157 14.7852 34.0051 14.93 33.96 15.0998C33.9149 15.2695 33.9391 15.4502 34.0272 15.6021C34.1154 15.754 34.2603 15.8647 34.43 15.9098C36.2574 16.4219 38.0426 17.0738 39.77 17.8598L41.29 18.5998C41.91 18.9398 42.82 19.4698 43.33 18.7498Z" fill="#70533E"/>
<path d="M39.78 13.6299C40.7 13.6299 40.94 12.6999 41.04 11.9499C41.2836 10.9185 41.464 9.87322 41.58 8.81985C41.5694 8.65807 41.495 8.50713 41.3731 8.40024C41.2512 8.29334 41.0918 8.23924 40.93 8.24985C40.7682 8.26045 40.6173 8.33492 40.5104 8.45682C40.4035 8.57871 40.3494 8.73806 40.36 8.89984C40.1525 9.97967 39.865 11.0426 39.5 12.0799C37.4383 11.2358 35.283 10.6415 33.08 10.3098C32.8959 10.2856 32.7094 10.3325 32.5586 10.4409C32.4078 10.5493 32.304 10.7111 32.2683 10.8933C32.2326 11.0756 32.2678 11.2646 32.3665 11.4219C32.4653 11.5791 32.6203 11.6929 32.8 11.7399C34.16 12.0199 35.51 12.3599 36.85 12.7399C37.7915 13.142 38.7739 13.4404 39.78 13.6299Z" fill="#70533E"/>
<path d="M44.29 70.2701C45.16 68.0401 46.46 65.9501 47.45 63.8001C47.5486 63.6701 47.5964 63.5086 47.5845 63.3459C47.5725 63.1832 47.5016 63.0305 47.385 62.9163C47.2684 62.8022 47.1142 62.7345 46.9512 62.726C46.7883 62.7175 46.6279 62.7687 46.5 62.8701C45.94 63.5801 45.5 64.6301 45.07 65.3601C44.243 66.6345 43.5175 67.972 42.9 69.3601C41.22 67.6801 38.97 66.7901 36.9 65.7601C36.7747 65.7325 36.6437 65.7472 36.5276 65.8021C36.4115 65.8569 36.3169 65.9487 36.2586 66.063C36.2003 66.1774 36.1815 66.3078 36.2053 66.434C36.2291 66.5601 36.2941 66.6748 36.39 66.7601C37.6 67.3901 38.81 68.0301 40.01 68.6801C40.7474 69.0984 41.4209 69.6204 42.01 70.2301C42.26 70.4901 42.47 70.7801 42.72 71.0401C43.43 71.7201 44.06 70.9701 44.29 70.2701Z" fill="#70533E"/>
<path d="M42.58 66.26C43.1027 65.3897 43.5573 64.4803 43.94 63.54C44.377 62.6083 44.8748 61.7064 45.43 60.84C45.5513 60.7467 45.6397 60.6172 45.6824 60.4702C45.7251 60.3233 45.7198 60.1666 45.6674 60.0228C45.6151 59.8791 45.5183 59.7557 45.391 59.6707C45.2638 59.5857 45.1129 59.5434 44.96 59.55C44.8319 59.5612 44.7088 59.6046 44.6021 59.6763C44.4955 59.748 44.4087 59.8456 44.35 59.96C43.2887 61.6093 42.3302 63.3225 41.48 65.09C40.1425 64.2422 38.7299 63.5191 37.26 62.93C36.4479 62.664 35.615 62.4667 34.77 62.34C34.6228 62.3202 34.4734 62.3549 34.3499 62.4374C34.2264 62.52 34.1373 62.6447 34.0993 62.7883C34.0612 62.9319 34.0769 63.0844 34.1433 63.2173C34.2097 63.3502 34.3223 63.4542 34.46 63.51C35.36 63.77 36.25 64.08 37.13 64.41C38.3702 65.0015 39.5725 65.6695 40.73 66.41C41.0035 66.6152 41.3426 66.7132 41.6834 66.6856C42.0242 66.658 42.3431 66.5066 42.58 66.26Z" fill="#70533E"/>
<path d="M40.3 61.6901C40.66 61.6401 40.78 61.2801 40.88 60.9801C41.4946 59.5308 42.1994 58.1214 42.99 56.7601C43.39 56.1401 43.82 55.5301 44.28 54.9501C44.74 54.3701 45.13 53.9501 45.56 53.4101C45.6208 53.3313 45.6538 53.2346 45.6538 53.1351C45.6538 53.0356 45.6208 52.9389 45.56 52.8601C45.5136 52.7961 45.4528 52.744 45.3824 52.708C45.312 52.6721 45.2341 52.6533 45.155 52.6533C45.076 52.6533 44.998 52.6721 44.9276 52.708C44.8572 52.744 44.7964 52.7961 44.75 52.8601C44.22 53.4001 43.7 53.9501 43.22 54.5301C41.8438 56.1738 40.7152 58.0099 39.87 59.9801C38.1932 58.6128 36.204 57.6818 34.08 57.2701C33.9418 57.2552 33.8029 57.2905 33.6885 57.3694C33.5741 57.4483 33.4919 57.5657 33.4568 57.7002C33.4216 57.8346 33.436 57.9772 33.4971 58.102C33.5583 58.2268 33.6622 58.3255 33.79 58.3801C35.5267 58.8612 37.1817 59.5993 38.7 60.5701C38.9862 60.7984 39.2569 61.0456 39.51 61.3101C39.5863 61.4473 39.7032 61.5574 39.8447 61.6255C39.9861 61.6935 40.1452 61.7161 40.3 61.6901Z" fill="#70533E"/>
<path d="M39.08 55.6298C39.81 55.4798 39.86 54.6298 40.14 54.0598C40.3425 53.5948 40.5695 53.1408 40.82 52.6998C42.0571 50.8531 43.5991 49.23 45.38 47.8998C45.4563 47.8323 45.5124 47.745 45.542 47.6476C45.5715 47.5501 45.5735 47.4463 45.5476 47.3478C45.5217 47.2493 45.4689 47.16 45.3952 47.0897C45.3215 47.0194 45.2296 46.971 45.13 46.9498C45.0446 46.9366 44.9574 46.9423 44.8745 46.9665C44.7915 46.9907 44.7149 47.0328 44.65 47.0898C44.09 47.4998 43.53 47.9098 43 48.3598C41.1257 49.7519 39.5991 51.5591 38.54 53.6398C36.5005 52.3415 34.2171 51.4737 31.83 51.0898C31.6691 51.0663 31.5052 51.103 31.3697 51.1929C31.2341 51.2828 31.1366 51.4195 31.0957 51.5769C31.0548 51.7343 31.0734 51.9012 31.148 52.0457C31.2227 52.1902 31.348 52.3021 31.5 52.3598C33.3836 52.9126 35.2142 53.6321 36.97 54.5098C37.2922 54.7013 37.6027 54.9117 37.9 55.1398C38.27 55.4398 38.58 55.7198 39.08 55.6298Z" fill="#70533E"/>
<path d="M37.58 48.8202C37.9943 48.7193 38.353 48.461 38.58 48.1002L39.58 46.8302C40.419 45.7239 41.4322 44.7613 42.58 43.9802C42.83 43.8102 43.18 43.8002 43.31 43.5002C43.3608 43.3946 43.3765 43.2756 43.3549 43.1605C43.3333 43.0454 43.2755 42.9402 43.19 42.8602C42.61 42.4102 41.54 43.2602 41.02 43.5702C39.6752 44.5538 38.4502 45.6916 37.37 46.9602C36.052 45.5869 34.4519 44.5156 32.68 43.8202C31.98 43.6502 30.55 43.0502 30.27 44.0402C30.2413 44.2023 30.2706 44.3695 30.3529 44.5121C30.4352 44.6548 30.5652 44.7639 30.72 44.8202C32.3573 45.3453 33.8879 46.158 35.24 47.2202C35.62 47.5402 36 47.8602 36.36 48.2202C36.72 48.5802 37.09 48.9602 37.58 48.8202Z" fill="#70533E"/>
<path d="M37.88 43.2898C38.53 42.6898 39.03 41.9398 39.64 41.2898C40.6582 40.1579 41.7798 39.1234 42.99 38.1998C43.058 38.1587 43.1172 38.1046 43.1641 38.0405C43.211 37.9765 43.2448 37.9037 43.2634 37.8265C43.282 37.7493 43.2851 37.6692 43.2725 37.5908C43.2599 37.5124 43.2318 37.4372 43.19 37.3697C42.64 36.5597 41.5 37.9198 40.97 38.2598C39.6908 39.2775 38.4814 40.3799 37.35 41.5597C36.4868 40.5148 35.4223 39.654 34.2197 39.0287C33.0172 38.4034 31.7012 38.0263 30.35 37.9198C30.1727 37.9168 30.0006 37.9794 29.8666 38.0956C29.7326 38.2117 29.6461 38.3732 29.6238 38.5491C29.6015 38.725 29.6449 38.903 29.7457 39.0489C29.8465 39.1948 29.9976 39.2983 30.17 39.3397C31.4865 39.6309 32.7555 40.1056 33.94 40.7497C34.6159 41.1515 35.232 41.6463 35.77 42.2197C36.32 42.7497 37 43.8198 37.88 43.2898Z" fill="#70533E"/>
<path d="M37.45 38.1001L39.56 35.4101C39.82 35.0201 40.36 34.4601 39.89 34.0201C39.8307 33.965 39.7601 33.9236 39.683 33.899C39.6059 33.8744 39.5244 33.8671 39.4441 33.8776C39.3639 33.8881 39.287 33.9162 39.2189 33.9598C39.1507 34.0035 39.0931 34.0616 39.05 34.1301C38.2902 35.083 37.4648 35.9819 36.58 36.8201C34.6412 34.8915 32.2259 33.5113 29.58 32.8201C29.4246 32.7973 29.2662 32.8298 29.1323 32.912C28.9985 32.9942 28.8978 33.1207 28.8478 33.2696C28.7977 33.4185 28.8016 33.5802 28.8587 33.7265C28.9157 33.8728 29.0224 33.9944 29.16 34.0701C30.1178 34.4898 31.0525 34.9605 31.96 35.4801C32.9418 36.0135 33.8638 36.6504 34.71 37.3801C35.47 38.1301 36.58 39.1901 37.45 38.1001Z" fill="#70533E"/>
<path d="M34.82 33.02C35.5727 31.6927 36.3972 30.4074 37.29 29.17C37.66 28.71 38.05 28.25 38.46 27.83C38.5671 27.7415 38.6382 27.6171 38.66 27.48C38.6672 27.3894 38.6443 27.299 38.5946 27.223C38.5449 27.1469 38.4714 27.0895 38.3856 27.0597C38.2998 27.03 38.2065 27.0296 38.1204 27.0586C38.0343 27.0876 37.9603 27.1443 37.91 27.2199C37.1323 27.9259 36.4256 28.7063 35.8 29.55C35.09 30.45 34.37 31.34 33.68 32.26C33.581 32.4099 33.5454 32.593 33.581 32.7691C33.6166 32.9453 33.7205 33.1002 33.87 33.2C34.0203 33.3004 34.2041 33.3378 34.3818 33.3042C34.5594 33.2705 34.7168 33.1685 34.82 33.02Z" fill="#70533E"/>
<path d="M35.09 32.2197C35.52 30.9197 33.49 30.7897 32.7 30.2797C31.2491 29.6417 29.7471 29.1265 28.21 28.7398C27.33 28.6698 25.39 27.9297 25.14 29.1897C25.129 29.3871 25.1964 29.5808 25.3275 29.7287C25.4586 29.8767 25.6428 29.9669 25.84 29.9798C28.0353 30.2763 30.179 30.8753 32.21 31.7598C33.11 31.9398 34.38 33.3097 35.09 32.2197Z" fill="#70533E"/>
<path d="M34.8 27.7301C35.56 26.7301 36.32 25.67 37 24.59C37.27 24.06 38.11 23.22 37.36 22.75C37.282 22.7135 37.1969 22.6949 37.1109 22.6953C37.0248 22.6958 36.9399 22.7154 36.8624 22.7527C36.7848 22.7901 36.7166 22.8442 36.6625 22.9112C36.6085 22.9782 36.5701 23.0564 36.55 23.1401C35.6551 24.5379 34.6124 25.8353 33.44 27.01C32.62 26.39 31.74 25.85 30.88 25.29C29.9535 24.5836 28.916 24.0362 27.81 23.6701C27.6384 23.6237 27.4558 23.6416 27.2964 23.7203C27.137 23.799 27.0118 23.9332 26.9443 24.0976C26.8768 24.262 26.8717 24.4455 26.9298 24.6135C26.9879 24.7815 27.1053 24.9225 27.26 25.01C27.9514 25.3895 28.6192 25.8102 29.26 26.2701C30.35 27.0001 31.48 27.66 32.56 28.41C33.64 29.16 34.19 28.66 34.8 27.7301Z" fill="#70533E"/>
<path d="M32.9 22.6C33.1128 22.5367 33.3109 22.4316 33.4826 22.2908C33.6543 22.15 33.7962 21.9763 33.9 21.78C34.24 21.24 34.58 20.71 34.9 20.16C35.22 19.61 36.13 18.3901 35.07 18.0501C34.45 17.9401 34.36 18.53 34.12 18.93C33.6734 19.6562 33.1431 20.3275 32.54 20.93C30.38 20.39 28.46 19.14 26.33 18.5C26.1386 18.4453 25.9341 18.4595 25.752 18.5401C25.57 18.6207 25.4221 18.7627 25.334 18.9412C25.2459 19.1198 25.2233 19.3235 25.2701 19.517C25.3169 19.7105 25.4301 19.8815 25.59 20C27.124 20.842 28.7223 21.5609 30.37 22.15C31.1545 22.5342 32.0311 22.6901 32.9 22.6Z" fill="#70533E"/>
<path d="M32.05 17.5601C32.87 16.8801 33.77 16.0201 34.49 15.3001C34.5892 15.2343 34.672 15.1466 34.7321 15.0438C34.7921 14.941 34.8279 14.8259 34.8366 14.7071C34.8452 14.5884 34.8266 14.4693 34.7822 14.3589C34.7377 14.2485 34.6686 14.1497 34.58 14.0701C34.4777 13.9904 34.3586 13.9349 34.2318 13.9077C34.105 13.8806 33.9736 13.8825 33.8476 13.9132C33.7216 13.944 33.6042 14.0029 33.5042 14.0855C33.4042 14.1681 33.3241 14.2722 33.27 14.3901C32.55 15.0801 31.79 15.7301 31.03 16.3901C30.8977 16.5311 30.8225 16.7162 30.8189 16.9096C30.8154 17.1029 30.8838 17.2907 31.0108 17.4364C31.1379 17.5822 31.3146 17.6756 31.5066 17.6984C31.6986 17.7213 31.8923 17.672 32.05 17.5601Z" fill="#70533E"/>
<path d="M45.04 8.94023C45.31 7.85023 47.35 3.66023 45.69 3.32023C45.5556 3.30794 45.4201 3.32535 45.2932 3.37126C45.1663 3.41717 45.0511 3.49043 44.9556 3.58586C44.8602 3.68129 44.7869 3.79656 44.741 3.92348C44.6951 4.05039 44.6777 4.18584 44.69 4.32023C44.5571 5.16887 44.3428 6.00271 44.05 6.81022C43.88 7.33022 43.69 7.81023 43.52 8.38023C43.4819 8.57177 43.5135 8.77061 43.609 8.94096C43.7044 9.11131 43.8575 9.24201 44.0408 9.30952C44.224 9.37703 44.4254 9.37691 44.6085 9.30922C44.7917 9.24152 44.9447 9.11068 45.04 8.94023Z" fill="#70533E"/>
<path d="M42.91 8.87983C43.68 7.36983 40.24 7.30982 39.34 6.92982C38.45 6.92982 35.96 5.72982 35.67 6.92982C35.6511 7.01986 35.6505 7.11277 35.668 7.20307C35.6856 7.29338 35.721 7.37926 35.7723 7.45567C35.8235 7.53207 35.8896 7.59744 35.9664 7.64796C36.0433 7.69848 36.1295 7.73311 36.22 7.74983C37.99 8.15982 39.77 8.50984 41.53 8.94984C42 9.11984 42.58 9.41983 42.91 8.87983Z" fill="#70533E"/>
<path d="M84.69 58.0698C85.69 57.4898 84.24 56.0698 83.77 55.5398C82.2536 54.1682 80.5373 53.0352 78.68 52.1798C78.5294 52.125 78.3638 52.1278 78.2151 52.1876C78.0664 52.2474 77.945 52.3601 77.8743 52.504C77.8036 52.6479 77.7886 52.8128 77.8321 52.9671C77.8756 53.1213 77.9746 53.2541 78.11 53.3398C79.0255 53.7857 79.9168 54.2797 80.78 54.8198C81.7422 55.392 82.6092 56.1106 83.35 56.9498C83.75 57.3998 83.9 58.3998 84.69 58.0698Z" fill="#70533E"/>
<path d="M82.35 47.7498C84.25 46.6998 80.53 45.3798 79.77 44.8198C78.77 44.2898 77.67 43.8198 76.59 43.3698C76.4349 43.3311 76.2721 43.3364 76.1199 43.3851C75.9676 43.4338 75.8319 43.524 75.7281 43.6455C75.6242 43.767 75.5563 43.915 75.5319 44.073C75.5075 44.231 75.5277 44.3926 75.59 44.5398C75.74 44.8798 76.11 44.9798 76.42 45.1098C77.63 45.6198 78.86 46.1098 80.05 46.6398C80.82 46.8798 81.58 47.8198 82.35 47.7498Z" fill="#70533E"/>
<path d="M83.88 52.3802C83.95 50.8702 80.78 48.9402 79.57 48.2302C79.4214 48.1723 79.2564 48.172 79.1076 48.2293C78.9587 48.2867 78.8367 48.3976 78.7653 48.5403C78.694 48.683 78.6785 48.8472 78.7219 49.0007C78.7653 49.1542 78.8645 49.286 79 49.3701C79.4404 49.5997 79.8677 49.8535 80.28 50.1302C81.1574 50.6246 81.9423 51.2675 82.6 52.0302C82.6793 52.1248 82.7465 52.2289 82.8 52.3401C82.8279 52.4599 82.8944 52.5671 82.9892 52.6453C83.084 52.7235 83.2019 52.7684 83.3248 52.7729C83.4476 52.7775 83.5685 52.7415 83.6688 52.6705C83.7692 52.5995 83.8434 52.4975 83.88 52.3802Z" fill="#70533E"/>
<path d="M80.81 42.5199C82.57 41.2799 76.08 38.6199 75.17 38.2099C75.0827 38.1803 74.9904 38.1683 74.8984 38.1744C74.8064 38.1805 74.7165 38.2047 74.6339 38.2456C74.5512 38.2864 74.4775 38.3432 74.4167 38.4125C74.356 38.4819 74.3096 38.5625 74.28 38.6499C74.2505 38.7372 74.2384 38.8295 74.2445 38.9215C74.2507 39.0135 74.2748 39.1034 74.3157 39.186C74.3566 39.2686 74.4133 39.3424 74.4827 39.4032C74.552 39.4639 74.6327 39.5103 74.72 39.5399C76.54 40.3299 78.56 40.9199 80.06 42.2599C80.0921 42.3263 80.1369 42.3858 80.192 42.4348C80.2471 42.4839 80.3113 42.5215 80.381 42.5457C80.4507 42.5699 80.5245 42.58 80.5981 42.5756C80.6717 42.5711 80.7437 42.5522 80.81 42.5199Z" fill="#70533E"/>
<path d="M77.79 35.8198C78.56 35.4098 78.18 34.5098 77.59 34.1398C76.0761 33.2881 74.4299 32.6965 72.72 32.3898C72.6281 32.3715 72.5334 32.3713 72.4415 32.3895C72.3495 32.4077 72.2621 32.4439 72.1841 32.4959C72.106 32.5479 72.039 32.6147 71.9869 32.6926C71.9347 32.7705 71.8984 32.8579 71.88 32.9498C71.8616 33.0418 71.8615 33.1364 71.8797 33.2284C71.8979 33.3203 71.9341 33.4078 71.9861 33.4858C72.0381 33.5638 72.1049 33.6308 72.1828 33.683C72.2607 33.7351 72.3481 33.7715 72.44 33.7898C73.9545 34.0699 75.4266 34.5438 76.82 35.1998C76.8192 35.3148 76.8475 35.4282 76.9024 35.5293C76.9573 35.6303 77.0369 35.7158 77.1338 35.7778C77.2307 35.8397 77.3417 35.876 77.4565 35.8834C77.5712 35.8908 77.686 35.8689 77.79 35.8198Z" fill="#70533E"/>
<path d="M75.93 31.6101C77.1 29.3701 70.82 28.4101 69.38 28.0101C69.189 27.9729 68.9912 28.0132 68.8299 28.1219C68.6686 28.2307 68.5572 28.3991 68.52 28.5901C68.4829 28.781 68.5231 28.9789 68.6319 29.1402C68.7407 29.3015 68.9091 29.4129 69.1 29.4501C70.94 29.9901 72.98 30.2201 74.63 31.2401C74.6575 31.377 74.7221 31.5037 74.8169 31.6063C74.9116 31.7089 75.0328 31.7834 75.1671 31.8217C75.3015 31.8599 75.4437 31.8604 75.5783 31.823C75.7129 31.7857 75.8346 31.712 75.93 31.6101Z" fill="#70533E"/>
<path d="M72.09 24.46C72.5 23.33 70.79 23.31 70.09 23.09C68.66 22.81 67.21 22.61 65.77 22.4C65.5897 22.3655 65.403 22.4041 65.2511 22.5073C65.0992 22.6104 64.9945 22.7697 64.96 22.95C64.9255 23.1304 64.9641 23.317 65.0673 23.4689C65.1704 23.6208 65.3297 23.7255 65.51 23.76L68.16 24.17C69.044 24.2821 69.9218 24.439 70.79 24.64C71.24 24.82 71.8 25.03 72.09 24.46Z" fill="#70533E"/>
<path d="M69.58 20.9098C69.98 19.2898 67.27 19.5597 66.27 19.3997C65.42 19.5197 63.27 18.8898 63.13 20.0398C63.119 20.2239 63.1811 20.4049 63.3028 20.5434C63.4245 20.682 63.596 20.7669 63.78 20.7798C65.08 20.7798 66.39 20.7797 67.68 20.9297C68.35 20.9197 69.12 21.8198 69.58 20.9098Z" fill="#70533E"/>
<path d="M66.16 17.5399C68.42 15.6999 62.94 15.0899 61.86 14.9599C60.92 15.0199 58.08 13.9598 57.97 15.3098C57.91 15.8798 58.53 16.1298 58.97 16.1198C61.05 16.4898 63.26 16.4699 65.25 17.2099C65.3423 17.3593 65.4824 17.4732 65.6476 17.5331C65.8128 17.593 65.9933 17.5954 66.16 17.5399Z" fill="#70533E"/>
<path d="M61.1 12.2102C62.84 10.2102 57.15 10.6802 56.23 10.7702C56.0443 10.7822 55.871 10.8673 55.7482 11.0071C55.6254 11.1468 55.5631 11.3296 55.575 11.5152C55.5869 11.7009 55.6721 11.8742 55.8118 11.997C55.9516 12.1198 56.1343 12.1821 56.32 12.1702C57.649 12.0187 58.991 12.0187 60.32 12.1702C60.4307 12.2549 60.5646 12.3041 60.7038 12.3112C60.843 12.3183 60.9812 12.2831 61.1 12.2102Z" fill="#70533E"/>
<path d="M57.33 8.75008C57.3896 8.68202 57.4342 8.60211 57.4606 8.51558C57.4871 8.42905 57.4949 8.33787 57.4836 8.2481C57.4723 8.15832 57.442 8.07197 57.3949 7.99474C57.3477 7.91751 57.2847 7.85119 57.21 7.8001C56.8483 7.63105 56.4459 7.56858 56.05 7.62007C54.86 7.67007 53.68 7.83007 52.5 7.93007C52.3372 7.94287 52.1861 8.01936 52.0794 8.14293C51.9726 8.2665 51.919 8.42717 51.93 8.59008C51.9351 8.67024 51.956 8.74862 51.9914 8.8207C52.0269 8.89278 52.0762 8.95716 52.1366 9.01012C52.197 9.06308 52.2672 9.10358 52.3433 9.12932C52.4194 9.15506 52.4999 9.16551 52.58 9.16008L54.32 9.0201C55.0598 8.92864 55.8045 8.88187 56.55 8.88008C56.6762 8.9472 56.821 8.97085 56.9621 8.94734C57.1031 8.92384 57.2324 8.8545 57.33 8.75008Z" fill="#70533E"/>
<path d="M50.03 6.71005C50.992 6.33269 52.0016 6.09038 53.03 5.99005C53.2087 5.96095 53.3703 5.86645 53.4832 5.72495C53.5962 5.58344 53.6525 5.40502 53.6413 5.2243C53.6301 5.04359 53.5521 4.87349 53.4225 4.74704C53.2929 4.62059 53.1209 4.54681 52.94 4.54004C51.7475 4.63027 50.58 4.92808 49.49 5.42004C49.339 5.50204 49.2235 5.6367 49.1654 5.7984C49.1072 5.9601 49.1106 6.13754 49.1748 6.29691C49.2391 6.45627 49.3597 6.58644 49.5137 6.66263C49.6677 6.73881 49.8444 6.7557 50.01 6.71005H50.03Z" fill="#70533E"/>
<path d="M46.36 5.01009C47.45 4.62009 48.51 4.11007 49.63 3.81007C49.7765 3.78098 49.9058 3.69553 49.9899 3.5721C50.0741 3.44866 50.1064 3.29711 50.08 3.15007C49.86 2.34007 48.93 2.8601 48.41 3.0201L45.99 3.91008C45.8441 3.95915 45.7237 4.06414 45.6553 4.20198C45.5868 4.33982 45.5759 4.49923 45.625 4.6451C45.6741 4.79096 45.7791 4.91136 45.9169 4.97981C46.0547 5.04826 46.2141 5.05915 46.36 5.01009Z" fill="#70533E"/>
<path d="M30.58 70.29C32.0686 69.5922 33.4226 68.6376 34.58 67.47C34.93 66.98 35.74 66.74 35.58 66.01C35.13 64.65 33.92 65.59 33.35 66.32C32.2602 67.2895 31.1041 68.1817 29.89 68.99C29.7551 69.0996 29.6625 69.2526 29.6279 69.4229C29.5933 69.5932 29.619 69.7702 29.7004 69.9237C29.7819 70.0772 29.9142 70.1977 30.0746 70.2645C30.235 70.3313 30.4137 70.3403 30.58 70.29Z" fill="#70533E"/>
<path d="M30.76 70.1098C31.47 68.8498 28.82 68.1998 28.1 67.4998C27.1 67.0498 24.52 64.3098 23.87 66.0798C23.8393 66.2803 23.8849 66.4851 23.9978 66.6536C24.1108 66.8221 24.2828 66.9421 24.48 66.9898C25.1904 67.4206 25.878 67.8879 26.54 68.3898C27.28 68.8998 28.04 69.3898 28.8 69.8398C29.38 70.1598 30.22 70.8698 30.76 70.1098Z" fill="#70533E"/>
<path d="M29.82 65.8202C30.98 65.1002 32.07 64.2802 33.16 63.4502C33.51 63.1902 33.83 62.8902 34.16 62.6002C34.2391 62.5537 34.3071 62.4906 34.3593 62.4152C34.4115 62.3398 34.4466 62.2538 34.4621 62.1635C34.4776 62.0731 34.4733 61.9804 34.4493 61.8918C34.4253 61.8033 34.3822 61.7211 34.3231 61.651C34.264 61.5808 34.1903 61.5244 34.1072 61.4857C34.024 61.4469 33.9335 61.4268 33.8417 61.4268C33.75 61.4267 33.6594 61.4466 33.5762 61.4852C33.493 61.5238 33.4192 61.5801 33.36 61.6501C32.01 62.7801 30.44 63.5901 29.03 64.6501C28.9132 64.7686 28.841 64.9238 28.8257 65.0894C28.8104 65.255 28.8529 65.4208 28.9459 65.5586C29.039 65.6965 29.1769 65.7978 29.3363 65.8455C29.4956 65.8932 29.6665 65.8842 29.82 65.8202Z" fill="#70533E"/>
<path d="M30.3 65.97C30.3628 65.9009 30.4111 65.82 30.4421 65.732C30.4731 65.6439 30.4862 65.5506 30.4806 65.4574C30.475 65.3642 30.4509 65.2731 30.4095 65.1894C30.3682 65.1057 30.3106 65.0311 30.24 64.97C29.72 64.51 29.18 64.06 28.63 63.63C26.88 62.26 25.11 60.9 23.28 59.63C22.8769 59.3015 22.4291 59.0321 21.95 58.83C21.7911 58.7971 21.6256 58.8267 21.488 58.9127C21.3504 58.9987 21.2513 59.1345 21.2114 59.2917C21.1714 59.449 21.1937 59.6156 21.2735 59.7569C21.3534 59.8982 21.4846 60.0032 21.64 60.05C23.0552 60.9773 24.4205 61.9787 25.73 63.05C26.95 64.05 28.14 65.05 29.33 66.05C29.4694 66.1676 29.6497 66.2252 29.8315 66.2102C30.0132 66.1952 30.1817 66.1088 30.3 65.97Z" fill="#70533E"/>
<path d="M29.63 60.8199C30.9274 59.8755 32.1118 58.785 33.16 57.5699C33.2495 57.5034 33.3224 57.417 33.3728 57.3175C33.4233 57.2181 33.4499 57.1082 33.4506 56.9967C33.4514 56.8852 33.4262 56.775 33.3771 56.6749C33.328 56.5748 33.2562 56.4874 33.1676 56.4198C33.079 56.3521 32.9758 56.3059 32.8663 56.2849C32.7568 56.2639 32.6439 56.2686 32.5365 56.2987C32.4291 56.3287 32.3302 56.3833 32.2475 56.4582C32.1648 56.533 32.1006 56.6261 32.06 56.7299C31.0589 57.8126 29.9536 58.794 28.76 59.6599C28.6305 59.7832 28.5507 59.9498 28.5358 60.128C28.5209 60.3062 28.572 60.4837 28.6793 60.6268C28.7866 60.7698 28.9426 60.8685 29.1179 60.9041C29.2931 60.9397 29.4754 60.9098 29.63 60.8199Z" fill="#70533E"/>
<path d="M29.35 60.52C29.4734 60.3947 29.5425 60.2258 29.5425 60.05C29.5425 59.8741 29.4734 59.7053 29.35 59.58C28.2567 58.5266 27.1367 57.5266 25.99 56.58C24.84 55.58 23.68 54.58 22.57 53.58C22.28 53.26 21.84 52.96 21.42 53.24C21.3187 53.3094 21.2377 53.4046 21.1854 53.5157C21.1332 53.6269 21.1115 53.7499 21.1228 53.8722C21.134 53.9946 21.1776 54.1117 21.2492 54.2115C21.3208 54.3113 21.4177 54.3902 21.53 54.44C22.62 55.44 23.75 56.44 24.88 57.44C26.01 58.44 27.14 59.44 28.26 60.44C28.3245 60.5195 28.4046 60.585 28.4953 60.6324C28.5861 60.6798 28.6856 60.7082 28.7877 60.7157C28.8898 60.7232 28.9924 60.7096 29.0891 60.676C29.1858 60.6423 29.2746 60.5893 29.35 60.52Z" fill="#70533E"/>
<path d="M28.48 53.9999C29.67 52.8399 30.95 51.7799 32.09 50.5599C32.2227 50.4826 32.3237 50.361 32.3752 50.2164C32.4268 50.0718 32.4255 49.9136 32.3716 49.7699C32.3177 49.6262 32.2147 49.5062 32.0808 49.4311C31.9469 49.3561 31.7907 49.3308 31.64 49.3599C31.3918 49.4478 31.171 49.5996 31 49.7999C29.82 50.8599 28.55 51.7999 27.43 52.9299C27.3091 53.0683 27.2424 53.246 27.2424 53.4299C27.2424 53.6137 27.3091 53.7914 27.43 53.9299C27.5608 54.077 27.7442 54.1668 27.9407 54.1799C28.1371 54.193 28.3308 54.1284 28.48 53.9999Z" fill="#70533E"/>
<path d="M27.7 54.1699C28.47 53.4899 26.89 52.3899 26.47 51.8499C24.89 50.3699 23.08 49.1399 21.47 47.6899C21.08 47.4199 20.76 46.9199 20.25 46.8999C20.1833 46.9043 20.1184 46.9229 20.0594 46.9544C20.0005 46.9859 19.949 47.0296 19.9083 47.0826C19.8676 47.1356 19.8387 47.1967 19.8235 47.2617C19.8082 47.3268 19.8071 47.3944 19.82 47.4599C19.8344 47.5385 19.87 47.6116 19.9228 47.6715C19.9757 47.7314 20.0438 47.7758 20.12 47.7999C21.12 48.6099 21.97 49.4899 22.92 50.2999C23.87 51.1099 24.77 51.8799 25.59 52.7399C26.02 53.1799 26.43 53.6299 26.82 54.0999C26.8728 54.1628 26.9377 54.2145 27.0107 54.2521C27.0837 54.2897 27.1635 54.3124 27.2454 54.3189C27.3272 54.3255 27.4096 54.3156 27.4876 54.29C27.5657 54.2645 27.6379 54.2236 27.7 54.1699Z" fill="#70533E"/>
<path d="M26.06 47.5401C27.7734 46.6778 29.3558 45.5769 30.76 44.2701C30.8772 44.1692 30.9589 44.0331 30.9928 43.8822C31.0267 43.7312 31.011 43.5734 30.9482 43.432C30.8854 43.2906 30.7787 43.1732 30.6439 43.0972C30.5091 43.0212 30.3535 42.9907 30.2 43.0101C30.1028 43.0287 30.0106 43.0678 29.9296 43.1247C29.8486 43.1816 29.7805 43.255 29.73 43.3401C29.515 43.5703 29.2771 43.7781 29.02 43.9601C27.81 44.8201 26.52 45.5301 25.26 46.3101C25.1792 46.3626 25.1096 46.4305 25.0551 46.51C25.0006 46.5894 24.9622 46.6788 24.9423 46.773C24.9223 46.8673 24.9211 46.9646 24.9387 47.0593C24.9563 47.154 24.9924 47.2443 25.045 47.3251C25.0975 47.4058 25.1654 47.4755 25.2449 47.53C25.3243 47.5845 25.4137 47.6228 25.508 47.6428C25.6022 47.6628 25.6995 47.664 25.7942 47.6463C25.8889 47.6287 25.9792 47.5926 26.06 47.5401Z" fill="#70533E"/>
<path d="M26.45 47.82C26.5059 47.7564 26.5477 47.6816 26.5727 47.6007C26.5977 47.5197 26.6052 47.4344 26.5948 47.3503C26.5844 47.2662 26.5563 47.1853 26.5124 47.1129C26.4685 47.0404 26.4097 46.9781 26.34 46.93C25.13 46.02 23.93 45.1 22.71 44.2C21.85 43.55 21.04 42.9 20.2 42.2C19.8 41.89 19.11 41.25 18.73 41.92C18.35 42.59 19 42.62 19.35 42.87C20.57 43.87 21.78 44.87 22.96 45.77L24.96 47.35C25.41 47.63 25.95 48.29 26.45 47.82Z" fill="#70533E"/>
<path d="M26.28 41.5299C26.91 40.7199 27.59 39.9399 28.28 39.1999L28.83 38.6699C29.08 38.4399 29.49 38.1899 29.3 37.7999C28.83 37.1099 28 38.0299 27.54 38.3199C26.6808 38.986 25.8842 39.7291 25.16 40.5399C25.0471 40.6855 24.9909 40.8672 25.0019 41.0512C25.013 41.2351 25.0905 41.4088 25.22 41.5399C25.362 41.679 25.5533 41.7561 25.7521 41.7543C25.9508 41.7524 26.1407 41.6717 26.28 41.5299Z" fill="#70533E"/>
<path d="M26.25 44.65C27.49 43.87 25.98 42.49 25.6 41.65C24.3779 39.3193 22.4147 37.4616 20.02 36.37C18.4 35.68 17.72 38.08 19.53 37.93C23.58 39.44 24.71 45.6 26.25 44.65Z" fill="#70533E"/>
<path d="M25.72 37.7601C25.8959 37.6419 26.0185 37.4595 26.0615 37.252C26.1045 37.0445 26.0645 36.8284 25.95 36.6501C25.1686 35.5625 24.3133 34.53 23.39 33.5601C22.1 32.3501 20.82 30.8501 19.09 30.3001C18.43 30.1101 17.55 30.4501 17.95 31.2401C18.21 31.6701 18.57 31.4101 18.95 31.5601C20.5453 32.6474 21.9422 34.0004 23.08 35.5601C23.53 36.1201 23.98 36.6801 24.42 37.2601C24.65 37.7001 25.19 38.1101 25.72 37.7601Z" fill="#70533E"/>
<path d="M26.45 34.8699C26.648 34.732 26.7855 34.5233 26.8339 34.2869C26.8823 34.0505 26.8379 33.8045 26.71 33.5999C25.0953 30.9144 23.0084 28.543 20.55 26.5999C17.61 24.3699 16.61 27.8899 18.86 27.6899C20.77 28.6299 22.13 30.4699 23.44 32.1099C24.26 32.8999 25.12 35.6299 26.45 34.8699Z" fill="#70533E"/>
<path d="M25.46 30.5601C26.67 29.7601 25.02 28.4001 24.67 27.4901C23.4907 25.3584 21.9513 23.4468 20.12 21.8401C18.8 20.8401 17.72 22.7201 19.28 22.9701C20.9066 24.4567 22.2603 26.2166 23.28 28.1701C23.89 28.9101 24.18 31.0001 25.46 30.5601Z" fill="#70533E"/>
<path d="M24.7 25.9902C25.83 25.3202 24.6 23.9902 24.33 23.1402C23.4523 21.1071 22.2611 19.2242 20.8 17.5602C19.52 16.2302 17.86 18.4202 19.65 19.0502C20.7874 20.3806 21.7363 21.8611 22.47 23.4502C23.12 24.2402 23.32 26.4702 24.7 25.9902Z" fill="#70533E"/>
<path d="M25.98 21.4602C27.32 20.6402 25.29 18.6502 24.9 17.6502C24.0154 16.1003 22.7703 14.7865 21.27 13.8202C19.4 12.6902 18.63 15.0202 20.27 14.9302C22.56 16.2002 23.67 18.8102 24.8 21.0602C24.85 21.165 24.9206 21.2587 25.0074 21.3357C25.0943 21.4128 25.1956 21.4717 25.3056 21.509C25.4156 21.5463 25.5319 21.5612 25.6477 21.5528C25.7636 21.5444 25.8765 21.5129 25.98 21.4602Z" fill="#70533E"/>
<path d="M25.5 15.4999C26.59 14.5799 24.9 13.4199 24.41 12.5999C23.59 11.6999 22.68 10.2699 21.31 10.3999C21.1005 10.437 20.9143 10.5559 20.7924 10.7303C20.6705 10.9047 20.6229 11.1204 20.66 11.3299C20.6971 11.5394 20.816 11.7256 20.9904 11.8475C21.1648 11.9694 21.3805 12.017 21.59 11.9799C22.4225 12.669 23.1442 13.4818 23.73 14.3899C24.17 14.9499 24.63 16.0399 25.5 15.4999Z" fill="#70533E"/>
<path d="M20.99 73.1902C21.3812 70.9471 22.1415 68.7845 23.24 66.7902C23.4478 66.4444 23.6748 66.1105 23.92 65.7902C24.0526 65.6496 24.124 65.4621 24.1183 65.269C24.1127 65.0758 24.0306 64.8928 23.89 64.7602C23.7494 64.6276 23.562 64.5562 23.3688 64.5618C23.1756 64.5675 22.9926 64.6496 22.86 64.7902C21.1209 67.1926 19.995 69.9835 19.58 72.9202C19.5442 73.1071 19.5841 73.3007 19.691 73.4582C19.7979 73.6158 19.963 73.7244 20.15 73.7602C20.337 73.796 20.5305 73.756 20.6881 73.6491C20.8456 73.5422 20.9542 73.3771 20.99 73.1902Z" fill="#70533E"/>
<path d="M19.02 68.35C19.3816 66.4383 20.1377 64.6231 21.24 63.02C21.318 62.9587 21.3812 62.8807 21.4249 62.7917C21.4686 62.7027 21.4917 62.605 21.4924 62.5058C21.4932 62.4067 21.4716 62.3087 21.4293 62.219C21.3869 62.1293 21.3249 62.0504 21.2479 61.988C21.1708 61.9255 21.0807 61.8813 20.9842 61.8585C20.8877 61.8357 20.7873 61.8349 20.6905 61.8563C20.5937 61.8776 20.5029 61.9205 20.4249 61.9817C20.3469 62.0429 20.2837 62.121 20.24 62.21C19.145 63.7493 18.3728 65.4943 17.97 67.3399C17.82 67.8899 17.53 68.6799 18.3 68.8699C18.4632 68.8884 18.6274 68.8453 18.7606 68.7492C18.8937 68.653 18.9862 68.5107 19.02 68.35Z" fill="#70533E"/>
<path d="M18.25 63.0498C18.5791 61.0297 19.2201 59.073 20.15 57.2498C20.3045 57.1405 20.4134 56.9781 20.4558 56.7937C20.4982 56.6092 20.4712 56.4156 20.38 56.2498C18.53 54.4098 16.96 61.5998 16.65 62.7698C16.6431 62.9675 16.7079 63.1611 16.8326 63.3148C16.9572 63.4685 17.1332 63.5719 17.3281 63.6061C17.523 63.6402 17.7237 63.6026 17.8931 63.5004C18.0626 63.3982 18.1893 63.2381 18.25 63.0498Z" fill="#70533E"/>
<path d="M17.27 56.4099C17.9987 54.5947 19.0113 52.907 20.27 51.4099C20.3782 51.4147 20.4861 51.395 20.5857 51.3523C20.6853 51.3096 20.7739 51.245 20.845 51.1633C20.9161 51.0816 20.9679 50.985 20.9965 50.8805C21.0251 50.776 21.0297 50.6664 21.01 50.5599C20.88 49.8999 20.08 49.8399 19.61 50.1699C17.87 51.5899 16.96 53.7799 15.97 55.7399C15.9076 55.9113 15.9106 56.0997 15.9786 56.269C16.0466 56.4383 16.1747 56.5765 16.3384 56.6571C16.5021 56.7377 16.6897 56.755 16.8654 56.7057C17.041 56.6563 17.1922 56.5439 17.29 56.3899L17.27 56.4099Z" fill="#70533E"/>
<path d="M15.86 50.7C16.5974 48.9963 17.5592 47.3988 18.72 45.95C19.89 45.58 18.95 43.88 17.82 45.15C16.4954 46.6166 15.3844 48.2629 14.52 50.04C14.453 50.2147 14.4537 50.408 14.522 50.5822C14.5902 50.7563 14.7211 50.8987 14.8889 50.9813C15.0567 51.064 15.2493 51.081 15.429 51.0289C15.6086 50.9769 15.7623 50.8596 15.86 50.7Z" fill="#70533E"/>
<path d="M16.06 44.5698C16.5774 43.4318 17.1756 42.3323 17.85 41.2797C18.14 40.8097 18.44 40.3398 18.72 39.8598C18.7918 39.767 18.8376 39.6568 18.8526 39.5405C18.8677 39.4241 18.8514 39.3059 18.8056 39.1979C18.7598 39.0899 18.686 38.9962 18.5918 38.9262C18.4977 38.8562 18.3866 38.8126 18.27 38.7998C18.1251 38.7917 17.982 38.8356 17.8665 38.9236C17.751 39.0116 17.6707 39.1379 17.64 39.2797C17.38 39.6597 17.13 40.0498 16.87 40.4198C16.0528 41.5196 15.3365 42.6911 14.73 43.9198C14.6438 44.0961 14.6312 44.2995 14.695 44.4852C14.7587 44.6708 14.8937 44.8236 15.07 44.9098C15.2464 44.9959 15.4498 45.0085 15.6354 44.9448C15.8211 44.881 15.9738 44.7461 16.06 44.5698Z" fill="#70533E"/>
<path d="M15.04 40.3802C15.5636 38.8844 16.2904 37.4678 17.2 36.1702C17.5165 35.7321 17.8975 35.3444 18.33 35.0202C18.4483 34.9996 18.5586 34.9466 18.6486 34.8672C18.7386 34.7878 18.8049 34.685 18.84 34.5702C18.8742 34.4726 18.8853 34.3684 18.8725 34.2657C18.8596 34.1631 18.8232 34.0648 18.7661 33.9786C18.7089 33.8924 18.6326 33.8206 18.5431 33.7689C18.4535 33.7171 18.3532 33.6867 18.25 33.6802C17.8662 33.7091 17.5081 33.8846 17.25 34.1702C15.6119 35.7732 14.381 37.7447 13.66 39.9202C13.6173 40.0979 13.6427 40.2852 13.7314 40.4451C13.8201 40.6049 13.9655 40.7257 14.1389 40.7835C14.3123 40.8413 14.5011 40.8319 14.668 40.7573C14.8348 40.6826 14.9676 40.548 15.04 40.3802Z" fill="#70533E"/>
<path d="M14.13 34.2302C15.37 33.0902 15.91 31.2302 17.13 30.0102C17.2283 29.9898 17.3214 29.9494 17.4033 29.8914C17.4853 29.8334 17.5544 29.7591 17.6064 29.6732C17.6584 29.5873 17.6921 29.4916 17.7054 29.3921C17.7187 29.2926 17.7113 29.1914 17.6837 29.0949C17.6561 28.9983 17.6089 28.9085 17.545 28.831C17.4812 28.7536 17.402 28.6901 17.3125 28.6446C17.223 28.5992 17.1251 28.5726 17.0248 28.5667C16.9246 28.5608 16.8242 28.5756 16.73 28.6102C15.12 29.6802 14.22 31.6102 13.17 33.1702C13.1024 33.3085 13.0778 33.4639 13.0993 33.6163C13.1209 33.7688 13.1877 33.9112 13.291 34.0253C13.3943 34.1395 13.5295 34.22 13.6791 34.2565C13.8286 34.293 13.9857 34.2839 14.13 34.2302Z" fill="#70533E"/>
<path d="M14.11 30.1301C14.9308 28.5119 15.9377 26.995 17.11 25.6101C17.3382 25.38 17.6015 25.1876 17.89 25.0401C17.9841 25.0303 18.0752 25.0016 18.1579 24.9556C18.2406 24.9096 18.3131 24.8474 18.371 24.7726C18.429 24.6979 18.4712 24.6121 18.4951 24.5206C18.5189 24.429 18.524 24.3336 18.51 24.2401C18.4908 24.1509 18.453 24.0667 18.3991 23.9931C18.3452 23.9194 18.2763 23.858 18.1971 23.8127C18.1179 23.7674 18.03 23.7393 17.9392 23.7303C17.8484 23.7212 17.7566 23.7314 17.67 23.7601C15.48 24.5801 14.11 27.6201 12.86 29.5001C12.8232 29.6574 12.8403 29.8225 12.9087 29.9689C12.9771 30.1153 13.0927 30.2344 13.237 30.3071C13.3813 30.3799 13.5458 30.4019 13.7042 30.3698C13.8625 30.3377 14.0055 30.2533 14.11 30.1301Z" fill="#70533E"/>
<path d="M15.35 22.5202C16.4026 20.3791 17.8831 18.4766 19.7 16.9302C19.7907 16.8247 19.8565 16.7002 19.8927 16.5659C19.9289 16.4315 19.9345 16.2908 19.909 16.154C19.8836 16.0173 19.8278 15.8879 19.7458 15.7756C19.6637 15.6632 19.5575 15.5707 19.435 15.5049C19.3125 15.439 19.1767 15.4015 19.0378 15.395C18.8988 15.3886 18.7601 15.4134 18.632 15.4677C18.5039 15.5219 18.3896 15.6042 18.2976 15.7085C18.2055 15.8128 18.138 15.9364 18.1 16.0702C16.888 16.9963 15.843 18.1224 15.01 19.4002C14.57 20.4002 12.83 22.0302 14.14 22.9402C14.3567 23.0411 14.6042 23.0538 14.8301 22.9754C15.056 22.897 15.2424 22.7337 15.35 22.5202Z" fill="#70533E"/>
<path d="M15.7 15.8202C16.8192 14.5071 18.1308 13.3709 19.59 12.4502C20.75 12.4502 20.41 10.8202 19.3 11.2302C17.8987 11.8917 16.623 12.7918 15.53 13.8902C15.02 14.4002 13.87 15.1102 14.63 15.8902C14.7835 16.0175 14.98 16.0812 15.179 16.0682C15.378 16.0552 15.5644 15.9665 15.7 15.8202Z" fill="#70533E"/>
<path d="M18.52 11.1501C20.3365 9.75107 22.278 8.52256 24.32 7.48008C24.4045 7.44096 24.4796 7.38414 24.5402 7.31348C24.6009 7.24282 24.6456 7.15998 24.6714 7.07053C24.6972 6.98108 24.7036 6.88712 24.6899 6.79502C24.6763 6.70292 24.643 6.61482 24.5924 6.53669C24.5417 6.45856 24.4749 6.39223 24.3964 6.34217C24.3179 6.29211 24.2296 6.25951 24.1374 6.24656C24.0452 6.2336 23.9513 6.24061 23.862 6.26709C23.7727 6.29358 23.6902 6.33891 23.62 6.40006C22.0397 7.17339 20.5039 8.03476 19.02 8.98008C18.39 9.49008 16.71 10.0401 17.45 11.0601C17.5815 11.2114 17.7669 11.3056 17.9667 11.3224C18.1666 11.3392 18.3651 11.2773 18.52 11.1501Z" fill="#70533E"/>
<path d="M16.15 17.1199C16.2295 17.0293 16.2878 16.9222 16.3207 16.8063C16.3536 16.6904 16.3602 16.5687 16.34 16.4499C16.027 14.3647 15.35 12.3507 14.34 10.4999C14.3 10.4054 14.2394 10.3211 14.1627 10.253C14.086 10.185 13.9951 10.1348 13.8965 10.1063C13.798 10.0778 13.6944 10.0716 13.5932 10.0882C13.492 10.1048 13.3957 10.1437 13.3114 10.2022C13.2272 10.2606 13.157 10.3371 13.106 10.4261C13.055 10.5151 13.0245 10.6144 13.0167 10.7167C13.0089 10.8189 13.024 10.9216 13.0609 11.0173C13.0978 11.113 13.1556 11.1993 13.23 11.2699C13.7188 12.2599 14.1009 13.299 14.37 14.3699C14.54 15.1299 14.73 15.8799 14.83 16.6499C14.8499 16.7929 14.9087 16.9279 14.9999 17.0399C15.0912 17.1519 15.2114 17.2367 15.3475 17.2852C15.4836 17.3336 15.6304 17.3439 15.7718 17.3147C15.9133 17.2856 16.0442 17.2182 16.15 17.1199Z" fill="#70533E"/>
<path d="M15.16 23.5199C15.3459 23.456 15.4992 23.3217 15.5871 23.1459C15.675 22.9701 15.6904 22.7669 15.63 22.5799C15.28 21.5799 14.9 20.5799 14.51 19.5799C13.8479 17.7685 12.9358 16.0585 11.8 14.4999C11.595 14.1859 11.2818 13.9582 10.92 13.8599C10.7905 13.8546 10.6629 13.8913 10.556 13.9646C10.4492 14.0379 10.369 14.1439 10.3274 14.2665C10.2857 14.3892 10.2849 14.522 10.325 14.6452C10.3652 14.7684 10.4441 14.8753 10.55 14.9499C11.1383 15.5413 11.6069 16.2408 11.93 17.0099C12.5583 18.2548 13.0834 19.5491 13.5 20.8799C13.74 21.5999 13.98 22.3299 14.21 23.0499C14.2759 23.2365 14.4121 23.39 14.5895 23.4778C14.7669 23.5656 14.9716 23.5807 15.16 23.5199Z" fill="#70533E"/>
<path d="M13.07 27.1598C13.251 27.096 13.4001 26.9645 13.486 26.7928C13.5718 26.6212 13.5876 26.4229 13.53 26.2398C13.2449 25.4173 12.911 24.6125 12.53 23.8298C11.9772 22.5198 11.1324 21.3534 10.06 20.4198C9.92067 20.3075 9.75072 20.2398 9.57233 20.2255C9.39394 20.2112 9.21539 20.2511 9.05999 20.3398C8.95493 20.414 8.87649 20.52 8.83622 20.6421C8.79594 20.7642 8.79597 20.896 8.8363 21.0182C8.87663 21.1403 8.95513 21.2462 9.06022 21.3203C9.16531 21.3944 9.29143 21.4328 9.41999 21.4298C10.3929 22.4783 11.1235 23.7277 11.56 25.0898C11.77 25.6298 11.98 26.1398 12.16 26.6998C12.1894 26.7899 12.2363 26.8732 12.298 26.9451C12.3597 27.0169 12.435 27.0759 12.5195 27.1186C12.6041 27.1614 12.6962 27.187 12.7907 27.1941C12.8851 27.2012 12.98 27.1895 13.07 27.1598Z" fill="#70533E"/>
<path d="M13.08 34.0401C13.2553 33.9498 13.3899 33.7964 13.4567 33.6109C13.5235 33.4254 13.5175 33.2214 13.44 33.0401C13.05 32.1501 12.59 31.2801 12.13 30.4101C11.281 28.891 10.1667 27.5362 8.84 26.4101C8.4 26.0001 7.08 25.4101 7.11 26.4701C7.13366 26.5865 7.19797 26.6906 7.29141 26.7639C7.38486 26.8372 7.50133 26.8748 7.61999 26.8701C8.32808 27.3036 8.93231 27.8874 9.39 28.5801C10.2014 29.683 10.8732 30.8821 11.39 32.1501C11.62 32.6601 11.86 33.1501 12.07 33.7101C12.1655 33.8826 12.3227 34.0124 12.5101 34.0737C12.6975 34.1349 12.9011 34.1229 13.08 34.0401Z" fill="#70533E"/>
<path d="M13.58 38.4498C14.69 37.8398 13.69 36.6198 13.32 35.8498C12.3321 33.7118 10.7927 31.8755 8.85997 30.5298C6.64997 28.8798 5.55997 31.5298 7.46997 31.7598C7.80677 31.9122 8.12268 32.1071 8.40997 32.3398C9.63936 33.3937 10.637 34.691 11.34 36.1498C11.96 36.9398 12.19 38.9498 13.58 38.4498Z" fill="#70533E"/>
<path d="M13.9 44C15.24 43.17 13.24 41.12 12.9 40.11C12.1295 38.6221 10.9589 37.3787 9.51999 36.52C8.71999 36.01 6.94999 35.18 6.85999 36.74C6.93999 37.67 8.00999 37.5 8.57999 37.95C11.34 39.21 12.38 44.9 13.9 44Z" fill="#70533E"/>
<path d="M14.95 49.9601C16.3 49.2401 13.95 46.9601 13.47 46.0401C12.2983 44.4042 10.7003 43.121 8.84997 42.3301C8.65343 42.2412 8.42999 42.2323 8.227 42.3053C8.02401 42.3783 7.85741 42.5274 7.76251 42.7212C7.6676 42.9149 7.65184 43.1379 7.71856 43.3431C7.78529 43.5482 7.92925 43.7193 8.11996 43.8201C8.57135 44.0091 9.01202 44.2228 9.43997 44.4601C10.8651 45.4246 12.0601 46.6913 12.94 48.1701C13.58 48.8201 13.86 50.3701 14.95 49.9601Z" fill="#70533E"/>
<path d="M15.58 57.5C15.727 57.4267 15.8396 57.299 15.8937 57.144C15.9479 56.9889 15.9394 56.8189 15.87 56.67C15.39 55.67 14.87 54.78 14.33 53.85C13.7146 52.7615 12.9201 51.7845 11.98 50.96C11.101 50.0928 9.98949 49.4988 8.78001 49.25C8.6894 49.2533 8.60032 49.2744 8.51786 49.3121C8.4354 49.3498 8.36118 49.4034 8.29943 49.4698C8.23768 49.5362 8.18961 49.6141 8.15797 49.6991C8.12633 49.784 8.11173 49.8744 8.11502 49.965C8.1183 50.0556 8.13939 50.1447 8.1771 50.2271C8.21481 50.3096 8.26839 50.3838 8.33479 50.4456C8.40118 50.5073 8.47908 50.5554 8.56405 50.587C8.64902 50.6187 8.7394 50.6333 8.83001 50.63C11.13 51.47 12.62 53.57 13.83 55.63C14.12 56.1 14.4 56.57 14.68 57.05C14.707 57.1404 14.7522 57.2242 14.8128 57.2964C14.8735 57.3686 14.9483 57.4276 15.0326 57.4698C15.1169 57.512 15.209 57.5364 15.3032 57.5416C15.3973 57.5468 15.4915 57.5326 15.58 57.5Z" fill="#70533E"/>
<path d="M18.26 64.06C18.4549 63.9631 18.604 63.7935 18.6751 63.5878C18.7462 63.382 18.7335 63.1566 18.64 62.96C17.7514 61.3937 16.6733 59.9428 15.43 58.64C14.3847 57.6791 13.18 56.9076 11.87 56.36C11.31 56.11 10.74 55.89 10.17 55.66C9.99227 55.5995 9.79781 55.6118 9.62914 55.6942C9.46048 55.7767 9.33134 55.9226 9.26998 56.1C9.04998 56.77 9.73998 57.1 10.27 57.21C16.01 59.1 16.66 64.87 18.26 64.06Z" fill="#70533E"/>
<path d="M19.14 69.7602C20.53 69.0402 17.31 65.8702 16.7 65.1002C15.2333 63.7828 13.5108 62.7819 11.64 62.1602C11.3986 62.1602 11.1672 62.256 10.9965 62.4267C10.8259 62.5974 10.73 62.8288 10.73 63.0702C10.73 63.3115 10.8259 63.543 10.9965 63.7136C11.1672 63.8843 11.3986 63.9802 11.64 63.9802C17.04 66.2002 17.63 70.7302 19.14 69.7602Z" fill="#70533E"/>
<path d="M20.82 74.3702C21.9 73.1402 19.55 71.9802 18.82 71.1502C16.8395 69.6276 14.4677 68.6983 11.98 68.4702C11.7615 68.4856 11.558 68.5868 11.4137 68.7516C11.2695 68.9165 11.1963 69.1316 11.21 69.3502C11.32 70.4602 12.97 70.0402 13.67 70.4302C18.23 71.3402 19.47 75.5202 20.82 74.3702Z" fill="#70533E"/>
<path d="M21.47 74.6701C22.3787 73.3655 23.4358 72.1708 24.62 71.1101C25.01 70.8101 25.68 70.67 25.48 70.03C25.03 69.03 23.95 70.03 23.4 70.43C22.2524 71.4309 21.1858 72.521 20.21 73.69C20.1444 73.7728 20.0956 73.8676 20.0666 73.9692C20.0376 74.0708 20.0289 74.177 20.041 74.282C20.053 74.3869 20.0857 74.4884 20.137 74.5808C20.1883 74.6731 20.2573 74.7544 20.34 74.82C20.4227 74.8857 20.5176 74.9344 20.6192 74.9634C20.7207 74.9924 20.827 75.0012 20.9319 74.9891C21.0369 74.977 21.1384 74.9444 21.2307 74.8931C21.323 74.8418 21.4043 74.7728 21.47 74.69V74.6701Z" fill="#70533E"/>
<path d="M42.92 70.9701C44.16 69.3601 40.02 69.4601 39.18 69.4101C38.2228 69.3834 37.2648 69.4068 36.31 69.4801C36.2155 69.486 36.123 69.5105 36.0379 69.5521C35.9528 69.5937 35.8768 69.6517 35.8141 69.7228C35.7514 69.7938 35.7033 69.8765 35.6726 69.9661C35.6419 70.0557 35.6291 70.1505 35.635 70.2451C35.6409 70.3396 35.6654 70.4321 35.707 70.5172C35.7487 70.6023 35.8067 70.6783 35.8777 70.741C35.9488 70.8037 36.0314 70.8518 36.1211 70.8825C36.2107 70.9132 36.3055 70.926 36.4 70.9201C37.4 70.8201 38.4 70.8001 39.4 70.7601C40.2768 70.7313 41.1543 70.7882 42.02 70.9301C42.27 71.0901 42.63 71.2501 42.92 70.9701Z" fill="#70533E"/>
<path d="M1.58001 45.0699C2.25773 43.7422 3.18457 42.5574 4.31 41.5799C4.92185 41.124 5.59521 40.757 6.31 40.4899C6.514 40.409 6.67933 40.2531 6.77213 40.0542C6.86493 39.8553 6.87817 39.6284 6.80915 39.4201C6.74013 39.2118 6.59407 39.0377 6.40088 38.9336C6.20769 38.8294 5.98199 38.8031 5.77001 38.8599C5.01013 39.1382 4.28524 39.5039 3.61 39.9499C2.55 40.5299 -1.28 44.4699 0.390003 45.4599C0.493314 45.5146 0.606582 45.5479 0.723041 45.5578C0.839501 45.5677 0.956775 45.5541 1.06784 45.5177C1.17891 45.4813 1.2815 45.4228 1.3695 45.3459C1.45749 45.269 1.52909 45.1751 1.58001 45.0699Z" fill="#70533E"/>
<path d="M1.84999 40.0702C2.97999 38.2302 3.98998 36.1402 5.74998 34.8202C5.82943 34.7854 5.90125 34.7353 5.96133 34.6727C6.02141 34.6102 6.0686 34.5364 6.10017 34.4556C6.13174 34.3748 6.14708 34.2886 6.14534 34.2019C6.14359 34.1151 6.12478 34.0296 6.08998 33.9502C6.05518 33.8707 6.00507 33.7989 5.94252 33.7388C5.87996 33.6787 5.80619 33.6316 5.7254 33.6C5.64461 33.5684 5.5584 33.5531 5.47168 33.5548C5.38496 33.5566 5.29943 33.5754 5.21998 33.6102C4.72729 33.8583 4.28615 34.1976 3.91998 34.6102C2.95488 35.6657 2.10663 36.8224 1.38998 38.0602C1.09998 38.7302 -0.0200111 39.7802 0.929989 40.3502C1.08962 40.4324 1.27501 40.4491 1.44679 40.3968C1.61857 40.3446 1.76322 40.2274 1.84999 40.0702Z" fill="#70533E"/>
<path d="M3.22997 29.2198C3.76997 28.0998 4.35997 26.9998 4.97997 25.9298C5.69015 24.5156 6.6922 23.2682 7.91997 22.2698C8.05997 22.1698 8.23997 22.1898 8.36997 22.0798C8.41603 22.0384 8.45155 21.9866 8.47359 21.9286C8.49563 21.8707 8.50355 21.8084 8.49671 21.7469C8.48987 21.6853 8.46845 21.6262 8.43424 21.5746C8.40003 21.5229 8.35401 21.4802 8.29998 21.4498C6.44998 20.8998 2.52998 26.9398 1.78998 28.5098C1.74336 28.6044 1.71582 28.7072 1.70893 28.8124C1.70204 28.9176 1.71594 29.0231 1.74984 29.1229C1.81829 29.3245 1.96402 29.4907 2.15497 29.5848C2.34593 29.679 2.56647 29.6934 2.76807 29.625C2.96967 29.5565 3.13582 29.4108 3.22997 29.2198Z" fill="#70533E"/>
<path d="M1.79997 33.3301C3.0928 31.9522 4.45454 30.6405 5.87997 29.4001C7.03997 28.6201 5.73998 27.1501 4.42998 28.6901C3.13998 29.8701 1.85997 31.0501 0.639968 32.2901C0.504771 32.4452 0.435403 32.6469 0.446608 32.8523C0.457813 33.0578 0.548704 33.2507 0.699965 33.3901C0.855034 33.5253 1.05674 33.5947 1.26216 33.5835C1.46758 33.5723 1.66053 33.4814 1.79997 33.3301Z" fill="#70533E"/>
<path d="M5.25996 21.1598C6.47179 19.8997 7.81246 18.7702 9.25996 17.7898C10.67 17.8598 10.19 15.6798 8.47996 16.6298C6.95216 17.5806 5.51895 18.6756 4.19996 19.8998C4.06322 20.0483 3.98531 20.2416 3.9808 20.4434C3.97629 20.6453 4.04549 20.8418 4.17545 20.9963C4.30542 21.1508 4.48723 21.2526 4.68685 21.2827C4.88648 21.3128 5.09022 21.2691 5.25996 21.1598Z" fill="#70533E"/>
<path d="M2.83001 50.6599C3.77081 48.9787 4.99167 47.4704 6.44001 46.1999C6.63102 46.0521 6.83919 45.9279 7.06 45.8299C7.27615 45.757 7.45449 45.6012 7.55576 45.3968C7.65703 45.1924 7.67294 44.9561 7.60001 44.7399C7.52708 44.5238 7.37126 44.3455 7.16684 44.2442C6.96243 44.1429 6.72615 44.127 6.51 44.1999C5.26 44.4899 -0.569994 50.1999 1.58001 51.0899C1.805 51.1826 2.05607 51.1901 2.28618 51.1109C2.51629 51.0318 2.70964 50.8714 2.83001 50.6599Z" fill="#70533E"/>
<path d="M3.17001 58.8198C3.84104 56.5719 4.8783 54.45 6.24002 52.5398C6.77417 51.8254 7.41895 51.2008 8.15002 50.6898C8.33435 50.5691 8.46318 50.3801 8.50819 50.1645C8.5532 49.9488 8.51069 49.7241 8.39001 49.5398C8.26934 49.3554 8.08038 49.2266 7.86471 49.1816C7.64905 49.1366 7.42434 49.1791 7.24002 49.2998C5.18797 50.9068 3.58332 53.0142 2.58001 55.4198C2.24001 56.5198 1.43002 57.6998 1.63002 58.8598C1.69916 59.0081 1.8101 59.1329 1.94922 59.219C2.08833 59.3051 2.24957 59.3487 2.41313 59.3445C2.57668 59.3402 2.73543 59.2883 2.86989 59.1951C3.00434 59.1019 3.10866 58.9714 3.17001 58.8198Z" fill="#70533E"/>
<path d="M4.00996 65.1999C4.35317 63.6964 5.00344 62.2801 5.91996 61.0399C6.43272 60.357 7.05037 59.7596 7.74996 59.2699C7.86007 59.2557 7.96522 59.2154 8.05673 59.1525C8.14823 59.0897 8.22345 59.0059 8.27621 58.9082C8.32896 58.8106 8.35772 58.7017 8.36012 58.5907C8.36251 58.4797 8.33847 58.3698 8.28997 58.2699C7.38997 56.7399 4.38997 60.2699 3.87997 61.1399C3.1438 62.2722 2.65324 63.5462 2.43996 64.8799C2.39886 65.0881 2.44213 65.3041 2.56028 65.4804C2.67843 65.6566 2.86177 65.7788 3.06997 65.8199C3.27816 65.861 3.49416 65.8177 3.67045 65.6995C3.84673 65.5814 3.96885 65.3981 4.00996 65.1899V65.1999Z" fill="#70533E"/>
<path d="M4.57997 72.5802C4.68836 72.5214 4.78396 72.4416 4.86122 72.3454C4.93847 72.2493 4.99584 72.1387 5.02996 72.0202C5.9003 69.8509 7.33274 67.9525 9.17997 66.5202C9.32975 66.488 9.46396 66.4054 9.56022 66.2862C9.65649 66.167 9.70899 66.0184 9.70899 65.8652C9.70899 65.712 9.65649 65.5634 9.56022 65.4442C9.46396 65.3251 9.32975 65.2425 9.17997 65.2102C8.94644 65.1889 8.71208 65.2413 8.50996 65.3602C7.15304 66.2046 5.97979 67.3132 5.05996 68.6202C4.37415 69.5343 3.82818 70.5454 3.43997 71.6202C3.38487 71.8217 3.4078 72.0366 3.50419 72.222C3.60058 72.4074 3.76334 72.5496 3.95997 72.6202C4.16473 72.6818 4.38481 72.6676 4.57997 72.5802Z" fill="#70533E"/>
<path d="M5.28997 77.2099C6.43259 75.9373 7.64795 74.7319 8.92997 73.5999C9.43997 73.2399 10.2 73.0499 9.92997 72.2799C8.92997 70.1699 5.00997 75.3299 4.03997 76.1299C3.89676 76.2956 3.82524 76.5115 3.84118 76.73C3.85712 76.9485 3.9592 77.1517 4.12496 77.2949C4.29072 77.4381 4.5066 77.5096 4.72508 77.4937C4.94356 77.4777 5.14675 77.3757 5.28997 77.2099Z" fill="#70533E"/>
<path d="M63.66 103.87C62.84 97.8232 61.9167 91.7899 60.89 85.7699C60.71 84.7699 60.52 83.7699 60.31 82.7699C60.25 82.2799 60.03 81.5599 59.39 81.7699C59.3051 81.8007 59.2278 81.8495 59.1634 81.9129C59.0989 81.9762 59.0489 82.0527 59.0166 82.1371C58.9844 82.2216 58.9707 82.3119 58.9764 82.4021C58.9822 82.4923 59.0073 82.5802 59.05 82.6598C59.9 86.6598 60.34 90.8399 60.84 94.9499C61.23 97.9499 61.64 101.03 62.12 104.06C62.1633 104.248 62.2747 104.413 62.4327 104.524C62.5907 104.635 62.7842 104.683 62.9757 104.659C63.1672 104.635 63.3431 104.542 63.4695 104.396C63.5959 104.25 63.6637 104.063 63.66 103.87Z" fill="#70533E"/>
<path d="M69.09 63.1299C70.2 62.4599 68.53 60.6099 67.82 61.7899C67.43 62.4699 68.37 63.5399 69.09 63.1299Z" fill="#D3B9A7"/>
<path d="M68.19 67.1002C68.2941 67.0864 68.3937 67.049 68.4812 66.9908C68.5687 66.9327 68.6417 66.8553 68.6948 66.7647C68.7478 66.674 68.7795 66.5724 68.7873 66.4677C68.7951 66.3629 68.779 66.2578 68.74 66.1602C68.62 65.8402 68.37 65.4902 67.98 65.5502C67.14 65.7002 67.28 67.2402 68.19 67.1002Z" fill="#D3B9A7"/>
<path d="M64.81 62.3798C64.9816 62.3526 65.1362 62.2608 65.2422 62.1232C65.3482 61.9856 65.3975 61.8126 65.38 61.6398C65.33 61.1598 65.28 60.6398 65.24 60.1898V60.2598C65.2341 60.1718 65.2109 60.0859 65.1718 60.0068C65.1326 59.9278 65.0783 59.8573 65.0119 59.7992C64.9456 59.7412 64.8684 59.6968 64.7848 59.6686C64.7013 59.6404 64.613 59.6289 64.525 59.6348C64.437 59.6407 64.351 59.6639 64.272 59.703C64.193 59.7421 64.1224 59.7965 64.0644 59.8629C64.0064 59.9293 63.962 60.0064 63.9338 60.09C63.9056 60.1735 63.8941 60.2618 63.9 60.3498C64.1 61.0198 63.76 62.4298 64.81 62.3798Z" fill="#D3B9A7"/>
<path d="M10.64 60.7299C10.6106 60.5147 10.5182 60.313 10.3744 60.1503C10.2305 59.9876 10.0418 59.8711 9.83183 59.8155C9.6219 59.7599 9.40022 59.7676 9.1947 59.8378C8.98918 59.908 8.80903 60.0374 8.67695 60.2098C8.54488 60.3822 8.46678 60.5898 8.45251 60.8065C8.43825 61.0232 8.48845 61.2393 8.59678 61.4275C8.70512 61.6158 8.86674 61.7677 9.06129 61.8642C9.25584 61.9607 9.47461 61.9975 9.69001 61.9699C9.9798 61.9301 10.2422 61.7775 10.4201 61.5453C10.5979 61.3131 10.677 61.02 10.64 60.7299Z" fill="#D3B9A7"/>
<path d="M89.46 88.9899C91.09 88.7199 90.08 85.6699 88.62 86.6999C87.82 87.3299 88.39 89.1399 89.46 88.9899Z" fill="#D3B9A7"/>
</g>
<defs>
<clipPath id="clip0_51_4603">
<rect width="100.27" height="110.06" fill="white"/>
</clipPath>
</defs>
</svg>
