<svg width="326" height="171" viewBox="0 0 326 171" fill="none" xmlns="http://www.w3.org/2000/svg">
<g clip-path="url(#clip0_52_4944)">
<path d="M95.07 49.75C95.07 49.75 31.82 32.57 5.51004 55.94C-20.8 79.31 49.74 173.67 164.19 170.86C278.64 168.05 414.29 65.64 247.41 63.35L95.07 49.75Z" fill="#E0965F"/>
<path d="M88.49 71.5701C88.49 71.5701 105.8 8.04005 118.41 1.39005C131.02 -5.25995 153.92 14.3901 172.6 11.0801C191.28 7.77006 237.54 -4.33995 241.74 18.56C245.94 41.46 249.22 83.49 249.22 83.49C249.22 83.49 153.41 126.46 88.49 71.5701Z" fill="#EAA568"/>
<path d="M88.49 71.5698L85.49 80.2198C85.49 80.2198 155.76 143.76 249.2 94.2198V83.4898C249.2 83.4898 153.41 126.46 88.49 71.5698Z" fill="#B7184E"/>
<path d="M241.74 18.5599C237.54 -4.34014 191.29 7.80988 172.6 11.0799C162.08 12.9199 150.22 7.50986 139.6 3.60986C139.6 3.60986 165.06 35.8199 186.77 27.2899C204.97 20.1399 228.34 16.2899 241.94 19.7599C241.89 19.3599 241.82 18.9399 241.74 18.5599Z" fill="#CE7E42"/>
<path d="M306.28 71.5698C333.46 103.44 235.04 158.1 156.54 157.57C78.04 157.04 10.31 97.9398 10.28 97.9398C32.41 132.36 88.76 172.72 164.19 170.87C260.01 168.51 370.66 96.3598 306.28 71.5698Z" fill="#C97D3F"/>
</g>
<defs>
<clipPath id="clip0_52_4944">
<rect width="325.44" height="170.92" fill="white"/>
</clipPath>
</defs>
</svg>
