<svg width="89" height="79" viewBox="0 0 89 79" fill="none" xmlns="http://www.w3.org/2000/svg">
<g clip-path="url(#clip0_54_5202)">
<path d="M87.11 70.8C86.88 73.13 87.04 78.65 83.8 78.69C82.72 78.6 81.6399 78.51 80.5599 78.48C77.7899 78.33 75.0599 77.76 72.3099 77.37C65.1999 76.48 58.3099 74.3 51.3999 72.72C48.1799 72.13 44.9299 71.96 41.6899 71.53C36.1799 70.68 30.6899 70.2 25.1299 69.64C20.8099 69.07 16.5199 68.31 12.1899 67.83C10.0199 67.57 7.82996 67.47 5.66995 67.08C2.94995 66.59 -0.610062 65.49 0.0899379 62.01C0.632701 59.2422 1.36783 56.5156 2.28995 53.85C2.94995 51.79 3.64995 49.74 4.28995 47.69C4.92995 45.64 5.73996 43.3 7.73996 42.29C7.87996 41.43 8.03994 40.57 8.18994 39.71C8.879 35.8143 10.0096 32.0098 11.5599 28.37C13.828 23.5671 16.7159 19.0822 20.1499 15.03C22.0909 13.089 24.1842 11.3066 26.4099 9.70001C28.5299 7.88623 30.9226 6.41819 33.4999 5.35001C36.7599 4.09001 39.85 2.42003 43.21 1.41003C45.7372 0.48327 48.4081 0.00932443 51.0999 0.0100105C55.27 0.0100105 59.1899 1.49001 62.8699 3.32001C66.3949 5.06325 69.6734 7.26576 72.6199 9.87003C74.8318 11.4229 76.8029 13.2929 78.4699 15.42C79.9099 17.42 80.96 19.74 82.24 21.88C82.8943 22.9285 83.4087 24.0581 83.77 25.24C84.3 26.94 84.6899 28.7 85.2199 30.41C85.8218 32.3217 86.1583 34.3069 86.2199 36.31C86.7479 40.6594 86.8617 45.0491 86.5599 49.42C86.4111 50.7875 86.1571 52.1416 85.8 53.47C86.3201 53.5785 86.8243 53.7532 87.3 53.99C87.5734 54.2175 87.7965 54.4996 87.9549 54.8181C88.1133 55.1366 88.2035 55.4847 88.2199 55.84C88.7399 60.86 87.39 65.81 87.11 70.8Z" fill="#242424"/>
<path d="M85.47 51.8601L86.16 52.0101C86.05 52.5001 85.94 53.0101 85.82 53.4701C86.3322 53.5797 86.8291 53.7509 87.3 53.9801L85.19 53.4301C79.87 52.3601 74.44 51.6101 69.05 51.0601C60.17 49.8901 51.33 48.4701 42.44 47.7001C34.86 46.8501 27.36 45.3501 19.73 44.9401C16.13 44.6901 12.53 44.4501 8.93002 44.1201C7.93002 44.0401 6.99003 43.9601 6.03003 43.8601C6.36838 43.3573 6.79533 42.9202 7.29004 42.5701C9.96004 42.7601 12.62 42.9601 15.29 43.1201C19.7 43.3801 24.1101 43.6201 28.4901 44.1901C33.4101 44.8001 38.33 45.7301 43.25 46.1901C51.25 46.9701 59.16 48.1201 67.09 49.2701C69.8 49.6201 72.52 49.8001 75.22 50.2201C78.64 50.7901 82.07 51.2101 85.47 51.8601Z" fill="black"/>
<path d="M8.76004 43.2901C8.8458 43.2118 8.95706 43.1672 9.07318 43.1647C9.1893 43.1621 9.30239 43.2017 9.39151 43.2762C9.48063 43.3507 9.53974 43.4549 9.55786 43.5697C9.57598 43.6844 9.55189 43.8018 9.49005 43.9001C9.17005 44.7901 8.90005 45.7001 8.64005 46.6101C7.10005 52.0401 5.70003 57.5101 4.59003 63.0401C4.35003 64.2501 4.11004 65.4601 3.88004 66.6601C3.42269 66.5317 2.97492 66.3713 2.54004 66.1801C2.99004 63.7001 3.54005 61.1801 4.08005 58.7801C4.70005 56.1701 5.38005 53.5701 6.08005 51.0201C6.56005 49.3301 7.08004 47.6301 7.60004 45.9701C7.84442 45.0217 8.23583 44.1174 8.76004 43.2901Z" fill="black"/>
<path d="M13.01 43.5201C13.44 43.9001 13.09 44.2701 12.92 44.6701C11.69 48.6701 10.92 52.7701 9.73999 56.7901C8.84625 60.0374 8.15492 63.3371 7.66998 66.6701C7.66998 66.9201 7.59997 67.1601 7.55997 67.4101L6.35999 67.2401C7.12696 62.1658 8.25653 57.153 9.73999 52.2401C10.22 50.4001 10.67 48.5601 11.13 46.7301C11.3394 45.6434 11.696 44.5904 12.19 43.6001C12.2384 43.5407 12.298 43.4915 12.3655 43.4553C12.433 43.4191 12.5071 43.3967 12.5833 43.3892C12.6596 43.3818 12.7365 43.3895 12.8097 43.412C12.883 43.4344 12.951 43.4712 13.01 43.5201Z" fill="black"/>
<path d="M14.5599 43.76C14.6428 43.6845 14.7483 43.6384 14.86 43.6288C14.9717 43.6193 15.0834 43.6468 15.1779 43.7071C15.2724 43.7675 15.3444 43.8572 15.3827 43.9626C15.421 44.068 15.4236 44.183 15.39 44.29C14.63 47.81 13.9999 51.39 13.1799 54.9C12.3399 58.73 11.26 62.47 10.49 66.3L10.2499 67.63L9.06995 67.52C9.62995 64.41 10.4299 61.35 11.2199 58.3C12.3399 53.86 13.2199 49.37 14.2199 44.88C14.3199 44.52 14.3199 44.06 14.5599 43.76Z" fill="black"/>
<path d="M17.91 43.5201C18.0685 43.5517 18.2088 43.6431 18.3019 43.7752C18.395 43.9074 18.4337 44.0702 18.41 44.2301C18.19 45.5001 18.01 46.7801 17.8 48.0501C16.74 54.7201 14.98 61.2501 13.67 67.8801C13.67 67.8801 13.67 67.9501 13.67 67.9901L12.4 67.8401C12.71 66.3001 13.04 64.7501 13.4 63.2101C14.58 57.9601 15.91 52.7301 16.72 47.4001C16.91 46.2701 17.0801 45.1501 17.2401 44.0201C17.2692 43.8682 17.3541 43.7327 17.4781 43.6402C17.6021 43.5477 17.7561 43.5049 17.91 43.5201Z" fill="black"/>
<path d="M22.41 45.06C22.88 45.15 22.9 45.65 22.79 46.06C21.54 52.62 20.0301 59.1299 18.4901 65.6299C18.2701 66.6299 18.05 67.6299 17.85 68.6299L16.55 68.44C16.77 67.44 17.02 66.38 17.25 65.36C18.91 58.74 20.5 52.24 21.78 45.56C21.7846 45.4842 21.805 45.4102 21.8401 45.3429C21.8751 45.2756 21.9239 45.2164 21.9834 45.1693C22.0428 45.1221 22.1115 45.088 22.1851 45.0691C22.2586 45.0503 22.3352 45.0472 22.41 45.06Z" fill="black"/>
<path d="M26.8399 45.0401C27.1999 45.4201 26.84 45.8401 26.74 46.2501C26.15 49.0901 25.7399 51.9601 25.0699 54.7901C24.2299 58.7201 23.2499 62.6301 22.4299 66.5701C22.2499 67.4401 22.0699 68.3101 21.8999 69.1801L20.5599 68.9801C21.4999 64.1101 22.8599 59.3201 23.9099 54.4701C24.6899 51.4701 24.9999 48.2801 25.8499 45.2601C25.8819 45.1629 25.9386 45.0758 26.0144 45.0071C26.0902 44.9385 26.1825 44.8907 26.2824 44.8685C26.3822 44.8464 26.4861 44.8505 26.5838 44.8806C26.6816 44.9106 26.7698 44.9656 26.8399 45.0401Z" fill="black"/>
<path d="M30.82 45.1101C30.9683 45.1583 31.0915 45.2631 31.1627 45.4017C31.2339 45.5404 31.2473 45.7016 31.2 45.8501C30.9 47.2601 30.68 48.6901 30.4 50.1001C29.4 55.3201 27.97 60.4701 26.94 65.6701C26.67 67.0201 26.42 68.3801 26.18 69.7501L25.13 69.6401H24.8C25.3 66.8301 25.93 64.0501 26.57 61.3001C27.78 56.3801 28.97 51.5301 29.86 46.5501C29.99 45.9501 29.99 44.9101 30.82 45.1101Z" fill="black"/>
<path d="M33.6799 46.7099C33.7285 46.6758 33.7834 46.6515 33.8413 46.6386C33.8993 46.6256 33.9592 46.6242 34.0177 46.6344C34.0762 46.6446 34.1321 46.6663 34.1823 46.6981C34.2324 46.7299 34.2758 46.7713 34.3099 46.8199C34.3441 46.8685 34.3683 46.9233 34.3813 46.9813C34.3942 47.0393 34.3957 47.0992 34.3854 47.1577C34.3752 47.2162 34.3536 47.2721 34.3217 47.3222C34.2899 47.3724 34.2485 47.4158 34.2 47.4499C33.4908 50.4359 32.9367 53.4566 32.5399 56.4999C31.8499 60.9899 31.1 65.4999 30.36 69.9599C30.3553 70.0265 30.3553 70.0933 30.36 70.1599L29.21 70.0399C30.07 65.1499 30.96 60.2599 31.77 55.3599C32.0766 53.5599 32.41 51.7666 32.77 49.9799C32.9115 49.147 33.0985 48.3224 33.33 47.5099C33.3604 47.2133 33.4827 46.9336 33.6799 46.7099Z" fill="black"/>
<path d="M39.51 47.63C38.51 54.63 37.4 61.63 35.94 68.63C35.81 69.32 35.68 70.02 35.56 70.71L34.25 70.57C34.84 67.28 35.67 64.02 36.25 60.74C37.25 56.09 37.77 51.35 38.71 46.74C38.7473 46.6354 38.8221 46.5482 38.9198 46.4953C39.0176 46.4425 39.1314 46.4277 39.2395 46.4537C39.3475 46.4798 39.4421 46.5449 39.5049 46.6366C39.5678 46.7282 39.5946 46.8399 39.58 46.95C39.59 47.15 39.55 47.39 39.51 47.63Z" fill="black"/>
<path d="M43.6199 47.5199C42.5399 54.1199 41.2299 60.7099 39.7199 67.2299C39.4499 68.5299 39.1799 69.8399 38.9399 71.1499L37.4299 70.9599C37.9599 68.5499 38.5699 66.2099 39.1799 63.8199C40.0999 60.1799 40.9499 56.5299 41.6599 52.8199C42.0499 50.9899 42.3 49.1299 42.8 47.3299C42.8415 47.2403 42.9126 47.1678 43.0013 47.1245C43.09 47.0811 43.1909 47.0696 43.2871 47.0919C43.3833 47.1142 43.4689 47.1689 43.5295 47.2468C43.5901 47.3248 43.622 47.4212 43.6199 47.5199Z" fill="black"/>
<path d="M46.7799 49.76C46.4599 52.76 46.06 55.65 45.64 58.59C44.96 63 43.99 67.34 43.08 71.7L41.7 71.53C42.15 69.59 42.62 67.67 43.08 65.73C44.37 59.9972 45.3713 54.2032 46.08 48.37C46.0995 48.2617 46.1607 48.1655 46.2505 48.1019C46.3402 48.0383 46.4513 48.0125 46.5599 48.03C46.6176 48.0429 46.672 48.0672 46.7201 48.1016C46.7681 48.1359 46.8087 48.1796 46.8395 48.23C46.8703 48.2804 46.8906 48.3364 46.8993 48.3949C46.908 48.4533 46.9048 48.5128 46.89 48.57C46.86 48.97 46.8199 49.37 46.7799 49.76Z" fill="black"/>
<path d="M50.53 58.91C50.03 62.16 49.34 65.38 48.74 68.62C48.51 69.82 48.3 71.03 48.1 72.24L46.37 72.04C47.08 68.04 48.18 64.1 48.87 60.09C49.6 56.27 50.05 52.32 50.5 48.49C50.55 47.94 50.58 47.16 51.34 47.26C52.1 47.36 51.88 48.05 51.79 48.54C51.69 49.48 51.59 50.44 51.48 51.37C51.21 53.91 50.89 56.39 50.53 58.91Z" fill="black"/>
<path d="M52.32 72.92L51.45 72.72L50.86 72.62C51.06 71.39 51.29 70.16 51.47 68.93C52.65 62.01 53.68 55.07 54.32 48.08C54.48 47.2 55.63 47.56 55.32 48.42C54.63 56.63 53.42 64.77 52.32 72.92Z" fill="black"/>
<path d="M59.9299 54.2001C59.4699 59.0301 58.6699 63.78 57.8199 68.54C57.4899 70.38 57.2 72.22 56.92 74.07L55.2 73.6401C55.4366 72.7529 55.6136 71.8509 55.7299 70.9401C57.0907 64.8682 58.0627 58.7157 58.64 52.5201C58.96 51.5901 58.1 48.7201 59.49 48.8901C60.78 49.3701 59.7999 52.9501 59.9299 54.2001Z" fill="black"/>
<path d="M60.9 75.08L59.53 74.7401C59.98 71.0901 60.45 67.46 60.81 63.8C61.17 60.14 61.54 56.5401 62.13 52.9401C62.29 51.9901 62.44 51.03 62.64 50.08C62.6519 49.9443 62.7165 49.8186 62.82 49.73C62.8711 49.6786 62.9319 49.6378 62.9988 49.61C63.0658 49.5822 63.1376 49.5679 63.2101 49.5679C63.2825 49.5679 63.3543 49.5822 63.4212 49.61C63.4882 49.6378 63.5489 49.6786 63.6 49.73C63.6677 49.8045 63.7144 49.8955 63.7355 49.9939C63.7565 50.0923 63.7512 50.1944 63.72 50.29C63.6334 50.71 63.5534 51.14 63.48 51.58C63.21 53.28 62.97 54.9801 62.75 56.6901C62.14 62.8301 61.61 68.97 60.9 75.08Z" fill="black"/>
<path d="M68.17 50.9701C67.3 59.2001 66.2601 67.3701 64.7101 75.5001C64.7101 75.6601 64.65 75.8201 64.63 75.9701L63.16 75.6301L63.28 74.9901C63.81 72.1101 64.39 69.2401 64.84 66.3501C65.65 61.5801 66.2 56.7801 66.84 51.9901C66.97 51.4101 66.79 50.3601 67.62 50.3401C67.7757 50.3529 67.9202 50.4258 68.0229 50.5435C68.1256 50.6611 68.1784 50.8142 68.17 50.9701Z" fill="black"/>
<path d="M72.16 52.8199C71.998 59.7468 71.2318 66.6463 69.87 73.4399L69.2101 76.8999L67.9 76.6599C68.9 72.2399 69.79 67.7999 70.32 63.3099C70.63 60.7999 70.89 58.3099 71.05 55.7799C71.0753 54.6889 71.1655 53.6003 71.32 52.5199C71.3809 52.4422 71.4646 52.3856 71.5594 52.3581C71.6543 52.3307 71.7553 52.3338 71.8482 52.367C71.9412 52.4002 72.0213 52.4618 72.0773 52.5431C72.1332 52.6244 72.1622 52.7212 72.16 52.8199Z" fill="black"/>
<path d="M74.83 74.7299C74.67 75.7299 74.53 76.7299 74.39 77.7299C73.81 77.6399 73.23 77.5399 72.64 77.4599C74.08 69.4599 75.91 61.5799 76.07 53.4599C76.0705 53.2533 76.1009 53.0478 76.16 52.8499C76.1855 52.7746 76.2339 52.7092 76.2985 52.6628C76.363 52.6165 76.4405 52.5916 76.52 52.5916C76.5995 52.5916 76.677 52.6165 76.7415 52.6628C76.8061 52.7092 76.8546 52.7746 76.88 52.8499C76.9604 53.4163 77.0005 53.9878 77 54.5599C77 61.3399 75.76 68.0399 74.83 74.7299Z" fill="black"/>
<path d="M78.32 77.8301L78.26 78.2701C77.64 78.1901 77.03 78.1101 76.41 78.0101C76.51 77.4601 76.61 76.9101 76.7 76.3601C77.41 72.3601 78.22 68.4201 78.78 64.4101C79.12 62.1301 79.38 59.8401 79.61 57.5501C79.71 56.3201 79.82 55.0901 79.9 53.8601C79.9 53.4301 79.9 52.9101 80.33 52.6701C80.4479 52.612 80.5812 52.5928 80.7107 52.6154C80.8401 52.638 80.9591 52.7011 81.0503 52.7957C81.1416 52.8903 81.2004 53.0115 81.2183 53.1416C81.2362 53.2718 81.2123 53.4043 81.15 53.5201C81.05 55.1101 80.97 56.7101 80.84 58.3001C80.37 63.6201 79.63 68.9101 78.84 74.2001C78.64 75.4101 78.47 76.6201 78.32 77.8301Z" fill="black"/>
<path d="M82.81 78.16C82.81 78.31 82.81 78.4599 82.81 78.6099C82.16 78.6099 81.52 78.5099 80.87 78.4899C81.5367 74.2699 82.1233 70.0399 82.63 65.7999C83.192 61.4895 83.2892 57.1312 82.92 52.7999C82.92 52.2599 82.41 51.5799 83.04 51.2299C83.84 50.8899 84.04 51.85 84.12 52.44C85.1 61.02 83.52 69.62 82.81 78.16Z" fill="black"/>
<path d="M52.95 0.0999451C52.59 0.279945 52.23 0.449955 51.87 0.609955C49.3948 1.52791 46.9713 2.57945 44.61 3.75995C41.61 5.37995 38.61 7.08995 35.61 8.75995C34.1993 9.50759 32.8367 10.3425 31.53 11.2599C30.0017 12.3636 28.5392 13.5556 27.15 14.83C24.4437 17.0694 22.0847 19.698 20.15 22.6299C18.2112 26.057 16.5686 29.6434 15.24 33.3499C14.24 36.4499 12.84 39.52 12.53 42.8C12.6215 42.8185 12.7019 42.8727 12.7535 42.9505C12.805 43.0283 12.8236 43.1235 12.805 43.215C12.7864 43.3065 12.7323 43.3868 12.6545 43.4384C12.5766 43.49 12.4815 43.5085 12.39 43.49C11.46 43.43 11.68 42.3999 11.73 41.7599C11.895 40.3998 12.1965 39.0597 12.63 37.7599C13.7408 33.9587 15.1072 30.2369 16.72 26.62C17.8652 23.8724 19.4084 21.3083 21.3 19.0099C24.0522 15.9007 27.126 13.0917 30.47 10.6299C32.4088 9.26901 34.4367 8.03959 36.54 6.94995C39.54 5.24995 42.54 3.50995 45.62 1.94995C47.15 1.17995 48.77 0.629951 50.36 -0.0500488C50.63 -0.0500488 50.89 -0.0500488 51.16 -0.0500488C51.74 0.00995117 52.32 0.0399451 52.95 0.0999451Z" fill="black"/>
<path d="M26.45 19.8001C28.59 16.7401 31.51 14.3801 34.27 11.9001C36.6338 9.89092 39.1628 8.08453 41.83 6.50009C44.6 4.64009 47.25 2.57007 50.39 1.38007C51.28 0.990066 52.15 0.550078 53.01 0.0800781H53.29H53.56H53.68H53.88H54.03H54.2H54.41H54.49H54.64H54.73L54.95 0.130066H55.04C53.7252 1.02365 52.3484 1.82236 50.92 2.52008C49.735 3.0051 48.5825 3.56627 47.47 4.20007C45.38 5.52007 43.39 6.99008 41.3 8.33008C40.05 9.17008 38.72 9.91008 37.52 10.8301C35.09 12.7001 32.88 14.8301 30.6 16.8901C28.2417 19.3529 26.1501 22.0579 24.36 24.9601C22.0147 28.5856 20.0063 32.4183 18.36 36.4101C17.48 38.8001 16.57 41.2001 15.91 43.6701C15.77 44.1101 15.91 44.6701 15.29 44.7301C15.2147 44.7246 15.1416 44.702 15.0762 44.6642C15.0108 44.6264 14.9548 44.5742 14.9125 44.5117C14.8701 44.4491 14.8425 44.3778 14.8317 44.3031C14.8209 44.2283 14.8271 44.1521 14.85 44.0801C15.7406 40.183 17.0169 36.3843 18.66 32.7401C20.7976 28.1813 23.3837 23.8466 26.38 19.8001H26.45Z" fill="black"/>
<path d="M54.48 0.310089H54.63C53.85 1.31009 53.01 2.31007 52.23 3.38007C50.5853 5.42471 48.7723 7.32803 46.81 9.07007C45.41 10.3901 44.18 11.8601 42.81 13.2001C38.9429 16.7601 35.34 20.5969 32.03 24.6801C29.0339 28.2023 26.5464 32.1272 24.64 36.3401C23.7115 38.3341 22.9587 40.4053 22.39 42.5301C22.2767 42.9673 22.1932 43.4116 22.14 43.8601C22.14 44.1501 21.98 44.4701 21.65 44.4501C21.5324 44.4423 21.4225 44.3888 21.3439 44.3009C21.2654 44.213 21.2245 44.0978 21.23 43.9801C21.8765 40.5202 23.0288 37.1743 24.65 34.0501C26.0381 31.2191 27.7135 28.5383 29.65 26.0501C31.839 23.1351 34.1964 20.3504 36.71 17.7101C38.25 16.0901 39.77 14.4701 41.42 12.9701C42.74 11.7501 43.95 10.3301 45.18 9.07007C47.3229 7.12529 49.3278 5.03358 51.18 2.81009L53.29 0.0900879H53.56H53.68H53.88H54.03H54.2H54.41L54.48 0.310089Z" fill="black"/>
<path d="M55.03 0.410034H55.18C54.69 1.70001 54.0164 2.91249 53.18 4.01001C51.45 6.45001 50.09 9.12001 48.18 11.42C46.27 13.72 44.01 15.96 42.11 18.42C40.23 20.69 38.8 23.27 37.16 25.7C35.93 27.62 34.47 29.42 33.25 31.3C30.9137 34.6884 29.2596 38.4993 28.38 42.52C28.2871 43.1031 28.2236 43.6905 28.19 44.28C28.2092 44.3505 28.2133 44.4241 28.2021 44.4963C28.1909 44.5684 28.1646 44.6374 28.125 44.6987C28.0854 44.76 28.0333 44.8123 27.9721 44.8521C27.911 44.892 27.8421 44.9185 27.77 44.93C27.7083 44.9355 27.646 44.9287 27.5869 44.91C27.5278 44.8914 27.4729 44.8612 27.4255 44.8212C27.3781 44.7812 27.3391 44.7322 27.3107 44.6771C27.2823 44.622 27.265 44.5618 27.26 44.5C27.36 40.76 28.89 37.23 30.51 33.91C32.0469 31.2015 33.7536 28.5929 35.62 26.1C37.96 22.54 40.09 18.84 42.92 15.64C44.39 13.78 46.12 12.14 47.59 10.26C49.29 8.11001 50.59 5.65001 52.14 3.42001C52.8842 2.45388 53.4932 1.39075 53.95 0.26001H54.02H54.19H54.4H54.48H54.63H54.72L54.94 0.310028L55.03 0.410034Z" fill="black"/>
<path d="M54.63 0.339996H54.72C54.49 0.909996 54.25 1.45999 54.01 2.01999C53.4658 3.36478 52.831 4.67112 52.11 5.92999C50.99 8.08999 49.94 10.29 48.92 12.5C46.98 16.95 44.83 21.31 42.87 25.76C41.33 29.44 39.55 33.01 38.09 36.76C37.09 39.6 36.49 42.57 35.73 45.48C35.59 45.92 35.62 46.7 34.96 46.61C34.825 46.5856 34.7051 46.5089 34.6265 46.3965C34.5478 46.2841 34.5167 46.1452 34.54 46.01C34.73 45.15 35.01 44.19 35.21 43.37C35.7084 41.0011 36.3462 38.6637 37.12 36.37C38.01 33.99 39.12 31.69 40.12 29.37C42.95 22.73 46.03 16.21 49 9.63998C50.2 6.89998 51.79 4.35 52.94 1.59L53.54 0.22998L53.86 0.279999H54.01H54.18H54.39H54.47L54.63 0.339996Z" fill="black"/>
<path d="M46.32 23.93C47.87 20.02 48.93 15.93 50.32 11.98C51.03 9.72001 51.98 7.54001 52.74 5.35001C53.1998 3.67755 53.5703 1.98184 53.85 0.27002H53.9999H54.17H54.38H54.46H54.61H54.7L54.92 0.320007C54.63 1.70001 54.42 3.10001 54.1 4.48001C53.6 6.48001 52.69 8.48001 52.05 10.48C51.66 11.63 51.29 12.78 50.91 13.94C49.78 17.39 48.85 20.94 47.48 24.3C45.2564 29.1769 43.3361 34.1864 41.73 39.3C41.06 41.56 40.43 43.84 39.83 46.12C39.83 46.45 39.6 46.83 39.21 46.75C39.1418 46.7389 39.0769 46.7133 39.0196 46.6748C38.9623 46.6363 38.9139 46.5859 38.8779 46.5271C38.8418 46.4683 38.8189 46.4023 38.8106 46.3338C38.8023 46.2653 38.8089 46.1957 38.83 46.13C39.14 44.97 39.43 43.81 39.73 42.65C40.51 39.65 41.34 36.65 42.35 33.77C43.53 30.4 44.94 27.16 46.35 23.88L46.32 23.93Z" fill="black"/>
<path d="M55.77 0.580017C56.1243 2.77678 56.0256 5.0228 55.48 7.18002C54.77 10.51 54.02 13.85 53.04 17.12C51.72 21.66 49.89 26.04 48.78 30.64C47.7 34.9 46.86 39.21 45.69 43.45L45.06 45.84C44.95 46.29 44.82 46.96 44.22 46.84C43.37 46.63 43.92 45.69 44.01 45.14C44.66 42.49 45.34 39.86 45.92 37.19C46.66 33.76 47.43 30.34 48.43 26.98C49.37 23.85 50.62 20.82 51.58 17.69C52.54 14.56 53.33 11.38 54.05 8.18002C54.5811 6.22579 54.8237 4.20442 54.77 2.18002C54.7337 1.53236 54.6366 0.889519 54.48 0.26001H54.63H54.72L54.94 0.310028H55.03H55.18L55.45 0.360016L55.77 0.580017Z" fill="black"/>
<path d="M57.12 10.83C56.5 16.57 55.18 22.2 54.05 27.83C53.05 32.83 52.3101 37.83 51.5201 42.83C51.2601 44.54 50.95 46.25 50.73 47.96C50.73 48.0847 50.6805 48.2042 50.5924 48.2924C50.5042 48.3805 50.3847 48.43 50.26 48.43C50.1354 48.43 50.0158 48.3805 49.9277 48.2924C49.8396 48.2042 49.79 48.0847 49.79 47.96C50.79 40.41 51.79 32.84 53.28 25.36C54.28 20.64 55.28 15.92 55.8 11.14C56.189 8.67986 56.1314 6.16974 55.63 3.73001C55.3384 2.51015 54.8522 1.34525 54.19 0.280029H54.31H54.45H54.6H54.69L54.91 0.330017H55H55.15L55.42 0.380005L55.7401 0.460022L55.94 0.51001C56.152 0.913492 56.3358 1.33116 56.4901 1.76001C56.8452 2.7958 57.0768 3.86992 57.18 4.96002C57.431 6.91008 57.4109 8.8855 57.12 10.83Z" fill="black"/>
<path d="M60.51 14.16C60.669 17.7088 60.38 21.2634 59.65 24.74C59.23 27.34 58.65 29.92 58.11 32.49C57.57 35.06 57.1801 37.63 56.7701 40.21C56.4701 41.47 55.62 49.66 54.12 48.94C54.0621 48.8972 54.0151 48.8414 53.9827 48.7772C53.9502 48.7129 53.9333 48.6419 53.9333 48.5699C53.9333 48.498 53.9502 48.427 53.9827 48.3627C54.0151 48.2985 54.0621 48.2427 54.12 48.2C54.96 46.45 55.06 44.42 55.42 42.53C56.01 38.74 56.4801 34.94 57.2401 31.18C57.7901 28.54 58.24 25.87 58.65 23.18C59.1094 20.748 59.3105 18.2742 59.25 15.8V15.86C59.2138 13.7074 59.0368 11.5594 58.72 9.42996C58.5944 7.80915 58.0983 6.23882 57.2701 4.83997C56.6453 3.82762 55.9572 2.85568 55.2101 1.92996C54.9021 1.48088 54.5682 1.05014 54.2101 0.639954C54.1034 0.519931 54.037 0.369596 54.0201 0.209961H54.19L54.48 0.259949H54.63H54.72L54.94 0.309967H55.03H55.18L55.45 0.359955L55.7701 0.439972L55.97 0.48996L56.28 0.569946C56.74 1.19995 57.2 1.83996 57.63 2.48996C58.5085 3.76448 59.1832 5.16794 59.63 6.64996C60.1306 9.12464 60.425 11.6366 60.51 14.16Z" fill="black"/>
<path d="M61.78 42.82C61.59 44.82 61.42 46.77 61.1 48.72C61.0651 48.8498 60.9831 48.9619 60.8699 49.0344C60.7568 49.1069 60.6206 49.1346 60.4881 49.1121C60.3556 49.0896 60.2363 49.0185 60.1535 48.9127C60.0706 48.8069 60.0301 48.674 60.04 48.54C60.22 47.37 60.33 46.19 60.42 45.01C60.66 40.69 61.27 36.41 61.84 32.12C62.23 28.04 62.56 23.96 62.93 19.88C63.3159 15.972 62.9251 12.0263 61.78 8.26999C61.4667 7.41377 61.0176 6.61355 60.45 5.89999C59.8674 4.9867 59.153 4.16449 58.33 3.45999C57.3264 2.87784 56.4021 2.16864 55.58 1.34998C55.4751 1.23799 55.4065 1.09685 55.3832 0.945129C55.36 0.793407 55.3833 0.638238 55.45 0.5L55.77 0.579987L55.97 0.629974L56.28 0.709991C56.78 0.839991 57.28 0.989994 57.76 1.14999C58.3377 1.48736 58.8953 1.85796 59.43 2.25998C60.4604 3.17902 61.347 4.24762 62.06 5.42999C62.9522 6.78321 63.5234 8.32237 63.73 9.92999C65.28 16.37 64.01 23 63.57 29.5C63.21 33.97 62.19 38.35 61.78 42.82Z" fill="black"/>
<path d="M64.42 49.17C64.33 48.7818 64.33 48.3782 64.42 47.99C64.52 46.92 64.59 45.85 64.73 44.79C64.87 43.73 65.21 42.63 65.39 41.54C65.5 40.7 65.58 39.84 65.75 39.01C66.1043 37.6514 66.3253 36.2615 66.41 34.86C66.73 33.39 66.99 31.92 67.27 30.44C67.4525 29.7131 67.5862 28.9748 67.67 28.23C67.67 26.23 67.44 24.28 67.37 22.31C67.4293 20.3696 67.3424 18.4274 67.11 16.5C66.8615 14.8777 66.3939 13.2966 65.72 11.8C64.8885 9.6945 63.7348 7.73105 62.3 5.98002C61.4794 4.98618 60.5941 4.04748 59.65 3.17002C59.32 2.89002 58.73 2.70002 59 2.17002C59.5 1.44002 60.29 2.40001 60.73 2.76001C61.62 3.64001 62.48 4.56001 63.29 5.51002C66.0809 8.95004 67.8389 13.111 68.36 17.51C68.55 19.16 68.43 20.71 68.46 22.32C68.5201 24.26 68.71 26.19 68.72 28.14C68.67 29.51 68.19 30.83 68.03 32.19C67.88 33.19 67.66 34.14 67.47 35.11C67.38 35.92 67.35 36.73 67.23 37.53C66.8495 39.0317 66.5788 40.559 66.42 42.1C66.0185 43.5897 65.7804 45.1188 65.71 46.66C65.679 47.433 65.5853 48.2022 65.43 48.96C65.4396 49.0925 65.4001 49.2239 65.3189 49.3291C65.2377 49.4342 65.1207 49.5058 64.99 49.53C64.868 49.5455 64.7444 49.518 64.6404 49.4523C64.5364 49.3867 64.4585 49.2868 64.42 49.17Z" fill="black"/>
<path d="M71.3199 50.39C71.5499 47.7065 71.64 45.0128 71.5899 42.32C71.5399 40.22 71.1499 38.15 71.1099 36.05C70.9599 33.71 71.6299 31.48 71.7199 29.18C71.7177 27.51 71.631 25.8412 71.46 24.18C71.3542 21.8722 70.9852 19.584 70.3599 17.36C69.0922 13.3901 66.7777 9.83534 63.6599 7.06999C62.2899 5.85999 60.9399 4.62 59.6599 3.3C59.3799 3.03 58.8999 2.76 59.1999 2.3C59.6699 1.76 60.1999 2.49999 60.5299 2.81999C61.1899 3.48999 61.8499 4.15999 62.5299 4.81999C63.9326 5.97618 65.2681 7.21153 66.5299 8.52C69.6336 12.0722 71.6382 16.4496 72.2999 21.12C72.6299 24.46 73.1699 27.85 72.7599 31.2C72.4652 32.7655 72.3344 34.3574 72.3699 35.95C72.3699 37.73 72.7299 39.49 72.8299 41.27C73.0358 44.3626 72.8646 47.4688 72.3199 50.52C72.2649 50.6118 72.1842 50.6856 72.0878 50.7322C71.9914 50.7789 71.8835 50.7963 71.7774 50.7825C71.6712 50.7687 71.5714 50.7242 71.4901 50.6545C71.4088 50.5848 71.3497 50.4928 71.3199 50.39Z" fill="black"/>
<path d="M75.79 51.06C75.67 49.4 75.74 47.85 75.7 46.2C75.66 44.55 76.11 42.97 76.15 41.38C76.21 38.12 76.15 34.86 75.98 31.61C75.8233 27.4493 74.989 23.3421 73.51 19.45C72.4879 16.6396 71.019 14.0125 69.16 11.67C67.5983 9.83553 65.9287 8.09579 64.16 6.46002C62.6758 5.34891 61.1336 4.31746 59.54 3.37003C59.4128 3.35607 59.2901 3.31516 59.18 3.25003C59.1167 3.20432 59.0678 3.14147 59.039 3.06891C59.0101 2.99635 59.0026 2.91707 59.0173 2.84039C59.0321 2.76372 59.0683 2.69286 59.122 2.63611C59.1756 2.57935 59.2443 2.53907 59.32 2.52002C59.977 2.69701 60.5923 3.00294 61.13 3.42001C62.3863 4.13149 63.5954 4.92312 64.75 5.79001C66.7679 7.55122 68.6623 9.44905 70.42 11.47C71.4872 12.8233 72.4152 14.2806 73.19 15.82C74.9413 19.1786 76.1624 22.788 76.81 26.52C77.4147 31.1305 77.6454 35.7823 77.5 40.43C77.55 42.5 77.03 44.52 76.93 46.58C76.93 48.08 76.93 49.58 76.87 51.07C76.8446 51.1952 76.7764 51.3077 76.6771 51.3882C76.5778 51.4686 76.4536 51.5119 76.3258 51.5107C76.1981 51.5095 76.0747 51.4639 75.9769 51.3817C75.8792 51.2994 75.8131 51.1857 75.79 51.06Z" fill="black"/>
<path d="M82.59 49.8699C82.46 50.6099 82.77 52.5799 81.59 52.2099C81.5222 52.1754 81.4622 52.1273 81.4136 52.0688C81.365 52.0102 81.3288 51.9424 81.3073 51.8694C81.2857 51.7964 81.2793 51.7198 81.2884 51.6442C81.2975 51.5687 81.3218 51.4958 81.36 51.4299V51.2999C81.63 48.2399 81.7 45.1699 81.83 42.0999C81.8538 39.6677 81.636 37.2391 81.18 34.8499C80.5972 32.0538 79.7536 29.3185 78.66 26.6799C77.3501 22.3593 75.5165 18.2152 73.2 14.3399C70.91 10.7199 67.5701 7.98994 64.4901 5.08994C63.6801 4.35994 62.87 3.63993 62.04 2.92993C62.33 3.05993 62.61 3.19994 62.88 3.33994C64.4775 4.08563 66.0124 4.95842 67.47 5.94992L68.65 7.04993C70.4067 8.62932 72.0074 10.374 73.43 12.2599C76.43 16.4599 78.24 21.3199 79.84 26.1699C80.5024 27.7653 81.0602 29.4021 81.51 31.0699C82.1898 33.373 82.6386 35.738 82.85 38.1299C83.0726 40.7919 83.0726 43.4679 82.85 46.1299C82.8 47.3899 82.68 48.6299 82.59 49.8699Z" fill="black"/>
<path d="M84.85 52.4299C84.85 52.9999 84.56 54.1299 83.78 53.5999C83.6836 53.5102 83.624 53.3877 83.6129 53.2565C83.6018 53.1252 83.64 52.9945 83.72 52.8899C83.89 52.0899 83.94 51.2799 84.06 50.4699C84.3698 47.2427 84.43 43.9964 84.2401 40.7599C84.4148 37.6694 84.2065 34.5692 83.62 31.5299C82.93 29.3699 82.3 27.1799 81.41 25.0899C79.2936 20.5128 76.8784 16.0799 74.18 11.8199C73.88 11.3399 73.59 10.8199 73.3 10.3799C74.3 11.1399 75.22 11.8999 76.11 12.7299C77.91 15.7899 79.63 18.8899 81.23 22.0599C82.5657 24.8179 83.6533 27.6892 84.48 30.6399C84.919 32.1637 85.1709 33.7352 85.23 35.3199C85.3534 37.1038 85.3768 38.8933 85.3 40.6799C85.5254 44.602 85.3747 48.5366 84.85 52.4299Z" fill="black"/>
</g>
<defs>
<clipPath id="clip0_54_5202">
<rect width="88.35" height="78.7" fill="white"/>
</clipPath>
</defs>
</svg>
