<svg width="223" height="398" viewBox="0 0 223 398" fill="none" xmlns="http://www.w3.org/2000/svg">
<g clip-path="url(#clip0_52_4950)">
<path d="M221.93 130.14C221.77 131.93 221.52 133.71 221.21 135.48C219.83 143.22 217.21 150.66 214.89 158.18C211.68 168.79 210.3 179.07 205.47 189.31C201.55 197.58 196.95 205.58 193.47 214.04C192.319 216.838 191.317 219.695 190.47 222.6C185.61 239.45 187.47 257.51 190.9 274.72C193.3 286.81 196.48 298.72 198.58 310.88C198.85 312.37 199.09 313.88 199.31 315.33C199.592 317.298 199.756 319.282 199.8 321.27C199.805 321.316 199.805 321.363 199.8 321.41C199.86 323.92 199.8 326.41 199.75 328.94C199.75 329.63 199.75 330.31 199.75 331.01V331.95C199.799 334.452 200.043 336.946 200.48 339.41C201.3 344.32 202.61 349.3 203.42 353.97V354.19C204.34 359.52 205.23 364.99 204.19 370.3C201.77 382.66 188.19 385.81 177.73 388.64C172.642 389.927 167.492 390.955 162.3 391.72C145.895 394.571 129.342 396.487 112.72 397.46V397.61L111.16 397.53L109.6 397.61V397.46C92.9746 396.487 76.4179 394.571 60.01 391.72C54.8178 390.956 49.6678 389.928 44.58 388.64C34.13 385.81 20.58 382.64 18.12 370.3C17.27 365.96 17.7 361.51 18.39 357.12C18.55 356.12 18.72 355.17 18.88 354.19C18.8908 354.115 18.9075 354.042 18.93 353.97C20.13 346.9 22.54 339.12 22.58 331.97C22.58 326.27 22.14 321.19 23.01 315.35C23.85 309.73 25.01 304.15 26.17 298.6C27.91 290.6 29.83 282.73 31.42 274.74C32.48 269.48 33.42 264.13 33.98 258.74C35.36 246.57 35.23 234.28 31.84 222.59C28.58 211.3 22.54 201.16 17.48 190.65C17.26 190.21 17.04 189.76 16.83 189.3C11.99 179.06 10.61 168.78 7.39997 158.17C5.68997 152.56 3.77997 146.99 2.39997 141.3C1.89997 139.37 1.47998 137.43 1.11998 135.47C-1.25794 121.645 0.480801 107.425 6.11998 94.58C6.12542 94.5502 6.12542 94.5197 6.11998 94.49C8.77998 88.49 14.01 83.39 16.34 77.49C18.67 71.59 17.62 62.49 17.59 56.11C17.51 38.63 17.43 21.15 17.35 3.66996L27.22 -0.0400391C29.09 -0.0400391 34.62 69.67 35.28 75.64C46.4764 72.6071 58.2163 72.1625 69.61 74.34C75.1709 75.3933 80.5951 77.0706 85.78 79.34C87.44 80.06 89.08 80.85 90.67 81.7C94.3415 83.6361 97.8438 85.8773 101.14 88.4C104.731 91.1259 108.077 94.1608 111.14 97.47C111.98 96.57 112.84 95.68 113.72 94.81C120.301 88.3095 128.014 83.0667 136.48 79.34L136.58 79.29C146.362 75.0583 156.922 72.9224 167.58 73.02H168.28C174.61 73.1263 180.902 74.0233 187.01 75.69C187.01 75.5 187.01 75.25 187.08 74.95C188.02 65.35 193.25 0.0399551 195.08 0.0399551L204.95 3.74996L204.72 56.15C204.72 62.5 203.58 71.53 205.97 77.53C208.36 83.53 213.58 88.53 216.22 94.59C221.111 105.763 223.076 117.997 221.93 130.14Z" fill="white"/>
<path d="M178.03 333.84C174.95 330.69 170.15 330.06 165.73 329.95C162.457 329.873 159.182 329.977 155.92 330.26C158.32 328.94 160.66 327.5 162.92 325.97C165.179 324.544 167.231 322.814 169.02 320.83C170.805 318.825 171.893 316.295 172.12 313.62C172.188 312.248 171.957 310.877 171.443 309.603C170.928 308.328 170.143 307.181 169.142 306.241C168.14 305.3 166.946 304.588 165.642 304.155C164.338 303.721 162.955 303.576 161.59 303.73C157.21 304.22 153.76 307.62 150.97 311.03C148.887 313.56 146.948 316.204 145.16 318.95C145.59 316.25 145.91 313.51 146.1 310.77C146.373 308.103 146.275 305.411 145.81 302.77C145.335 300.125 144.012 297.706 142.04 295.88C140.999 294.984 139.776 294.325 138.455 293.947C137.135 293.57 135.748 293.483 134.39 293.693C133.033 293.903 131.737 294.405 130.593 295.164C129.448 295.923 128.482 296.921 127.76 298.09C125.44 301.84 126.01 306.66 126.97 310.96C127.44 313.09 127.97 315.2 128.63 317.29C127.56 316.04 126.44 314.81 125.29 313.63C123.501 311.648 121.445 309.925 119.18 308.51C116.899 307.09 114.217 306.451 111.54 306.69C110.178 306.864 108.87 307.33 107.706 308.058C106.542 308.786 105.549 309.757 104.796 310.905C104.044 312.053 103.549 313.351 103.346 314.709C103.143 316.066 103.236 317.452 103.62 318.77C104.86 323 108.8 325.77 112.62 327.98C115.474 329.592 118.415 331.044 121.43 332.33C118.683 332.37 115.943 332.534 113.21 332.82C110.549 333.013 107.928 333.571 105.42 334.48C102.897 335.406 100.745 337.13 99.29 339.39C98.5846 340.568 98.1438 341.886 97.9983 343.252C97.8529 344.617 98.0062 345.998 98.4476 347.299C98.889 348.599 99.6079 349.788 100.555 350.783C101.501 351.778 102.653 352.555 103.93 353.06C108.03 354.7 112.67 353.31 116.74 351.62C119.771 350.363 122.729 348.938 125.6 347.35C123.94 349.54 122.37 351.8 120.92 354.13C119.434 356.349 118.26 358.762 117.43 361.3C116.612 363.859 116.647 366.613 117.53 369.15C118.025 370.432 118.793 371.591 119.781 372.547C120.768 373.502 121.952 374.231 123.25 374.683C124.548 375.135 125.929 375.299 127.296 375.164C128.664 375.029 129.986 374.598 131.17 373.9C134.97 371.68 136.74 367.17 137.91 362.9C138.783 359.742 139.477 356.537 139.99 353.3C140.697 355.967 141.52 358.587 142.46 361.16C143.313 363.705 144.51 366.121 146.02 368.34C147.525 370.565 149.717 372.236 152.26 373.1C153.571 373.496 154.952 373.603 156.308 373.415C157.664 373.227 158.964 372.749 160.118 372.012C161.272 371.275 162.253 370.297 162.994 369.145C163.734 367.994 164.218 366.696 164.41 365.34C164.99 360.96 162.53 356.8 159.9 353.25C157.95 350.618 155.853 348.097 153.62 345.7C156.14 346.77 158.71 347.7 161.32 348.59C163.833 349.491 166.457 350.043 169.12 350.23C171.804 350.413 174.474 349.71 176.72 348.23C177.844 347.44 178.782 346.415 179.47 345.225C180.157 344.036 180.578 342.712 180.703 341.343C180.828 339.975 180.653 338.596 180.191 337.302C179.73 336.009 178.992 334.831 178.03 333.85V333.84Z" fill="#FFE1AD"/>
<path d="M122.72 130.1C119.929 125.17 115.837 121.101 110.89 118.34C107.749 116.449 104.438 114.855 101 113.58C103.46 113.32 105.83 113.02 108.1 112.64C110.205 112.416 112.244 111.777 114.1 110.76C115.026 110.147 115.785 109.313 116.308 108.334C116.832 107.355 117.104 106.261 117.1 105.15C117.053 101.769 116.055 98.47 114.22 95.6301L113.68 94.8001C112.8 95.6701 111.94 96.5601 111.1 97.4601C108.037 94.151 104.691 91.1161 101.1 88.3901C99.1695 88.9989 97.3856 89.9998 95.86 91.3301C93.6576 93.1439 91.6228 95.152 89.78 97.3301C90.24 94.6634 90.5733 91.9401 90.78 89.1601C91.0118 86.6793 90.9649 84.1804 90.64 81.7101C89.05 80.8601 87.41 80.0701 85.75 79.3501C80.5651 77.0807 75.1408 75.4034 69.58 74.3501C68.99 77.3501 69.5 80.8001 70.23 84.0301C70.75 86.3401 71.36 88.6401 72.04 90.9501C70.8733 89.4168 69.6566 87.9334 68.39 86.5001C66.4571 84.153 64.2131 82.0806 61.72 80.3401C59.2626 78.6142 56.299 77.7589 53.3 77.9101C51.8133 78.0495 50.3757 78.5153 49.0896 79.2741C47.8036 80.0329 46.7008 81.0662 45.86 82.3001C45.042 83.4895 44.5007 84.8469 44.2758 86.2727C44.0508 87.6986 44.1479 89.1567 44.56 90.5401C45.92 94.8901 50.29 97.6901 54.56 100.14C57.71 101.94 60.95 103.71 64.25 105.45C61.261 105.132 58.2516 105.052 55.25 105.21C52.3127 105.281 49.4072 105.835 46.65 106.85C43.8635 107.893 41.4911 109.813 39.89 112.32C39.0935 113.531 38.5915 114.911 38.4242 116.35C38.257 117.789 38.429 119.248 38.9267 120.609C39.4244 121.969 40.2338 123.195 41.2902 124.187C42.3465 125.178 43.6205 125.909 45.01 126.32C49.53 127.84 54.65 126.5 59.14 125.09C62.47 124.03 65.71 122.94 68.85 121.78C67.0224 123.803 65.3129 125.93 63.73 128.15C62.0887 130.298 60.7962 132.69 59.9 135.24C58.9927 137.904 59.028 140.799 60 143.44C61.222 146.294 63.4599 148.592 66.28 149.89C68.97 151.201 72.056 151.447 74.92 150.58C79.05 149.13 80.92 144.97 82.2 140.87C83.1474 137.799 83.8923 134.669 84.43 131.5C85.1833 134.493 86.06 137.493 87.06 140.5C87.9918 143.522 89.2316 146.441 90.76 149.21C92.4028 152.121 94.6253 154.663 97.29 156.68C100.01 158.68 103.03 159.62 105.35 159.26C106.492 159.072 107.537 158.502 108.313 157.642C109.088 156.783 109.549 155.686 109.62 154.53C110.21 150.31 107.77 144.53 105.11 139.53C103.11 135.79 100.99 132.15 98.69 128.66L106.54 135.41C108.988 137.598 111.569 139.632 114.27 141.5C116.86 143.2 119.49 144.4 121.54 144.27C123.59 144.14 125.01 142.51 125.24 139.84C125.293 136.426 124.423 133.06 122.72 130.1Z" fill="#FFE1AD"/>
<path d="M32.06 114.24C29.67 112.24 25.95 112.42 22.57 113.1C20.0189 113.611 17.5139 114.33 15.08 115.25C16.9 113.73 18.68 112.25 20.42 110.65C22.139 109.202 23.707 107.584 25.1 105.82C26.4445 104.163 27.2784 102.152 27.5 100.03C27.5689 99.0702 27.3942 98.1086 26.9921 97.2345C26.59 96.3603 25.9736 95.602 25.2 95.0299C24.3472 94.4866 23.3777 94.1535 22.3712 94.0579C21.3646 93.9623 20.3498 94.1069 19.41 94.4799C16.07 95.6799 13.46 98.9899 11.36 102.19C9.78998 104.57 8.35997 107.03 7.00997 109.54C7.32998 107.42 7.56999 105.33 7.70999 103.25C7.91432 101.316 7.84361 99.3636 7.49998 97.4499C7.27683 96.3752 6.8041 95.3681 6.11998 94.5099C6.12542 94.5396 6.12542 94.5701 6.11998 94.5998C0.480801 107.445 -1.25794 121.664 1.11998 135.49C1.47998 137.49 1.89997 139.39 2.39997 141.32C2.73997 139.68 3.03998 138.05 3.27998 136.43C3.79339 138.158 4.40097 139.858 5.09999 141.52C5.69604 143.106 6.581 144.567 7.70999 145.83C8.31294 146.46 9.04036 146.958 9.84604 147.292C10.6517 147.626 11.518 147.789 12.39 147.77C14.6267 147.593 16.7428 146.684 18.4112 145.184C20.0795 143.683 21.2072 141.675 21.62 139.47C22.07 136.14 20.17 133.47 18.18 131.4C16.7142 129.856 15.1183 128.441 13.41 127.17C15.32 127.38 17.26 127.55 19.26 127.66C21.2583 127.847 23.2716 127.803 25.26 127.53C27.4005 127.22 29.4235 126.359 31.13 125.03C32.8387 123.663 33.9443 121.682 34.21 119.51C34.3088 118.523 34.1645 117.526 33.7897 116.608C33.415 115.689 32.8211 114.876 32.06 114.24Z" fill="#FFE1AD"/>
<path d="M143.24 228.13C141.01 225.86 137.54 225.41 134.36 225.32C131.991 225.266 129.621 225.343 127.26 225.55C128.99 224.55 130.68 223.55 132.33 222.44C133.962 221.409 135.445 220.161 136.74 218.73C138.032 217.282 138.819 215.454 138.98 213.52C139.032 212.527 138.866 211.535 138.495 210.613C138.124 209.691 137.557 208.861 136.833 208.18C136.108 207.5 135.245 206.985 134.301 206.673C133.358 206.36 132.357 206.257 131.37 206.37C128.2 206.71 125.71 209.18 123.69 211.64C122.187 213.472 120.785 215.385 119.49 217.37C119.8 215.37 120.03 213.44 120.16 211.46C120.358 209.54 120.291 207.602 119.96 205.7C119.615 203.782 118.657 202.027 117.23 200.7C116.476 200.052 115.59 199.576 114.633 199.304C113.676 199.033 112.672 198.974 111.69 199.13C110.708 199.286 109.772 199.654 108.946 200.208C108.121 200.763 107.426 201.49 106.91 202.34C105.23 205.06 105.64 208.54 106.33 211.65C106.68 213.19 107.08 214.72 107.54 216.22C106.76 215.32 105.96 214.43 105.13 213.58C103.829 212.15 102.339 210.905 100.7 209.88C99.0536 208.849 97.1139 208.389 95.18 208.57C94.1994 208.692 93.2563 209.023 92.4145 209.54C91.5727 210.058 90.8516 210.75 90.3 211.57C89.7633 212.404 89.41 213.343 89.2634 214.324C89.1169 215.304 89.1805 216.305 89.45 217.26C90.35 220.32 93.2 222.35 95.98 223.92C98.0444 225.082 100.171 226.13 102.35 227.06C100.35 227.06 98.35 227.2 96.41 227.42C94.4865 227.555 92.5914 227.959 90.78 228.62C88.9521 229.287 87.3927 230.533 86.34 232.17C85.8313 233.022 85.5138 233.975 85.4096 234.962C85.3054 235.949 85.417 236.947 85.7365 237.886C86.0561 238.826 86.5761 239.685 87.2604 240.404C87.9448 241.123 88.7772 241.684 89.7 242.05C92.7 243.24 96.02 242.23 98.96 241.05C101.149 240.14 103.286 239.108 105.36 237.96C104.16 239.55 103.04 241.18 101.99 242.87C100.913 244.469 100.062 246.209 99.46 248.04C98.8696 249.891 98.8941 251.884 99.53 253.72C99.8881 254.646 100.443 255.484 101.157 256.175C101.87 256.866 102.726 257.394 103.663 257.722C104.601 258.05 105.599 258.171 106.587 258.075C107.576 257.98 108.532 257.671 109.39 257.17C112.14 255.56 113.39 252.29 114.27 249.22C114.905 246.917 115.409 244.58 115.78 242.22C116.287 244.147 116.88 246.04 117.56 247.9C118.158 249.736 119.01 251.479 120.09 253.08C121.181 254.689 122.768 255.897 124.61 256.52C125.56 256.803 126.559 256.879 127.541 256.743C128.523 256.607 129.463 256.261 130.3 255.73C131.13 255.185 131.835 254.47 132.368 253.632C132.901 252.794 133.249 251.853 133.39 250.87C133.81 247.71 132.03 244.7 130.13 242.13C128.716 240.233 127.201 238.413 125.59 236.68C127.41 237.45 129.27 238.16 131.16 238.77C132.976 239.424 134.874 239.824 136.8 239.96C138.738 240.089 140.665 239.583 142.29 238.52C143.103 237.947 143.782 237.205 144.279 236.344C144.777 235.483 145.081 234.525 145.172 233.535C145.262 232.544 145.136 231.546 144.803 230.61C144.469 229.673 143.936 228.82 143.24 228.11V228.13Z" fill="#FFE1AD"/>
<path d="M57.86 327.55C55.64 325.26 52.16 324.81 48.97 324.74C46.6011 324.678 44.2305 324.752 41.87 324.96C43.61 323.96 45.31 322.96 46.95 321.85C48.5817 320.82 50.0654 319.571 51.36 318.14C52.6542 316.689 53.4436 314.857 53.61 312.92C53.6563 311.929 53.4874 310.939 53.1148 310.02C52.7422 309.1 52.1748 308.272 51.4516 307.592C50.7284 306.913 49.8667 306.398 48.9256 306.084C47.9845 305.769 46.9864 305.662 46 305.77C42.83 306.12 40.34 308.58 38.31 311.05C36.8014 312.878 35.3991 314.791 34.11 316.78C34.42 314.78 34.65 312.84 34.79 310.86C34.9818 308.939 34.9077 307.001 34.57 305.1C34.2344 303.181 33.2789 301.425 31.85 300.1C31.0942 299.458 30.2095 298.985 29.2555 298.715C28.3014 298.444 27.3004 298.381 26.32 298.53H26.14C24.94 304.08 23.82 309.66 22.98 315.28C22.11 321.12 22.58 326.2 22.55 331.9C22.55 339.07 20.1 346.85 18.9 353.9C18.8775 353.972 18.8608 354.046 18.85 354.12C18.69 355.12 18.52 356.07 18.36 357.05C19.2893 357.355 20.2722 357.462 21.2454 357.364C22.2185 357.266 23.1603 356.965 24.01 356.48C26.77 354.87 28.01 351.6 28.89 348.53C29.5185 346.246 30.0226 343.929 30.4 341.59C30.91 343.5 31.5 345.4 32.18 347.27C32.7865 349.1 33.6376 350.839 34.71 352.44C35.8042 354.048 37.3901 355.259 39.23 355.89C40.181 356.173 41.1821 356.247 42.1645 356.107C43.1469 355.967 44.0873 355.617 44.9214 355.079C45.7554 354.541 46.4633 353.829 46.9964 352.993C47.5295 352.156 47.8753 351.213 48.01 350.23C48.44 347.07 46.66 344.06 44.75 341.5C43.3388 339.594 41.8231 337.768 40.21 336.03C42.04 336.81 43.89 337.51 45.78 338.13C47.5957 338.79 49.4934 339.197 51.42 339.34C53.3586 339.477 55.2883 338.971 56.91 337.9C57.7225 337.33 58.401 336.589 58.8985 335.73C59.396 334.871 59.7005 333.914 59.7909 332.925C59.8813 331.936 59.7554 330.94 59.422 330.005C59.0885 329.07 58.5555 328.218 57.86 327.51V327.55Z" fill="#FFE1AD"/>
<path d="M191.08 92.8298C189.115 89.5735 186.115 87.0701 182.56 85.7198C180.264 84.7637 177.859 84.092 175.4 83.7198C177.18 83.1898 178.91 82.6598 180.55 82.1298C182.101 81.7098 183.571 81.0339 184.9 80.1298C185.556 79.6484 186.092 79.0231 186.468 78.302C186.845 77.5808 187.05 76.783 187.07 75.9698C187.094 75.6369 187.094 75.3027 187.07 74.9698C187.07 75.2698 187.01 75.5198 187 75.7098C180.892 74.0432 174.6 73.1462 168.27 73.0398C167.96 73.4298 167.67 73.8298 167.38 74.2398C167.44 73.8398 167.51 73.4398 167.57 73.0398C156.912 72.9423 146.352 75.0781 136.57 79.3098C136.575 79.8215 136.653 80.3298 136.8 80.8198C137.64 83.3998 140.36 83.9698 143.11 84.4498C145.11 84.7998 147.29 85.1198 149.52 85.4498C147.45 86.0195 145.44 86.7898 143.52 87.7498C141.519 88.7021 139.675 89.9531 138.05 91.4598C136.263 93.1459 134.852 95.1905 133.91 97.4598C132.99 99.7698 132.78 102.06 133.36 103.55C133.638 104.258 134.162 104.842 134.837 105.195C135.511 105.548 136.29 105.645 137.03 105.47C139.82 105.07 143.11 102.62 146.08 100.42C148.27 98.7798 150.46 97.1798 152.6 95.6198C151.352 97.4607 150.197 99.3631 149.14 101.32C148.053 103.191 147.193 105.185 146.58 107.26C145.978 109.099 146.002 111.086 146.65 112.91C147.035 113.713 147.627 114.398 148.365 114.896C149.104 115.393 149.961 115.685 150.85 115.74C152.95 115.901 155.042 115.34 156.78 114.15C159.65 112.23 160.99 108.97 161.87 105.86C162.538 103.581 163.066 101.263 163.45 98.9198C163.99 100.84 164.61 102.75 165.33 104.65C165.976 106.54 166.863 108.338 167.97 110C169.164 111.741 170.777 113.155 172.66 114.11C174.462 115.023 176.536 115.244 178.49 114.73C179.319 114.461 180.053 113.959 180.603 113.283C181.153 112.607 181.496 111.786 181.59 110.92C182.01 107.92 180.24 104.23 178.32 101.09C176.926 98.7797 175.39 96.5587 173.72 94.4398C175.6 95.6098 177.5 96.8098 179.39 98.0298C181.19 99.2526 183.056 100.374 184.98 101.39C186.86 102.31 188.76 102.93 190.23 102.69C191.7 102.45 192.7 101.26 192.86 99.3898C192.911 97.0773 192.293 94.7992 191.08 92.8298Z" fill="#FFE1AD"/>
<path d="M91.72 367.49C90.4 366.13 88.34 365.86 86.44 365.81C85.03 365.81 83.63 365.81 82.22 365.94C83.22 365.37 84.22 364.76 85.22 364.1C86.1893 363.489 87.0707 362.749 87.84 361.9C88.6097 361.039 89.0768 359.951 89.17 358.8C89.2015 358.21 89.104 357.62 88.8841 357.072C88.6642 356.524 88.3273 356.03 87.8969 355.625C87.4665 355.22 86.953 354.915 86.3922 354.729C85.8314 354.543 85.2368 354.482 84.65 354.55C82.77 354.76 81.29 356.22 80.08 357.68C79.1924 358.77 78.3613 359.905 77.59 361.08C77.77 359.92 77.91 358.75 77.99 357.57C78.1104 356.433 78.0701 355.285 77.87 354.16C77.6688 353.011 77.1004 351.958 76.25 351.16C75.802 350.775 75.2761 350.493 74.7084 350.331C74.1408 350.169 73.5447 350.132 72.9614 350.222C72.378 350.312 71.8211 350.528 71.3289 350.854C70.8367 351.179 70.4209 351.608 70.11 352.11C69.11 353.72 69.36 355.79 69.78 357.64C69.98 358.56 70.22 359.46 70.49 360.36C70.02 359.82 69.55 359.3 69.05 358.79C68.2815 357.937 67.4 357.194 66.43 356.58C65.4467 355.971 64.2913 355.701 63.14 355.81C62.5558 355.886 61.9949 356.088 61.4958 356.401C60.9967 356.714 60.5712 357.131 60.2483 357.624C59.9254 358.117 59.7128 358.674 59.6251 359.256C59.5374 359.839 59.5766 360.434 59.74 361C60.28 362.81 61.97 364 63.62 364.95C64.8467 365.645 66.1121 366.269 67.41 366.82C66.23 366.82 65.05 366.9 63.88 367.03C62.7363 367.114 61.6093 367.352 60.53 367.74C59.4469 368.142 58.5216 368.882 57.89 369.85C57.5895 370.358 57.4025 370.924 57.3417 371.511C57.2809 372.098 57.3477 372.691 57.5377 373.25C57.7277 373.808 58.0363 374.319 58.4424 374.747C58.8484 375.175 59.3422 375.511 59.89 375.73C61.65 376.43 63.64 375.84 65.4 375.11C66.6965 374.567 67.9618 373.953 69.19 373.27C68.49 374.21 67.81 375.19 67.19 376.18C66.5574 377.161 66.0628 378.224 65.72 379.34C65.3548 380.433 65.3548 381.616 65.72 382.71C65.9333 383.26 66.2634 383.758 66.6876 384.168C67.1118 384.578 67.62 384.892 68.1771 385.087C68.7342 385.281 69.3269 385.353 69.9144 385.297C70.5019 385.24 71.0702 385.057 71.58 384.76C73.22 383.81 73.97 381.87 74.48 380.04C74.8522 378.684 75.1493 377.308 75.37 375.92C75.67 377.06 76.03 378.19 76.43 379.29C76.7904 380.381 77.2985 381.417 77.94 382.37C78.5941 383.308 79.5342 384.01 80.62 384.37C81.1851 384.542 81.7809 384.589 82.3659 384.507C82.951 384.426 83.5113 384.218 84.008 383.898C84.5047 383.579 84.9258 383.155 85.2422 382.656C85.5586 382.157 85.7625 381.595 85.84 381.01C86.09 379.13 85.03 377.34 83.9 375.82C83.0582 374.689 82.157 373.604 81.2 372.57C82.29 373.04 83.39 373.45 84.52 373.82C85.5951 374.21 86.7192 374.449 87.86 374.53C89.0099 374.605 90.1532 374.307 91.12 373.68C91.602 373.34 92.0044 372.899 92.2996 372.388C92.5949 371.877 92.7758 371.309 92.83 370.721C92.8842 370.134 92.8103 369.542 92.6135 368.985C92.4167 368.429 92.1016 367.922 91.69 367.5L91.72 367.49Z" fill="#FFE1AD"/>
<path d="M179.57 261.73C178.25 260.37 176.19 260.1 174.29 260.05C172.882 260.018 171.473 260.062 170.07 260.18C171.07 259.62 172.07 259 173.07 258.34C174.042 257.729 174.924 256.985 175.69 256.13C176.465 255.273 176.933 254.182 177.02 253.03C177.048 252.441 176.948 251.853 176.727 251.307C176.506 250.761 176.169 250.269 175.739 249.866C175.309 249.463 174.797 249.158 174.238 248.972C173.679 248.786 173.086 248.724 172.5 248.79C170.62 249 169.14 250.46 167.93 251.93C167.038 253.016 166.206 254.151 165.44 255.33C165.62 254.17 165.76 252.99 165.84 251.82C165.96 250.677 165.92 249.522 165.72 248.39C165.519 247.239 164.946 246.185 164.09 245.39C163.639 245.01 163.111 244.731 162.542 244.574C161.973 244.417 161.377 244.385 160.795 244.48C160.213 244.575 159.658 244.795 159.168 245.125C158.679 245.454 158.267 245.886 157.96 246.39C156.96 248 157.21 250.06 157.63 251.92C157.83 252.83 158.07 253.73 158.34 254.63C157.87 254.1 157.4 253.57 156.9 253.06C156.136 252.205 155.254 251.464 154.28 250.86C153.297 250.249 152.142 249.975 150.99 250.08C150.406 250.156 149.845 250.358 149.346 250.671C148.847 250.984 148.421 251.401 148.098 251.894C147.775 252.387 147.563 252.944 147.475 253.527C147.387 254.109 147.427 254.704 147.59 255.27C148.13 257.09 149.82 258.27 151.47 259.22C152.698 259.913 153.963 260.537 155.26 261.09C154.08 261.09 152.9 261.18 151.73 261.3C150.587 261.392 149.46 261.634 148.38 262.02C147.291 262.413 146.363 263.155 145.74 264.13C145.441 264.637 145.256 265.203 145.196 265.789C145.136 266.375 145.203 266.966 145.393 267.524C145.583 268.081 145.891 268.591 146.296 269.018C146.701 269.446 147.194 269.78 147.74 270C149.5 270.7 151.5 270.1 153.25 269.38C154.546 268.841 155.812 268.23 157.04 267.55C156.34 268.48 155.66 269.45 155.04 270.46C154.4 271.412 153.895 272.449 153.54 273.54C153.175 274.634 153.175 275.816 153.54 276.91C153.758 277.456 154.092 277.948 154.519 278.353C154.945 278.758 155.454 279.066 156.01 279.256C156.567 279.446 157.158 279.514 157.743 279.454C158.328 279.394 158.893 279.209 159.4 278.91C161.04 277.96 161.79 276.02 162.3 274.2C162.671 272.84 162.968 271.462 163.19 270.07C163.49 271.21 163.85 272.33 164.25 273.44C164.607 274.527 165.112 275.56 165.75 276.51C166.404 277.464 167.347 278.183 168.44 278.56C169.006 278.73 169.601 278.777 170.186 278.696C170.772 278.614 171.332 278.408 171.83 278.09C172.32 277.766 172.737 277.341 173.052 276.845C173.368 276.349 173.575 275.792 173.66 275.21C173.91 273.33 172.85 271.53 171.72 270.01C170.878 268.883 169.977 267.801 169.02 266.77C170.11 267.24 171.21 267.65 172.34 268.01C173.417 268.395 174.54 268.634 175.68 268.72C176.832 268.805 177.98 268.502 178.94 267.86C179.429 267.517 179.835 267.07 180.131 266.551C180.426 266.033 180.604 265.455 180.65 264.86C180.696 264.292 180.624 263.72 180.438 263.182C180.252 262.643 179.957 262.149 179.57 261.73Z" fill="#FFE1AD"/>
<path d="M218.72 130.53C214.662 131.45 211.118 133.905 208.83 137.38C205.36 142.87 206.2 149.81 207.64 156.04C208.35 159.11 209.19 162.15 210.13 165.15C208.51 163.39 206.85 161.64 205.13 159.9C202.392 156.994 199.325 154.416 195.99 152.22C192.601 149.983 188.667 148.711 184.61 148.54C182.709 148.474 180.818 148.847 179.084 149.629C177.35 150.411 175.819 151.582 174.61 153.05C173.498 154.629 172.764 156.441 172.464 158.349C172.164 160.256 172.306 162.207 172.88 164.05C174.7 170.56 180.53 175.72 186.25 179.52C190.421 182.312 194.816 184.754 199.39 186.82C195.283 186.733 191.197 186.667 187.13 186.62C183.266 186.45 179.395 186.685 175.58 187.32C171.92 188.08 168.58 189.68 166.58 192.5C164.58 195.32 164.08 199.57 165.37 203.65C166.745 207.877 169.581 211.476 173.37 213.8C179.37 217.37 186.31 216.33 192.37 214.35L193.37 214C196.85 205.54 201.45 197.54 205.37 189.27C210.2 179.03 211.58 168.75 214.79 158.14C217.07 150.62 219.73 143.14 221.11 135.44C221.42 133.67 221.67 131.89 221.83 130.1C220.782 130.144 219.741 130.288 218.72 130.53Z" fill="#FFE1AD"/>
<path d="M159.26 183.08C157.86 181.497 156.034 180.352 154 179.78C152.6 179.29 151.2 178.85 149.82 178.48C150.838 178.282 151.841 178.011 152.82 177.67C153.762 177.391 154.642 176.932 155.41 176.32C155.801 175.988 156.12 175.578 156.345 175.117C156.571 174.656 156.698 174.153 156.72 173.64C156.731 172.34 156.281 171.079 155.45 170.08C154.644 169.027 153.511 168.271 152.23 167.93C151.412 167.791 150.572 167.859 149.787 168.126C149.001 168.393 148.294 168.851 147.73 169.46C146.852 170.216 146.033 171.039 145.28 171.92C145.471 170.807 145.604 169.686 145.68 168.56C145.783 167.406 145.743 166.244 145.56 165.1C145.319 163.795 144.774 162.565 143.97 161.51C143.167 160.439 142.047 159.649 140.77 159.25C140.297 159.082 139.785 159.057 139.298 159.178C138.811 159.299 138.37 159.56 138.03 159.93C137.03 161.12 137.3 163.29 137.7 165.32C137.9 166.32 138.13 167.32 138.39 168.32C137.94 167.58 137.48 166.85 137 166.12C136.256 164.93 135.417 163.803 134.49 162.75C133.634 161.754 132.564 160.964 131.36 160.44C130.917 160.226 130.42 160.15 129.934 160.221C129.447 160.292 128.993 160.508 128.63 160.84C128.31 161.287 128.1 161.804 128.017 162.348C127.934 162.891 127.979 163.447 128.15 163.97C128.65 166.06 130.25 168.11 131.82 169.82C132.98 171.08 134.18 172.29 135.42 173.42C134.3 172.91 133.17 172.42 132.06 172.01C131.045 171.578 129.98 171.275 128.89 171.11C128.445 171.024 127.986 171.052 127.554 171.19C127.123 171.328 126.733 171.572 126.42 171.9C126.125 172.377 125.942 172.914 125.885 173.472C125.828 174.03 125.898 174.593 126.09 175.12C126.49 176.511 127.249 177.773 128.29 178.78C129.709 180.086 131.572 180.801 133.5 180.78C134.714 180.846 135.932 180.806 137.14 180.66C136.46 181.287 135.819 181.955 135.22 182.66C134.587 183.356 134.101 184.172 133.79 185.06C133.44 186.163 133.44 187.347 133.79 188.45C134.238 189.804 135.051 191.008 136.14 191.93C136.576 192.339 137.094 192.652 137.659 192.848C138.224 193.045 138.824 193.12 139.42 193.07C141 192.81 141.74 191.18 142.23 189.55C142.596 188.315 142.887 187.06 143.1 185.79C143.4 187.04 143.73 188.31 144.1 189.57C144.462 190.837 144.955 192.064 145.57 193.23C146.206 194.42 147.11 195.447 148.21 196.23C148.678 196.588 149.219 196.838 149.795 196.962C150.37 197.086 150.966 197.082 151.54 196.95C152.03 196.79 152.462 196.491 152.785 196.09C153.108 195.689 153.308 195.202 153.36 194.69C153.61 192.89 152.55 190.75 151.44 188.84C150.607 187.426 149.717 186.03 148.77 184.65C149.84 185.51 150.94 186.3 152.05 187.05C153.075 187.79 154.191 188.394 155.37 188.85C156.402 189.294 157.561 189.347 158.63 189C159.115 188.786 159.532 188.442 159.834 188.006C160.136 187.57 160.311 187.059 160.34 186.53C160.393 185.289 160.011 184.069 159.26 183.08Z" fill="#FFE1AD"/>
<path d="M71.42 226.25C68.18 223.74 63.11 224.08 58.42 224.54C54.94 224.89 51.42 225.28 47.94 225.73C50.5434 224.224 53.0484 222.554 55.44 220.73C57.8743 218.975 60.0577 216.895 61.93 214.55C63.7934 212.24 64.9374 209.434 65.22 206.48C65.3117 205.122 65.0731 203.763 64.5245 202.517C63.9759 201.272 63.1337 200.178 62.07 199.33C60.9228 198.517 59.6193 197.952 58.2422 197.67C56.8651 197.388 55.4443 197.394 54.07 197.69C49.38 198.61 45.69 202.25 42.69 205.8C40.47 208.45 38.4 211.14 36.48 213.91C36.94 211.11 37.29 208.28 37.48 205.43C37.767 202.659 37.6626 199.862 37.17 197.12C36.6413 194.291 35.2429 191.697 33.17 189.7C30.9388 187.676 28.0424 186.541 25.03 186.51C23.6804 186.488 22.3444 186.782 21.1289 187.369C19.9134 187.956 18.8521 188.819 18.03 189.89C17.85 190.15 17.69 190.41 17.54 190.68C22.6 201.19 28.64 211.33 31.9 222.62C35.29 234.31 35.42 246.62 34.04 258.77C34.8759 261.14 36.0154 263.392 37.43 265.47C39.0218 267.864 41.3757 269.651 44.11 270.54C45.5385 270.925 47.0347 270.989 48.4908 270.726C49.9468 270.463 51.3263 269.88 52.53 269.02C53.7483 268.15 54.779 267.044 55.5607 265.768C56.3424 264.491 56.8591 263.07 57.08 261.59C57.72 256.95 55.08 252.93 52.28 249.45C50.2 246.86 47.94 244.34 45.56 241.9C48.2128 242.949 50.9404 243.798 53.72 244.44C56.4254 245.151 59.233 245.392 62.02 245.15C64.9977 244.824 67.7969 243.568 70.02 241.56C72.3454 239.422 73.8223 236.518 74.18 233.38C74.3516 232.056 74.1889 230.709 73.7068 229.464C73.2248 228.218 72.4386 227.114 71.42 226.25Z" fill="#FFE1AD"/>
<path d="M96.91 175.1C95.65 174.36 93.69 174.99 91.85 175.72C90.5 176.26 89.13 176.86 87.77 177.5C88.77 176.5 89.77 175.5 90.69 174.5C91.6389 173.492 92.4863 172.394 93.22 171.22C93.9339 170.117 94.3728 168.858 94.5 167.55C94.567 167.043 94.4878 166.526 94.2717 166.062C94.0556 165.598 93.7116 165.206 93.28 164.93C92.7744 164.721 92.2268 164.634 91.6814 164.676C91.1359 164.718 90.608 164.887 90.14 165.17C88.32 166.12 86.87 168.17 85.7 170.03C84.83 171.43 84.01 172.86 83.25 174.29C83.43 173.07 83.57 171.85 83.64 170.64C83.7624 169.517 83.7219 168.382 83.52 167.27C83.4437 166.775 83.2623 166.302 82.9881 165.883C82.7138 165.464 82.353 165.108 81.93 164.84C81.4152 164.609 80.8551 164.496 80.2909 164.509C79.7266 164.523 79.1727 164.664 78.67 164.92C77.4605 165.492 76.4678 166.439 75.84 167.62C75.0285 169.385 74.9038 171.388 75.49 173.24C75.7033 174.1 75.9433 174.94 76.21 175.76C75.75 175.35 75.27 174.96 74.78 174.58C73.991 173.925 73.099 173.404 72.14 173.04C71.0704 172.674 69.9096 172.674 68.84 173.04C67.6125 173.472 66.5731 174.317 65.9 175.43C65.5808 175.944 65.3708 176.518 65.283 177.117C65.1953 177.716 65.2317 178.326 65.39 178.91C65.93 180.62 67.65 181.51 69.31 182.08C70.5532 182.508 71.8268 182.843 73.12 183.08C71.94 183.39 70.76 183.73 69.57 184.08C68.3938 184.421 67.2599 184.894 66.19 185.49C65.084 186.094 64.1615 186.986 63.52 188.07C63.2188 188.589 63.0303 189.165 62.9665 189.761C62.9028 190.357 62.9653 190.96 63.15 191.53C63.3389 192.049 63.6579 192.511 64.0763 192.872C64.4948 193.232 64.9987 193.48 65.54 193.59C67.32 193.97 69.34 192.95 71.1 191.81C72.4249 190.956 73.7002 190.028 74.92 189.03C74.2 190.16 73.54 191.3 72.92 192.45C72.2905 193.539 71.7872 194.697 71.42 195.9C71.0482 196.989 71.0482 198.171 71.42 199.26C71.6315 199.752 71.9733 200.177 72.4086 200.489C72.8439 200.801 73.3561 200.988 73.89 201.03C75.1439 201.079 76.3663 200.63 77.29 199.78C78.7818 198.248 79.7813 196.305 80.16 194.2C80.5324 192.746 80.8294 191.275 81.05 189.79C81.3318 190.807 81.6655 191.808 82.05 192.79C82.3876 193.731 82.8887 194.604 83.53 195.37C83.8582 195.739 84.2646 196.03 84.7196 196.222C85.1746 196.414 85.6666 196.502 86.16 196.48C87.4362 196.318 88.6094 195.695 89.46 194.73C90.4046 193.736 91.0222 192.476 91.23 191.12C91.304 190.287 91.1722 189.448 90.8462 188.677C90.5201 187.906 90.0098 187.227 89.36 186.7C88.544 185.888 87.6645 185.142 86.73 184.47C87.802 184.545 88.878 184.545 89.95 184.47C91.0578 184.421 92.151 184.198 93.19 183.81C94.4001 183.321 95.469 182.537 96.3 181.53C97.1944 180.469 97.7577 179.169 97.92 177.79C98.0172 177.292 97.9742 176.777 97.7959 176.302C97.6175 175.827 97.3109 175.411 96.91 175.1Z" fill="#FFE1AD"/>
<path d="M199.78 321.41C198.7 321.41 197.62 321.49 196.55 321.6C195.405 321.691 194.279 321.936 193.2 322.33C192.117 322.723 191.193 323.461 190.57 324.43C190.268 324.937 190.079 325.504 190.018 326.091C189.956 326.679 190.022 327.272 190.213 327.832C190.403 328.391 190.712 328.902 191.119 329.33C191.526 329.758 192.021 330.092 192.57 330.31C194.33 331.01 196.32 330.41 198.07 329.68C198.63 329.45 199.19 329.21 199.74 328.94C199.77 326.4 199.84 323.92 199.78 321.41ZM199.72 331.95V331.01C199.15 331.89 198.699 332.841 198.38 333.84C198.015 334.937 198.015 336.123 198.38 337.22C198.757 338.17 199.468 338.949 200.38 339.41C199.967 336.944 199.746 334.45 199.72 331.95ZM196.31 319.53C197.439 320.17 198.601 320.75 199.79 321.27C199.746 319.282 199.582 317.298 199.3 315.33C199.08 313.85 198.84 312.33 198.57 310.88C197.726 310.457 196.778 310.286 195.84 310.39C195.255 310.466 194.693 310.667 194.193 310.979C193.692 311.291 193.265 311.708 192.94 312.2C192.617 312.692 192.406 313.248 192.319 313.83C192.233 314.412 192.274 315.005 192.44 315.57C192.94 317.4 194.64 318.6 196.29 319.53H196.31Z" fill="#FFE1AD"/>
<path d="M100.46 293.34C99.13 291.99 97.07 291.72 95.17 291.68C93.7653 291.638 92.3594 291.682 90.96 291.81C91.96 291.23 92.96 290.62 93.96 289.96C94.9343 289.352 95.8194 288.611 96.59 287.76C97.356 286.897 97.8226 285.81 97.92 284.66C97.9498 284.07 97.8511 283.482 97.6306 282.934C97.4101 282.387 97.0732 281.894 96.6432 281.489C96.2132 281.085 95.7004 280.779 95.1404 280.593C94.5804 280.406 93.9865 280.344 93.4 280.41C91.51 280.62 90.04 282.08 88.83 283.54C87.9368 284.629 87.1055 285.768 86.34 286.95C86.52 285.78 86.66 284.61 86.74 283.43C86.8555 282.293 86.8152 281.146 86.62 280.02C86.423 278.869 85.8539 277.816 85 277.02C84.5541 276.632 84.029 276.346 83.4612 276.181C82.8934 276.016 82.2965 275.977 81.7122 276.067C81.1278 276.156 80.5699 276.372 80.0774 276.699C79.5848 277.026 79.1694 277.456 78.86 277.96C77.86 279.57 78.11 281.64 78.52 283.49C78.73 284.4 78.97 285.32 79.24 286.21C78.77 285.67 78.29 285.14 77.8 284.63C77.0267 283.788 76.1458 283.052 75.18 282.44C74.1982 281.827 73.0425 281.553 71.89 281.66C71.3058 281.736 70.7449 281.938 70.2458 282.251C69.7467 282.564 69.3212 282.981 68.9983 283.474C68.6754 283.967 68.4629 284.524 68.3751 285.107C68.2874 285.689 68.3266 286.284 68.49 286.85C69.02 288.67 70.72 289.85 72.37 290.85C73.5969 291.542 74.8623 292.163 76.16 292.71C74.97 292.71 73.8 292.79 72.62 292.92C71.4786 293.003 70.3544 293.246 69.28 293.64C68.194 294.032 67.2667 294.77 66.64 295.74C66.343 296.249 66.1581 296.816 66.0978 297.402C66.0374 297.988 66.1029 298.581 66.29 299.14C66.4798 299.698 66.788 300.209 67.1936 300.637C67.5993 301.065 68.0927 301.4 68.64 301.62C70.39 302.32 72.39 301.73 74.14 301C75.4417 300.462 76.7105 299.847 77.94 299.16C77.2267 300.107 76.56 301.077 75.94 302.07C75.3086 303.026 74.8075 304.062 74.45 305.15C74.0848 306.247 74.0848 307.433 74.45 308.53C74.6705 309.077 75.0034 309.571 75.4272 309.981C75.851 310.391 76.3562 310.708 76.91 310.91C77.4683 311.098 78.0604 311.166 78.6467 311.107C79.2331 311.048 79.8001 310.865 80.31 310.57C81.94 309.62 82.7 307.68 83.21 305.85C83.5775 304.493 83.8745 303.118 84.1 301.73C84.4 302.87 84.75 304 85.16 305.1C85.5183 306.192 86.0265 307.228 86.67 308.18C87.322 309.12 88.2629 309.823 89.35 310.18C89.9151 310.35 90.5104 310.396 91.0948 310.314C91.6792 310.231 92.2388 310.023 92.7351 309.704C93.2313 309.385 93.6524 308.961 93.9692 308.463C94.2859 307.965 94.4909 307.405 94.57 306.82C94.82 304.95 93.76 303.16 92.63 301.63C91.7876 300.503 90.8863 299.422 89.93 298.39C91.02 298.85 92.12 299.27 93.24 299.63C94.3189 300.019 95.4461 300.258 96.59 300.34C97.7412 300.414 98.8853 300.112 99.85 299.48C100.332 299.14 100.734 298.699 101.03 298.188C101.325 297.677 101.506 297.109 101.56 296.521C101.614 295.934 101.54 295.342 101.344 294.786C101.147 294.229 100.832 293.723 100.42 293.3L100.46 293.34Z" fill="#FFE1AD"/>
<g style="mix-blend-mode:multiply" opacity="0.35">
<path d="M30.07 194.23C32.9426 198.949 36.7648 203.02 41.2939 206.184C45.8231 209.348 50.9604 211.536 56.38 212.61C64.1395 214.174 72.2019 212.964 79.16 209.19C86.23 205.57 92.81 204.98 100.73 205.19L120.46 205.83C125.06 205.97 129.72 206.13 134.12 207.46C145.45 210.87 153.89 211.54 165.67 208.46C171.339 207.01 176.672 204.469 181.37 200.98C185.56 197.85 188.28 191.46 192.2 188.85C186.38 192.73 178.9 192.72 171.9 192.58C160.52 192.34 148.59 191.96 138.7 186.31C130.61 181.68 123.81 168.19 114.43 167.05C105.05 165.91 96.82 177.38 90.04 182.18C72.92 194.39 50.46 197.63 30.07 194.23Z" fill="#D4D6D7"/>
</g>
</g>
<defs>
<clipPath id="clip0_52_4950">
<rect width="222.25" height="397.61" fill="white"/>
</clipPath>
</defs>
</svg>
