<svg width="254" height="232" viewBox="0 0 254 232" fill="none" xmlns="http://www.w3.org/2000/svg">
<g clip-path="url(#clip0_55_5726)">
<path d="M98.67 0C98.67 0 121.56 11.9 154.98 0C154.98 0 164.37 35.94 126.83 35.94C89.29 35.94 98.67 0 98.67 0Z" fill="#0D83A3"/>
<path d="M211.07 99.1302C217.26 97.7502 253.66 62.9602 253.66 62.9602C253.66 62.9602 221.15 28.3902 214.28 21.2902C207.41 14.1902 210.39 12.3602 195.96 10.2902C181.53 8.22023 154.96 -0.00976562 154.96 -0.00976562C154.96 30.2102 126.81 32.7302 126.81 32.7302C126.81 32.7302 98.65 30.2102 98.65 -0.00976562C98.65 -0.00976562 72.09 8.23023 57.65 10.2902C43.21 12.3502 46.2 14.1802 39.33 21.2902C32.46 28.4002 -0.039978 62.9602 -0.039978 62.9602C-0.039978 62.9602 36.38 97.7502 42.58 99.1302C42.58 99.1302 56.31 85.3902 58.15 85.8502C59.99 86.3102 55.86 228.7 56.31 231.68H197.38C197.84 228.68 193.71 86.3102 195.55 85.8502C197.39 85.3902 211.07 99.1302 211.07 99.1302Z" fill="#129CB2"/>
<path d="M160.75 1.73C157.23 0.730003 154.98 0 154.98 0C154.98 30.22 126.83 32.74 126.83 32.74C126.83 32.74 98.6699 30.22 98.6699 0C98.6699 0 96.42 0.690003 92.9 1.73C92.9 1.73 91.1499 38.23 126.83 38.23C162.51 38.23 160.75 1.73 160.75 1.73Z" fill="#19ADBC"/>
<path d="M56.24 38.23C56.24 38.23 60.09 70.32 52.39 89.87C54.97 87.61 57.26 85.87 58.05 85.87C60.23 75.3 61.17 59.51 56.24 38.23Z" fill="#0D83A3"/>
<path d="M197.32 38.23C197.32 38.23 193.47 70.32 201.17 89.87C198.58 87.61 196.3 85.87 195.51 85.87C193.38 75.3 192.38 59.51 197.32 38.23Z" fill="#0D83A3"/>
<path d="M56.31 231.68H197.38C197.45 231.23 197.38 227.6 197.31 221.78H56.38C56.28 227.6 56.25 231.23 56.31 231.68Z" fill="#0D83A3"/>
</g>
<defs>
<clipPath id="clip0_55_5726">
<rect width="253.66" height="231.68" fill="white"/>
</clipPath>
</defs>
</svg>
