<svg width="291" height="331" viewBox="0 0 291 331" fill="none" xmlns="http://www.w3.org/2000/svg">
<g clip-path="url(#clip0_51_4736)">
<path d="M171.31 15.0001C171.36 21.0001 171.43 26.9001 171.4 32.8601C171.57 54.4801 167.99 75.8601 165.21 97.1901C164.78 98.5001 165.39 102.38 163.95 102.5C163.746 102.492 163.552 102.406 163.411 102.258C163.269 102.111 163.19 101.915 163.19 101.71C163.67 96.1001 164 90.4801 164.59 84.8801C162.05 99.3601 158.86 113.77 153.59 127.52C152.108 131.585 150.402 135.564 148.48 139.44C147.6 141.02 147.17 143.82 144.86 143.66C141.92 142.92 141.39 139.16 140.2 136.8C138.86 133.43 137.32 130.07 135.84 126.8C130.476 115.506 126.681 103.532 124.56 91.2101C121.611 74.4599 120.415 57.4482 120.99 40.4501C121.28 30.5201 124.21 20.7401 124.89 10.8801C124.707 10.8281 124.548 10.7148 124.438 10.5592C124.329 10.4037 124.276 10.2153 124.289 10.0256C124.302 9.83583 124.38 9.65629 124.509 9.51695C124.638 9.37761 124.812 9.28694 125 9.2601C125.29 6.8101 124.42 3.2601 127.35 2.2001C132.35 0.880098 137.69 1.2501 142.82 1.2801C146.12 1.4601 149.38 2.0501 152.68 2.2801C158.18 2.9001 163.81 2.4001 169.27 3.1001C172.31 4.8401 170.93 11.8401 171.31 15.0001Z" fill="black"/>
<path d="M200.38 330.77C202.773 330.69 205.16 330.543 207.54 330.33C209.09 330.18 210.64 330 212.18 329.81C214.46 329.54 216.75 329.23 219.02 328.86C219.65 328.76 220.29 328.67 220.92 328.55L222.86 328.19C224 327.98 225.14 327.71 226.27 327.47H226.43L230.29 326.59C231.49 326.31 232.68 326 233.87 325.7C234.87 325.44 235.87 325.15 236.87 324.87C237.01 321.96 237.04 319.05 237.06 316.14C237.14 292.14 236.06 268.06 234.68 244.06C233.413 216.58 231.613 189.137 229.28 161.73C233.71 171.91 238.36 181.99 242.81 192.16C245.38 197.16 256.88 222.79 263.48 230.24C264.32 229.98 265.16 229.71 265.99 229.43C267.31 228.94 268.61 228.43 269.91 227.9C271.21 227.37 272.74 226.68 274.16 226.07C275.87 225.33 277.59 224.61 279.31 223.88C280.21 223.5 281.09 223.1 281.99 222.71C282.89 222.32 283.51 221.97 284.26 221.6L286.18 220.54C286.5 220.36 286.8 220.15 287.11 219.95C287.42 219.75 287.81 219.51 288.11 219.28C288.789 218.816 289.437 218.308 290.05 217.76C290.27 217.56 290.48 217.34 290.68 217.12C290.08 212.47 288.19 207.91 287.3 203.31C286.18 198.86 285.03 194.42 283.74 190.02C275.32 161.1 266.25 132.42 255.43 104.3C250.71 91.3799 246.49 78.2999 241 65.6699C235.37 52.4499 231.19 38.7699 227 25.0799C226.768 24.2994 226.47 23.54 226.11 22.8099C226.11 19.7499 211.97 19.5899 209.58 19.0599C207.43 19.0099 199.52 17.5499 195.98 18.2599C194.51 15.5299 186.63 9.62989 185.43 8.86989C182.68 7.02989 165.32 -3.01011 163.66 0.959887C163.612 1.23848 163.649 1.52517 163.767 1.78221C163.885 2.03924 164.077 2.25459 164.32 2.39989C163.73 16.1099 163.93 29.8499 163.32 43.5699C162.755 59.4062 161.296 75.198 158.95 90.8699C158.13 96.1599 157.3 101.47 155.95 106.66C154.24 113.46 152.14 120.13 149.78 126.72C148.31 130.94 147.04 135.23 145.54 139.44C142.98 146.977 140.86 154.657 139.19 162.44C138.25 167.69 137.63 172.99 137.19 178.31C136.06 190.84 136.26 203.45 136.11 216.02C135.58 244.75 137.11 273.45 137.89 302.17C138.18 311.42 138.15 320.69 138.44 329.95C139.87 330.08 141.31 330.17 142.74 330.24C144.93 330.3 147.12 330.32 149.3 330.39L156.41 330.62C158.93 330.687 161.45 330.733 163.97 330.76C166.4 330.76 168.83 330.76 171.27 330.76C173.71 330.76 176.07 330.76 178.47 330.76C183.34 330.76 188.2 330.87 193.07 330.9H194.15C196.277 330.873 198.353 330.83 200.38 330.77Z" fill="#35271C"/>
<path d="M139.48 188.25C139.89 185.57 140.19 183.01 140.75 180.43C141.597 177.061 142.903 173.824 144.63 170.81C145.53 169.38 146.56 168.04 147.63 166.71C149.78 163.88 151.69 160.88 153.75 157.99C155.81 155.1 158.01 152.27 160.01 149.31C162.01 146.35 164.01 143.19 166.01 140.18C169.103 135.733 172.047 131.19 174.84 126.55C177.76 122.01 180.64 117.44 183.48 112.84C185.729 109.302 187.593 105.534 189.04 101.6C189.75 99.6499 190.56 97.1299 188.9 95.4299C188.182 94.7946 187.431 94.1971 186.65 93.6399C182.75 90.6399 178.32 88.3199 174.37 85.3499C177.83 85.2499 181.28 85.2799 184.74 85.2099C188.45 85.0399 195.32 85.8399 195.39 80.5199C195.63 72.5199 195.69 64.4099 195.74 56.3599C195.78 46.4799 195.837 36.5966 195.91 26.7099C195.91 24.4599 196.05 22.1899 195.85 19.9399C195.847 19.7989 195.814 19.66 195.754 19.5325C195.694 19.4049 195.607 19.2916 195.5 19.1999C195.428 19.1461 195.344 19.1097 195.256 19.0937C195.167 19.0777 195.076 19.0825 194.99 19.1077C194.904 19.133 194.824 19.1779 194.758 19.239C194.693 19.3001 194.642 19.3758 194.61 19.4599C194.327 21.1839 194.153 22.924 194.09 24.6699C193.3 41.9499 192.77 59.2499 193.09 76.5399C193.09 77.9899 193.17 79.4299 193.16 80.8699C193.173 81.1715 193.081 81.4682 192.9 81.7099C192.931 81.671 192.964 81.6343 193 81.5999C191.63 83.4199 185.92 82.8599 183.65 83.0399C180.96 83.0999 178.28 83.1799 175.6 83.2299C174.33 83.3299 172.6 82.9599 171.76 84.1499C171.627 84.3596 171.548 84.5987 171.528 84.8462C171.509 85.0938 171.551 85.3422 171.65 85.5699C172.46 87.1899 174.21 88.0599 175.65 89.1099C179.56 91.7499 183.65 94.1099 187.37 97.1099C187.433 97.1975 187.486 97.2913 187.53 97.3899L187.46 97.2499C188.01 98.6099 186.16 102.07 185.69 103.38C183.18 109.08 179.46 114.38 176.28 119.58C173.84 123.36 171.48 127.19 169.13 131.03C167.18 134.08 165.13 137.03 163.13 140.03C161.13 143.03 159.18 146.12 157.13 149.11C155.08 152.1 152.85 154.96 150.84 157.98C148.83 161 147.02 163.89 145.01 166.77C142.191 170.964 140.23 175.674 139.24 180.63C138.96 182.22 138.78 183.81 138.56 185.4C138.44 186.3 138.33 187.2 138.22 188.1C138.258 188.23 138.333 188.345 138.437 188.432C138.54 188.52 138.666 188.575 138.8 188.591C138.935 188.607 139.071 188.583 139.191 188.522C139.312 188.462 139.413 188.367 139.48 188.25Z" fill="black"/>
<path d="M228.87 178.62C228.96 178.619 229.048 178.6 229.13 178.563C229.213 178.527 229.287 178.475 229.348 178.41C229.41 178.344 229.458 178.267 229.489 178.183C229.52 178.099 229.534 178.01 229.53 177.92C229.43 174.61 229.38 171.29 229.29 167.97C229.2 164.65 228.98 161.26 228.74 157.9C228.25 151.4 227.99 144.9 227.65 138.38C227.19 128.29 226.38 118.22 225.59 108.15C224.8 98.08 224.59 87.74 224.11 77.54C223.63 67.34 223.65 57.21 223.57 47.04C223.57 41.16 223.57 35.26 224.08 29.41C224.27 27.31 224.59 25.23 224.74 23.13C224.762 23.033 224.763 22.9326 224.743 22.8351C224.724 22.7377 224.684 22.6455 224.626 22.5644C224.569 22.4833 224.495 22.4153 224.409 22.3645C224.324 22.3138 224.229 22.2816 224.13 22.27C224.023 22.2594 223.915 22.2735 223.815 22.3112C223.714 22.349 223.624 22.4093 223.55 22.4876C223.477 22.5659 223.422 22.6601 223.391 22.7628C223.36 22.8655 223.353 22.9741 223.37 23.08C223.1 25.43 222.6 27.62 222.37 29.96C221.3 38.43 221.25 46.96 221.15 55.52C220.73 84.16 223.92 112.7 225.95 141.2C226.43 149.11 227.22 157 227.71 164.9C227.87 169.25 228.01 173.61 228.2 177.95C228.207 178.125 228.28 178.292 228.404 178.416C228.529 178.54 228.695 178.613 228.87 178.62Z" fill="black"/>
<path d="M215.77 206.65C216.482 206.655 217.193 206.615 217.9 206.53C217.991 206.518 218.079 206.487 218.159 206.441C218.239 206.395 218.308 206.333 218.364 206.26C218.42 206.186 218.461 206.102 218.484 206.013C218.507 205.924 218.513 205.831 218.5 205.74C218.32 204.88 217.33 205.22 216.71 205.14C212.42 204.95 208.15 204.48 203.87 204.25C190.19 203.64 176.57 202.64 162.93 202.5C162.62 202.488 162.317 202.6 162.089 202.811C161.862 203.022 161.727 203.315 161.715 203.625C161.703 203.935 161.815 204.238 162.026 204.465C162.237 204.693 162.53 204.828 162.84 204.84C180.55 205.71 198.09 206.19 215.77 206.65Z" fill="black"/>
<path d="M176.21 231.44C179.92 231.34 183.63 231.19 187.34 231.32C194.078 231.689 200.835 231.451 207.53 230.61C213.6 229.74 213.33 229.18 214.82 223.61C215.82 219.93 216.53 216.18 217.35 212.46C217.76 210.58 218.18 208.7 218.46 206.79C218.505 206.559 218.485 206.32 218.4 206.1C218.349 206.013 218.276 205.941 218.188 205.89C218.1 205.84 218.001 205.814 217.9 205.814C217.799 205.814 217.7 205.84 217.612 205.89C217.524 205.941 217.451 206.013 217.4 206.1C215.16 213.1 213.7 220.33 211.3 227.26C210.806 227.644 210.22 227.892 209.6 227.98C208.27 228.28 206.91 228.46 205.6 228.63C202.312 229.054 199.004 229.311 195.69 229.4C189.96 229.47 184.23 229.13 178.5 229.4C176.36 229.45 174.21 229.48 172.07 229.47H170.07C169.73 229.47 169.49 229.19 169.26 228.98C168.697 228.193 168.268 227.317 167.99 226.39C167.39 224.58 166.87 222.75 166.36 220.91C164.695 215.314 163.511 209.587 162.82 203.79C162.82 203.18 162.55 202.47 161.82 202.5C161.699 202.503 161.58 202.529 161.469 202.578C161.359 202.626 161.259 202.696 161.175 202.783C161.092 202.871 161.026 202.974 160.982 203.086C160.939 203.199 160.917 203.319 160.92 203.44C161.13 205.25 161.39 207.07 161.66 208.87C162.794 215.462 164.466 221.951 166.66 228.27C167.3 230.11 168.66 231.77 170.75 231.55C172.53 231.51 174.37 231.48 176.21 231.44Z" fill="black"/>
<path d="M69.69 55.5198C70.11 84.1598 66.92 112.7 64.89 141.2C64.4 149.11 63.62 157 63.13 164.9C62.96 169.25 62.83 173.61 62.63 177.95C62.6417 178.047 62.6328 178.145 62.6037 178.238C62.5746 178.331 62.5261 178.417 62.4614 178.49C62.3967 178.563 62.3172 178.622 62.2281 178.662C62.1391 178.702 62.0426 178.723 61.945 178.723C61.8474 178.723 61.7509 178.702 61.6619 178.662C61.5729 178.622 61.4934 178.563 61.4286 178.49C61.3639 178.417 61.3154 178.331 61.2863 178.238C61.2572 178.145 61.2483 178.047 61.26 177.95C61.37 174.64 61.42 171.32 61.51 168C61.6 164.68 61.81 161.29 62.06 157.93C62.55 151.44 62.81 144.93 63.15 138.41C63.61 128.32 64.41 118.25 65.21 108.18C66.01 98.1098 66.21 87.7698 66.69 77.5698C67.17 67.3698 67.15 57.2398 67.23 47.0698C67.23 41.1898 67.23 35.2898 66.72 29.4398C66.53 27.3398 66.21 25.2598 66.06 23.1598C66.0383 23.0628 66.0373 22.9624 66.0569 22.8649C66.0765 22.7675 66.1163 22.6753 66.1738 22.5942C66.2313 22.5131 66.3052 22.445 66.3907 22.3943C66.4761 22.3436 66.5713 22.3114 66.67 22.2998C66.7769 22.2892 66.8847 22.3033 66.9852 22.341C67.0858 22.3788 67.1763 22.4391 67.2497 22.5174C67.3232 22.5957 67.3777 22.6899 67.4089 22.7926C67.4402 22.8953 67.4474 23.0039 67.43 23.1098C67.7 25.4598 68.2 27.6498 68.43 29.9898C69.54 38.3898 69.58 46.9898 69.69 55.5198Z" fill="#35271C"/>
<path d="M128.99 202.45C129.111 202.453 129.23 202.479 129.341 202.528C129.451 202.576 129.551 202.646 129.635 202.734C129.718 202.821 129.784 202.924 129.828 203.037C129.871 203.149 129.893 203.269 129.89 203.39C129.68 205.2 129.42 207.02 129.15 208.82C128.031 215.411 126.376 221.899 124.2 228.22C123.56 230.06 122.2 231.72 120.11 231.5C118.27 231.5 116.43 231.48 114.59 231.44C110.88 231.34 107.17 231.19 103.46 231.32C96.7223 231.689 89.9651 231.452 83.27 230.61C77.19 229.74 77.46 229.17 75.98 223.61C74.98 219.93 74.27 216.18 73.45 212.46C73.04 210.58 72.62 208.7 72.34 206.79C72.3347 206.697 72.3347 206.603 72.34 206.51V206.39C72.3351 206.367 72.3351 206.343 72.34 206.32C72.3359 206.297 72.3359 206.273 72.34 206.25C72.3356 206.23 72.3356 206.21 72.34 206.19C72.34 206.19 72.34 206.12 72.34 206.09V206.03C72.3351 205.997 72.3351 205.963 72.34 205.93C72.52 205.07 73.51 205.41 74.13 205.33C78.42 205.14 82.69 204.67 86.97 204.44C100.65 203.83 114.27 202.83 127.91 202.69H127.99H128.12H128.27C128.335 202.716 128.399 202.746 128.46 202.78L128.58 202.69H128.64H128.75H128.99V202.45Z" fill="#35271C"/>
<path d="M152.63 170.16C152.403 168.827 152.143 167.477 151.85 166.11C151.79 165.82 151.72 165.52 151.66 165.23C151.49 164.49 151.32 163.76 151.14 163.03C151.14 162.88 151.07 162.73 151.03 162.57C150.96 162.28 150.89 161.98 150.81 161.69C150.65 161.06 150.48 160.44 150.31 159.81L150.1 159.04C149.52 157.04 148.9 154.95 148.26 152.92L148.04 152.25C147.97 152.04 147.91 151.83 147.84 151.61C147.51 150.61 147.18 149.61 146.84 148.61L146.55 147.75C146.28 146.92 146 146.1 145.72 145.28L145.57 144.83L145.09 143.4C145 143.13 144.9 142.85 144.81 142.57L144.66 142.12C143.82 139.92 142.85 137.78 141.96 135.6C141.898 135.454 141.864 135.298 141.86 135.14C141.855 135.11 141.855 135.08 141.86 135.05C141.856 135.023 141.856 134.996 141.86 134.97C141.856 134.947 141.856 134.923 141.86 134.9C141.859 134.877 141.859 134.853 141.86 134.83C141.89 134.726 141.93 134.626 141.98 134.53L142.18 134.36L141.45 132.64L139.89 128.98C139.67 128.46 139.44 127.98 139.22 127.43C134.206 114.88 130.72 101.773 128.84 88.3899C127.583 79.6993 126.938 70.931 126.91 62.1499C126.81 57.0299 126.49 51.9099 126.31 46.7899C126.02 35.1399 125.97 23.4799 125.9 11.7899C125.9 8.7899 125.9 5.7099 126.2 2.6799C126.195 2.65682 126.195 2.63298 126.2 2.6099C126.2 2.6099 126.2 2.5599 126.2 2.5399V2.4199C126.242 2.31674 126.307 2.22445 126.39 2.1499V2.0999L126.55 1.9799L126.72 1.8999C126.594 2.09072 126.431 2.25401 126.24 2.3799C126.83 16.0899 126.63 29.8299 127.24 43.5499C127.57 54.0199 128.37 64.4199 129.54 74.7899C130.14 80.1232 130.83 85.4766 131.61 90.8499C132.03 93.5999 132.46 96.3499 132.96 99.0799C133.42 101.61 133.96 104.08 134.59 106.63C136.3 113.43 138.4 120.1 140.76 126.69C141.6 129.12 142.38 131.56 143.17 134C143.64 135.43 144.11 136.86 144.61 138.29C144.73 138.66 144.86 139.04 145 139.41C147.56 146.947 149.68 154.627 151.35 162.41C151.92 164.96 152.3 167.55 152.63 170.16Z" fill="#35271C"/>
<path d="M152.7 188.11C152.706 188.288 152.645 188.461 152.528 188.595C152.411 188.729 152.247 188.813 152.071 188.831C151.894 188.849 151.717 188.799 151.575 188.691C151.434 188.583 151.339 188.425 151.31 188.25C150.91 185.57 150.61 183.01 150.05 180.43C149.202 177.061 147.897 173.824 146.17 170.81C145.27 169.38 144.24 168.04 143.17 166.71C141.02 163.88 139.11 160.88 137.05 157.99C134.99 155.1 132.79 152.27 130.78 149.31C128.77 146.35 126.78 143.19 124.78 140.18C121.693 135.733 118.747 131.19 115.94 126.55C113.03 122.01 110.14 117.44 107.31 112.84C105.061 109.302 103.197 105.534 101.75 101.6C101.04 99.6499 100.23 97.1299 101.89 95.4299C102.608 94.7946 103.359 94.1971 104.14 93.6399C108.04 90.6399 112.47 88.3199 116.42 85.3499C112.96 85.2499 109.51 85.2799 106.05 85.2099C102.34 85.0399 95.47 85.8399 95.4 80.5199C95.15 72.5199 95.1 64.4099 95.05 56.3599C95.01 46.4799 94.9533 36.5966 94.88 26.7099C94.88 24.4599 94.74 22.1899 94.94 19.9399C94.938 19.7981 94.9685 19.6576 95.0292 19.5293C95.0898 19.4011 95.1791 19.2884 95.29 19.1999C95.362 19.1461 95.4456 19.1097 95.5341 19.0937C95.6226 19.0777 95.7136 19.0825 95.7999 19.1077C95.8862 19.133 95.9655 19.1779 96.0314 19.239C96.0974 19.3001 96.1483 19.3758 96.18 19.4599C96.463 21.1839 96.6367 22.924 96.7 24.6699C97.49 41.9499 98.01 59.2499 97.7 76.5399C97.7 77.9799 97.62 79.4299 97.63 80.8699C97.625 80.9465 97.625 81.0233 97.63 81.0999C97.6338 81.1164 97.6338 81.1335 97.63 81.1499C97.63 81.1499 97.63 81.1499 97.63 81.2099V81.3199C97.6256 81.3397 97.6256 81.3602 97.63 81.3799L97.72 81.5299L97.79 81.6099L97.87 81.6799L97.96 81.7499C98.0139 81.8011 98.0744 81.8448 98.14 81.8799L98.34 81.9999H98.45L98.56 82.0599H98.68H98.8L99.19 82.1899L99.45 82.2599H99.6L99.9 82.3199L100.22 82.3799H100.53H100.99C101.32 82.3799 101.67 82.4599 101.99 82.4799H102.52H103.33H105.99H106.86H107.16C109.85 82.5399 112.53 82.6199 115.16 82.6699C116.43 82.7699 118.16 82.3999 119 83.5899C119.133 83.7996 119.212 84.0387 119.232 84.2862C119.251 84.5338 119.209 84.7822 119.11 85.0099C118.29 86.6299 116.55 87.4999 115.11 88.5499C111.2 91.1899 107.06 93.5499 103.39 96.5499L103.3 96.6899V96.7499V96.8699C102.97 98.3399 104.68 101.56 105.13 102.81C107.64 108.51 111.36 113.81 114.54 119.01C116.98 122.79 119.34 126.62 121.69 130.46C123.63 133.51 125.69 136.46 127.69 139.46C129.69 142.46 131.69 145.55 133.69 148.54C135.69 151.53 137.97 154.39 139.98 157.4C141.99 160.41 143.8 163.32 145.81 166.2C148.629 170.394 150.59 175.104 151.58 180.06C151.86 181.65 152.04 183.24 152.26 184.83C152.48 186.31 152.59 187.21 152.7 188.11Z" fill="#35271C"/>
<path d="M154.07 187.65C153.93 186.38 153.83 185.11 153.74 183.84V183.28C153.735 183.217 153.735 183.153 153.74 183.09C153.74 182.92 153.74 182.74 153.74 182.56C153.74 182.38 153.74 182.06 153.74 181.8C153.74 181.54 153.74 181.25 153.74 180.97C153.69 180.22 153.66 179.48 153.62 178.73C153.62 178.52 153.62 178.31 153.62 178.1C153.62 177.89 153.62 177.68 153.62 177.46C153.62 177.72 153.62 177.98 153.69 178.24C153.73 181.39 153.93 184.51 154.07 187.65Z" fill="#35271C"/>
<path d="M154.53 215.95C155.05 244.68 153.53 273.38 152.74 302.1C152.53 308.99 152.5 315.88 152.37 322.78C152.37 322.83 152.37 322.89 152.37 322.94C151.94 324.54 152.77 330.24 150.79 329.53C150.625 329.43 150.505 329.271 150.453 329.085C150.401 328.9 150.421 328.701 150.51 328.53C150.743 324.11 150.86 319.683 150.86 315.25C150.41 302.8 150.86 290.32 151.6 277.88C152.38 267.63 152.7 257.35 152.88 247.07C153.05 240.2 154.05 233.38 153.95 226.5C153.95 225.6 154 224.69 154.03 223.78L154.09 221.89C154.15 219.69 154.22 217.49 154.27 215.3C154.27 214.46 154.27 213.63 154.34 212.8V211.56V210.31C154.34 209.07 154.34 207.82 154.41 206.58C154.48 209.69 154.49 212.82 154.53 215.95Z" fill="#35271C"/>
<path d="M98.5 17L89 22L95 89L96 119.5L117 149L129.5 126L107 99L117 94.5L121.5 89V82L101 81V71.5C101.833 60 103.5 36.8 103.5 36V23L98.5 17Z" fill="#35271C"/>
<path d="M140 198L68.5 201L73.5 244L137 241.5L140 198Z" fill="#35271C"/>
<path d="M152.7 188.11C152.706 188.288 152.645 188.461 152.528 188.595C152.411 188.729 152.247 188.813 152.071 188.831C151.894 188.849 151.717 188.799 151.575 188.691C151.434 188.583 151.339 188.425 151.31 188.25C150.91 185.57 150.61 183.01 150.05 180.43C149.202 177.061 147.897 173.824 146.17 170.81C145.27 169.38 144.24 168.04 143.17 166.71C141.02 163.88 139.11 160.88 137.05 157.99C134.99 155.1 132.79 152.27 130.78 149.31C128.77 146.35 126.78 143.19 124.78 140.18C121.693 135.733 118.747 131.19 115.94 126.55C113.03 122.01 110.14 117.44 107.31 112.84C105.061 109.302 103.197 105.534 101.75 101.6C101.04 99.6499 100.23 97.1299 101.89 95.4299C102.608 94.7946 103.359 94.1971 104.14 93.6399C108.04 90.6399 112.47 88.3199 116.42 85.3499C112.96 85.2499 109.51 85.2799 106.05 85.2099C102.34 85.0399 95.47 85.8399 95.4 80.5199C95.15 72.5199 95.1 64.4099 95.05 56.3599C95.01 46.4799 94.9533 36.5966 94.88 26.7099C94.88 24.4599 94.74 22.1899 94.94 19.9399C94.938 19.7981 94.9685 19.6576 95.0292 19.5293C95.0898 19.4011 95.1791 19.2884 95.29 19.1999C95.362 19.1461 95.4456 19.1097 95.5341 19.0937C95.6226 19.0777 95.7136 19.0825 95.7999 19.1077C95.8862 19.133 95.9655 19.1779 96.0314 19.239C96.0974 19.3001 96.1483 19.3758 96.18 19.4599C96.463 21.1839 96.6367 22.924 96.7 24.6699C97.49 41.9499 98.01 59.2499 97.7 76.5399C97.7 77.9799 97.62 79.4299 97.63 80.8699C97.625 80.9465 97.625 81.0233 97.63 81.0999C97.6338 81.1164 97.6338 81.1335 97.63 81.1499C97.63 81.1499 97.63 81.1499 97.63 81.2099V81.3199C97.6256 81.3397 97.6256 81.3602 97.63 81.3799L97.72 81.5299L97.79 81.6099L97.87 81.6799L97.96 81.7499C98.0139 81.8011 98.0744 81.8448 98.14 81.8799L98.34 81.9999H98.45L98.56 82.0599H98.68H98.8L99.19 82.1899L99.45 82.2599H99.6L99.9 82.3199L100.22 82.3799H100.53H100.99C101.32 82.3799 101.67 82.4599 101.99 82.4799H102.52H103.33H105.99H106.86H107.16C109.85 82.5399 112.53 82.6199 115.16 82.6699C116.43 82.7699 118.16 82.3999 119 83.5899C119.133 83.7996 119.212 84.0387 119.232 84.2862C119.251 84.5338 119.209 84.7822 119.11 85.0099C118.29 86.6299 116.55 87.4999 115.11 88.5499C111.2 91.1899 107.06 93.5499 103.39 96.5499L103.3 96.6899V96.7499V96.8699C102.97 98.3399 104.68 101.56 105.13 102.81C107.64 108.51 111.36 113.81 114.54 119.01C116.98 122.79 119.34 126.62 121.69 130.46C123.63 133.51 125.69 136.46 127.69 139.46C129.69 142.46 131.69 145.55 133.69 148.54C135.69 151.53 137.97 154.39 139.98 157.4C141.99 160.41 143.8 163.32 145.81 166.2C148.629 170.394 150.59 175.104 151.58 180.06C151.86 181.65 152.04 183.24 152.26 184.83C152.48 186.31 152.59 187.21 152.7 188.11Z" fill="black"/>
<path d="M69.69 55.5198C70.11 84.1598 66.92 112.7 64.89 141.2C64.4 149.11 63.62 157 63.13 164.9C62.96 169.25 62.83 173.61 62.63 177.95C62.6417 178.047 62.6328 178.145 62.6037 178.238C62.5746 178.331 62.5261 178.417 62.4614 178.49C62.3967 178.563 62.3172 178.622 62.2281 178.662C62.1391 178.702 62.0426 178.723 61.945 178.723C61.8474 178.723 61.7509 178.702 61.6619 178.662C61.5729 178.622 61.4934 178.563 61.4286 178.49C61.3639 178.417 61.3154 178.331 61.2863 178.238C61.2572 178.145 61.2483 178.047 61.26 177.95C61.37 174.64 61.42 171.32 61.51 168C61.6 164.68 61.81 161.29 62.06 157.93C62.55 151.44 62.81 144.93 63.15 138.41C63.61 128.32 64.41 118.25 65.21 108.18C66.01 98.1098 66.21 87.7698 66.69 77.5698C67.17 67.3698 67.15 57.2398 67.23 47.0698C67.23 41.1898 67.23 35.2898 66.72 29.4398C66.53 27.3398 66.21 25.2598 66.06 23.1598C66.0383 23.0628 66.0373 22.9624 66.0569 22.8649C66.0765 22.7675 66.1163 22.6753 66.1738 22.5942C66.2313 22.5131 66.3052 22.445 66.3907 22.3943C66.4761 22.3436 66.5713 22.3114 66.67 22.2998C66.7769 22.2892 66.8847 22.3033 66.9852 22.341C67.0858 22.3788 67.1763 22.4391 67.2497 22.5174C67.3232 22.5957 67.3777 22.6899 67.4089 22.7926C67.4402 22.8953 67.4474 23.0039 67.43 23.1098C67.7 25.4598 68.2 27.6498 68.43 29.9898C69.54 38.3898 69.58 46.9898 69.69 55.5198Z" fill="black"/>
<path d="M128.41 202.64C128.621 202.767 128.788 202.956 128.888 203.182C128.987 203.407 129.014 203.658 128.965 203.9C128.915 204.141 128.792 204.361 128.612 204.53C128.432 204.698 128.204 204.807 127.96 204.84H127.88C110.2 205.71 92.68 206.19 75.03 206.65C74.56 206.65 74.09 206.65 73.63 206.65C73.38 206.65 73.14 206.65 72.9 206.57C72.7874 206.555 72.6804 206.512 72.588 206.446C72.4957 206.379 72.4208 206.292 72.37 206.19C72.37 206.19 72.37 206.12 72.37 206.09V206.03C72.365 205.997 72.365 205.963 72.37 205.93C72.55 205.07 73.54 205.41 74.16 205.33C78.45 205.14 82.72 204.67 87 204.44C100.68 203.83 114.3 202.83 127.94 202.69H127.99H128.12H128.27C128.316 202.671 128.363 202.655 128.41 202.64Z" fill="black"/>
<path d="M128.99 202.45C129.111 202.453 129.23 202.479 129.341 202.528C129.451 202.576 129.551 202.646 129.635 202.734C129.718 202.821 129.784 202.924 129.828 203.037C129.871 203.149 129.893 203.269 129.89 203.39C129.68 205.2 129.42 207.02 129.15 208.82C128.031 215.411 126.376 221.899 124.2 228.22C123.56 230.06 122.2 231.72 120.11 231.5C118.27 231.5 116.43 231.48 114.59 231.44C110.88 231.34 107.17 231.19 103.46 231.32C96.7223 231.689 89.9651 231.452 83.27 230.61C77.19 229.74 77.46 229.17 75.98 223.61C74.98 219.93 74.27 216.18 73.45 212.46C73.04 210.58 72.62 208.7 72.34 206.79C72.3347 206.697 72.3347 206.603 72.34 206.51V206.39C72.3351 206.367 72.3351 206.343 72.34 206.32C72.3359 206.297 72.3359 206.273 72.34 206.25C72.3356 206.23 72.3356 206.21 72.34 206.19V206.1C72.3912 206.013 72.4643 205.941 72.552 205.891C72.6397 205.841 72.7389 205.814 72.84 205.814C72.941 205.814 73.0403 205.841 73.128 205.891C73.2157 205.941 73.2888 206.013 73.34 206.1C73.4 206.29 73.47 206.49 73.53 206.69C75.66 213.49 77.11 220.52 79.44 227.26C79.9332 227.646 80.5197 227.894 81.14 227.98C82.47 228.28 83.83 228.46 85.14 228.63C88.4315 229.054 91.7424 229.311 95.06 229.4C100.79 229.47 106.52 229.13 112.25 229.4C114.39 229.45 116.53 229.48 118.68 229.47H120.68C121.02 229.47 121.26 229.19 121.49 228.98C122.018 228.214 122.417 227.366 122.67 226.47C123.27 224.66 123.8 222.83 124.31 220.98C125.862 215.744 127.003 210.394 127.72 204.98C127.72 204.62 127.81 204.25 127.84 203.88C127.827 203.678 127.856 203.476 127.927 203.286C127.998 203.097 128.108 202.924 128.25 202.78L128.37 202.69H128.43H128.54H128.99V202.45Z" fill="black"/>
<path d="M145.21 137.92C145.208 137.975 145.194 138.029 145.17 138.078C145.145 138.127 145.111 138.171 145.068 138.206C145.026 138.241 144.976 138.266 144.923 138.281C144.87 138.295 144.814 138.298 144.76 138.29C144.25 138.12 144.02 137.51 143.76 137.08C143.42 136.43 143.11 135.77 142.82 135.08L142.4 134.08L141.67 132.36L140.11 128.7C139.89 128.18 139.66 127.7 139.44 127.15C134.372 114.699 130.813 101.687 128.84 88.3898C127.583 79.6992 126.938 70.9309 126.91 62.1498C126.81 57.0298 126.49 51.9098 126.31 46.7898C126.02 35.1398 125.97 23.4798 125.9 11.7898C125.9 8.7898 125.9 5.7098 126.2 2.6798C126.195 2.65672 126.195 2.63288 126.2 2.6098C126.2 2.6098 126.2 2.5598 126.2 2.5398V2.4198C126.242 2.31664 126.307 2.22434 126.39 2.1498V2.0998L126.55 1.9798L126.72 1.8998C126.917 1.80374 127.141 1.7752 127.356 1.81857C127.571 1.86194 127.765 1.97481 127.91 2.1398C128.105 2.35245 128.212 2.6312 128.21 2.9198C128.21 3.6198 128.21 4.3198 128.21 5.0098C128.21 5.6998 128.21 6.4598 128.21 7.1798C128.21 11.4698 128.21 15.7598 128.21 20.0498C128.32 32.4198 128.39 44.7898 128.98 57.1498C129.16 63.0298 129.09 68.9198 129.48 74.7898C129.48 75.1398 129.48 75.4798 129.55 75.7898C130.01 81.4398 130.64 87.0898 131.62 92.6698C132 94.8098 132.427 96.9365 132.9 99.0498C134.502 106.139 136.539 113.122 139 119.96C140 122.73 141 125.47 141.94 128.24C142.72 130.41 143.31 132.58 143.94 134.72C144.21 135.59 144.5 136.45 144.83 137.32C144.994 137.494 145.123 137.697 145.21 137.92Z" fill="black"/>
<path d="M156.09 174.81C156.01 181.65 157.38 188.39 157.32 195.22C156.67 209.22 156.88 223.33 155.85 237.34C154.85 246.34 155.32 255.34 154.66 264.39C154.25 275.01 153.15 285.6 153.04 296.21C152.44 305.06 153.04 313.94 152.37 322.78C152.37 322.83 152.37 322.89 152.37 322.94C151.94 324.54 152.77 330.24 150.79 329.53C150.625 329.43 150.505 329.271 150.453 329.085C150.401 328.899 150.421 328.701 150.51 328.53C150.743 324.11 150.86 319.683 150.86 315.25C150.41 302.8 150.86 290.32 151.6 277.88C152.38 267.63 152.7 257.35 152.88 247.07C153.05 240.2 154.05 233.38 153.95 226.5C153.95 225.6 154 224.69 154.03 223.78L154.09 221.89C154.15 219.69 154.22 217.49 154.27 215.3C154.27 214.46 154.27 213.63 154.34 212.8V211.56V210.31C154.34 209.07 154.34 207.82 154.41 206.58C154.41 206.26 154.41 205.93 154.41 205.58C154.41 205.44 154.41 205.3 154.41 205.17C154.41 204.77 154.41 204.37 154.41 203.97C154.41 203.39 154.41 202.82 154.41 202.24C154.41 198.61 154.41 194.99 154.35 191.37C154.35 191.02 154.35 190.66 154.35 190.31C154.35 190.12 154.28 189.92 154.26 189.72C154.24 189.52 154.2 189.35 154.18 189.16L154.12 188.7C154.12 188.64 154.12 188.58 154.12 188.53L154.06 188.04C154.06 187.93 154.06 187.82 154.06 187.71L154 187.16C154 186.9 153.95 186.65 153.93 186.39C153.91 186.13 153.93 186.02 153.93 185.83C153.93 185.62 153.93 185.42 153.88 185.21C153.83 185 153.88 184.78 153.88 184.57C153.71 182.24 153.61 179.9 153.47 177.57C153.35 175.57 153.19 173.57 152.93 171.57L152.72 170.27C152.493 168.936 152.233 167.586 151.94 166.22C151.88 165.93 151.81 165.63 151.75 165.34C151.58 164.6 151.41 163.87 151.23 163.14C151.23 162.99 151.16 162.84 151.12 162.68C151.05 162.39 150.98 162.09 150.9 161.8C150.74 161.17 150.57 160.55 150.4 159.92L150.19 159.15C149.61 157.15 148.99 155.06 148.35 153.03L148.13 152.36C148.06 152.15 148 151.94 147.93 151.72C147.6 150.72 147.27 149.72 146.93 148.72L146.64 147.86C146.37 147.03 146.09 146.21 145.81 145.39L145.66 144.94L145.18 143.51C145.09 143.24 144.99 142.96 144.9 142.68L144.75 142.23C143.91 140.03 142.94 137.89 142.05 135.71C141.988 135.564 141.954 135.408 141.95 135.25C141.945 135.22 141.945 135.19 141.95 135.16C141.946 135.133 141.946 135.106 141.95 135.08C141.946 135.057 141.946 135.033 141.95 135.01C141.949 134.986 141.949 134.963 141.95 134.94C141.98 134.836 142.02 134.735 142.07 134.64L142.27 134.47L142.43 134.38C142.548 134.328 142.676 134.302 142.805 134.302C142.934 134.302 143.062 134.328 143.18 134.38C143.535 134.543 143.837 134.803 144.05 135.13C145.14 136.59 145.97 139.58 146.57 140.43C150.81 151.31 155.11 162.74 156.09 174.81Z" fill="black"/>
<path d="M154.45 191.39C154.53 195.01 154.54 198.63 154.51 202.26C154.51 202.84 154.51 203.41 154.51 203.99C154.51 204.39 154.51 204.79 154.51 205.19C154.51 205.32 154.51 205.46 154.51 205.6C154.51 205.92 154.51 206.25 154.51 206.6C154.51 207.84 154.51 209.09 154.44 210.33V211.58V212.82C154.44 213.65 154.44 214.48 154.37 215.32C154.32 217.51 154.25 219.71 154.19 221.91L154.13 223.8C154.13 224.71 154.08 225.62 154.05 226.52C154.15 233.4 153.15 240.22 152.98 247.09C152.8 257.37 152.48 267.65 151.7 277.9C151.01 290.34 150.51 302.82 150.96 315.27C150.96 319.703 150.843 324.13 150.61 328.55C150.521 328.721 150.501 328.919 150.553 329.105C150.605 329.291 150.725 329.45 150.89 329.55C152.89 330.26 152.04 324.55 152.47 322.96C152.47 322.91 152.47 322.86 152.47 322.81C152.43 325.17 152.373 327.533 152.3 329.9C150.87 330.03 149.43 330.12 148 330.19C145.81 330.25 143.62 330.27 141.44 330.34C139.07 330.41 136.7 330.5 134.33 330.56C131.81 330.64 129.29 330.69 126.77 330.71C124.34 330.71 121.9 330.71 119.47 330.71C117.04 330.71 114.67 330.71 112.27 330.71C107.4 330.71 102.54 330.82 97.67 330.85H96.49C94.49 330.85 92.4667 330.82 90.42 330.76C88.0267 330.68 85.64 330.533 83.26 330.32C81.71 330.17 80.16 329.99 78.62 329.8C76.33 329.53 74.05 329.22 71.78 328.85C71.14 328.75 70.51 328.66 69.88 328.54L67.94 328.18C66.8 327.97 65.66 327.7 64.53 327.46H64.47H64.33L60.48 326.58C59.28 326.3 58.09 325.99 56.9 325.69C55.9 325.43 54.9 325.14 53.9 324.86C53.76 321.95 53.73 319.04 53.71 316.13C53.63 292.13 54.71 268.05 56.09 244.05C57.3633 216.57 59.1633 189.127 61.49 161.72C57.06 171.9 52.41 181.98 47.96 192.15C45.39 197.15 33.89 222.78 27.29 230.23C26.45 229.97 25.61 229.7 24.78 229.42C23.46 228.93 22.15 228.42 20.86 227.89C19.57 227.36 18.03 226.67 16.61 226.06C14.9 225.32 13.18 224.6 11.46 223.87C10.56 223.49 9.67002 223.09 8.78002 222.7C7.89002 222.31 7.26002 221.96 6.51002 221.59L4.59002 220.53C4.27002 220.35 3.97002 220.14 3.66002 219.94C3.35002 219.74 2.96002 219.5 2.66002 219.27C1.98129 218.805 1.33327 218.298 0.720016 217.75C0.500016 217.55 0.290017 217.33 0.0800171 217.11C0.690017 212.46 2.57002 207.9 3.47002 203.3C4.59002 198.85 5.74002 194.41 7.03002 190.01C15.44 161.09 24.52 132.41 35.34 104.29C39.99 91.3898 44.2 78.2498 49.69 65.6298C55.32 52.4098 59.5 38.7298 63.69 25.0398C63.9174 24.2578 64.2153 23.4981 64.58 22.7698C64.58 19.7098 78.72 19.5498 81.11 19.0198C83.26 18.9698 91.17 17.4998 94.71 18.2198C96.18 15.4898 104.06 9.58985 105.26 8.82985C108.01 6.98985 125.37 -3.05015 127.03 0.919848C127.094 1.26398 127.03 1.61979 126.85 1.91985L126.68 1.99985L126.52 2.11985V2.16985C126.437 2.24439 126.372 2.33669 126.33 2.43985V2.55985C126.33 2.55985 126.33 2.60985 126.33 2.62985C126.325 2.65293 126.325 2.67677 126.33 2.69985C126.06 5.69985 126.03 8.76985 126.03 11.8098C126.1 23.4598 126.15 35.1198 126.44 46.8098C126.62 51.9298 126.94 57.0498 127.04 62.1698C127.025 70.9412 127.627 79.7028 128.84 88.3898C130.798 101.695 134.343 114.718 139.4 127.18C139.62 127.7 139.85 128.18 140.07 128.73L141.63 132.39L142.36 134.11L142.16 134.28C142.11 134.375 142.07 134.476 142.04 134.58C142.039 134.603 142.039 134.627 142.04 134.65C142.036 134.673 142.036 134.697 142.04 134.72C142.036 134.746 142.036 134.773 142.04 134.8C142.035 134.83 142.035 134.86 142.04 134.89C142.044 135.048 142.078 135.204 142.14 135.35C143.03 137.53 144 139.67 144.84 141.87L144.99 142.32C145.08 142.6 145.18 142.88 145.27 143.15L145.75 144.58L145.9 145.03C146.18 145.85 146.46 146.67 146.73 147.5L147.02 148.36C147.36 149.36 147.69 150.36 148.02 151.36C148.09 151.58 148.15 151.79 148.22 152L148.44 152.67C149.08 154.67 149.7 156.74 150.28 158.79L150.49 159.56C150.66 160.19 150.83 160.81 150.99 161.44C151.07 161.73 151.14 162.03 151.21 162.32C151.21 162.48 151.28 162.63 151.32 162.78C151.5 163.51 151.67 164.24 151.84 164.98C151.9 165.27 151.97 165.57 152.03 165.86C152.323 167.193 152.583 168.543 152.81 169.91L153.02 171.21C153.28 173.21 153.44 175.21 153.56 177.21C153.56 177.43 153.56 177.64 153.56 177.85C153.56 178.06 153.56 178.27 153.56 178.48C153.56 179.23 153.63 179.97 153.68 180.72C153.68 181 153.68 181.28 153.68 181.55C153.68 181.82 153.68 182.06 153.68 182.31C153.68 182.56 153.68 182.67 153.68 182.84C153.675 182.903 153.675 182.967 153.68 183.03V183.59C153.77 184.86 153.87 186.13 154.01 187.4C154.01 187.51 154.01 187.62 154.01 187.73L154.07 188.22C154.07 188.22 154.07 188.33 154.07 188.39L154.13 188.85C154.13 189.04 154.13 189.23 154.21 189.41C154.29 189.59 154.27 189.81 154.3 190C154.43 190.64 154.44 191 154.45 191.39ZM151.31 188.29C151.339 188.465 151.434 188.623 151.575 188.731C151.717 188.839 151.894 188.889 152.071 188.871C152.247 188.853 152.411 188.769 152.528 188.635C152.645 188.501 152.706 188.327 152.7 188.15C152.59 187.25 152.48 186.35 152.36 185.45C152.14 183.86 151.96 182.27 151.68 180.68C150.69 175.724 148.729 171.014 145.91 166.82C143.91 163.94 142 160.97 140.08 158.02C138.16 155.07 135.87 152.12 133.79 149.16C131.71 146.2 129.79 143.09 127.79 140.08C125.79 137.07 123.7 134.08 121.79 131.08C119.44 127.24 117.08 123.41 114.64 119.63C111.46 114.4 107.74 109.13 105.23 103.43C104.78 102.18 103.07 98.9598 103.4 97.4898V97.3699V97.3098L103.49 97.1698C107.16 94.1698 111.3 91.8098 115.21 89.1698C116.62 88.1698 118.36 87.2498 119.21 85.6298C119.309 85.4022 119.351 85.1537 119.332 84.9062C119.312 84.6586 119.233 84.4196 119.1 84.2098C118.26 83.0198 116.53 83.3898 115.26 83.2898C112.58 83.2898 109.9 83.1598 107.26 83.0998H106.96H106.09H103.41H102.6H102.07C101.72 83.0998 101.37 83.0998 101.07 82.9998H100.88H100.57L100.25 82.9398L99.95 82.8798H99.8L99.54 82.8098L99.15 82.6798H99.03H98.91L98.8 82.6199H98.69L98.49 82.4998C98.4245 82.4648 98.3639 82.4211 98.31 82.3699L98.22 82.2999L97.99 81.7898L97.92 81.7098L97.83 81.5598C97.8257 81.5401 97.8257 81.5196 97.83 81.4998V81.3898C97.83 81.3898 97.83 81.3898 97.83 81.3298C97.8339 81.3134 97.8339 81.2963 97.83 81.2798C97.825 81.2033 97.825 81.1264 97.83 81.0499C97.83 79.6098 97.83 78.1599 97.9 76.7198C98.16 59.4298 97.64 42.1298 96.9 24.8498C96.8368 23.1039 96.6631 21.3638 96.38 19.6398C96.3483 19.5557 96.2975 19.4801 96.2315 19.4189C96.1655 19.3578 96.0862 19.3129 95.9999 19.2877C95.9136 19.2624 95.8226 19.2576 95.7341 19.2736C95.6456 19.2896 95.562 19.326 95.49 19.3798C95.3791 19.4683 95.2899 19.581 95.2292 19.7093C95.1685 19.8375 95.138 19.978 95.14 20.1198C94.94 22.3698 95.08 24.6398 95.08 26.8898C95.14 36.7832 95.1967 46.6665 95.25 56.5398C95.3 64.5398 95.35 72.6498 95.6 80.6998C95.67 86.0198 102.54 85.2198 106.25 85.3898C109.71 85.4598 113.16 85.3898 116.62 85.5298C112.67 88.5298 108.24 90.7798 104.34 93.8198C103.559 94.377 102.808 94.9745 102.09 95.6098C100.43 97.3098 101.24 99.8298 101.95 101.78C103.397 105.714 105.261 109.482 107.51 113.02C110.34 117.62 113.23 122.19 116.14 126.73C119.05 131.27 121.89 135.91 124.98 140.36C127.04 143.36 128.98 146.46 130.98 149.49C132.98 152.52 135.17 155.27 137.25 158.17C139.33 161.07 141.25 164.06 143.37 166.89C144.37 168.22 145.43 169.56 146.37 170.99C148.097 174.004 149.402 177.241 150.25 180.61C150.61 183.01 150.91 185.57 151.31 188.25V188.29ZM129.89 203.39C129.893 203.269 129.871 203.149 129.828 203.036C129.784 202.924 129.718 202.821 129.635 202.733C129.551 202.646 129.451 202.576 129.341 202.527C129.23 202.479 129.111 202.452 128.99 202.45H128.78H128.67H128.61L128.49 202.54C128.429 202.506 128.365 202.476 128.3 202.45H128.15H128.02H127.95C114.31 202.59 100.69 203.59 87.01 204.2C82.73 204.43 78.46 204.9 74.17 205.09C73.55 205.17 72.56 204.83 72.38 205.69C72.3751 205.723 72.3751 205.757 72.38 205.79V205.85C72.38 205.85 72.38 205.92 72.38 205.95C72.3757 205.97 72.3757 205.99 72.38 206.01C72.3759 206.033 72.3759 206.057 72.38 206.08C72.3752 206.103 72.3752 206.127 72.38 206.15V206.23C72.3747 206.323 72.3747 206.417 72.38 206.51C72.66 208.42 73.08 210.3 73.49 212.18C74.31 215.9 75.03 219.65 76.02 223.33C77.5 228.93 77.23 229.5 83.31 230.33C90.0051 231.171 96.7623 231.409 103.5 231.04C107.21 230.91 110.92 231.04 114.63 231.16C116.47 231.2 118.31 231.22 120.15 231.22C122.28 231.44 123.6 229.78 124.24 227.94C126.416 221.619 128.072 215.131 129.19 208.54C129.42 207.02 129.68 205.2 129.89 203.39ZM64.89 141.2C66.89 112.7 70.11 84.1998 69.69 55.5198C69.58 46.9898 69.54 38.4298 68.47 29.9598C68.2 27.6198 67.7 25.4298 67.47 23.0798C67.4874 22.9739 67.4802 22.8654 67.4489 22.7626C67.4177 22.6599 67.3632 22.5658 67.2897 22.4874C67.2163 22.4091 67.1258 22.3488 67.0253 22.3111C66.9247 22.2733 66.8169 22.2592 66.71 22.2698C66.6113 22.2815 66.5161 22.3137 66.4307 22.3644C66.3452 22.4151 66.2713 22.4832 66.2138 22.5642C66.1563 22.6453 66.1165 22.7375 66.0969 22.835C66.0773 22.9324 66.0783 23.0329 66.1 23.1298C66.25 25.2298 66.57 27.3098 66.76 29.4098C67.31 35.2598 67.27 41.1598 67.27 47.0398C67.19 57.2098 67.13 67.3799 66.73 77.5398C66.33 87.6998 65.91 97.9499 65.25 108.15C64.59 118.35 63.61 128.29 63.15 138.39C62.81 144.9 62.55 151.39 62.06 157.91C61.81 161.27 61.58 164.62 61.51 167.98C61.44 171.34 61.37 174.62 61.26 177.93C61.2483 178.027 61.2573 178.125 61.2863 178.218C61.3154 178.311 61.3639 178.397 61.4286 178.47C61.4934 178.543 61.5729 178.602 61.6619 178.642C61.7509 178.682 61.8474 178.703 61.945 178.703C62.0426 178.703 62.1391 178.682 62.2281 178.642C62.3172 178.602 62.3967 178.543 62.4614 178.47C62.5261 178.397 62.5747 178.311 62.6037 178.218C62.6328 178.125 62.6417 178.027 62.63 177.93C62.83 173.59 62.96 169.23 63.13 164.88C63.62 157 64.4 149.11 64.89 141.2Z" fill="#35271C"/>
<path d="M145.55 191.6C145.955 191.251 146.287 190.824 146.524 190.344C146.761 189.864 146.9 189.341 146.932 188.807C146.963 188.273 146.888 187.738 146.709 187.233C146.53 186.729 146.251 186.265 145.89 185.87C144.71 187.39 144.16 190.14 145.55 191.6ZM145.2 195.05C141.08 194.77 140.75 189.28 142.49 186.43C143.13 184.81 146.02 182.51 147.19 184.72C150.84 187.17 149.99 194.76 145.2 195.05Z" fill="black"/>
<path d="M27.89 225.62C19.6233 221.72 11.5033 217.54 3.53 213.08C3.36155 213.02 3.21894 212.903 3.12608 212.75C3.03323 212.597 2.99578 212.417 3.02 212.24C3.16 211.51 3.93 211.47 4.47 211.8C10.32 214.69 16 217.9 21.79 220.92C24 222.08 26.19 223.26 28.43 224.37C28.5958 224.442 28.7263 224.576 28.7929 224.744C28.8594 224.912 28.8566 225.099 28.785 225.265C28.7134 225.431 28.5789 225.561 28.411 225.628C28.2432 225.694 28.0558 225.692 27.89 225.62Z" fill="black"/>
<path d="M262.41 224.32C261.72 223.43 263.06 223.02 263.68 222.72C264.93 222.15 266.26 221.58 267.47 221.02C269.28 220.2 271.03 219.33 272.78 218.55C277.41 216.55 282.09 214.55 286.84 212.77C286.999 212.71 287.175 212.716 287.33 212.786C287.485 212.857 287.605 212.986 287.665 213.145C287.725 213.304 287.719 213.48 287.648 213.635C287.578 213.79 287.449 213.91 287.29 213.97C282.14 216.15 276.99 218.39 271.99 220.63C269.84 221.63 267.71 222.63 265.51 223.53L263.46 224.36C263.309 224.479 263.12 224.54 262.928 224.533C262.735 224.526 262.552 224.45 262.41 224.32Z" fill="black"/>
<path d="M107.58 184.87C107.58 184.54 107.58 184.21 107.49 183.87C107.469 183.657 107.522 183.443 107.641 183.265C107.759 183.086 107.935 182.954 108.14 182.891C108.344 182.827 108.565 182.836 108.763 182.917C108.962 182.997 109.127 183.143 109.23 183.33C110.18 185.81 108.05 186.48 107.58 184.87Z" fill="#281D15"/>
<path d="M111.58 193.68C110.97 193.14 111.26 192.13 111.23 191.42C111.263 191.253 111.346 191.099 111.469 190.98C111.591 190.861 111.747 190.782 111.915 190.754C112.083 190.726 112.256 190.75 112.411 190.822C112.565 190.895 112.694 191.013 112.78 191.16C113.22 192.27 113.47 194.59 111.58 193.68Z" fill="#281D15"/>
<path d="M113.42 184.98C112.82 184.49 113.08 183.63 113.04 182.98C113 182.33 112.87 181.23 113.8 181.11C115.19 181.17 114.68 183.18 115.05 184.11C115.069 184.307 115.03 184.505 114.936 184.679C114.843 184.853 114.7 184.996 114.526 185.089C114.351 185.182 114.153 185.222 113.956 185.202C113.759 185.183 113.573 185.105 113.42 184.98Z" fill="#281D15"/>
<path d="M198.99 141.46C198.851 141.454 198.714 141.417 198.591 141.352C198.468 141.286 198.361 141.194 198.279 141.082C198.196 140.969 198.14 140.84 198.114 140.703C198.089 140.566 198.094 140.425 198.13 140.29C198.27 139.73 198.68 138.91 199.39 139.2C199.88 139.41 199.87 140.01 199.93 140.45C199.941 140.58 199.925 140.71 199.883 140.833C199.84 140.956 199.773 141.068 199.684 141.164C199.596 141.259 199.488 141.334 199.369 141.385C199.249 141.436 199.12 141.462 198.99 141.46Z" fill="#281D15"/>
<path d="M201.27 149.31C200 149.31 199.96 147.88 200.15 146.93C200.15 145.93 200.39 144.69 201.66 144.87C201.859 144.903 202.048 144.982 202.211 145.102C202.373 145.221 202.505 145.378 202.596 145.558C202.687 145.739 202.734 145.938 202.733 146.14C202.731 146.342 202.683 146.541 202.59 146.72C202.57 147.73 202.68 149.32 201.27 149.31Z" fill="#281D15"/>
<path d="M205.4 147.09C205.188 147.076 204.983 147.011 204.802 146.901C204.62 146.79 204.468 146.638 204.358 146.456C204.249 146.275 204.184 146.07 204.17 145.858C204.157 145.646 204.194 145.434 204.28 145.24C204.278 144.99 204.359 144.746 204.51 144.546C204.661 144.346 204.873 144.201 205.114 144.134C205.356 144.067 205.612 144.081 205.845 144.174C206.077 144.268 206.272 144.435 206.4 144.65C206.9 145.59 206.71 147.1 205.4 147.09Z" fill="#281D15"/>
<path d="M84.79 65.8302C83.27 65.9402 83.63 62.3202 84.58 61.9202C85.53 61.5202 85.98 62.5002 85.82 63.2602C85.83 64.1902 86.16 65.8002 84.79 65.8302Z" fill="#281D15"/>
<path d="M84.65 80.85C84.3597 80.2975 84.2601 79.6646 84.3668 79.0496C84.4735 78.4347 84.7805 77.8723 85.24 77.45C86.66 77.03 86.51 78.84 86.73 79.72C86.789 79.9812 86.761 80.2546 86.6505 80.4986C86.5399 80.7425 86.3527 80.9437 86.1173 81.0716C85.882 81.1995 85.6113 81.247 85.3465 81.207C85.0816 81.167 84.8371 81.0416 84.65 80.85Z" fill="#281D15"/>
<path d="M102.8 58.3899C102.8 57.2499 102.39 55.3899 103.97 55.1599C105.75 55.0399 105.46 57.0799 105.47 58.2799C105.458 58.6174 105.319 58.9381 105.081 59.1777C104.843 59.4173 104.523 59.5582 104.186 59.5721C103.848 59.586 103.518 59.4719 103.261 59.2527C103.004 59.0335 102.839 58.7253 102.8 58.3899Z" fill="#281D15"/>
<path d="M106.21 60.9101C106.21 60.0601 106.21 59.2001 106.21 58.3501C106.152 58.0735 106.184 57.7856 106.302 57.5286C106.419 57.2717 106.616 57.0593 106.864 56.9227C107.111 56.7861 107.396 56.7325 107.676 56.7699C107.956 56.8072 108.217 56.9335 108.42 57.1301C109.11 58.1301 108.8 59.6101 109.03 60.8001C109.045 61.174 108.91 61.5384 108.656 61.8132C108.402 62.0879 108.049 62.2505 107.675 62.2651C107.301 62.2796 106.937 62.1451 106.662 61.891C106.387 61.6369 106.225 61.284 106.21 60.9101Z" fill="#281D15"/>
<path d="M233.37 102.32C233.17 100.85 231.45 97.4299 234.01 97.3799C235.55 97.7499 235.11 100.47 235.81 101.74C235.848 101.9 235.854 102.066 235.828 102.229C235.802 102.391 235.744 102.547 235.658 102.687C235.571 102.828 235.458 102.95 235.325 103.046C235.191 103.143 235.04 103.212 234.88 103.25C234.72 103.288 234.554 103.294 234.391 103.268C234.228 103.242 234.073 103.184 233.932 103.098C233.792 103.011 233.67 102.898 233.574 102.765C233.477 102.631 233.408 102.48 233.37 102.32Z" fill="#281D15"/>
<path d="M235.48 111.87C234.83 109.67 237.2 108.31 237.75 110.66C238.5 112.73 236.2 114.03 235.48 111.87Z" fill="#281D15"/>
<path d="M241.48 108.39C241.144 107.904 240.964 107.327 240.964 106.735C240.964 106.144 241.144 105.567 241.48 105.08C242.81 104.33 242.93 106.24 243.24 107.08C243.313 107.31 243.313 107.558 243.239 107.788C243.165 108.018 243.021 108.219 242.827 108.363C242.634 108.508 242.4 108.588 242.158 108.592C241.917 108.597 241.679 108.527 241.48 108.39Z" fill="#281D15"/>
<path d="M254.57 177.21C253 176.56 252.89 174.27 252.57 172.83C252.586 172.432 252.759 172.057 253.052 171.787C253.344 171.517 253.732 171.374 254.13 171.39C254.528 171.406 254.903 171.579 255.173 171.872C255.443 172.164 255.586 172.552 255.57 172.95C256.62 174.47 257.55 177.58 254.57 177.21Z" fill="#281D15"/>
<path d="M259.93 182.33C258.93 180.15 261.49 178.62 262.19 181.01C263.61 182.79 260.61 184.49 259.93 182.33Z" fill="#281D15"/>
<path d="M262.64 173.63C259.41 168.74 264.36 167.83 264.39 170.86C266.35 173.56 264.24 175.53 262.64 173.63Z" fill="#281D15"/>
<path d="M168.93 291.53C168.746 290.359 168.715 289.169 168.84 287.99C168.938 287.766 169.098 287.574 169.3 287.435C169.502 287.297 169.739 287.218 169.984 287.208C170.229 287.197 170.471 287.256 170.685 287.376C170.898 287.497 171.073 287.675 171.19 287.89C171.47 288.96 171.28 290.14 171.52 291.25C171.538 291.42 171.523 291.592 171.475 291.756C171.427 291.92 171.347 292.073 171.24 292.207C171.132 292.34 171 292.451 170.85 292.533C170.7 292.615 170.535 292.667 170.365 292.685C170.195 292.703 170.023 292.688 169.859 292.64C169.695 292.592 169.542 292.512 169.408 292.405C169.275 292.297 169.164 292.165 169.082 292.015C169 291.865 168.948 291.7 168.93 291.53Z" fill="#281D15"/>
<path d="M174.7 298.6C173.7 297.74 174.25 296.25 174.11 295.11C173.9 294.19 174.18 293.11 175.26 292.97C177.43 292.97 176.69 295.86 177.09 297.29C177.115 297.578 177.055 297.866 176.919 298.121C176.782 298.375 176.575 298.585 176.322 298.723C176.068 298.862 175.78 298.924 175.493 298.903C175.205 298.881 174.929 298.776 174.7 298.6Z" fill="#281D15"/>
<path d="M167.66 215.39C166.17 215.46 166.21 211.58 167.66 211.7C169.1 211.6 169.19 215.55 167.66 215.39Z" fill="#281D15"/>
<path d="M171.91 222.32C170.09 222.32 171.16 218.84 172.61 220.12C173.17 220.83 173.05 222.39 171.91 222.32Z" fill="#281D15"/>
<path d="M67.46 271.99C65.19 271.77 66.2 268.99 66.06 267.44C65.9828 267.144 65.9849 266.832 66.066 266.536C66.1471 266.241 66.3043 265.972 66.522 265.756C66.7397 265.541 67.0101 265.386 67.3064 265.308C67.6026 265.229 67.9142 265.23 68.21 265.31C68.4631 265.394 68.6945 265.532 68.8874 265.716C69.0804 265.9 69.2302 266.124 69.3258 266.373C69.4215 266.622 69.4607 266.889 69.4407 267.155C69.4207 267.42 69.3419 267.678 69.21 267.91C68.99 269.33 69.56 271.94 67.46 271.99Z" fill="#281D15"/>
<path d="M69.06 288.39C67.56 288.29 67.88 286.64 68.17 285.62C68.34 284.84 68.35 283.36 69.52 283.62C70.1 283.77 70.2 284.37 70.13 284.88C70.12 286.11 70.9 288.39 69.06 288.39Z" fill="#281D15"/>
<path d="M71.88 273.95C69.77 273.95 70.36 268.79 72.56 269.75C72.8684 269.882 73.1129 270.13 73.2418 270.44C73.3706 270.75 73.3736 271.098 73.25 271.41C73.25 272.39 73.27 273.96 71.88 273.95Z" fill="#281D15"/>
<path d="M64.86 280.76C62.97 280.71 63.63 276.2 65.56 277.21C66.45 277.75 65.87 278.85 66 279.68C65.9961 279.826 65.9635 279.969 65.9041 280.102C65.8447 280.236 65.7597 280.356 65.6538 280.456C65.5479 280.556 65.4233 280.635 65.2871 280.687C65.1509 280.739 65.0058 280.764 64.86 280.76Z" fill="#281D15"/>
<path d="M21.28 191.96C19.63 191.17 20.93 188.75 22.11 188.13C22.4288 188.017 22.7782 188.024 23.0916 188.152C23.4051 188.279 23.6607 188.518 23.8101 188.821C23.9594 189.125 23.992 189.473 23.9017 189.799C23.8113 190.125 23.6043 190.406 23.32 190.59C23.07 191.51 22.31 192.39 21.28 191.96Z" fill="#281D15"/>
<path d="M21.78 201.47C20.26 200.77 21.06 199.07 21.78 198.04C22.5 197.01 22.95 195.28 24.43 196.04C25.36 196.58 25.13 197.67 24.57 198.38C24.07 199.73 23.7 202.19 21.78 201.47Z" fill="#281D15"/>
<path d="M27.15 191.5C25.07 190.88 26.27 187.33 28.32 188.24C30.16 188.99 28.99 192.03 27.15 191.5Z" fill="#281D15"/>
<path d="M34.39 159.16C33.07 158.52 34.08 157.1 34.5 156.16C34.92 155.22 35.89 152.93 37.08 154.5C37.41 154.99 36.95 155.61 36.82 156.04C36.25 157.15 36.14 159.71 34.39 159.16Z" fill="#281D15"/>
<path d="M36.73 169.06C34.89 168.46 35.91 166.38 36.32 165.06C37.05 163.68 37 161.81 38.06 160.71C40.91 159.47 41.06 162.43 39.98 164.35C39.16 165.92 39.13 169.45 36.73 169.06Z" fill="#281D15"/>
<path d="M40.58 154.76C39.21 154.38 39.96 152.11 41.27 152.49C42.58 152.87 41.9 155.16 40.58 154.76Z" fill="#281D15"/>
<path d="M44.12 119.44C42.32 118.5 46.64 113.63 47.4 116.26C47.4523 116.521 47.4095 116.793 47.2793 117.026C47.1492 117.259 46.9402 117.437 46.69 117.53C45.87 118.31 45.47 120.1 44.12 119.44Z" fill="#281D15"/>
<path d="M174.71 159.73C172.98 159.62 173.42 157.59 173.52 156.39C173.509 156.146 173.559 155.902 173.666 155.682C173.772 155.461 173.932 155.271 174.13 155.127C174.328 154.983 174.559 154.891 174.801 154.858C175.044 154.826 175.291 154.854 175.52 154.94C176.69 155.42 176.32 156.63 176.12 157.58C176.16 158.53 175.9 159.77 174.71 159.73Z" fill="#281D15"/>
<path d="M174.8 50.3298C173.07 50.6098 173.63 45.2598 174.88 45.2098C175.085 45.1642 175.299 45.1783 175.497 45.2506C175.694 45.3228 175.867 45.4501 175.994 45.6174C176.121 45.7847 176.198 45.985 176.215 46.1946C176.232 46.4041 176.189 46.6141 176.09 46.7998C175.82 47.9398 176.49 50.1998 174.8 50.3298Z" fill="#281D15"/>
<path d="M175.35 60.74C173.83 60.63 174.26 58.99 174.56 57.99C174.64 57.26 174.85 56.11 175.85 56.5C176.63 56.84 176.21 57.8 176.39 58.5C176.61 59.39 176.61 60.75 175.35 60.74Z" fill="#281D15"/>
<path d="M178.31 53.39C176.52 53.57 176.63 49.01 178.23 49.03C180.21 48.78 180.25 53.57 178.31 53.39Z" fill="#281D15"/>
<path d="M172.29 51.9698C170.74 51.9698 171.29 49.1898 172.72 49.7098C173.62 50.1598 173.46 52.0298 172.29 51.9698Z" fill="#281D15"/>
<path d="M162.56 124.14C160.23 123.53 163.05 118.14 164.75 120.33C165.29 120.95 164.75 121.78 164.5 122.33C164.26 123.28 163.75 124.5 162.56 124.14Z" fill="#281D15"/>
<path d="M202.69 260.39C201.61 259.46 201.93 255.5 203.69 255.56C205.45 255.62 204.97 257.7 205.15 258.87C205.197 259.175 205.153 259.487 205.024 259.767C204.895 260.047 204.686 260.283 204.424 260.445C204.161 260.607 203.857 260.689 203.549 260.679C203.24 260.669 202.942 260.569 202.69 260.39Z" fill="#281D15"/>
<path d="M206.85 259.52C206.74 257.765 206.74 256.005 206.85 254.25C206.848 254.052 206.889 253.855 206.97 253.674C207.051 253.493 207.17 253.331 207.319 253.2C207.468 253.069 207.643 252.972 207.833 252.915C208.023 252.858 208.224 252.843 208.42 252.87C210.34 253.13 209.42 257.56 210.03 259.19C210.25 261.21 206.99 261.55 206.85 259.52Z" fill="#281D15"/>
</g>
<defs>
<clipPath id="clip0_51_4736">
<rect width="290.79" height="330.86" fill="white"/>
</clipPath>
</defs>
</svg>
