<svg width="152" height="244" viewBox="0 0 152 244" fill="none" xmlns="http://www.w3.org/2000/svg">
<g clip-path="url(#clip0_49_4480)">
<path d="M151.78 234.62C151.734 236.27 151.135 237.857 150.08 239.126C149.025 240.395 147.574 241.273 145.96 241.62C143.017 242.491 139.977 242.992 136.91 243.11C128.75 243.19 120.42 243.23 111.79 243.23C105.2 243.23 98.4299 243.23 91.3999 243.16C89.2136 243.197 87.0459 242.753 85.05 241.86C83.7767 241.259 82.6447 240.396 81.7279 239.328C80.8112 238.26 80.1303 237.01 79.73 235.66C81.336 235.598 82.8921 235.086 84.2199 234.18C83.6699 232.74 82.3999 232.58 81.0599 232.4L80.5399 232.33L79.0399 232.08C79.0399 231.82 79.0399 231.56 78.9899 231.29C78.9284 229.037 79.0119 226.782 79.2399 224.54C79.3899 222.92 79.5899 221.31 79.7799 219.72C79.8899 218.84 79.9999 217.97 80.0999 217.1C80.3215 215.383 80.6556 213.683 81.0999 212.01C81.2599 211.38 81.4199 210.74 81.5699 210.1C82.5237 205.787 82.3027 201.298 80.9299 197.1L79.6499 192.91C77.4299 185.61 75.1199 178.06 73.0999 170.57C71.2605 163.765 70.3192 156.749 70.3 149.7C70.2132 142.865 71.8576 136.119 75.08 130.09L75.98 128.41C77.263 125.914 78.6714 123.484 80.2 121.13C86.33 112.06 88.1999 101.66 85.7799 89.34C83.1999 76.04 79.09 63.15 74.95 50.98C74.7258 50.6757 74.5503 50.3383 74.4299 49.98L66.76 26.53L60.1599 6.42999C59.8885 5.59257 59.9245 4.6858 60.2615 3.87253C60.5985 3.05926 61.2144 2.39281 61.9986 1.99286C62.7829 1.59291 63.684 1.48569 64.5402 1.69044C65.3964 1.8952 66.1515 2.39852 66.67 3.11C66.8942 3.41431 67.0696 3.75169 67.1899 4.11L79.8499 42.79C79.8499 42.94 79.96 43.08 80.01 43.23L80.0699 43.41C84.7199 56.65 89.94 72.13 93.01 88.21C95.67 102.16 93.58 114.06 86.64 124.59C85.75 125.94 84.93 127.38 84.14 128.77C83.64 129.64 83.1399 130.51 82.6299 131.37C78.3399 138.5 76.8299 146.75 77.9999 156.6C79.4799 168.97 83.1599 180.48 86.5599 190.11C89.723 198.931 90.0897 208.513 87.61 217.55C86.9007 220.453 86.4952 223.423 86.3999 226.41C86.3199 227.89 86.3 229.33 86.3 230.7C86.3 234.44 87.5699 235.7 91.3999 235.7H91.58C107.94 235.77 122.89 235.75 137.29 235.64C139.56 235.64 142.11 235.64 144.18 234.08C143.63 232.64 142.36 232.48 141.02 232.3L140.5 232.23C129.8 230.63 120.87 225.29 112.81 219.76L112.49 219.53L112.18 219.3C105.28 214.76 102.13 208.41 102.81 200.42C103.08 197.25 103.3 194.02 103.5 190.9C103.93 184.44 104.37 177.75 105.34 171.25C107.52 156.58 110.13 141.73 112.65 127.37C113.317 123.683 113.963 119.997 114.59 116.31C114.998 114.246 115.553 112.215 116.25 110.23C116.45 109.58 116.66 108.93 116.86 108.23C118.86 101.72 119.19 95.06 119.25 88.82C119.35 78.82 119.32 68.62 119.3 58.77C119.3 54.55 119.3 50.32 119.3 46.09V45.47C119.3 44.68 119.3 43.88 119.35 43.08V3.7C119.35 2.7187 119.74 1.77758 120.434 1.08369C121.128 0.38981 122.069 0 123.05 0C124.031 0 124.972 0.38981 125.666 1.08369C126.36 1.77758 126.75 2.7187 126.75 3.7V49.6C126.749 49.8488 126.722 50.0968 126.67 50.34C126.67 52.66 126.67 54.9933 126.67 57.34C126.67 67.24 126.74 77.48 126.67 87.54C126.67 96.4167 125.425 105.249 122.97 113.78C120.37 122.6 118.88 131.92 117.43 140.93L117.27 141.93C115.13 155.26 113.18 169.07 111.27 184.17C110.73 188.54 110.57 193.04 110.42 197.39C110.36 199.15 110.29 200.92 110.21 202.68C110.055 204.379 110.342 206.09 111.042 207.646C111.743 209.202 112.834 210.55 114.21 211.56C121.3 217.05 130.01 222.93 140.95 224.86C142.8 225.186 144.611 225.709 146.35 226.42C150.01 227.93 152.03 231 151.78 234.62Z" fill="#4287C7"/>
<path d="M91.78 234.62C91.7533 235.007 91.6999 235.391 91.62 235.77C91.3587 237.191 90.6813 238.503 89.6737 239.539C88.6661 240.575 87.3736 241.289 85.96 241.59L85.05 241.83C82.3954 242.566 79.6631 242.985 76.91 243.08C68.75 243.16 60.42 243.2 51.79 243.2C45.2 243.2 38.43 243.2 31.4 243.13C23.69 243.08 19.29 238.86 18.99 231.26C18.952 227.389 19.2161 223.52 19.78 219.69C19.89 218.81 20 217.94 20.1 217.07C20.3216 215.353 20.6557 213.653 21.1 211.98C21.26 211.35 21.42 210.71 21.57 210.07C22.5238 205.757 22.3027 201.268 20.93 197.07L19.65 192.88C17.43 185.58 15.12 178.03 13.1 170.54C11.2632 163.745 10.3219 156.739 10.3 149.7C10.2133 142.865 11.8577 136.119 15.08 130.09L15.98 128.41C17.2631 125.914 18.6715 123.484 20.2 121.13C26.33 112.06 28.2 101.66 25.78 89.34C23.2 76.04 19.09 63.15 14.95 50.98C14.7258 50.6757 14.5504 50.3383 14.43 49.98L0.160027 6.42996C-0.0453821 5.53118 0.0921503 4.58808 0.545708 3.7854C0.999265 2.98272 1.73616 2.37829 2.61205 2.0905C3.48794 1.80271 4.43972 1.85229 5.28097 2.22954C6.12221 2.60678 6.79233 3.2845 7.16003 4.12996L19.82 42.81C19.82 42.96 19.93 43.1 19.98 43.25L20.04 43.43C24.69 56.67 29.91 72.15 32.98 88.23C35.64 102.18 33.55 114.08 26.61 124.61C25.72 125.96 24.9 127.4 24.11 128.79C23.61 129.66 23.11 130.53 22.6 131.39C18.31 138.52 16.8 146.77 17.97 156.62C19.45 168.99 23.13 180.5 26.53 190.13C29.6931 198.951 30.0598 208.533 27.58 217.57C26.6288 221.879 26.2123 226.289 26.34 230.7C26.34 234.44 27.61 235.7 31.44 235.7C47.87 235.77 62.88 235.75 77.33 235.64C78.1 235.64 78.92 235.64 79.73 235.56C81.3361 235.498 82.8922 234.986 84.22 234.08C83.67 232.64 82.4 232.48 81.06 232.3L80.54 232.23L79.04 231.98C69.04 230.13 60.53 224.98 52.85 219.76L52.53 219.53L52.22 219.3C45.32 214.76 42.17 208.41 42.85 200.42C43.12 197.25 43.34 194.02 43.54 190.9C43.97 184.44 44.41 177.75 45.38 171.25C47.56 156.58 50.17 141.73 52.69 127.37C53.3567 123.683 54.0034 119.997 54.63 116.31C55.0384 114.246 55.5931 112.215 56.29 110.23C56.49 109.58 56.7 108.93 56.9 108.23C58.9 101.72 59.23 95.06 59.29 88.82C59.39 78.82 59.36 68.62 59.34 58.77C59.34 54.55 59.34 50.32 59.34 46.09V45.47C59.34 44.68 59.34 43.88 59.39 43.08V3.69997C59.3772 2.76387 59.7207 1.85789 60.3509 1.16557C60.9811 0.473254 61.8508 0.0463533 62.784 -0.0286567C63.7172 -0.103667 64.644 0.178827 65.3767 0.761596C66.1094 1.34437 66.5932 2.18385 66.73 3.10997C66.7703 3.30405 66.7904 3.50176 66.79 3.69997V49.6C66.7892 49.8487 66.7624 50.0968 66.71 50.34C66.71 52.66 66.71 54.9933 66.71 57.34C66.71 67.24 66.78 77.48 66.71 87.54C66.7102 96.4166 65.4648 105.249 63.01 113.78C60.41 122.6 58.92 131.92 57.47 140.93L57.31 141.93C55.17 155.26 53.22 169.07 51.31 184.17C50.77 188.54 50.61 193.04 50.46 197.39C50.4 199.15 50.33 200.92 50.25 202.68C50.0949 204.379 50.3817 206.09 51.0825 207.646C51.7834 209.202 52.8745 210.55 54.25 211.56C60.96 216.76 69.12 222.3 79.25 224.51C79.83 224.64 80.4 224.76 80.99 224.86C82.8404 225.186 84.6507 225.709 86.39 226.42H86.45C88.1107 227.019 89.5301 228.145 90.4923 229.625C91.4544 231.105 91.9066 232.859 91.78 234.62Z" fill="#4287C7"/>
</g>
<defs>
<clipPath id="clip0_49_4480">
<rect width="151.8" height="243.2" fill="white"/>
</clipPath>
</defs>
</svg>
