<?xml version="1.0" encoding="utf-8"?>
<!-- Generator: Adobe Illustrator 27.5.0, SVG Export Plug-In . SVG Version: 6.00 Build 0)  -->
<svg version="1.1" id="Capa_1" xmlns="http://www.w3.org/2000/svg" xmlns:xlink="http://www.w3.org/1999/xlink" x="0px" y="0px"
	 viewBox="0 0 2122 2122" style="enable-background:new 0 0 2122 2122;" xml:space="preserve">
<g>
	<path style="fill:#5775B8;" d="M1707.833,1778.138l-335.124-508.682c-11.848-20.522-33.665-30.107-40.37-26.236l-26.681-46.212
		c9.874-7.493,12.951-21.255,6.592-32.269l-33.065-57.271c206.642-167.271,266.872-464.531,129.735-702.059
		C1257.049,142.361,920.689,52.233,657.64,204.105C394.59,355.976,304.464,692.336,456.335,955.384
		c137.137,237.529,424.687,333.997,672.868,238.675l33.066,57.272c6.893,11.94,22.16,16.031,34.1,9.137l26.524,45.941l0,0
		c-11.485,6.631-12.014,29.118-0.166,49.639l266.296,547.05c37.063,64.195,94.88,119.092,184.397,67.41
		C1762.26,1919.215,1746.643,1845.359,1707.833,1778.138z"/>
	<path style="fill:#CCCCCC;" d="M1305.658,1197.008c-0.83,0.63-1.62,1.298-2.545,1.832l-106.743,61.628c-0.001,0-0.001,0-0.001,0
		l26.524,45.941l109.446-63.188L1305.658,1197.008z"/>
	<polygon style="fill:#ABABAB;" points="1239.945,1235.31 1196.37,1260.468 1196.369,1260.468 1222.893,1306.409 1266.469,1281.25 	
		"/>
	<path style="fill:#EC6643;" d="M1707.833,1778.138l-335.124-508.682c-11.848-20.522-33.665-30.107-40.37-26.236l-65.87,38.03
		l-43.576,25.158l0,0c-11.485,6.631-12.014,29.118-0.166,49.639l266.296,547.05c37.063,64.195,94.88,119.092,184.397,67.41
		C1762.26,1919.215,1746.643,1845.359,1707.833,1778.138z"/>
	<path style="fill:#CE402C;" d="M1713.804,1903.938c-89.516,51.682-147.334-3.215-184.396-67.411l-266.296-547.049
		c-0.925-1.602-1.748-3.216-2.522-4.833l-37.696,21.764c-11.485,6.63-12.015,29.118-0.167,49.639l266.296,547.049
		c37.063,64.195,94.881,119.092,184.397,67.41c41.143-23.754,59.854-52.35,64.262-82.883
		C1730.727,1893.271,1722.832,1898.726,1713.804,1903.938z"/>
	<path style="fill:#FFFFFF;" d="M1314.115,1243.833l-12.668,7.313c-3.218,1.858-7.333,0.755-9.191-2.463l-11.994-20.775
		c-1.858-3.218-0.755-7.333,2.463-9.191l12.667-7.313c3.218-1.858,7.333-0.756,9.191,2.463l11.994,20.774
		C1318.435,1237.86,1317.333,1241.975,1314.115,1243.833z"/>
	<path style="fill:#F18C74;" d="M1698.874,1792.95c22.82,39.527,30.524,70.128,4.488,84.67
		c-20.837,11.638-50.801,4.492-81.34-41.382c-54.03-81.161-279.722-528.958-289.083-545.172
		c-9.361-16.214,10.181-33.777,25.225-11.346C1373.21,1302.153,1676.053,1753.423,1698.874,1792.95z"/>
	<path style="fill:#4B55A1;" d="M1190.999,1205.919l-33.066-57.272c-253.006,112.538-552.44,5.798-689.577-231.73
		C367.34,741.953,390.213,527.67,482.995,363.7c-119.4,169.756-137.257,400.124-26.66,591.684
		c137.137,237.529,424.687,333.997,672.868,238.675l33.066,57.272c6.893,11.94,22.161,16.031,34.101,9.137l106.743-61.628
		c11.94-6.894,16.031-22.162,9.137-34.101l-87.151,50.316C1213.159,1221.949,1197.892,1217.858,1190.999,1205.919z"/>
	
		<ellipse transform="matrix(0.7071 -0.7071 0.7071 0.7071 -207.9532 858.7512)" style="fill:#61B9D9;" cx="932.628" cy="680.397" rx="470.405" ry="470.405"/>
	<path style="fill:#009ABB;" d="M1189.491,1041.044c-224.992,129.899-512.687,52.811-642.585-172.18
		c-75.002-129.908-80.873-280.673-29.238-409.946C443.908,597.435,441,769.683,525.245,915.599
		c129.899,224.991,417.594,302.078,642.585,172.18c95.082-54.895,163.623-138.019,201.417-232.635
		C1329.275,930.206,1268.563,995.391,1189.491,1041.044z"/>
	
		<ellipse transform="matrix(0.5 -0.866 0.866 0.5 56.6994 1132.2711)" style="fill:#91D3EB;" cx="1008.925" cy="517.032" rx="266.292" ry="337.006"/>
</g>
</svg>
