<svg width="207" height="250" viewBox="0 0 207 250" fill="none" xmlns="http://www.w3.org/2000/svg">
<g clip-path="url(#clip0_55_5390)">
<path d="M206.01 214.2C205.96 213.86 205.92 213.51 205.87 213.2C205.75 213.163 205.625 213.146 205.5 213.15C205.548 213.014 205.585 212.873 205.61 212.73H205.81C205.67 211.73 205.53 210.63 205.4 209.58C205.05 206.53 204.82 203.47 204.61 200.4C204.44 197.99 204.26 195.58 204.16 193.17C204.11 192.17 204.07 191.17 204.03 190.17C203.99 189.03 203.94 187.89 203.88 186.75C202.88 180.75 201.82 174.69 200.64 168.68C198.64 159.29 197.07 150.05 195.22 140.68C195.067 140.014 194.927 139.364 194.8 138.73C194.968 138.672 195.124 138.584 195.26 138.47C195.05 137.36 194.84 136.25 194.64 135.15C194.41 133.88 194.19 132.6 194.05 131.31C193.91 130.02 193.79 128.5 193.68 127.09C193.68 126.66 193.61 126.23 193.57 125.8C192.96 121.8 192.33 117.73 191.78 113.69C191.46 111.39 191.19 109.09 190.99 106.79C190.91 105.91 190.84 105.03 190.76 104.15C190.76 103.79 190.69 103.42 190.67 103.06L190.61 101.93C189.84 98.2302 188.69 94.5302 187.91 90.9302C186.606 85.207 185.605 79.4189 184.91 73.5902C184.11 66.3502 182.01 59.4402 180.77 52.3302C180.27 49.5202 179.84 46.6902 179.4 43.8702C179.026 40.3203 178.238 36.8265 177.05 33.4602C176.717 32.3825 176.169 31.3836 175.438 30.5241C174.708 29.6646 173.81 28.9625 172.8 28.4602C169.03 26.2902 164.8 25.1002 160.8 23.4602C155.85 21.4602 150.91 19.5202 145.89 17.7702C142.29 16.4702 138.54 15.6402 134.96 14.2802C131.69 11.4496 128.805 8.20189 126.38 4.62023C125.77 3.73023 125.17 2.82023 124.6 1.90023L124.55 1.83023C124.57 1.60612 124.535 1.38056 124.45 1.17241C124.365 0.964255 124.231 0.779542 124.059 0.633699C123.888 0.487857 123.684 0.385118 123.465 0.334065C123.246 0.283011 123.018 0.285124 122.8 0.340229C118.74 1.68023 114.39 1.54023 110.2 2.21023C108.67 2.40023 107.34 2.73023 105.94 3.00023C105.827 2.94803 105.705 2.91751 105.58 2.91023C104.9 2.91023 104.23 2.98023 103.58 2.99023C102.61 3.01698 101.639 2.95337 100.68 2.80023H100.6C99.14 2.53023 97.78 2.19023 96.2 1.99023C92.01 1.32023 87.66 1.45023 83.6 0.11023C83.3731 0.0439536 83.1331 0.0358243 82.9021 0.0865899C82.6712 0.137355 82.4567 0.245385 82.2785 0.40074C82.1002 0.556095 81.9639 0.753786 81.882 0.975624C81.8002 1.19746 81.7754 1.43632 81.81 1.67023V1.74023C81.24 2.66023 80.64 3.56023 80.03 4.46023C77.6026 8.03985 74.7182 11.2873 71.45 14.1202C67.87 15.4802 64.12 16.3002 60.52 17.6102C55.52 19.3602 50.52 21.3502 45.61 23.2902C41.61 24.8902 37.39 26.0802 33.61 28.2902C32.6231 28.7778 31.7438 29.4581 31.0242 30.2912C30.3045 31.1242 29.7591 32.0929 29.42 33.1402C29.5251 33.1126 29.6362 33.1179 29.7381 33.1555C29.8401 33.193 29.928 33.261 29.99 33.3502C30.0431 33.4172 30.0821 33.4943 30.1044 33.5769C30.1268 33.6594 30.1321 33.7456 30.12 33.8302C30.0957 34.0078 30.0521 34.1821 29.99 34.3502C29.9 34.6902 29.82 35.0402 29.74 35.3502C29.52 36.3502 29.34 37.3502 29.15 38.4202C29.128 38.5425 29.0594 38.6514 28.9587 38.7241C28.858 38.7969 28.733 38.8277 28.61 38.8102C28.28 39.9702 27.96 41.1402 27.68 42.3102C27.29 43.9002 26.91 45.4802 26.53 47.0702C26.53 47.0702 26.53 47.0702 26.53 47.1402C26.27 48.8102 26 50.4702 25.7 52.1402C24.46 59.2502 22.37 66.1402 21.56 73.3902C20.8671 79.2192 19.8657 85.0073 18.56 90.7302C18.19 92.4402 17.75 94.1602 17.3 95.8902C17.23 96.3002 17.18 96.7102 17.12 97.1302C16.73 100.05 16.37 102.98 16.01 105.92C15.8 107.67 15.58 109.43 15.37 111.19C15.16 112.95 14.98 114.87 14.82 116.71C14.7 118.09 14.6 119.47 14.46 120.84C14.32 122.21 14.12 123.84 13.91 125.32C13.53 128.12 13.23 130.94 12.84 133.75C12.64 135.16 12.4 136.58 12.19 137.99C11.98 139.4 11.73 140.83 11.46 142.24C11.32 142.97 11.13 143.7 10.94 144.42C10.75 145.14 10.55 145.79 10.34 146.48C10.13 147.17 9.98004 147.71 9.78004 148.32C9.78004 148.37 9.78004 148.42 9.78004 148.47C8.53004 155.15 7.32004 161.8 5.87004 168.54C4.47004 175.67 3.16004 182.81 2.11004 190C1.76004 192.74 1.44004 195.48 1.11004 198.21C1.11004 198.84 1.06004 199.47 1.04004 200.1C1.04004 201.1 0.940043 202.05 0.880043 203.03C0.820043 204.01 0.770044 204.98 0.690044 205.95L0.420044 209.29C0.340044 210.35 0.250044 211.41 0.170044 212.46H0.280045C0.493919 212.509 0.716169 212.509 0.930044 212.46C0.930044 212.6 1.00004 212.74 1.04004 212.88C0.917534 212.86 0.792554 212.86 0.670044 212.88C0.577005 212.918 0.492752 212.974 0.42255 213.046C0.352348 213.118 0.297707 213.204 0.262043 213.297C0.226379 213.391 0.210459 213.491 0.215277 213.592C0.220095 213.692 0.245548 213.79 0.290045 213.88C0.570045 214.33 1.09004 214.56 1.48004 214.88C4.48004 217.25 8.35004 217.88 11.92 219.01C15.15 219.88 18.22 221.43 21.52 221.96C21.4849 222.026 21.4612 222.097 21.45 222.17C21.4001 222.692 21.3801 223.216 21.39 223.74C21.3033 226.566 21.026 229.382 20.56 232.17C20.17 234.57 22.85 235.47 24.7 235.99C26.03 236.39 27.38 236.76 28.7 237.17C31.37 237.99 34.01 238.92 36.64 239.85C40.2499 241.323 43.9312 242.615 47.67 243.72C53.15 244.91 58.67 245.64 64.28 246.29C71.22 247.18 78.11 248.62 85.1 249.02C88.04 249.16 90.97 249.3 93.91 249.39C94.56 249.39 95.22 249.39 95.91 249.39C97.27 249.39 98.65 249.39 100.02 249.27H100.67L101.67 249.19L102.19 249.24L102.74 249.29C103.74 249.38 104.66 249.45 105.63 249.51H106.27C107.65 249.59 109.02 249.64 110.38 249.64C111.04 249.64 111.7 249.64 112.38 249.64C115.32 249.55 118.25 249.42 121.19 249.27C128.19 248.88 135.07 247.43 142.01 246.54C147.57 245.89 153.14 245.16 158.62 243.97C162.4 243.07 166.19 241.45 169.82 240.19C172.45 239.25 175.09 238.33 177.76 237.51C179.1 237.1 180.44 236.72 181.76 236.32C183.61 235.81 186.29 234.9 185.9 232.5C185.438 229.712 185.161 226.895 185.07 224.07C185.08 223.546 185.06 223.022 185.01 222.5C184.997 222.427 184.974 222.356 184.94 222.29C188.24 221.76 191.31 220.22 194.54 219.34C198.11 218.24 201.97 217.58 204.98 215.21C205.29 214.95 205.67 214.75 205.98 214.46L206.01 214.2Z" fill="#841919"/>
<path d="M102.11 32.4301C98.3955 30.8245 95.1877 28.2389 92.8299 24.9501C90.987 22.7974 89.3842 20.4502 88.0499 17.9501C86.2179 14.0076 84.6381 9.95281 83.3199 5.81012C82.9799 4.81012 82.6399 3.72012 82.3199 2.66012C82.0999 2.08012 81.9799 1.15012 82.8499 1.12012C83.0243 1.12764 83.1893 1.20093 83.3118 1.32525C83.4342 1.44957 83.505 1.61568 83.5099 1.79012C83.5099 1.79012 83.5099 1.73012 83.5099 1.71012V1.65012C84.9499 5.88012 86.7199 9.99012 88.5099 14.0801C89.673 16.788 91.1786 19.3354 92.9899 21.6601C94.9199 23.9501 96.4499 26.2901 98.8599 28.0101C100.219 28.8343 101.691 29.4543 103.23 29.8501C103.546 30.0153 103.787 30.2938 103.906 30.6298C104.025 30.9657 104.012 31.3341 103.87 31.661C103.728 31.9878 103.468 32.2488 103.141 32.3915C102.815 32.5342 102.446 32.548 102.11 32.4301Z" fill="#561111"/>
<path d="M85.13 52.3398C83.6 51.0198 85.27 49.5198 86.13 48.3998C87.38 46.7798 88.62 45.1398 90 43.6298C91.88 41.6298 94 39.8098 96 37.8298C97.7 36.1198 99.29 34.2898 101 32.5598C101.3 32.2498 101.6 31.9498 101.91 31.6498C102.22 31.3498 102.79 30.7398 103.4 30.9098C103.555 30.9555 103.695 31.0441 103.802 31.1656C103.909 31.287 103.98 31.4363 104.006 31.5961C104.032 31.756 104.013 31.92 103.95 32.0693C103.887 32.2185 103.783 32.347 103.65 32.4398C102.05 34.2898 100.58 36.2298 99.11 38.1798C97.11 40.8498 94.7 43.1798 92.55 45.6798C90.74 47.8098 89.34 50.2498 87.37 52.2398C87.0756 52.5314 86.6833 52.7031 86.2693 52.7216C85.8553 52.7401 85.4492 52.604 85.13 52.3398Z" fill="#561111"/>
<path d="M84.96 51.63C84.5517 51.3726 84.2581 50.968 84.14 50.5C83.95 49.83 83.75 49.16 83.55 48.5C83.5745 48.5619 83.5946 48.6253 83.61 48.69C82.19 44.1 80.26 39.69 79.16 34.97C77.84 30.23 76.76 25.44 75.84 20.61C75.51 18.93 75.2 17.24 75 15.54C74.8398 14.7885 74.8398 14.0116 75 13.26C75.0495 13.1636 75.127 13.0843 75.2222 13.0325C75.3175 12.9806 75.4262 12.9587 75.5341 12.9695C75.642 12.9803 75.7441 13.0233 75.8272 13.093C75.9103 13.1626 75.9705 13.2557 76 13.36C77.6 20.59 79.69 27.72 82 34.76C82.7777 37.0487 83.6824 39.2922 84.71 41.48C85.8737 44.1428 86.8624 46.8786 87.67 49.67C87.7478 50.0174 87.7221 50.3799 87.596 50.7127C87.4699 51.0456 87.249 51.3341 86.9606 51.5427C86.6722 51.7513 86.329 51.8707 85.9734 51.8863C85.6178 51.9018 85.2655 51.8127 84.96 51.63Z" fill="#561111"/>
<path d="M22.7399 224.55C22.5745 224.503 22.4199 224.424 22.2851 224.317C22.1503 224.21 22.0379 224.077 21.9543 223.927C21.8707 223.776 21.8176 223.611 21.798 223.44C21.7784 223.269 21.7926 223.096 21.8399 222.93C22.3599 220.82 23.0599 218.75 23.5499 216.64C24.3299 212.3 25.1299 207.97 25.8799 203.64C27.3199 194.64 28.8799 185.64 30.2999 176.64C32.0099 166.53 33.9399 156.45 35.0199 146.25C35.7799 139.16 36.1999 132.04 37.1899 124.98C37.9599 120.21 38.7299 115.44 39.4099 110.66C40.0299 105.72 40.4099 101.07 40.7599 96.2002C41.3398 90.0848 41.5802 83.9421 41.4799 77.8002C41.7099 71.0502 41.8399 64.1802 40.4799 57.5502C39.8399 52.6602 37.9999 48.1002 36.3099 43.5502C35.3099 40.8402 34.4599 38.1102 33.6799 35.3602C33.2738 33.9601 32.7965 32.5816 32.2499 31.2302C32.1471 31.1032 32.0768 30.9529 32.0455 30.7926C32.0141 30.6322 32.0225 30.4665 32.0699 30.3102C32.1329 30.1614 32.244 30.0381 32.3855 29.9601C32.5269 29.8821 32.6905 29.8539 32.8499 29.8802C33.3199 29.9702 33.5899 30.4102 33.8499 30.8002C34.3181 31.7014 34.7321 32.6297 35.0899 33.5802C36.0099 36.0502 36.8599 38.5802 37.7999 41.0102C39.1899 44.8802 41.0499 48.6002 42.1199 52.5902C43.1051 56.4561 43.7739 60.3957 44.1199 64.3702C44.3449 68.4771 44.3449 72.5932 44.1199 76.7002C43.9699 82.8202 44.0599 88.9502 43.4499 95.0502C42.9672 103.191 42.0391 111.3 40.6699 119.34C39.3099 127.29 38.5499 135.34 37.7999 143.34C37.1699 149.51 36.2099 155.64 35.2399 161.76C32.8399 175.76 30.6999 189.82 28.4499 203.85C27.5199 208.85 26.7699 213.92 25.6299 218.85C25.2199 220.44 24.8099 222.04 24.3299 223.61C24.2383 223.942 24.0213 224.226 23.7247 224.401C23.4282 224.577 23.0751 224.63 22.7399 224.55Z" fill="#561111"/>
<path d="M27.16 206.09C24.2108 205.811 21.2795 205.367 18.38 204.76C16.307 204.471 14.2581 204.03 12.25 203.44C10.93 203.02 9.62 202.49 8.36 202.05C5.89 201.22 3.27 200.65 0.880005 199.57C0.880005 199 0.930006 198.44 0.950006 197.87C1.27001 198 1.60001 198.11 1.95001 198.23C3.88001 198.93 5.9 199.31 7.88 199.85C10.88 200.71 13.88 201.85 17.06 202.2C20.52 202.61 23.94 203.33 27.38 203.82C27.6586 203.872 27.9082 204.025 28.0812 204.249C28.2541 204.473 28.338 204.754 28.317 205.036C28.2959 205.319 28.1713 205.584 27.967 205.78C27.7627 205.976 27.4932 206.09 27.21 206.1L27.16 206.09Z" fill="#561111"/>
<path d="M104.26 32.6801C107.973 31.067 111.18 28.4788 113.54 25.1901C115.383 23.0353 116.989 20.6884 118.33 18.1901C120.153 14.2483 121.729 10.1972 123.05 6.06012C123.39 5.01012 123.73 3.96012 124.05 2.90012C124.26 2.32012 124.38 1.40012 123.52 1.37012C123.345 1.37262 123.177 1.44265 123.052 1.56561C122.928 1.68857 122.855 1.85498 122.85 2.03012C122.85 2.03012 122.85 1.98012 122.85 1.95012V1.89012C121.41 6.12012 119.64 10.2301 117.85 14.3301C116.683 17.0351 115.174 19.5792 113.36 21.9001C111.43 24.1901 109.91 26.5401 107.49 28.2501C106.134 29.0724 104.665 29.6923 103.13 30.0901C102.787 30.24 102.517 30.5201 102.38 30.8689C102.243 31.2177 102.25 31.6067 102.4 31.9501C102.55 32.2936 102.83 32.5634 103.179 32.7003C103.528 32.8372 103.917 32.83 104.26 32.6801Z" fill="#561111"/>
<path d="M121.24 52.5301C122.77 51.2201 121.1 49.7101 120.24 48.5901C118.99 46.9701 117.75 45.3401 116.37 43.8301C114.5 41.8301 112.37 40.0101 110.42 38.0301C108.72 36.3101 107.13 34.4901 105.42 32.7501L104.51 31.8401C104.11 31.4701 103.63 30.9401 103.02 31.1001C102.865 31.1489 102.728 31.2399 102.622 31.3628C102.517 31.4857 102.447 31.6356 102.422 31.7957C102.398 31.9558 102.418 32.1196 102.481 32.2688C102.544 32.418 102.648 32.5466 102.78 32.6401C104.37 34.4801 105.84 36.4301 107.31 38.3701C109.31 41.0501 111.72 43.3701 113.87 45.8801C115.68 48.0001 117.09 50.4501 119.05 52.4301C119.342 52.7081 119.724 52.8714 120.126 52.8898C120.529 52.9082 120.924 52.7804 121.24 52.5301Z" fill="#561111"/>
<path d="M121.41 51.8698C121.821 51.6127 122.118 51.2085 122.24 50.7398C122.43 50.0698 122.62 49.4098 122.82 48.7398C122.82 48.7398 122.82 48.7398 122.76 48.9298C124.18 44.3398 126.11 39.9298 127.21 35.2098C128.53 30.4798 129.61 25.6798 130.53 20.8498C130.86 19.1698 131.17 17.4898 131.37 15.7898C131.53 15.0382 131.53 14.2613 131.37 13.5098C131.321 13.4131 131.245 13.3334 131.15 13.2808C131.055 13.2283 130.947 13.2054 130.839 13.2151C130.732 13.2248 130.629 13.2666 130.546 13.3352C130.462 13.4038 130.401 13.496 130.37 13.5998C128.731 20.8294 126.729 27.9718 124.37 34.9998C123.598 37.2906 122.694 39.5345 121.66 41.7198C120.532 44.3742 119.58 47.1001 118.81 49.8798C118.738 50.2152 118.762 50.5644 118.881 50.8865C118.999 51.2086 119.207 51.4904 119.479 51.699C119.752 51.9076 120.078 52.0344 120.42 52.0646C120.762 52.0949 121.105 52.0273 121.41 51.8698Z" fill="#561111"/>
<path d="M183.67 224.8C184.003 224.7 184.285 224.473 184.453 224.169C184.621 223.864 184.663 223.505 184.57 223.17C184.05 221.06 183.35 219 182.86 216.88C182.09 212.54 181.28 208.21 180.54 203.88C179.09 194.88 177.54 185.88 176.11 176.88C174.4 166.77 172.47 156.68 171.39 146.48C170.63 139.4 170.21 132.27 169.22 125.21C168.45 120.45 167.68 115.68 167 110.9C166.38 105.9 166 101.3 165.65 96.4299C165.075 90.3143 164.835 84.1718 164.93 78.0299C164.71 71.2899 164.58 64.4199 165.93 57.7799C166.57 52.8999 168.41 48.3399 170.11 43.7799C171.11 41.0799 171.95 38.3499 172.73 35.5899C173.136 34.1898 173.613 32.8113 174.16 31.4599C174.261 31.334 174.331 31.1855 174.362 31.027C174.393 30.8685 174.386 30.7048 174.34 30.5499C174.276 30.4014 174.165 30.278 174.024 30.1985C173.883 30.119 173.72 30.0879 173.56 30.1099C173.09 30.1999 172.82 30.6499 172.56 31.0299C172.088 31.9291 171.674 32.8577 171.32 33.8099C170.4 36.2799 169.54 38.8099 168.6 41.2399C167.21 45.1199 165.35 48.8399 164.28 52.8199C163.295 56.6858 162.626 60.6255 162.28 64.5999C162.06 68.7103 162.06 72.8295 162.28 76.9399C162.43 83.0599 162.34 89.1799 162.95 95.2799C163.412 103.433 164.32 111.556 165.67 119.61C167.02 127.55 167.79 135.56 168.53 143.61C169.16 149.78 170.12 155.91 171.09 162.04C173.49 176.04 175.64 190.09 177.89 204.12C178.81 209.12 179.56 214.2 180.7 219.17C181.11 220.76 181.52 222.35 182 223.93C182.108 224.265 182.344 224.545 182.656 224.708C182.969 224.871 183.333 224.904 183.67 224.8Z" fill="#561111"/>
<path d="M179.18 206.34C178.897 206.33 178.627 206.216 178.423 206.02C178.219 205.824 178.094 205.559 178.073 205.276C178.052 204.994 178.136 204.713 178.309 204.489C178.482 204.264 178.731 204.112 179.01 204.06C182.46 203.57 185.87 202.86 189.33 202.44C192.5 202.11 195.47 200.96 198.51 200.09C200.51 199.55 202.51 199.17 204.45 198.48L204.57 200.2C202.44 201.05 200.15 201.57 197.99 202.31C196.73 202.74 195.42 203.31 194.1 203.7C192.093 204.279 190.048 204.72 187.98 205.02C185.076 205.622 182.142 206.066 179.19 206.35L179.18 206.34Z" fill="#561111"/>
<path d="M103.87 243.34C101.87 243.23 102.6 240.13 102.41 238.76C102.33 233.08 102.41 227.4 102.49 221.76C103.28 159.97 102.49 98.1599 103.09 36.3599C103.09 35.2699 103.09 34.1799 103.18 33.0899C103.18 32.6099 103.32 31.9799 103.91 31.9899C104.039 31.9921 104.165 32.0334 104.27 32.1084C104.375 32.1834 104.456 32.2885 104.5 32.4099C104.689 34.3773 104.772 36.3535 104.75 38.3299C105.28 102.09 104.52 165.85 105.39 229.6C105.39 233.06 105.44 236.54 105.39 240C105.31 241.27 105.67 243.24 103.87 243.34Z" fill="#561111"/>
<path d="M96.4099 48.64C96.4179 48.296 96.5278 47.9621 96.7255 47.6805C96.9233 47.3989 97.2001 47.1822 97.5209 47.0579C97.8418 46.9336 98.1923 46.9073 98.5282 46.9821C98.864 47.057 99.1701 47.2298 99.4078 47.4787C99.6454 47.7275 99.804 48.0412 99.8634 48.3802C99.9227 48.7191 99.8803 49.068 99.7414 49.3829C99.6025 49.6977 99.3733 49.9642 99.0829 50.1488C98.7926 50.3334 98.454 50.4278 98.1099 50.42C97.6493 50.4069 97.2124 50.2126 96.8941 49.8794C96.5758 49.5461 96.4019 49.1007 96.4099 48.64Z" fill="white"/>
<path d="M95.8 66.89C95.8101 66.4823 95.941 66.0868 96.176 65.7536C96.411 65.4203 96.7397 65.1643 97.1203 65.018C97.5009 64.8717 97.9164 64.8417 98.3142 64.9317C98.7119 65.0217 99.074 65.2278 99.3545 65.5237C99.635 65.8197 99.8214 66.1922 99.89 66.5942C99.9587 66.9962 99.9064 67.4095 99.74 67.7818C99.5735 68.154 99.3003 68.4685 98.955 68.6854C98.6096 68.9023 98.2077 69.0118 97.8 69C97.2571 68.9792 96.744 68.7468 96.3702 68.3524C95.9965 67.9581 95.7918 67.4332 95.8 66.89Z" fill="white"/>
<path d="M95.8 87.5098C95.808 87.148 95.9231 86.7967 96.1307 86.5002C96.3383 86.2038 96.6292 85.9756 96.9665 85.8445C97.3038 85.7134 97.6725 85.6853 98.0258 85.7636C98.3791 85.842 98.7012 86.0234 98.9515 86.2848C99.2017 86.5462 99.3689 86.876 99.4317 87.2324C99.4946 87.5888 99.4503 87.9558 99.3046 88.2871C99.1589 88.6184 98.9182 88.899 98.613 89.0935C98.3078 89.288 97.9518 89.3876 97.59 89.3798C97.1072 89.3616 96.6504 89.1563 96.3163 88.8073C95.9822 88.4583 95.797 87.9929 95.8 87.5098Z" fill="white"/>
<path d="M94.5 109.7C94.5 109.305 94.6173 108.918 94.8371 108.589C95.0568 108.26 95.3692 108.004 95.7346 107.852C96.1001 107.701 96.5022 107.661 96.8902 107.739C97.2781 107.816 97.6345 108.006 97.9142 108.286C98.1939 108.566 98.3844 108.922 98.4616 109.31C98.5387 109.698 98.4991 110.1 98.3478 110.466C98.1964 110.831 97.94 111.143 97.6111 111.363C97.2822 111.583 96.8956 111.7 96.5 111.7C95.9696 111.7 95.4609 111.489 95.0858 111.114C94.7107 110.739 94.5 110.231 94.5 109.7Z" fill="white"/>
<path d="M94.1201 128.88C94.132 128.346 94.3021 127.828 94.6086 127.391C94.9151 126.954 95.3444 126.617 95.8421 126.424C96.3399 126.231 96.8837 126.189 97.405 126.305C97.9262 126.421 98.4014 126.689 98.7705 127.074C99.1396 127.46 99.386 127.947 99.4785 128.473C99.5711 128.999 99.5056 129.54 99.2904 130.029C99.0752 130.518 98.72 130.931 98.2696 131.218C97.8192 131.505 97.2939 131.652 96.7601 131.64C96.0465 131.617 95.3706 131.315 94.8771 130.799C94.3836 130.283 94.1118 129.594 94.1201 128.88Z" fill="white"/>
<path d="M93.59 149.25C93.598 148.898 93.7101 148.556 93.9123 148.268C94.1144 147.98 94.3975 147.758 94.7257 147.631C95.0538 147.503 95.4124 147.476 95.756 147.553C96.0996 147.629 96.4129 147.806 96.6561 148.06C96.8994 148.315 97.0617 148.635 97.1227 148.982C97.1836 149.329 97.1403 149.686 96.9984 150.008C96.8564 150.33 96.6222 150.603 96.3252 150.792C96.0282 150.981 95.6819 151.078 95.33 151.07C94.8596 151.054 94.414 150.855 94.0888 150.515C93.7635 150.174 93.5845 149.72 93.59 149.25Z" fill="white"/>
<path d="M93.1 172.79C93.1121 172.22 93.2929 171.667 93.6197 171.2C93.9465 170.733 94.4045 170.373 94.9357 170.166C95.4669 169.96 96.0475 169.916 96.6039 170.039C97.1603 170.163 97.6675 170.449 98.0614 170.861C98.4552 171.273 98.7179 171.792 98.8162 172.354C98.9145 172.915 98.8441 173.493 98.6137 174.015C98.3834 174.536 98.0035 174.977 97.5222 175.283C97.0409 175.588 96.4798 175.744 95.91 175.73C95.1505 175.704 94.4313 175.382 93.9062 174.832C93.3811 174.283 93.0917 173.55 93.1 172.79Z" fill="white"/>
<path d="M93.83 193.64C93.838 193.284 93.9513 192.939 94.1556 192.647C94.36 192.356 94.6462 192.131 94.978 192.002C95.3098 191.874 95.6724 191.846 96.0199 191.923C96.3674 192 96.6842 192.179 96.9303 192.436C97.1763 192.693 97.3406 193.018 97.4023 193.368C97.464 193.719 97.4203 194.08 97.2769 194.406C97.1334 194.732 96.8966 195.007 96.5963 195.199C96.296 195.39 95.9458 195.488 95.5899 195.48C95.1143 195.464 94.6636 195.263 94.3346 194.919C94.0056 194.575 93.8245 194.116 93.83 193.64Z" fill="white"/>
<path d="M92.52 215.28C92.5319 214.802 92.6852 214.338 92.9605 213.947C93.2358 213.556 93.6207 213.256 94.0667 213.083C94.5127 212.911 94.9997 212.874 95.4664 212.979C95.9331 213.083 96.3584 213.323 96.6888 213.668C97.0191 214.014 97.2397 214.45 97.3226 214.921C97.4055 215.392 97.347 215.877 97.1546 216.314C96.9621 216.752 96.6443 217.123 96.2413 217.38C95.8382 217.638 95.368 217.77 94.89 217.76C94.2489 217.739 93.6416 217.468 93.1985 217.004C92.7554 216.54 92.5118 215.921 92.52 215.28Z" fill="white"/>
<path d="M92.35 233.67C92.36 233.245 92.4958 232.832 92.7402 232.484C92.9847 232.136 93.3268 231.869 93.7233 231.715C94.1198 231.562 94.5529 231.529 94.9679 231.622C95.3829 231.715 95.761 231.928 96.0546 232.236C96.3482 232.543 96.544 232.931 96.6172 233.35C96.6905 233.769 96.6379 234.2 96.4662 234.589C96.2944 234.978 96.0112 235.307 95.6524 235.535C95.2935 235.763 94.8751 235.88 94.45 235.87C93.8806 235.854 93.3405 235.614 92.9472 235.202C92.5539 234.79 92.3392 234.239 92.35 233.67Z" fill="white"/>
<path d="M118.33 125.78C117.72 124.78 117.03 120.38 118.91 120.37C120.29 120.37 120.2 121.94 120.28 122.92C120.57 124.34 120.42 127.11 118.33 125.78Z" fill="#561111"/>
<path d="M119.67 143.73C119.92 142.52 119.12 140.11 120.67 139.73C120.793 139.729 120.916 139.752 121.03 139.799C121.144 139.846 121.248 139.915 121.334 140.003C121.421 140.091 121.489 140.195 121.535 140.309C121.581 140.424 121.603 140.547 121.6 140.67V140.62C121.6 140.62 121.6 140.55 121.6 140.51C121.6 141.87 123 144.36 121.08 144.9C120.909 144.924 120.735 144.912 120.57 144.865C120.404 144.818 120.25 144.736 120.117 144.626C119.984 144.516 119.876 144.38 119.799 144.225C119.722 144.071 119.678 143.902 119.67 143.73Z" fill="#561111"/>
<path d="M124.76 136.28C124.663 136.206 124.584 136.113 124.527 136.006C124.47 135.899 124.437 135.781 124.43 135.66C124.43 135.08 124.33 134.5 124.3 133.92C124.27 133.34 123.91 131.64 124.98 131.66C125.82 131.77 125.58 133.12 125.76 133.74C125.94 134.36 125.93 134.92 126.02 135.51C126.039 135.665 126.014 135.822 125.946 135.962C125.878 136.102 125.772 136.22 125.639 136.302C125.506 136.383 125.352 136.424 125.196 136.42C125.04 136.416 124.889 136.368 124.76 136.28Z" fill="#561111"/>
<path d="M63.72 84.5998C63.89 83.2598 62.41 81.0198 63.9 80.2398C65.82 80.0698 65.77 82.8898 66.08 84.2398C66.0944 84.5363 65.9983 84.8277 65.8104 85.0576C65.6224 85.2874 65.3559 85.4394 65.0624 85.4842C64.7689 85.529 64.4692 85.4633 64.2212 85.3C63.9733 85.1366 63.7947 84.8871 63.72 84.5998Z" fill="#561111"/>
<path d="M64.1 97.6698C63.39 94.1798 66.21 93.6698 66.49 95.9698C66.4 96.9698 66.86 98.7298 65.33 98.8298C65.0134 98.8379 64.7064 98.7205 64.476 98.5032C64.2456 98.2859 64.1104 97.9864 64.1 97.6698Z" fill="#561111"/>
<path d="M68.88 90.2001C69.13 88.7301 67.95 85.8001 69.97 85.3901C72.1 85.6701 70.81 88.6701 71.14 90.1301C71.1493 90.4298 71.0392 90.7209 70.8338 90.9394C70.6285 91.1579 70.3447 91.2859 70.045 91.2951C69.7453 91.3044 69.4542 91.1943 69.2358 90.9889C69.0173 90.7836 68.8893 90.4998 68.88 90.2001Z" fill="#561111"/>
<path d="M19.67 154.87C19.16 154.36 19.38 153.58 19.52 152.95C19.5243 152.99 19.5243 153.03 19.52 153.07V153.12C19.5506 152.942 19.6288 152.775 19.7463 152.638C19.8639 152.501 20.0164 152.398 20.1877 152.341C20.359 152.284 20.5426 152.274 20.7191 152.312C20.8956 152.351 21.0583 152.436 21.19 152.56C21.95 153.48 21.03 156.02 19.67 154.87Z" fill="#561111"/>
<path d="M19.46 170.43C18.59 168.89 19.46 166.79 19.37 165.06C19.3553 164.887 19.3858 164.713 19.4586 164.556C19.5314 164.398 19.6439 164.262 19.7852 164.161C19.9264 164.06 20.0915 163.998 20.2642 163.98C20.4369 163.963 20.6112 163.99 20.77 164.06C22.16 165.06 21.08 167.96 21.41 169.57C21.4077 169.795 21.3407 170.014 21.2169 170.202C21.0932 170.39 20.9179 170.538 20.7122 170.629C20.5065 170.719 20.279 170.749 20.0569 170.714C19.8348 170.679 19.6276 170.58 19.46 170.43Z" fill="#561111"/>
<path d="M177.17 137.34C177.26 135.77 176.43 133.55 177.86 132.42C180.81 131.23 180.18 135.52 180.31 137.24C180.323 137.656 180.171 138.061 179.886 138.365C179.601 138.669 179.206 138.847 178.79 138.86C178.374 138.873 177.969 138.721 177.665 138.435C177.361 138.15 177.183 137.756 177.17 137.34Z" fill="#561111"/>
<path d="M180.54 143.49C180.7 142.39 180.39 140.96 181.84 140.83C183.36 140.83 183.51 143.19 183.23 144.29C183.069 144.573 182.817 144.794 182.515 144.916C182.213 145.037 181.879 145.053 181.567 144.96C181.254 144.868 180.983 144.672 180.796 144.405C180.61 144.138 180.52 143.815 180.54 143.49Z" fill="#561111"/>
<path d="M183.23 136.71C183.218 136.391 183.301 136.076 183.469 135.804C183.637 135.533 183.882 135.317 184.172 135.185C184.463 135.053 184.786 135.01 185.101 135.062C185.416 135.114 185.709 135.259 185.941 135.477C186.174 135.696 186.336 135.978 186.408 136.289C186.479 136.601 186.457 136.926 186.343 137.224C186.229 137.522 186.03 137.78 185.769 137.965C185.509 138.149 185.199 138.252 184.88 138.26C184.456 138.271 184.045 138.114 183.737 137.824C183.428 137.534 183.246 137.134 183.23 136.71Z" fill="#561111"/>
</g>
<defs>
<clipPath id="clip0_55_5390">
<rect width="206.05" height="249.67" fill="white"/>
</clipPath>
</defs>
</svg>
