<svg width="134" height="166" viewBox="0 0 134 166" fill="none" xmlns="http://www.w3.org/2000/svg">
<g clip-path="url(#clip0_55_5744)">
<path d="M25.36 165.55C25.36 165.55 35.58 165.98 40.69 158.31C45.8 150.64 51.13 136.52 52.19 121.43C53.25 106.34 50.91 97.5699 49.63 83.1199C48.35 68.6699 47.93 45.7199 48.57 34.2999C49.21 22.8799 46.87 2.21997 25.36 0.0899683C3.84998 -2.04003 4.28998 34.38 3.63998 53.54C2.98998 72.7 0.229969 95.7 0.0199691 105.54C-0.190031 115.38 2.14998 165.77 25.36 165.55Z" fill="#324960"/>
<path d="M40.34 75.3298L37.84 73.0198C24.35 61.4198 14.64 71.9497 14.64 71.9497L8.64001 71.3897L8.90001 64.6797C8.90001 64.6797 8.90001 30.7498 11.9 17.9798C14.9 5.20977 21.32 2.25973 30.22 6.68973C42.22 12.6897 42.8 56.7998 42.15 69.5398L40.34 75.3298Z" fill="#F5E2D3"/>
<path d="M52.19 121.43C51.13 136.52 45.8 150.65 40.69 158.31C35.58 165.97 25.36 165.55 25.36 165.55C2.15004 165.77 -0.199976 115.3 0.0200239 105.55C0.170024 98.6099 1.60003 85.02 2.65003 70.88L14.65 71.9999C14.65 71.9999 24.36 61.47 37.85 73.07L49.73 84.07C51.01 97.94 53.23 106.64 52.19 121.43Z" fill="#324960"/>
<path d="M5.85001 101.39L4.14001 101.13C4.14001 102.72 5.07001 140.44 10.53 151.87C13.61 158.29 19.78 162.58 26.26 162.81C28.782 162.921 31.2841 162.317 33.4779 161.068C35.6717 159.819 37.468 157.975 38.66 155.75C45.13 144.38 50.05 118.67 48.78 102.85L47.13 103.6C48.35 118.86 43.4 143.97 37.13 154.91C36.1031 156.874 34.5339 158.503 32.6089 159.602C30.6838 160.701 28.4837 161.224 26.27 161.11C20.42 160.9 14.82 156.99 12.02 151.11C6.76 140.03 5.85001 101.78 5.85001 101.39Z" fill="#588399"/>
<path d="M15.56 102.31C11.91 104.42 2.15 100.45 0.309998 99.67C1.08 88.24 3.1 69.56 3.64 53.54C4.7 62.91 16.84 72.28 18.54 78.46C20.24 84.64 19.61 99.96 15.56 102.31Z" fill="#28313F"/>
<path d="M35.5799 104.22C31.5799 101.67 27.4899 86.1198 29.5799 80.3698C31.6699 74.6198 44.8399 72.2597 48.3899 59.4897C48.59 67.8597 48.9999 76.3998 49.5899 83.1198C50.2299 90.3498 51.1399 96.1198 51.75 102.07C51.79 102.07 39.6299 106.78 35.5799 104.22Z" fill="#28313F"/>
<path d="M38.63 97.1297C38.6766 96.6993 38.5914 96.2648 38.3859 95.8838C38.1803 95.5027 37.864 95.193 37.4787 94.9955C37.0935 94.7979 36.6573 94.7219 36.2279 94.7774C35.7985 94.833 35.3961 95.0174 35.0737 95.3065C34.7514 95.5956 34.5243 95.9756 34.4225 96.3964C34.3206 96.8172 34.3488 97.259 34.5034 97.6635C34.6579 98.0679 34.9315 98.416 35.2879 98.6617C35.6444 98.9074 36.0671 99.0393 36.5 99.0398C36.766 99.0573 37.0328 99.0216 37.2847 98.9345C37.5366 98.8475 37.7687 98.7111 37.9671 98.5331C38.1655 98.3552 38.3264 98.1394 38.4402 97.8984C38.5541 97.6574 38.6186 97.396 38.63 97.1297Z" fill="#121A21"/>
<path d="M13.22 98.05C14.3963 98.05 15.35 97.1903 15.35 96.13C15.35 95.0696 14.3963 94.21 13.22 94.21C12.0436 94.21 11.09 95.0696 11.09 96.13C11.09 97.1903 12.0436 98.05 13.22 98.05Z" fill="#121A21"/>
<path d="M13.4201 95.4099C20.7825 97.9859 28.741 98.3338 36.3001 96.4099C37.2401 96.1799 37.6401 97.6199 36.7001 97.8399C29.0501 99.6899 20.4801 99.6499 13.0201 96.8399C12.1301 96.5099 12.5201 95.0599 13.4201 95.3999V95.4099Z" fill="#588399"/>
<path d="M38.63 86.0499C38.6745 85.6196 38.5875 85.186 38.3805 84.8061C38.1736 84.4263 37.8563 84.1181 37.4707 83.9221C37.085 83.7262 36.649 83.6517 36.2202 83.7085C35.7914 83.7653 35.3898 83.9508 35.0685 84.2404C34.7472 84.53 34.5212 84.9103 34.4203 85.3309C34.3195 85.7516 34.3484 86.1929 34.5034 86.5968C34.6585 87.0006 34.9322 87.3481 35.2886 87.5932C35.6451 87.8383 36.0674 87.9697 36.5 87.97C36.7668 87.9875 37.0343 87.9514 37.2869 87.8638C37.5395 87.7762 37.7719 87.6388 37.9705 87.4598C38.1691 87.2808 38.3297 87.0638 38.443 86.8216C38.5563 86.5795 38.6199 86.3171 38.63 86.0499Z" fill="#121A21"/>
<path d="M15.35 85.0599C15.3965 84.6295 15.3114 84.195 15.1058 83.8139C14.9003 83.4329 14.584 83.1232 14.1987 82.9256C13.8134 82.7281 13.3773 82.6521 12.9479 82.7076C12.5185 82.7632 12.1161 82.9476 11.7937 83.2367C11.4714 83.5257 11.2443 83.9058 11.1424 84.3266C11.0406 84.7474 11.0688 85.1892 11.2233 85.5937C11.3778 85.9981 11.6514 86.3462 12.0079 86.5919C12.3644 86.8376 12.787 86.9695 13.22 86.9699C13.486 86.9875 13.7527 86.9517 14.0047 86.8647C14.2566 86.7777 14.4886 86.6412 14.6871 86.4633C14.8855 86.2854 15.0464 86.0695 15.1602 85.8285C15.2741 85.5875 15.3386 85.3262 15.35 85.0599Z" fill="#121A21"/>
<path d="M13.4201 84.3401C20.7825 86.9162 28.741 87.264 36.3001 85.3401C37.2401 85.1201 37.6401 86.5601 36.7001 86.7801C29.0501 88.6201 20.4801 88.5901 13.0201 85.7801C12.1301 85.4401 12.5201 84.0001 13.4201 84.3401Z" fill="#588399"/>
<path d="M40.95 88.0099C40.24 86.9199 38.25 86.4199 34.72 86.4199C31.4823 86.4826 28.2521 86.7565 25.05 87.2399C21.8479 86.7569 18.6177 86.4831 15.38 86.4199C11.84 86.4199 9.86 86.9199 9.14 88.0099C8.96746 88.2827 8.86847 88.5956 8.8527 88.918C8.83693 89.2405 8.9049 89.5615 9.04999 89.8499C9.62999 91.2099 11.05 91.8499 13.31 91.8499C17.31 91.8499 22.87 89.7199 25.05 88.8499C27.23 89.7499 32.83 91.8499 36.78 91.8499C39.03 91.8499 40.46 91.1599 41.04 89.8499C41.19 89.5629 41.2608 89.2411 41.245 88.9177C41.2292 88.5942 41.1273 88.2808 40.95 88.0099ZM15.38 87.6399C18.09 87.6833 20.7949 87.8903 23.48 88.2599C20.93 89.2599 16.48 90.7599 13.31 90.7599C11.59 90.7599 10.52 90.3099 10.14 89.4199C9.95 88.9699 10.08 88.7699 10.14 88.6999C10.34 88.3399 11.29 87.6399 15.38 87.6399ZM39.95 89.4199C39.58 90.3099 38.51 90.7599 36.78 90.7599C33.62 90.7599 29.16 89.2399 26.62 88.2599C29.3051 87.8903 32.01 87.6833 34.72 87.6399C38.82 87.6399 39.72 88.3799 39.97 88.6999C40.02 88.7299 40.15 88.9299 39.95 89.3799V89.4199Z" fill="#588399"/>
<path d="M24.09 88.34C21.39 84.7 16.7199 82.34 12.3199 81.34C11.3799 81.13 11.7799 79.7 12.7199 79.9C17.7231 80.8931 22.2082 83.6373 25.37 87.64C25.95 88.41 24.65 89.16 24.09 88.39V88.34Z" fill="#588399"/>
<path d="M25.77 88.34C28.47 84.7 33.14 82.34 37.53 81.34C38.47 81.13 38.07 79.7 37.14 79.9C32.1348 80.895 27.6471 83.6387 24.48 87.64C23.91 88.41 25.2 89.16 25.77 88.39V88.34Z" fill="#588399"/>
<path d="M107.99 165.55C107.99 165.55 97.7699 165.98 92.6499 158.31C87.5299 150.64 82.2199 136.52 81.1499 121.43C80.0799 106.34 82.43 97.5699 83.71 83.1199C84.9916 66.88 85.3455 50.5802 84.77 34.2999C84.14 22.8799 86.48 2.21997 107.99 0.0899683C129.5 -2.04003 129.07 34.38 129.71 53.54C130.35 72.7 133.11 95.7 133.33 105.54C133.55 115.38 131.2 165.77 107.99 165.55Z" fill="#324960"/>
<path d="M93.01 75.3298L95.4999 73.0198C108.99 61.4198 118.7 71.9497 118.7 71.9497L124.7 71.3897L124.45 64.6797C124.45 64.6797 124.45 30.7498 121.45 17.9798C118.45 5.20977 112.04 2.25973 103.14 6.68973C91.14 12.6897 90.56 56.7998 91.2 69.5398L93.01 75.3298Z" fill="#F5E2D3"/>
<path d="M81.15 121.43C82.22 136.52 87.54 150.65 92.65 158.31C97.76 165.97 107.99 165.55 107.99 165.55C131.2 165.77 133.54 115.3 133.33 105.55C133.18 98.6099 131.74 85.02 130.69 70.88L118.69 71.9999C118.69 71.9999 108.98 61.47 95.4901 73.07L83.61 84.07C82.29 97.94 80.11 106.64 81.15 121.43Z" fill="#324960"/>
<path d="M127.5 101.39L129.2 101.13C129.2 102.72 128.27 140.44 122.81 151.87C119.74 158.29 113.56 162.58 107.08 162.81C104.558 162.919 102.057 162.315 99.863 161.066C97.6695 159.817 95.8729 157.974 94.68 155.75C88.21 144.38 83.3 118.67 84.56 102.85L86.22 103.6C84.99 118.86 89.94 143.97 96.16 154.91C97.1879 156.874 98.7573 158.501 100.682 159.6C102.607 160.699 104.806 161.223 107.02 161.11C112.88 160.9 118.47 156.99 121.27 151.11C126.58 140.03 127.49 101.78 127.5 101.39Z" fill="#588399"/>
<path d="M117.78 102.31C121.44 104.42 131.19 100.45 133.03 99.67C132.26 88.24 130.24 69.56 129.71 53.54C128.64 62.91 116.5 72.28 114.8 78.46C113.1 84.64 113.74 99.96 117.78 102.31Z" fill="#28313F"/>
<path d="M97.77 104.22C101.77 101.67 105.86 86.1198 103.77 80.3698C101.68 74.6198 88.51 72.2597 84.96 59.4897C84.75 67.8597 84.3399 76.3998 83.7499 83.1198C83.1099 90.3498 82.1999 96.1198 81.5899 102.07C81.5499 102.07 93.72 106.78 97.77 104.22Z" fill="#28313F"/>
<path d="M94.71 97.1297C94.6635 96.6993 94.7486 96.2648 94.9542 95.8838C95.1597 95.5027 95.476 95.193 95.8613 94.9955C96.2466 94.7979 96.6827 94.7219 97.1121 94.7774C97.5415 94.833 97.944 95.0174 98.2663 95.3065C98.5887 95.5956 98.8157 95.9756 98.9176 96.3964C99.0194 96.8172 98.9912 97.259 98.8367 97.6635C98.6822 98.0679 98.4086 98.416 98.0521 98.6617C97.6956 98.9074 97.273 99.0393 96.84 99.0398C96.574 99.0573 96.3073 99.0216 96.0553 98.9345C95.8034 98.8475 95.5714 98.7111 95.373 98.5331C95.1745 98.3552 95.0137 98.1394 94.8998 97.8984C94.786 97.6574 94.7214 97.396 94.71 97.1297Z" fill="#121A21"/>
<path d="M120.12 98.05C121.296 98.05 122.25 97.1903 122.25 96.13C122.25 95.0696 121.296 94.21 120.12 94.21C118.944 94.21 117.99 95.0696 117.99 96.13C117.99 97.1903 118.944 98.05 120.12 98.05Z" fill="#121A21"/>
<path d="M119.93 95.4099C112.72 98.1299 104.44 98.1899 97.04 96.4099C96.11 96.1799 95.71 97.6199 96.64 97.8399C104.29 99.6899 112.87 99.6499 120.32 96.8399C121.21 96.5099 120.83 95.0599 119.93 95.3999V95.4099Z" fill="#588399"/>
<path d="M94.7099 86.0499C94.6655 85.6196 94.7524 85.186 94.9594 84.8061C95.1664 84.4263 95.4836 84.1181 95.8693 83.9221C96.2549 83.7262 96.6909 83.6517 97.1197 83.7085C97.5486 83.7653 97.9501 83.9508 98.2714 84.2404C98.5927 84.53 98.8187 84.9103 98.9196 85.3309C99.0205 85.7516 98.9915 86.1929 98.8365 86.5968C98.6815 87.0006 98.4077 87.3481 98.0513 87.5932C97.6949 87.8383 97.2725 87.9697 96.8399 87.97C96.5732 87.9875 96.3056 87.9514 96.053 87.8638C95.8005 87.7762 95.568 87.6388 95.3694 87.4598C95.1708 87.2808 95.0102 87.0638 94.8969 86.8216C94.7836 86.5795 94.7201 86.3171 94.7099 86.0499Z" fill="#121A21"/>
<path d="M117.99 85.0599C117.944 84.6295 118.029 84.195 118.234 83.8139C118.44 83.4329 118.756 83.1232 119.141 82.9256C119.527 82.7281 119.963 82.6521 120.392 82.7076C120.822 82.7632 121.224 82.9476 121.546 83.2367C121.869 83.5257 122.096 83.9058 122.198 84.3266C122.299 84.7474 122.271 85.1892 122.117 85.5937C121.962 85.9981 121.689 86.3462 121.332 86.5919C120.976 86.8376 120.553 86.9695 120.12 86.9699C119.854 86.9875 119.587 86.9517 119.335 86.8647C119.083 86.7777 118.851 86.6412 118.653 86.4633C118.455 86.2854 118.294 86.0695 118.18 85.8285C118.066 85.5875 118.001 85.3262 117.99 85.0599Z" fill="#121A21"/>
<path d="M119.93 84.3401C112.564 86.9164 104.602 87.2642 97.04 85.3401C96.11 85.1201 95.71 86.5601 96.64 86.7801C104.29 88.6201 112.87 88.5901 120.32 85.7801C121.21 85.4401 120.83 84.0001 119.93 84.3401Z" fill="#588399"/>
<path d="M92.29 89.8499C92.87 91.2099 94.29 91.8499 96.55 91.8499C100.55 91.8499 106.1 89.7199 108.29 88.8499C110.47 89.7499 116.06 91.8499 120.02 91.8499C122.27 91.8499 123.7 91.1599 124.28 89.8499C124.427 89.5621 124.496 89.2407 124.48 88.9179C124.465 88.5951 124.364 88.282 124.19 88.0099C123.48 86.9199 121.49 86.4199 117.95 86.4199C114.716 86.483 111.489 86.7568 108.29 87.2399C105.088 86.7569 101.858 86.4831 98.62 86.4199C95.08 86.4199 93.1 86.9199 92.38 88.0099C92.2074 88.2827 92.1085 88.5956 92.0927 88.918C92.0769 89.2405 92.1449 89.5615 92.29 89.8499ZM123.22 88.6399C123.27 88.7099 123.39 88.9099 123.22 89.3599C122.84 90.2499 121.78 90.6999 120.05 90.6999C116.88 90.6999 112.43 89.1799 109.89 88.1999C112.572 87.8307 115.273 87.6236 117.98 87.5799C122.07 87.6399 123.01 88.3399 123.22 88.6399ZM93.38 88.6399C93.59 88.3199 94.52 87.5799 98.63 87.5799C101.34 87.6233 104.045 87.8303 106.73 88.1999C104.18 89.1999 99.73 90.6999 96.56 90.6999C94.84 90.6999 93.77 90.2499 93.39 89.3599C93.2 88.9299 93.29 88.7299 93.38 88.6399Z" fill="#588399"/>
<path d="M109.29 88.34C111.99 84.7 116.65 82.34 121.05 81.34C121.99 81.13 121.59 79.7 120.65 79.9C115.636 80.8864 111.139 83.6313 107.97 87.64C107.4 88.41 108.69 89.16 109.26 88.39L109.29 88.34Z" fill="#588399"/>
<path d="M107.57 88.34C104.87 84.7 100.21 82.34 95.8099 81.34C94.8699 81.13 95.27 79.7 96.21 79.9C101.213 80.8931 105.698 83.6373 108.86 87.64C109.44 88.41 108.14 89.16 107.57 88.39V88.34Z" fill="#588399"/>
</g>
<defs>
<clipPath id="clip0_55_5744">
<rect width="133.34" height="165.56" fill="white"/>
</clipPath>
</defs>
</svg>
