<svg width="170" height="105" viewBox="0 0 170 105" fill="none" xmlns="http://www.w3.org/2000/svg">
<g clip-path="url(#clip0_55_5590)">
<path d="M2.89001 21.6101C2.03383 24.839 1.47483 28.1394 1.22001 31.4701C1.09027 32.6357 1.02018 33.8073 1.01001 34.9801C1.03412 36.9704 1.2552 38.9534 1.67001 40.9001C1.75583 41.4793 1.87267 42.0534 2.02001 42.6201L2.08001 42.8301L2.15001 43.0401C2.22992 43.2788 2.37548 43.4903 2.57001 43.6501V43.7501C2.57001 43.7501 2.57001 43.7501 2.57001 43.8001C2.51527 43.8948 2.47165 43.9954 2.44001 44.1001H2.59001C2.70969 43.9571 2.84006 43.8233 2.98001 43.7001C3.08563 43.6547 3.19997 43.6332 3.31487 43.6372C3.42976 43.6411 3.54236 43.6704 3.6446 43.723C3.74684 43.7755 3.83621 43.85 3.90629 43.9412C3.97638 44.0323 4.02545 44.1378 4.05001 44.2501L8.32001 44.6501C16.7 45.2901 25.21 45.9401 33.61 46.1001C35.46 46.072 37.3066 46.2667 39.11 46.6801C42.23 47.6801 45.27 48.9901 48.36 50.1001C56.38 53.0909 64.5918 55.5398 72.94 57.4301C81.21 59.1601 89.55 60.6101 97.94 61.7001C104.63 62.4501 111.37 62.8801 118.1 63.1401C121.37 63.2201 124.65 63.0701 127.92 63.1401C131.19 63.2101 134.66 63.3201 138.03 63.0501C139.62 62.9301 141.21 62.7301 142.79 62.4901L143.23 62.2701L143.39 62.1901L143.54 62.1001H143.6L143.72 62.0201L143.87 61.9201H143.93L144 61.8701L144.11 61.7901V61.7401L144.22 61.6501L144.34 61.5401L144.45 61.4201L144.57 61.2901C144.61 61.2459 144.646 61.1992 144.68 61.1501L144.79 61.0001L144.9 60.8501L144.97 60.7401C145.017 60.6746 145.058 60.6042 145.09 60.5301L145.18 60.3701C145.276 60.1701 145.357 59.9628 145.42 59.7501C145.828 58.3243 145.933 56.8291 145.73 55.3601C145.576 54.0402 145.325 52.7334 144.98 51.4501C144.647 50.3374 144.239 49.2483 143.76 48.1901C142.63 45.4701 141.44 44.4401 139.17 42.7001C137.632 41.4524 135.954 40.3885 134.17 39.5301C132.861 38.8769 131.504 38.3252 130.11 37.8801C126.81 36.8801 123.46 36.0401 120.11 35.2801C118.41 34.8901 116.69 34.5401 115.01 34.0601C113.56 33.6441 112.148 33.1055 110.79 32.4501C108.829 31.4171 106.929 30.2719 105.1 29.0201C102.675 27.4988 100.377 25.7832 98.23 23.8901C96.51 22.2801 94.75 20.7101 93.1 19.0201C91.31 17.0801 89.58 15.1001 87.98 13.0201L87.46 12.5701L87.07 12.1901L86.81 11.9201C86.7181 11.8282 86.6313 11.7314 86.55 11.6301C86.43 11.5001 86.31 11.3601 86.2 11.2201C86.09 11.0801 86.06 11.0401 85.99 10.9501L85.75 10.6401L85.2 9.86009C84.6631 9.03297 84.1756 8.17479 83.74 7.29008C82.7988 5.92347 81.7558 4.62981 80.62 3.42009H79.71C79.5502 3.4101 79.3899 3.4101 79.23 3.42009H77.84C77.42 3.42009 77 3.42009 76.57 3.42009H75.98H75.36H75.19L73.86 3.55009L73.21 3.6201L72.56 3.72007C71.77 3.84007 70.98 3.9801 70.19 4.1201L67.69 4.5601L66.47 4.79008L65.12 5.07008L63.84 5.3701L62.84 5.64009L61.75 5.95008L60.55 6.30009L59.26 6.72007L58.05 7.14009L57.3 7.41008C56.5 7.70008 55.71 8.01009 54.92 8.33009C54.51 8.49009 54.11 8.6701 53.71 8.8401L53.28 9.04008L52.69 9.33009L51.2 10.1001L49.83 10.8301L47.64 11.9801L47.36 12.1401C47.4197 12.4876 47.4598 12.8381 47.48 13.1901C47.5761 13.868 47.4862 14.5593 47.22 15.1901C47.2352 15.2159 47.2446 15.2447 47.2478 15.2745C47.2509 15.3043 47.2476 15.3344 47.2381 15.3628C47.2287 15.3912 47.2132 15.4173 47.1928 15.4392C47.1725 15.4612 47.1476 15.4785 47.12 15.4901C46.944 15.5671 46.7637 15.6338 46.58 15.6901L46.03 15.8601L45.74 15.9301C45.648 15.9559 45.5545 15.9759 45.46 15.9901L44.87 16.1101L44.46 16.1701H44.23L43.63 16.2301H42.83H40.55H39.17C38.07 16.2301 36.97 16.1601 35.88 16.1101H35.2L31.87 15.9401C30.87 15.8901 29.81 15.8301 28.78 15.7501C27.75 15.6701 26.59 15.5701 25.49 15.4401C25.02 15.3901 24.55 15.3401 24.08 15.2701H23.96L22.2 15.0101C21.14 14.8401 20.09 14.6201 19.04 14.4001C18.53 14.3001 18.04 14.1701 17.51 14.0501C16.98 13.9301 16.51 13.8201 16.02 13.6901L14.32 13.2501L13.64 13.0501L12.91 12.8301C12.62 12.7401 12.33 12.6601 12.05 12.5601L11.19 12.2501L10.49 11.9801L9.83001 11.7101C9.58001 11.6001 9.32001 11.5001 9.08001 11.3801L8.59001 11.1501L8.27001 10.9901L7.51001 10.6001L6.90001 10.2601C6.36001 11.5201 5.84001 12.7901 5.37001 14.0801C4.39001 16.4901 3.65001 19.0401 2.89001 21.6101Z" fill="#3A1D15"/>
<path d="M2.02002 42.6201L2.08002 42.8301L2.15002 43.0401C2.22993 43.2789 2.37549 43.4903 2.57002 43.6501V43.7501C2.57002 43.7501 2.57002 43.7501 2.57002 43.8001C2.51528 43.8948 2.47166 43.9954 2.44002 44.1001H2.59002C2.7097 43.9571 2.84007 43.8234 2.98002 43.7001C3.08564 43.6547 3.19998 43.6332 3.31487 43.6372C3.42976 43.6411 3.54236 43.6704 3.64461 43.723C3.74685 43.7755 3.83621 43.8501 3.9063 43.9412C3.97639 44.0323 4.02546 44.1378 4.05002 44.2501L8.32002 44.6501C16.7 45.2901 25.21 45.9401 33.61 46.1001C35.46 46.072 37.3066 46.2667 39.11 46.6801C42.23 47.6801 45.27 48.9901 48.36 50.1001C56.38 53.091 64.5918 55.5398 72.94 57.4301C81.21 59.1601 89.55 60.6101 97.94 61.7001C104.63 62.4501 111.37 62.8801 118.1 63.1401C121.37 63.2201 124.65 63.0701 127.92 63.1401C131.19 63.2101 134.66 63.3201 138.03 63.0501C139.62 62.9301 141.21 62.7301 142.79 62.4901L143.23 62.2701L143.39 62.1901L143.54 62.1001H143.6L143.72 62.0201L143.87 61.9201L144 61.8201L144.11 61.7401V61.6901L144.22 61.6001L144.34 61.4901L144.45 61.3701L144.57 61.2401C144.61 61.1959 144.646 61.1492 144.68 61.1001L144.79 60.9501L144.9 60.8001L144.97 60.6901C145.017 60.6246 145.058 60.5542 145.09 60.4801L145.18 60.3201L144.18 60.4801C139.116 61.3824 133.968 61.7179 128.83 61.4801C125.39 61.4101 121.96 61.5301 118.52 61.4801C114.65 61.3801 110.78 61.1201 106.92 60.8401C100.185 60.3874 93.4814 59.5561 86.84 58.3501C80.19 57.2001 73.52 56.0401 66.99 54.2501C62.86 53.1301 58.75 51.9301 54.69 50.5701C49.9 48.9401 45.2 47.0401 40.45 45.2901C38.2831 44.5229 36.0081 44.1043 33.71 44.0501C31.42 43.9101 29.14 43.8401 26.86 43.7601C18.61 43.3601 10.31 43.0301 2.02002 42.6201Z" fill="#331910"/>
<path d="M1.25994 46.7101C0.144961 49.7586 -0.24533 53.0247 0.11994 56.2501C0.182753 56.4956 0.219622 56.747 0.229941 57.0001C0.240423 57.19 0.240423 57.3802 0.229941 57.5701C0.234898 57.6133 0.234898 57.6569 0.229941 57.7001C0.229941 58.0001 0.229941 58.3201 0.229941 58.6401H0.45994H0.609942L1.01994 58.7001H1.23994H1.53994H1.66994H1.90994H2.01994H2.22994H2.49994L2.83994 58.7501H3.05994C12.2304 59.9257 21.4645 60.5368 30.7099 60.5801C32.7099 60.5801 34.7099 60.5301 36.7099 60.4901H38.3999H39.3999H41.0399C41.0399 59.8501 41.0399 59.2001 40.9599 58.5601C40.9552 58.4935 40.9552 58.4267 40.9599 58.3601C40.8799 56.5101 40.7799 54.6601 40.6399 52.8101C43.3066 54.0435 45.9733 55.2601 48.6399 56.4601C51.2799 57.6201 53.9599 58.6901 56.6399 59.7101C58.3099 60.3101 59.9899 60.9301 61.7199 61.3701C64.9739 62.1272 68.265 62.7146 71.5799 63.1301L74.0899 63.4701C80.1702 64.3446 86.2984 64.8455 92.4399 64.9701C95.7299 64.9701 99.0199 64.9101 102.3 65.0901C108.3 65.3701 114.3 65.6501 120.25 65.8101C123.13 65.8101 126.02 65.7001 128.89 65.5101C133.58 65.1501 138.41 64.6301 142.69 62.5101C141.11 62.7501 139.52 62.9501 137.93 63.0701C134.56 63.3401 131.19 63.2101 127.82 63.1601C124.45 63.1101 121.27 63.2501 118 63.1601C111.27 62.9001 104.53 62.4701 97.8399 61.7201C89.4499 60.6301 81.1099 59.1801 72.8399 57.4501C64.4917 55.5598 56.2799 53.111 48.2599 50.1201C45.1699 49.0101 42.1299 47.7301 39.0099 46.7001C37.2065 46.2867 35.3599 46.092 33.5099 46.1201C25.1099 45.9601 16.5999 45.3101 8.21994 44.6701L3.94994 44.2701C3.92539 44.1578 3.87631 44.0523 3.80622 43.9612C3.73613 43.8701 3.64677 43.7956 3.54453 43.743C3.44228 43.6905 3.32969 43.6612 3.2148 43.6572C3.0999 43.6532 2.98556 43.6747 2.87994 43.7201C2.73999 43.8434 2.60962 43.9771 2.48994 44.1201H2.33994C2.33994 44.2501 2.23994 44.4101 2.18994 44.5701C1.83982 45.2653 1.52932 45.9798 1.25994 46.7101Z" fill="#3A1D15"/>
<path d="M24.2401 24.9602C32.4401 25.3302 41.8901 24.7502 48.1401 18.8002C48.7301 18.0202 50.2001 16.8602 49.1401 15.9102C49.037 15.8224 48.9172 15.7564 48.7879 15.7163C48.6586 15.6762 48.5226 15.6627 48.3879 15.6768C48.2533 15.6908 48.1229 15.732 48.0047 15.7979C47.8864 15.8638 47.7828 15.9531 47.7001 16.0602C46.4501 17.627 44.8599 18.8889 43.05 19.7502C38.6377 21.7932 33.8422 22.8771 28.9801 22.9302C27.4501 23.0102 25.9201 23.0602 24.3901 23.0202C22.6501 22.9202 20.9301 22.6002 19.2001 22.3402C16.8838 22.0626 14.5954 21.5875 12.3601 20.9202C10.2545 20.3377 8.20876 19.5576 6.25005 18.5902C6.12157 18.5182 5.9705 18.4977 5.8275 18.533C5.6845 18.5683 5.56029 18.6567 5.48005 18.7802C5.40607 18.9066 5.38453 19.0569 5.42004 19.1989C5.45556 19.341 5.54531 19.4635 5.67005 19.5402C7.23941 20.4056 8.87847 21.1382 10.5701 21.7302C14.9886 23.3249 19.5751 24.4086 24.2401 24.9602Z" fill="#331910"/>
<path d="M95.11 47.02C104.371 48.4195 113.702 49.3108 123.06 49.69C127.21 49.76 131.35 49.4 135.49 49.13C136.887 49.0182 138.277 48.8212 139.65 48.54C140.15 48.4 141.25 48.37 140.94 47.6C140.883 47.498 140.79 47.421 140.679 47.384C140.568 47.347 140.447 47.3527 140.34 47.4C136.55 48.35 132.59 48.3 128.71 48.53C123.955 48.6835 119.196 48.5365 114.46 48.09C108.58 47.48 102.7 46.89 96.85 46.09C92.23 45.5 87.65 44.63 83.03 44.09C72.69 42.8 62.46 40.81 52.14 39.37C44.83 38.37 37.59 36.87 30.34 35.47C24.65 34.25 18.94 33.22 13.34 31.89C10.4847 31.3475 7.66327 30.6396 4.88999 29.77C4.45999 29.63 4.05999 29.43 3.63999 29.28C3.50732 29.2426 3.36602 29.2497 3.23777 29.3003C3.10952 29.3508 3.0014 29.4421 2.93 29.56C2.5 30.47 3.83 30.74 4.43 31.02C6.69255 31.8085 9.01284 32.4203 11.37 32.85C14.21 33.47 17.03 34.15 19.88 34.68C31.61 36.96 43.31 39.44 55.17 40.93C62.67 42.03 70.11 43.46 77.62 44.5C83.44 45.25 89.28 46.08 95.11 47.02Z" fill="#331910"/>
<path d="M110.23 45.1402C110.362 45.1049 110.475 45.019 110.544 44.9011C110.614 44.7832 110.634 44.6427 110.6 44.5102C110.19 43.1702 109.73 41.8502 109.25 40.5102C108.392 37.9606 107.078 35.5885 105.37 33.5102C102.078 30.0028 98.3117 26.9734 94.1801 24.5102C86.3703 19.134 78.2384 14.2415 69.8301 9.86017C67.7801 8.77017 65.6401 7.86017 63.5401 6.86017C63.0201 6.66017 62.6501 6.19018 62.1201 6.18018C61.9535 6.20262 61.8025 6.28965 61.6996 6.42249C61.5967 6.55532 61.5502 6.72331 61.5701 6.89017C61.8301 7.84017 64.5701 8.74018 65.4401 9.25018C67.2201 10.0802 68.9701 11.0302 70.7201 11.9402C77.9024 15.7606 84.8787 19.9564 91.6201 24.5102C95.3974 26.8175 98.9704 29.4437 102.3 32.3602C105.212 34.9051 107.373 38.1968 108.55 41.8802C108.92 42.8802 109.28 43.8802 109.62 44.8802C109.677 44.9864 109.768 45.0701 109.879 45.1173C109.99 45.1646 110.114 45.1727 110.23 45.1402Z" fill="#331910"/>
<path d="M82.0899 42.1601C82.1595 42.1326 82.223 42.0916 82.2768 42.0395C82.3306 41.9874 82.3735 41.9252 82.4032 41.8564C82.4329 41.7877 82.4488 41.7138 82.45 41.639C82.4511 41.5641 82.4375 41.4898 82.4099 41.4202C82.1199 40.7693 81.7648 40.1495 81.3499 39.5702C78.3499 35.7001 74.2199 32.9202 70.3499 29.9602C65.8899 26.6402 61.5299 23.1302 56.9999 19.9602C53.9999 17.8502 51.0999 15.8202 48.2699 13.5402C48.1952 13.4024 48.0739 13.2957 47.9277 13.2392C47.7815 13.1827 47.6199 13.1801 47.472 13.2318C47.324 13.2835 47.1993 13.3862 47.1201 13.5215C47.041 13.6568 47.0126 13.8158 47.0399 13.9701C47.0749 14.1147 47.1599 14.2423 47.2799 14.3302C47.7499 14.7602 48.2799 15.1801 48.7499 15.5701C52.6899 18.6901 56.8299 21.5701 60.8299 24.5701C65.2399 28.0001 69.8299 31.2101 74.2499 34.5702C76.3497 36.1046 78.2805 37.8578 80.0099 39.8002C80.5408 40.4572 80.9907 41.1756 81.3499 41.9401C81.4232 42.063 81.54 42.1538 81.677 42.1945C81.8141 42.2353 81.9615 42.223 82.0899 42.1601Z" fill="#331910"/>
<path d="M65.34 20.5398C66.08 20.4098 66.42 19.5998 66.93 19.1298C68.1539 17.7953 69.4923 16.5706 70.93 15.4698C74.82 12.6398 80.6 9.84981 85.41 9.36981C85.86 9.36981 86.36 9.17979 86.3 8.65979C86.15 7.86979 85.19 8.1098 84.62 8.0498C79.99 8.2698 74.69 10.9698 70.82 13.4398C68.4719 15.0041 66.3111 16.8328 64.38 18.8898C64.2361 19.047 64.1463 19.2461 64.1235 19.458C64.1008 19.6699 64.1463 19.8835 64.2534 20.0677C64.3606 20.2519 64.5238 20.397 64.7193 20.482C64.9147 20.5669 65.1322 20.5871 65.34 20.5398Z" fill="#5A3524"/>
<path d="M73.25 25.22C76.92 20.86 80.48 17.3601 85.77 15.0101C87.01 14.1801 88.86 13.9501 89.71 12.7001C89.93 11.9301 89.06 11.4601 88.41 11.7501C84.5048 12.7455 80.8119 14.4395 77.51 16.7501C76.0553 17.8998 74.7397 19.2153 73.59 20.6701C72.83 21.9301 70.07 23.8401 71.59 25.3101C71.8313 25.4971 72.1319 25.5909 72.4368 25.5744C72.7416 25.5579 73.0303 25.4321 73.25 25.22Z" fill="#5A3524"/>
<path d="M81.71 29.3598C84.01 24.2198 88.55 20.4798 93.58 18.1498C94.0265 17.9259 94.4876 17.7321 94.96 17.5698C95.0377 17.5355 95.1053 17.482 95.1566 17.4144C95.2079 17.3467 95.2411 17.2672 95.2531 17.1831C95.2651 17.0991 95.2555 17.0134 95.2252 16.9341C95.1949 16.8548 95.145 16.7845 95.08 16.7298C94.9305 16.642 94.7641 16.5869 94.5918 16.5679C94.4194 16.549 94.245 16.5667 94.08 16.6198C93.3988 16.7312 92.7292 16.9053 92.08 17.1398C88.6989 18.3307 85.6415 20.2925 83.15 22.8698C81.9165 24.164 80.8514 25.6087 79.98 27.1698C79.43 28.0098 78.83 29.0498 79.91 29.7798C80.0543 29.8755 80.2165 29.9407 80.3869 29.9714C80.5573 30.0021 80.7321 29.9976 80.9007 29.9583C81.0692 29.919 81.228 29.8456 81.3672 29.7427C81.5063 29.6397 81.623 29.5095 81.71 29.3598Z" fill="#5A3524"/>
<path d="M88.71 33.7299C89.4718 31.9896 90.3435 30.2995 91.32 28.67C93.0296 26.4324 94.9629 24.3751 97.09 22.53C97.3634 22.2949 97.6542 22.0809 97.96 21.89C98.0824 21.8402 98.1899 21.7598 98.2722 21.6565C98.3546 21.5531 98.4089 21.4304 98.43 21.3C98.4426 21.1958 98.4333 21.0903 98.4025 20.99C98.3718 20.8897 98.3204 20.797 98.2516 20.7178C98.1828 20.6387 98.0982 20.5748 98.0032 20.5304C97.9082 20.486 97.8049 20.462 97.7 20.46C96.9309 20.6 96.2029 20.9109 95.57 21.37C92.8041 22.9775 90.3623 25.0869 88.37 27.59C87.3034 29.0918 86.4643 30.743 85.88 32.49C85.7784 32.8522 85.8111 33.2389 85.972 33.5789C86.133 33.9189 86.4114 34.1893 86.756 34.3403C87.1005 34.4913 87.488 34.5126 87.8471 34.4005C88.2062 34.2883 88.5127 34.0502 88.71 33.7299Z" fill="#5A3524"/>
<path d="M95.26 40.0399C95.662 39.801 95.9532 39.4128 96.07 38.9599C96.388 38.1303 96.7519 37.3191 97.1599 36.5299C98.9099 32.9299 100.88 29.3399 103.88 26.6199C103.967 26.5476 104.061 26.4839 104.16 26.4299C104.302 26.3482 104.409 26.2181 104.463 26.0635C104.517 25.9088 104.513 25.74 104.452 25.5881C104.391 25.4361 104.278 25.3112 104.132 25.2362C103.987 25.1612 103.819 25.1412 103.66 25.1799C102.932 25.4762 102.257 25.8882 101.66 26.3999C98.5772 28.7986 95.9663 31.7485 93.96 35.0999C93.4938 36.0616 93.122 37.0663 92.85 38.0999C92.7545 38.418 92.7561 38.7573 92.8545 39.0745C92.9529 39.3917 93.1437 39.6723 93.4024 39.8806C93.661 40.0888 93.976 40.2152 94.3068 40.2436C94.6377 40.2719 94.9696 40.201 95.26 40.0399Z" fill="#5A3524"/>
<path d="M101.2 40.7999C104.13 37.5699 106.84 34.1499 109.85 30.9799C110.27 30.4899 111.13 29.9799 110.63 29.2699C110.563 29.1793 110.478 29.1042 110.38 29.0497C110.282 28.9951 110.173 28.9625 110.061 28.9539C109.949 28.9454 109.836 28.9611 109.731 29.0002C109.625 29.0392 109.529 29.1005 109.45 29.1799C108.45 30.1199 107.45 31.0799 106.39 31.9799C103.93 34.2799 101.11 36.1599 98.9399 38.7299C98.7113 39.0358 98.6045 39.4158 98.6402 39.796C98.6759 40.1762 98.8516 40.5296 99.1333 40.7876C99.4149 41.0455 99.7823 41.1896 100.164 41.1919C100.546 41.1942 100.915 41.0545 101.2 40.7999Z" fill="#5A3524"/>
<path d="M88.84 2.27979C86.7469 3.02415 84.9974 4.50692 83.92 6.44977C85.9795 5.6479 87.7115 4.17999 88.84 2.27979ZM78.71 8.87976C75.27 8.17976 71.15 6.87979 67.71 8.02979C68.46 9.13978 70.16 9.31979 71.38 9.52979C73.8425 9.77616 76.3294 9.55561 78.71 8.87976ZM118.6 22.1598C117.999 21.6364 117.368 21.1489 116.71 20.6998C115.089 19.5351 113.391 18.4795 111.63 17.5398C106.1 14.7098 99.7601 14.9398 93.7801 13.9398C90.0201 13.3998 86.69 11.4898 83.2 10.1498C81.81 9.53978 80.4 10.1498 79.02 10.5398C76.0508 11.3464 72.9333 11.4424 69.92 10.8198C65.67 10.0998 64.29 6.37977 69.44 5.75977C72.0849 5.47374 74.7591 5.63603 77.35 6.23978C78.7555 6.60074 80.1919 6.82841 81.64 6.91977C82.563 4.50251 84.2208 2.43554 86.38 1.00977C87.2541 0.377191 88.3013 0.0281395 89.38 0.00976562C89.8912 0.0379203 90.3721 0.260992 90.7237 0.633057C91.0753 1.00512 91.2708 1.49785 91.27 2.00977C91.07 4.87977 87.12 7.85977 84.57 8.72977C87.46 9.83977 90.25 11.2798 93.3 11.9198C99.63 13.0998 106.37 12.9198 112.22 15.9198C114.005 16.8478 115.702 17.9356 117.29 19.1698C118.136 19.7916 118.947 20.4592 119.72 21.1698C119.85 21.304 119.922 21.4832 119.922 21.6698C119.922 21.8563 119.85 22.0356 119.72 22.1698C119.65 22.2513 119.563 22.3165 119.465 22.3609C119.367 22.4053 119.26 22.4279 119.153 22.4269C119.045 22.426 118.939 22.4015 118.842 22.3554C118.745 22.3093 118.659 22.2425 118.59 22.1598H118.6Z" fill="#5A3524"/>
<path d="M112.71 27.3602C112.864 27.2047 112.951 26.9945 112.951 26.7753C112.951 26.5561 112.864 26.3457 112.71 26.1902C112.15 25.5402 111.54 24.9302 110.93 24.3202C109.93 23.2562 108.854 22.2669 107.71 21.3602C105.028 19.4455 102.043 17.9953 98.8799 17.0702C94.4199 15.7302 89.5599 14.7802 85.9399 11.6402C85.2999 11.1002 84.6999 10.5303 84.1099 9.93025C83.5599 9.51025 83.1099 8.21026 82.2899 8.84026C82.1788 8.94653 82.1111 9.09032 82.1 9.2437C82.0889 9.39708 82.1352 9.54909 82.2299 9.67024C83.4455 11.3606 84.9164 12.8517 86.5899 14.0903C91.6499 17.7203 98.1899 18.0202 103.59 20.9702C105.834 22.166 107.892 23.6819 109.7 25.4702C110.33 26.0602 110.96 26.6502 111.53 27.3002C111.679 27.4636 111.887 27.5615 112.108 27.5728C112.329 27.584 112.545 27.5076 112.71 27.3602Z" fill="#5A3524"/>
<path d="M40.2399 19.1401C40.2627 19.0231 40.2614 18.9027 40.2362 18.7862C40.211 18.6697 40.1624 18.5595 40.0933 18.4623C40.0242 18.3652 39.9361 18.2831 39.8343 18.221C39.7326 18.1589 39.6192 18.1182 39.5012 18.1012C39.3833 18.0843 39.263 18.0915 39.1479 18.1224C39.0328 18.1533 38.9251 18.2073 38.8315 18.281C38.7379 18.3548 38.6602 18.4468 38.6032 18.5515C38.5462 18.6563 38.5111 18.7715 38.4999 18.8901C38.4789 19.115 38.5451 19.3394 38.6849 19.5169C38.8247 19.6943 39.0273 19.8112 39.2509 19.8433C39.4745 19.8755 39.7019 19.8204 39.886 19.6895C40.0701 19.5586 40.1968 19.3619 40.2399 19.1401Z" fill="#331910"/>
<path d="M34.38 20.1601C34.4004 19.9665 34.3637 19.7711 34.2746 19.598C34.1855 19.4248 34.0477 19.2815 33.8783 19.1855C33.7089 19.0896 33.5151 19.0452 33.3208 19.0578C33.1264 19.0704 32.94 19.1394 32.7844 19.2565C32.6288 19.3735 32.5107 19.5335 32.4447 19.7167C32.3787 19.8999 32.3676 20.0984 32.4128 20.2878C32.458 20.4772 32.5575 20.6493 32.6991 20.783C32.8408 20.9166 33.0183 21.006 33.21 21.0402C33.4808 21.0721 33.7535 20.9985 33.9713 20.8346C34.1892 20.6707 34.3356 20.4291 34.38 20.1601Z" fill="#331910"/>
<path d="M27.38 19.7701C27.4191 19.5075 27.3792 19.2391 27.2655 18.9991C27.1518 18.7591 26.9693 18.5583 26.7413 18.4222C26.5132 18.2861 26.2499 18.2209 25.9847 18.2347C25.7195 18.2486 25.4644 18.3409 25.2517 18.5001C25.0391 18.6592 24.8786 18.8779 24.7905 19.1284C24.7024 19.3789 24.6907 19.65 24.757 19.9072C24.8232 20.1644 24.9644 20.396 25.1626 20.5728C25.3607 20.7496 25.607 20.8636 25.87 20.9001C26.2194 20.9461 26.5729 20.8537 26.855 20.6425C27.1372 20.4314 27.3256 20.1183 27.38 19.7701Z" fill="#331910"/>
<path d="M20.89 19.36C20.9392 19.1129 20.9133 18.8568 20.8156 18.6247C20.7179 18.3925 20.5528 18.1949 20.3417 18.0575C20.1306 17.9201 19.8831 17.8491 19.6313 17.8537C19.3794 17.8583 19.1348 17.9383 18.9288 18.0833C18.7229 18.2284 18.5651 18.4318 18.4759 18.6674C18.3867 18.9029 18.3702 19.1598 18.4284 19.4049C18.4867 19.6499 18.6171 19.8719 18.8027 20.0422C18.9884 20.2124 19.2208 20.3231 19.47 20.36C19.7894 20.4048 20.1139 20.3263 20.3776 20.1406C20.6413 19.9549 20.8245 19.6758 20.89 19.36Z" fill="#331910"/>
<path d="M14.32 17.0599C14.346 16.8757 14.3167 16.6879 14.2359 16.5204C14.1551 16.3529 14.0264 16.2131 13.8661 16.1187C13.7058 16.0244 13.5212 15.9797 13.3355 15.9903C13.1498 16.0009 12.9714 16.0664 12.823 16.1785C12.6745 16.2905 12.5626 16.4441 12.5015 16.6197C12.4403 16.7954 12.4327 16.9853 12.4795 17.1653C12.5263 17.3453 12.6254 17.5074 12.7643 17.631C12.9033 17.7546 13.0758 17.8343 13.26 17.8598C13.5066 17.8941 13.7568 17.829 13.9555 17.6791C14.1542 17.5291 14.2853 17.3064 14.32 17.0599Z" fill="#331910"/>
<path d="M9.48996 15.6198C9.52723 15.3588 9.45987 15.0935 9.30255 14.8819C9.14523 14.6703 8.91068 14.5294 8.64996 14.4898C8.45405 14.4601 8.25373 14.4893 8.07441 14.5736C7.8951 14.6579 7.74489 14.7936 7.64283 14.9635C7.54077 15.1333 7.49148 15.3297 7.50121 15.5276C7.51093 15.7255 7.57923 15.9161 7.69745 16.0751C7.81566 16.2341 7.97846 16.3544 8.16518 16.4208C8.3519 16.4871 8.55411 16.4965 8.74617 16.4477C8.93823 16.399 9.11146 16.2942 9.24389 16.1468C9.37632 15.9994 9.46196 15.816 9.48996 15.6198Z" fill="#331910"/>
<path d="M141.62 50.3598C141.653 50.1304 141.594 49.8972 141.455 49.7116C141.316 49.5259 141.109 49.403 140.88 49.3698C140.651 49.3367 140.417 49.396 140.232 49.5348C140.046 49.6736 139.923 49.8804 139.89 50.1098C139.857 50.3392 139.916 50.5724 140.055 50.7581C140.194 50.9437 140.401 51.0667 140.63 51.0998C140.859 51.133 141.093 51.0736 141.278 50.9349C141.464 50.7961 141.587 50.5892 141.62 50.3598Z" fill="#331910"/>
<path d="M134.64 51.36C134.662 51.2031 134.638 51.0432 134.569 50.9004C134.5 50.7576 134.391 50.6385 134.254 50.558C134.118 50.4776 133.96 50.4395 133.802 50.4486C133.644 50.4576 133.492 50.5135 133.366 50.609C133.239 50.7045 133.144 50.8354 133.092 50.985C133.04 51.1347 133.034 51.2964 133.074 51.4497C133.114 51.603 133.199 51.7409 133.317 51.846C133.436 51.9511 133.583 52.0186 133.74 52.0399C133.949 52.0658 134.16 52.0093 134.328 51.8824C134.496 51.7554 134.608 51.568 134.64 51.36Z" fill="#331910"/>
<path d="M127.5 52.6301C127.523 52.5151 127.523 52.3966 127.499 52.2818C127.475 52.167 127.427 52.0583 127.36 51.9625C127.292 51.8667 127.205 51.7857 127.105 51.7246C127.005 51.6635 126.894 51.6235 126.777 51.6071C126.661 51.5907 126.543 51.5982 126.43 51.6292C126.317 51.6602 126.211 51.7141 126.12 51.7874C126.028 51.8608 125.952 51.9521 125.897 52.0557C125.843 52.1594 125.809 52.2732 125.8 52.3901C125.783 52.6085 125.849 52.8253 125.986 52.9963C126.123 53.1673 126.32 53.2796 126.537 53.3102C126.754 53.3408 126.974 53.2875 127.153 53.1611C127.332 53.0347 127.456 52.8448 127.5 52.6301Z" fill="#331910"/>
<path d="M119.21 52.3601C119.245 52.1152 119.207 51.8653 119.1 51.6422C118.993 51.419 118.823 51.2326 118.61 51.1065C118.397 50.9804 118.151 50.9204 117.904 50.934C117.657 50.9476 117.419 51.0343 117.222 51.183C117.024 51.3317 116.875 51.5358 116.793 51.7693C116.711 52.0029 116.701 52.2555 116.763 52.495C116.825 52.7346 116.956 52.9504 117.141 53.1151C117.326 53.2798 117.555 53.3859 117.8 53.4201C118.127 53.4631 118.458 53.3762 118.721 53.178C118.985 52.9799 119.161 52.6862 119.21 52.3601Z" fill="#331910"/>
<path d="M112.24 51.6401C112.277 51.3684 112.232 51.0919 112.112 50.8455C111.991 50.5991 111.801 50.3937 111.564 50.2552C111.328 50.1168 111.055 50.0514 110.782 50.0673C110.508 50.0832 110.245 50.1797 110.026 50.3446C109.807 50.5096 109.642 50.7356 109.551 50.9943C109.46 51.253 109.448 51.5327 109.516 51.7984C109.583 52.0641 109.728 52.3038 109.932 52.4874C110.135 52.671 110.389 52.7902 110.66 52.8301C111.027 52.8788 111.398 52.7813 111.694 52.5586C111.989 52.336 112.185 52.0061 112.24 51.6401Z" fill="#331910"/>
<path d="M104.14 51.08C104.173 50.8828 104.145 50.6803 104.062 50.4986C103.978 50.317 103.842 50.1646 103.671 50.061C103.5 49.9575 103.302 49.9076 103.102 49.9178C102.903 49.928 102.711 49.9978 102.551 50.1182C102.392 50.2387 102.272 50.4042 102.207 50.5934C102.142 50.7826 102.136 50.9868 102.189 51.1797C102.241 51.3726 102.351 51.5453 102.502 51.6755C102.654 51.8057 102.841 51.8873 103.04 51.91C103.295 51.9391 103.551 51.8692 103.756 51.7147C103.96 51.5603 104.098 51.3331 104.14 51.08Z" fill="#331910"/>
<path d="M97.34 50.2098C97.3583 50.0785 97.3507 49.9448 97.3174 49.8165C97.2841 49.6881 97.2259 49.5676 97.146 49.4617C97.0662 49.3559 96.9663 49.2667 96.852 49.1995C96.7377 49.1323 96.6113 49.0882 96.48 49.0698C96.3486 49.0514 96.215 49.0591 96.0866 49.0924C95.9583 49.1256 95.8377 49.1839 95.7318 49.2637C95.626 49.3436 95.5369 49.4435 95.4696 49.5578C95.4024 49.6721 95.3583 49.7985 95.34 49.9298C95.3216 50.0611 95.3292 50.1948 95.3625 50.3232C95.3958 50.4515 95.454 50.5721 95.5338 50.6779C95.6137 50.7838 95.7136 50.8729 95.8279 50.9401C95.9422 51.0073 96.0686 51.0514 96.2 51.0698C96.3313 51.0882 96.4649 51.0806 96.5933 51.0473C96.7217 51.014 96.8422 50.9558 96.9481 50.8759C97.0539 50.7961 97.143 50.6961 97.2103 50.5818C97.2775 50.4675 97.3216 50.3411 97.34 50.2098Z" fill="#331910"/>
<path d="M90.3701 49.22C90.3996 49.0125 90.3669 48.8009 90.2762 48.612C90.1855 48.423 90.0408 48.2652 89.8604 48.1585C89.68 48.0517 89.472 48.0009 89.2628 48.0123C89.0535 48.0238 88.8523 48.097 88.6846 48.2227C88.5169 48.3485 88.3903 48.5212 88.3207 48.7189C88.2511 48.9166 88.2418 49.1305 88.2937 49.3335C88.3457 49.5366 88.4566 49.7197 88.6126 49.8596C88.7686 49.9996 88.9626 50.0902 89.1701 50.12C89.4481 50.1573 89.7297 50.0838 89.9542 49.9155C90.1786 49.7472 90.328 49.4974 90.3701 49.22Z" fill="#331910"/>
<path d="M82.35 48.2599C82.3655 48.1528 82.3597 48.0437 82.3329 47.9389C82.306 47.8341 82.2587 47.7356 82.1937 47.6491C82.1286 47.5627 82.047 47.49 81.9537 47.4352C81.8604 47.3804 81.7572 47.3446 81.65 47.3299C81.4896 47.3079 81.3263 47.3338 81.1806 47.4045C81.0349 47.4752 80.9134 47.5874 80.8314 47.727C80.7494 47.8666 80.7106 48.0274 80.7198 48.1891C80.7291 48.3507 80.786 48.506 80.8833 48.6354C80.9807 48.7648 81.1142 48.8624 81.267 48.916C81.4198 48.9696 81.585 48.9768 81.7419 48.9366C81.8987 48.8965 82.0402 48.8108 82.1484 48.6904C82.2566 48.5699 82.3268 48.4201 82.35 48.2599Z" fill="#331910"/>
<path d="M75.98 47.3601C76.024 47.0443 75.9447 46.7236 75.7585 46.4648C75.5723 46.2059 75.2935 46.0287 74.98 45.9701C74.6698 45.9492 74.3631 46.0466 74.1218 46.2426C73.8804 46.4387 73.7223 46.7189 73.6792 47.0269C73.6361 47.3348 73.7113 47.6477 73.8896 47.9024C74.0678 48.1572 74.336 48.335 74.64 48.4001C74.9532 48.427 75.2651 48.3349 75.5134 48.1422C75.7618 47.9494 75.9284 47.6702 75.98 47.3601Z" fill="#331910"/>
<path d="M69.61 45.97C69.6356 45.7863 69.6063 45.5991 69.5257 45.432C69.4451 45.2649 69.3168 45.1254 69.1571 45.031C68.9974 44.9367 68.8133 44.8917 68.6281 44.9018C68.4428 44.9118 68.2647 44.9764 68.1161 45.0875C67.9676 45.1986 67.8552 45.3512 67.7931 45.526C67.7311 45.7009 67.7222 45.8902 67.7675 46.07C67.8128 46.2499 67.9104 46.4124 68.0478 46.537C68.1853 46.6615 68.3566 46.7426 68.54 46.7701C68.7856 46.7921 69.0307 46.7226 69.2282 46.575C69.4257 46.4273 69.5617 46.2119 69.61 45.97Z" fill="#331910"/>
<path d="M62.4199 44.7298C62.4591 44.4928 62.4268 44.2496 62.3272 44.031C62.2275 43.8124 62.0651 43.6284 61.8606 43.5024C61.656 43.3765 61.4186 43.3143 61.1786 43.3237C60.9386 43.3331 60.7068 43.4138 60.5127 43.5554C60.3187 43.697 60.1712 43.8932 60.0891 44.1189C60.0069 44.3447 59.9938 44.5897 60.0514 44.823C60.109 45.0562 60.2348 45.2669 60.4126 45.4285C60.5904 45.59 60.8123 45.6949 61.0499 45.7298C61.3634 45.7734 61.6815 45.6935 61.9372 45.5069C62.1928 45.3203 62.3659 45.0417 62.4199 44.7298Z" fill="#331910"/>
<path d="M55.03 43.4401C55.0677 43.2205 55.0396 42.9947 54.9492 42.791C54.8589 42.5873 54.7103 42.4148 54.5222 42.2953C54.3341 42.1758 54.1149 42.1146 53.8921 42.1194C53.6693 42.1242 53.4529 42.1947 53.2701 42.3221C53.0873 42.4495 52.9463 42.6281 52.8647 42.8355C52.7831 43.0429 52.7647 43.2697 52.8117 43.4875C52.8587 43.7054 52.9691 43.9044 53.1289 44.0597C53.2887 44.2149 53.4909 44.3195 53.71 44.3602C53.8572 44.3875 54.0083 44.3853 54.1547 44.3537C54.301 44.3221 54.4396 44.2618 54.5624 44.1762C54.6852 44.0906 54.7898 43.9814 54.87 43.8551C54.9503 43.7287 55.0047 43.5877 55.03 43.4401Z" fill="#331910"/>
<path d="M47.71 42.13C47.7472 41.8689 47.6799 41.6037 47.5226 41.3921C47.3652 41.1804 47.1307 41.0395 46.87 41C46.6048 40.9629 46.3357 41.0326 46.1219 41.1939C45.9081 41.3552 45.7671 41.5948 45.73 41.86C45.6928 42.1252 45.7626 42.3943 45.9239 42.6081C46.0852 42.8219 46.3248 42.9629 46.59 43C46.7207 43.0168 46.8535 43.0076 46.9806 42.9729C47.1078 42.9382 47.2268 42.8787 47.3309 42.7979C47.435 42.717 47.522 42.6164 47.5871 42.5018C47.6522 42.3871 47.6939 42.2608 47.71 42.13Z" fill="#331910"/>
<path d="M39.81 40.8202C39.8416 40.6066 39.809 40.3884 39.7164 40.1934C39.6238 39.9983 39.4754 39.8352 39.29 39.7246C39.1045 39.614 38.8904 39.561 38.6748 39.5723C38.4592 39.5836 38.2518 39.6586 38.0789 39.788C37.906 39.9173 37.7754 40.095 37.7036 40.2987C37.6319 40.5023 37.6223 40.7227 37.676 40.9318C37.7296 41.1409 37.8442 41.3294 38.0052 41.4734C38.1661 41.6173 38.3662 41.7101 38.58 41.7402C38.8641 41.775 39.1506 41.6987 39.3798 41.5273C39.609 41.3559 39.7631 41.1025 39.81 40.8202Z" fill="#331910"/>
<path d="M32.2801 39.8398C32.3049 39.6604 32.2756 39.4777 32.1959 39.315C32.1163 39.1524 31.99 39.0172 31.8331 38.9268C31.6762 38.8363 31.4959 38.7948 31.3152 38.8074C31.1345 38.82 30.9617 38.8863 30.8189 38.9976C30.6761 39.109 30.5698 39.2605 30.5136 39.4326C30.4574 39.6048 30.4538 39.7898 30.5033 39.964C30.5528 40.1382 30.6532 40.2936 30.7916 40.4105C30.9299 40.5273 31.1 40.6002 31.2801 40.6198C31.515 40.6429 31.7498 40.5748 31.9359 40.4296C32.1221 40.2845 32.2453 40.0733 32.2801 39.8398Z" fill="#331910"/>
<path d="M24.41 38.2601C24.4366 38.0084 24.3668 37.7559 24.2147 37.5536C24.0625 37.3513 23.8392 37.2143 23.59 37.1701C23.3923 37.1351 23.1887 37.1604 23.0055 37.2427C22.8224 37.325 22.6683 37.4605 22.5633 37.6316C22.4583 37.8027 22.4072 38.0014 22.4166 38.202C22.4261 38.4025 22.4957 38.5955 22.6164 38.756C22.7371 38.9164 22.9033 39.0368 23.0933 39.1015C23.2834 39.1661 23.4885 39.1721 23.682 39.1186C23.8755 39.0651 24.0484 38.9546 24.1782 38.8015C24.3081 38.6484 24.3888 38.4598 24.41 38.2601Z" fill="#331910"/>
<path d="M17.87 36.6C17.9043 36.3533 17.8392 36.1032 17.6893 35.9045C17.5393 35.7058 17.3166 35.5747 17.07 35.54C16.8275 35.5201 16.586 35.5894 16.3909 35.7348C16.1957 35.8802 16.0603 36.0919 16.01 36.33C15.9804 36.5737 16.0473 36.8193 16.1965 37.0144C16.3456 37.2094 16.5652 37.3384 16.8081 37.3736C17.0511 37.4089 17.2983 37.3477 17.4967 37.2031C17.6952 37.0586 17.8292 36.8421 17.87 36.6Z" fill="#331910"/>
<path d="M10.42 35.59C10.4534 35.3588 10.4174 35.1228 10.3166 34.912C10.2158 34.7012 10.0546 34.5251 9.85358 34.406C9.65254 34.2869 9.42066 34.2302 9.18735 34.243C8.95403 34.2558 8.72978 34.3376 8.54301 34.4781C8.35624 34.6185 8.21537 34.8112 8.13826 35.0318C8.06114 35.2524 8.05125 35.4909 8.10984 35.7171C8.16842 35.9433 8.29285 36.147 8.46735 36.3024C8.64184 36.4578 8.85855 36.5579 9.09001 36.59C9.3984 36.6302 9.71027 36.548 9.95885 36.3611C10.2074 36.1742 10.373 35.8975 10.42 35.59Z" fill="#331910"/>
<path d="M4.99004 34.0298C5.01039 33.8879 5.00262 33.7435 4.96715 33.6047C4.93168 33.4658 4.86921 33.3354 4.78332 33.2207C4.69742 33.106 4.58978 33.0094 4.46654 32.9363C4.3433 32.8632 4.20687 32.8151 4.06504 32.7948C3.92321 32.7744 3.77877 32.7822 3.63995 32.8176C3.50112 32.8531 3.37065 32.9156 3.25597 33.0015C3.14129 33.0874 3.04465 33.195 2.97157 33.3183C2.89848 33.4415 2.85039 33.5779 2.83004 33.7197C2.78893 34.0062 2.86329 34.2972 3.03677 34.5288C3.21024 34.7604 3.46861 34.9137 3.75504 34.9548C4.04147 34.9959 4.33251 34.9215 4.56411 34.748C4.79572 34.5746 4.94893 34.3162 4.99004 34.0298Z" fill="#331910"/>
<path d="M4.16001 44.5001C4.2388 44.506 4.31799 44.4964 4.39305 44.4717C4.4681 44.447 4.53756 44.4077 4.59745 44.3562C4.65735 44.3047 4.70651 44.2418 4.74212 44.1713C4.77773 44.1008 4.7991 44.0239 4.80501 43.9451C4.81092 43.8663 4.80125 43.7871 4.77656 43.7121C4.75186 43.637 4.71263 43.5676 4.66109 43.5077C4.60956 43.4478 4.54673 43.3986 4.4762 43.363C4.40566 43.3274 4.3288 43.306 4.25001 43.3001C3.73001 43.3501 2.81001 43.0701 2.57001 43.6801C2.54444 43.7715 2.54595 43.8683 2.57435 43.9588C2.60275 44.0494 2.65683 44.1297 2.73001 44.1901C3.18104 44.3884 3.66737 44.4938 4.16001 44.5001Z" fill="#331910"/>
<path d="M0.140038 52.6001H0.0400391C0.0400391 52.9401 0.0400391 53.2701 0.0400391 53.6001C3.36004 53.7701 6.68004 53.8901 10.04 53.9901C16.79 54.4301 23.51 54.7601 30.26 55.2001C33.37 55.4101 36.44 55.7401 39.55 55.9001L40.9 55.9801C40.9 55.6001 40.9 55.2101 40.83 54.8301L37.19 54.5801C29.45 53.8701 21.79 53.5801 14.05 53.1101C9.37004 52.7701 4.71004 52.8401 0.140038 52.6001Z" fill="#331910"/>
<path d="M0.0500488 55.3598C0.0500488 55.6598 0.0500485 55.9698 0.120049 56.2698C0.120049 56.3298 0.120048 56.3998 0.170048 56.4698C1.46005 56.3898 2.75005 56.3198 4.05005 56.2798C8.28005 56.2798 12.51 56.5998 16.73 56.6298C23.09 56.9198 29.4601 56.9698 35.7901 57.6298C37.5201 57.7698 39.22 57.8598 40.92 58.0398L40.8601 56.9698C40.3101 56.8998 39.75 56.8398 39.2 56.7898C35.48 56.4798 31.77 56.0898 28.06 55.8998C22.58 55.7498 17.11 55.4598 11.63 55.3898C8.14738 55.1681 4.65468 55.1514 1.17005 55.3398L0.0500488 55.3598Z" fill="#331910"/>
<path d="M26.29 60.3001C25.4339 63.529 24.8749 66.8294 24.62 70.1601C24.49 71.3291 24.4199 72.504 24.41 73.6801C24.4347 75.6704 24.6557 77.6533 25.07 79.6001C25.1569 80.1758 25.2737 80.7466 25.42 81.3102C25.4479 81.3786 25.4712 81.4487 25.49 81.5201L25.56 81.7301C25.6397 81.9718 25.7852 82.1865 25.98 82.3501L25.93 82.4401C25.93 82.4401 25.93 82.4401 25.93 82.4901C25.8789 82.5866 25.8354 82.6869 25.8 82.7901H25.95C26.0723 82.6495 26.2025 82.5159 26.34 82.3901C26.4463 82.3448 26.5614 82.3236 26.6769 82.3282C26.7924 82.3327 26.9054 82.3629 27.0078 82.4165C27.1102 82.4701 27.1994 82.5458 27.269 82.6381C27.3385 82.7304 27.3867 82.8369 27.41 82.9501C28.83 83.0901 30.26 83.2001 31.68 83.3401C40.06 83.9902 48.57 84.6401 56.97 84.7901C58.8204 84.7654 60.667 84.9635 62.47 85.3801C65.59 86.3801 68.63 87.6801 71.72 88.7901C79.7369 91.7902 87.9494 94.2392 96.3 96.1201C104.57 97.8501 112.91 99.3001 121.3 100.39C127.99 101.14 134.73 101.57 141.46 101.83C144.73 101.91 148.01 101.76 151.28 101.83C154.55 101.9 158.02 102.01 161.39 101.74C162.98 101.62 164.57 101.42 166.15 101.18L166.59 100.97L166.75 100.88L166.9 100.8H166.96L167.08 100.72L167.23 100.61H167.29L167.36 100.56L167.47 100.47L167.58 100.37L167.7 100.25L167.81 100.14L167.93 100C167.972 99.958 168.009 99.911 168.04 99.8601L168.15 99.7101L168.26 99.5602C168.289 99.5275 168.313 99.4903 168.33 99.4501C168.377 99.3846 168.418 99.3142 168.45 99.2401L168.54 99.0801C168.638 98.8809 168.718 98.6734 168.78 98.4601C169.188 97.0343 169.293 95.5391 169.09 94.0701C168.936 92.7535 168.685 91.4501 168.34 90.1701C168.005 89.0547 167.598 87.9624 167.12 86.9001C165.99 84.1801 164.8 83.1501 162.53 81.4101C160.99 80.169 159.312 79.1087 157.53 78.2502C156.221 77.5937 154.864 77.0387 153.47 76.5901C150.17 75.5901 146.82 74.7501 143.47 73.9901C141.77 73.6101 140.05 73.2501 138.37 72.7701C136.92 72.3576 135.509 71.8223 134.15 71.1701C132.193 70.1297 130.294 68.9847 128.46 67.7401C126.037 66.2155 123.74 64.5001 121.59 62.6101C119.87 61.0001 118.11 59.4201 116.46 57.7401C114.67 55.7901 112.94 53.8201 111.34 51.7401L110.82 51.2802L110.43 50.9001L110.17 50.6401C110.078 50.5448 109.991 50.4447 109.91 50.3401L109.56 49.9401C109.48 49.8501 109.42 49.7501 109.35 49.6601L109.11 49.3601L108.56 48.5701C108.023 47.743 107.536 46.8849 107.1 46.0002C106.158 44.637 105.115 43.3467 103.98 42.1401H103.82H103.05H101.18H99.91H99.32H98.7H98.52L97.2 42.2701C96.98 42.2701 96.76 42.2701 96.55 42.3501L95.9 42.4401C95.11 42.5601 94.32 42.7001 93.53 42.8401C92.74 42.9801 91.86 43.1301 91.03 43.2901C90.62 43.3601 90.21 43.4301 89.81 43.5201L88.46 43.7901L87.18 44.1001L86.18 44.3601L85.09 44.6701L83.89 45.0302L82.6 45.4401L81.38 45.8601L80.64 46.1301C79.84 46.4201 79.05 46.7301 78.26 47.0501C77.85 47.2101 77.45 47.3901 77.05 47.5701L76.62 47.7701L76.03 48.0501L74.54 48.8201L73.17 49.5501L70.98 50.7101L70.7 50.8601C70.7597 51.2076 70.7998 51.5581 70.82 51.9101C70.9161 52.588 70.8262 53.2793 70.56 53.9101C70.5753 53.9367 70.5849 53.9662 70.5881 53.9967C70.5913 54.0272 70.5881 54.0581 70.5787 54.0873C70.5692 54.1165 70.5538 54.1434 70.5334 54.1663C70.513 54.1891 70.488 54.2075 70.46 54.2201C70.29 54.3001 70.1 54.3501 69.92 54.4201L69.37 54.5901L69.08 54.6501L68.8 54.7201L68.21 54.8301L67.8 54.8901C67.7235 54.8957 67.6466 54.8957 67.57 54.8901L66.97 54.9401H66.17H63.9H62.52C61.42 54.9401 60.32 54.8801 59.23 54.8201H58.55L55.22 54.6401C54.22 54.5901 53.16 54.5401 52.13 54.4501C51.1 54.3601 49.94 54.2701 48.84 54.1501L47.43 53.9801H47.31L45.55 53.7201C44.49 53.5501 43.44 53.3301 42.39 53.1201L40.86 52.7701L39.37 52.4101L37.67 51.9601L36.99 51.7701L36.26 51.5501L35.4 51.2701L34.54 50.9601L33.84 50.6901L33.18 50.4201C32.93 50.3101 32.67 50.2101 32.43 50.0901L31.94 49.8601L31.62 49.7101L30.86 49.3102C30.65 49.2102 30.45 49.0901 30.25 48.9701C29.71 50.1101 29.2 51.3601 28.71 52.6601C27.79 55.1801 27.05 57.7301 26.29 60.3001Z" fill="#442519"/>
<path d="M25.42 81.3599C25.4479 81.4283 25.4712 81.4984 25.49 81.5699L25.56 81.7799C25.6397 82.0215 25.7852 82.2362 25.98 82.3999L25.93 82.4899C25.93 82.4899 25.93 82.4899 25.93 82.5399C25.8789 82.6363 25.8354 82.7366 25.8 82.8399H25.95C26.0723 82.6992 26.2025 82.5656 26.34 82.4398C26.4463 82.3945 26.5614 82.3734 26.6769 82.3779C26.7924 82.3825 26.9054 82.4127 27.0078 82.4662C27.1102 82.5198 27.1994 82.5955 27.269 82.6878C27.3385 82.7801 27.3867 82.8867 27.41 82.9999C28.83 83.1399 30.26 83.2499 31.68 83.3899C40.06 84.0399 48.57 84.6899 56.97 84.8399C58.8204 84.8151 60.667 85.0132 62.47 85.4299C65.59 86.4299 68.63 87.7299 71.72 88.8399C79.737 91.8399 87.9494 94.289 96.3 96.1699C104.57 97.8999 112.91 99.3498 121.3 100.44C127.99 101.19 134.73 101.62 141.46 101.88C144.73 101.96 148.01 101.81 151.28 101.88C154.55 101.95 158.02 102.06 161.39 101.79C162.98 101.67 164.57 101.47 166.15 101.23L166.59 101.02L166.75 100.93L166.9 100.85H166.96L167.08 100.77L167.23 100.66L167.36 100.56L167.47 100.47L167.58 100.37L167.7 100.25L167.81 100.14L167.93 99.9999C167.972 99.9577 168.009 99.9107 168.04 99.8599L168.15 99.7099C168.191 99.6634 168.228 99.6132 168.26 99.5599C168.289 99.5272 168.313 99.49 168.33 99.4499C168.377 99.3844 168.418 99.314 168.45 99.2399L168.54 99.0799L167.54 99.2399C162.478 100.152 157.328 100.488 152.19 100.24C148.75 100.17 145.32 100.29 141.88 100.24C138.01 100.14 134.14 99.8899 130.28 99.5999C123.545 99.1521 116.841 98.3208 110.2 97.1099C103.55 95.9599 96.88 94.7999 90.35 93.0099C86.22 91.8899 82.11 90.6899 78.05 89.3399C73.26 87.7099 68.56 85.7999 63.81 84.0499C61.6189 83.3284 59.3269 82.9605 57.02 82.9599C54.73 82.8199 52.45 82.7499 50.17 82.6699C42.01 81.9999 33.71 81.7199 25.42 81.3599Z" fill="#331910"/>
<path d="M24.65 85.3598C23.5413 88.4098 23.1545 91.6752 23.52 94.8998C23.5828 95.1453 23.6197 95.3967 23.63 95.6498C23.6405 95.843 23.6405 96.0366 23.63 96.2298C23.6349 96.2696 23.6349 96.3099 23.63 96.3498C23.63 96.6498 23.63 96.9698 23.63 97.2898H23.86H24.01L24.42 97.3498H24.64H24.94H25.07H25.31H25.42H25.63H25.79H25.9H26.24H26.46C35.6195 98.4347 44.8365 98.9624 54.06 98.9298C56.06 98.9298 58.06 98.8698 60.01 98.8298H61.7H62.7H64.34C64.34 98.1898 64.34 97.5398 64.26 96.8998C64.2553 96.8332 64.2553 96.7664 64.26 96.6998C64.18 94.8498 64.08 92.9998 63.94 91.1598C66.61 92.3798 69.29 93.6098 71.94 94.8098C74.59 96.0098 77.26 97.0298 79.94 98.0498C81.6043 98.6884 83.2997 99.2425 85.02 99.7098C88.2748 100.465 91.5656 101.056 94.88 101.48L97.39 101.81C103.47 102.684 109.598 103.185 115.74 103.31C119.03 103.31 122.32 103.25 125.6 103.43C131.6 103.71 137.6 103.99 143.55 104.15C146.43 104.15 149.32 104.04 152.19 103.86C156.88 103.49 161.71 102.97 165.99 100.86C164.41 101.1 162.82 101.3 161.23 101.42C157.86 101.69 154.49 101.57 151.12 101.51C147.75 101.45 144.57 101.6 141.3 101.51C134.57 101.25 127.83 100.82 121.14 100.07C112.75 98.9798 104.41 97.5298 96.14 95.7998C87.8481 94.0202 79.6861 91.6815 71.71 88.7998C68.62 87.6898 65.58 86.4098 62.46 85.3898C60.657 84.9732 58.8104 84.7751 56.96 84.7998C48.56 84.6498 40.05 83.9998 31.67 83.3498C30.25 83.2098 28.82 83.0998 27.4 82.9598C27.3827 82.8405 27.3379 82.7268 27.2692 82.6277C27.2006 82.5287 27.1099 82.4468 27.0042 82.3887C26.8986 82.3305 26.781 82.2977 26.6605 82.2927C26.5401 82.2877 26.4201 82.3106 26.31 82.3598C26.1725 82.4856 26.0423 82.6191 25.92 82.7598H25.77C25.77 82.8998 25.67 83.0498 25.62 83.2198C25.2602 83.916 24.9364 84.6303 24.65 85.3598Z" fill="#442519"/>
<path d="M47.64 63.6501C55.84 64.0201 65.29 63.4401 71.54 57.5001C72.13 56.7101 73.6 55.5501 72.54 54.6001C72.4363 54.5128 72.316 54.4476 72.1863 54.4083C72.0567 54.3689 71.9204 54.3564 71.7857 54.3714C71.651 54.3863 71.5208 54.4285 71.4029 54.4953C71.2851 54.5621 71.182 54.6522 71.1 54.7601C69.8524 56.3268 68.2615 57.5859 66.45 58.4401C62.0367 60.4817 57.2422 61.5687 52.38 61.6301C50.85 61.7001 49.32 61.7601 47.79 61.7101C46.05 61.6201 44.33 61.2901 42.6 61.0401C40.2845 60.7575 37.9966 60.2826 35.76 59.6201C33.6574 59.0288 31.6125 58.2489 29.65 57.2901C29.5254 57.2132 29.3753 57.1889 29.2327 57.2227C29.0902 57.2565 28.9669 57.3454 28.89 57.4701C28.8131 57.5947 28.7889 57.7448 28.8226 57.8874C28.8564 58.0299 28.9454 58.1532 29.07 58.2301C30.6373 59.0996 32.2767 59.8323 33.97 60.4201C38.3885 62.0148 42.975 63.0985 47.64 63.6501Z" fill="#331910"/>
<path d="M118.51 85.71C127.771 87.1027 137.102 87.9874 146.46 88.36C150.61 88.42 154.75 88.06 158.89 87.79C160.287 87.6782 161.677 87.4812 163.05 87.2C163.55 87.06 164.65 87.04 164.34 86.26C164.281 86.1597 164.187 86.0848 164.077 86.0497C163.966 86.0147 163.846 86.0219 163.74 86.07C159.95 87.02 155.99 86.98 152.11 87.2C147.355 87.3534 142.596 87.2064 137.86 86.76C131.98 86.16 126.1 85.56 120.25 84.76C115.63 84.17 111.05 83.31 106.43 82.76C96.09 81.46 85.86 79.47 75.54 78.03C68.23 77.03 60.99 75.53 53.74 74.13C48.05 72.91 42.34 71.88 36.74 70.55C33.8859 70.006 31.0648 69.3016 28.29 68.44C27.86 68.29 27.46 68.1 27.04 67.95C26.9084 67.9116 26.7679 67.9172 26.6398 67.9659C26.5116 68.0147 26.4029 68.1039 26.33 68.22C25.9 69.13 27.23 69.4 27.83 69.68C30.0739 70.4553 32.374 71.0571 34.71 71.48C37.55 72.1 40.37 72.78 43.22 73.32C54.95 75.6 66.65 78.07 78.51 79.57C86.01 80.66 93.45 82.1 100.95 83.13C106.84 83.94 112.71 84.78 118.51 85.71Z" fill="#331910"/>
<path d="M133.63 83.8299C133.762 83.7946 133.875 83.7087 133.944 83.5908C134.014 83.4729 134.034 83.3325 134 83.1999C133.59 81.8699 133.13 80.5399 132.65 79.1999C131.797 76.6484 130.482 74.2756 128.77 72.1999C125.483 68.6871 121.716 65.6571 117.58 63.1999C109.773 57.8201 101.64 52.9275 93.23 48.5499C91.18 47.4499 89.04 46.5499 86.94 45.5499C86.42 45.3499 86.05 44.8899 85.52 44.8799C85.4374 44.8885 85.3574 44.9136 85.2847 44.9538C85.212 44.9939 85.1481 45.0482 85.0968 45.1135C85.0455 45.1788 85.0079 45.2537 84.9861 45.3338C84.9643 45.4139 84.9588 45.4976 84.97 45.5799C85.23 46.5799 87.97 47.4299 88.84 47.9399C90.62 48.7799 92.37 49.7299 94.12 50.6299C101.298 54.4578 108.274 58.6533 115.02 63.1999C118.797 65.4974 122.373 68.11 125.71 71.0099C128.62 73.5565 130.78 76.8477 131.96 80.5299C132.33 81.5299 132.69 82.5299 133.03 83.5299C133.08 83.6414 133.167 83.7322 133.276 83.7869C133.386 83.8416 133.511 83.8568 133.63 83.8299Z" fill="#331910"/>
<path d="M105.49 80.8498C105.56 80.8223 105.623 80.7813 105.677 80.7292C105.731 80.6771 105.774 80.6149 105.803 80.5461C105.833 80.4774 105.849 80.4035 105.85 80.3287C105.851 80.2538 105.838 80.1795 105.81 80.1099C105.518 79.4633 105.163 78.8471 104.75 78.2699C101.75 74.3999 97.62 71.6198 93.75 68.6598C89.29 65.3298 84.93 61.8198 80.4 58.6598C77.4 56.5398 74.5 54.5099 71.67 52.2399C71.5952 52.1021 71.4739 51.9954 71.3277 51.9389C71.1815 51.8824 71.02 51.8798 70.872 51.9315C70.724 51.9832 70.5993 52.0859 70.5202 52.2212C70.441 52.3565 70.4126 52.5155 70.44 52.6699C70.4747 52.8119 70.56 52.9363 70.68 53.0199C71.15 53.4599 71.68 53.8799 72.15 54.2699C76.09 57.3799 80.23 60.2699 84.23 63.2699C88.64 66.6999 93.23 69.9099 97.65 73.2699C99.7544 74.7986 101.686 76.5523 103.41 78.4999C103.941 79.1534 104.391 79.8685 104.75 80.6298C104.822 80.7545 104.938 80.8468 105.076 80.8877C105.214 80.9287 105.362 80.9151 105.49 80.8498Z" fill="#331910"/>
<path d="M88.71 59.24C89.45 59.1 89.79 58.29 90.3 57.83C91.5187 56.4903 92.8576 55.2651 94.3 54.17C98.19 51.33 103.97 48.54 108.78 48.06C109.23 48.11 109.78 47.87 109.67 47.35C109.52 46.57 108.56 46.81 107.99 46.75C103.36 46.97 98.06 49.66 94.19 52.14C91.8422 53.7009 89.6814 55.5261 87.75 57.58C87.6017 57.7365 87.508 57.9368 87.4828 58.151C87.4576 58.3651 87.5023 58.5817 87.6103 58.7684C87.7182 58.9551 87.8837 59.1018 88.0818 59.1868C88.28 59.2718 88.5004 59.2905 88.71 59.24Z" fill="#5A3524"/>
<path d="M96.65 63.9099C100.32 59.5499 103.88 56.0499 109.17 53.6999C110.41 52.8799 112.26 52.6999 113.11 51.3899C113.33 50.6199 112.46 50.1499 111.81 50.4499C107.903 51.4409 104.21 53.1352 100.91 55.4499C99.4553 56.5996 98.1398 57.9152 96.99 59.3699C96.23 60.6299 93.47 62.5299 94.99 64.0099C95.2325 64.1956 95.5338 64.2877 95.8387 64.2694C96.1436 64.251 96.4316 64.1234 96.65 63.9099Z" fill="#5A3524"/>
<path d="M105.06 68.06C107.36 62.92 111.9 59.19 116.93 56.85C117.378 56.6303 117.839 56.4367 118.31 56.27C118.388 56.2357 118.455 56.1822 118.507 56.1146C118.558 56.0469 118.591 55.9673 118.603 55.8833C118.615 55.7993 118.605 55.7136 118.575 55.6343C118.545 55.555 118.495 55.4847 118.43 55.43C118.28 55.3445 118.113 55.2907 117.941 55.2718C117.769 55.2529 117.595 55.2693 117.43 55.32C116.748 55.4348 116.079 55.6122 115.43 55.85C112.048 57.035 108.99 58.9937 106.5 61.57C105.269 62.866 104.204 64.3105 103.33 65.87C102.78 66.72 102.18 67.76 103.26 68.48C103.404 68.5771 103.566 68.6435 103.737 68.675C103.907 68.7065 104.083 68.7024 104.252 68.663C104.421 68.6236 104.58 68.5496 104.719 68.4459C104.858 68.3421 104.974 68.2108 105.06 68.06Z" fill="#5A3524"/>
<path d="M112.11 72.4199C112.871 70.6808 113.739 68.9908 114.71 67.3599C116.422 65.1277 118.355 63.0739 120.48 61.2299C120.753 60.9918 121.044 60.7745 121.35 60.5799C121.51 60.5177 121.644 60.4017 121.728 60.2516C121.812 60.1015 121.842 59.9267 121.811 59.7575C121.78 59.5882 121.691 59.435 121.56 59.3241C121.428 59.2132 121.262 59.1516 121.09 59.1499C120.322 59.2944 119.595 59.605 118.96 60.0599C116.198 61.6727 113.757 63.7813 111.76 66.2799C110.697 67.7839 109.858 69.4345 109.27 71.1799C109.159 71.5457 109.186 71.9397 109.346 72.2869C109.506 72.6342 109.788 72.9106 110.138 73.0636C110.489 73.2166 110.883 73.2355 111.247 73.1169C111.61 72.9982 111.917 72.7502 112.11 72.4199Z" fill="#5A3524"/>
<path d="M118.71 78.7298C118.909 78.6135 119.083 78.4592 119.222 78.2756C119.361 78.0919 119.462 77.8827 119.52 77.6598C119.838 76.827 120.202 76.0124 120.61 75.2198C122.36 71.6198 124.33 68.0298 127.33 65.3198C127.419 65.2475 127.513 65.1807 127.61 65.1198C127.752 65.0381 127.859 64.908 127.913 64.7534C127.967 64.5988 127.963 64.43 127.902 64.278C127.841 64.1261 127.728 64.0011 127.582 63.9262C127.437 63.8512 127.269 63.8312 127.11 63.8698C126.382 64.1662 125.707 64.5781 125.11 65.0898C122.027 67.4885 119.416 70.4384 117.41 73.7898C116.94 74.7671 116.568 75.7889 116.3 76.8398C116.213 77.1554 116.221 77.4896 116.324 77.8004C116.426 78.1113 116.618 78.3849 116.876 78.5869C117.134 78.7888 117.445 78.9102 117.771 78.9356C118.098 78.961 118.424 78.8894 118.71 78.7298Z" fill="#5A3524"/>
<path d="M124.6 79.4999C127.53 76.2699 130.24 72.8399 133.25 69.6699C133.67 69.1799 134.53 68.6699 134.03 67.9599C133.963 67.8693 133.878 67.7942 133.78 67.7396C133.682 67.6851 133.573 67.6524 133.461 67.6439C133.349 67.6353 133.236 67.6511 133.131 67.6901C133.025 67.7291 132.929 67.7904 132.85 67.8699C131.85 68.8099 130.85 69.7699 129.79 70.6799C127.33 72.9799 124.51 74.8499 122.34 77.4199C122.099 77.7246 121.982 78.1092 122.012 78.4966C122.043 78.8841 122.219 79.2456 122.505 79.5088C122.791 79.772 123.165 79.9173 123.554 79.9156C123.943 79.914 124.316 79.7655 124.6 79.4999Z" fill="#5A3524"/>
<path d="M112.24 40.9802C110.15 41.7245 108.401 43.2029 107.32 45.1402C109.379 44.3423 111.111 42.8777 112.24 40.9802ZM102.1 47.5702C98.6601 46.8702 94.5401 45.5702 91.1001 46.7302C91.8501 47.8402 93.5501 48.0102 94.7701 48.2202C97.2325 48.4717 99.7203 48.2511 102.1 47.5702ZM141.99 60.8502C141.389 60.3268 140.758 59.8393 140.1 59.3902C138.479 58.2256 136.781 57.1699 135.02 56.2302C129.49 53.4102 123.15 53.6302 117.17 52.6302C113.41 52.1002 110.08 50.1902 106.59 48.8402C105.2 48.2302 103.79 48.8402 102.41 49.2302C99.4416 50.0421 96.3228 50.1381 93.3101 49.5102C89.0601 48.7902 87.6801 45.0802 92.8301 44.4502C95.475 44.1642 98.1492 44.3265 100.74 44.9302C102.146 45.2912 103.582 45.5188 105.03 45.6102C105.953 43.1929 107.611 41.126 109.77 39.7002C110.628 39.0721 111.657 38.723 112.72 38.7002C113.231 38.7283 113.712 38.9514 114.064 39.3235C114.415 39.6956 114.611 40.1883 114.61 40.7002C114.41 43.5802 110.46 46.5602 107.91 47.4202C110.8 48.5302 113.59 49.9702 116.64 50.6102C122.97 51.8002 129.71 51.6102 135.56 54.6102C137.343 55.5419 139.039 56.6295 140.63 57.8602C141.476 58.482 142.287 59.1497 143.06 59.8602C143.126 59.9305 143.177 60.013 143.211 60.103C143.244 60.193 143.26 60.2888 143.257 60.3849C143.254 60.4811 143.232 60.5756 143.192 60.6631C143.152 60.7507 143.095 60.8295 143.025 60.8952C142.955 60.9609 142.872 61.012 142.782 61.0458C142.692 61.0796 142.596 61.0953 142.5 61.092C142.404 61.0888 142.31 61.0667 142.222 61.0269C142.135 60.9871 142.056 60.9305 141.99 60.8602V60.8502Z" fill="#5A3524"/>
<path d="M136.08 66.03C136.233 65.8716 136.318 65.6601 136.318 65.44C136.318 65.2199 136.233 65.0084 136.08 64.85C135.52 64.2 134.91 63.59 134.3 62.98C131.038 59.4859 126.853 56.9863 122.23 55.77C117.77 54.43 112.91 53.48 109.29 50.34C108.65 49.8 108.05 49.23 107.46 48.63C106.91 48.21 106.46 46.91 105.64 47.55C105.53 47.6546 105.462 47.7967 105.451 47.9484C105.44 48.1001 105.486 48.2505 105.58 48.37C106.795 50.0579 108.262 51.5487 109.93 52.79C115 56.43 121.54 56.72 126.93 59.67C129.174 60.8658 131.232 62.3817 133.04 64.17C133.67 64.76 134.3 65.35 134.87 66C134.947 66.0822 135.04 66.1481 135.142 66.1941C135.245 66.2402 135.356 66.2653 135.469 66.2681C135.581 66.2709 135.693 66.2513 135.798 66.2104C135.903 66.1695 135.999 66.1082 136.08 66.03Z" fill="#5A3524"/>
<path d="M63.6401 57.8302C63.6658 57.658 63.64 57.4821 63.5658 57.3246C63.4916 57.1672 63.3723 57.0353 63.2231 56.9456C63.0739 56.8559 62.9015 56.8125 62.7276 56.8208C62.5537 56.8292 62.3862 56.8889 62.2463 56.9924C62.1064 57.096 62.0003 57.2387 61.9415 57.4026C61.8827 57.5664 61.8738 57.744 61.916 57.9129C61.9581 58.0818 62.0494 58.2344 62.1783 58.3514C62.3072 58.4684 62.4679 58.5445 62.6401 58.5702C62.8704 58.6019 63.1039 58.5422 63.2908 58.4039C63.4777 58.2656 63.603 58.0597 63.6401 57.8302Z" fill="#331910"/>
<path d="M57.78 58.8501C57.8004 58.6564 57.7638 58.4611 57.6746 58.2879C57.5855 58.1148 57.4478 57.9714 57.2783 57.8755C57.1089 57.7795 56.9151 57.7351 56.7208 57.7477C56.5265 57.7603 56.3401 57.8294 56.1844 57.9464C56.0288 58.0635 55.9107 58.2234 55.8447 58.4066C55.7787 58.5898 55.7676 58.7883 55.8128 58.9777C55.858 59.1671 55.9575 59.3392 56.0992 59.4729C56.2408 59.6065 56.4183 59.6959 56.6101 59.7301C56.7453 59.7542 56.884 59.7502 57.0176 59.7183C57.1512 59.6864 57.2768 59.6274 57.3866 59.5448C57.4964 59.4622 57.588 59.3579 57.6557 59.2384C57.7234 59.1189 57.7657 58.9867 57.78 58.8501Z" fill="#331910"/>
<path d="M50.78 58.4601C50.8191 58.1974 50.7793 57.929 50.6656 57.689C50.5518 57.449 50.3694 57.2483 50.1413 57.1122C49.9133 56.9761 49.6499 56.9108 49.3847 56.9247C49.1195 56.9385 48.8644 57.0309 48.6518 57.19C48.4391 57.3491 48.2786 57.5678 48.1905 57.8184C48.1024 58.0689 48.0907 58.34 48.157 58.5971C48.2232 58.8543 48.3644 59.086 48.5626 59.2628C48.7608 59.4396 49.007 59.5535 49.27 59.5901C49.6194 59.6361 49.9729 59.5436 50.2551 59.3325C50.5372 59.1213 50.7256 58.8082 50.78 58.4601Z" fill="#331910"/>
<path d="M44.2901 58.0002C44.3253 57.7532 44.2865 57.5014 44.1785 57.2765C44.0705 57.0517 43.8982 56.8639 43.6834 56.7371C43.4686 56.6103 43.221 56.55 42.972 56.564C42.7229 56.578 42.4837 56.6656 42.2844 56.8157C42.0852 56.9658 41.9351 57.1717 41.8529 57.4072C41.7708 57.6428 41.7605 57.8974 41.8232 58.1388C41.8859 58.3803 42.0189 58.5976 42.2052 58.7634C42.3916 58.9292 42.623 59.036 42.8701 59.0701C43.1997 59.1131 43.533 59.0251 43.7985 58.8251C44.064 58.625 44.2405 58.3289 44.2901 58.0002Z" fill="#331910"/>
<path d="M37.71 55.7601C37.736 55.5759 37.7067 55.3882 37.6259 55.2206C37.5451 55.0531 37.4164 54.9133 37.2561 54.8189C37.0958 54.7246 36.9112 54.6799 36.7255 54.6905C36.5398 54.7011 36.3614 54.7666 36.213 54.8787C36.0645 54.9907 35.9526 55.1443 35.8915 55.32C35.8303 55.4956 35.8227 55.6854 35.8695 55.8655C35.9163 56.0455 36.0154 56.2076 36.1544 56.3312C36.2933 56.4549 36.4658 56.5345 36.65 56.5601C36.8962 56.5916 37.145 56.5256 37.343 56.376C37.5411 56.2265 37.6729 56.0054 37.71 55.7601Z" fill="#331910"/>
<path d="M32.89 54.36C32.9273 54.099 32.8599 53.8338 32.7026 53.6221C32.5453 53.4105 32.3107 53.2696 32.05 53.23C31.9193 53.2102 31.7859 53.2166 31.6576 53.2487C31.5293 53.2808 31.4086 53.338 31.3026 53.4171C31.1966 53.4961 31.1073 53.5954 31.0399 53.7092C30.9725 53.823 30.9284 53.949 30.91 54.08C30.8729 54.3452 30.9426 54.6143 31.1039 54.8281C31.2652 55.0419 31.5048 55.1829 31.77 55.22C32.0352 55.2571 32.3043 55.1874 32.5181 55.0261C32.7319 54.8648 32.8729 54.6252 32.91 54.36H32.89Z" fill="#331910"/>
<path d="M165.02 89.02C165.053 88.7906 164.994 88.5574 164.855 88.3717C164.716 88.1861 164.509 88.0631 164.28 88.03C164.051 87.9968 163.817 88.0562 163.632 88.1949C163.446 88.3337 163.323 88.5406 163.29 88.77C163.274 88.8836 163.28 88.9993 163.308 89.1105C163.336 89.2218 163.386 89.3263 163.455 89.4182C163.524 89.5102 163.61 89.5877 163.708 89.6463C163.807 89.7049 163.916 89.7436 164.03 89.76C164.144 89.7764 164.259 89.7703 164.371 89.742C164.482 89.7137 164.586 89.6637 164.678 89.595C164.77 89.5263 164.848 89.4401 164.906 89.3415C164.965 89.2428 165.004 89.1336 165.02 89.02Z" fill="#331910"/>
<path d="M158.03 90.01C158.045 89.9074 158.04 89.8028 158.015 89.7022C157.989 89.6016 157.944 89.5071 157.882 89.4242C157.819 89.3414 157.741 89.2718 157.652 89.2195C157.562 89.1673 157.463 89.1334 157.36 89.12C157.257 89.1055 157.152 89.1115 157.051 89.1376C156.95 89.1637 156.856 89.2094 156.773 89.2721C156.69 89.3348 156.62 89.4132 156.567 89.5029C156.514 89.5927 156.479 89.6919 156.465 89.795C156.451 89.8981 156.456 90.003 156.483 90.1037C156.509 90.2045 156.554 90.2992 156.617 90.3823C156.68 90.4654 156.758 90.5353 156.848 90.5881C156.938 90.6409 157.037 90.6755 157.14 90.69C157.243 90.704 157.348 90.6976 157.449 90.671C157.549 90.6444 157.644 90.5981 157.726 90.535C157.809 90.4718 157.878 90.3928 157.93 90.3027C157.983 90.2127 158.016 90.1132 158.03 90.01Z" fill="#331910"/>
<path d="M150.9 91.36C150.923 91.1928 150.896 91.0225 150.823 90.8704C150.75 90.7183 150.634 90.5911 150.489 90.5045C150.344 90.418 150.177 90.376 150.008 90.3837C149.84 90.3915 149.677 90.4487 149.541 90.5482C149.405 90.6477 149.301 90.7851 149.242 90.9433C149.183 91.1015 149.172 91.2735 149.21 91.4379C149.249 91.6022 149.334 91.7517 149.457 91.8677C149.58 91.9836 149.734 92.0609 149.9 92.09C150.129 92.1246 150.363 92.0673 150.55 91.9306C150.737 91.7939 150.863 91.5888 150.9 91.36Z" fill="#331910"/>
<path d="M142.61 91.0398C142.647 90.7948 142.611 90.5443 142.505 90.3201C142.4 90.0958 142.23 89.908 142.018 89.7804C141.805 89.6528 141.56 89.5913 141.312 89.6036C141.065 89.6159 140.826 89.7015 140.628 89.8495C140.429 89.9975 140.279 90.2013 140.196 90.4349C140.113 90.6685 140.102 90.9214 140.163 91.1615C140.225 91.4016 140.356 91.618 140.54 91.7833C140.725 91.9486 140.955 92.0553 141.2 92.0899C141.526 92.1331 141.855 92.0475 142.118 91.8514C142.382 91.6553 142.558 91.3641 142.61 91.0398Z" fill="#331910"/>
<path d="M135.64 90.36C135.684 89.994 135.584 89.6254 135.362 89.331C135.141 89.0367 134.814 88.8393 134.45 88.78C134.178 88.7434 133.902 88.7881 133.655 88.9083C133.409 89.0285 133.204 89.2189 133.065 89.4555C132.927 89.6922 132.861 89.9645 132.877 90.2382C132.893 90.5119 132.99 90.7748 133.155 90.9938C133.32 91.2128 133.546 91.3782 133.804 91.469C134.063 91.5599 134.343 91.5722 134.608 91.5045C134.874 91.4367 135.114 91.2919 135.297 91.0883C135.481 90.8846 135.6 90.6312 135.64 90.36Z" fill="#331910"/>
<path d="M127.54 89.7798C127.573 89.5825 127.546 89.38 127.462 89.1984C127.378 89.0167 127.242 88.8643 127.071 88.7608C126.9 88.6572 126.702 88.6073 126.502 88.6175C126.303 88.6277 126.111 88.6975 125.951 88.818C125.792 88.9384 125.672 89.1039 125.607 89.2931C125.543 89.4823 125.536 89.6865 125.589 89.8794C125.641 90.0723 125.751 90.245 125.902 90.3752C126.054 90.5054 126.241 90.5871 126.44 90.6098C126.695 90.6389 126.951 90.569 127.156 90.4145C127.361 90.26 127.498 90.0328 127.54 89.7798Z" fill="#331910"/>
<path d="M120.71 88.9102C120.74 88.7143 120.711 88.514 120.626 88.3347C120.542 88.1554 120.406 88.0051 120.236 87.9031C120.066 87.801 119.87 87.7517 119.672 87.7615C119.474 87.7712 119.284 87.8395 119.125 87.9577C118.966 88.0759 118.845 88.2387 118.779 88.4254C118.713 88.6121 118.703 88.8144 118.752 89.0064C118.801 89.1985 118.906 89.3717 119.053 89.5041C119.2 89.6366 119.384 89.7222 119.58 89.7502C119.841 89.7875 120.106 89.7201 120.318 89.5628C120.53 89.4055 120.67 89.1709 120.71 88.9102Z" fill="#331910"/>
<path d="M113.77 87.9099C113.799 87.7024 113.767 87.4908 113.676 87.3019C113.585 87.113 113.441 86.9551 113.26 86.8484C113.08 86.7417 112.872 86.6908 112.663 86.7023C112.453 86.7137 112.252 86.7869 112.085 86.9127C111.917 87.0384 111.79 87.2111 111.721 87.4088C111.651 87.6065 111.642 87.8204 111.694 88.0235C111.746 88.2265 111.857 88.4096 112.013 88.5496C112.169 88.6896 112.362 88.7802 112.57 88.81C112.848 88.8472 113.13 88.7738 113.354 88.6054C113.579 88.4371 113.728 88.1873 113.77 87.9099Z" fill="#331910"/>
<path d="M105.71 86.9498C105.726 86.8427 105.72 86.7336 105.693 86.6288C105.666 86.524 105.619 86.4255 105.554 86.339C105.489 86.2526 105.407 86.1799 105.314 86.1251C105.22 86.0703 105.117 86.0345 105.01 86.0198C104.794 85.9893 104.574 86.0459 104.4 86.1772C104.226 86.3085 104.11 86.5036 104.08 86.7198C104.049 86.9359 104.106 87.1554 104.237 87.3298C104.369 87.5042 104.564 87.6193 104.78 87.6498C104.887 87.6653 104.996 87.6595 105.101 87.6327C105.206 87.6058 105.304 87.5585 105.391 87.4934C105.477 87.4284 105.55 87.3468 105.605 87.2535C105.659 87.1602 105.695 87.057 105.71 86.9498Z" fill="#331910"/>
<path d="M99.3799 86.0299C99.4231 85.7888 99.3933 85.5404 99.2945 85.3163C99.1956 85.0923 99.0321 84.9028 98.8249 84.7723C98.6177 84.6418 98.3762 84.5761 98.1314 84.5836C97.8866 84.5911 97.6497 84.6715 97.4509 84.8145C97.2521 84.9576 97.1005 85.1567 97.0156 85.3864C96.9306 85.616 96.9162 85.8658 96.9741 86.1038C97.032 86.3417 97.1596 86.557 97.3406 86.722C97.5215 86.887 97.7477 86.9942 97.9899 87.0299C98.3058 87.0739 98.6264 86.9945 98.8853 86.8083C99.1441 86.6221 99.3213 86.3433 99.3799 86.0299Z" fill="#331910"/>
<path d="M93.01 84.66C93.0295 84.416 92.9588 84.1734 92.8114 83.9781C92.6639 83.7827 92.45 83.6482 92.21 83.6C92.0258 83.5741 91.8381 83.6034 91.6706 83.6842C91.503 83.765 91.3633 83.8936 91.2689 84.0539C91.1745 84.2142 91.1298 84.3989 91.1405 84.5846C91.1511 84.7703 91.2166 84.9486 91.3286 85.0971C91.4407 85.2456 91.5942 85.3574 91.7699 85.4186C91.9456 85.4797 92.1354 85.4874 92.3154 85.4406C92.4954 85.3938 92.6575 85.2946 92.7812 85.1557C92.9048 85.0167 92.9844 84.8442 93.01 84.66Z" fill="#331910"/>
<path d="M85.8199 83.4202C85.8582 83.1087 85.776 82.7944 85.5901 82.5416C85.4042 82.2887 85.1287 82.1165 84.8199 82.0602C84.5145 82.0384 84.2121 82.1332 83.9738 82.3256C83.7355 82.5179 83.579 82.7935 83.5359 83.0967C83.4927 83.3999 83.5662 83.7082 83.7414 83.9593C83.9166 84.2105 84.1805 84.3859 84.4799 84.4502C84.7926 84.4822 85.1057 84.3933 85.3549 84.2018C85.6041 84.0103 85.7705 83.7306 85.8199 83.4202Z" fill="#331910"/>
<path d="M78.43 82.1398C78.4496 81.9899 78.4392 81.8377 78.3993 81.6918C78.3595 81.546 78.291 81.4096 78.198 81.2905C78.1049 81.1714 77.9891 81.072 77.8573 80.998C77.7254 80.9241 77.5802 80.8771 77.43 80.8598C77.2094 80.8364 76.9867 80.8785 76.7898 80.9808C76.5929 81.0832 76.4305 81.2412 76.3228 81.4352C76.2152 81.6292 76.167 81.8507 76.1844 82.0719C76.2017 82.2931 76.2838 82.5043 76.4204 82.6792C76.5571 82.854 76.7421 82.9848 76.9526 83.0552C77.163 83.1256 77.3895 83.1324 77.6038 83.0749C77.8181 83.0174 78.0108 82.898 78.1577 82.7317C78.3046 82.5654 78.3994 82.3596 78.43 82.1398Z" fill="#331910"/>
<path d="M71.13 80.8202C71.1671 80.5549 71.0973 80.2858 70.9361 80.072C70.7748 79.8583 70.5352 79.7173 70.27 79.6802C70.0047 79.643 69.7356 79.7128 69.5218 79.874C69.3081 80.0353 69.1671 80.2749 69.13 80.5402C69.0929 80.8027 69.1616 81.0692 69.321 81.2812C69.4804 81.4931 69.7174 81.633 69.98 81.6702C70.1115 81.6914 70.2459 81.6861 70.3754 81.6547C70.5048 81.6233 70.6267 81.5663 70.7338 81.4871C70.8409 81.408 70.9312 81.3082 70.9992 81.1936C71.0672 81.0791 71.1117 80.9521 71.13 80.8202Z" fill="#331910"/>
<path d="M63.21 79.5101C63.2416 79.2965 63.209 79.0784 63.1164 78.8833C63.0239 78.6883 62.8754 78.5251 62.69 78.4145C62.5045 78.304 62.2904 78.251 62.0748 78.2622C61.8592 78.2735 61.6518 78.3486 61.4789 78.4779C61.306 78.6072 61.1754 78.785 61.1037 78.9886C61.0319 79.1923 61.0223 79.4126 61.076 79.6218C61.1297 79.8309 61.2442 80.0194 61.4052 80.1633C61.5662 80.3072 61.7662 80.4001 61.98 80.4301C62.2641 80.4649 62.5507 80.3887 62.7799 80.2172C63.009 80.0458 63.1632 79.7925 63.21 79.5101Z" fill="#331910"/>
<path d="M55.71 78.5398C55.7307 78.3054 55.6617 78.0718 55.5169 77.8863C55.3722 77.7007 55.1625 77.5769 54.93 77.5398C54.7506 77.515 54.5679 77.5443 54.4053 77.6239C54.2426 77.7036 54.1074 77.8299 54.017 77.9868C53.9265 78.1437 53.885 78.324 53.8976 78.5047C53.9102 78.6854 53.9765 78.8582 54.0878 79.0009C54.1992 79.1437 54.3507 79.25 54.5228 79.3063C54.695 79.3625 54.88 79.3661 55.0542 79.3166C55.2284 79.2671 55.3839 79.1667 55.5007 79.0283C55.6175 78.8899 55.6904 78.7199 55.71 78.5398Z" fill="#331910"/>
<path d="M47.81 76.9499C47.8366 76.6981 47.7668 76.4456 47.6146 76.2433C47.4625 76.0411 47.2392 75.904 46.99 75.8599C46.7725 75.8876 46.5702 75.986 46.4142 76.1399C46.2581 76.2939 46.157 76.4948 46.1263 76.7119C46.0956 76.9289 46.1371 77.15 46.2444 77.3412C46.3516 77.5323 46.5187 77.683 46.72 77.7699C46.9717 77.7965 47.2242 77.7267 47.4265 77.5746C47.6288 77.4224 47.7658 77.1991 47.81 76.9499Z" fill="#331910"/>
<path d="M41.27 75.2898C41.2959 75.1057 41.2666 74.9179 41.1858 74.7504C41.105 74.5829 40.9763 74.4431 40.8161 74.3487C40.6558 74.2544 40.4711 74.2097 40.2854 74.2203C40.0997 74.2309 39.9214 74.2964 39.7729 74.4085C39.6244 74.5205 39.5126 74.6741 39.4514 74.8497C39.3903 75.0254 39.3826 75.2152 39.4294 75.3952C39.4762 75.5753 39.5753 75.7374 39.7143 75.861C39.8532 75.9846 40.0258 76.0643 40.21 76.0899C40.4562 76.1214 40.7049 76.0553 40.903 75.9058C41.1011 75.7563 41.2328 75.5352 41.27 75.2898Z" fill="#331910"/>
<path d="M33.82 74.2902C33.8535 74.0589 33.8175 73.823 33.7166 73.6122C33.6158 73.4014 33.4546 73.2253 33.2536 73.1062C33.0526 72.9871 32.8207 72.9304 32.5874 72.9432C32.3541 72.956 32.1298 73.0378 31.943 73.1783C31.7563 73.3187 31.6154 73.5114 31.5383 73.732C31.4612 73.9526 31.4513 74.191 31.5099 74.4172C31.5684 74.6435 31.6929 74.8472 31.8674 75.0026C32.0419 75.158 32.2586 75.2581 32.49 75.2902C32.7984 75.3304 33.1103 75.2482 33.3589 75.0613C33.6075 74.8744 33.773 74.5976 33.82 74.2902Z" fill="#331910"/>
<path d="M28.39 72.72C28.4196 72.5065 28.3852 72.289 28.2912 72.0951C28.1972 71.9011 28.0478 71.7394 27.8619 71.6303C27.676 71.5212 27.4619 71.4697 27.2467 71.4823C27.0315 71.4949 26.8249 71.571 26.6529 71.701C26.481 71.831 26.3515 72.0091 26.2807 72.2127C26.21 72.4163 26.2012 72.6363 26.2555 72.8449C26.3097 73.0535 26.4246 73.2413 26.5856 73.3846C26.7467 73.528 26.9465 73.6203 27.16 73.6501C27.446 73.6872 27.7352 73.6106 27.9653 73.4366C28.1953 73.2627 28.3479 73.0053 28.39 72.72Z" fill="#331910"/>
<path d="M27.56 83.1901C27.6428 83.2052 27.7277 83.2028 27.8095 83.1829C27.8912 83.163 27.9678 83.1262 28.0344 83.0748C28.1009 83.0234 28.1559 82.9586 28.1959 82.8846C28.2358 82.8106 28.2597 82.729 28.266 82.6451C28.2723 82.5613 28.261 82.477 28.2327 82.3978C28.2043 82.3186 28.1597 82.2463 28.1016 82.1855C28.0435 82.1247 27.9733 82.0767 27.8955 82.0448C27.8177 82.0129 27.7341 81.9977 27.65 82.0002C27.13 82.0002 26.21 81.7602 25.97 82.3702C25.9445 82.4615 25.946 82.5583 25.9744 82.6489C26.0028 82.7394 26.0568 82.8197 26.13 82.8801C26.5811 83.0784 27.0674 83.1838 27.56 83.1901Z" fill="#331910"/>
<path d="M23.5399 91.2998H23.4399C23.4399 91.6398 23.4399 91.9798 23.4399 92.2998C26.7733 92.4731 30.1066 92.6065 33.4399 92.6998C40.1899 93.1398 46.9099 93.4598 53.6599 93.8998C56.7699 94.1098 59.8399 94.4498 62.9499 94.5998L64.2999 94.6898C64.2999 94.2998 64.2499 93.9198 64.2299 93.5298C63.0199 93.4398 61.7999 93.3798 60.5899 93.2798C52.8499 92.5698 45.1899 92.2798 37.4499 91.8198C32.7699 91.4598 28.1499 91.5398 23.5399 91.2998Z" fill="#331910"/>
<path d="M23.45 94.03C23.45 94.34 23.45 94.64 23.52 94.94C23.52 95 23.52 95.07 23.52 95.14C24.81 95.07 26.1 95 27.4 94.95C31.63 94.95 35.86 95.27 40.08 95.31C46.44 95.59 52.81 95.64 59.14 96.26C60.87 96.4 62.57 96.49 64.27 96.68L64.21 95.6C63.66 95.53 63.0999 95.47 62.5499 95.42C58.8299 95.12 55.1199 94.72 51.41 94.54C45.93 94.39 40.41 94.09 34.9799 94.02C31.4969 93.8083 28.0048 93.7916 24.52 93.9699L23.45 94.03Z" fill="#331910"/>
</g>
<defs>
<clipPath id="clip0_55_5590">
<rect width="169.31" height="104.45" fill="white"/>
</clipPath>
</defs>
</svg>
