<svg width="144" height="79" viewBox="0 0 144 79" fill="none" xmlns="http://www.w3.org/2000/svg">
<g clip-path="url(#clip0_55_5484)">
<path d="M89.23 59.9302C88.51 59.7502 87.8 59.5502 87.09 59.3402V59.1002C87.09 58.8802 87.09 58.6602 87.02 58.4302C86.95 58.2002 87.02 58.0102 86.94 57.8002C86.9128 57.6546 86.876 57.511 86.83 57.3702C86.7895 57.2526 86.7323 57.1414 86.66 57.0402C86.5751 56.913 86.4622 56.8069 86.33 56.7302C86.2264 56.6684 86.1101 56.6307 85.99 56.6202C85.8475 56.5984 85.7019 56.6137 85.567 56.6645C85.4322 56.7152 85.3127 56.7999 85.22 56.9102C85.0263 57.166 84.8868 57.4586 84.81 57.7702C84.7085 58.0216 84.6217 58.2787 84.55 58.5402C83.04 58.0402 81.55 57.5402 80.02 57.0402C80.02 56.9102 80.02 56.7902 80.02 56.6702C80.0215 56.3338 79.9846 55.9983 79.91 55.6702C79.8761 55.4628 79.7966 55.2656 79.6773 55.0927C79.558 54.9197 79.4018 54.7755 79.22 54.6702C79.0023 54.5802 78.7577 54.5802 78.54 54.6702C78.3592 54.7407 78.2028 54.8623 78.09 55.0202C77.9981 55.1661 77.9274 55.3243 77.88 55.4902C77.7848 55.7758 77.7047 56.0662 77.64 56.3602L76.81 56.1302L72.73 55.1302C72.7252 55.0569 72.7252 54.9834 72.73 54.9102C72.68 54.5902 72.61 54.2802 72.53 53.9702C72.4392 53.6198 72.3013 53.2834 72.12 52.9702C71.9687 52.7324 71.7386 52.5553 71.47 52.4702C71.3103 52.4299 71.1425 52.4348 70.9853 52.4842C70.8282 52.5337 70.6879 52.6257 70.58 52.7502C70.4625 52.8966 70.3649 53.0581 70.29 53.2302C70.18 53.4502 70.08 53.6702 69.98 53.8902L69.79 54.4002C68.16 53.9802 66.54 53.5502 64.92 53.0702L64.4 52.9102C64.4 52.5702 64.4 52.2302 64.35 51.9102C64.3287 51.7241 64.2919 51.5401 64.24 51.3602C64.24 51.1702 64.16 50.9702 64.11 50.7802C64.0738 50.5989 63.9925 50.4297 63.8737 50.2881C63.7548 50.1465 63.6022 50.0372 63.43 49.9702C63.3059 49.9299 63.1746 49.9172 63.0451 49.9327C62.9156 49.9482 62.791 49.9917 62.68 50.0602C62.4234 50.2226 62.2186 50.4551 62.09 50.7302C61.94 51.0102 61.83 51.3302 61.7 51.6302C61.7 51.7302 61.61 51.8302 61.56 51.9302C59.76 51.2802 57.98 50.6202 56.15 50.1402C56.08 49.9002 56 49.6702 55.91 49.4402C55.7586 49.0326 55.5388 48.6538 55.26 48.3202C55.1675 48.2028 55.0459 48.1115 54.9074 48.0554C54.7689 47.9993 54.6181 47.9803 54.47 48.0002C54.3141 48.0301 54.1711 48.1068 54.06 48.2202C53.9943 48.297 53.9373 48.3809 53.89 48.4702C53.82 48.6002 53.75 48.7302 53.69 48.8602C53.63 48.9902 53.48 49.3302 53.39 49.5702C53.04 49.5202 52.69 49.4802 52.33 49.4602C50.3278 49.389 48.3438 49.0528 46.43 48.4602C45.8764 48.4018 45.3341 48.2637 44.82 48.0502C44.3764 47.8599 43.9086 47.732 43.43 47.6702C38.2 46.1402 27.26 43.3102 25.6 37.5902C25.5443 36.386 25.7775 35.1859 26.28 34.0902L26.4 33.8002C26.4 33.7302 26.47 33.6502 26.5 33.5702L26.65 33.2502L26.73 33.0802C26.7486 33.0479 26.7653 33.0145 26.78 32.9802L26.85 32.8302C26.92 32.7102 26.98 32.5802 27.05 32.4502C27.35 32.6202 27.66 32.7702 27.97 32.9102L28.97 33.3202L29.76 33.6202C31.55 34.2902 33.39 34.8402 35.19 35.4902C38.37 36.7202 41.58 37.9302 44.86 38.8602C49.21 40.0902 53.54 41.3602 57.86 42.5102C60.32 43.0502 62.66 43.6502 64.99 44.3402L66.5 44.8102L68.71 45.5302C71.33 46.4402 73.98 47.2602 76.63 48.0502C79.06 48.7502 81.44 49.6502 83.88 50.3202C86.32 50.9902 89.1 51.3202 91.74 51.6502L93.03 51.8102L96.62 52.2302C98.62 52.4502 100.62 52.4302 102.62 52.8202C106.69 53.6102 110.77 54.3602 114.82 55.2802C116.16 55.5902 117.49 55.9602 118.82 56.2802C121.411 57.0622 124.054 57.657 126.73 58.0602C128.52 58.2302 130.31 58.2802 132.1 58.3602C133.89 58.4402 135.82 58.7802 137.7 58.7402H138.11C139.388 58.6211 140.651 58.3732 141.88 58.0002C141.882 58.0335 141.882 58.0669 141.88 58.1002L141.83 58.2002L141.77 58.3202L141.7 58.4702L141.61 58.6202C141.61 58.7002 141.52 58.7802 141.47 58.8602L141.19 59.3302L141.04 59.5602C140.219 60.8842 139.116 62.0109 137.81 62.8602C136.16 63.7602 134.21 63.8602 132.4 64.2502C130.043 64.7164 127.658 65.0238 125.26 65.1702C125.26 65.0602 125.19 64.9502 125.15 64.8502C125.07 64.6288 124.959 64.42 124.82 64.2302C124.688 64.07 124.51 63.9546 124.31 63.9002C124.094 63.8409 123.863 63.862 123.661 63.9594C123.459 64.0568 123.299 64.224 123.21 64.4302C123.123 64.603 123.052 64.7838 123 64.9702L122.92 65.2302H122.42C121.335 65.2387 120.252 65.1314 119.19 64.9102L118.19 64.7302C118.184 64.6637 118.184 64.5967 118.19 64.5302C118.12 64.2702 118.07 64.0002 118 63.7402C117.955 63.5392 117.895 63.3419 117.82 63.1502C117.775 63.0183 117.711 62.8937 117.63 62.7802C117.536 62.6598 117.421 62.5581 117.29 62.4802C117.16 62.4035 117.014 62.3574 116.863 62.3452C116.712 62.3331 116.561 62.3553 116.42 62.4102C116.222 62.49 116.052 62.6255 115.93 62.8002C115.753 63.0169 115.605 63.2555 115.49 63.5102C115.38 63.7602 115.27 64.0002 115.18 64.2602C114.34 64.1402 113.49 64.0402 112.65 63.9602L111.13 63.8002L111.04 63.4602C110.943 63.1389 110.816 62.8276 110.66 62.5302C110.529 62.2993 110.343 62.1036 110.12 61.9602C109.942 61.8452 109.73 61.7957 109.52 61.8202C109.382 61.8285 109.246 61.8624 109.12 61.9202C109.035 61.9644 108.957 62.0217 108.89 62.0902C108.745 62.2333 108.641 62.413 108.59 62.6102C108.53 62.8202 108.47 63.0202 108.39 63.2302C108.359 63.3052 108.332 63.382 108.31 63.4602C106.77 63.2702 105.23 63.0702 103.69 62.9002C103.69 62.7202 103.69 62.5302 103.64 62.3502C103.59 62.1702 103.64 61.9302 103.58 61.7302C103.56 61.5255 103.53 61.3218 103.49 61.1202C103.398 60.831 103.211 60.5811 102.96 60.4102C102.843 60.2866 102.695 60.195 102.533 60.1443C102.37 60.0935 102.197 60.0852 102.03 60.1202C101.848 60.1532 101.678 60.2363 101.54 60.3602C101.406 60.485 101.309 60.6441 101.26 60.8202L101.13 61.2102C101.05 61.4902 100.97 61.7702 100.9 62.0502C100.83 62.3302 100.83 62.3102 100.79 62.4502C98.9433 62.1235 97.0966 61.7569 95.25 61.3502C95.2555 61.2937 95.2555 61.2367 95.25 61.1802C95.25 60.9302 95.18 60.6902 95.13 60.4502C95.08 60.2102 95.06 60.1202 95.02 59.9502C94.9459 59.6589 94.8243 59.3818 94.66 59.1302C94.4795 58.8748 94.2071 58.6992 93.9 58.6402C93.6059 58.5913 93.3044 58.6595 93.06 58.8302C92.7381 59.1327 92.5358 59.5409 92.49 59.9802C92.4354 60.2108 92.3954 60.4446 92.37 60.6802L91.99 60.5902L89.23 59.9302Z" fill="#D77F37"/>
<path d="M54.35 49.5698C54.3557 49.623 54.3557 49.6766 54.35 49.7298H54.23L54.35 49.5698Z" fill="#D77F37"/>
<path d="M66.73 43.4101C66.63 43.7801 66.59 44.3401 66.44 44.7801L64.93 44.3101C62.6 43.6201 60.26 43.0201 57.81 42.4801C53.44 41.3301 49.11 40.0601 44.81 38.8301C41.53 37.9001 38.32 36.7001 35.14 35.4601C33.34 34.8101 31.5 34.2601 29.71 33.5901L28.92 33.2901L27.92 32.8801C27.61 32.7401 27.3 32.5901 27 32.4201L27.11 32.2001C28.57 29.4501 30.64 26.6001 31.51 24.3301C33 20.2301 33.25 15.7501 35.29 11.8301L35.36 11.6901L35.54 11.2501L35.72 10.8101C36.03 10.8601 36.35 10.9401 36.66 11.0201C36.7399 10.9715 36.8315 10.9458 36.925 10.9458C37.0185 10.9458 37.1101 10.9715 37.19 11.0201C37.5778 11.1378 37.9718 11.2346 38.37 11.3101C39.04 11.4501 39.72 11.5501 40.37 11.7201C41.37 11.9601 42.37 12.2701 43.37 12.6101C48.131 14.1161 52.5486 16.5457 56.37 19.7601C57.6583 20.7817 58.8745 21.891 60.01 23.0801C60.87 24.0801 61.65 25.0801 62.42 26.1701C65.79 30.6201 66.79 32.3701 66.95 38.0801C67.0837 39.8593 67.0098 41.6479 66.73 43.4101Z" fill="#727272"/>
<path d="M142.96 50.1201C143.375 52.7802 142.985 55.5035 141.84 57.9402C140.612 58.3132 139.348 58.5611 138.07 58.6801H137.66C135.78 58.6801 133.93 58.3802 132.06 58.3002C130.19 58.2202 128.48 58.1802 126.69 58.0002C122.63 57.4902 118.74 56.1002 114.77 55.1702C110.8 54.2402 106.64 53.5001 102.57 52.7101C100.57 52.3201 98.57 52.3401 96.57 52.1201L92.98 51.7002L91.6901 51.5402C91.6699 51.4513 91.6699 51.359 91.6901 51.2701C92.1972 49.9851 92.8695 48.7716 93.6901 47.6602C95.3288 45.3721 97.4014 43.4286 99.79 41.9402C100.774 41.2396 101.826 40.64 102.93 40.1501C105.059 39.2594 107.318 38.7191 109.62 38.5502C111.07 38.4102 112.68 38.4402 114.07 38.4402C115.998 38.4174 117.924 38.294 119.84 38.0702C121.295 37.912 122.711 37.4954 124.02 36.8401C124.317 36.6711 124.601 36.4806 124.87 36.2701C125.512 35.7264 126.08 35.1011 126.56 34.4102L126.91 34.5402L127.12 34.6201L127.58 34.8002C127.225 35.3543 126.831 35.8823 126.4 36.3802C126.069 36.7473 125.704 37.0821 125.31 37.3802C122.57 39.4602 118.73 39.5902 115.39 39.8502C114.29 39.8502 113.19 39.9002 112.1 39.9402C113.03 40.7402 113.87 41.6402 114.86 42.3602C116.098 43.2386 117.469 43.9137 118.92 44.3602C122.42 45.3819 126.07 45.7979 129.71 45.5901C130.952 45.4047 132.184 45.1543 133.4 44.8401C134.12 44.6701 134.85 44.5102 135.57 44.3302C136.481 44.1082 137.373 43.8173 138.24 43.4601C138.456 43.3723 138.666 43.2721 138.87 43.1602C138.95 43.2702 139.03 43.3702 139.1 43.4802L139.28 43.7202L139.43 43.9402L139.56 44.1201L139.67 44.2701C139.711 44.3407 139.758 44.4076 139.81 44.4702C140.96 46.2402 142.57 47.9101 142.96 50.1201Z" fill="#727272"/>
<path d="M138.87 43.13C138.666 43.242 138.456 43.3421 138.24 43.43C137.373 43.7858 136.48 44.0766 135.57 44.3C134.85 44.48 134.12 44.64 133.4 44.81C132.184 45.1242 130.952 45.3746 129.71 45.56C126.083 45.7632 122.448 45.3473 118.96 44.33C117.509 43.8836 116.138 43.2084 114.9 42.33C113.9 41.61 113.07 40.71 112.14 39.91C113.23 39.91 114.33 39.91 115.43 39.82C118.77 39.56 122.61 39.43 125.35 37.35C125.744 37.052 126.109 36.7171 126.44 36.35C126.871 35.8522 127.265 35.3241 127.62 34.77C128.19 34.99 128.75 35.22 129.31 35.47C131.437 36.4393 133.431 37.6796 135.24 39.16C136.612 40.3252 137.832 41.6591 138.87 43.13Z" fill="#D8D8D8"/>
<path d="M126.56 34.41C126.088 35.1067 125.526 35.7388 124.89 36.29C124.621 36.5005 124.337 36.691 124.04 36.86C122.731 37.5153 121.315 37.9318 119.86 38.09C117.944 38.3138 116.019 38.4373 114.09 38.46C112.7 38.46 111.09 38.46 109.64 38.57C107.338 38.7389 105.079 39.2792 102.95 40.17C101.846 40.6598 100.794 41.2595 99.8101 41.96C97.4215 43.4484 95.3488 45.3919 93.7101 47.68C92.8895 48.7914 92.2172 50.0049 91.7101 51.29C91.6899 51.3789 91.6899 51.4711 91.7101 51.56C89.0701 51.22 86.4401 50.83 83.8501 50.23C81.2601 49.63 79.0301 48.67 76.6001 47.96C73.9501 47.17 71.3001 46.35 68.6801 45.44L66.47 44.72C66.62 44.28 66.6601 43.72 66.7601 43.35C67.0543 41.5997 67.1449 39.8212 67.0301 38.05C66.8701 32.34 65.87 30.59 62.5 26.14C61.73 25.09 60.9501 24.03 60.0901 23.05C58.9546 21.8609 57.7383 20.7516 56.4501 19.73C52.6286 16.5156 48.2111 14.086 43.4501 12.58C42.4501 12.24 41.4501 11.93 40.4501 11.69C39.7901 11.52 39.1101 11.42 38.4501 11.28C38.0518 11.2046 37.6579 11.1078 37.2701 10.99C37.1902 10.9414 37.0985 10.9157 37.0051 10.9157C36.9116 10.9157 36.8199 10.9414 36.7401 10.99C36.4301 10.91 36.11 10.83 35.8 10.78C38.97 2.88998 41.5901 -2.11 51.4201 0.919995C51.5423 0.931268 51.6574 0.982389 51.7478 1.0655C51.8381 1.14862 51.8987 1.25911 51.9201 1.37999C53.3301 1.12999 54.0201 3.66998 54.4601 4.68998C55.7501 8.29998 56.9801 12.28 60.2001 14.69C61.4696 15.6547 62.9564 16.2934 64.5301 16.55C66.8301 16.66 68.7701 14.97 69.7901 13.03C69.9801 12.66 70.1201 12.15 70.3401 11.75C70.3119 10.2884 70.7003 8.84896 71.4601 7.59999C72.0191 6.76156 72.7982 6.09317 73.7119 5.66807C74.6255 5.24298 75.6386 5.07759 76.64 5.18998C79.5557 5.70501 82.3709 6.68055 84.98 8.08C86.5712 8.9937 88.1102 9.99525 89.5901 11.08C90.5401 11.69 91.5001 12.29 92.4401 12.91C94.2801 14.13 95.9901 15.52 97.8401 16.72C100.29 18.41 102.6 20.3 104.93 22.15C107.57 24.39 110.01 26.88 112.93 28.76C115.084 30.1454 117.393 31.2731 119.81 32.12C121.96 32.87 124.29 33.58 126.56 34.41Z" fill="#D8D8D8"/>
<path d="M85.2299 20.35C83.9299 19.62 85.0499 17.97 85.4799 17C86.7837 14.8026 88.777 13.0975 91.1499 12.15C92.0499 11.84 94.1499 11.15 94.1499 12.7C94.1082 12.8931 94.0005 13.0655 93.8454 13.1878C93.6902 13.3101 93.4974 13.3745 93.2999 13.37C92.6608 13.5179 92.0496 13.7678 91.4899 14.11C90.1821 14.998 89.0497 16.1202 88.1499 17.42C87.2899 18.31 86.8099 20.95 85.2299 20.35Z" fill="#727272"/>
<path d="M89.9599 24.85C89.6861 24.7178 89.4744 24.4841 89.3699 24.1985C89.2653 23.9129 89.2761 23.5978 89.4 23.32C90.2646 21.664 91.5 20.2301 93.0099 19.13C94.1025 18.3803 95.2685 17.7437 96.4899 17.23C97.1368 16.9021 97.8049 16.6181 98.4899 16.38C98.7379 16.2854 99.012 16.2854 99.2599 16.38C99.3761 16.4128 99.4768 16.4857 99.5443 16.5858C99.6117 16.6859 99.6415 16.8067 99.6283 16.9266C99.6151 17.0466 99.5598 17.1579 99.4722 17.241C99.3846 17.324 99.2704 17.3733 99.15 17.38C98.4772 17.6705 97.8342 18.0255 97.2299 18.44C96.0171 19.1267 94.8979 19.967 93.9 20.94C93.2933 21.6051 92.754 22.3286 92.2899 23.1C91.7599 23.84 91.2499 25.41 89.9599 24.85Z" fill="#727272"/>
<path d="M94.7 29.2499C94.404 29.1491 94.1585 28.9377 94.0149 28.6599C93.8714 28.3822 93.8409 28.0596 93.93 27.7599C94.2827 26.5742 94.9096 25.4883 95.76 24.5899C97.2155 23.1527 98.9067 21.9757 100.76 21.1099C101.33 20.8299 101.91 20.5899 102.49 20.3399C102.722 20.2157 102.978 20.144 103.24 20.1299C103.327 20.1358 103.412 20.1637 103.485 20.2108C103.559 20.258 103.619 20.3229 103.661 20.3997C103.703 20.4764 103.725 20.5625 103.725 20.6499C103.724 20.7374 103.702 20.8233 103.66 20.8999C103.589 21.02 103.485 21.1171 103.36 21.1799C102.51 21.7499 101.62 22.2699 100.8 22.8799C99.6156 23.7792 98.5593 24.8355 97.66 26.0199C97.177 26.7454 96.7395 27.5002 96.35 28.2799C96.3069 28.4528 96.2298 28.6155 96.1232 28.7583C96.0165 28.9011 95.8824 29.0212 95.7287 29.1115C95.5751 29.2018 95.4049 29.2606 95.2283 29.2843C95.0516 29.3081 94.872 29.2964 94.7 29.2499Z" fill="#727272"/>
<path d="M100.85 31.9999C100.18 29.1499 106.08 24.9999 108.51 24.4299C109.63 24.3299 109.67 26.0899 108.51 25.8799C106.445 27.0454 104.721 28.7313 103.51 30.7699C103.01 31.5599 103.34 32.9799 102.08 33.0699C101.777 33.0841 101.48 32.9807 101.251 32.7815C101.021 32.5822 100.878 32.3022 100.85 31.9999Z" fill="#727272"/>
<path d="M109.54 34.5201C109.328 34.3772 109.179 34.1589 109.124 33.9097C109.068 33.6606 109.11 33.3995 109.24 33.1801C110.046 32.056 111.109 31.1407 112.34 30.5101L114.49 29.2501C114.98 28.9217 115.526 28.6846 116.1 28.5501C116.24 28.5375 116.38 28.5781 116.491 28.6637C116.603 28.7494 116.678 28.8739 116.702 29.0125C116.726 29.1511 116.697 29.2936 116.62 29.4117C116.544 29.5299 116.426 29.6149 116.29 29.6501C115.17 30.2804 114.109 31.01 113.12 31.8301C112.502 32.3651 111.936 32.9577 111.43 33.6001C110.96 34.1601 110.39 35.0301 109.54 34.5201Z" fill="#727272"/>
<path d="M64.3 17.8502C63.59 17.5302 62.9 17.1502 62.2 16.7902C61.78 16.5202 61 16.2402 61.27 15.6202C61.3353 15.4811 61.4523 15.373 61.5961 15.3189C61.7399 15.2647 61.8992 15.2688 62.04 15.3302C63.26 15.9602 64.45 16.6602 65.72 17.1702C67.6496 17.8922 69.7697 17.924 71.72 17.2602C73.3306 16.8389 74.8426 16.1049 76.17 15.1002C77.74 13.7102 79.17 12.1702 80.68 10.7002C81.4533 9.8948 82.3272 9.19236 83.28 8.61024C83.6 8.41024 83.94 8.25022 84.28 8.06022C84.4163 7.96361 84.585 7.92415 84.75 7.95024C84.8622 7.97347 84.966 8.02687 85.0501 8.10468C85.1342 8.1825 85.1955 8.28176 85.2274 8.39182C85.2593 8.50189 85.2605 8.61856 85.231 8.72929C85.2016 8.84002 85.1424 8.94059 85.06 9.02021C84.5481 9.27729 84.0536 9.56794 83.58 9.89024C81.2 11.7102 79.5 14.2502 77.23 16.2002C75.8295 17.2913 74.1979 18.0473 72.46 18.4102C69.7567 19.1689 66.8744 18.9711 64.3 17.8502Z" fill="#727272"/>
<path d="M119.3 37.76C117.297 37.1839 115.349 36.4309 113.48 35.51C111.56 34.64 109.64 33.77 107.74 32.87C105.84 31.97 103.88 30.96 102.03 29.87C100.18 28.78 98.6 27.66 96.81 26.69C93.8165 25.0623 90.9954 23.1358 88.3899 20.94C85.6599 18.77 82.9299 16.58 80.2399 14.36C79.9399 14.12 79.67 13.82 79.35 13.61C79.2995 13.5883 79.2539 13.5568 79.2158 13.5171C79.1778 13.4775 79.1481 13.4307 79.1285 13.3794C79.1089 13.3281 79.0999 13.2734 79.1018 13.2185C79.1038 13.1637 79.1167 13.1097 79.1399 13.06C79.1815 12.9708 79.2545 12.9002 79.3449 12.8614C79.4353 12.8227 79.5368 12.8186 79.63 12.85C80 13.0385 80.3376 13.285 80.63 13.58C81.21 14.07 81.8 14.53 82.4 15C86.11 17.84 89.6099 21 93.4899 23.63C95.7099 25.1 98.0999 26.31 100.32 27.77C103.39 29.7674 106.614 31.5195 109.96 33.01C112.96 34.492 116.065 35.7521 119.25 36.78C120.35 37.04 121.46 37.25 122.56 37.5C122.93 37.57 123.47 37.59 123.4 38.11C123.33 38.63 122.58 38.41 122.17 38.34C121.17 38.13 120.25 37.99 119.3 37.75V37.76Z" fill="#727272"/>
<path d="M67.4501 78.5999C66.7101 78.5999 65.98 78.5998 65.24 78.5298L65.16 78.2999C65.09 78.0799 65.02 77.8699 64.94 77.6599C64.8738 77.4593 64.797 77.2623 64.71 77.0699C64.6555 76.9308 64.5886 76.7969 64.51 76.6699C64.4412 76.5645 64.3607 76.4672 64.27 76.3799C64.1538 76.2868 64.0217 76.2157 63.88 76.1699C63.7579 76.1453 63.6322 76.1453 63.5101 76.1699C63.3686 76.1879 63.2333 76.2389 63.1152 76.3188C62.9971 76.3987 62.8994 76.5053 62.83 76.6299C62.7083 76.9289 62.6406 77.2472 62.63 77.5699C62.5923 77.8351 62.5689 78.1021 62.5601 78.3698C60.9801 78.2398 59.39 78.0898 57.8 77.9698C57.8 77.8498 57.7401 77.7299 57.7001 77.6099C57.6216 77.2992 57.511 76.9976 57.3701 76.7098C57.2923 76.5098 57.1699 76.3302 57.0122 76.1846C56.8545 76.039 56.6657 75.9314 56.46 75.8698C56.2551 75.8256 56.041 75.8569 55.8573 75.958C55.6735 76.059 55.5325 76.2231 55.46 76.4199C55.4114 76.5831 55.3779 76.7505 55.36 76.9199C55.36 77.2199 55.36 77.5199 55.36 77.8199H54.49H50.2901C50.2678 77.7483 50.2411 77.6781 50.21 77.6099C50.0862 77.3123 49.946 77.0219 49.7901 76.7398C49.6275 76.4183 49.4148 76.1246 49.16 75.8698C48.9626 75.6708 48.6997 75.55 48.4201 75.5298C48.2551 75.5268 48.0927 75.5702 47.9512 75.6551C47.8097 75.74 47.695 75.8629 47.6201 76.0099C47.5334 76.1799 47.4727 76.3619 47.44 76.5499C47.39 76.7799 47.34 77.0199 47.3 77.2599C47.2669 77.4385 47.2436 77.6187 47.2301 77.7999C45.5501 77.7999 43.8701 77.7199 42.2301 77.6299H41.68C41.6 77.3099 41.5101 76.9799 41.4001 76.6299C41.3301 76.4599 41.2501 76.2898 41.1701 76.1198C41.0901 75.9498 41 75.7699 40.9001 75.5999C40.826 75.4315 40.7098 75.2851 40.5626 75.1747C40.4155 75.0644 40.2424 74.9938 40.0601 74.9698C39.7965 74.9549 39.5376 75.0447 39.3401 75.2198C39.131 75.4388 38.9887 75.7129 38.93 76.0099C38.84 76.3299 38.81 76.6499 38.75 77.0099C38.75 77.1099 38.75 77.2198 38.69 77.3398C36.79 77.1198 34.9001 76.8899 33.0101 76.8499C32.8901 76.6299 32.75 76.4298 32.61 76.2198C32.3677 75.8624 32.0707 75.5452 31.7301 75.2798C31.6108 75.1881 31.4699 75.1288 31.3209 75.1077C31.1719 75.0867 31.02 75.1046 30.88 75.1599C30.7333 75.2233 30.6107 75.3319 30.5301 75.4698C30.4815 75.5581 30.4445 75.6522 30.4201 75.7498C30.4201 75.8898 30.35 76.0299 30.32 76.1699C30.29 76.3099 30.23 76.6798 30.19 76.9298C29.84 76.9298 29.49 77.0099 29.13 77.0699C27.1555 77.4602 25.1376 77.5846 23.13 77.4398C22.5799 77.5245 22.0201 77.5245 21.47 77.4398C20.9921 77.3772 20.508 77.3772 20.0301 77.4398C14.5901 77.1599 3.29005 76.9498 0.350046 71.7698C0.0140108 70.6126 -0.0374431 69.3913 0.200052 68.2098C0.200052 68.1098 0.200052 67.9998 0.200052 67.8998C0.200052 67.7998 0.200052 67.7398 0.200052 67.6498C0.200052 67.5598 0.200044 67.4198 0.270044 67.3098C0.340044 67.1998 0.270044 67.1798 0.270044 67.1198C0.270044 67.1198 0.270044 67.0499 0.270044 67.0099C0.270044 66.9699 0.270044 66.8999 0.270044 66.8499C0.270044 66.7999 0.340051 66.5698 0.370051 66.4298C0.700051 66.5198 1.03005 66.5999 1.37005 66.6699L2.37005 66.8398L3.21005 66.9499C5.11005 67.1799 7.02005 67.2999 8.92005 67.5099C12.3101 67.9699 15.7001 68.4099 19.1201 68.5099C23.6301 68.6899 28.1201 68.9198 32.6501 69.0298C35.16 69.0298 37.57 69.0299 40 69.1599L41.58 69.2599C42.35 69.3199 43.1201 69.3798 43.9001 69.4598C46.66 69.7298 49.42 69.9199 52.19 70.0699C54.72 70.1899 57.1901 70.5199 59.7601 70.5999C62.3301 70.6799 65.08 70.3499 67.76 70.0699L69.0601 69.9199L72.64 69.4998C74.64 69.2498 76.58 68.7699 78.58 68.6999C82.73 68.5199 86.87 68.3099 91.02 68.2599C92.4 68.2599 93.7801 68.2599 95.1601 68.3499C97.8657 68.5066 100.579 68.4732 103.28 68.2498C105.05 67.9998 106.81 67.6298 108.56 67.2498C110.31 66.8698 112.29 66.7999 114.1 66.3199L114.49 66.2098C115.708 65.7976 116.881 65.2615 117.99 64.6099C117.99 64.6099 117.99 64.6798 117.99 64.7098V64.8299V64.9499V65.1198C117.99 65.1698 117.99 65.2299 117.99 65.2899C117.958 65.3746 117.931 65.4615 117.91 65.5499C117.85 65.7299 117.8 65.8999 117.74 66.0699C117.68 66.2399 117.67 66.2499 117.64 66.3299C117.154 67.8213 116.345 69.1872 115.27 70.3299C113.87 71.5899 112 72.1498 110.33 72.9398C108.146 73.9383 105.898 74.7902 103.6 75.4898L103.41 75.1999C103.287 75.0019 103.132 74.826 102.95 74.6798C102.784 74.5562 102.586 74.4833 102.38 74.4698C102.157 74.4755 101.943 74.5554 101.771 74.6967C101.599 74.8379 101.479 75.0326 101.43 75.2498C101.389 75.4375 101.362 75.6281 101.35 75.8199C101.35 75.9099 101.35 75.9998 101.35 76.0898L100.86 76.1999C99.8036 76.4512 98.7252 76.5986 97.64 76.6399L96.64 76.6999L96.55 76.5099C96.43 76.2699 96.31 76.0299 96.18 75.7899C96.0925 75.6012 95.9888 75.4206 95.87 75.2498C95.7965 75.1332 95.7055 75.0287 95.6001 74.9398C95.4845 74.8403 95.3476 74.7684 95.2 74.7299C95.0562 74.6854 94.9041 74.6739 94.7552 74.6964C94.6063 74.719 94.4644 74.7748 94.34 74.8599C94.1637 74.9802 94.0277 75.151 93.95 75.3499C93.8234 75.5983 93.7357 75.8648 93.6901 76.1399C93.6306 76.4066 93.5904 76.6773 93.57 76.9499C92.72 77.0399 91.87 77.1298 91.0301 77.2398L89.52 77.4398L89.3501 77.1399C89.1833 76.8487 88.989 76.5741 88.77 76.3199C88.5845 76.1296 88.3591 75.9827 88.11 75.8899C87.9093 75.8197 87.6908 75.8197 87.49 75.8899C87.3604 75.9329 87.2388 75.9971 87.1301 76.0799C87.0564 76.1436 86.9923 76.2177 86.9401 76.2999C86.8344 76.4717 86.7757 76.6682 86.77 76.8698C86.77 77.0898 86.7701 77.3098 86.7201 77.5298V77.7698C85.1801 77.9398 83.6401 78.1099 82.1001 78.2999L81.92 77.7698C81.85 77.5698 81.7801 77.3798 81.7201 77.1798C81.6601 76.9798 81.58 76.7999 81.49 76.6099C81.3852 76.3909 81.227 76.2018 81.0301 76.0598C80.8843 75.9612 80.715 75.9028 80.5395 75.8905C80.3639 75.8782 80.1881 75.9125 80.0301 75.9898C79.8622 76.0728 79.7177 76.1966 79.61 76.3499C79.5136 76.5002 79.4553 76.6719 79.4401 76.8499V77.2698C79.4401 77.5598 79.4401 77.8399 79.4401 78.1299C79.4401 78.2699 79.4401 78.4099 79.4401 78.5499C77.5601 78.6599 75.68 78.7299 73.79 78.7599C73.7746 78.7049 73.7546 78.6514 73.73 78.5999C73.65 78.3699 73.55 78.1399 73.45 77.9199L73.2201 77.4598C73.0844 77.1925 72.9015 76.9519 72.68 76.7498C72.5618 76.6419 72.4221 76.5602 72.27 76.5099C72.0594 76.4367 71.8317 76.428 71.6162 76.485C71.4006 76.5421 71.207 76.6621 71.0601 76.8299C70.814 77.1971 70.7108 77.6418 70.77 78.0799C70.7554 78.3163 70.7554 78.5534 70.77 78.7899H70.3801L67.4501 78.5999Z" fill="#D77F37"/>
<path d="M31.1299 76.6099L31.2 76.7498H31.0699L31.1299 76.6099Z" fill="#D77F37"/>
<path d="M41.72 67.7C41.7463 68.1663 41.7463 68.6337 41.72 69.1C41.19 69.1 40.67 69.02 40.14 69C37.72 68.86 35.3 68.82 32.79 68.86C28.28 68.75 23.79 68.52 19.26 68.34C15.84 68.2 12.45 67.76 9.06001 67.34C7.16001 67.13 5.25001 67.01 3.35001 66.78L2.51001 66.67L1.51001 66.5C1.18001 66.44 0.84001 66.35 0.51001 66.26L0.570007 66.02C1.36001 63.02 2.71001 59.76 3.03001 57.34C3.53001 53.01 2.73001 48.6 3.81001 44.34C3.80549 44.2901 3.80549 44.2399 3.81001 44.19C3.81001 44.03 3.81 43.87 3.88 43.72C3.95 43.57 3.88001 43.4 3.95001 43.25C4.27001 43.25 4.59001 43.25 4.95001 43.25C5.02123 43.1906 5.10728 43.1519 5.1989 43.1378C5.29052 43.1237 5.38424 43.1348 5.47 43.17C5.87628 43.195 6.28372 43.195 6.69 43.17C7.37 43.17 8.05 43.09 8.69 43.1C9.74 43.1 10.79 43.17 11.83 43.26C16.8194 43.6173 21.6892 44.9563 26.16 47.2C27.6481 47.8964 29.088 48.6915 30.47 49.58C31.54 50.34 32.54 51.19 33.54 52.03C37.84 55.58 39.22 57.03 40.7 62.57C41.2428 64.2333 41.5852 65.9555 41.72 67.7Z" fill="#7B7B7B"/>
<path d="M117.41 56.6098C118.425 59.1038 118.676 61.8431 118.13 64.4798C117.021 65.1315 115.848 65.6676 114.63 66.0798L114.24 66.1998C112.43 66.6698 110.54 66.7698 108.7 67.1298C106.86 67.4898 105.19 67.8398 103.42 68.0798C99.34 68.5198 95.24 68.0798 91.16 68.0798C87.08 68.0798 82.87 68.3398 78.72 68.5198C76.72 68.5898 74.77 69.0698 72.78 69.3198L69.2 69.7398L67.9 69.8898C67.8753 69.8015 67.8753 69.7081 67.9 69.6198C68.0871 68.2435 68.457 66.8983 69 65.6198C70.0551 63.0027 71.6224 60.6228 73.61 58.6198C74.4107 57.7156 75.2946 56.8886 76.25 56.1498C78.1191 54.7946 80.1916 53.7448 82.39 53.0398C83.76 52.5698 85.39 52.2298 86.7 51.8998C88.5683 51.4335 90.4109 50.8694 92.22 50.2098C93.5996 49.7182 94.8799 48.9833 96 48.0398C96.2504 47.8094 96.4812 47.5585 96.69 47.2898C97.1888 46.6093 97.5894 45.8619 97.8801 45.0698H98.26H98.48L98.97 45.1398C98.7534 45.7625 98.4892 46.3676 98.18 46.9498C97.9476 47.3794 97.6729 47.7848 97.36 48.1598C95.17 50.8198 91.47 51.8398 88.28 52.8698C87.21 53.1598 86.1501 53.4198 85.1001 53.7098C86.1901 54.2698 87.2101 54.9498 88.3501 55.4298C89.753 55.9989 91.239 56.3366 92.75 56.4298C96.3912 56.6137 100.037 56.1741 103.53 55.1298C104.696 54.6651 105.835 54.1342 106.94 53.5398L108.94 52.5398C109.776 52.1154 110.579 51.6273 111.34 51.0798L111.88 50.6498L112.18 50.8998L112.4 51.0898L112.6 51.2698L112.77 51.4098L112.91 51.5398L113.09 51.6998C114.64 53.2798 116.56 54.5498 117.41 56.6098Z" fill="#7B7B7B"/>
<path d="M111.85 50.76L111.31 51.19C110.549 51.7375 109.746 52.2256 108.91 52.65L106.91 53.65C105.804 54.2444 104.666 54.7753 103.5 55.24C100.007 56.2842 96.3611 56.7239 92.72 56.54C91.2089 56.4468 89.7229 56.1091 88.3199 55.54C87.1799 55.06 86.1599 54.38 85.0699 53.82C86.1199 53.53 87.18 53.27 88.25 52.98C91.44 51.98 95.14 50.93 97.33 48.27C97.6429 47.8949 97.9176 47.4896 98.15 47.06C98.4592 46.4777 98.7233 45.8726 98.94 45.25C99.54 45.33 100.14 45.42 100.74 45.53C103.036 45.9836 105.264 46.7297 107.37 47.75C108.983 48.5617 110.489 49.573 111.85 50.76Z" fill="#E5E5E5"/>
<path d="M97.85 45.13C97.5593 45.9221 97.1587 46.6695 96.66 47.35C96.4511 47.6187 96.2203 47.8696 95.97 48.1C94.8498 49.0435 93.5695 49.7785 92.19 50.27C90.3808 50.9296 88.5383 51.4937 86.6699 51.96C85.3099 52.29 83.7299 52.63 82.3599 53.1C80.1615 53.805 78.089 54.8548 76.22 56.21C75.2645 56.9488 74.3806 57.7758 73.5799 58.68C71.5923 60.683 70.025 63.0629 68.9699 65.68C68.4269 66.9585 68.057 68.3037 67.8699 69.68C67.8452 69.7683 67.8452 69.8617 67.8699 69.95C65.2141 70.2633 62.5439 70.4402 59.8699 70.48C57.34 70.4 54.8699 70.07 52.2999 69.95C49.5299 69.8 46.7699 69.61 44.0099 69.34C43.2299 69.26 42.4599 69.2 41.6899 69.15C41.7163 68.6837 41.7163 68.2163 41.6899 67.75C41.5688 65.976 41.233 64.2232 40.6899 62.53C39.2099 57.01 37.83 55.53 33.53 51.99C32.53 51.15 31.5299 50.3 30.4599 49.54C29.0779 48.6515 27.6381 47.8564 26.1499 47.16C21.6792 44.9163 16.8094 43.5774 11.8199 43.22C10.8199 43.13 9.72995 43.06 8.67995 43.06C7.98995 43.06 7.30995 43.06 6.67995 43.13C6.27367 43.1551 5.86623 43.1551 5.45995 43.13C5.37418 43.0948 5.28045 43.0837 5.18883 43.0978C5.09721 43.1119 5.01116 43.1507 4.93994 43.21C4.60994 43.21 4.28994 43.21 3.93994 43.21C5.19994 34.8 6.58994 29.33 16.8599 30C16.9796 29.9821 17.1018 30.0049 17.207 30.0647C17.3122 30.1246 17.3942 30.218 17.4399 30.33C18.7599 29.76 20.0199 32.07 20.6899 32.95C22.7699 36.17 24.8899 39.75 28.5699 41.32C30.0308 41.9648 31.6271 42.2429 33.2199 42.13C35.4799 41.7 36.9799 39.61 37.5199 37.49C37.6199 37.09 37.6399 36.55 37.7599 36.11C37.3919 34.6971 37.437 33.2081 37.8899 31.82C38.2387 30.874 38.8412 30.0422 39.6315 29.416C40.4217 28.7898 41.3692 28.3933 42.3699 28.27C45.3248 28.0927 48.289 28.3898 51.1499 29.15C52.906 29.6594 54.632 30.267 56.3199 30.97C57.3899 31.34 58.4599 31.69 59.5199 32.08C61.5899 32.85 63.5799 33.8 65.6599 34.54C68.4299 35.61 71.1199 36.91 73.81 38.18C76.8999 39.74 79.81 41.59 83.13 42.75C85.546 43.5991 88.053 44.1629 90.6 44.43C93.04 44.68 95.46 44.85 97.85 45.13Z" fill="#E5E5E5"/>
<path d="M54.39 41.0201C52.95 40.6201 53.66 38.7501 53.86 37.7101C54.616 35.2806 56.1564 33.1705 58.24 31.7101C59.05 31.2001 60.96 29.9901 61.29 31.5501C61.2964 31.748 61.2327 31.9419 61.1101 32.0974C60.9875 32.2529 60.8139 32.3601 60.62 32.4001C60.0327 32.6931 59.496 33.078 59.03 33.5401C57.961 34.707 57.1198 36.0637 56.55 37.5401C55.96 38.5601 56.06 41.2401 54.39 41.0201Z" fill="#7B7B7B"/>
<path d="M60.07 44.2898C59.7739 44.2272 59.5143 44.0503 59.3477 43.7976C59.1811 43.5448 59.1208 43.2366 59.18 42.9397C59.6325 41.1295 60.4985 39.4489 61.71 38.0297C62.5995 37.0479 63.5844 36.1568 64.65 35.3697C65.2142 34.9053 65.8052 34.4746 66.42 34.0798C66.6318 33.921 66.8979 33.8527 67.16 33.8898C67.2744 33.905 67.3804 33.9578 67.4614 34.0399C67.5425 34.122 67.5939 34.2287 67.6076 34.3433C67.6214 34.4578 67.5967 34.5736 67.5374 34.6725C67.478 34.7715 67.3875 34.8479 67.28 34.8898C66.6892 35.3281 66.1432 35.8238 65.65 36.3697C64.6337 37.3189 63.7432 38.3943 63 39.5698C62.5599 40.3544 62.2014 41.182 61.93 42.0398C61.55 42.9098 61.41 44.5298 60.07 44.2898Z" fill="#7B7B7B"/>
<path d="M65.6699 47.4902C65.356 47.4621 65.0654 47.3127 64.8599 47.0736C64.6545 46.8346 64.5505 46.5248 64.5699 46.2102C64.6284 44.9787 64.9706 43.7775 65.5699 42.7002C66.6385 40.9756 67.9908 39.444 69.5699 38.1702C70.0499 37.7702 70.5699 37.4002 71.0599 37.0202C71.2609 36.849 71.4962 36.7229 71.75 36.6502C71.8362 36.6353 71.9249 36.6424 72.0076 36.6709C72.0904 36.6993 72.1647 36.7483 72.2235 36.8131C72.2824 36.8779 72.3239 36.9566 72.3442 37.0417C72.3646 37.1269 72.3631 37.2158 72.3399 37.3002C72.2909 37.4325 72.2082 37.5497 72.1 37.6402C71.41 38.3902 70.6699 39.1002 70.0099 39.8902C69.0642 41.0359 68.2833 42.3082 67.6899 43.6702C67.381 44.4856 67.1271 45.3208 66.9299 46.1702C66.9255 46.5087 66.7931 46.8329 66.5594 47.0778C66.3256 47.3227 66.0079 47.47 65.6699 47.4902Z" fill="#7B7B7B"/>
<path d="M72.2801 48.7398C70.9701 46.1198 75.7501 40.7398 77.9801 39.5998C79.0401 39.2398 79.5 40.9398 78.32 41.0098C76.5914 42.6263 75.31 44.6621 74.6001 46.9198C74.3001 47.7998 74.9501 49.1098 73.7501 49.4898C73.4556 49.5791 73.138 49.5509 72.8639 49.411C72.5899 49.2712 72.3806 49.0306 72.2801 48.7398Z" fill="#7B7B7B"/>
<path d="M81.32 49.1702C81.0824 49.0799 80.8881 48.9024 80.7766 48.6739C80.6652 48.4454 80.6449 48.1831 80.72 47.9402C81.2435 46.6633 82.0626 45.5289 83.11 44.6302L84.91 42.9002C85.3135 42.4687 85.791 42.1131 86.32 41.8502C86.4447 41.8259 86.5741 41.8447 86.6867 41.9036C86.7993 41.9625 86.8885 42.058 86.9397 42.1743C86.9909 42.2907 87.001 42.4209 86.9683 42.5438C86.9357 42.6666 86.8622 42.7747 86.76 42.8502C85.8151 43.7234 84.9516 44.6806 84.18 45.7102C83.6978 46.3688 83.2855 47.076 82.95 47.8202C82.59 48.5002 82.26 49.4702 81.32 49.1702Z" fill="#7B7B7B"/>
<path d="M33.45 43.4099C32.68 43.2699 31.92 43.0599 31.16 42.8699C30.69 42.7099 29.87 42.6199 29.99 41.9399C30.0213 41.7905 30.1103 41.6595 30.2376 41.5753C30.3649 41.491 30.5203 41.4603 30.67 41.4899C32 41.8199 33.32 42.2199 34.67 42.4299C36.7238 42.6862 38.8028 42.2195 40.55 41.1099C42.0226 40.3323 43.3248 39.2681 44.38 37.9799C45.59 36.2699 46.63 34.4399 47.74 32.6599C48.3083 31.6964 48.9972 30.8092 49.79 30.0199C50.06 29.7599 50.35 29.5099 50.62 29.2599C50.6741 29.1947 50.7411 29.1415 50.8168 29.1036C50.8926 29.0657 50.9754 29.044 51.06 29.0399C51.1795 29.0321 51.2988 29.0585 51.4039 29.1161C51.5089 29.1737 51.5954 29.26 51.6531 29.365C51.7108 29.4699 51.7374 29.5892 51.7298 29.7087C51.7222 29.8283 51.6806 29.9431 51.61 30.0399C51.1678 30.4053 50.7533 30.8031 50.37 31.2299C48.47 33.5499 47.37 36.4199 45.65 38.8399C44.5367 40.2306 43.1208 41.349 41.51 42.1099C39.0526 43.4568 36.2062 43.9159 33.45 43.4099Z" fill="#7B7B7B"/>
<path d="M91.5699 50.06C89.4853 49.9698 87.4133 49.6887 85.38 49.22C83.31 48.83 81.25 48.43 79.19 47.98C77.13 47.53 74.96 47.03 72.96 46.41C70.96 45.79 69.11 45.05 67.14 44.52C63.8521 43.6306 60.6625 42.4111 57.62 40.88C54.46 39.4 51.3066 37.8967 48.16 36.37C47.82 36.2 47.49 35.98 47.16 35.84C47.1067 35.8304 47.0558 35.8103 47.0103 35.7809C46.9648 35.7516 46.9256 35.7135 46.8949 35.6688C46.8642 35.6242 46.8427 35.5739 46.8315 35.5209C46.8204 35.4679 46.8199 35.4133 46.83 35.36C46.8492 35.2648 46.9024 35.1798 46.9797 35.1209C47.057 35.062 47.153 35.0333 47.25 35.04C47.6505 35.1367 48.0323 35.2989 48.38 35.52C49.06 35.86 49.75 36.17 50.38 36.52C54.65 38.43 58.79 40.71 63.17 42.35C65.68 43.26 68.28 43.88 70.78 44.79C74.2288 46.0217 77.7699 46.978 81.37 47.65C84.6307 48.4014 87.9434 48.9062 91.28 49.16C92.41 49.16 93.54 49.16 94.66 49.1C95.05 49.1 95.58 48.97 95.66 49.5C95.74 50.03 94.9299 49.98 94.5099 50C93.5099 50 92.56 50.11 91.58 50.1L91.5699 50.06Z" fill="#7B7B7B"/>
</g>
<defs>
<clipPath id="clip0_55_5484">
<rect width="143.08" height="78.62" fill="white"/>
</clipPath>
</defs>
</svg>
