<svg width="132" height="295" viewBox="0 0 132 295" fill="none" xmlns="http://www.w3.org/2000/svg">
<g clip-path="url(#clip0_54_5123)">
<path d="M33.55 294.5C27.92 293.74 22.32 292.73 16.69 291.95C11.9639 291.422 7.3035 290.417 2.77997 288.95C2.31687 288.764 1.88516 288.507 1.49997 288.19C1.42862 288.114 1.37327 288.024 1.3372 287.926C1.30113 287.828 1.28507 287.724 1.28998 287.62C0.906376 287.496 0.573746 287.25 0.342694 286.92C0.111642 286.59 -0.0051844 286.193 0.00997648 285.79C0.0899765 283.85 0.279967 281.92 0.499967 279.99C0.729967 277.89 0.909978 275.79 1.08998 273.69C1.91998 260.35 2.02998 246.97 2.72998 233.63C3.42825 222.885 3.58177 212.111 3.18997 201.35C2.70997 179.65 2.98997 157.93 2.92997 136.22C2.92997 123.97 3.70997 111.75 3.92997 99.51C4.03997 85.81 4.24997 72.1 5.24997 58.44C6.60997 41.37 9.02998 24.44 11.59 7.53003C11.81 6.47003 12.1 5.04003 12.46 3.72003L12.76 2.78003L13.48 0.880033H13.54C13.96 0.210033 14.44 -0.119979 14.99 0.180021C15.0866 0.237325 15.1691 0.315606 15.2314 0.409071C15.2937 0.502536 15.3342 0.608806 15.35 0.72003H16.27C18.91 0.72003 21.56 0.52003 24.2 0.72003C28.2 1.01003 32.2 1.49003 36.2 1.63003C38.9 1.69003 41.59 1.75003 44.29 1.92003C57.09 2.98003 69.92 3.69002 82.77 3.54002C90.18 3.08002 97.58 2.41002 105.01 2.32002C109.854 2.43112 114.699 2.11995 119.49 1.39003C120.69 1.22003 121.88 1.14003 123.08 1.02003C123.84 1.02003 124.95 0.700032 125.91 0.660032C126.21 1.66003 126.52 2.75002 126.83 3.79002C127.14 4.83002 127.46 6.07002 127.83 7.20003C128.13 8.31003 128.43 9.43002 128.75 10.54C128.754 10.5001 128.754 10.4599 128.75 10.42C128.81 10.6 128.86 10.79 128.91 10.97C129.12 12.77 129.3 14.58 129.51 16.37C130.8 30.96 131.21 45.6 131.51 60.24C131.78 66.39 132.03 72.53 132 78.69C132.11 87.95 131.75 97.2 131.38 106.44C131.1 118.44 130.87 130.44 130.26 142.44C129.26 164 130.2 185.58 129.87 207.15C129.51 219.503 129.07 231.837 128.55 244.15C128.23 252.98 128.49 261.8 128.45 270.63C128.49 276.59 128.613 282.553 128.82 288.52C128.826 288.769 128.763 289.014 128.64 289.23C128.64 290.5 127.3 290.61 126.35 290.64C125.4 290.67 124.48 290.8 123.55 290.87L113.41 291.59C109.32 291.79 105.32 291.78 101.27 292.06C97.57 292.37 93.86 292.52 90.17 292.86C88.4306 293.188 86.6474 293.212 84.9 292.93C84.7785 292.918 84.6608 292.881 84.5545 292.821C84.4483 292.761 84.3558 292.68 84.2832 292.582C84.2106 292.484 84.1594 292.371 84.133 292.252C84.1066 292.133 84.1056 292.01 84.13 291.89C83.9778 291.689 83.8719 291.457 83.82 291.21C83.71 290.465 83.6498 289.713 83.64 288.96C83.26 279.39 83.29 269.83 82.44 260.28C81.66 249.41 80.3 238.6 79.34 227.75C78.11 214.05 77.72 200.25 75.6 186.65C74.83 182.02 73.85 177.44 72.88 172.85C72.88 172.8 72.88 172.76 72.88 172.72C72.88 172.3 72.96 171.88 72.99 171.45C73.04 170.61 73.07 169.76 73.09 168.92C73.09 167.36 73.09 165.79 73.09 164.24C73.09 163.04 73.09 161.84 73.09 160.64C73.09 159.44 73.01 157.96 72.91 156.64C72.82 155.46 72.71 154.29 72.62 153.11C72.53 151.93 72.46 150.64 72.39 149.41C72.11 144.51 71.93 139.59 71.39 134.72C71.0966 132.253 70.84 129.783 70.62 127.31C70.41 124.85 70.25 122.38 70.08 119.92C69.91 117.46 69.73 115.09 69.52 112.68C69.41 111.47 69.33 110.26 69.18 109.06C69.03 107.86 68.86 106.55 68.69 105.29C68.52 104.03 68.34 102.96 68.19 101.79C68.11 101.2 68.01 100.61 67.91 100.02C67.81 99.43 67.73 98.93 67.6 98.4C67.3762 97.4919 67.0403 96.6152 66.6 95.79C66.4012 95.3254 66.0479 94.9439 65.6 94.71C65.3444 94.594 65.0627 94.5477 64.7834 94.5758C64.5042 94.6039 64.2373 94.7054 64.01 94.87C63.7991 95.0448 63.6264 95.261 63.5026 95.5053C63.3787 95.7496 63.3064 96.0166 63.29 96.29C63.1516 97.5086 63.0782 98.7337 63.07 99.96C63.07 101.14 63.07 102.32 63.07 103.5C63.07 104.68 63.07 105.95 63.07 107.18C63.07 107.49 63.07 107.8 63.07 108.12C63.07 108.44 63.07 108.81 63.07 109.12C63.07 109.43 63.14 109.72 63.18 110.02V110.11C63.176 110.187 63.176 110.263 63.18 110.34L63.27 110.84C63.19 119.14 63.27 127.44 62.87 135.73C62.63 141.23 61.95 146.73 61.45 152.23C60.89 160.82 59.51 169.32 58.45 177.86C57.45 184.69 57.45 191.6 56.56 198.44C55.76 205.54 54.24 212.53 53.06 219.57C51.88 226.61 50.3 233.67 49.11 240.76C47.61 251.16 46.43 261.62 45.28 272.07C44.88 277.46 44.68 282.86 44.51 288.26C44.51 289.89 44.45 291.52 44.4 293.15C44.3974 293.383 44.3038 293.605 44.1393 293.769C43.9749 293.934 43.7526 294.027 43.52 294.03C43.3635 294.024 43.2115 293.976 43.0809 293.889C42.9503 293.803 42.8462 293.682 42.78 293.54C40.86 293.9 38.97 294.49 37.03 294.71H36.21C35.3198 294.696 34.4313 294.626 33.55 294.5Z" fill="#242424"/>
<path d="M97.3901 18.5601C95.9401 18.6901 95.64 17.1601 95.57 15.9601C95.3818 14.25 95.3483 12.5263 95.47 10.8101C95.5158 8.84919 95.703 6.89413 96.03 4.96013C96.0767 4.71673 96.2122 4.49934 96.41 4.35012C96.87 4.06012 97.5501 4.59012 97.1101 5.08012C97.0497 8.89751 97.3005 12.7135 97.8601 16.4901C98.4116 16.5101 98.9639 16.4799 99.5101 16.4001C99.6601 14.3301 99.3601 12.2601 99.3901 10.1901C99.4653 8.22946 99.4252 6.26607 99.2701 4.31012C99.2536 4.21556 99.256 4.1187 99.277 4.02507C99.298 3.93143 99.3373 3.84285 99.3925 3.76439C99.4478 3.68592 99.518 3.61911 99.599 3.56776C99.6801 3.51641 99.7705 3.48153 99.865 3.46512C99.9596 3.4487 100.056 3.45107 100.15 3.47209C100.244 3.49311 100.332 3.53236 100.411 3.58761C100.489 3.64286 100.556 3.71302 100.607 3.79409C100.659 3.87517 100.694 3.96556 100.71 4.06012C100.89 6.47012 101.17 9.06012 101.18 11.4101V11.3501C101.18 13.2801 101.56 15.2701 101.18 17.1701C100.79 18.5501 98.5201 18.5101 97.3901 18.5601Z" fill="black"/>
<path d="M33.13 19.2599C30.78 18.3499 32.07 12.65 32.13 10.58C32.29 8.82996 32.38 7.06995 32.52 5.30995C32.7 4.53995 32.52 3.03995 33.52 2.94995C33.6344 2.96095 33.7449 2.99741 33.8433 3.05664C33.9417 3.11587 34.0257 3.19638 34.089 3.29227C34.1523 3.38815 34.1933 3.49699 34.209 3.61079C34.2248 3.7246 34.2149 3.84047 34.18 3.94995C33.97 6.05995 34.0601 8.18995 33.9801 10.31C33.8112 12.5733 33.8681 14.8479 34.15 17.1C34.5889 17.145 35.0312 17.145 35.47 17.1C36.0181 14.4677 36.3094 11.7885 36.3401 9.09996C36.4201 7.67996 36.48 6.24995 36.69 4.83995C36.7187 4.62151 36.8274 4.42147 36.995 4.27852C37.1627 4.13557 37.3774 4.05988 37.5976 4.0661C37.8178 4.07232 38.0279 4.16001 38.1872 4.31219C38.3466 4.46438 38.4438 4.67024 38.46 4.88995C38.5835 8.50175 38.4062 12.1175 37.93 15.7C37.68 16.84 37.65 18.31 36.64 19.02C35.5401 19.5317 34.2894 19.6172 33.13 19.2599Z" fill="black"/>
<path d="M31.21 13.59C27.4 13.27 23.77 12.52 19.96 12.4C17.78 12.26 15.69 11.47 13.51 11.29C13.4086 11.2784 13.3113 11.2431 13.2261 11.1869C13.1409 11.1308 13.0701 11.0553 13.0195 10.9667C12.9688 10.8781 12.9398 10.7788 12.9347 10.6769C12.9295 10.575 12.9485 10.4733 12.99 10.38C13.0956 10.1888 13.2506 10.0295 13.4388 9.91869C13.627 9.80787 13.8415 9.74962 14.0599 9.75C15.8163 9.79205 17.5674 9.95914 19.3 10.25C22.3236 10.3164 25.3354 10.6511 28.3 11.25C29.3 11.39 30.3 11.55 31.3 11.76C31.5099 11.8003 31.6986 11.914 31.8324 12.0807C31.9661 12.2474 32.0362 12.4563 32.03 12.67C32.0409 12.9002 31.9612 13.1255 31.8079 13.2975C31.6546 13.4695 31.4399 13.5745 31.21 13.59Z" fill="black"/>
<path d="M57.51 17.11C53.97 16.93 50.45 16.58 46.91 16.4C44.6561 16.2933 42.4096 16.0663 40.18 15.72C40.0173 15.6799 39.8711 15.5904 39.7614 15.4638C39.6517 15.3372 39.584 15.1797 39.5675 15.013C39.5511 14.8463 39.5867 14.6786 39.6695 14.533C39.7523 14.3874 39.8783 14.2711 40.0299 14.2C40.7017 14.1668 41.3749 14.2274 42.0299 14.38C44.2602 14.6483 46.5037 14.7919 48.7499 14.81C51.7499 15.01 54.6899 15.06 57.6499 15.25C57.8743 15.2956 58.0743 15.4215 58.2125 15.6041C58.3506 15.7867 58.4173 16.0134 58.4002 16.2417C58.383 16.47 58.2831 16.6842 58.1192 16.8441C57.9552 17.004 57.7386 17.0985 57.51 17.11Z" fill="black"/>
<path d="M64.58 81.11C64.34 71.63 64.28 62.11 64.13 52.67C63.85 44.94 63.7 37.21 63.91 29.48C63.91 23.7 63.99 17.93 64.2 12.15C64.2 10.84 64.33 9.73002 64.44 8.48002C64.55 7.90002 64.44 7.07001 65.02 6.79001C65.1405 6.74898 65.27 6.74162 65.3944 6.76871C65.5189 6.79581 65.6335 6.85633 65.7261 6.94378C65.8187 7.03122 65.8857 7.14227 65.9199 7.26496C65.954 7.38764 65.9541 7.51731 65.92 7.64002C65.82 9.53002 65.92 11.43 65.92 13.32C65.92 21.06 65.98 28.79 65.92 36.53C65.97 46.15 66.1 55.77 65.92 65.39C65.84 70.61 66.3 75.82 66.02 81.04C66.0009 81.2126 65.921 81.3728 65.7945 81.4917C65.668 81.6107 65.5033 81.6806 65.3298 81.6891C65.1564 81.6975 64.9856 81.6438 64.8482 81.5377C64.7108 81.4316 64.6157 81.28 64.58 81.11Z" fill="black"/>
<path d="M65.32 59.7999C65.1779 59.7804 65.0435 59.7239 64.9301 59.6362C64.8167 59.5485 64.7282 59.4326 64.6736 59.3C64.6189 59.1675 64.6 59.0229 64.6187 58.8808C64.6373 58.7386 64.6929 58.6039 64.78 58.4899C64.98 58.1799 65.34 58.1999 65.65 58.1799C67.5874 57.2946 69.3412 56.053 70.82 54.5199C73.26 52.0399 73.11 48.2399 73.51 44.9499C73.91 41.6599 74.14 38.0199 74.51 34.6599C74.93 28.8099 74.93 22.9299 75.32 17.0699C75.41 14.4199 75.51 11.7799 75.52 9.1299C75.63 8.2899 75.13 6.73989 76.31 6.63989C76.5133 6.65279 76.7036 6.74477 76.84 6.89615C76.9764 7.04753 77.0482 7.24627 77.04 7.44989C77.04 8.91989 77.04 10.3999 77.04 11.8799C77.04 15.6499 76.9 19.4299 76.76 23.1999C76.69 29.3799 76.43 35.4999 75.85 41.6099C75.59 44.4299 75.39 47.2599 74.96 50.0599C74.6806 52.3456 73.621 54.465 71.96 56.0599C70.7629 57.3083 69.3458 58.3253 67.78 59.0599C67.0598 59.5624 66.1979 59.8217 65.32 59.7999Z" fill="black"/>
<path d="M77.46 17.11C77.2734 17.0996 77.0984 17.0161 76.973 16.8776C76.8475 16.7391 76.7818 16.5567 76.79 16.37C76.79 15.65 77.59 15.52 78.13 15.51C80.0272 15.4668 81.9188 15.2864 83.79 14.97C85.7741 14.8889 87.7461 14.6211 89.68 14.17C91.6255 13.8588 93.5901 13.6817 95.56 13.64C95.8252 13.5962 96.0969 13.6596 96.3154 13.8162C96.5339 13.9728 96.6812 14.2098 96.725 14.475C96.7687 14.7402 96.7054 15.0119 96.5488 15.2304C96.3922 15.4489 96.1552 15.5962 95.89 15.64C93.97 15.89 92.01 15.89 90.1 16.2C89.1 16.37 88.17 16.6 87.2 16.7L81.11 17.04C79.8938 16.948 78.6717 16.9714 77.46 17.11Z" fill="black"/>
<path d="M102.7 16.37C102.517 16.3606 102.342 16.2907 102.202 16.1713C102.063 16.0519 101.967 15.8897 101.93 15.71C101.896 15.5587 101.903 15.401 101.951 15.2533C101.998 15.1056 102.084 14.9732 102.2 14.87C102.156 14.8987 102.119 14.9362 102.09 14.98C102.325 14.7268 102.639 14.5611 102.98 14.51C103.7 14.35 104.43 14.22 105.16 14.07C107.62 13.59 110.16 13.33 112.58 12.92C114.8 12.55 116.93 11.85 119.12 11.33L124.6 10.14C125.51 10.03 126.99 9.21003 127.37 10.55C127.59 12.06 125.68 11.89 124.74 12.14C121.05 12.85 117.48 14.14 113.74 14.77C110 15.4 106.25 15.44 102.7 16.37Z" fill="black"/>
<path d="M32.34 37.4C32.1331 37.3871 31.9393 37.2944 31.7994 37.1415C31.6595 36.9885 31.5844 36.7872 31.59 36.58C31.59 35 31.82 33.44 31.97 31.87C32.47 27.34 32.97 22.81 33.03 18.25C33.03 17.75 32.98 16.99 33.61 16.9C34.68 16.84 34.21 18.9 34.31 19.59C34.31 21.96 34.11 24.32 33.95 26.69C33.76 29.28 33.5 31.86 33.31 34.43C33.26 35.04 33.22 35.65 33.17 36.2C33.12 36.75 33 37.41 32.34 37.4Z" fill="black"/>
<path d="M98.3999 39.72C98.1682 39.707 97.951 39.6031 97.7956 39.4308C97.6401 39.2585 97.559 39.0318 97.5699 38.8C97.5699 36.87 97.6799 34.95 97.7399 33.02C97.7999 31.09 97.8299 29.31 97.8999 27.46C97.9999 24.59 98.25 21.72 98.33 18.84C98.3159 18.5939 98.3429 18.3472 98.4099 18.11C98.4732 17.9597 98.585 17.8349 98.7275 17.7556C98.87 17.6762 99.0349 17.6469 99.196 17.6722C99.3571 17.6975 99.5051 17.776 99.6164 17.8952C99.7276 18.0145 99.7958 18.1675 99.8099 18.33C99.6499 23.59 99.4599 28.84 99.4699 34.1C99.4699 35.68 99.3699 37.26 99.2799 38.85C99.2773 39.0816 99.1834 39.3029 99.0187 39.4658C98.8539 39.6286 98.6316 39.72 98.3999 39.72Z" fill="black"/>
<path d="M44.5999 284.23L44.5399 286.04C39.6999 285.77 34.8599 285.38 30.0499 284.95C21.8699 283.95 13.6099 284.19 5.46994 282.88C3.70562 282.675 1.97485 282.245 0.319946 281.6C0.369946 281.09 0.429944 280.6 0.489944 280.08C1.19437 280.378 1.92392 280.612 2.66994 280.78C11.7399 282.56 21.0699 281.94 30.1899 283.09C34.6099 283.5 39.0199 283.82 43.4399 284.15L44.5999 284.23Z" fill="black"/>
<path d="M128.47 279.23C128.47 279.73 128.47 280.23 128.47 280.75C128.02 280.75 127.64 280.8 127.47 280.84C122.64 281.31 117.8 281.67 112.95 282.06C105.44 282.69 98.01 283.98 90.56 285.16C88.83 285.44 87.13 285.73 85.42 286.04C84.8 286.14 84.18 286.26 83.56 286.35L83.51 284.88C84.24 284.78 84.96 284.62 85.65 284.52C96.83 282.52 108.05 280.52 119.4 279.97C122 279.79 124.59 279.49 127.19 279.31C127.61 279.27 128.04 279.25 128.47 279.23Z" fill="black"/>
<path d="M88.37 236.78C88.0729 235.805 87.8917 234.798 87.83 233.78C87.8039 233.585 87.7672 233.391 87.72 233.2V233.31C87.6355 233.089 87.6321 232.845 87.7103 232.622C87.7885 232.399 87.9432 232.211 88.147 232.091C88.3509 231.971 88.5906 231.927 88.8236 231.967C89.0567 232.007 89.2679 232.129 89.42 232.31C89.74 233.569 89.9904 234.844 90.17 236.13C90.1811 236.344 90.123 236.556 90.0044 236.735C89.8857 236.914 89.7127 237.049 89.511 237.122C89.3092 237.195 89.0894 237.201 88.8839 237.14C88.6785 237.078 88.4983 236.952 88.37 236.78Z" fill="black"/>
<path d="M86.76 224.28C86.51 222.82 88.54 222.35 88.64 223.92C89.01 225.44 86.86 225.89 86.76 224.28Z" fill="black"/>
<path d="M90.1299 231.04C89.3899 230.53 89.43 228.77 90.55 228.8C91.2 228.8 91.4499 229.43 91.4599 230.03C91.5022 230.202 91.4932 230.383 91.434 230.551C91.3748 230.718 91.2679 230.864 91.1265 230.972C90.9852 231.079 90.8155 231.143 90.6385 231.155C90.4614 231.167 90.2846 231.127 90.1299 231.04Z" fill="black"/>
<path d="M107.85 109.43C107.722 107.826 107.699 106.216 107.78 104.61C107.69 102.34 111.06 103.21 109.96 105.18C109.62 106.61 110.84 110.12 109.04 110.44C108.895 110.452 108.75 110.436 108.612 110.392C108.474 110.347 108.345 110.276 108.235 110.183C108.124 110.089 108.033 109.974 107.967 109.845C107.901 109.716 107.861 109.575 107.85 109.43Z" fill="black"/>
<path d="M107.93 116.55C108.04 115.95 108.23 115.25 108.93 115.28C109.63 115.31 109.78 115.94 109.93 116.46C109.988 116.617 110.011 116.784 109.997 116.951C109.983 117.117 109.931 117.279 109.847 117.423C109.763 117.568 109.648 117.692 109.51 117.786C109.372 117.881 109.215 117.944 109.05 117.97C108.874 117.976 108.699 117.941 108.539 117.867C108.379 117.793 108.239 117.683 108.129 117.544C108.02 117.406 107.945 117.244 107.911 117.071C107.876 116.898 107.883 116.72 107.93 116.55Z" fill="black"/>
<path d="M111.96 113.17C111.802 113.15 111.649 113.097 111.512 113.016C111.375 112.934 111.255 112.825 111.162 112.696C111.068 112.567 111.002 112.42 110.967 112.264C110.932 112.108 110.93 111.947 110.96 111.79C110.956 111.823 110.956 111.857 110.96 111.89C110.922 111.739 110.916 111.582 110.943 111.429C110.97 111.275 111.028 111.129 111.115 111C111.202 110.871 111.315 110.761 111.446 110.679C111.578 110.596 111.726 110.542 111.88 110.52C113.4 110.39 113.46 113.21 111.96 113.17Z" fill="black"/>
<path d="M24.68 133.08C22.68 133.08 23.28 128.63 25.24 129.24C25.4338 129.305 25.6106 129.413 25.7574 129.555C25.9041 129.698 26.0171 129.871 26.0881 130.063C26.159 130.255 26.1862 130.46 26.1675 130.664C26.1488 130.868 26.0847 131.064 25.98 131.24C25.99 132.09 25.67 133.11 24.68 133.08Z" fill="black"/>
<path d="M23.77 137.38C23.7726 137.023 23.9157 136.681 24.1683 136.428C24.4209 136.176 24.7627 136.033 25.12 136.03C25.3981 136.022 25.6723 136.098 25.9069 136.248C26.1415 136.397 26.3258 136.614 26.4359 136.869C26.5461 137.125 26.5769 137.408 26.5246 137.681C26.4722 137.954 26.3391 138.206 26.1423 138.402C25.9455 138.599 25.6942 138.732 25.4209 138.785C25.1476 138.837 24.8649 138.806 24.6093 138.696C24.3538 138.586 24.1371 138.402 23.9875 138.167C23.8379 137.932 23.7621 137.658 23.77 137.38Z" fill="black"/>
<path d="M27.37 136.15C25.83 136.08 26.07 134.3 26.12 133.15C26.1417 132.823 26.2854 132.515 26.5228 132.289C26.7602 132.062 27.074 131.933 27.402 131.927C27.7301 131.92 28.0486 132.038 28.2945 132.255C28.5404 132.472 28.6958 132.774 28.73 133.1V133.04C28.79 134.21 28.96 136.15 27.37 136.15Z" fill="black"/>
<path d="M67.4 11.98C67.4353 11.4843 67.6153 11.0099 67.9176 10.6155C68.2199 10.221 68.6313 9.92397 69.1007 9.76103C69.5702 9.59808 70.0772 9.57643 70.5588 9.69877C71.0405 9.8211 71.4757 10.082 71.8105 10.4493C72.1453 10.8165 72.3651 11.2739 72.4425 11.7647C72.52 12.2556 72.4517 12.7584 72.2463 13.2109C72.0408 13.6634 71.707 14.0457 71.2864 14.3103C70.8658 14.575 70.3769 14.7105 69.88 14.7C69.1921 14.6638 68.546 14.358 68.0819 13.8489C67.6177 13.3398 67.3728 12.6684 67.4 11.98Z" fill="black"/>
</g>
<defs>
<clipPath id="clip0_54_5123">
<rect width="131.93" height="294.69" fill="white"/>
</clipPath>
</defs>
</svg>
