<svg width="169" height="274" viewBox="0 0 169 274" fill="none" xmlns="http://www.w3.org/2000/svg">
<g clip-path="url(#clip0_45_4443)">
<path d="M168.91 256.06C169.004 256.562 168.941 257.081 168.73 257.546C168.519 258.011 168.17 258.4 167.73 258.66C164.152 260.696 160.18 261.941 156.08 262.31C155.691 262.342 155.3 262.284 154.938 262.14C154.575 261.996 154.251 261.77 153.99 261.48L152.55 259.86L102.62 20.76H109.69C114.778 31.6962 119.281 42.8954 123.18 54.31C124.18 57.31 125.24 60.31 126.27 63.44C126.51 64.22 126.77 65.02 127.03 65.82C143.96 118.57 156.72 186.26 168.91 256.06Z" fill="#937761"/>
<path d="M102.62 20.76L152.55 259.86L151.68 258.86C151.352 258.495 150.923 258.236 150.448 258.115C149.973 257.994 149.472 258.017 149.01 258.18L144.27 259.85C143.787 260.015 143.368 260.328 143.072 260.744C142.776 261.161 142.618 261.659 142.62 262.17L98.72 21.28V20.71L102.62 20.76Z" fill="#845C3E"/>
<path d="M142.79 263.16C142.907 263.46 142.968 263.778 142.97 264.1C142.975 264.599 142.827 265.088 142.546 265.501C142.266 265.913 141.866 266.231 141.4 266.41C136.593 268.242 131.535 269.331 126.4 269.64C125.802 269.673 125.213 269.489 124.741 269.121C124.268 268.753 123.945 268.227 123.83 267.64L94.56 22.72H95.87C96.0669 22.7214 96.2621 22.6834 96.4441 22.6084C96.6261 22.5334 96.7914 22.4228 96.9301 22.2831C97.0689 22.1434 97.1784 21.9774 97.2522 21.7949C97.326 21.6123 97.3627 21.4169 97.36 21.22V20.76H98.72V21.33L142.62 262.22C142.614 262.542 142.671 262.861 142.79 263.16Z" fill="#937761"/>
<path d="M142.62 262.24L142.79 263.16C142.674 262.867 142.616 262.555 142.62 262.24Z" fill="#D8D0BB"/>
<path d="M94.56 22.7199L123.88 267.66L123.24 264.57C123.166 264.234 123.024 263.918 122.823 263.639C122.622 263.361 122.366 263.126 122.071 262.95C121.776 262.774 121.448 262.66 121.107 262.615C120.767 262.571 120.42 262.596 120.09 262.69L118.09 263.3C117.58 263.456 117.132 263.771 116.814 264.199C116.495 264.627 116.322 265.146 116.32 265.68L90.55 22.6799L94.56 22.7199Z" fill="#845C3E"/>
<path d="M116.29 265.68V266.68C116.286 267.22 116.107 267.744 115.781 268.175C115.455 268.605 114.999 268.919 114.48 269.07C106.65 271.33 99.48 273.24 89.23 273.69V22.6899H90.52L116.29 265.68Z" fill="#937761"/>
<path d="M112.94 2.97001V19.75C112.94 20.0152 112.835 20.2696 112.647 20.4571C112.46 20.6446 112.205 20.75 111.94 20.75H97.36V13.03H98.51C98.9345 12.9973 99.3309 12.8056 99.6202 12.4932C99.9094 12.1808 100.07 11.7707 100.07 11.345C100.07 10.9193 99.9094 10.5092 99.6202 10.1968C99.3309 9.88445 98.9345 9.69273 98.51 9.66001H97.36V1.95H111.93C112.064 1.94864 112.197 1.97416 112.32 2.02506C112.444 2.07596 112.557 2.1512 112.651 2.24633C112.745 2.34145 112.819 2.45453 112.869 2.57883C112.918 2.70314 112.943 2.83617 112.94 2.97001ZM105.78 11.36C105.782 11.0902 105.704 10.8259 105.555 10.6007C105.406 10.3755 105.194 10.1997 104.945 10.0955C104.696 9.99131 104.422 9.96354 104.157 10.0157C103.892 10.0678 103.649 10.1976 103.458 10.3884C103.268 10.5792 103.138 10.8224 103.086 11.0872C103.034 11.3519 103.061 11.6262 103.165 11.8751C103.27 12.124 103.446 12.3363 103.671 12.485C103.896 12.6337 104.16 12.712 104.43 12.71C104.607 12.71 104.783 12.6751 104.947 12.6072C105.11 12.5394 105.259 12.44 105.385 12.3146C105.51 12.1892 105.609 12.0404 105.677 11.8766C105.745 11.7128 105.78 11.5373 105.78 11.36Z" fill="#5B4F45"/>
<path d="M104.43 12.71C105.176 12.71 105.78 12.1056 105.78 11.36C105.78 10.6144 105.176 10.01 104.43 10.01C103.684 10.01 103.08 10.6144 103.08 11.36C103.08 12.1056 103.684 12.71 104.43 12.71Z" fill="#845C3E"/>
<path d="M94.43 13.0401V18.2501C94.43 18.6074 94.2895 18.9503 94.0388 19.2048C93.788 19.4593 93.4472 19.6049 93.09 19.6101H80.24C79.8793 19.6101 79.5334 19.4668 79.2783 19.2118C79.0233 18.9567 78.88 18.6108 78.88 18.2501V4.4501C78.8826 4.09114 79.0271 3.74779 79.2819 3.4949C79.5366 3.24201 79.881 3.10009 80.24 3.1001H93.09C93.4455 3.10532 93.7848 3.24955 94.0353 3.50188C94.2857 3.75421 94.4274 4.09458 94.43 4.4501V9.66011H88.33C87.9055 9.69283 87.5091 9.88455 87.2198 10.1969C86.9306 10.5093 86.7699 10.9194 86.7699 11.3451C86.7699 11.7708 86.9306 12.1809 87.2198 12.4933C87.5091 12.8057 87.9055 12.9974 88.33 13.0301L94.43 13.0401Z" fill="#5B4F45"/>
<path d="M98.51 9.66992H88.33C87.9055 9.70265 87.509 9.89437 87.2198 10.2068C86.9306 10.5191 86.7699 10.9292 86.7699 11.3549C86.7699 11.7806 86.9306 12.1907 87.2198 12.5031C87.509 12.8155 87.9055 13.0072 88.33 13.0399H98.51C98.9345 13.0072 99.3309 12.8155 99.6202 12.5031C99.9094 12.1907 100.07 11.7806 100.07 11.3549C100.07 10.9292 99.9094 10.5191 99.6202 10.2068C99.3309 9.89437 98.9345 9.70265 98.51 9.66992Z" fill="#845C3E"/>
<path d="M89.23 83.28V273.7C88.43 273.7 87.62 273.77 86.78 273.79C86.0914 273.798 85.4139 273.616 84.8226 273.263C84.2314 272.91 83.7493 272.4 83.43 271.79L81.96 268.89C82.27 268.84 82.56 268.77 82.88 268.7C83.3367 268.604 83.7456 268.352 84.036 267.987C84.3264 267.622 84.4799 267.167 84.47 266.7V83.28H85.47C85.4992 83.6193 85.6546 83.9353 85.9054 84.1655C86.1563 84.3958 86.4845 84.5235 86.825 84.5235C87.1655 84.5235 87.4936 84.3958 87.7445 84.1655C87.9954 83.9353 88.1508 83.6193 88.18 83.28H89.23Z" fill="#845C3E"/>
<path d="M89.23 22.72V83.28H88.23C88.2461 83.0922 88.2231 82.9032 88.1623 82.7249C88.1016 82.5465 88.0044 82.3827 87.877 82.2439C87.7496 82.1051 87.5948 81.9942 87.4223 81.9184C87.2498 81.8426 87.0634 81.8035 86.875 81.8035C86.6866 81.8035 86.5002 81.8426 86.3277 81.9184C86.1552 81.9942 86.0004 82.1051 85.873 82.2439C85.7456 82.3827 85.6484 82.5465 85.5877 82.7249C85.5269 82.9032 85.5038 83.0922 85.52 83.28H84.52V22.72H89.23ZM88.23 27.01C88.232 26.7406 88.1539 26.4766 88.0057 26.2517C87.8574 26.0267 87.6457 25.8509 87.3974 25.7464C87.1491 25.6419 86.8753 25.6135 86.6109 25.6649C86.3464 25.7162 86.1031 25.845 85.9119 26.0348C85.7207 26.2246 85.5902 26.4669 85.5369 26.7309C85.4836 26.995 85.51 27.269 85.6126 27.5181C85.7152 27.7672 85.8895 27.9802 86.1134 28.1301C86.3373 28.2799 86.6006 28.36 86.87 28.36C87.2202 28.3471 87.552 28.1995 87.796 27.948C88.0401 27.6965 88.1777 27.3604 88.18 27.01H88.23ZM88.23 35.01C88.232 34.7406 88.1539 34.4766 88.0057 34.2517C87.8574 34.0267 87.6457 33.8509 87.3974 33.7464C87.1491 33.6419 86.8753 33.6135 86.6109 33.6649C86.3464 33.7162 86.1031 33.845 85.9119 34.0348C85.7207 34.2246 85.5902 34.4669 85.5369 34.7309C85.4836 34.995 85.51 35.269 85.6126 35.5181C85.7152 35.7672 85.8895 35.9802 86.1134 36.1301C86.3373 36.2799 86.6006 36.36 86.87 36.36C87.2135 36.3476 87.5395 36.2056 87.7825 35.9625C88.0256 35.7195 88.1676 35.3935 88.18 35.05L88.23 35.01ZM88.23 43.01C88.232 42.7406 88.1539 42.4766 88.0057 42.2517C87.8574 42.0267 87.6457 41.8509 87.3974 41.7464C87.1491 41.6419 86.8753 41.6135 86.6109 41.6649C86.3464 41.7162 86.1031 41.845 85.9119 42.0348C85.7207 42.2246 85.5902 42.4669 85.5369 42.7309C85.4836 42.995 85.51 43.269 85.6126 43.5181C85.7152 43.7672 85.8895 43.9802 86.1134 44.1301C86.3373 44.2799 86.6006 44.36 86.87 44.36C87.2069 44.3483 87.5275 44.2119 87.7696 43.9772C88.0116 43.7426 88.1579 43.4264 88.18 43.09L88.23 43.01ZM88.23 51.01C88.228 50.7414 88.1466 50.4795 87.9959 50.2571C87.8453 50.0348 87.6322 49.862 87.3835 49.7606C87.1349 49.6592 86.8617 49.6337 86.5986 49.6873C86.3354 49.7409 86.094 49.8712 85.9048 50.0618C85.7156 50.2524 85.5871 50.4948 85.5354 50.7583C85.4838 51.0218 85.5113 51.2948 85.6145 51.5427C85.7177 51.7906 85.892 52.0024 86.1155 52.1514C86.3389 52.3004 86.6014 52.38 86.87 52.38C87.2069 52.3683 87.5275 52.2319 87.7696 51.9972C88.0116 51.7626 88.1579 51.4464 88.18 51.11L88.23 51.01ZM88.23 59.01C88.23 58.741 88.1502 58.478 88.0008 58.2544C87.8514 58.0307 87.6389 57.8564 87.3904 57.7535C87.1419 57.6506 86.8685 57.6236 86.6047 57.6761C86.3409 57.7286 86.0985 57.8581 85.9083 58.0483C85.7181 58.2385 85.5886 58.4808 85.5361 58.7446C85.4836 59.0085 85.5106 59.2819 85.6135 59.5304C85.7164 59.7789 85.8908 59.9913 86.1144 60.1408C86.3381 60.2902 86.601 60.37 86.87 60.37C87.199 60.3596 87.5131 60.2302 87.754 60.0059C87.9949 59.7815 88.1463 59.4774 88.18 59.15L88.23 59.01ZM88.23 67.01C88.23 66.741 88.1502 66.478 88.0008 66.2544C87.8514 66.0307 87.6389 65.8564 87.3904 65.7535C87.1419 65.6506 86.8685 65.6236 86.6047 65.6761C86.3409 65.7286 86.0985 65.8581 85.9083 66.0483C85.7181 66.2385 85.5886 66.4808 85.5361 66.7446C85.4836 67.0085 85.5106 67.2819 85.6135 67.5304C85.7164 67.7789 85.8908 67.9913 86.1144 68.1408C86.3381 68.2902 86.601 68.37 86.87 68.37C87.1929 68.3609 87.5021 68.2372 87.7421 68.021C87.9821 67.8048 88.1374 67.5102 88.18 67.19L88.23 67.01ZM88.23 75.01C88.232 74.7406 88.1539 74.4766 88.0057 74.2517C87.8574 74.0267 87.6457 73.8509 87.3974 73.7464C87.1491 73.6419 86.8753 73.6135 86.6109 73.6649C86.3464 73.7162 86.1031 73.845 85.9119 74.0348C85.7207 74.2246 85.5902 74.4669 85.5369 74.7309C85.4836 74.995 85.51 75.269 85.6126 75.5181C85.7152 75.7672 85.8895 75.9802 86.1134 76.1301C86.3373 76.2799 86.6006 76.36 86.87 76.36C87.1841 76.3533 87.4862 76.2381 87.7251 76.034C87.9639 75.8298 88.1246 75.5492 88.18 75.24L88.23 75.01Z" fill="#845C3E"/>
<path d="M86.85 28.3599C87.5956 28.3599 88.2 27.7555 88.2 27.0099C88.2 26.2643 87.5956 25.6599 86.85 25.6599C86.1044 25.6599 85.5 26.2643 85.5 27.0099C85.5 27.7555 86.1044 28.3599 86.85 28.3599Z" fill="#513827"/>
<path d="M86.85 36.4C87.5956 36.4 88.2 35.7955 88.2 35.0499C88.2 34.3044 87.5956 33.7 86.85 33.7C86.1044 33.7 85.5 34.3044 85.5 35.0499C85.5 35.7955 86.1044 36.4 86.85 36.4Z" fill="#513827"/>
<path d="M86.85 41.72C87.119 41.718 87.3825 41.7959 87.6072 41.9437C87.832 42.0914 88.0078 42.3026 88.1126 42.5503C88.2173 42.7981 88.2463 43.0713 88.1957 43.3355C88.1452 43.5997 88.0175 43.8429 87.8287 44.0345C87.6399 44.2261 87.3985 44.3574 87.1351 44.4118C86.8717 44.4663 86.598 44.4413 86.3488 44.3402C86.0995 44.2391 85.8858 44.0664 85.7348 43.8439C85.5837 43.6213 85.502 43.359 85.5 43.09C85.4987 42.9114 85.5326 42.7343 85.5997 42.5688C85.6668 42.4033 85.7659 42.2526 85.8913 42.1254C86.0166 41.9982 86.1658 41.8969 86.3303 41.8273C86.4948 41.7578 86.6714 41.7213 86.85 41.72Z" fill="#513827"/>
<path d="M86.85 49.76C87.1198 49.7581 87.3841 49.8364 87.6093 49.9851C87.8345 50.1338 88.0104 50.346 88.1145 50.595C88.2187 50.8439 88.2465 51.1182 88.1943 51.3829C88.1422 51.6476 88.0124 51.8909 87.8216 52.0817C87.6308 52.2725 87.3876 52.4022 87.1228 52.4544C86.8581 52.5065 86.5838 52.4788 86.3349 52.3746C86.086 52.2704 85.8737 52.0945 85.725 51.8694C85.5764 51.6442 85.498 51.3799 85.5 51.1101C85.5026 50.7528 85.6457 50.411 85.8983 50.1583C86.1509 49.9057 86.4928 49.7627 86.85 49.76Z" fill="#513827"/>
<path d="M86.85 60.5C87.5956 60.5 88.2 59.8956 88.2 59.1501C88.2 58.4045 87.5956 57.8 86.85 57.8C86.1044 57.8 85.5 58.4045 85.5 59.1501C85.5 59.8956 86.1044 60.5 86.85 60.5Z" fill="#513827"/>
<path d="M86.85 68.5401C87.5956 68.5401 88.2 67.9357 88.2 67.1901C88.2 66.4445 87.5956 65.8401 86.85 65.8401C86.1044 65.8401 85.5 66.4445 85.5 67.1901C85.5 67.9357 86.1044 68.5401 86.85 68.5401Z" fill="#513827"/>
<path d="M86.85 76.5799C87.5956 76.5799 88.2 75.9755 88.2 75.2299C88.2 74.4843 87.5956 73.8799 86.85 73.8799C86.1044 73.8799 85.5 74.4843 85.5 75.2299C85.5 75.9755 86.1044 76.5799 86.85 76.5799Z" fill="#513827"/>
<path d="M86.85 84.6199C87.5956 84.6199 88.2 84.0155 88.2 83.2699C88.2 82.5243 87.5956 81.9199 86.85 81.9199C86.1044 81.9199 85.5 82.5243 85.5 83.2699C85.5 84.0155 86.1044 84.6199 86.85 84.6199Z" fill="#513827"/>
<path d="M84.47 83.28V266.69C84.4799 267.156 84.3264 267.612 84.036 267.977C83.7456 268.342 83.3367 268.594 82.88 268.69C82.56 268.76 82.27 268.83 81.96 268.88C70.96 271.21 62.83 271.5 54.48 269.1C53.9578 268.954 53.4975 268.642 53.169 268.21C52.8405 267.779 52.6618 267.252 52.66 266.71V265.71L78.45 22.71H84.45L84.47 83.28Z" fill="#937761"/>
<path d="M95.87 3.40257e-05H77.44C77.2435 2.95998e-05 77.0489 0.0388946 76.8675 0.114399C76.6861 0.189903 76.5214 0.300555 76.3829 0.439975C76.2444 0.579396 76.1348 0.74483 76.0605 0.926761C75.9863 1.10869 75.9487 1.30352 75.95 1.50003V21.22C75.9487 21.4165 75.9863 21.6114 76.0605 21.7933C76.1348 21.9752 76.2444 22.1407 76.3829 22.2801C76.5214 22.4195 76.6861 22.5302 76.8675 22.6057C77.0489 22.6812 77.2435 22.72 77.44 22.72H95.87C96.0669 22.7214 96.2621 22.6834 96.4441 22.6084C96.6262 22.5334 96.7914 22.4228 96.9302 22.2831C97.0689 22.1434 97.1784 21.9774 97.2522 21.7949C97.326 21.6123 97.3627 21.4169 97.36 21.22V13.04H94.43V18.25C94.43 18.6073 94.2895 18.9502 94.0388 19.2047C93.788 19.4592 93.4472 19.6048 93.09 19.61H80.24C79.8793 19.61 79.5334 19.4667 79.2783 19.2117C79.0233 18.9566 78.88 18.6107 78.88 18.25V4.45003C78.8826 4.09107 79.0271 3.74772 79.2819 3.49483C79.5366 3.24194 79.881 3.10002 80.24 3.10002H93.09C93.4455 3.10524 93.7848 3.24947 94.0353 3.5018C94.2857 3.75414 94.4274 4.09451 94.43 4.45003V9.66004H97.36V1.49002C97.3613 1.29398 97.3237 1.09964 97.2493 0.918262C97.1749 0.736887 97.0652 0.5721 96.9266 0.433475C96.7879 0.29485 96.6232 0.185145 96.4418 0.110737C96.2604 0.0363277 96.0661 -0.00129511 95.87 3.40257e-05Z" fill="#845C3E"/>
<path d="M78.45 22.72L52.66 265.72C52.6624 265.185 52.4912 264.664 52.172 264.235C51.8528 263.806 51.4029 263.492 50.89 263.34L48.89 262.73C48.5614 262.635 48.2167 262.608 47.8774 262.653C47.5382 262.697 47.2118 262.811 46.9188 262.988C46.6257 263.164 46.3724 263.399 46.1747 263.679C45.977 263.958 45.8392 264.275 45.77 264.61L45.11 267.7L74.67 20.8H75.99V21.26C75.9887 21.4565 76.0262 21.6514 76.1005 21.8333C76.1748 22.0152 76.2844 22.1807 76.4229 22.3201C76.5613 22.4595 76.726 22.5702 76.9075 22.6457C77.0889 22.7212 77.2835 22.76 77.48 22.76L78.45 22.72Z" fill="#845C3E"/>
<path d="M75.95 1.94995V20.7599H57.02C56.7548 20.7599 56.5004 20.6546 56.3129 20.4671C56.1253 20.2795 56.02 20.0252 56.02 19.7599V2.96996C56.02 2.70474 56.1253 2.45038 56.3129 2.26285C56.5004 2.07531 56.7548 1.96996 57.02 1.96996H75.95V1.94995ZM71.61 11.36C71.614 11.0878 71.5367 10.8205 71.3882 10.5924C71.2396 10.3643 71.0265 10.1856 70.776 10.0791C70.5254 9.97265 70.2488 9.94323 69.9815 9.99463C69.7142 10.046 69.4682 10.1759 69.275 10.3677C69.0818 10.5595 68.9501 10.8045 68.8967 11.0714C68.8434 11.3384 68.8707 11.6152 68.9753 11.8665C69.08 12.1178 69.2571 12.3323 69.4841 12.4825C69.7111 12.6327 69.9778 12.7119 70.25 12.7099C70.609 12.71 70.9534 12.568 71.2081 12.3152C71.4629 12.0623 71.6073 11.7189 71.61 11.36Z" fill="#5B4F45"/>
<path d="M74.63 20.76L45.07 267.66C44.9531 268.246 44.6292 268.771 44.1573 269.138C43.6854 269.506 43.0972 269.691 42.5 269.66C37.3861 269.354 32.3485 268.271 27.56 266.45C27.2528 266.331 26.9724 266.152 26.7352 265.923C26.498 265.695 26.3087 265.421 26.1783 265.119C26.048 264.816 25.9792 264.491 25.9761 264.161C25.973 263.832 26.0355 263.505 26.16 263.2C26.2752 262.9 26.3328 262.581 26.33 262.26L70.25 21.38V20.81L74.63 20.76Z" fill="#937761"/>
<path d="M70.25 10C70.5186 10.002 70.7805 10.0834 71.0028 10.2341C71.2252 10.3847 71.3979 10.5978 71.4993 10.8465C71.6007 11.0951 71.6262 11.3683 71.5726 11.6314C71.519 11.8946 71.3887 12.136 71.1982 12.3252C71.0076 12.5144 70.7652 12.6429 70.5017 12.6946C70.2381 12.7463 69.9652 12.7188 69.7173 12.6155C69.4693 12.5123 69.2575 12.338 69.1085 12.1146C68.9595 11.8911 68.88 11.6286 68.88 11.36C68.88 11.1806 68.9155 11.0029 68.9845 10.8373C69.0535 10.6716 69.1545 10.5212 69.2819 10.3948C69.4092 10.2684 69.5603 10.1684 69.7265 10.1007C69.8926 10.0329 70.0706 9.99872 70.25 10Z" fill="#845C3E"/>
<path d="M70.25 20.76V21.33L26.33 262.21C26.3288 261.701 26.1693 261.206 25.8736 260.792C25.578 260.378 25.1608 260.066 24.68 259.9L19.94 258.23C19.4761 258.066 18.9739 258.043 18.4969 258.164C18.0199 258.285 17.5895 258.545 17.26 258.91L16.4 259.91L66.34 20.81L70.25 20.76Z" fill="#845C3E"/>
<path d="M66.34 20.76L16.4 259.86L14.95 261.45C14.6922 261.741 14.3698 261.968 14.0086 262.112C13.6474 262.256 13.2575 262.314 12.87 262.28C8.77255 261.915 4.80212 260.67 1.23002 258.63C0.789598 258.37 0.43938 257.982 0.226599 257.517C0.0138176 257.052 -0.0512988 256.533 0.0400146 256.03C12.23 186.23 24.99 118.54 41.91 65.79C42.17 64.99 42.43 64.19 42.69 63.41C43.69 60.3 44.69 57.27 45.76 54.28C49.6566 42.8697 54.1631 31.677 59.26 20.75L66.34 20.76Z" fill="#937761"/>
<path d="M26.18 263.16L26.35 262.22C26.3528 262.541 26.2951 262.86 26.18 263.16Z" fill="#D8D0BB"/>
</g>
<defs>
<clipPath id="clip0_45_4443">
<rect width="168.95" height="273.79" fill="white"/>
</clipPath>
</defs>
</svg>
