<svg width="131" height="279" viewBox="0 0 131 279" fill="none" xmlns="http://www.w3.org/2000/svg">
<g clip-path="url(#clip0_55_5424)">
<path d="M85.99 277.65C85.53 273.99 85.47 270.3 84.9 266.65C82.19 249.39 80.08 232.04 78.78 214.65C78.07 205.74 76.78 196.89 75.78 188.01C74.78 179.36 73.99 170.69 73.11 162.01C72.0233 148.83 70.9667 135.65 69.94 122.47C69.62 116.4 69.13 110.34 68.39 104.31C68.02 100.74 67.39 97.2202 66.64 93.7102C66.64 93.5402 66.57 93.3702 66.54 93.2102C66.45 93.0702 66.37 92.9202 66.29 92.7802L66.23 92.6802L65.99 92.2702L65.75 91.8302L65.69 91.7202L65.47 91.3102C65.38 91.1502 65.3 90.9902 65.22 90.8302L64.98 90.3502C64.9 90.1902 64.82 90.0302 64.75 89.8702C64.68 89.7102 64.56 89.4802 64.48 89.2902L64.3 88.9102C64.24 88.7602 64.17 88.6202 64.11 88.4702L63.97 88.1402C63.58 87.2202 63.22 86.3002 62.88 85.3602C62.88 83.7202 62.88 82.0802 62.88 80.4302C62.88 79.9702 62.88 79.5102 62.88 79.0402C62.95 53.9902 63.16 28.9402 63.67 3.90022C63.67 3.61022 63.67 3.31022 63.67 3.02022C63.67 2.73022 63.67 2.43023 63.67 2.14023H64.74H65.59H65.73C78.95 1.70023 92.11 0.380219 105.35 0.270219C109.05 0.170219 112.76 0.270228 116.47 0.170228C117.62 0.170228 119.47 -0.389774 119.69 1.23023C119.706 1.36641 119.706 1.50405 119.69 1.64023C119.822 1.96305 119.923 2.29796 119.99 2.64023C120.184 3.69515 120.317 4.76019 120.39 5.83023C120.56 7.73023 120.64 9.40022 120.71 11.1502C120.77 12.1502 120.87 13.1502 120.89 14.2102C120.893 14.3828 120.869 14.5548 120.82 14.7202C121.11 15.0702 121.38 15.4202 121.64 15.7902C123.93 19.1002 124.89 23.1202 126.04 26.9302C129.09 37.2902 129.26 48.1402 129.04 58.8502C128.96 72.2202 128.7 85.5802 128.8 98.9402C128.21 133.22 128.69 167.5 129.62 201.76C129.85 207.24 130.42 212.7 130.44 218.19C130.51 232.19 130.53 246.19 130.2 260.19C130.2 264.84 129.95 269.49 129.66 274.13C129.66 275.13 129.58 276.05 129.52 277.01C129.52 277.21 129.52 277.41 129.52 277.62L126.98 277.55C125.9 277.55 124.83 277.49 123.75 277.48H120.56C116.413 277.48 112.263 277.48 108.11 277.48C104.11 277.48 100.06 277.48 96.04 277.56L89.89 277.65H85.99Z" fill="#354660"/>
<path d="M96.42 11.47C92.27 11.47 88.1401 11.04 83.9901 10.93C79.5601 10.8 75.12 10.93 70.69 11.17C69.19 11.17 67.6901 11.17 66.2101 11.1C65.6101 11.1 64.66 11.1 64.66 10.3C64.66 9.50002 65.8001 9.64001 66.4301 9.60001C67.8101 9.60001 69.19 9.60001 70.57 9.60001C74.48 9.41001 78.3 9.29001 82.2 9.32001C87.08 9.37001 91.9501 9.88001 96.8401 9.90001C102.84 9.90001 108.91 9.59001 114.95 9.65001H116.55C117.28 9.73001 118.55 9.42002 118.73 10.36C118.78 11 118.17 11.17 117.65 11.19C110.57 11.22 103.49 11.46 96.42 11.47Z" fill="#212F44"/>
<path d="M67.2599 2.02002C67.1999 4.76002 67.06 7.52003 67.02 10.25C67.0553 10.3491 67.0694 10.4545 67.0613 10.5593C67.0533 10.6642 67.0232 10.7661 66.9732 10.8586C66.9232 10.9511 66.8543 11.0321 66.7709 11.0962C66.6876 11.1604 66.5917 11.2063 66.4895 11.2309C66.3872 11.2556 66.281 11.2585 66.1776 11.2395C66.0742 11.2204 65.9759 11.1798 65.8892 11.1203C65.8025 11.0608 65.7293 10.9837 65.6743 10.8941C65.6193 10.8045 65.5837 10.7043 65.5699 10.6C65.5699 7.76002 65.63 4.92002 65.7 2.07002H65.7899L67.2599 2.02002Z" fill="#212F44"/>
<path d="M69.7701 9.05017C69.799 9.1375 69.8104 9.22966 69.8036 9.3214C69.7969 9.41313 69.7722 9.50264 69.7308 9.58482C69.6895 9.667 69.6324 9.74024 69.5628 9.80035C69.4932 9.86047 69.4124 9.90627 69.3251 9.93517C69.2377 9.96406 69.1456 9.97546 69.0538 9.96873C68.9621 9.96201 68.8726 9.93727 68.7904 9.89595C68.7082 9.85463 68.635 9.79753 68.5749 9.72791C68.5148 9.65828 68.4689 9.57749 68.44 9.49016C68.2002 7.37252 68.12 5.23984 68.2001 3.11017V1.98016L69.72 1.91016C69.71 4.29016 69.6801 6.67017 69.7701 9.05017Z" fill="#212F44"/>
<path d="M71.39 1.83003L72.74 1.77002C72.65 4.46002 72.55 7.15003 72.3 9.83003C72.2755 9.95795 72.2071 10.0733 72.1068 10.1563C72.0064 10.2393 71.8802 10.2847 71.75 10.2847C71.6197 10.2847 71.4935 10.2393 71.3932 10.1563C71.2928 10.0733 71.2245 9.95795 71.2 9.83003C71.32 7.16003 71.34 4.50003 71.39 1.83003Z" fill="#212F44"/>
<path d="M75.75 9.43983C75.7726 9.54179 75.7739 9.64729 75.7538 9.74977C75.7338 9.85225 75.6929 9.94951 75.6336 10.0355C75.5743 10.1214 75.498 10.1943 75.4093 10.2494C75.3206 10.3045 75.2216 10.3408 75.1182 10.356C75.0149 10.3711 74.9096 10.3648 74.8088 10.3375C74.708 10.3101 74.614 10.2623 74.5325 10.197C74.451 10.1316 74.3839 10.0502 74.3353 9.95782C74.2867 9.86541 74.2577 9.76396 74.25 9.65982C74.12 6.99982 74.25 4.33982 74.33 1.65982L75.92 1.56982C75.86 4.20982 75.67 6.82983 75.75 9.43983Z" fill="#212F44"/>
<path d="M78.94 8.55992C78.94 9.01992 79.12 9.47992 78.94 9.91992C78.8567 10.1022 78.7163 10.2523 78.5399 10.3475C78.3635 10.4426 78.1609 10.4775 77.9628 10.447C77.7648 10.4164 77.5821 10.322 77.4426 10.1782C77.3031 10.0343 77.2144 9.84882 77.19 9.64992C77.07 6.94992 77.06 4.23992 77.09 1.52992L78.91 1.41992C78.94 3.82992 78.92 6.21992 78.94 8.55992Z" fill="#212F44"/>
<path d="M80.45 1.32999L82.01 1.22998C82.01 2.39998 81.92 3.56998 81.87 4.72998C81.79 6.39998 81.69 8.06998 81.67 9.72998C81.7056 9.97057 81.6523 10.2159 81.52 10.42C81.4264 10.5297 81.3015 10.6083 81.162 10.6453C81.0226 10.6823 80.8752 10.676 80.7394 10.6271C80.6037 10.5783 80.4861 10.4892 80.4022 10.3718C80.3183 10.2544 80.2722 10.1142 80.27 9.96999C80.27 7.08999 80.35 4.20999 80.45 1.32999Z" fill="#212F44"/>
<path d="M83.55 1.14005L85.16 1.04004C85.16 3.27004 85.16 5.51004 85.07 7.74004C85.07 8.47004 85.07 9.20004 85.01 9.93004C84.9833 10.1031 84.8945 10.2605 84.7601 10.3728C84.6258 10.4851 84.4551 10.5445 84.2801 10.54C83.3901 10.49 83.58 9.43005 83.55 8.80005C83.55 7.53005 83.55 6.26004 83.55 4.99004C83.55 3.72004 83.55 2.42005 83.55 1.14005Z" fill="#212F44"/>
<path d="M88.48 0.839981L89.86 0.72998C89.8 2.25998 89.7301 3.77999 89.6201 5.29999C89.5101 6.81999 89.42 8.10997 89.32 9.51997C89.2968 9.63548 89.2343 9.73939 89.1432 9.81404C89.052 9.88869 88.9379 9.92949 88.82 9.92949C88.7022 9.92949 88.588 9.88869 88.4969 9.81404C88.4057 9.73939 88.3433 9.63548 88.32 9.51997C88.26 6.72997 88.38 3.72998 88.48 0.839981Z" fill="#212F44"/>
<path d="M93.3 9.39983C93.3466 9.53913 93.3535 9.68868 93.3199 9.83168C93.2862 9.97468 93.2133 10.1055 93.1095 10.2094C93.0056 10.3132 92.8748 10.3861 92.7318 10.4197C92.5888 10.4534 92.4393 10.4465 92.3 10.3998C91.66 10.2298 91.67 9.47983 91.64 8.92982C91.61 8.37982 91.58 8.08982 91.56 7.65982C91.46 5.33982 91.35 3.01982 91.34 0.659821L93.17 0.569824C93.17 1.66982 93.17 2.76983 93.17 3.86983C93.22 5.72983 93.27 7.55983 93.3 9.39983Z" fill="#212F44"/>
<path d="M96.34 0.439941C96.1867 2.47994 96.05 4.51327 95.93 6.53993C95.87 7.63993 95.79 8.73993 95.68 9.83994C95.6586 9.97692 95.5925 10.103 95.4922 10.1987C95.3918 10.2943 95.2627 10.3542 95.1248 10.369C94.987 10.3838 94.8481 10.3527 94.7297 10.2806C94.6113 10.2084 94.52 10.0993 94.47 9.96994C94.42 6.90994 94.66 3.79993 94.85 0.729935C94.85 0.659935 94.85 0.579933 94.85 0.509933L96.34 0.439941Z" fill="#212F44"/>
<path d="M100.03 0.310059C99.84 2.17006 99.69 4.04005 99.6 5.91005C99.54 6.91005 99.49 7.86005 99.39 8.82005C99.39 9.34005 99.24 10.0001 98.58 9.90005C97.58 9.77005 98.08 7.80006 98 7.05006C98 5.40006 98.06 3.75006 98.16 2.11006C98.16 1.53006 98.25 0.950056 98.3 0.370056L100.03 0.310059Z" fill="#212F44"/>
<path d="M104.97 0.209961C104.92 0.889961 104.85 1.56997 104.78 2.27997C104.61 4.59997 104.37 6.92997 104.4 9.27997C104.429 9.39348 104.434 9.51173 104.415 9.62729C104.396 9.74285 104.353 9.85323 104.289 9.95151C104.226 10.0498 104.142 10.1338 104.045 10.1984C103.947 10.263 103.837 10.3066 103.722 10.3267C103.606 10.3467 103.488 10.3427 103.374 10.3148C103.26 10.287 103.154 10.236 103.06 10.1649C102.967 10.0939 102.89 10.0043 102.833 9.90196C102.776 9.79958 102.741 9.68655 102.73 9.56996C102.625 7.72812 102.625 5.8818 102.73 4.03996C102.79 2.77996 102.87 1.51996 102.95 0.269958L104.97 0.209961Z" fill="#212F44"/>
<path d="M109.21 0.149902C109.05 3.1499 108.94 6.3299 108.61 9.3199C108.601 9.46642 108.601 9.61339 108.61 9.7599C108.602 9.95531 108.518 10.1399 108.376 10.2744C108.234 10.4089 108.045 10.4827 107.85 10.4799C106.94 10.4299 107.15 9.3799 107.12 8.7399C107.12 7.4599 107.21 6.1899 107.23 4.9099C107.28 3.3299 107.28 1.7399 107.41 0.159897L109.21 0.149902Z" fill="#212F44"/>
<path d="M110.72 0.140137H112.72C112.442 1.70886 112.288 3.29715 112.26 4.89014C112.26 6.60014 112.19 8.32013 112.21 10.0201C112.202 10.1604 112.151 10.2947 112.064 10.4047C111.976 10.5147 111.857 10.5949 111.722 10.6344C111.587 10.6738 111.444 10.6706 111.311 10.625C111.178 10.5795 111.062 10.494 110.98 10.3801C110.826 10.0698 110.75 9.72643 110.76 9.38013C110.69 8.48013 110.65 7.58013 110.61 6.68013C110.447 4.50135 110.483 2.31218 110.72 0.140137Z" fill="#212F44"/>
<path d="M116.53 0.100098H116.88C116.72 1.9801 116.55 3.7901 116.49 5.7101C116.49 7.1001 116.37 8.4801 116.37 9.8701C116.38 10.0187 116.36 10.1678 116.309 10.308C116.259 10.4481 116.18 10.5762 116.077 10.684C115.974 10.7918 115.85 10.8769 115.712 10.9339C115.574 10.9909 115.426 11.0185 115.278 11.015C115.129 11.0115 114.982 10.977 114.847 10.9136C114.712 10.8502 114.592 10.7593 114.495 10.6469C114.397 10.5344 114.324 10.4027 114.28 10.2604C114.236 10.118 114.223 9.96804 114.24 9.8201C114.31 7.7101 114.33 5.5901 114.4 3.4801C114.4 2.3701 114.5 1.2601 114.59 0.150101L116.53 0.100098Z" fill="#212F44"/>
<path d="M66.55 81.5302C66.3771 81.5007 66.2226 81.4046 66.1198 81.2625C66.0169 81.1204 65.9739 80.9437 66 80.7702C66.17 79.0402 66.32 77.3102 66.5 75.5802C66.87 70.8402 67.73 66.0602 68.16 61.3502C68.59 56.6402 68.59 51.6402 68.68 46.7702C69.04 37.6802 69.06 28.5802 68.83 19.4802C68.83 18.5302 68.83 17.5902 68.78 16.6502C68.78 15.9902 68.62 14.5702 69.65 14.8202C69.7796 14.8794 69.8817 14.9858 69.9356 15.1178C69.9895 15.2497 69.991 15.3972 69.94 15.5302C69.88 17.0202 70.09 18.5302 70.11 19.9902C70.46 26.8502 70.82 33.6802 70.66 40.5502C70.48 46.7102 70.49 52.8902 70 59.0302C69.62 64.1102 68.63 69.1102 68 74.1702C67.85 75.7102 67.68 77.2502 67.51 78.7902C67.43 79.5202 67.38 80.2502 67.29 80.9702C67.2628 81.141 67.1705 81.2947 67.0326 81.3991C66.8947 81.5034 66.7218 81.5504 66.55 81.5302Z" fill="#212F44"/>
<path d="M129.76 273.34C129.76 273.6 129.76 273.85 129.76 274.11C129.76 274.37 129.76 274.73 129.76 275.04C127.39 275.09 125.03 274.93 122.67 274.82C110.36 274.3 98.03 274.73 85.73 274.13C85.73 273.7 85.66 273.26 85.63 272.83C98.71 273.19 111.81 272.61 124.88 273.2C126.45 273.27 128.1 273.32 129.76 273.34Z" fill="#212F44"/>
<path d="M125.86 37.6001C119.908 33.4277 115.05 27.8807 111.7 21.4301C110.06 18.1801 108.07 14.9601 107.41 11.3401C107.378 11.2548 107.364 11.164 107.368 11.0731C107.371 10.9822 107.393 10.8929 107.431 10.8102C107.469 10.7276 107.523 10.6532 107.589 10.5915C107.656 10.5297 107.735 10.4816 107.82 10.4501C107.905 10.4186 107.996 10.4042 108.087 10.4078C108.178 10.4113 108.267 10.4327 108.35 10.4708C108.433 10.5089 108.507 10.5628 108.569 10.6296C108.63 10.6964 108.678 10.7748 108.71 10.8601C108.79 11.0701 108.85 11.2901 108.93 11.5001C109.795 13.753 110.838 15.9333 112.05 18.0201C113.672 21.1675 115.549 24.1775 117.66 27.0201C120.09 30.3301 123.25 33.0201 126.19 35.8101C126.63 36.2701 127.46 36.8101 126.94 37.5201C126.807 37.673 126.619 37.7671 126.416 37.7821C126.214 37.797 126.014 37.7317 125.86 37.6001Z" fill="#212F44"/>
<path d="M126.56 43.0599C124.241 41.9575 122.002 40.6944 119.86 39.2799C117.628 37.6736 115.626 35.7692 113.91 33.6199C111.519 30.793 109.292 27.8315 107.24 24.7499C105.683 21.9893 104.455 19.056 103.58 16.0099C103.28 15.0099 102.96 14.0099 102.69 13.0099C102.59 12.5999 102.39 12.0699 102.69 11.7099C102.754 11.6408 102.831 11.5856 102.917 11.5479C103.003 11.5102 103.096 11.4907 103.19 11.4907C103.284 11.4907 103.377 11.5102 103.463 11.5479C103.549 11.5856 103.626 11.6408 103.69 11.7099C103.909 12.0753 104.077 12.469 104.19 12.8799C104.6 13.9599 104.98 15.0599 105.38 16.1499C106.532 19.6142 108.219 22.877 110.38 25.8199C112.68 28.7299 114.89 31.7299 117.38 34.4899C120 37.4899 123.48 39.4399 126.91 41.3399C128.25 41.6699 127.86 43.4599 126.56 43.0599Z" fill="#212F44"/>
<path d="M44.55 278.07C45 274.42 45.06 270.72 45.64 267.07C48.35 249.81 50.45 232.46 51.76 215.07C52.46 206.16 53.76 197.31 54.76 188.44C55.76 179.78 56.56 171.11 57.43 162.44C58.5166 149.26 59.5733 136.08 60.5999 122.9C60.93 116.83 61.4199 110.78 62.1599 104.74C62.546 101.177 63.1134 97.6354 63.86 94.1299C63.86 93.9599 63.92 93.7999 63.96 93.6299C64.04 93.4899 64.13 93.3499 64.21 93.1999L64.27 93.0999L64.51 92.6899L64.75 92.2499L64.81 92.1499L65.03 91.7299C65.11 91.5699 65.19 91.4099 65.28 91.2499L65.52 90.7699L65.75 90.2899L66.02 89.7099L66.1899 89.3299C66.2599 89.1799 66.32 89.0399 66.38 88.8899L66.53 88.5599C66.91 87.6499 67.27 86.7199 67.61 85.7899C67.61 84.1399 67.61 82.4999 67.61 80.8599V79.4699C67.53 54.4199 67.33 29.3699 66.81 4.31989C66.81 4.02989 66.81 3.7399 66.81 3.4399C66.81 3.1399 66.81 2.8599 66.81 2.5599C66.45 2.5599 66.09 2.5599 65.73 2.5599H64.89H64.75C51.53 2.1199 38.3699 0.809896 25.1299 0.699896C21.4199 0.589896 17.72 0.69989 14.01 0.59989C12.86 0.59989 11.01 0.0298897 10.78 1.59989C10.7799 1.73808 10.7967 1.87577 10.83 2.00989C10.6862 2.34587 10.5854 2.69866 10.53 3.0599C10.3315 4.11069 10.1979 5.17269 10.1299 6.23989C9.95995 8.13989 9.87997 9.8199 9.80997 11.5599C9.74997 12.5599 9.64995 13.5599 9.62995 14.6199C9.62296 14.796 9.64666 14.9719 9.69996 15.1399C9.40996 15.4799 9.12997 15.8299 8.86997 16.1999C6.58997 19.5199 5.61995 23.5399 4.46994 27.3399C1.46994 37.6999 1.24995 48.5499 1.46995 59.2599C1.54995 72.6299 1.80996 85.9899 1.69996 99.3599C2.28996 133.63 1.81996 167.91 0.889959 202.17C0.649958 207.65 0.0799719 213.11 0.0599719 218.6C-2.80589e-05 232.6 -0.0200281 246.6 0.309972 260.6C0.309972 265.25 0.54995 269.9 0.84995 274.54C0.84995 275.54 0.919955 276.46 0.979955 277.42V278.03L3.51996 277.96C4.58996 277.96 5.66996 277.91 6.73996 277.9H9.95997C14.1066 277.9 18.26 277.9 22.42 277.9C26.42 277.9 30.47 277.9 34.49 277.98C36.5433 278.02 38.5933 278.047 40.64 278.06H44.54L44.55 278.07Z" fill="#354660"/>
<path d="M34.1201 11.8902C38.2701 11.8902 42.4 11.4602 46.54 11.3502C50.98 11.2202 55.42 11.3502 59.85 11.5902C61.34 11.5902 62.85 11.5902 64.33 11.5302C64.92 11.5302 65.87 11.5302 65.88 10.7202C65.89 9.91017 64.74 10.0602 64.1 10.0202C62.73 10.0202 61.34 10.0202 59.97 10.0202C56.06 9.83016 52.2401 9.70016 48.3401 9.74016C43.4501 9.74016 38.58 10.2902 33.7 10.3102C27.7 10.3102 21.62 10.0002 15.58 10.0702H13.99C13.26 10.1502 11.9901 9.83016 11.8101 10.7702C11.7601 11.4102 12.36 11.5802 12.89 11.6002C19.96 11.6402 27.0401 11.8802 34.1201 11.8902Z" fill="#212F44"/>
<path d="M63.28 2.43994C63.33 5.18994 63.48 7.93994 63.52 10.6699C63.4785 10.77 63.4591 10.8778 63.4631 10.986C63.4672 11.0942 63.4947 11.2003 63.5437 11.2969C63.5927 11.3935 63.662 11.4784 63.7469 11.5456C63.8318 11.6129 63.9302 11.6609 64.0355 11.6865C64.1407 11.7121 64.2502 11.7146 64.3565 11.6938C64.4628 11.673 64.5634 11.6294 64.6512 11.5661C64.7391 11.5028 64.8122 11.4211 64.8655 11.3269C64.9188 11.2326 64.951 11.1279 64.96 11.0199C64.96 8.17993 64.9 5.33993 64.84 2.48993H64.75L63.28 2.43994Z" fill="#212F44"/>
<path d="M60.7601 9.46985C60.7017 9.64622 60.7158 9.83853 60.7993 10.0045C60.8827 10.1705 61.0287 10.2965 61.2051 10.3548C61.3814 10.4132 61.5738 10.3991 61.7397 10.3156C61.9057 10.2322 62.0317 10.0862 62.0901 9.90984C62.3332 7.79244 62.4168 5.65977 62.3401 3.52985V2.39984L60.8201 2.33984C60.8601 4.72984 60.8601 7.09985 60.7601 9.46985Z" fill="#212F44"/>
<path d="M59.14 2.25993L57.79 2.18994C57.89 4.87994 57.99 7.57994 58.23 10.2499C58.23 10.3958 58.288 10.5357 58.3911 10.6388C58.4943 10.742 58.6342 10.7999 58.7801 10.7999C58.9259 10.7999 59.0658 10.742 59.1689 10.6388C59.2721 10.5357 59.33 10.3958 59.33 10.2499C59.21 7.57994 59.2 4.91993 59.14 2.25993Z" fill="#212F44"/>
<path d="M54.79 9.87C54.7762 9.96783 54.7818 10.0674 54.8065 10.1631C54.8312 10.2587 54.8745 10.3486 54.9339 10.4276C54.9934 10.5065 55.0678 10.5729 55.1529 10.6231C55.238 10.6733 55.3322 10.7062 55.43 10.72C55.5278 10.7338 55.6274 10.7282 55.7231 10.7035C55.8187 10.6788 55.9086 10.6355 55.9875 10.576C56.0665 10.5166 56.1329 10.4422 56.1831 10.3571C56.2333 10.272 56.2662 10.1778 56.28 10.08C56.41 7.42 56.33 4.76 56.21 2.08L54.62 2C54.72 4.63 54.86 7.25 54.79 9.87Z" fill="#212F44"/>
<path d="M51.6 8.98984C51.6 9.43984 51.42 9.89984 51.6 10.3398C51.6826 10.5219 51.8222 10.6721 51.9978 10.7678C52.1734 10.8634 52.3753 10.8992 52.5731 10.8699C52.7709 10.8405 52.9536 10.7475 53.0938 10.6049C53.234 10.4624 53.3239 10.2781 53.35 10.0798C53.46 7.36985 53.47 4.65984 53.45 1.94984L51.62 1.83984C51.6 4.24984 51.61 6.63984 51.6 8.98984Z" fill="#212F44"/>
<path d="M50.09 1.72989L48.53 1.62988C48.53 2.79988 48.61 3.96989 48.67 5.13989C48.75 6.79989 48.84 8.46989 48.87 10.1399C48.8345 10.3805 48.8878 10.6258 49.02 10.8299C49.1142 10.9403 49.24 11.0191 49.3804 11.0558C49.5208 11.0925 49.669 11.0853 49.8052 11.0352C49.9414 10.9851 50.059 10.8945 50.1421 10.7755C50.2252 10.6566 50.2698 10.515 50.27 10.3699C50.26 7.50989 50.19 4.62989 50.09 1.72989Z" fill="#212F44"/>
<path d="M46.98 1.55997L45.37 1.45996C45.37 3.68996 45.42 5.92996 45.46 8.15996C45.46 8.88996 45.46 9.62996 45.53 10.35C45.5544 10.5222 45.6413 10.6794 45.774 10.7919C45.9067 10.9043 46.0761 10.9641 46.25 10.96C47.14 10.96 46.96 9.84997 46.99 9.21997C46.99 7.94997 46.99 6.67996 46.99 5.40996C46.99 4.13996 46.99 2.83997 46.98 1.55997Z" fill="#212F44"/>
<path d="M42.06 1.25993L40.6899 1.18994C40.7399 2.70994 40.82 4.18994 40.92 5.74994L41.2199 9.96994C41.2432 10.0854 41.3057 10.1893 41.3968 10.264C41.488 10.3386 41.6021 10.3794 41.7199 10.3794C41.8378 10.3794 41.9519 10.3386 42.0431 10.264C42.1342 10.1893 42.1967 10.0854 42.2199 9.96994C42.2699 7.09994 42.15 4.17993 42.06 1.25993Z" fill="#212F44"/>
<path d="M37.23 9.81999C37.1872 9.95899 37.1831 10.107 37.2182 10.2482C37.2532 10.3893 37.326 10.5183 37.4289 10.6211C37.5317 10.7239 37.6607 10.7968 37.8018 10.8318C37.943 10.8669 38.091 10.8628 38.23 10.82C38.88 10.65 38.86 9.9 38.9 9.36C38.94 8.82 38.96 8.51 38.98 8.09C39.08 5.77 39.19 3.44 39.2 1.09L37.36 1C37.36 2.1 37.36 3.2 37.36 4.3C37.31 6.15 37.27 7.97999 37.23 9.81999Z" fill="#212F44"/>
<path d="M34.2 0.870117C34.34 2.87012 34.4899 4.93011 34.5999 6.96011C34.6699 8.06011 34.7499 9.16012 34.8499 10.2601C34.875 10.3957 34.9433 10.5196 35.0444 10.6133C35.1456 10.707 35.2743 10.7655 35.4115 10.7801C35.5486 10.7947 35.6868 10.7647 35.8054 10.6944C35.9241 10.6241 36.0169 10.5174 36.0699 10.3901C36.0699 7.33012 35.8699 4.22012 35.6899 1.15012C35.6899 1.08012 35.6899 1.01011 35.6899 0.930115L34.2 0.870117Z" fill="#212F44"/>
<path d="M30.51 0.72998C30.69 2.59998 30.85 4.45999 30.94 6.32999C31 7.32999 31.05 8.32998 31.14 9.24998C31.14 9.75998 31.29 10.42 31.95 10.33C32.95 10.19 32.45 8.21999 32.54 7.46999C32.54 5.82999 32.48 4.17998 32.38 2.52998C32.38 1.94998 32.29 1.36998 32.23 0.789978L30.51 0.72998Z" fill="#212F44"/>
<path d="M25.5601 0.629883C25.6201 1.30988 25.6801 1.98988 25.7501 2.70988C25.9301 5.01988 26.16 7.34988 26.13 9.70988C26.111 9.8202 26.1139 9.93317 26.1385 10.0424C26.1631 10.1516 26.209 10.2549 26.2736 10.3463C26.3381 10.4378 26.42 10.5156 26.5146 10.5755C26.6092 10.6353 26.7147 10.6758 26.825 10.6949C26.9354 10.7139 27.0483 10.7111 27.1575 10.6864C27.2667 10.6618 27.37 10.6159 27.4615 10.5514C27.553 10.4869 27.6308 10.4049 27.6906 10.3103C27.7504 10.2157 27.791 10.1102 27.8101 9.99989C27.92 8.1582 27.92 6.31159 27.8101 4.46989C27.7501 3.20989 27.6801 1.95989 27.5901 0.69989L25.5601 0.629883Z" fill="#212F44"/>
<path d="M21.3199 0.569824C21.4899 3.56982 21.59 6.74982 21.92 9.73982C21.9335 9.88617 21.9335 10.0335 21.92 10.1798C21.9213 10.277 21.9417 10.373 21.9801 10.4623C22.0185 10.5515 22.0741 10.6324 22.1437 10.7002C22.2134 10.768 22.2957 10.8214 22.386 10.8573C22.4763 10.8933 22.5728 10.9111 22.67 10.9098C23.59 10.8598 23.38 9.79982 23.4 9.15982C23.4 7.88982 23.3099 6.60983 23.2899 5.33983C23.2899 3.74983 23.29 2.16983 23.11 0.589828L21.3199 0.569824Z" fill="#212F44"/>
<path d="M19.86 0.569824H17.86C18.1384 2.13854 18.2922 3.72684 18.32 5.31982C18.32 7.02982 18.39 8.74982 18.32 10.4598C18.3272 10.6019 18.3788 10.7381 18.4675 10.8493C18.5562 10.9605 18.6775 11.0411 18.8144 11.0798C18.9513 11.1184 19.0969 11.1132 19.2306 11.0647C19.3644 11.0163 19.4796 10.9272 19.56 10.8098C19.7092 10.4978 19.7845 10.1556 19.78 9.80983C19.84 8.91983 19.89 8.00983 19.93 7.10983C20.0974 4.93196 20.0739 2.74361 19.86 0.569824Z" fill="#212F44"/>
<path d="M14.01 0.529785H13.66C13.82 2.39979 13.99 4.21978 14.05 6.12978C14.05 7.51978 14.17 8.89978 14.16 10.2898C14.16 10.5736 14.2728 10.8457 14.4734 11.0464C14.6741 11.2471 14.9463 11.3598 15.23 11.3598C15.5138 11.3598 15.786 11.2471 15.9867 11.0464C16.1873 10.8457 16.3 10.5736 16.3 10.2898C16.23 8.17978 16.21 6.05978 16.14 3.94978C16.14 2.83978 16.04 1.72978 15.95 0.619781L14.01 0.529785Z" fill="#212F44"/>
<path d="M63.98 81.9501C64.1547 81.923 64.3117 81.8279 64.4166 81.6855C64.5215 81.5431 64.5658 81.3651 64.54 81.1901C64.36 79.4601 64.22 77.7301 64.04 76.0001C63.66 71.2701 62.81 66.4801 62.38 61.7801C61.93 56.9301 61.95 52.0601 61.86 47.2001C61.5 38.1001 61.47 29.0001 61.71 19.9001C61.71 18.9601 61.71 18.0101 61.71 17.0701C61.71 16.4101 61.88 14.9901 60.85 15.2401C60.718 15.2994 60.6141 15.4075 60.56 15.5417C60.506 15.6759 60.506 15.8259 60.56 15.9601C60.61 17.4401 60.41 18.9601 60.39 20.4101C60.03 27.2801 59.68 34.1001 59.84 40.9701C60.02 47.1301 60 53.3101 60.49 59.4501C60.87 64.5401 61.87 69.5401 62.49 74.5901C62.65 76.1301 62.82 77.6701 62.99 79.2101C63.06 79.9401 63.12 80.6701 63.21 81.3901C63.2221 81.4782 63.2518 81.563 63.2975 81.6393C63.3432 81.7156 63.4038 81.7819 63.4757 81.8342C63.5476 81.8865 63.6294 81.9237 63.716 81.9437C63.8027 81.9636 63.8925 81.9658 63.98 81.9501Z" fill="#212F44"/>
<path d="M0.780029 273.73C0.780029 273.99 0.780029 274.25 0.780029 274.5C0.780029 274.75 0.780017 275.13 0.830017 275.43C3.19002 275.43 5.56001 275.32 7.92001 275.22C20.22 274.69 32.55 275.12 44.85 274.52C44.85 274.09 44.92 273.66 44.95 273.22C31.87 273.58 18.78 273.01 5.70001 273.59C4.09001 273.73 2.43003 273.73 0.780029 273.73Z" fill="#212F44"/>
<path d="M4.68996 38.0301C10.6461 33.8552 15.507 28.3048 18.86 21.8501C20.5 18.6101 22.49 15.3801 23.15 11.7701C23.3 10.9301 22.25 10.4501 21.85 11.2801C21.76 11.4901 21.7 11.7101 21.62 11.9201C20.7586 14.1728 19.7186 16.3531 18.51 18.4401C16.8899 21.5888 15.0136 24.599 12.9 27.4401C10.46 30.7501 7.30998 33.4401 4.36998 36.2401C3.91998 36.6901 3.09998 37.2401 3.61998 37.9401C3.75287 38.0893 3.93792 38.1818 4.13701 38.1985C4.33609 38.2153 4.53401 38.155 4.68996 38.0301Z" fill="#212F44"/>
<path d="M3.98001 43.4898C6.2957 42.3779 8.53409 41.1117 10.68 39.6998C12.9126 38.0938 14.9146 36.1894 16.63 34.0398C19.0255 31.2191 21.2495 28.2571 23.29 25.1698C24.8509 22.4112 26.0794 19.4774 26.95 16.4298C27.25 15.4298 27.58 14.4298 27.85 13.4298C27.94 13.0198 28.14 12.4898 27.85 12.1298C27.7863 12.0607 27.709 12.0056 27.623 11.9678C27.5369 11.9301 27.444 11.9106 27.35 11.9106C27.256 11.9106 27.1631 11.9301 27.0771 11.9678C26.991 12.0056 26.9137 12.0607 26.85 12.1298C26.6278 12.4949 26.4563 12.8885 26.34 13.2998C25.94 14.3898 25.56 15.4798 25.15 16.5698C23.9926 20.035 22.3059 23.3003 20.15 26.2498C17.84 29.1598 15.64 32.1598 13.15 34.9098C10.52 37.9098 7.05001 39.9098 3.61001 41.7598C2.28001 42.0898 2.64001 43.8898 3.98001 43.4898Z" fill="#212F44"/>
<path d="M65.44 88.6297C65.3484 88.6223 65.2591 88.5965 65.1776 88.554C65.096 88.5116 65.0237 88.4532 64.965 88.3824C64.9063 88.3116 64.8624 88.2297 64.8358 88.1417C64.8092 88.0537 64.8004 87.9612 64.8101 87.8698C64.8901 87.1998 64.9701 86.5298 65.0701 85.8698C65.3101 84.2698 65.5201 82.6798 65.7701 81.0798C66.8301 75.2698 67.65 69.4098 68.44 63.5498C68.62 62.8698 68.2101 61.7098 69.1201 61.4898C69.3049 61.4662 69.4917 61.5141 69.6423 61.6238C69.7929 61.7335 69.8958 61.8966 69.9301 62.0798C69.9519 63.723 69.8382 65.3652 69.5901 66.9898C68.9601 71.9298 68.3101 76.8598 67.3401 81.7398C67.0601 83.4798 66.9001 85.0498 66.5401 86.7398C66.2901 87.3598 66.39 88.6497 65.44 88.6297Z" fill="#223249"/>
<path d="M64.57 11.9002C64.4179 11.8812 64.2754 11.816 64.1615 11.7134C64.0476 11.6109 63.9679 11.4759 63.933 11.3267C63.8981 11.1774 63.9098 11.0211 63.9665 10.8787C64.0232 10.7363 64.1221 10.6147 64.25 10.5302C64.7726 10.3784 65.3161 10.3109 65.86 10.3302C67.2169 10.2622 68.569 10.1187 69.91 9.90023C70.0866 9.87129 70.2678 9.90826 70.419 10.0041C70.5702 10.1 70.6808 10.2481 70.73 10.4202C70.7831 10.6085 70.7605 10.8101 70.6671 10.9819C70.5737 11.1538 70.4168 11.2824 70.23 11.3402C68.3796 11.7956 66.4737 11.9842 64.57 11.9002Z" fill="#223249"/>
<path d="M65.62 10.9398C65.5301 9.66516 65.51 8.38658 65.56 7.10978C65.56 5.63978 65.45 4.17977 65.5 2.70977C65.5074 2.62334 65.5321 2.53928 65.5726 2.46254C65.613 2.38581 65.6685 2.31794 65.7356 2.26296C65.8027 2.20797 65.8801 2.16698 65.9633 2.14238C66.0465 2.11779 66.1337 2.11011 66.2199 2.11977C66.323 2.13515 66.4215 2.17273 66.5087 2.22989C66.5958 2.28706 66.6695 2.36246 66.7246 2.45089C66.7798 2.53931 66.8151 2.63865 66.8281 2.74205C66.8411 2.84545 66.8315 2.95045 66.8 3.04978C66.8 3.71978 66.88 4.37978 66.93 5.04978C67.08 6.98978 67.01 8.94977 66.99 10.8998C66.9752 11.0682 66.899 11.2253 66.776 11.3413C66.653 11.4573 66.4917 11.5241 66.3228 11.529C66.1538 11.534 65.9888 11.4767 65.8593 11.3681C65.7297 11.2595 65.6446 11.107 65.62 10.9398Z" fill="#223249"/>
<path d="M23.32 124.79C22.81 123.06 25.23 122.22 25.52 124.1C25.52 124.05 25.52 124 25.52 123.95C26.29 125.73 23.65 126.81 23.32 124.79Z" fill="#3F5C89"/>
<path d="M23.56 140.82C23.7 139.61 22.86 137.45 24.45 137.01C26.28 136.93 25.83 139.52 26.12 140.74C26.1252 140.908 26.0973 141.076 26.0379 141.233C25.9784 141.39 25.8885 141.534 25.7734 141.657C25.6582 141.78 25.52 141.878 25.3667 141.947C25.2135 142.017 25.0481 142.055 24.88 142.06C24.7119 142.065 24.5444 142.037 24.3871 141.978C24.2298 141.919 24.0857 141.829 23.9631 141.713C23.8406 141.598 23.7419 141.46 23.6727 141.307C23.6035 141.154 23.5652 140.988 23.56 140.82Z" fill="#3F5C89"/>
<path d="M28.41 131.82C28.55 130.63 27.79 126.53 30.04 127.95C30.34 128.28 30.19 128.74 30.19 129.09C30.19 129.98 30.19 130.87 30.26 131.76C30.2447 131.99 30.1444 132.207 29.9785 132.367C29.8125 132.528 29.5928 132.621 29.3622 132.628C29.1315 132.636 28.9063 132.557 28.7303 132.408C28.5543 132.258 28.4401 132.049 28.41 131.82Z" fill="#3F5C89"/>
<path d="M92.95 79.1302C92.01 78.1802 92.48 76.5201 92.22 75.2801C92.1847 75.1311 92.1842 74.9759 92.2184 74.8266C92.2525 74.6773 92.3206 74.5378 92.4172 74.419C92.5138 74.3001 92.6365 74.2051 92.7757 74.1411C92.9149 74.0772 93.0669 74.046 93.22 74.0502C94.4 74.0502 94.29 75.4602 94.54 76.2302C94.99 77.5402 95.04 80.1402 92.95 79.1302Z" fill="#3F5C89"/>
<path d="M93.45 96.91C93.23 95.46 92.63 93.0101 94.78 92.8501C96.93 92.6901 96.36 95.04 96.61 96.41C96.6669 96.8248 96.5589 97.2453 96.3093 97.5813C96.0597 97.9174 95.6883 98.1422 95.2749 98.2076C94.8614 98.273 94.4388 98.1738 94.0977 97.9313C93.7565 97.6887 93.524 97.3221 93.45 96.91Z" fill="#3F5C89"/>
<path d="M97.5001 84.8998C97.5701 84.2498 97.5 83.1998 98.4 83.1598C99.3 83.1198 99.32 84.1598 99.46 84.8398C99.4797 84.9775 99.4704 85.1177 99.4328 85.2516C99.3952 85.3854 99.3301 85.51 99.2416 85.6172C99.1531 85.7245 99.0433 85.8122 98.9191 85.8746C98.7948 85.937 98.6589 85.9729 98.52 85.9798C98.38 85.9831 98.2409 85.9569 98.1117 85.9029C97.9824 85.849 97.866 85.7685 97.7698 85.6667C97.6736 85.5649 97.5999 85.444 97.5535 85.3119C97.507 85.1798 97.4888 85.0394 97.5001 84.8998Z" fill="#3F5C89"/>
<path d="M88.79 134.4C88.91 133.05 87.79 130.88 88.52 129.86C90.52 128.95 90.8 132.56 91.42 133.8C91.468 133.976 91.48 134.159 91.4552 134.34C91.4304 134.52 91.3693 134.694 91.2757 134.85C91.1821 135.006 91.0579 135.142 90.9105 135.249C90.7631 135.356 90.5955 135.432 90.418 135.472C90.2405 135.513 90.0566 135.517 89.8774 135.484C89.6982 135.452 89.5274 135.384 89.3753 135.284C89.2232 135.183 89.093 135.054 88.9924 134.902C88.8918 134.75 88.823 134.579 88.79 134.4Z" fill="#3F5C89"/>
<path d="M94.55 145.84C94.532 145.441 94.6339 145.046 94.8424 144.705C95.051 144.365 95.3567 144.095 95.7202 143.929C96.0837 143.764 96.4884 143.711 96.8821 143.778C97.2758 143.845 97.6405 144.028 97.9293 144.304C98.2181 144.579 98.4177 144.935 98.5024 145.326C98.5872 145.716 98.5532 146.122 98.4048 146.493C98.2564 146.864 98.0005 147.182 97.6699 147.406C97.3394 147.63 96.9493 147.75 96.55 147.75C96.0348 147.751 95.5393 147.552 95.1667 147.196C94.7941 146.841 94.5732 146.355 94.55 145.84Z" fill="#3F5C89"/>
<path d="M99.07 139.12C98.07 138.12 98.5901 136.44 98.3101 135.17C98.302 134.84 98.4246 134.52 98.6513 134.281C98.878 134.041 99.1903 133.9 99.5201 133.89C100.83 133.82 100.85 135.41 100.87 136.27C101.19 137.64 101.13 140.15 99.07 139.12Z" fill="#3F5C89"/>
<path d="M19.07 52.4198C18.96 51.4198 18.71 49.5198 20.25 49.5898C21.61 49.7598 21.19 51.2598 21.19 52.2198C21.1885 52.4852 21.0885 52.7405 20.9094 52.9363C20.7302 53.1321 20.4847 53.2543 20.2205 53.2792C19.9563 53.3041 19.6923 53.23 19.4797 53.0712C19.267 52.9124 19.121 52.6802 19.07 52.4198Z" fill="#3F5C89"/>
<path d="M20.9099 64.73C20.1899 63.95 20.59 62.73 20.68 61.73C20.7944 61.4591 21.0058 61.2408 21.2728 61.1177C21.5398 60.9946 21.8431 60.9756 22.1234 61.0644C22.4037 61.1533 22.6407 61.3435 22.788 61.598C22.9354 61.8524 22.9824 62.1527 22.92 62.44C23.42 63.95 22.6599 65.94 20.9099 64.73Z" fill="#3F5C89"/>
<path d="M23.65 58.9198C23.65 57.2898 22.72 54.1298 25.3 54.1898C27.52 54.5198 26.52 57.2698 26.82 58.8198C26.8034 59.2211 26.6356 59.6013 26.3502 59.884C26.0648 60.1666 25.683 60.3308 25.2815 60.3434C24.88 60.3561 24.4886 60.2163 24.186 59.9522C23.8833 59.6882 23.6919 59.3193 23.65 58.9198Z" fill="#3F5C89"/>
<path d="M109.12 246.98C109.38 245.75 108.22 243.17 110.12 243.07C111.6 243.48 111.23 245.69 111.42 246.91C111.379 247.18 111.244 247.427 111.039 247.609C110.834 247.79 110.572 247.894 110.299 247.902C110.026 247.91 109.758 247.822 109.543 247.654C109.327 247.486 109.178 247.247 109.12 246.98Z" fill="#3F5C89"/>
<path d="M107.51 256.4C106.92 252.31 110.58 253.08 109.7 255.26C110.21 257.38 108.06 258.47 107.51 256.4Z" fill="#3F5C89"/>
</g>
<defs>
<clipPath id="clip0_55_5424">
<rect width="130.53" height="278.08" fill="white"/>
</clipPath>
</defs>
</svg>
