<svg width="171" height="175" viewBox="0 0 171 175" fill="none" xmlns="http://www.w3.org/2000/svg">
<g clip-path="url(#clip0_55_5733)">
<path d="M18.11 3.81998C18.11 3.81998 33.5 0 85.36 0C137.22 0 152.62 3.81998 152.62 3.81998L80.62 25.59L18.11 3.81998Z" fill="#171D26"/>
<path d="M152.62 3.81982C136.62 9.27982 85.36 14.5398 85.36 14.5398C85.36 14.5398 34.08 9.27982 18.11 3.81982C18.11 3.81982 0.659963 109.75 1.49996 141.69C1.49996 141.69 45.64 152.2 79.5 152.41C79.5 152.41 78.24 107.86 85.38 107.86C92.52 107.86 91.27 152.41 91.27 152.41C125.11 152.2 169.27 141.69 169.27 141.69C170.07 109.75 152.62 3.81982 152.62 3.81982Z" fill="#28313F"/>
<path d="M1.49998 141.69C0.0248886 147.883 -0.354174 154.286 0.379976 160.61C0.379976 160.61 30.88 178.43 79.48 173.68V152.41C45.64 152.21 1.49998 141.69 1.49998 141.69Z" fill="#445166"/>
<path d="M169.27 141.69C170.751 147.882 171.134 154.286 170.4 160.61C170.4 160.61 139.92 178.43 91.29 173.68V152.41C125.13 152.21 169.27 141.69 169.27 141.69Z" fill="#445166"/>
<path d="M152.62 3.81982C136.62 9.27982 85.3599 14.5398 85.3599 14.5398C85.3599 14.5398 34.0799 9.27982 18.1099 3.81982C18.1099 3.81982 17.1099 9.63985 15.6899 18.9698C15.6899 18.9698 59.2599 31.6198 85.3599 31.6198C111.46 31.6198 155.04 18.9698 155.04 18.9698C153.58 9.63985 152.62 3.81982 152.62 3.81982Z" fill="#445166"/>
<path d="M90.82 22.8399C90.82 23.9237 90.4986 24.9832 89.8964 25.8844C89.2943 26.7856 88.4384 27.488 87.4371 27.9027C86.4357 28.3175 85.3339 28.426 84.2709 28.2146C83.2079 28.0031 82.2314 27.4812 81.465 26.7148C80.6986 25.9484 80.1767 24.972 79.9653 23.909C79.7538 22.846 79.8624 21.7441 80.2771 20.7428C80.6919 19.7414 81.3943 18.8856 82.2955 18.2834C83.1966 17.6813 84.2561 17.3599 85.34 17.3599C86.7934 17.3599 88.1872 17.9372 89.2149 18.9649C90.2426 19.9926 90.82 21.3865 90.82 22.8399Z" fill="#28313F"/>
<path d="M87.23 22.8402C87.232 23.2169 87.122 23.5856 86.914 23.8996C86.706 24.2135 86.4093 24.4586 86.0618 24.6037C85.7142 24.7487 85.3313 24.7872 84.9618 24.7142C84.5923 24.6412 84.2529 24.46 83.9866 24.1937C83.7202 23.9274 83.5391 23.5879 83.4661 23.2184C83.3931 22.8489 83.4316 22.4661 83.5766 22.1185C83.7216 21.7709 83.9667 21.4743 84.2807 21.2663C84.5947 21.0582 84.9634 20.9482 85.34 20.9502C85.8405 20.9528 86.3197 21.1528 86.6736 21.5067C87.0274 21.8606 87.2274 22.3398 87.23 22.8402Z" fill="#445166"/>
<path d="M85.36 31.6199V107.86C85.36 107.86 101.05 103.7 102.15 97.1199C103.25 90.5399 102.15 30.3599 102.15 30.3599C102.15 30.3599 88.83 31.6899 85.36 31.6199Z" fill="#445166"/>
<path d="M11.25 48.3901C11.25 48.3901 37.62 42.7901 50.91 27.3901L55.64 28.2901C55.64 28.2901 40.31 48.7401 10.64 52.4901L11.25 48.3901Z" fill="#445166"/>
<path d="M159.57 48.3901C159.57 48.3901 133.2 42.7901 119.91 27.3901L115.18 28.2901C115.18 28.2901 130.52 48.7401 160.18 52.4901L159.57 48.3901Z" fill="#445166"/>
</g>
<defs>
<clipPath id="clip0_55_5733">
<rect width="170.77" height="174.48" fill="white"/>
</clipPath>
</defs>
</svg>
