<svg width="79" height="92" viewBox="0 0 79 92" fill="none" xmlns="http://www.w3.org/2000/svg">
<g clip-path="url(#clip0_55_5679)">
<path d="M71.66 43.9998C73.1666 47.3331 74.63 50.6831 76.05 54.0498C76.9669 56.1573 77.6932 58.3427 78.22 60.5798C78.6485 61.8828 78.6239 63.2925 78.15 64.5798C77.6104 65.4698 76.8352 66.1931 75.91 66.6698C74.46 67.6698 73.03 68.6698 71.58 69.5998C69.3803 71.1821 67.0167 72.5232 64.53 73.5998C61.98 74.6998 59.35 75.5998 56.76 76.5998C48.39 80.2398 40.09 84.0298 31.65 87.5198C28.09 88.8298 24.73 90.8498 20.96 91.5198C18.52 91.7698 17.39 90.5798 16.17 88.6598C14.1227 85.6592 12.3902 82.4556 11 79.0998C6.31998 68.2898 2.22997 57.0998 0.589972 45.3898C0.118446 41.2908 -0.078656 37.165 -2.41436e-05 33.0398C-2.41436e-05 30.6998 0.279955 28.3698 0.509955 26.0398C0.690393 23.8819 1.05846 21.7438 1.60996 19.6498C2.41476 17.2375 3.41819 14.8962 4.60996 12.6498C5.8568 10.0318 7.48817 7.6151 9.44996 5.47978C11.3126 3.68891 13.5961 2.39583 16.09 1.71978C18.6932 0.920908 21.3757 0.407886 24.09 0.189778C28.3957 0.00852436 32.7008 0.563146 36.82 1.82978C40.0397 3.00667 43.0383 4.71724 45.69 6.88978C47.99 8.79978 50.38 10.6298 52.49 12.7498C55.9772 16.8324 59.1433 21.1787 61.96 25.7498C63.04 27.4798 64.21 29.1698 65.25 30.9398C67.64 35.1398 69.52 39.5598 71.66 43.9998Z" fill="#919191"/>
<path d="M73.95 51.0798L74.65 50.7598C74.8 51.0998 74.95 51.4398 75.09 51.7598C71.71 53.2598 68.35 54.7598 64.96 56.2898C61.15 57.8798 57.18 59.2898 53.42 60.9798C48.03 63.4498 42.7899 66.2598 37.3499 68.6198C32.3499 70.7798 27.35 72.8398 22.4 75.0598C19.1403 76.6409 15.8027 78.056 12.4 79.2998L11.31 79.6898L11.02 78.9998L10.83 78.5498C11.83 78.1898 12.89 77.8098 13.92 77.4198C16.64 76.4198 19.25 75.0898 21.92 73.8998C26.51 71.8998 31.2399 69.8298 35.8499 67.8998C41.5699 65.4998 47.05 62.5998 52.69 60.0398C56.53 58.3398 60.5 56.9398 64.39 55.3498C67.57 53.9898 70.75 52.5098 73.95 51.0798Z" fill="#4C4C4C"/>
<path d="M21.2599 90.7601L21.53 91.3301L20.96 91.4401H20.7599C19.3099 88.4401 17.85 85.3501 16.31 82.3401C15.9 81.5301 15.46 80.7301 15.03 79.9201C14.7507 79.4165 14.497 78.8992 14.27 78.3701C14.2202 78.2345 14.2202 78.0857 14.27 77.9501C14.38 77.5601 15.0199 77.8201 14.8799 78.1801C17.0799 82.2901 19.2399 86.5101 21.2599 90.7601Z" fill="#4C4C4C"/>
<path d="M18.2201 76.8799C19.0301 78.9999 20.0901 81.0099 20.9801 83.0899C22.0801 85.5799 23.0801 88.0899 24.1001 90.6099C23.8301 90.7099 23.5501 90.7999 23.2801 90.8799C22.4701 88.8799 21.7101 86.7799 20.8601 84.7599C20.0101 82.7399 19.2701 81.0599 18.4601 79.1899C18.0776 78.437 17.7856 77.6414 17.5901 76.8199C17.5801 76.2899 18.2801 76.4399 18.2201 76.8799Z" fill="#4C4C4C"/>
<path d="M20.25 75.8302C22.2005 79.4194 23.8947 83.142 25.32 86.9701L26.4 89.7201L25.51 90.0801C23.8801 85.475 21.9938 80.9646 19.86 76.5702C19.69 76.4902 19.65 76.2702 19.6 76.1102C19.5815 76.0282 19.5923 75.9424 19.6304 75.8675C19.6685 75.7927 19.7316 75.7335 19.8088 75.7003C19.8859 75.667 19.9722 75.6618 20.0528 75.6855C20.1334 75.7093 20.2032 75.7604 20.25 75.8302Z" fill="#4C4C4C"/>
<path d="M21.77 75.29C21.7863 75.2151 21.8249 75.1469 21.8806 75.0943C21.9363 75.0417 22.0067 75.0072 22.0824 74.9953C22.1581 74.9834 22.2356 74.9947 22.3048 75.0277C22.374 75.0606 22.4316 75.1137 22.4701 75.18C22.9101 76.07 23.39 76.94 23.83 77.83C25.11 80.42 26.3401 83.06 27.5001 85.71L28.78 88.71L27.85 89.12C27.1 87.29 26.38 85.44 25.58 83.66C24.78 81.88 23.94 80.02 23.08 78.23C22.66 77.34 22.19 76.47 21.8 75.57C21.7545 75.484 21.7438 75.3837 21.77 75.29Z" fill="#4C4C4C"/>
<path d="M25.8499 73.4199C27.9799 78.0299 29.9599 82.6999 31.8499 87.4199L31.6299 87.5099L30.74 87.8499C30.22 86.4799 29.74 85.1099 29.15 83.7599C27.81 80.3399 26.31 77.1299 24.87 73.7599C24.8249 73.63 24.8333 73.4874 24.8933 73.3637C24.9533 73.2399 25.06 73.145 25.19 73.0999C25.3199 73.0549 25.4625 73.0632 25.5862 73.1233C25.71 73.1833 25.8049 73.29 25.8499 73.4199Z" fill="#4C4C4C"/>
<path d="M28.78 71.9699C29.14 71.8999 29.23 72.3399 29.33 72.5799C31.19 77.0899 32.98 81.6499 34.9 86.1299L33.99 86.5099C33.71 85.7699 33.42 85.0199 33.12 84.2699C31.6 80.2699 30.04 76.3499 28.55 72.3899C28.5363 72.3472 28.5314 72.3022 28.5357 72.2576C28.5399 72.213 28.5532 72.1697 28.5747 72.1304C28.5963 72.0911 28.6255 72.0566 28.6608 72.029C28.6961 72.0014 28.7367 71.9813 28.78 71.9699Z" fill="#4C4C4C"/>
<path d="M31.5199 70.6102C32.0299 70.4602 32.0799 71.0702 32.2399 71.3902C34.0299 75.9102 35.8499 80.4402 37.7899 84.8902L36.87 85.2802C36.58 84.5402 36.28 83.8002 35.97 83.0702C34.38 79.0702 32.7899 75.1502 31.2899 71.1502C31.2674 71.1 31.2555 71.0455 31.255 70.9904C31.2545 70.9353 31.2654 70.8807 31.287 70.83C31.3086 70.7793 31.3404 70.7336 31.3805 70.6958C31.4206 70.658 31.4681 70.6289 31.5199 70.6102Z" fill="#4C4C4C"/>
<path d="M34.79 69.2898C34.79 69.1705 34.8375 69.056 34.9218 68.9716C35.0062 68.8873 35.1207 68.8398 35.2401 68.8398C35.3594 68.8398 35.4739 68.8873 35.5583 68.9716C35.6426 69.056 35.6901 69.1705 35.6901 69.2898C37.0901 73.1998 38.6901 77.0398 40.3401 80.8498C40.6901 81.6598 41.0401 82.4798 41.4001 83.2898L40.4001 83.7098C40.0701 82.8898 39.7401 82.0798 39.4001 81.2798C38.1901 78.3798 37.05 75.4598 35.92 72.5298C35.4784 71.4736 35.101 70.3916 34.79 69.2898Z" fill="#4C4C4C"/>
<path d="M38.95 68.3699C40.9 72.5599 42.68 76.8499 44.49 81.0799C44.6 81.3299 44.71 81.5799 44.81 81.8299L43.91 82.2299C43.03 80.0899 42.17 77.9299 41.27 75.8399C40.49 73.9999 39.72 72.1699 38.9 70.3499C38.5458 69.6442 38.2385 68.916 37.98 68.1699C37.9762 68.1028 37.9874 68.0357 38.013 67.9735C38.0385 67.9113 38.0776 67.8556 38.1275 67.8105C38.1774 67.7654 38.2367 67.7321 38.3012 67.7129C38.3657 67.6938 38.4336 67.6894 38.5 67.6999C38.85 67.7599 38.84 68.1099 38.95 68.3699Z" fill="#4C4C4C"/>
<path d="M48.19 80.34L47.19 80.78C46.09 78.3 45.06 75.78 43.98 73.32V73.38C42.93 70.96 41.74 68.57 40.74 66.14C40.7069 66.0849 40.6861 66.0233 40.6788 65.9594C40.6715 65.8956 40.678 65.8309 40.6978 65.7697C40.7177 65.7086 40.7504 65.6524 40.7937 65.6049C40.8371 65.5575 40.8901 65.5199 40.9492 65.4946C41.0084 65.4694 41.0722 65.4571 41.1365 65.4586C41.2007 65.4601 41.2639 65.4754 41.3218 65.5034C41.3797 65.5314 41.4309 65.5714 41.472 65.6209C41.5131 65.6703 41.5431 65.728 41.56 65.79C43.48 70.08 45.51 74.33 47.38 78.65C47.66 79.21 47.92 79.78 48.19 80.34Z" fill="#4C4C4C"/>
<path d="M45.7699 65.1002C47.6299 69.2402 49.56 73.4402 51.31 77.6002L51.81 78.7402L50.81 79.1802C50.19 77.7002 49.5799 76.1802 48.9599 74.7602C47.6199 71.6302 46.1999 68.5302 44.8299 65.4102C44.8096 65.3484 44.8016 65.2833 44.8064 65.2185C44.8112 65.1537 44.8287 65.0905 44.858 65.0324C44.8872 64.9744 44.9277 64.9227 44.9769 64.8803C45.0261 64.8378 45.0832 64.8055 45.1449 64.7852C45.2067 64.7648 45.2718 64.7568 45.3366 64.7616C45.4014 64.7664 45.4647 64.784 45.5227 64.8132C45.5807 64.8425 45.6324 64.8829 45.6749 64.9321C45.7173 64.9813 45.7496 65.0384 45.7699 65.1002Z" fill="#4C4C4C"/>
<path d="M55.22 77.2902L54.22 77.7302C53.45 76.0202 52.69 74.3002 51.87 72.6102C51.05 70.9202 50.1699 69.1002 49.2899 67.3602C48.7875 66.4507 48.3466 65.5086 47.97 64.5402C47.97 64.0102 48.59 64.1102 48.74 64.5402C51.09 68.6402 53.19 72.9302 55.22 77.2902Z" fill="#4C4C4C"/>
<path d="M54.22 67.2901C55.54 70.1001 56.7 72.9801 57.89 75.8501L58.0099 76.1301L56.94 76.5401C56.05 74.5401 55.29 72.3901 54.39 70.3401C53.92 69.3401 53.49 68.2801 53 67.2701C52.23 65.5801 51.22 63.9901 50.59 62.2701C50.5906 62.1527 50.6294 62.0388 50.7006 61.9455C50.7717 61.8521 50.8713 61.7846 50.9843 61.7529C51.0974 61.7213 51.2176 61.7273 51.3269 61.7701C51.4361 61.8129 51.5285 61.8901 51.59 61.9901C52.35 63.7601 53.42 65.4501 54.22 67.2901Z" fill="#4C4C4C"/>
<path d="M60.93 75.02L59.93 75.37C58.85 72.89 57.82 70.37 56.71 67.91C56 66.33 55.27 64.76 54.56 63.17C54.36 62.72 54.16 62.27 53.99 61.81C53.92 61.61 53.8 61.36 53.93 61.17C53.9763 61.1051 54.0414 61.0559 54.1165 61.0291C54.1916 61.0022 54.2731 60.9991 54.35 61.02C54.6 61.09 54.64 61.39 54.75 61.59C55.06 62.34 55.42 63.07 55.75 63.81C57.57 67.51 59.21 71.29 60.93 75.02Z" fill="#4C4C4C"/>
<path d="M56.95 58.29C57.1079 58.235 57.2811 58.244 57.4325 58.315C57.5838 58.386 57.7014 58.5134 57.76 58.67C59.19 62.36 60.76 66 62.22 69.67C62.78 71.06 63.37 72.45 63.99 73.82L62.79 74.31C61.02 70.43 59.64 66.37 57.95 62.47C57.77 61.41 55.81 58.94 56.95 58.29Z" fill="#4C4C4C"/>
<path d="M61.64 57.3398C64.04 61.9698 66.11 66.7598 68.05 71.5998L68.14 71.8098C67.83 71.9898 67.51 72.1698 67.19 72.3298C66.75 71.2398 66.34 70.1398 65.89 69.0498C64.36 65.1698 62.64 61.4598 60.78 57.7398C60.7323 57.682 60.6986 57.6141 60.6813 57.5413C60.6639 57.4685 60.6635 57.3927 60.6801 57.3197C60.6966 57.2467 60.7297 57.1784 60.7767 57.1202C60.8237 57.062 60.8835 57.0153 60.9513 56.9837C61.0192 56.9521 61.0934 56.9365 61.1682 56.9381C61.2431 56.9397 61.3165 56.9583 61.383 56.9927C61.4495 57.0271 61.5073 57.0763 61.5518 57.1364C61.5963 57.1966 61.6265 57.2661 61.64 57.3398Z" fill="#4C4C4C"/>
<path d="M64.7201 56.6098C64.7055 56.4772 64.7441 56.3442 64.8276 56.2401C64.9111 56.136 65.0324 56.0694 65.165 56.0548C65.2976 56.0402 65.4306 56.0789 65.5347 56.1623C65.6388 56.2458 65.7055 56.3672 65.7201 56.4998C67.6601 60.9198 69.6001 65.3198 71.3401 69.8198L70.4001 70.4498C69.8401 68.9698 69.2801 67.4498 68.6801 66.0398C67.7701 63.7698 66.81 61.5198 65.83 59.2898C65.3976 58.4236 65.0267 57.5281 64.7201 56.6098Z" fill="#4C4C4C"/>
<path d="M71.38 61.0702C72.38 63.3102 73.25 65.5902 74.25 67.8202L73.45 68.3702C72.85 66.9602 72.31 65.5202 71.73 64.1002C70.57 61.1002 69.14 58.2902 67.91 55.3602C67.8281 55.2035 67.8033 55.0232 67.84 54.8502C67.8659 54.7725 67.9156 54.705 67.982 54.6571C68.0484 54.6093 68.1282 54.5835 68.21 54.5835C68.2919 54.5835 68.3717 54.6093 68.4381 54.6571C68.5045 54.705 68.5542 54.7725 68.58 54.8502C69.0084 56.0058 69.506 57.1345 70.07 58.2302L71.38 61.0702Z" fill="#4C4C4C"/>
<path d="M71.7299 52.1499C72.1399 51.8499 72.5 52.1499 72.5 52.6299C73.42 55.3199 74.59 57.9099 75.69 60.5199C76.38 62.1099 77.04 63.6999 77.69 65.2799C77.4565 65.5567 77.1914 65.805 76.9 66.0199C75.99 63.8399 75.13 61.6299 74.18 59.4599C73.4 57.5899 72.6099 55.7099 71.9199 53.7899C71.8299 53.2899 71.3199 52.5499 71.7299 52.1499Z" fill="#4C4C4C"/>
<path d="M75.52 53.6698C76.17 54.8398 76.76 56.0398 77.3 57.2698C77.6739 58.3551 77.9877 59.4601 78.24 60.5798C78.4815 61.4617 78.5761 62.3772 78.52 63.2898C77.2486 59.6566 75.6311 56.1538 73.6901 52.8298C73.6078 52.7091 73.5769 52.5607 73.6041 52.4173C73.6313 52.2738 73.7144 52.147 73.835 52.0648C73.9557 51.9826 74.1041 51.9517 74.2476 51.9789C74.391 52.0061 74.5178 52.0891 74.6 52.2098C74.9362 52.6772 75.2434 53.1648 75.52 53.6698Z" fill="#4C4C4C"/>
<path d="M13.67 81.54C14.98 84.54 16.27 87.54 17.72 90.54C17.1098 89.9514 16.5878 89.2778 16.17 88.54C15.57 87.64 14.99 86.73 14.44 85.81C13.54 83.81 12.6801 81.71 11.9101 79.61C11.8814 79.5051 11.8917 79.3934 11.939 79.2956C11.9864 79.1977 12.0675 79.1203 12.1675 79.0776C12.2675 79.035 12.3795 79.0299 12.4829 79.0634C12.5863 79.097 12.6741 79.1668 12.73 79.26C13.06 80.04 13.35 80.81 13.67 81.54Z" fill="#4C4C4C"/>
<path d="M12.32 10.3502C12.2556 10.365 12.189 10.3668 12.1239 10.3557C12.0588 10.3445 11.9966 10.3206 11.9408 10.2853C11.885 10.2499 11.8368 10.2039 11.7989 10.1498C11.761 10.0958 11.7342 10.0347 11.72 9.97022C11.62 9.32022 11.57 8.68022 11.52 8.04022C11.47 7.40022 11.36 5.55022 12.18 5.28022C12.2977 5.25406 12.421 5.27224 12.5261 5.33128C12.6313 5.39032 12.711 5.48608 12.75 5.60022C12.7779 5.67604 12.787 5.75749 12.7765 5.8376C12.7661 5.91771 12.7364 5.9941 12.69 6.06022C12.5816 6.4614 12.5245 6.87469 12.52 7.29022C12.52 8.13022 12.58 8.97022 12.68 9.81022C12.6962 9.92865 12.6685 10.0489 12.6022 10.1484C12.5359 10.2478 12.4355 10.3196 12.32 10.3502Z" fill="#4C4C4C"/>
<path d="M15.06 19.2902C15.0081 19.3093 14.953 19.3181 14.8977 19.3159C14.8425 19.3137 14.7882 19.3006 14.7381 19.2773C14.6879 19.2541 14.6428 19.2212 14.6054 19.1805C14.568 19.1398 14.539 19.0921 14.52 19.0402C14.1 17.6202 13.69 16.2002 13.36 14.7602C13.3556 14.7061 13.3629 14.6517 13.3813 14.6007C13.3997 14.5496 13.4289 14.5031 13.4668 14.4642C13.5047 14.4254 13.5504 14.3951 13.601 14.3754C13.6516 14.3558 13.7058 14.3472 13.76 14.3502C13.8551 14.3591 13.9441 14.401 14.0117 14.4685C14.0793 14.5361 14.1211 14.6251 14.13 14.7202C14.32 15.3702 14.52 16.0202 14.71 16.7202L15.32 18.8002C15.3436 18.8995 15.3302 19.004 15.2824 19.0942C15.2345 19.1844 15.1555 19.2541 15.06 19.2902Z" fill="#4C4C4C"/>
<path d="M17.01 11.88C16.8932 11.9193 16.7657 11.9121 16.654 11.86C16.5423 11.8079 16.455 11.7148 16.41 11.6C15.63 9.6 14.9 7.59999 14.2 5.65999C14.06 5.27999 13.79 4.65999 14.36 4.47999C14.4307 4.47023 14.5026 4.47511 14.5713 4.49433C14.64 4.51355 14.704 4.54671 14.7594 4.59173C14.8147 4.63675 14.8602 4.69268 14.893 4.75604C14.9258 4.81939 14.9452 4.88881 14.95 4.95999C15.59 6.95999 16.39 8.81999 17.09 10.75C17.23 11.13 17.52 11.67 17.01 11.88Z" fill="#4C4C4C"/>
<path d="M20.27 10.2899C19.2 8.52991 18.14 6.76991 16.95 5.08991L16.1 3.91991C16.0323 3.82046 16.007 3.69821 16.0295 3.58006C16.052 3.46191 16.1205 3.35754 16.22 3.28991C16.3194 3.22228 16.4417 3.19693 16.5598 3.21944C16.678 3.24194 16.7823 3.31046 16.85 3.40991C18.361 5.44974 19.7662 7.56586 21.06 9.74991C21.1199 9.85465 21.1381 9.9781 21.1111 10.0957C21.0841 10.2133 21.0138 10.3164 20.9142 10.3845C20.8146 10.4526 20.693 10.4806 20.5736 10.4631C20.4542 10.4456 20.3458 10.3838 20.27 10.2899Z" fill="#4C4C4C"/>
<path d="M26.19 10.7999C23.72 8.15985 21.59 4.97986 18.27 3.34986C18.1707 3.31384 18.0871 3.24399 18.0341 3.15257C17.9811 3.06115 17.9619 2.95399 17.98 2.84986C18.07 2.41986 18.54 2.41985 18.84 2.63985C21.31 3.86985 23.17 5.97986 24.97 8.00986L26.89 10.1799C26.9579 10.2744 26.9882 10.3907 26.9753 10.5063C26.9623 10.6219 26.907 10.7286 26.8199 10.8058C26.7328 10.8829 26.6201 10.925 26.5038 10.9239C26.3874 10.9228 26.2757 10.8786 26.19 10.7999Z" fill="#4C4C4C"/>
<path d="M28.78 7.10013C27.0773 5.66528 25.2462 4.38991 23.31 3.29013C23.2185 3.24756 23.1205 3.22052 23.02 3.21013C22.923 3.23435 22.8205 3.22477 22.7296 3.18296C22.6387 3.14115 22.5648 3.0696 22.52 2.98013C22.28 2.42013 22.96 2.21013 23.39 2.38013C24.335 2.75176 25.2235 3.25325 26.03 3.87014C27.18 4.68014 28.34 5.48014 29.44 6.37014C29.5117 6.46293 29.5484 6.57794 29.5438 6.69506C29.5393 6.81219 29.4937 6.924 29.4151 7.01094C29.3365 7.09789 29.2298 7.15446 29.1138 7.17076C28.9977 7.18706 28.8796 7.16207 28.78 7.10013Z" fill="#4C4C4C"/>
<path d="M9.17001 13.7098C8.27001 13.7098 8.64002 12.4998 8.59002 11.9198C8.63441 10.3247 8.97345 8.75155 9.59002 7.27977C9.78095 6.88662 10.0619 6.54401 10.41 6.27977C10.5254 6.2127 10.6619 6.19165 10.7921 6.22082C10.9224 6.24999 11.0369 6.32723 11.1126 6.43711C11.1884 6.54699 11.2199 6.68142 11.2009 6.81354C11.1819 6.94566 11.1137 7.06573 11.01 7.14977C9.92001 8.14977 9.80003 10.5798 9.69003 11.9798C9.57003 12.5298 9.97001 13.5798 9.17001 13.7098Z" fill="#4C4C4C"/>
<path d="M19 75.9199C18.9032 75.9519 18.7976 75.9447 18.706 75.8998C18.6144 75.855 18.5441 75.776 18.51 75.6799C18.37 75.2799 18.2 74.8799 18.05 74.4799L16.7 70.9899C16.38 70.1799 16.07 69.3699 15.76 68.5599C15.7276 68.4617 15.7345 68.3548 15.7793 68.2615C15.824 68.1683 15.9031 68.096 16 68.0599C16.0486 68.0425 16.1001 68.035 16.1516 68.0376C16.2031 68.0403 16.2536 68.0532 16.3001 68.0755C16.3466 68.0978 16.3882 68.1292 16.4225 68.1677C16.4568 68.2062 16.4832 68.2511 16.5 68.2999C17.14 69.8899 17.74 71.5099 18.35 73.1199C18.65 73.8899 18.92 74.6599 19.23 75.4299C19.2625 75.5254 19.2567 75.6299 19.2138 75.7213C19.1709 75.8127 19.0943 75.8839 19 75.9199Z" fill="#4C4C4C"/>
<path d="M16.24 76.5501C15.7943 75.5932 15.4036 74.6116 15.07 73.6101L14.07 70.7901C14.0496 70.733 14.0407 70.6724 14.0438 70.6119C14.0469 70.5513 14.0618 70.4919 14.0878 70.4371C14.1138 70.3824 14.1503 70.3332 14.1953 70.2926C14.2403 70.2519 14.2929 70.2205 14.35 70.2001C14.4071 70.1798 14.4677 70.1709 14.5283 70.1739C14.5888 70.177 14.6482 70.1919 14.703 70.2179C14.7578 70.2439 14.8069 70.2805 14.8476 70.3255C14.8882 70.3704 14.9197 70.423 14.94 70.4801C15.29 71.4101 15.63 72.3401 15.94 73.2701C16.25 74.2001 16.61 75.2701 17.06 76.1901C17.0788 76.2921 17.0627 76.3974 17.0141 76.489C16.9656 76.5807 16.8875 76.6532 16.7925 76.6949C16.6976 76.7365 16.5914 76.7449 16.4911 76.7186C16.3908 76.6924 16.3023 76.633 16.24 76.5501Z" fill="#4C4C4C"/>
<path d="M25.52 72.34C25.05 72.25 24.93 71.64 24.69 71.34C24.39 70.78 24.12 70.22 23.83 69.66C22.98 68.02 22.11 66.38 21.19 64.77C21.1487 64.6742 21.1455 64.5663 21.181 64.4682C21.2165 64.3701 21.2881 64.2892 21.3811 64.242C21.4742 64.1949 21.5817 64.185 21.6818 64.2143C21.7819 64.2437 21.8671 64.3101 21.92 64.4C22.41 65.23 22.87 66.08 23.33 66.93C23.95 68.09 24.54 69.26 25.14 70.43C25.3543 70.8738 25.5947 71.3046 25.86 71.72C25.8937 71.7818 25.9113 71.8511 25.9112 71.9216C25.9111 71.992 25.8933 72.0612 25.8594 72.123C25.8256 72.1847 25.7768 72.2369 25.7174 72.2749C25.6581 72.3128 25.5902 72.3352 25.52 72.34Z" fill="#4C4C4C"/>
<path d="M60 55.8798C59.9377 55.8687 59.8789 55.843 59.8285 55.8047C59.7781 55.7665 59.7374 55.7168 59.71 55.6598C59.5006 55.2861 59.3169 54.8985 59.16 54.4998C58.48 52.8798 57.84 51.2398 57.16 49.6098C57.1409 49.5567 57.1325 49.5002 57.1353 49.4438C57.138 49.3874 57.1519 49.3321 57.176 49.281C57.2002 49.2299 57.2341 49.1841 57.276 49.1462C57.3178 49.1082 57.3668 49.0789 57.4199 49.0598C57.4731 49.0408 57.5295 49.0324 57.586 49.0352C57.6424 49.0379 57.6977 49.0518 57.7488 49.0759C57.7999 49.1001 57.8457 49.134 57.8836 49.1759C57.9216 49.2177 57.9509 49.2667 57.97 49.3198C58.68 51.0398 59.29 52.8098 60.03 54.5298C60.1283 54.7783 60.2453 55.019 60.3799 55.2498C60.4213 55.3143 60.4438 55.389 60.4449 55.4656C60.446 55.5422 60.4256 55.6175 60.386 55.6831C60.3465 55.7487 60.2893 55.8019 60.2211 55.8366C60.1529 55.8714 60.0763 55.8864 60 55.8798Z" fill="#4C4C4C"/>
<path d="M63.94 54.5402C63.71 54.1402 63.53 53.7002 63.34 53.2802L62.8 51.9602C62.7655 51.8617 62.7689 51.7539 62.8096 51.6577C62.8502 51.5616 62.9252 51.4841 63.02 51.4402C63.0691 51.4142 63.123 51.3983 63.1784 51.3933C63.2337 51.3883 63.2896 51.3943 63.3426 51.4111C63.3956 51.4278 63.4448 51.4549 63.4873 51.4908C63.5297 51.5267 63.5646 51.5707 63.59 51.6202C63.98 52.4802 64.28 53.3302 64.73 54.1402C64.783 54.245 64.7923 54.3665 64.7557 54.4781C64.7191 54.5897 64.6398 54.6822 64.535 54.7352C64.4302 54.7883 64.3087 54.7975 64.1971 54.7609C64.0855 54.7244 63.993 54.645 63.94 54.5402Z" fill="#4C4C4C"/>
<path d="M67.67 53.0501C67.12 53.2301 66.97 52.6401 66.84 52.2801C66.41 51.2801 65.9 50.2801 65.38 49.2801C64.44 47.5101 63.38 45.8201 62.33 44.1301C62.2571 44.0183 62.2309 43.8824 62.2571 43.7516C62.2833 43.6207 62.3597 43.5053 62.47 43.4301C62.5243 43.3923 62.5857 43.3656 62.6504 43.3516C62.7152 43.3376 62.782 43.3366 62.8472 43.3487C62.9123 43.3608 62.9744 43.3858 63.0298 43.422C63.0852 43.4583 63.1329 43.5053 63.17 43.5601C64.1 44.9801 64.98 46.4501 65.8 47.9401C66.4969 49.174 67.131 50.4423 67.7 51.7401C67.86 52.1401 68.3 52.8001 67.67 53.0501Z" fill="#4C4C4C"/>
<path d="M69.26 51.3901C68.77 50.1601 68.37 48.9001 67.91 47.6601C67.8839 47.5501 67.8992 47.4344 67.953 47.3349C68.0067 47.2355 68.0952 47.1593 68.2016 47.121C68.3079 47.0827 68.4247 47.0848 68.5295 47.1271C68.6344 47.1693 68.72 47.2487 68.77 47.3501C69.23 48.5501 69.63 49.7701 70.11 50.9601C70.1495 51.0702 70.1473 51.191 70.104 51.2996C70.0607 51.4083 69.9792 51.4974 69.8748 51.5502C69.7704 51.6031 69.6503 51.6159 69.5371 51.5864C69.4239 51.5569 69.3254 51.4871 69.26 51.3901Z" fill="#4C4C4C"/>
<path d="M40.14 66.1198C39.47 66.2998 39.43 65.3698 39.2 64.9998C38.913 64.2625 38.579 63.5444 38.2 62.8498C38.1566 62.7429 38.1531 62.6239 38.1902 62.5146C38.2273 62.4053 38.3026 62.313 38.4022 62.2547C38.5018 62.1964 38.6191 62.1759 38.7326 62.1971C38.846 62.2182 38.9481 62.2795 39.02 62.3698C39.3507 62.8976 39.6351 63.453 39.8701 64.0298C40.0901 64.5259 40.2837 65.0333 40.45 65.5498C40.4684 65.6076 40.4748 65.6684 40.4691 65.7287C40.4633 65.7891 40.4454 65.8476 40.4164 65.9008C40.3875 65.954 40.3481 66.0009 40.3006 66.0385C40.2531 66.0761 40.1985 66.1038 40.14 66.1198Z" fill="#4C4C4C"/>
<path d="M37.21 68.0201C36.28 65.9601 35.52 63.8201 34.71 61.7101C34.6715 61.596 34.6792 61.4714 34.7315 61.3629C34.7839 61.2545 34.8767 61.1709 34.99 61.1301C35.0458 61.1094 35.1051 61.1 35.1645 61.1024C35.224 61.1048 35.2824 61.119 35.3363 61.1441C35.3903 61.1692 35.4387 61.2048 35.4788 61.2487C35.5189 61.2926 35.5499 61.3441 35.57 61.4001C35.95 62.4001 36.33 63.3101 36.7 64.2701C37.07 65.2301 37.55 66.5101 38.06 67.5901C38.0994 67.7003 38.0973 67.821 38.054 67.9297C38.0107 68.0383 37.9291 68.1275 37.8248 68.1803C37.7204 68.2331 37.6003 68.2459 37.4871 68.2164C37.3739 68.187 37.2753 68.1171 37.21 68.0201Z" fill="#4C4C4C"/>
<path d="M44.21 64.0298C43.7717 63.3501 43.4064 62.6261 43.12 61.8698L41.03 57.0998C39.91 54.5798 38.72 52.0998 37.59 49.5598C37.5491 49.4434 37.5518 49.3161 37.5976 49.2015C37.6434 49.087 37.7292 48.9929 37.839 48.9367C37.9489 48.8806 38.0754 48.8662 38.1951 48.8962C38.3148 48.9261 38.4195 48.9985 38.49 49.0998C40.39 52.6998 42.01 56.5598 43.62 60.2598C44.0201 61.2928 44.4947 62.2955 45.0399 63.2598C45.1421 63.3699 45.1963 63.516 45.1906 63.666C45.185 63.8161 45.12 63.9577 45.0099 64.0598C44.8999 64.1619 44.7538 64.2161 44.6038 64.2105C44.4537 64.2049 44.3121 64.1399 44.21 64.0298Z" fill="#4C4C4C"/>
<path d="M47.14 62.8501C46.4334 61.0301 45.7334 59.2001 45.04 57.3601C44.9944 57.2989 44.9631 57.2282 44.9484 57.1532C44.9338 57.0783 44.9361 57.001 44.9553 56.9271C44.9745 56.8532 45.0101 56.7845 45.0594 56.7262C45.1087 56.6679 45.1704 56.6214 45.24 56.5901C45.2958 56.5694 45.3552 56.56 45.4146 56.5624C45.4741 56.5648 45.5324 56.5789 45.5864 56.604C45.6403 56.6292 45.6887 56.6647 45.7288 56.7087C45.769 56.7526 45.7999 56.8041 45.82 56.8601C46.18 57.8001 46.55 58.7401 46.9 59.6801C47.25 60.6201 47.6201 61.5401 47.9701 62.4801C47.9985 62.5859 47.9883 62.6984 47.9412 62.7973C47.8941 62.8962 47.8132 62.9751 47.7131 63.0197C47.6131 63.0643 47.5003 63.0717 47.3953 63.0406C47.2902 63.0095 47.1997 62.942 47.14 62.8501Z" fill="#4C4C4C"/>
<path d="M50.97 61.5902C50.9024 61.6113 50.8311 61.6179 50.7607 61.6099C50.6903 61.6019 50.6224 61.5792 50.5613 61.5435C50.5001 61.5077 50.4471 61.4596 50.4055 61.4023C50.364 61.3449 50.3348 61.2795 50.32 61.2102C50.14 60.7902 49.97 60.3702 49.79 59.9402C49.3 58.8502 48.79 57.7702 48.27 56.7002C48.2077 56.5796 48.1958 56.4391 48.2371 56.3097C48.2784 56.1803 48.3693 56.0726 48.49 56.0102C48.6107 55.9479 48.7512 55.9361 48.8806 55.9773C49.01 56.0186 49.1177 56.1096 49.18 56.2302C49.87 57.6402 50.56 59.0502 51.11 60.5102C51.25 60.9002 51.52 61.3702 50.97 61.5902Z" fill="#4C4C4C"/>
<path d="M33.11 5.96979C31.4 4.76979 29.88 3.13979 27.87 2.44979C27.58 2.44979 27.25 2.38979 27.17 2.02979C27.155 1.9563 27.1567 1.88038 27.175 1.80764C27.1933 1.7349 27.2278 1.66722 27.2758 1.6096C27.3238 1.55197 27.3842 1.50589 27.4524 1.47477C27.5207 1.44364 27.595 1.42827 27.67 1.42979C30.05 1.87979 31.8301 3.77979 33.7201 5.15979C33.8117 5.24584 33.8683 5.36269 33.879 5.48793C33.8898 5.61316 33.8539 5.73796 33.7783 5.83837C33.7027 5.93878 33.5927 6.00773 33.4693 6.03198C33.346 6.05624 33.218 6.03409 33.11 5.96979Z" fill="#4C4C4C"/>
<path d="M6.79996 33.56C6.73951 33.5655 6.67856 33.559 6.62064 33.5408C6.56272 33.5226 6.50898 33.4932 6.4625 33.4541C6.41602 33.4151 6.37775 33.3672 6.34986 33.3133C6.32196 33.2594 6.30499 33.2005 6.29996 33.14C6.19996 32.49 6.10995 31.85 6.03995 31.2C6.03995 30.74 5.95995 30.27 5.94995 29.8C5.93022 29.6641 5.9387 29.5256 5.97483 29.3932C6.01096 29.2607 6.07398 29.1371 6.15998 29.03C6.24247 28.9653 6.34424 28.9299 6.44913 28.9297C6.55402 28.9294 6.65598 28.9643 6.73877 29.0287C6.82157 29.0931 6.88046 29.1833 6.90604 29.2851C6.93162 29.3868 6.92243 29.4941 6.87995 29.59C6.91133 30.7504 7.02832 31.9069 7.22995 33.05C7.23685 33.1121 7.23106 33.1748 7.21292 33.2345C7.19479 33.2942 7.16468 33.3496 7.12445 33.3973C7.08423 33.4451 7.03473 33.4841 6.97895 33.5121C6.92316 33.54 6.86225 33.5563 6.79996 33.56Z" fill="#4C4C4C"/>
<path d="M9.92998 42.8102C9.79198 42.8589 9.6404 42.8516 9.50771 42.7899C9.37502 42.7282 9.27176 42.6171 9.21999 42.4802L8.67998 40.8402C8.57998 40.2602 7.73998 39.0502 8.61998 38.8402C8.69545 38.8243 8.77343 38.8248 8.84871 38.8415C8.92399 38.8583 8.99483 38.891 9.05642 38.9374C9.118 38.9838 9.16893 39.0429 9.20577 39.1107C9.24261 39.1784 9.26449 39.2533 9.26998 39.3302C9.57998 40.3302 9.92998 41.2102 10.27 42.1602C10.3032 42.2914 10.2869 42.4303 10.2242 42.5502C10.1614 42.6701 10.0567 42.7627 9.92998 42.8102Z" fill="#4C4C4C"/>
</g>
<defs>
<clipPath id="clip0_55_5679">
<rect width="78.53" height="91.47" fill="white"/>
</clipPath>
</defs>
</svg>
