<svg width="301" height="266" viewBox="0 0 301 266" fill="none" xmlns="http://www.w3.org/2000/svg">
<g clip-path="url(#clip0_55_5511)">
<path d="M73 133.5C90.5 132.666 125.5 131.5 125.5 133.5L148.5 126C145 120.5 138 109.2 138 108C138 106.8 132 76.1667 129 61L114.5 17L93 19.5L82 22L78 41.5L73 133.5Z" fill="#818181"/>
<path d="M171.6 12.6699C171.6 17.6699 171.7 22.7199 171.67 27.7499C171.82 46.0099 168.79 64.0199 166.44 82.0799C166.08 83.1899 166.59 86.4599 165.38 86.5699C165.207 86.5647 165.042 86.4915 164.923 86.3661C164.803 86.2407 164.737 86.0733 164.74 85.8999C165.14 81.1599 165.43 76.4099 165.92 71.6799C163.78 83.9099 161.09 96.0799 156.62 107.68C155.364 111.11 153.922 114.468 152.3 117.74C151.56 119.07 151.19 121.44 149.24 121.3C146.76 120.68 146.31 117.51 145.31 115.51C144.17 112.66 142.87 109.83 141.63 107.05C137.092 97.5135 133.885 87.399 132.1 76.9899C129.612 62.8498 128.607 48.4887 129.1 34.1399C129.34 25.7599 131.81 17.4899 132.39 9.13992C132.234 9.0971 132.097 9.00128 132.003 8.86884C131.91 8.7364 131.865 8.57556 131.877 8.4138C131.889 8.25204 131.956 8.0994 132.068 7.98197C132.18 7.86453 132.329 7.78958 132.49 7.76992C132.73 5.69992 131.99 2.70992 134.49 1.76992C138.71 0.649921 143.22 0.969922 147.55 0.989922C150.34 1.14992 153.09 1.63992 155.88 1.86992C160.53 2.38992 165.28 1.95992 169.88 2.54992C172.46 4.08992 171.28 9.99992 171.6 12.6699Z" fill="#323232"/>
<path d="M143.72 265.39H227.18C227.18 245.6 226.3 225.83 225.18 206.08C224.107 182.88 222.587 159.703 220.62 136.55C224.36 145.15 268.26 251.7 268.26 251.7L300.52 235.46C300.52 235.46 248.85 103.94 242.74 88.0599C238.74 77.1399 235.19 66.0599 230.56 55.4199C225.79 44.2699 222.26 32.7099 218.7 21.1999C218.512 20.5372 218.261 19.8943 217.95 19.2799C217.95 16.6899 206.01 16.5599 203.95 16.1099C202.14 16.1099 195.45 14.8299 192.47 15.4399C191.23 13.1299 184.57 8.14987 183.55 7.50987C181.24 5.94987 166.55 -2.49013 165.17 0.829868C165.129 1.06458 165.161 1.30621 165.261 1.52244C165.361 1.73867 165.525 1.91919 165.73 2.03987C165.23 13.6299 165.4 25.2299 164.92 36.8099C164.438 50.2017 163.206 63.556 161.23 76.8099C160.54 81.2799 159.83 85.7599 158.71 90.1499C157.27 95.8899 155.49 101.52 153.5 107.09C152.26 110.65 151.19 114.27 149.92 117.83C147.755 124.186 145.965 130.664 144.56 137.23C143.77 141.66 143.24 146.14 142.88 150.63C141.88 161.21 142.09 171.86 141.96 182.48C141.52 206.74 142.84 230.98 143.47 255.23C143.62 258.55 143.67 261.97 143.72 265.39Z" fill="#818181"/>
<path d="M144.72 158.99C145.06 156.72 145.32 154.56 145.79 152.38C146.498 149.535 147.599 146.802 149.06 144.26C149.838 143.062 150.675 141.904 151.57 140.79C153.38 138.4 154.99 135.87 156.73 133.43C158.47 130.99 160.33 128.59 162.02 126.1C163.71 123.61 165.38 120.93 167.12 118.38C169.733 114.634 172.22 110.8 174.58 106.88C177.04 103.04 179.49 99.1802 181.87 95.3002C183.771 92.3101 185.346 89.1254 186.57 85.8002C187.17 84.1602 187.85 82.0302 186.45 80.6002C185.844 80.0604 185.21 79.553 184.55 79.0802C181.26 76.5102 177.55 74.5902 174.18 72.0802C177.1 71.9902 180.02 72.0202 182.94 71.9602C186.07 71.8202 191.87 72.4902 191.94 67.9602C192.15 61.1702 192.19 54.3602 192.24 47.5602C192.24 39.2135 192.287 30.8802 192.38 22.5602C192.38 20.6502 192.5 18.7402 192.38 16.8402C192.379 16.7207 192.352 16.6028 192.302 16.4943C192.252 16.3857 192.18 16.2889 192.09 16.2102C192.027 16.1673 191.955 16.139 191.88 16.1275C191.805 16.1159 191.728 16.1214 191.655 16.1434C191.582 16.1655 191.515 16.2036 191.459 16.255C191.403 16.3063 191.359 16.3696 191.33 16.4402C191.093 17.8964 190.946 19.3659 190.89 20.8402C190.22 35.4302 189.78 50.0402 190.01 64.6402C190.01 65.8602 190.08 67.0802 190.07 68.3002C190.079 68.5549 190.001 68.8051 189.85 69.0102L189.93 68.9102C188.78 70.4502 183.93 69.9802 182.03 70.1302C179.77 70.1302 177.5 70.2502 175.24 70.2902C174.16 70.3702 172.71 70.0602 171.99 71.0602C171.88 71.2403 171.815 71.4439 171.799 71.6543C171.783 71.8647 171.818 72.0758 171.9 72.2702C172.59 73.6402 174.07 74.3702 175.25 75.2702C178.56 77.5002 182.06 79.5102 185.15 82.0202C185.202 82.0966 185.249 82.1768 185.29 82.2602L185.23 82.1402C185.69 83.2902 184.13 86.2102 183.73 87.3202C181.61 92.1302 178.47 96.5802 175.79 101C173.72 104.19 171.73 107.43 169.79 110.67C168.14 113.24 166.39 115.74 164.69 118.28C162.99 120.82 161.36 123.42 159.62 125.94C157.88 128.46 156.01 130.94 154.3 133.43C152.59 135.92 151.08 138.43 149.39 140.86C146.987 144.395 145.311 148.372 144.46 152.56C144.22 153.89 144.07 155.24 143.88 156.56C143.78 157.32 143.69 158.07 143.6 158.83C143.619 158.956 143.677 159.073 143.767 159.162C143.858 159.252 143.974 159.31 144.1 159.328C144.226 159.346 144.355 159.323 144.466 159.262C144.578 159.201 144.667 159.106 144.72 158.99Z" fill="#323232"/>
<path d="M220.2 150.85C220.277 150.85 220.352 150.835 220.423 150.805C220.493 150.775 220.557 150.731 220.61 150.676C220.663 150.621 220.705 150.556 220.732 150.484C220.76 150.413 220.773 150.336 220.77 150.26C220.68 147.46 220.64 144.66 220.56 141.86C220.48 139.06 220.3 136.19 220.1 133.35C219.68 127.87 219.46 122.35 219.18 116.87C218.79 108.34 218.11 99.8699 217.44 91.3399C216.77 82.8099 216.57 74.0999 216.19 65.4799C215.81 56.8599 215.8 48.3099 215.73 39.7299C215.73 34.7299 215.73 29.7299 216.16 24.8399C216.32 23.0699 216.59 21.3099 216.72 19.5299C216.737 19.4481 216.737 19.3636 216.72 19.2818C216.702 19.1999 216.668 19.1227 216.619 19.0549C216.57 18.9871 216.508 18.9303 216.435 18.8881C216.363 18.8459 216.283 18.8193 216.2 18.8099C216.11 18.8012 216.02 18.8131 215.935 18.8448C215.851 18.8765 215.775 18.9271 215.713 18.9928C215.651 19.0584 215.605 19.1374 215.579 19.2236C215.552 19.3098 215.546 19.4009 215.56 19.4899C215.33 21.4899 214.91 23.3299 214.68 25.2999C213.942 32.4721 213.608 39.6802 213.68 46.8899C213.33 71.0799 216.02 95.1799 217.74 119.25C218.15 125.93 218.81 132.59 219.22 139.25C219.36 142.92 219.48 146.6 219.64 150.25C219.637 150.403 219.694 150.551 219.799 150.663C219.903 150.775 220.047 150.842 220.2 150.85Z" fill="#323232"/>
<path d="M85.7699 46.8899C86.1299 71.0799 83.4299 95.1799 81.7699 119.25C81.3599 125.93 80.6999 132.59 80.2799 139.25C80.1499 142.92 80.03 146.6 79.87 150.25C79.8622 150.403 79.7952 150.547 79.6833 150.651C79.5713 150.756 79.4231 150.813 79.2699 150.81C79.1942 150.809 79.1195 150.792 79.0502 150.762C78.9809 150.731 78.9183 150.687 78.8662 150.632C78.814 150.577 78.7734 150.513 78.7465 150.442C78.7197 150.371 78.7073 150.296 78.7099 150.22C78.7999 147.42 78.8399 144.62 78.9099 141.82C78.9799 139.02 79.1699 136.15 79.3799 133.31C79.7899 127.83 80.0199 122.31 80.2999 116.83C80.6899 108.3 81.37 99.8299 82.04 91.2999C82.71 82.7699 82.9 74.0599 83.29 65.4399C83.68 56.8199 83.6799 48.2699 83.7399 39.6899C83.7399 34.6899 83.7399 29.6899 83.3199 24.7999C83.1599 23.0299 82.89 21.2699 82.76 19.4899C82.7427 19.4081 82.7427 19.3235 82.7601 19.2417C82.7774 19.1599 82.8117 19.0826 82.8606 19.0148C82.9096 18.947 82.9722 18.8902 83.0444 18.848C83.1166 18.8059 83.1968 18.7792 83.2799 18.7699C83.3697 18.7611 83.4603 18.773 83.5447 18.8047C83.6291 18.8364 83.7051 18.8871 83.7669 18.9527C83.8287 19.0184 83.8747 19.0973 83.9012 19.1835C83.9277 19.2697 83.9341 19.3608 83.9199 19.4499C84.1499 21.4499 84.5699 23.2899 84.7999 25.2599C85.5345 32.4456 85.8584 39.6673 85.7699 46.8899Z" fill="#818181"/>
<path d="M155.82 143.7C155.63 142.56 155.41 141.42 155.16 140.29C155.16 140.04 155.06 139.79 155 139.54C154.86 138.92 154.71 138.3 154.56 137.69L154.47 137.3C154.41 137.05 154.35 136.8 154.28 136.55C154.15 136.02 154.01 135.5 153.86 134.97L153.68 134.32C153.2 132.59 152.68 130.86 152.13 129.15L151.95 128.58L151.77 128.04C151.5 127.19 151.22 126.33 150.93 125.48L150.69 124.74C150.46 124.05 150.22 123.36 149.99 122.66C149.99 122.54 149.9 122.41 149.86 122.28C149.73 121.88 149.59 121.48 149.45 121.08C149.38 120.84 149.3 120.61 149.22 120.38C149.14 120.15 149.13 120.12 149.09 119.99C148.38 118.14 147.56 116.33 146.81 114.49C146.759 114.363 146.731 114.227 146.73 114.09V114.02C146.73 114.02 146.73 114.02 146.73 113.96C146.73 113.96 146.73 113.96 146.73 113.9C146.73 113.9 146.73 113.9 146.73 113.84C146.755 113.757 146.788 113.676 146.83 113.6C146.879 113.548 146.932 113.501 146.99 113.46C146.78 112.97 146.58 112.46 146.37 112L145.05 108.91L144.49 107.6C140.218 97.0759 137.223 86.0774 135.57 74.8401C134.508 67.5008 133.963 60.0958 133.94 52.6801C133.85 48.3501 133.58 44.0301 133.43 39.6801C133.18 29.8401 133.15 19.9901 133.08 10.1501C133.08 7.59008 133.08 5.02008 133.34 2.46008C133.34 2.40008 133.34 2.40008 133.34 2.34008V2.24008C133.384 2.15738 133.438 2.08018 133.5 2.01008L133.64 1.90008C133.686 1.86873 133.736 1.84509 133.79 1.83008C133.682 1.98988 133.542 2.12598 133.38 2.23008C133.87 13.8201 133.71 25.4201 134.19 37.0001C134.47 45.8401 135.19 54.6301 136.13 63.3901C136.643 67.9101 137.227 72.4301 137.88 76.9501C138.24 79.2701 138.6 81.5901 139.02 83.9001C139.41 86.0501 139.86 88.1801 140.4 90.2901C141.84 96.0301 143.62 101.66 145.6 107.23C146.32 109.23 146.98 111.34 147.65 113.4C148.04 114.61 148.44 115.82 148.86 117.02C148.96 117.34 149.07 117.65 149.19 117.97C151.35 124.328 153.14 130.805 154.55 137.37C155.157 139.39 155.58 141.5 155.82 143.7Z" fill="#818181"/>
<path d="M155.88 158.86C155.886 159.01 155.836 159.156 155.738 159.269C155.641 159.382 155.504 159.455 155.356 159.471C155.207 159.488 155.058 159.447 154.938 159.358C154.818 159.269 154.737 159.137 154.71 158.99C154.37 156.72 154.11 154.56 153.64 152.38C152.927 149.536 151.827 146.804 150.37 144.26C149.6 143.05 148.73 141.92 147.86 140.79C146.05 138.4 144.43 135.87 142.7 133.43C140.97 130.99 139.1 128.59 137.4 126.1C135.7 123.61 134.05 120.93 132.31 118.38C129.703 114.634 127.217 110.8 124.85 106.88C122.39 103.04 119.94 99.1802 117.56 95.3002C115.659 92.3101 114.084 89.1254 112.86 85.8002C112.26 84.1602 111.58 82.0302 112.98 80.6002C113.582 80.0556 114.217 79.548 114.88 79.0802C118.17 76.5102 121.88 74.5902 125.25 72.0802C122.33 71.9902 119.41 72.0202 116.49 71.9602C113.36 71.8202 107.56 72.4902 107.49 67.9602C107.28 61.1702 107.23 54.3602 107.19 47.5602C107.15 39.2135 107.103 30.8802 107.05 22.5602C107.05 20.6602 106.93 18.7402 107.1 16.8402C107.101 16.7207 107.128 16.6028 107.178 16.4943C107.228 16.3857 107.3 16.2889 107.39 16.2102C107.453 16.1673 107.525 16.139 107.6 16.1275C107.675 16.1159 107.752 16.1214 107.825 16.1434C107.898 16.1655 107.965 16.2036 108.021 16.255C108.077 16.3063 108.121 16.3696 108.15 16.4402C108.387 17.8964 108.534 19.3659 108.59 20.8402C109.25 35.4302 109.69 50.0402 109.47 64.6402C109.47 65.8602 109.4 67.0802 109.41 68.3002C109.405 68.3634 109.405 68.427 109.41 68.4902C109.405 68.52 109.405 68.5504 109.41 68.5802V68.6402L109.49 68.7602L109.55 68.8202L109.62 68.8802C109.638 68.9056 109.662 68.9262 109.69 68.9402L109.84 69.0502L110.01 69.1502L110.1 69.2002H110.2H110.3H110.41L110.73 69.3002L110.95 69.3602H111.08H111.33H111.6H111.86H112.02L112.89 69.4402H113.34H114.02H116.46H117.19H117.46C119.72 69.4402 121.99 69.5602 124.25 69.6002C125.33 69.6802 126.78 69.3702 127.5 70.3702C127.61 70.5503 127.675 70.7539 127.691 70.9643C127.707 71.1747 127.672 71.3858 127.59 71.5802C126.9 72.9502 125.42 73.6802 124.24 74.5802C120.93 76.8102 117.43 78.8202 114.34 81.3302C114.31 81.3678 114.283 81.4079 114.26 81.4502V81.5502C113.98 82.7902 115.42 85.5502 115.81 86.5502C117.93 91.3602 121.07 95.8102 123.75 100.23C125.81 103.42 127.75 106.66 129.75 109.9C131.39 112.47 133.15 114.97 134.85 117.51C136.55 120.05 138.18 122.65 139.92 125.17C141.66 127.69 143.53 130.17 145.23 132.66C146.93 135.15 148.45 137.66 150.15 140.09C152.536 143.632 154.195 147.612 155.03 151.8C155.27 153.13 155.42 154.48 155.61 155.8C155.69 157.35 155.78 158.1 155.88 158.86Z" fill="#818181"/>
<path d="M157.04 158.48C156.92 157.4 156.83 156.33 156.76 155.25V154.79C156.76 154.74 156.76 154.68 156.76 154.63V154.18V153.54C156.76 153.3 156.76 153.07 156.76 152.83C156.76 152.2 156.69 151.58 156.66 150.95V150.41V149.87C156.66 150.09 156.66 150.31 156.71 150.53C156.75 153.2 156.92 155.82 157.04 158.48Z" fill="#818181"/>
<path d="M155.71 265.39C155.76 261.97 155.81 258.55 155.92 255.13C156.55 230.88 157.87 206.64 157.43 182.38C157.43 179.74 157.38 177.09 157.36 174.45C157.36 175.504 157.34 176.554 157.3 177.6C157.3 177.95 157.3 178.3 157.3 178.6C157.3 178.9 157.3 179.3 157.3 179.65L157.24 181.76C157.19 183.61 157.14 185.47 157.08 187.33L157.03 188.93L156.97 191.22C157.05 197.03 156.21 202.79 156.06 208.59C155.91 217.27 155.64 225.95 154.99 234.59C154.42 244.82 153.99 255.08 154.33 265.32L155.71 265.39Z" fill="#818181"/>
<path d="M155.88 158.86C155.886 159.01 155.836 159.156 155.738 159.269C155.641 159.382 155.504 159.455 155.356 159.471C155.207 159.488 155.058 159.447 154.938 159.358C154.818 159.269 154.737 159.137 154.71 158.99C154.37 156.72 154.11 154.56 153.64 152.38C152.927 149.536 151.827 146.804 150.37 144.26C149.6 143.05 148.73 141.92 147.86 140.79C146.05 138.4 144.43 135.87 142.7 133.43C140.97 130.99 139.1 128.59 137.4 126.1C135.7 123.61 134.05 120.93 132.31 118.38C129.703 114.634 127.217 110.8 124.85 106.88C122.39 103.04 119.94 99.1802 117.56 95.3002C115.659 92.3101 114.084 89.1254 112.86 85.8002C112.26 84.1602 111.58 82.0302 112.98 80.6002C113.582 80.0556 114.217 79.548 114.88 79.0802C118.17 76.5102 121.88 74.5902 125.25 72.0802C122.33 71.9902 119.41 72.0202 116.49 71.9602C113.36 71.8202 107.56 72.4902 107.49 67.9602C107.28 61.1702 107.23 54.3602 107.19 47.5602C107.15 39.2135 107.103 30.8802 107.05 22.5602C107.05 20.6602 106.93 18.7402 107.1 16.8402C107.101 16.7207 107.128 16.6028 107.178 16.4943C107.228 16.3857 107.3 16.2889 107.39 16.2102C107.453 16.1673 107.525 16.139 107.6 16.1275C107.675 16.1159 107.752 16.1214 107.825 16.1434C107.898 16.1655 107.965 16.2036 108.021 16.255C108.077 16.3063 108.121 16.3696 108.15 16.4402C108.387 17.8964 108.534 19.3659 108.59 20.8402C109.25 35.4302 109.69 50.0402 109.47 64.6402C109.47 65.8602 109.4 67.0802 109.41 68.3002C109.405 68.3634 109.405 68.427 109.41 68.4902C109.405 68.52 109.405 68.5504 109.41 68.5802V68.6402L109.49 68.7602L109.55 68.8202L109.62 68.8802C109.638 68.9056 109.662 68.9262 109.69 68.9402L109.84 69.0502L110.01 69.1502L110.1 69.2002H110.2H110.3H110.41L110.73 69.3002L110.95 69.3602H111.08H111.33H111.6H111.86H112.02L112.89 69.4402H113.34H114.02H116.46H117.19H117.46C119.72 69.4402 121.99 69.5602 124.25 69.6002C125.33 69.6802 126.78 69.3702 127.5 70.3702C127.61 70.5503 127.675 70.7539 127.691 70.9643C127.707 71.1747 127.672 71.3858 127.59 71.5802C126.9 72.9502 125.42 73.6802 124.24 74.5802C120.93 76.8102 117.43 78.8202 114.34 81.3302C114.31 81.3678 114.283 81.4079 114.26 81.4502V81.5502C113.98 82.7902 115.42 85.5502 115.81 86.5502C117.93 91.3602 121.07 95.8102 123.75 100.23C125.81 103.42 127.75 106.66 129.75 109.9C131.39 112.47 133.15 114.97 134.85 117.51C136.55 120.05 138.18 122.65 139.92 125.17C141.66 127.69 143.53 130.17 145.23 132.66C146.93 135.15 148.45 137.66 150.15 140.09C152.536 143.632 154.195 147.612 155.03 151.8C155.27 153.13 155.42 154.48 155.61 155.8C155.69 157.35 155.78 158.1 155.88 158.86Z" fill="#323232"/>
<path d="M85.7699 46.8899C86.1299 71.0799 83.4299 95.1799 81.7699 119.25C81.3599 125.93 80.6999 132.59 80.2799 139.25C80.1499 142.92 80.03 146.6 79.87 150.25C79.8622 150.403 79.7952 150.547 79.6833 150.651C79.5713 150.756 79.4231 150.813 79.2699 150.81C79.1942 150.809 79.1195 150.792 79.0502 150.762C78.9809 150.731 78.9183 150.687 78.8662 150.632C78.814 150.577 78.7734 150.513 78.7465 150.442C78.7197 150.371 78.7073 150.296 78.7099 150.22C78.7999 147.42 78.8399 144.62 78.9099 141.82C78.9799 139.02 79.1699 136.15 79.3799 133.31C79.7899 127.83 80.0199 122.31 80.2999 116.83C80.6899 108.3 81.37 99.8299 82.04 91.2999C82.71 82.7699 82.9 74.0599 83.29 65.4399C83.68 56.8199 83.6799 48.2699 83.7399 39.6899C83.7399 34.6899 83.7399 29.6899 83.3199 24.7999C83.1599 23.0299 82.89 21.2699 82.76 19.4899C82.7427 19.4081 82.7427 19.3235 82.7601 19.2417C82.7774 19.1599 82.8117 19.0826 82.8606 19.0148C82.9096 18.947 82.9722 18.8902 83.0444 18.848C83.1166 18.8059 83.1968 18.7792 83.2799 18.7699C83.3697 18.7611 83.4603 18.773 83.5447 18.8047C83.6291 18.8364 83.7051 18.8871 83.7669 18.9527C83.8287 19.0184 83.8747 19.0973 83.9012 19.1835C83.9277 19.2697 83.9341 19.3608 83.9199 19.4499C84.1499 21.4499 84.5699 23.2899 84.7999 25.2599C85.5345 32.4456 85.8584 39.6673 85.7699 46.8899Z" fill="#323232"/>
<path d="M149.55 116.48C149.549 116.527 149.539 116.573 149.518 116.615C149.498 116.657 149.469 116.694 149.432 116.724C149.396 116.753 149.354 116.775 149.309 116.786C149.263 116.798 149.216 116.799 149.17 116.79C148.74 116.65 148.54 116.13 148.33 115.79C148.05 115.24 147.78 114.69 147.54 114.12L147.18 113.29C146.97 112.8 146.77 112.29 146.56 111.83L145.24 108.74L144.68 107.43C140.408 96.906 137.413 85.9075 135.76 74.6702C134.698 67.3309 134.153 59.926 134.13 52.5102C134.04 48.1802 133.77 43.8602 133.62 39.5102C133.37 29.6702 133.34 19.8202 133.27 9.98021C133.27 7.42021 133.27 4.85021 133.53 2.29021C133.53 2.23021 133.53 2.23021 133.53 2.17021L133.53 2.07021C133.574 1.98751 133.628 1.91031 133.69 1.84021L133.83 1.73021C133.876 1.69886 133.927 1.67522 133.98 1.66021C134.147 1.58558 134.333 1.56475 134.512 1.60059C134.691 1.63643 134.855 1.72717 134.98 1.86021C135.144 2.04104 135.237 2.27583 135.24 2.52021C135.24 3.11021 135.24 3.70021 135.24 4.29021C135.24 4.88021 135.24 5.51021 135.24 6.12021C135.24 9.74021 135.24 13.3602 135.24 16.9802C135.33 27.4302 135.39 37.8802 135.89 48.3202C136.04 53.3202 135.99 58.2602 136.31 63.2202L136.37 64.0902C136.76 68.8602 137.3 73.6302 138.12 78.3402C138.44 80.1502 138.8 81.9402 139.2 83.7302C140.594 89.6984 142.35 95.576 144.46 101.33C145.27 103.66 146.13 105.98 146.95 108.33C147.61 110.17 148.1 111.99 148.67 113.8C148.9 114.53 149.15 115.27 149.42 115.99C149.492 116.144 149.536 116.31 149.55 116.48Z" fill="#323232"/>
<path d="M149.08 119.98C149.08 120.11 149.17 120.24 149.21 120.37C149.25 120.5 149.37 120.83 149.44 121.07C149.58 121.47 149.72 121.87 149.85 122.27C149.85 122.4 149.94 122.53 149.98 122.65C150.21 123.35 150.45 124.04 150.68 124.73L150.92 125.47C151.21 126.32 151.49 127.18 151.76 128.03L151.94 128.57L152.12 129.14C152.66 130.85 153.19 132.58 153.67 134.31L153.85 134.96C154 135.49 154.14 136.01 154.27 136.54C154.34 136.79 154.4 137.04 154.46 137.29L154.55 137.68C154.7 138.29 154.85 138.91 154.99 139.53C155.05 139.78 155.1 140.03 155.15 140.28C155.4 141.41 155.62 142.55 155.81 143.69C155.87 144.06 155.93 144.43 155.98 144.79C156.21 146.47 156.34 148.17 156.45 149.86C156.57 151.86 156.65 153.86 156.79 155.78C156.79 155.96 156.79 156.14 156.79 156.32C156.79 156.5 156.79 156.67 156.79 156.85C156.79 157.01 156.79 157.16 156.84 157.32L156.9 157.97C156.9 158.13 156.9 158.28 156.95 158.44V158.72C156.95 158.85 156.95 158.99 156.95 159.12C156.95 159.25 156.95 159.22 156.95 159.27C156.95 159.32 156.95 159.53 156.95 159.66C156.95 159.81 157 159.97 157.02 160.13C157.04 160.29 157.02 160.46 157.1 160.63C157.18 160.8 157.1 161.22 157.1 161.52C157.17 164.58 157.18 167.64 157.1 170.7C157.1 171.18 157.1 171.7 157.1 172.16C157.1 172.49 157.1 172.83 157.1 173.16V173.5C157.1 173.78 157.1 174.05 157.1 174.33C157.1 175.383 157.08 176.433 157.04 177.48C157.04 177.83 157.04 178.18 157.04 178.48C157.04 178.78 157.04 179.18 157.04 179.53L156.98 181.64C156.93 183.49 156.88 185.35 156.82 187.21L156.77 188.81L156.71 191.1C156.79 196.91 155.95 202.67 155.8 208.47C155.65 217.15 155.38 225.83 154.73 234.47C154.16 244.7 153.73 254.96 154.07 265.2H155.64C155.71 260.12 155.64 255.04 155.95 249.97C156.04 240.97 156.95 232.06 157.32 223.09C157.88 215.47 157.52 207.87 158.32 200.25C159.19 188.42 159.01 176.53 159.56 164.68C159.61 158.91 158.45 153.22 158.56 147.44C157.73 137.25 154.1 127.6 150.56 118.08C150.06 117.36 149.36 114.84 148.44 113.6C148.26 113.326 148.007 113.108 147.71 112.97C147.61 112.924 147.501 112.899 147.39 112.899C147.279 112.899 147.17 112.924 147.07 112.97L146.93 113.04C146.872 113.081 146.819 113.128 146.77 113.18C146.728 113.256 146.695 113.337 146.67 113.42C146.67 113.42 146.67 113.42 146.67 113.48C146.67 113.48 146.67 113.48 146.67 113.54C146.67 113.54 146.67 113.54 146.67 113.6V113.67C146.672 113.807 146.699 113.943 146.75 114.07C147.55 116.32 148.37 118.13 149.08 119.98Z" fill="#323232"/>
<path d="M74.26 206.08C73.13 225.83 72.26 245.6 72.26 265.39H154.26C153.93 255.15 154.35 244.89 154.92 234.66C155.57 226 155.84 217.32 155.99 208.66C156.14 202.86 156.99 197.1 156.9 191.29L156.96 189L157.01 187.4C157.07 185.54 157.12 183.68 157.17 181.83L157.23 179.72C157.23 179.37 157.23 179.02 157.23 178.67C157.23 178.32 157.23 177.97 157.23 177.67C157.23 176.617 157.25 175.567 157.29 174.52C157.29 174.24 157.29 173.97 157.29 173.69V173.35C157.29 173.01 157.29 172.67 157.29 172.35C157.29 171.86 157.29 171.35 157.29 170.89C157.29 167.83 157.29 164.77 157.29 161.71C157.29 161.41 157.29 161.11 157.29 160.82C157.29 160.53 157.29 160.49 157.21 160.32C157.13 160.15 157.21 160 157.14 159.85C157.14 159.72 157.14 159.59 157.14 159.46C157.14 159.33 157.14 159.36 157.14 159.31C157.14 159.26 157.14 159.04 157.14 158.91V158.63C157.02 157.55 156.93 156.48 156.86 155.4V154.94C156.86 154.89 156.86 154.83 156.86 154.78V154.33V153.69C156.86 153.45 156.86 153.22 156.86 152.98C156.86 152.35 156.79 151.72 156.76 151.1V150.56V150.02C156.65 148.33 156.52 146.63 156.29 144.95C156.24 144.59 156.18 144.22 156.12 143.85C155.93 142.71 155.71 141.57 155.46 140.44C155.46 140.19 155.36 139.94 155.3 139.69C155.16 139.07 155.01 138.45 154.86 137.84L154.77 137.45C154.71 137.2 154.65 136.95 154.58 136.7C154.45 136.17 154.31 135.65 154.16 135.12L153.98 134.47C153.5 132.74 152.98 131.01 152.43 129.3L152.25 128.73L152.07 128.19C151.8 127.34 151.52 126.48 151.23 125.63L150.99 124.89C150.76 124.2 150.52 123.51 150.29 122.81C150.29 122.69 150.2 122.56 150.16 122.43C150.03 122.03 149.89 121.63 149.75 121.23C149.68 120.99 149.6 120.76 149.52 120.53C149.44 120.3 149.43 120.27 149.39 120.14C148.68 118.29 147.86 116.48 147.11 114.64C147.059 114.513 147.031 114.377 147.03 114.24V114.17C147.03 114.17 147.03 114.17 147.03 114.11C147.03 114.11 147.03 114.11 147.03 114.05C147.03 114.05 147.03 114.05 147.03 113.99C147.055 113.907 147.088 113.826 147.13 113.75C147.179 113.698 147.232 113.651 147.29 113.61C147.08 113.12 146.88 112.61 146.67 112.15L145.35 109.06L144.79 107.75C140.518 97.226 137.523 86.2275 135.87 74.9902C134.808 67.6509 134.263 60.246 134.24 52.8302C134.15 48.5002 133.88 44.1802 133.73 39.8302C133.49 29.9902 133.45 20.1402 133.38 10.3002C133.38 7.7402 133.38 5.1702 133.64 2.6102C133.64 2.5502 133.64 2.5502 133.64 2.4902L133.64 2.3902C133.684 2.3075 133.738 2.2303 133.8 2.1602L133.94 2.0502C133.986 2.01886 134.037 1.99521 134.09 1.9802C134.231 1.7354 134.281 1.44826 134.23 1.1702C132.84 -2.1898 118.17 6.2902 115.86 7.8502C114.86 8.4902 108.18 13.4702 106.94 15.7802C103.94 15.1702 97.27 16.4102 95.45 16.4502C93.45 16.9002 81.45 17.0302 81.45 19.6202C81.14 20.2363 80.8857 20.8789 80.69 21.5402C77.14 33.1002 73.61 44.6602 68.85 55.8102C64.22 66.4802 60.65 77.5302 56.67 88.4402L0 235.46L32.27 251.7C32.27 251.7 75.39 144.43 78.81 136.55C76.87 159.704 75.3533 182.88 74.26 206.08ZM107.11 16.8402C107.111 16.7207 107.138 16.6028 107.188 16.4943C107.238 16.3857 107.31 16.2889 107.4 16.2102C107.463 16.1673 107.535 16.139 107.61 16.1275C107.685 16.1159 107.762 16.1214 107.835 16.1435C107.908 16.1655 107.975 16.2036 108.031 16.255C108.087 16.3063 108.131 16.3696 108.16 16.4402C108.397 17.8964 108.544 19.3659 108.6 20.8402C109.26 35.4302 109.7 50.0402 109.48 64.6402C109.48 65.8602 109.41 67.0802 109.42 68.3002C109.415 68.3634 109.415 68.427 109.42 68.4902C109.415 68.52 109.415 68.5504 109.42 68.5802V68.6402L109.5 68.7602L109.56 68.8202L109.63 68.8802C109.648 68.9056 109.672 68.9263 109.7 68.9402L109.85 69.0502L110.02 69.1502L110.11 69.2002H110.21H110.31H110.42L110.74 69.3002L110.96 69.3602H111.09H111.34H111.61H111.87H112.03L112.9 69.4402H113.35H114.03H116.46H117.19H117.46C119.72 69.4402 121.99 69.5602 124.25 69.6002C125.33 69.6802 126.78 69.3702 127.5 70.3702C127.61 70.5503 127.675 70.7539 127.691 70.9643C127.707 71.1747 127.672 71.3858 127.59 71.5802C126.9 72.9502 125.42 73.6802 124.24 74.5802C120.93 76.8102 117.43 78.8202 114.34 81.3302C114.31 81.3678 114.283 81.408 114.26 81.4502V81.5502C113.98 82.7902 115.42 85.5502 115.81 86.5502C117.93 91.3602 121.07 95.8102 123.75 100.23C125.81 103.42 127.75 106.66 129.75 109.9C131.39 112.47 133.15 114.97 134.85 117.51C136.55 120.05 138.18 122.65 139.92 125.17C141.66 127.69 143.53 130.17 145.23 132.66C146.93 135.15 148.45 137.66 150.15 140.09C152.536 143.632 154.195 147.612 155.03 151.8C155.27 153.13 155.42 154.48 155.61 155.8C155.7 156.56 155.79 157.31 155.89 158.07C155.896 158.22 155.846 158.366 155.748 158.479C155.651 158.592 155.514 158.665 155.366 158.681C155.217 158.698 155.068 158.657 154.948 158.568C154.828 158.479 154.747 158.347 154.72 158.2C154.38 155.93 154.12 153.77 153.65 151.59C152.937 148.747 151.837 146.014 150.38 143.47C149.61 142.26 148.74 141.13 147.87 140C146.06 137.61 144.44 135.08 142.71 132.64C140.98 130.2 139.11 127.8 137.41 125.31C135.71 122.82 134.06 120.14 132.32 117.59C129.713 113.844 127.227 110.01 124.86 106.09C122.4 102.25 119.95 98.3902 117.57 94.5102C115.669 91.5202 114.093 88.3354 112.87 85.0102C112.27 83.3702 111.59 81.2402 112.99 79.8102C113.592 79.2656 114.227 78.758 114.89 78.2902C118.18 75.7202 121.89 73.8002 125.26 71.2902C122.34 71.2002 119.42 71.2302 116.5 71.1702C113.37 71.0302 107.57 71.7002 107.5 67.1702C107.29 60.3802 107.24 53.5702 107.2 46.7702C107.16 38.4235 107.113 30.0902 107.06 21.7702C107.06 20.6602 106.94 18.7402 107.11 16.8402ZM79.33 133.35C79.74 127.87 79.97 122.35 80.25 116.87C80.64 108.34 81.32 99.8702 81.99 91.3402C82.66 82.8102 82.85 74.1002 83.24 65.4802C83.63 56.8602 83.63 48.3102 83.69 39.7302C83.69 34.7302 83.69 29.7302 83.27 24.8402C83.11 23.0702 82.84 21.3102 82.71 19.5302C82.6927 19.4484 82.6928 19.3638 82.7101 19.282C82.7275 19.2002 82.7617 19.1229 82.8107 19.0551C82.8597 18.9874 82.9222 18.9305 82.9945 18.8884C83.0667 18.8462 83.1469 18.8196 83.23 18.8102C83.3197 18.8014 83.4103 18.8134 83.4947 18.8451C83.5791 18.8768 83.6552 18.9274 83.717 18.993C83.7788 19.0587 83.8247 19.1377 83.8512 19.2239C83.8778 19.31 83.8842 19.4012 83.87 19.4902C84.1 21.4902 84.52 23.3302 84.75 25.3002C85.4931 32.472 85.827 39.6804 85.75 46.8902C86.11 71.0802 83.41 95.1802 81.75 119.25C81.34 125.93 80.68 132.59 80.26 139.25C80.13 142.92 80.01 146.6 79.85 150.25C79.8422 150.403 79.7753 150.547 79.6633 150.652C79.5514 150.756 79.4031 150.813 79.25 150.81C79.1743 150.809 79.0996 150.793 79.0302 150.762C78.9609 150.732 78.8984 150.688 78.8462 150.633C78.7941 150.578 78.7534 150.513 78.7266 150.442C78.6998 150.371 78.6873 150.296 78.69 150.22C78.78 147.42 78.82 144.62 78.89 141.82C78.96 139.02 79.12 136.2 79.33 133.35Z" fill="#818181"/>
<path d="M149.85 161.81C150.195 161.517 150.478 161.156 150.68 160.751C150.882 160.345 151 159.902 151.026 159.45C151.052 158.997 150.986 158.544 150.832 158.118C150.678 157.692 150.439 157.301 150.13 156.97C149.13 158.2 148.67 160.58 149.85 161.81ZM149.55 164.73C146.07 164.49 145.79 159.85 147.26 157.45C147.8 156.08 150.26 154.13 151.26 156.01C154.31 158.07 153.62 164.48 149.55 164.73Z" fill="#323232"/>
<path d="M117.78 156.13C117.78 155.85 117.78 155.57 117.7 155.3C117.686 155.121 117.733 154.944 117.833 154.795C117.933 154.647 118.081 154.537 118.252 154.484C118.422 154.43 118.606 154.436 118.773 154.501C118.94 154.566 119.08 154.685 119.17 154.84C119.97 156.92 118.17 157.49 117.78 156.13Z" fill="#B0B0B0"/>
<path d="M121.15 163.57C120.64 163.11 120.88 162.26 120.86 161.66C120.885 161.518 120.954 161.387 121.056 161.285C121.159 161.183 121.29 161.116 121.433 161.092C121.575 161.068 121.721 161.088 121.851 161.151C121.982 161.213 122.089 161.314 122.16 161.44C122.54 162.37 122.75 164.34 121.15 163.57Z" fill="#B0B0B0"/>
<path d="M122.7 156.2C122.2 155.79 122.42 155.06 122.39 154.49C122.36 153.92 122.24 153.01 123.02 152.91C124.2 152.96 123.77 154.65 124.08 155.45C124.093 155.616 124.058 155.782 123.978 155.928C123.899 156.074 123.779 156.193 123.633 156.273C123.487 156.352 123.322 156.387 123.156 156.375C122.99 156.362 122.832 156.301 122.7 156.2Z" fill="#B0B0B0"/>
<path d="M195 119.47C194.88 119.467 194.763 119.437 194.657 119.381C194.551 119.326 194.459 119.247 194.388 119.15C194.318 119.053 194.27 118.942 194.25 118.824C194.229 118.706 194.236 118.585 194.27 118.47C194.39 117.99 194.74 117.3 195.34 117.55C195.75 117.73 195.74 118.23 195.79 118.55C195.809 118.664 195.803 118.781 195.772 118.892C195.741 119.004 195.685 119.107 195.61 119.195C195.535 119.283 195.441 119.353 195.336 119.4C195.23 119.448 195.116 119.472 195 119.47Z" fill="#B0B0B0"/>
<path d="M196.9 126.1C195.83 126.1 195.79 124.89 195.95 124.1C195.95 123.28 196.16 122.2 197.23 122.36C197.398 122.388 197.556 122.456 197.693 122.557C197.829 122.658 197.94 122.79 198.016 122.942C198.092 123.094 198.131 123.262 198.13 123.432C198.129 123.602 198.088 123.769 198.01 123.92C198 124.76 198.09 126.11 196.9 126.1Z" fill="#B0B0B0"/>
<path d="M200.39 124.2C200.207 124.195 200.029 124.145 199.869 124.056C199.71 123.966 199.576 123.838 199.477 123.685C199.378 123.531 199.319 123.355 199.304 123.173C199.289 122.991 199.318 122.808 199.39 122.64C199.411 122.441 199.492 122.253 199.621 122.1C199.75 121.947 199.923 121.836 200.115 121.782C200.308 121.729 200.513 121.734 200.703 121.798C200.892 121.861 201.059 121.981 201.18 122.14C201.65 122.95 201.46 124.2 200.39 124.2Z" fill="#B0B0B0"/>
<path d="M98.53 55.6C97.24 55.69 97.53 52.6 98.35 52.29C99.17 51.98 99.53 52.78 99.35 53.43C99.17 54.08 99.69 55.57 98.53 55.6Z" fill="#B0B0B0"/>
<path d="M98.4601 68.28C98.2159 67.814 98.1316 67.2807 98.2201 66.7622C98.3087 66.2436 98.5651 65.7685 98.9501 65.41C100.15 65.05 100.03 66.58 100.22 67.33C100.282 67.4455 100.321 67.5722 100.335 67.7029C100.348 67.8335 100.336 67.9655 100.298 68.0913C100.261 68.2172 100.199 68.3343 100.116 68.4362C100.033 68.5381 99.9306 68.6226 99.8151 68.685C99.6995 68.7473 99.5728 68.7863 99.4421 68.7997C99.3115 68.8132 99.1795 68.8007 99.0537 68.7631C98.9279 68.7255 98.8107 68.6635 98.7088 68.5806C98.607 68.4977 98.5224 68.3955 98.4601 68.28Z" fill="#B0B0B0"/>
<path d="M113.74 49.3001C113.74 48.3001 113.39 46.7401 114.74 46.5701C116.24 46.4701 115.99 48.1901 116 49.2101C116.012 49.5098 115.904 49.802 115.701 50.0223C115.497 50.2427 115.215 50.3732 114.915 50.3851C114.615 50.397 114.323 50.2894 114.103 50.0859C113.882 49.8825 113.752 49.5998 113.74 49.3001Z" fill="#B0B0B0"/>
<path d="M116.62 51.4398C116.62 50.7198 116.62 49.9998 116.62 49.2798C116.575 49.0471 116.606 48.8061 116.708 48.5921C116.81 48.3782 116.977 48.2024 117.186 48.0906C117.395 47.9789 117.635 47.9369 117.869 47.971C118.104 48.005 118.321 48.1133 118.49 48.2798C119.07 49.1498 118.81 50.3698 119 51.3798C119.004 51.5361 118.977 51.6916 118.921 51.8375C118.865 51.9834 118.78 52.1168 118.673 52.2301C118.565 52.3434 118.436 52.4343 118.293 52.4978C118.15 52.5612 117.996 52.5959 117.84 52.5998C117.684 52.6038 117.528 52.5769 117.382 52.5207C117.236 52.4646 117.103 52.3802 116.99 52.2725C116.761 52.055 116.628 51.7554 116.62 51.4398Z" fill="#B0B0B0"/>
<path d="M224.01 86.4202C223.84 85.1702 222.38 82.2902 224.55 82.2402C225.84 82.5602 225.48 84.8502 226.07 85.9302C226.12 86.1978 226.065 86.4743 225.917 86.7025C225.768 86.9307 225.538 87.0932 225.273 87.1561C225.009 87.2191 224.73 87.1778 224.494 87.0408C224.259 86.9038 224.086 86.6816 224.01 86.4202Z" fill="#B0B0B0"/>
<path d="M225.79 94.4798C225.24 92.6198 227.24 91.4798 227.71 93.4798C228.34 95.1998 226.4 96.2998 225.79 94.4798Z" fill="#B0B0B0"/>
<path d="M230.86 91.5199C230.572 91.1117 230.417 90.6245 230.417 90.1249C230.417 89.6254 230.572 89.1381 230.86 88.7299C231.98 88.0999 232.08 89.7299 232.35 90.4099C232.402 90.6032 232.394 90.8076 232.328 90.9966C232.263 91.1856 232.142 91.3505 231.981 91.4701C231.821 91.5896 231.628 91.6583 231.428 91.6672C231.228 91.6761 231.03 91.6248 230.86 91.5199Z" fill="#B0B0B0"/>
<path d="M241.91 149.65C240.59 149.11 240.5 147.18 240.23 145.96C240.287 145.664 240.448 145.397 240.684 145.21C240.921 145.022 241.217 144.926 241.518 144.938C241.82 144.95 242.107 145.07 242.327 145.276C242.548 145.482 242.687 145.76 242.72 146.06C243.64 147.35 244.46 149.97 241.91 149.65Z" fill="#B0B0B0"/>
<path d="M246.46 153.98C245.65 152.15 247.78 150.85 248.37 152.87C249.55 154.37 247.01 155.81 246.46 153.98Z" fill="#B0B0B0"/>
<path d="M248.73 146.64C246 142.51 250.18 141.73 250.2 144.29C251.86 146.58 250.08 148.2 248.73 146.64Z" fill="#B0B0B0"/>
<path d="M169.59 246.2C169.428 245.208 169.401 244.199 169.51 243.2C169.596 243.011 169.732 242.849 169.905 242.733C170.077 242.617 170.278 242.552 170.485 242.543C170.693 242.535 170.898 242.585 171.079 242.686C171.26 242.788 171.409 242.938 171.51 243.12C171.74 244.03 171.58 245.02 171.78 245.96C171.812 246.251 171.727 246.542 171.544 246.77C171.361 246.997 171.095 247.143 170.805 247.175C170.515 247.207 170.223 247.122 169.996 246.939C169.768 246.756 169.622 246.49 169.59 246.2Z" fill="#B0B0B0"/>
<path d="M174.46 252.2C173.65 251.47 174.08 250.2 173.96 249.2C173.78 248.42 174.02 247.49 174.96 247.4C176.8 247.4 176.17 249.84 176.51 251.04C176.549 251.292 176.509 251.551 176.398 251.781C176.286 252.01 176.107 252.201 175.885 252.327C175.663 252.453 175.407 252.508 175.153 252.485C174.898 252.462 174.657 252.363 174.46 252.2Z" fill="#B0B0B0"/>
<path d="M168.51 181.89C167.26 181.95 167.29 178.67 168.51 178.77C169.73 178.7 169.8 182.04 168.51 181.89Z" fill="#B0B0B0"/>
<path d="M172.1 187.76C170.57 187.76 171.47 184.82 172.69 185.9C173.16 186.5 173.06 187.77 172.1 187.76Z" fill="#B0B0B0"/>
<path d="M83.89 229.71C81.97 229.52 82.83 227.15 82.71 225.86C82.6447 225.611 82.6462 225.348 82.7144 225.099C82.7826 224.851 82.915 224.624 83.0985 224.443C83.2819 224.261 83.5098 224.132 83.7593 224.066C84.0088 224.001 84.2712 224.002 84.52 224.07C84.7354 224.138 84.9329 224.252 85.0981 224.406C85.2633 224.56 85.3918 224.749 85.4743 224.959C85.5568 225.169 85.5912 225.395 85.5749 225.62C85.5585 225.846 85.4919 226.064 85.38 226.26C85.17 227.45 85.67 229.66 83.89 229.71Z" fill="#B0B0B0"/>
<path d="M85.24 243.59C83.97 243.51 84.24 242.11 84.49 241.25C84.63 240.59 84.64 239.34 85.63 239.57C86.12 239.7 86.2 240.2 86.14 240.63C86.14 241.63 86.79 243.51 85.24 243.59Z" fill="#B0B0B0"/>
<path d="M87.6201 231.36C85.8401 231.36 86.3401 227 88.2001 227.81C88.4602 227.924 88.6658 228.135 88.774 228.398C88.8821 228.661 88.8843 228.955 88.7801 229.22C88.7801 230.08 88.8001 231.37 87.6201 231.36Z" fill="#B0B0B0"/>
<path d="M81.7 237.11C80.1 237.11 80.7 233.26 82.29 234.11C83.04 234.56 82.55 235.5 82.66 236.2C82.6521 236.447 82.5469 236.682 82.3671 236.852C82.1874 237.023 81.9476 237.115 81.7 237.11Z" fill="#B0B0B0"/>
<path d="M44.89 162.12C43.5 161.45 44.6 159.4 45.59 158.88C45.8558 158.803 46.1404 158.822 46.3932 158.935C46.6459 159.048 46.8504 159.247 46.9704 159.497C47.0903 159.746 47.1179 160.03 47.0483 160.298C46.9786 160.566 46.8162 160.8 46.59 160.96C46.46 161.73 45.76 162.5 44.89 162.12Z" fill="#B0B0B0"/>
<path d="M45.31 170.2C44.03 169.61 44.71 168.2 45.31 167.3C45.91 166.4 46.31 164.97 47.54 165.65C48.32 166.11 48.13 167.03 47.66 167.65C47.25 168.68 46.94 170.76 45.31 170.2Z" fill="#B0B0B0"/>
<path d="M49.85 161.73C48.09 161.2 49.11 158.21 50.85 158.98C52.39 159.61 51.46 162.2 49.85 161.73Z" fill="#B0B0B0"/>
<path d="M55.9599 134.41C54.8499 133.88 55.6999 132.67 56.0499 131.9C56.3999 131.13 57.2299 129.17 58.2299 130.49C58.5099 130.91 58.12 131.49 58.01 131.8C57.54 132.72 57.4599 134.88 55.9599 134.41Z" fill="#B0B0B0"/>
<path d="M57.9401 142.78C56.3801 142.27 57.2501 140.51 57.5901 139.43C58.2101 138.26 58.1601 136.68 59.0601 135.75C61.4701 134.7 61.6301 137.21 60.6901 138.82C59.9901 140.13 59.9701 143.1 57.9401 142.78Z" fill="#B0B0B0"/>
<path d="M61.19 130.7C60.03 130.38 60.67 128.46 61.78 128.78C62.89 129.1 62.3 131.04 61.19 130.7Z" fill="#B0B0B0"/>
<path d="M64.18 100.87C62.66 100.07 66.31 95.9602 66.95 98.1802C66.9854 98.4014 66.9455 98.6281 66.8367 98.824C66.7279 99.0198 66.5565 99.1734 66.35 99.2602C65.65 99.9202 65.32 101.43 64.18 100.87Z" fill="#B0B0B0"/>
<path d="M174.46 134.9C172.99 134.8 173.37 133.09 173.46 132.08C173.45 131.87 173.494 131.661 173.585 131.472C173.677 131.283 173.815 131.12 173.986 130.998C174.157 130.876 174.356 130.798 174.564 130.772C174.773 130.746 174.984 130.773 175.18 130.85C176.18 131.26 175.86 132.28 175.68 133.08C175.69 133.89 175.46 134.93 174.46 134.9Z" fill="#B0B0B0"/>
<path d="M174.55 42.5C173.09 42.74 173.55 38.22 174.61 38.18C174.78 38.1514 174.955 38.1703 175.116 38.2346C175.276 38.299 175.416 38.4063 175.519 38.5448C175.622 38.6833 175.685 38.8475 175.702 39.0196C175.718 39.1916 175.686 39.3647 175.61 39.52C175.46 40.49 175.97 42.4 174.55 42.5Z" fill="#B0B0B0"/>
<path d="M175 51.3001C173.73 51.2001 174.09 49.8201 174.34 48.9801C174.41 48.3601 174.59 47.3901 175.43 47.7101C176.09 48.0101 175.74 48.8101 175.89 49.3701C176.08 50.1401 176.07 51.3101 175 51.3001Z" fill="#B0B0B0"/>
<path d="M177.51 45.11C176 45.27 176.09 41.41 177.44 41.43C179.11 41.2 179.15 45.2 177.51 45.11Z" fill="#B0B0B0"/>
<path d="M172.46 43.8902C171.15 43.8902 171.65 41.5402 172.82 41.9802C173.54 42.3602 173.46 43.9402 172.46 43.8902Z" fill="#B0B0B0"/>
<path d="M164.21 104.84C162.21 104.32 164.62 99.8398 166.05 101.62C166.51 102.15 166.05 102.84 165.85 103.33C165.65 104.11 165.21 105.14 164.21 104.84Z" fill="#B0B0B0"/>
<path d="M198.09 219.92C197.19 219.13 197.46 215.79 198.98 215.83C200.5 215.87 200.06 217.64 200.21 218.63C200.258 218.894 200.224 219.167 200.114 219.412C200.004 219.657 199.822 219.862 199.592 220.002C199.363 220.142 199.097 220.209 198.828 220.194C198.56 220.179 198.303 220.084 198.09 219.92Z" fill="#B0B0B0"/>
<path d="M201.61 219.2C201.515 217.722 201.515 216.239 201.61 214.76C201.608 214.591 201.643 214.423 201.712 214.268C201.781 214.114 201.883 213.976 202.01 213.864C202.137 213.752 202.287 213.669 202.449 213.62C202.611 213.571 202.782 213.557 202.95 213.58C204.57 213.81 203.77 217.58 204.3 218.92C204.337 219.277 204.231 219.634 204.005 219.912C203.779 220.191 203.452 220.368 203.095 220.405C202.738 220.442 202.381 220.336 202.103 220.11C201.824 219.884 201.647 219.557 201.61 219.2Z" fill="#B0B0B0"/>
</g>
<defs>
<clipPath id="clip0_55_5511">
<rect width="300.51" height="265.39" fill="white"/>
</clipPath>
</defs>
</svg>
