<svg width="142" height="331" viewBox="0 0 142 331" fill="none" xmlns="http://www.w3.org/2000/svg">
<g clip-path="url(#clip0_55_5566)">
<path d="M33.8 329.7C28 329.7 22.22 329.21 16.44 328.75C12.77 328.53 9.08 328.3 5.44 328.19H5H3.75L3.65997 326.9C3.14997 319.84 2.65999 312.77 2.10999 305.72L1.95999 305.67V305.13C1.86999 303.29 1.77999 301.45 1.67999 299.61C1.57999 297.77 1.44999 295.8 1.35999 293.89C1.26999 291.98 1.15998 290.05 1.06998 288.13L1.00998 286.75C1.25998 255.59 0.279995 224.45 0.119995 193.3C0.119995 179.77 0.119977 166.24 0.569977 152.72C1.10998 135.48 2.37 118.29 3.03 101.06C3.28 94.5298 3.47 87.9899 4.03 81.4899C5.19667 69.4899 6.40333 57.4899 7.64999 45.4899C9.54999 31.3799 11.65 17.2898 12.98 3.08984C13.05 2.33984 13.12 1.58984 13.18 0.839844C13.73 0.919844 14.27 0.979846 14.82 1.02985C16.24 1.16985 17.66 1.24985 19.08 1.34985L22.88 1.59985C24.13 1.67985 25.38 1.76985 26.63 1.82985C29.36 1.95985 32.09 2.06985 34.82 2.09985C37.55 2.12985 40.34 2.15985 43.1 2.16985H46.93C48.18 2.16985 49.44 2.16985 50.7 2.16985L53.14 2.07985C53.76 2.07985 54.37 2.01985 54.98 1.98985L59.24 1.76985L60.32 1.71985H60.39H60.64H60.71L66.92 1.40985L69.63 1.28986C73.16 1.14986 76.7 1.08985 80.23 1.07985C80.23 14.4598 80.55 27.8299 80.68 41.2099C80.83 54.2099 80.8 67.1399 80.82 80.0999C80.82 82.5699 80.82 85.0399 80.82 87.5099C80.8295 87.6328 80.8145 87.7565 80.7757 87.8736C80.737 87.9907 80.6754 88.099 80.5944 88.192C80.5134 88.2851 80.4147 88.3611 80.3041 88.4157C80.1935 88.4702 80.0731 88.5023 79.95 88.5099C79.877 88.5202 79.8029 88.5202 79.73 88.5099C79.6902 88.6267 79.6292 88.7352 79.55 88.8298C77.1928 93.4972 75.1872 98.3339 73.55 103.3C69.8 114.3 67.83 125.93 65.35 137.37C63.66 144.54 62.2 151.8 61.07 159.13C59.9 166.91 59.26 174.78 58.32 182.6C56.98 195.27 55.42 207.99 54.88 220.73C54.7 226.02 54.71 231.3 54.59 236.59C54.42 244.59 54.01 252.5 53.72 260.46C53.09 276.05 52.93 291.68 53.42 307.28C53.6533 313.647 53.6067 320.02 53.28 326.4C53.28 326.54 53.28 326.69 53.28 326.84C53.28 327.59 53.22 328.34 53.18 329.09C52.55 329.09 51.91 329.18 51.28 329.24C49.22 329.4 47.17 329.58 45.11 329.7C42.87 329.82 40.62 329.86 38.37 329.86C36.74 329.74 35.25 329.72 33.8 329.7Z" fill="#383838"/>
<path d="M49.28 11.23C44.82 11.11 40.35 11.31 35.89 10.99C32.94 10.76 29.99 10.44 27.02 10.29C24.31 10.16 21.6 10.36 18.89 10.46C17.6502 10.5001 16.4143 10.6204 15.19 10.82C14.76 11.38 13.94 10.67 14.19 9.99001C14.44 9.31001 15.13 9.18001 15.66 8.99001C16 8.91001 16.35 8.86 16.66 8.8C19.6229 8.4369 22.605 8.25323 25.59 8.25C28.4 8.31 31.2 8.61 34.01 8.91C37.4057 9.2533 40.8171 9.41686 44.23 9.40001C48.92 9.49001 53.65 9.69001 58.34 9.40001C61.18 9.26001 63.83 9.2 66.62 8.89C69.1849 8.53536 71.7708 8.35495 74.36 8.35001C75.43 8.35001 76.5 8.35 77.56 8.3C77.7289 8.31722 77.8855 8.3961 77.9999 8.52156C78.1143 8.64702 78.1784 8.81023 78.18 8.98C78.208 9.16459 78.1661 9.35299 78.0625 9.50833C77.9589 9.66368 77.8012 9.77481 77.62 9.82001C75.5823 10.1462 73.5235 10.3233 71.46 10.35C64.1 11 56.69 11.32 49.28 11.23Z" fill="#1E1E1E"/>
<path d="M16.65 24.0199C16.4507 23.9245 16.2913 23.762 16.1998 23.5608C16.1084 23.3597 16.0908 23.1327 16.15 22.9199C16.53 21.2199 16.99 19.5399 17.46 17.9199C17.93 16.2999 18.4 14.6099 18.9 12.9199C19.1569 11.9077 19.5119 10.9231 19.96 9.97986C20.29 9.46986 20.96 9.77987 20.96 10.4299C20.96 10.7599 20.8 10.9599 20.7 11.2299C19.7 14.5099 18.93 17.8699 18.09 21.2299C17.9 21.9599 17.71 22.6999 17.54 23.4399C17.5198 23.5365 17.4807 23.6281 17.425 23.7096C17.3693 23.791 17.2981 23.8607 17.2154 23.9146C17.1327 23.9685 17.0402 24.0055 16.9432 24.0236C16.8462 24.0416 16.7465 24.0404 16.65 24.0199Z" fill="#1E1E1E"/>
<path d="M15.22 14.1698C14.22 13.3098 15.37 12.0398 15.87 11.2498C16.37 10.4598 17.67 8.35983 18.32 10.0698C18.47 10.7598 17.84 11.0698 17.62 11.5398C16.93 12.4398 16.53 14.8698 15.22 14.1698Z" fill="#1E1E1E"/>
<path d="M23.09 23.2999C21.67 22.7299 23.8599 17.9899 23.9899 16.5699C24.5199 15.3899 25.8799 8.16985 26.9899 8.85985C28.3199 9.48985 26.1099 13.8598 25.9899 15.1998C25.5099 16.9198 25.0599 18.6699 24.5999 20.3999C24.1799 21.3399 24.34 23.5299 23.09 23.2999Z" fill="#1E1E1E"/>
<path d="M32.6599 17.57C30.9999 16.41 32.2799 12.77 32.5399 10.95C32.5697 10.7634 32.6698 10.5952 32.8197 10.48C32.9695 10.3648 33.1578 10.3113 33.3458 10.3305C33.5339 10.3497 33.7074 10.4401 33.8309 10.5832C33.9544 10.7263 34.0185 10.9112 34.0099 11.1C33.6938 12.4972 33.4997 13.9192 33.43 15.35C33.95 14.85 34.23 13.35 35.08 13.91C35.2358 14.0368 35.3436 14.213 35.3854 14.4095C35.4273 14.6059 35.4006 14.8108 35.31 14.99C34.74 16.11 33.9799 17.93 32.6599 17.57Z" fill="#1E1E1E"/>
<path d="M46.03 26.06C45.8233 25.9972 45.6469 25.8607 45.5344 25.6762C45.4219 25.4918 45.3812 25.2725 45.4199 25.06C45.8399 21.36 46.2499 17.66 46.5799 13.94C46.7899 13.02 46.3799 10.88 47.5799 11.06C48.5799 11.4 47.4499 16.14 47.5799 17.41C47.2199 18.81 47.49 26.59 46.03 26.06Z" fill="#1E1E1E"/>
<path d="M18.4301 319.01L4.33005 318.94C4.20956 318.871 4.10946 318.771 4.03986 318.651C3.97025 318.53 3.93359 318.394 3.93359 318.255C3.93359 318.116 3.97025 317.979 4.03986 317.859C4.10946 317.739 4.20956 317.639 4.33005 317.57C5.95638 317.378 7.59247 317.282 9.23004 317.28C21.78 317.04 34.61 317.28 47.13 316.33C48.7557 316.227 50.3868 316.243 52.01 316.38C53.3 316.67 52.91 318.96 51.61 318.59C51.1066 318.429 50.574 318.382 50.05 318.45C47.3601 318.66 44.68 318.94 41.98 318.94C39.28 318.94 36.82 318.87 34.23 318.94C28.93 318.96 23.6901 319.11 18.4301 319.01Z" fill="#1E1E1E"/>
<path d="M96.29 330.49C94.23 330.36 92.18 330.19 90.12 330.02L88.22 329.87C88.22 329.12 88.15 328.37 88.12 327.62C88.12 327.47 88.12 327.33 88.12 327.18C87.8 320.807 87.7533 314.433 87.98 308.06C88.47 292.46 88.31 276.83 87.68 261.24C87.39 253.29 86.98 245.33 86.81 237.37C86.69 232.09 86.7 226.8 86.52 221.52C85.98 208.77 84.42 196.06 83.08 183.38C82.14 175.57 81.5 167.69 80.33 159.92C79.2 152.58 77.74 145.33 76.05 138.15C73.57 126.72 71.6 115.05 67.85 104.08C66.2092 99.1156 64.2038 94.279 61.85 89.6101C61.7691 89.5166 61.7079 89.4078 61.67 89.2901C61.5994 89.3172 61.5254 89.3341 61.45 89.3401C61.2023 89.3222 60.9718 89.2069 60.8088 89.0196C60.6458 88.8322 60.5635 88.5879 60.58 88.3401C60.58 85.8701 60.58 83.4001 60.53 80.9301C60.53 67.9301 60.53 55.0101 60.68 42.0401C60.8 28.5701 61.14 15.1001 61.12 1.63012L66.89 1.33012L69.6 1.22011C74.98 1.00011 80.36 1.00011 85.74 1.03011C88.39 1.03011 91.05 1.09012 93.74 1.15012C96.43 1.21012 99.05 1.31011 101.74 1.42011L105.81 1.56011L109.94 1.66012C112.48 1.71012 115.01 1.66012 117.54 1.66012C120.32 1.66012 123.09 1.66012 125.87 1.60012H128.24C128.3 2.40012 128.37 3.19011 128.45 3.98011C129.83 18.1901 131.88 32.2701 133.78 46.3801C135.033 58.3801 136.24 70.3801 137.4 82.3801C138 88.8801 138.19 95.3801 138.4 101.94C139.06 119.17 140.32 136.36 140.86 153.6C141.34 167.12 141.35 180.66 141.32 194.18C141.25 206.33 141.06 218.47 140.87 230.6C140.87 230.65 140.87 230.69 140.87 230.73C140.87 231.03 140.87 231.33 140.87 231.63C140.65 245.63 140.43 259.63 140.39 273.63C140.39 274.42 140.34 275.21 140.31 276C140.21 278.68 140.09 281.35 139.97 284C139.85 286.65 139.74 289.11 139.58 291.67C139.42 294.23 139.21 297.07 139.03 299.77C138.85 302.47 138.77 304.96 138.71 307.56C138.65 310.16 138.58 312.97 138.53 315.67C138.53 316.22 138.53 316.77 138.53 317.32L137.78 327.8L137.69 329.08H136.44H136C132.32 329.18 128.64 329.41 125 329.63C119.22 330.09 113.44 330.57 107.64 330.63H103.17C100.8 330.64 98.53 330.6 96.29 330.49Z" fill="#383838"/>
<path d="M91.98 12.1302C96.44 12.0102 100.91 12.2202 105.37 11.9002C108.37 11.6702 111.28 11.3401 114.24 11.2001C116.95 11.0601 119.66 11.2701 122.37 11.3701C123.61 11.4053 124.846 11.5256 126.07 11.7301C126.5 12.2901 127.32 11.5802 127.07 10.9002C126.82 10.2202 126.13 10.0902 125.6 9.90016C125.26 9.82016 124.91 9.77016 124.6 9.71016C121.637 9.35204 118.655 9.16838 115.67 9.16016C112.86 9.22016 110.06 9.52016 107.25 9.82016C103.855 10.1684 100.443 10.332 97.03 10.3102C92.34 10.4002 87.61 10.6002 82.92 10.3102C80.08 10.1602 77.43 10.1002 74.64 9.79016C72.0749 9.43884 69.489 9.26177 66.9 9.26016C65.83 9.26016 64.76 9.26015 63.7 9.20015C63.5311 9.21737 63.3744 9.29625 63.26 9.42171C63.1457 9.54716 63.0815 9.71039 63.08 9.88016C63.0516 10.066 63.0932 10.2558 63.1966 10.4128C63.3001 10.5697 63.458 10.6828 63.64 10.7301C65.6779 11.053 67.7367 11.2268 69.8 11.2502C77.16 11.9002 84.57 12.2202 91.98 12.1302Z" fill="#1E1E1E"/>
<path d="M124.61 24.9202C124.811 24.8264 124.971 24.6641 125.063 24.4624C125.155 24.2608 125.171 24.033 125.11 23.8202C124.73 22.1202 124.27 20.4402 123.8 18.8202C123.33 17.2002 122.86 15.5102 122.36 13.8202C122.106 12.807 121.751 11.8221 121.3 10.8802C120.97 10.3702 120.25 10.6802 120.3 11.3202C120.3 11.6502 120.46 11.8502 120.56 12.1302C121.56 15.4102 122.33 18.7602 123.17 22.1302C123.36 22.8702 123.55 23.6002 123.72 24.3402C123.74 24.4368 123.779 24.5284 123.835 24.6099C123.891 24.6913 123.962 24.761 124.045 24.8149C124.127 24.8688 124.22 24.9058 124.317 24.9239C124.414 24.9419 124.513 24.9407 124.61 24.9202Z" fill="#1E1E1E"/>
<path d="M126.04 15.0702C127.04 14.2202 125.89 12.9402 125.4 12.1502C124.91 11.3602 123.59 9.26022 122.94 10.9702C122.79 11.6702 123.42 11.9702 123.64 12.4502C124.34 13.3202 124.73 15.7702 126.04 15.0702Z" fill="#1E1E1E"/>
<path d="M118.17 24.1998C119.59 23.6298 117.4 18.8898 117.27 17.4798C116.74 16.2898 115.38 9.06985 114.27 9.76985C112.94 10.3998 115.15 14.7199 115.27 16.0999C115.75 17.8299 116.2 19.5698 116.66 21.3098C117.08 22.2398 116.92 24.4398 118.17 24.1998Z" fill="#1E1E1E"/>
<path d="M108.6 18.4399C110.27 17.2799 108.98 13.6499 108.72 11.8199C108.691 11.6312 108.591 11.4609 108.44 11.3445C108.288 11.2281 108.098 11.1746 107.908 11.1953C107.719 11.2159 107.544 11.3091 107.422 11.4553C107.299 11.6015 107.237 11.7894 107.25 11.9799C107.566 13.3737 107.76 14.7924 107.83 16.2199C107.31 15.7299 107.03 14.2199 106.18 14.7799C106.023 14.9083 105.915 15.0863 105.873 15.2844C105.832 15.4826 105.859 15.6891 105.95 15.8699C106.52 17.0199 107.28 18.8399 108.6 18.4399Z" fill="#1E1E1E"/>
<path d="M95.23 26.9598C95.4367 26.897 95.6131 26.7604 95.7256 26.576C95.838 26.3916 95.8788 26.1723 95.84 25.9598C95.42 22.2598 95.01 18.5598 94.68 14.8498C94.47 13.9298 94.88 11.7898 93.68 11.9598C92.68 12.2998 93.81 17.0398 93.68 18.3098C94.04 19.7198 93.8 27.4998 95.23 26.9598Z" fill="#1E1E1E"/>
<path d="M122.8 319.92C127.5 319.92 132.2 319.92 136.9 319.85C137.023 319.785 137.127 319.689 137.201 319.572C137.275 319.454 137.317 319.319 137.322 319.18C137.327 319.041 137.295 318.903 137.23 318.78C137.165 318.657 137.068 318.554 136.95 318.48C135.324 318.285 133.688 318.185 132.05 318.18C119.5 317.94 106.67 318.18 94.15 317.23C92.5255 317.11 90.8944 317.11 89.27 317.23C87.98 317.53 88.3699 319.81 89.6699 319.45C90.1726 319.286 90.7052 319.235 91.2299 319.3C93.9199 319.51 96.6 319.79 99.3 319.8C102 319.81 104.46 319.72 107.05 319.75C112.33 319.87 117.58 320.01 122.8 319.92Z" fill="#1E1E1E"/>
<path d="M73.45 7.32997C74.24 7.24997 73.29 6.56997 73.1 6.32997C72.61 6.75997 72.8 7.43997 73.45 7.32997ZM72.67 9.32997C68.86 8.09997 72.89 1.85997 74.74 5.32997C76.44 7.08997 74.68 10.13 72.67 9.34998V9.32997Z" fill="#1E1E1E"/>
<path d="M72.5 101.05C72.3134 101.025 72.1436 100.929 72.0262 100.782C71.9088 100.634 71.8529 100.448 71.87 100.26C71.87 98.26 71.82 96.35 71.87 94.39C72.08 77.27 72.46 60.15 72.75 43.03C72.87 35.44 73.39 27.87 74.01 20.31C74.21 17.92 74.35 15.54 74.48 13.16C74.76 12.43 75.7 12.76 75.56 13.6C75.56 17.27 75.24 20.93 75.05 24.6C73.99 43.78 74.33 63.02 73.72 82.22C73.56 87.1 73.5 91.98 73.32 96.86C73.32 98 73.22 99.15 73.19 100.29C73.1982 100.482 73.1303 100.67 73.0011 100.812C72.872 100.954 72.6919 101.04 72.5 101.05Z" fill="#1E1E1E"/>
<path d="M72.4 62.5098C70.1115 60.17 68.292 57.4137 67.04 54.3898C65.7436 50.1783 64.9251 45.8343 64.6 41.4398C64.12 35.5798 63.6 29.7198 63.27 23.8498C63.13 19.9298 62.88 15.9898 63.02 12.0698C63.08 11.6798 63.39 11.4198 63.72 11.5298C63.8563 11.5895 63.9692 11.6923 64.0414 11.8223C64.1137 11.9524 64.1413 12.1025 64.12 12.2498C64.12 13.1198 64.12 13.9798 64.18 14.8398C64.39 20.7298 64.89 26.5898 65.53 32.4398C66.07 37.7298 66.43 43.0698 67.44 48.2698C67.8619 51.586 69.0761 54.7519 70.98 57.4998C71.82 58.6798 72.71 59.7898 73.62 60.8798C74.53 61.9698 73.29 63.3298 72.4 62.5098Z" fill="#1E1E1E"/>
<path d="M111.6 201.79C110.27 200.79 103.83 186.1 106.12 185.71C106.65 185.53 107.17 186.21 107 186.83C108.039 190.626 109.449 194.31 111.21 197.83C111.58 199.14 113.53 200.44 112.74 201.83C112.67 201.915 112.581 201.983 112.48 202.028C112.38 202.073 112.27 202.094 112.16 202.09C112.05 202.087 111.942 202.058 111.845 202.005C111.748 201.953 111.664 201.88 111.6 201.79Z" fill="#1E1E1E"/>
<path d="M118.74 192.23C117.57 191.3 119.4 188.52 119.46 187.11C119.99 185.88 119.82 181.48 121.67 183.18C122.21 183.76 119.87 193.61 118.74 192.23Z" fill="#1E1E1E"/>
<path d="M24.87 246.31C23.61 245 15.17 231.98 18.2 231.36C18.65 231.36 18.91 231.83 18.95 232.31C19.6406 234.343 20.5176 236.308 21.5699 238.18C22.8657 240.57 24.3434 242.857 25.99 245.02C26.69 245.88 25.57 247.18 24.87 246.31Z" fill="#1E1E1E"/>
<path d="M34.38 228.44C33.02 228.23 35.7201 219.84 35.7401 218.15C36.2301 216.81 36.04 212.45 37.23 212.27C38.8 212.27 36.61 219.53 36.6 220.91C36.06 222.26 35.8 228.81 34.38 228.44Z" fill="#1E1E1E"/>
</g>
<defs>
<clipPath id="clip0_55_5566">
<rect width="141.25" height="330.64" fill="white"/>
</clipPath>
</defs>
</svg>
