<svg width="144" height="100" viewBox="0 0 144 100" fill="none" xmlns="http://www.w3.org/2000/svg">
<g clip-path="url(#clip0_54_5148)">
<path d="M140.61 79.8201H140.51C139.19 80.0601 137.87 80.2601 136.51 80.4701C132.51 80.9701 128.7 82.3201 124.77 83.1601C120.84 84.0001 116.99 84.3401 113.12 84.9401C116.99 84.3401 120.94 83.9401 124.77 83.1601C128.6 82.3801 132.51 80.9701 136.5 80.4701C137.83 80.2501 139.15 80.0601 140.5 79.8201H140.59H140.61Z" fill="#8E5021"/>
<path d="M143.31 87.2999L143.61 89.3799L142.14 89.8299C141.36 90.0499 140.58 90.2799 139.81 90.5199C139.29 90.6799 138.76 90.8099 138.22 90.9399L137.95 89.6899C137.95 89.6099 137.95 89.5399 137.95 89.4599L137.86 88.9699C137.824 88.7753 137.745 88.591 137.63 88.4299C137.516 88.2816 137.355 88.1763 137.174 88.1309C136.992 88.0855 136.8 88.1028 136.63 88.1799C136.07 88.3999 135.9 89.0799 135.78 89.6199C135.687 90.0854 135.623 90.5564 135.59 91.0299C135.59 91.1899 135.59 91.3499 135.59 91.5099L133.49 91.9999L129.97 92.7899C129.943 92.6673 129.906 92.547 129.86 92.4299C129.79 92.2599 129.71 92.0799 129.62 91.9099C129.53 91.7399 129.29 91.3399 129.12 91.0499C128.95 90.7599 128.84 90.5399 128.55 90.4399C128.389 90.3606 128.208 90.3306 128.03 90.3538C127.852 90.3769 127.685 90.4521 127.55 90.5699C127.37 90.7142 127.232 90.9041 127.15 91.1199C127.072 91.3332 127.018 91.5546 126.99 91.7799C126.99 92.0899 126.92 92.3899 126.91 92.6999V93.5099C126.243 93.6699 125.543 93.8199 124.81 93.9599L123.97 94.0999C122.79 94.2599 121.6 94.3699 120.42 94.5399C120.29 93.9899 120.14 93.4599 119.98 92.9199C119.9 92.599 119.779 92.2897 119.62 91.9999C119.535 91.8304 119.403 91.6886 119.24 91.5912C119.077 91.4939 118.89 91.4448 118.7 91.4499C118.51 91.4593 118.325 91.5188 118.166 91.6224C118.006 91.7261 117.876 91.8701 117.79 92.0399C117.646 92.3112 117.551 92.6057 117.51 92.9099C117.51 93.0399 117.45 93.1799 117.43 93.3199C117.41 93.4599 117.36 93.7199 117.34 93.9299C117.34 94.3199 117.27 94.7099 117.24 95.0999L114.87 95.5399C113.37 95.7999 111.87 95.9599 110.35 96.1099H110.17C110.17 95.7999 110.08 95.4899 110.03 95.1799C109.982 94.7577 109.888 94.3419 109.75 93.9399C109.613 93.5435 109.326 93.2167 108.95 93.0299C108.742 92.9499 108.515 92.9337 108.297 92.9836C108.08 93.0335 107.882 93.1471 107.73 93.3099C107.402 93.731 107.204 94.2383 107.16 94.7699C107.06 95.2299 106.99 95.6999 106.93 96.1699C105.18 96.1699 103.41 96.2899 101.65 96.2799C101.513 96.3445 101.361 96.3721 101.21 96.3599C100.55 96.3599 99.89 96.2599 99.21 96.1899L98.21 96.0799C98.21 96.0099 98.21 95.9299 98.21 95.8599C98.1987 95.4281 98.162 94.9974 98.1 94.5699C98.0559 94.3264 97.9855 94.0883 97.89 93.8599C97.7954 93.6155 97.6087 93.4181 97.37 93.3099C97.1855 93.2451 96.9845 93.2451 96.8 93.3099C96.5873 93.3712 96.4008 93.5013 96.27 93.6799C96.1299 93.8903 96.0283 94.124 95.97 94.3699C95.9 94.5799 95.83 94.7999 95.78 95.0199C95.73 95.2399 95.67 95.4699 95.61 95.6999V95.7999C93.55 95.5199 91.5 95.2199 89.44 94.9499C88.85 94.8599 88.36 94.7699 87.92 94.6799C87.92 94.5599 87.92 94.4399 87.97 94.3199C87.97 93.9899 88.06 93.6699 88.09 93.3199L88.15 92.7299C88.2038 92.3784 88.1764 92.0192 88.07 91.6799C87.9933 91.5 87.86 91.35 87.6904 91.2525C87.5208 91.1551 87.3241 91.1156 87.13 91.1399C86.9419 91.1836 86.7652 91.2668 86.6117 91.3841C86.4583 91.5013 86.3316 91.6499 86.24 91.8199C86.01 92.1599 85.81 92.5099 85.61 92.8699C85.41 93.2299 85.36 93.3399 85.24 93.5799C84.65 93.1999 84.02 92.7099 83.24 92.0599C79.4325 89.8966 75.4401 88.0761 71.31 86.6199C69.87 86.1499 68.13 85.3099 66.36 84.6799L66.02 84.4899C65.2604 84.0208 64.4438 83.6511 63.59 83.3899C63.1064 83.293 62.6127 83.256 62.12 83.2799C61.7816 83.2868 61.4455 83.3372 61.12 83.4299C60.8773 83.5023 60.6453 83.6065 60.43 83.7399L60.1 83.9599C59.4285 84.4798 58.8416 85.1005 58.36 85.7999C57.8099 86.5253 57.3686 87.3271 57.05 88.1799C56.91 88.5499 56.78 88.9199 56.65 89.2999C56.52 89.6799 56.35 90.1399 56.19 90.5599C56.19 90.5599 56.19 90.6499 56.14 90.6899H55.81C53.4863 90.5168 51.1774 90.1827 48.9 89.6899C48.9 89.2799 48.97 88.8599 48.96 88.4499C48.9917 87.8207 48.8717 87.1931 48.61 86.6199C48.5256 86.4254 48.3857 86.26 48.2079 86.1444C48.03 86.0288 47.8221 85.9681 47.61 85.9699C46.97 85.9699 46.68 86.6399 46.46 87.1399C46.24 87.6399 46.12 87.9399 45.97 88.3499C45.91 88.5299 45.84 88.7099 45.77 88.8899C44.14 88.4199 42.53 87.8899 40.87 87.4499L39.97 87.2599C39.97 86.8699 39.97 86.4899 39.97 86.1099C39.9985 85.5553 39.9717 84.9992 39.89 84.4499C39.8511 84.2123 39.7588 83.9867 39.62 83.7899C39.5118 83.6257 39.3488 83.5052 39.16 83.4499C38.9748 83.3896 38.7752 83.3896 38.59 83.4499C38.4087 83.5199 38.2545 83.646 38.15 83.8099C38.0236 84.0416 37.923 84.2864 37.85 84.5399L37.67 85.1399C37.56 85.5099 37.45 85.8799 37.37 86.2499L37.28 86.7099C35.17 86.3099 33.06 85.9199 30.98 85.3899V84.5299C30.9816 84.1787 30.9582 83.8278 30.91 83.4799C30.884 83.0658 30.7752 82.6612 30.59 82.2899C30.5102 82.1467 30.3965 82.0252 30.2587 81.9363C30.1209 81.8473 29.9634 81.7937 29.8 81.7799C29.6202 81.7763 29.4443 81.8326 29.3 81.9399C29.1447 82.0646 29.0185 82.2215 28.93 82.3999C28.79 82.6999 28.64 83.0099 28.52 83.3199C28.4103 83.5942 28.3168 83.8747 28.24 84.1599C28.24 84.2899 28.18 84.4199 28.16 84.5499C27.68 84.3899 27.16 84.2099 26.72 84.0199C25.89 83.7099 25.06 83.3799 24.22 83.0799C24.0833 83.0608 23.9547 83.0039 23.8487 82.9155C23.7427 82.8272 23.6635 82.7109 23.62 82.5799C23.497 82.5078 23.3957 82.4037 23.3271 82.2787C23.2584 82.1537 23.2249 82.0125 23.23 81.8699C23.61 78.4699 22.94 66.8699 27.64 66.4199C27.5956 66.5393 27.5956 66.6706 27.64 66.7899C27.6651 66.8773 27.7156 66.9553 27.785 67.014C27.8544 67.0728 27.9397 67.1096 28.03 67.1199C28.4612 67.2703 28.9022 67.3905 29.35 67.4799C30.82 67.7999 32.35 67.9799 33.79 68.3699C36.3 69.2599 38.99 69.3699 41.6 69.6099C42.85 69.7499 44.09 69.9599 45.34 70.1299C46.59 70.2999 47.67 70.6899 48.9 71.0099C49.989 71.2448 51.0909 71.4151 52.2 71.5199C53.1475 71.7219 54.0825 71.979 55 72.2899C56.26 72.6399 57.58 72.8099 58.83 73.2199C60.49 73.7499 62.07 74.5099 63.69 75.1599L64.63 75.4999H64.69H64.76C65.29 75.7599 65.84 76.0099 66.38 76.2499L67.61 76.7699L68.03 76.9399L68.93 77.2999C69.99 77.8499 71.04 78.4299 72.12 78.9199C73.89 79.6799 75.75 80.2199 77.54 80.9199C77.6514 80.9496 77.7686 80.9496 77.88 80.9199L82.21 82.8099L83.09 83.1499L83.76 83.3699C84.02 83.4599 84.29 83.5399 84.55 83.6099C85.33 83.8399 86.13 84.0399 86.93 84.2099H86.98L88.09 84.4399L89.5 84.7199C90.5 84.9299 91.44 85.2499 92.44 85.3699L92.86 85.4199H92.97H93.04L93.16 85.4699C93.2117 85.4866 93.2594 85.5138 93.3 85.5499C95.3 85.5999 97.24 85.6299 99.13 85.7699C100.005 85.8449 100.882 85.8749 101.76 85.8599C102.23 85.8599 102.7 85.8599 103.17 85.8599H103.63L104.37 85.8099L105.11 85.7499H105.2L106.35 85.6299L108.1 85.4199C109.74 85.2199 111.39 85.1599 113.03 84.8999C116.9 84.2999 120.85 83.8999 124.68 83.1199C128.51 82.3399 132.42 80.9299 136.41 80.4299C137.74 80.2099 139.06 80.0199 140.41 79.7799H140.5C140.896 79.6695 141.314 79.6695 141.71 79.7799C141.82 80.2199 141.93 80.6599 142.03 81.0999C142.13 81.5399 142.26 82.0999 142.36 82.5399C142.46 82.9799 142.56 83.5399 142.67 84.0499C142.95 85.1799 143.15 86.2399 143.31 87.2999Z" fill="#242424"/>
<path d="M128.93 91.55C128.927 91.5766 128.927 91.6035 128.93 91.6301V91.55Z" fill="#242424"/>
<path d="M36.17 4.75996C36.05 6.98996 37.44 8.68995 38.46 10.5299C38.53 9.61995 38.61 8.71996 38.7 7.81996C38.79 6.91996 38.91 5.94995 39.1 5.02995L39 4.90995C38.78 4.66995 38.82 4.37996 38.75 4.09996C38.4409 3.49952 37.956 3.00764 37.36 2.68995C37.3042 2.66088 37.2428 2.64383 37.18 2.63993C36.41 2.55993 36.29 4.19996 36.17 4.75996ZM93.39 85.6899C93.3494 85.6538 93.3018 85.6266 93.25 85.6099L93.13 85.5599H93.06H92.95H92.71H92.53C91.53 85.4399 90.53 85.1199 89.59 84.91L88.18 84.63L87.07 84.3999H87.02C85.9495 84.1752 84.8913 83.8949 83.85 83.5599L83.18 83.3399L82.3 82.9999L77.97 81.1099C77.8586 81.1396 77.7414 81.1396 77.63 81.1099C75.84 80.4199 73.98 79.8799 72.21 79.1099C71.13 78.6199 70.08 78.0399 69.02 77.4899L68.12 77.1399L67.7 76.9699L66.47 76.4499C65.93 76.2099 65.38 75.9599 64.85 75.6999L64.72 75.63L63.78 75.29C62.16 74.64 60.58 73.88 58.92 73.35C57.66 72.9399 56.35 72.7699 55.09 72.4199C54.1725 72.109 53.2375 71.8519 52.29 71.6499C51.1815 71.5402 50.0799 71.3699 48.99 71.1399C47.76 70.8199 46.6 70.44 45.43 70.26C44.26 70.08 42.94 69.8799 41.69 69.7399C41.18 69.6799 40.69 69.6299 40.14 69.5899C38.016 69.4897 35.9129 69.1235 33.88 68.4999C32.42 68.1099 30.88 67.9299 29.44 67.6099C28.9922 67.5205 28.5512 67.4003 28.12 67.2499C28.0297 67.2396 27.9444 67.2028 27.875 67.1441C27.8056 67.0853 27.7551 67.0073 27.73 66.9199C27.6856 66.8006 27.6856 66.6693 27.73 66.5499C27.7714 66.4739 27.8339 66.4114 27.91 66.3699C27.91 66.2599 27.91 66.1499 27.91 66.0299C27.91 65.6899 27.91 65.3399 27.91 65.0299C27.27 62.2999 27.75 59.3899 27.91 56.6199C28.1246 53.2909 28.8428 50.0137 30.04 46.8999C30.87 44.8999 31.9 43.0299 32.82 41.0899C34.483 37.5517 35.8219 33.87 36.82 30.0899C37.2036 28.7775 37.5009 27.4413 37.71 26.0899C37.98 22.3599 38.06 18.6199 38.23 14.8899C37.2339 14.1458 36.42 13.1849 35.85 12.0799C33.35 9.07994 31.99 4.59995 34.62 1.24995C36.51 -0.93005 38.98 0.579954 40.15 2.62995C40.2765 2.47026 40.4246 2.32889 40.59 2.20994C40.558 2.13374 40.5458 2.05069 40.5546 1.96852C40.5633 1.88634 40.5927 1.80771 40.64 1.73994C41.11 1.20994 41.98 1.27993 42.64 1.16993C44.623 1.20314 46.5892 1.5404 48.47 2.16993C49.77 2.50993 51.09 2.77993 52.39 3.16993C54.16 3.61993 55.87 4.27995 57.66 4.62995C60.068 5.01325 62.4948 5.26693 64.93 5.38993C69.36 5.67993 73.75 5.59995 78.18 5.71995C79.6034 5.71985 81.0256 5.79997 82.44 5.95994C84.34 6.15994 85.11 7.67993 85.33 9.41993C85.49 12.0999 84.91 14.7899 84.84 17.4799C84.66 21.1499 84.47 24.8199 84.29 28.4799C84.29 28.7099 84.21 28.9399 84.16 29.1699C84 30.0199 83.84 30.8699 83.71 31.7299C83.58 32.5899 83.48 33.2299 83.38 33.97C83.32 34.35 83.27 34.7399 83.23 35.1199C83.1781 35.5346 83.1514 35.952 83.15 36.3699C83.1564 36.7688 83.1932 37.1666 83.26 37.5599C83.3633 38.2776 83.6301 38.9619 84.04 39.5599L83.99 39.6199L84.21 40.0299C85.29 41.82 86.64 43.4099 87.88 45.0899C88.9014 46.5956 90.0169 48.0351 91.22 49.3999C93.97 51.9199 96.83 54.3199 99.71 56.7099C102.097 58.5357 104.86 59.8065 107.8 60.4299C109.28 60.8599 110.72 61.43 112.2 61.82C114.36 62.38 116.56 62.8199 118.71 63.3999C123.13 64.6999 127.93 64.91 131.94 67.35C136.82 69.99 139.42 72.62 140.24 78.29C140.276 78.5011 140.264 78.7177 140.205 78.9236C140.147 79.1296 140.042 79.3197 139.9 79.4799C139.91 79.5933 139.889 79.7074 139.84 79.8099C139.849 79.8528 139.849 79.8971 139.84 79.9399C139.974 79.9079 140.114 79.9065 140.249 79.9359C140.384 79.9654 140.511 80.0248 140.62 80.1099H140.53C139.21 80.3499 137.89 80.54 136.53 80.76C132.53 81.25 128.73 82.6099 124.8 83.4499C120.87 84.2899 117.01 84.6299 113.15 85.2299C111.51 85.4899 109.86 85.5499 108.22 85.7499L106.47 85.9599H106.25L105.3 86.07H105.21L104.47 86.13L103.73 86.1799C103.11 86.1799 102.48 86.2499 101.86 86.2499C100.982 86.2649 100.105 86.2349 99.23 86.16C97.34 86.02 95.35 85.99 93.4 85.9399L93.39 85.6899Z" fill="#8E5021"/>
<path d="M38.14 18.3101C38.28 16.4401 38.58 14.6801 38.71 12.8501C38.7781 10.488 39.0019 8.13282 39.38 5.80011C39.4953 4.78502 39.696 3.78146 39.98 2.80011C40.0118 2.75864 40.0526 2.72503 40.0995 2.7019C40.1463 2.67878 40.1978 2.66675 40.25 2.66675C40.3023 2.66675 40.3537 2.67878 40.4006 2.7019C40.4474 2.72503 40.4883 2.75864 40.52 2.80011C40.66 3.01011 40.58 3.28013 40.58 3.51013C40.35 6.16013 39.81 8.78012 39.7 11.4401C39.6252 13.7825 39.4249 16.1192 39.1 18.4401C39.0669 18.5525 38.9947 18.6493 38.8964 18.713C38.7981 18.7767 38.6803 18.8031 38.5642 18.7874C38.4481 18.7716 38.3415 18.7149 38.2637 18.6273C38.1859 18.5398 38.142 18.4272 38.14 18.3101Z" fill="#5F301F"/>
<path d="M54.61 3.56012C54.32 4.98012 54.01 6.39012 53.61 7.78012C51.45 16.1901 50.56 24.8501 49.15 33.4001C48.29 38.5701 47.8 43.7901 47.27 48.9901C47.2414 49.1671 47.146 49.3264 47.0035 49.4352C46.8609 49.5439 46.6821 49.5938 46.5038 49.5746C46.3255 49.5553 46.1615 49.4684 46.0454 49.3318C45.9293 49.1951 45.8701 49.0191 45.88 48.8401C46.31 43.6201 46.77 38.4101 47.56 33.2301C48.56 26.8901 49.43 20.5301 50.69 14.2301C51.41 10.4901 52.53 6.85012 53.32 3.12012L54.61 3.56012Z" fill="#5F301F"/>
<path d="M77.61 39.7499C77.5386 39.602 77.5268 39.4323 77.5771 39.2759C77.6273 39.1196 77.7358 38.9885 77.88 38.9099C78.66 38.5399 79.45 38.1999 80.23 37.9099C80.84 37.6399 81.48 37.3899 82.1 37.1799C82.176 37.1496 82.2574 37.1348 82.3392 37.1366C82.421 37.1384 82.5017 37.1566 82.5764 37.1902C82.651 37.2238 82.7181 37.2721 82.7737 37.3321C82.8293 37.3922 82.8723 37.4629 82.9 37.5399C82.9256 37.6226 82.9338 37.7097 82.9243 37.7958C82.9147 37.8819 82.8874 37.965 82.8443 38.0401C82.8011 38.1152 82.7429 38.1806 82.6734 38.2321C82.6038 38.2837 82.5243 38.3204 82.44 38.3399C81.86 38.5299 81.3 38.7899 80.73 39.0299C79.97 39.3699 79.21 39.6999 78.45 40.0299C78.3009 40.1005 78.1303 40.1108 77.9738 40.0586C77.8172 40.0064 77.6869 39.8958 77.61 39.7499Z" fill="#5F301F"/>
<path d="M81.05 41.73C80.39 41.09 81.58 40.35 81.94 39.86C82.3 39.37 82.75 38.79 83.34 38.86C83.4706 38.8837 83.5885 38.953 83.6728 39.0556C83.757 39.1581 83.8021 39.2873 83.8 39.42C83.7912 39.527 83.7529 39.6295 83.6893 39.716C83.6258 39.8025 83.5395 39.8697 83.44 39.91L82.94 40.41C82.56 40.82 82.18 41.24 81.84 41.68C81.7418 41.7914 81.6035 41.8592 81.4553 41.8685C81.3072 41.8779 81.1614 41.8281 81.05 41.73Z" fill="#5F301F"/>
<path d="M39.99 64.19C38.81 64 39.21 61.91 40.29 61.94C41.55 62.02 41.24 64.43 39.99 64.19Z" fill="#5F301F"/>
<path d="M39.73 66.3101C39.67 65.0901 41.23 64.68 41.37 65.99C41.27 66.34 41.3 66.75 41.02 66.99C40.9014 67.0947 40.7537 67.1607 40.5966 67.1794C40.4395 67.1982 40.2805 67.1687 40.1405 67.0949C40.0006 67.0212 39.8864 66.9066 39.8131 66.7664C39.7398 66.6262 39.7108 66.4671 39.73 66.3101Z" fill="#5F301F"/>
<path d="M42.61 64.44C42.17 64.36 42.2301 63.88 42.3101 63.55C42.3197 63.4928 42.3406 63.438 42.3715 63.3889C42.4024 63.3398 42.4427 63.2973 42.4901 63.2639C42.5375 63.2304 42.5911 63.2067 42.6477 63.194C42.7043 63.1813 42.7629 63.1799 42.82 63.19C43.26 63.27 43.2 63.75 43.13 64.08C43.1204 64.1382 43.0992 64.1939 43.0677 64.2438C43.0361 64.2936 42.9949 64.3366 42.9464 64.3702C42.8978 64.4038 42.8431 64.4273 42.7853 64.4393C42.7275 64.4512 42.6679 64.4515 42.61 64.44Z" fill="#5F301F"/>
<path d="M36.88 48.8399C35.88 48.6399 36.28 47.5399 36.39 46.8399C36.4153 46.7161 36.4679 46.5995 36.544 46.4985C36.6201 46.3976 36.7177 46.3149 36.8298 46.2565C36.9419 46.198 37.0656 46.1653 37.1919 46.1607C37.3182 46.1561 37.444 46.1798 37.56 46.2299C38.38 46.6099 37.86 47.4999 37.84 48.1599C37.8009 48.3764 37.6784 48.5689 37.4989 48.696C37.3194 48.8232 37.0971 48.8748 36.88 48.8399Z" fill="#C3844F"/>
<path d="M36.91 51.29C36.9161 51.1597 36.9606 51.0341 37.0381 50.929C37.1155 50.824 37.2223 50.7443 37.345 50.6999C37.4677 50.6556 37.6008 50.6486 37.7275 50.6799C37.8542 50.7112 37.9687 50.7793 38.0567 50.8757C38.1447 50.972 38.2021 51.0923 38.2218 51.2213C38.2414 51.3503 38.2224 51.4822 38.1671 51.6004C38.1118 51.7185 38.0227 51.8177 37.9111 51.8852C37.7995 51.9528 37.6704 51.9858 37.54 51.98C37.3658 51.9697 37.2026 51.8918 37.0849 51.7629C36.9672 51.6341 36.9045 51.4644 36.91 51.29Z" fill="#C3844F"/>
<path d="M38.4399 48.53C38.2989 48.3765 38.2155 48.1789 38.204 47.9708C38.1925 47.7626 38.2536 47.557 38.3768 47.3889C38.5 47.2208 38.6777 47.1007 38.8796 47.0491C39.0816 46.9974 39.2952 47.0175 39.484 47.1058C39.6727 47.1941 39.825 47.3452 39.9148 47.5333C40.0046 47.7213 40.0263 47.9347 39.9763 48.1371C39.9262 48.3394 39.8075 48.5181 39.6404 48.6426C39.4733 48.7672 39.2682 48.8299 39.06 48.82C38.8256 48.7993 38.6061 48.6966 38.4399 48.53Z" fill="#C3844F"/>
<path d="M74.51 17.23C73.09 16.98 74.03 14.42 75.24 15.33C75.91 15.93 75.54 17.42 74.51 17.23Z" fill="#C3844F"/>
<path d="M74.61 21.6199C74.04 21.4999 74.27 20.8599 74.44 20.4999C74.61 20.1399 74.61 19.9799 74.9 20.0399C75.19 20.0999 75.17 20.4099 75.15 20.6499C75.14 21.0299 75.13 21.6799 74.61 21.6199Z" fill="#C3844F"/>
<path d="M76.2801 18.6901C75.3601 18.5301 75.7701 16.9401 76.6501 17.2301C77.5301 17.5201 77.0801 18.8401 76.2801 18.6901Z" fill="#C3844F"/>
<path d="M93.33 79.14C93.421 78.6871 93.5584 78.2448 93.74 77.82C93.8254 77.69 93.9527 77.5931 94.1009 77.5456C94.249 77.4982 94.4089 77.5029 94.5539 77.559C94.699 77.6152 94.8204 77.7194 94.8979 77.8542C94.9755 77.989 95.0044 78.1464 94.98 78.3C94.98 78.64 94.96 78.9733 94.92 79.3C94.9145 79.4082 94.8871 79.5143 94.8394 79.6116C94.7917 79.7089 94.7247 79.7956 94.6425 79.8662C94.5602 79.9369 94.4645 79.9901 94.3611 80.0226C94.2577 80.0551 94.1488 80.0663 94.041 80.0554C93.9331 80.0446 93.8286 80.0119 93.7337 79.9595C93.6389 79.907 93.5557 79.8358 93.4892 79.7501C93.4227 79.6645 93.3743 79.5663 93.347 79.4614C93.3196 79.3565 93.3138 79.2472 93.33 79.14Z" fill="#C3844F"/>
<path d="M94.36 81.31C94.36 80.69 94.46 79.78 95.28 79.81C96.1 79.84 96.12 80.75 95.95 81.39C95.9058 81.5736 95.7988 81.736 95.6476 81.849C95.4964 81.9621 95.3104 82.0188 95.1218 82.0093C94.9332 81.9998 94.7539 81.9247 94.6148 81.797C94.4757 81.6694 94.3856 81.4971 94.36 81.31Z" fill="#C3844F"/>
<path d="M96.95 79.7299C95.77 79.5099 96.15 77.6799 97.12 77.4399C97.3142 77.4222 97.5092 77.4617 97.6813 77.5534C97.8533 77.6451 97.9948 77.7851 98.0883 77.9562C98.1818 78.1272 98.2233 78.3219 98.2076 78.5162C98.1919 78.7105 98.1198 78.896 98 79.0499C97.9409 79.2735 97.8006 79.4671 97.6064 79.5928C97.4123 79.7186 97.1783 79.7674 96.95 79.7299Z" fill="#C3844F"/>
<path d="M63.33 59.1501C62.28 58.7701 62.95 57.6701 63.33 56.9901C63.59 56.5301 63.78 55.7301 64.45 55.8301C65.45 56.0901 64.74 57.1201 64.61 57.7301C64.48 58.3401 64.31 59.3801 63.33 59.1501Z" fill="#C3844F"/>
<path d="M66.04 58.8999C65.9038 58.8653 65.7765 58.8023 65.6662 58.7152C65.556 58.628 65.4654 58.5186 65.4003 58.394C65.3352 58.2695 65.297 58.1326 65.2884 57.9923C65.2797 57.8521 65.3007 57.7115 65.35 57.5799C65.3989 57.4725 65.4558 57.3689 65.5201 57.2699C66.9601 55.6899 68.05 59.0399 66.04 58.8999Z" fill="#C3844F"/>
<path d="M64.66 64.0001C63.55 63.8001 63.72 62.0501 64.66 61.6801C66.29 61.1701 66.2 64.2401 64.66 64.0001Z" fill="#C3844F"/>
<path d="M86.61 63.2201C86.68 62.6001 86.71 61.7501 87.31 61.4001C87.463 61.323 87.6347 61.2906 87.8053 61.3068C87.9759 61.323 88.1385 61.387 88.2743 61.4915C88.4102 61.5959 88.5137 61.7367 88.5731 61.8974C88.6325 62.0581 88.6453 62.2324 88.61 62.4001C88.5269 62.71 88.4832 63.0292 88.48 63.3501C88.4456 63.5845 88.3239 63.7972 88.1394 63.9457C87.9549 64.0942 87.7211 64.1677 87.4848 64.1512C87.2485 64.1348 87.0271 64.0298 86.8649 63.8571C86.7027 63.6845 86.6116 63.457 86.61 63.2201Z" fill="#5F301F"/>
<path d="M88.16 65.44C88.21 64.73 88.24 63.5999 89.08 63.3899C90.45 63.2399 90.0801 64.6899 89.9001 65.5199C89.8602 65.7277 89.7468 65.9141 89.5806 66.0451C89.4145 66.176 89.2067 66.2428 88.9954 66.233C88.7841 66.2233 88.5833 66.1378 88.4299 65.9922C88.2765 65.8465 88.1807 65.6505 88.16 65.44Z" fill="#5F301F"/>
<path d="M89.2801 62.25C89.1979 62.1617 89.1342 62.0577 89.093 61.9444C89.0518 61.831 89.0338 61.7105 89.04 61.59C89.0451 61.4722 89.0736 61.3566 89.1238 61.2499C89.1739 61.1432 89.2448 61.0475 89.3323 60.9684C89.4197 60.8893 89.522 60.8284 89.6332 60.7892C89.7444 60.75 89.8623 60.7332 89.98 60.74C90.2179 60.7529 90.4412 60.8586 90.602 61.0344C90.7628 61.2101 90.8483 61.4419 90.8401 61.68C90.8349 61.7982 90.8065 61.9143 90.7565 62.0215C90.7064 62.1287 90.6357 62.2251 90.5484 62.305C90.4611 62.3848 90.3589 62.4467 90.2476 62.487C90.1364 62.5274 90.0183 62.5454 89.9001 62.54C89.6657 62.5193 89.4462 62.4166 89.2801 62.25Z" fill="#5F301F"/>
<path d="M116.79 79.46H116.7C115.41 79.83 114.11 80.16 112.82 80.51C108.89 81.41 105.24 83.15 101.42 84.39C97.6 85.63 93.7999 86.39 90.0099 87.39C88.4099 87.81 86.7699 88.04 85.1599 88.39C86.7699 88.02 88.4099 87.79 90.0099 87.39C93.7999 86.39 97.69 85.59 101.42 84.39C105.15 83.19 108.89 81.39 112.82 80.52C114.11 80.17 115.41 79.84 116.69 79.47H116.79V79.46Z" fill="#995921"/>
<path d="M120.24 86.6201C120.41 87.2901 120.59 87.9701 120.75 88.6201L119.33 89.2101L117.09 90.1401C116.59 90.3501 116.09 90.5401 115.56 90.7201C115.42 90.3201 115.29 89.9101 115.16 89.5101C115.16 89.4301 115.11 89.3601 115.09 89.2901L114.94 88.8001C114.889 88.6129 114.793 88.4412 114.66 88.3001C114.533 88.1683 114.367 88.0813 114.187 88.0524C114.006 88.0236 113.821 88.0543 113.66 88.1401C113.13 88.4201 113.02 89.1401 112.96 89.6601C112.913 90.1352 112.897 90.6128 112.91 91.0901V91.5601L110.86 92.2601L107.44 93.4101C107.406 93.2918 107.359 93.1778 107.3 93.0701C107.213 92.9012 107.116 92.7376 107.01 92.5801C106.83 92.3001 106.62 92.0401 106.42 91.7701C106.285 91.5154 106.061 91.3195 105.79 91.2201C105.622 91.1801 105.448 91.1801 105.28 91.2201C105.111 91.2627 104.956 91.3489 104.83 91.4701C104.668 91.6345 104.551 91.8376 104.49 92.0601C104.43 92.2784 104.4 92.5037 104.4 92.7301C104.4 93.0401 104.4 93.3501 104.4 93.6501L104.46 94.4701L102.46 95.1301H102.41L101.59 95.3601C100.43 95.6401 99.2599 95.8701 98.0999 96.1601C97.9199 95.6301 97.71 95.1101 97.5 94.6001C97.3829 94.286 97.2285 93.9872 97.0399 93.7101C96.9309 93.5502 96.7798 93.4236 96.6033 93.3442C96.4269 93.2648 96.2319 93.2357 96.0399 93.2601C95.8521 93.2918 95.6755 93.3709 95.5268 93.4899C95.378 93.6089 95.2621 93.7638 95.1899 93.9401C95.0771 94.2275 95.0129 94.5316 95 94.8401V95.2501C95 95.4601 95 95.6601 95 95.8601C95 96.2601 95 96.6501 95 97.0401L92.6799 97.7201C91.2099 98.1301 89.7299 98.4501 88.2399 98.7201H88.0699L87.8299 97.8101C87.7431 97.3948 87.6054 96.9917 87.4199 96.6101C87.2407 96.2295 86.9221 95.9324 86.53 95.7801C86.3148 95.7235 86.0876 95.7323 85.8775 95.8053C85.6673 95.8783 85.4837 96.0123 85.3499 96.1901C85.0714 96.6405 84.9258 97.1605 84.9299 97.6901C84.9299 98.1701 84.8599 98.6901 84.8499 99.1101C83.0999 99.3001 81.3599 99.5901 79.6099 99.7601C79.4805 99.8403 79.3322 99.8851 79.1799 99.8901C78.5199 99.8901 77.8499 99.8901 77.1799 99.8901H76.1799V99.6701C76.0999 99.2501 76.0399 98.8101 75.9299 98.4001C75.8618 98.1639 75.7679 97.9358 75.6499 97.7201C75.5909 97.6027 75.5092 97.4982 75.4097 97.4124C75.3102 97.3266 75.1947 97.2612 75.0699 97.2201C74.8846 97.1604 74.6853 97.1604 74.5 97.2201C74.2969 97.3065 74.1281 97.4577 74.0199 97.6501C73.9001 97.8714 73.8189 98.1115 73.78 98.3601C73.78 98.5801 73.6899 98.8001 73.6599 99.0301L73.5699 99.7201V99.8201C71.4999 99.7601 69.4199 99.6601 67.3499 99.6101C66.7599 99.6101 66.25 99.5501 65.81 99.5001C65.81 99.3701 65.81 99.2501 65.81 99.1301C65.81 98.8001 65.81 98.4801 65.81 98.1301V97.5301C65.8284 97.1863 65.7632 96.8432 65.6199 96.5301C65.5272 96.3548 65.378 96.216 65.1965 96.1361C65.015 96.0562 64.8118 96.04 64.6199 96.0901C64.4372 96.1514 64.2696 96.2509 64.1282 96.3819C63.9869 96.513 63.875 96.6725 63.7999 96.8501C63.6199 97.2234 63.4499 97.5934 63.2899 97.9601L62.9899 98.7101C62.3699 98.3901 61.6899 97.9701 60.7999 97.4001C56.8618 95.6324 52.7761 94.2136 48.59 93.1601C47.11 92.8301 45.2899 92.1601 43.4699 91.7301L43.1099 91.5801C42.3083 91.1873 41.4573 90.9047 40.5799 90.7401C40.0921 90.6751 39.5978 90.6751 39.1099 90.7401C38.766 90.7733 38.429 90.8576 38.1099 90.9901C37.8761 91.0911 37.6547 91.2186 37.4499 91.3701L37.1499 91.6201C36.5334 92.203 36.0105 92.8776 35.5999 93.6201C35.1329 94.4005 34.7762 95.2418 34.5399 96.1201C34.4399 96.5101 34.3499 96.8901 34.2599 97.2701C34.1699 97.6501 34.0399 98.1401 33.9299 98.5801V98.7101H33.5999C31.2636 98.7985 28.924 98.7149 26.5999 98.4601C26.5999 98.0501 26.6 97.6401 26.53 97.2301C26.5054 96.6127 26.3449 96.0083 26.06 95.4601C25.9566 95.289 25.8094 95.1488 25.6335 95.0538C25.4577 94.9589 25.2597 94.9127 25.06 94.9201C24.43 94.9901 24.21 95.6801 24.06 96.2001C23.91 96.7201 23.8099 97.0401 23.7099 97.4601L23.56 98.0101C21.89 97.7101 20.23 97.3301 18.56 97.0901L17.6399 96.9801C17.6399 96.6001 17.64 96.2201 17.56 95.8401C17.537 95.2859 17.4532 94.7359 17.31 94.2001C17.251 93.9641 17.138 93.745 16.9799 93.5601C16.8497 93.413 16.6734 93.3143 16.4799 93.2801C16.2906 93.2428 16.0943 93.2673 15.9199 93.3501C15.7495 93.4448 15.6104 93.5874 15.5199 93.7601C15.4179 94.0008 15.344 94.2524 15.2999 94.5101L15.1799 95.1301C15.1005 95.5068 15.0404 95.8872 15 96.2701C15 96.4201 14.9999 96.5801 14.9499 96.7301C12.8099 96.5501 10.6699 96.3801 8.54994 96.0601C8.54994 95.7801 8.49995 95.4901 8.45995 95.2101C8.42321 94.8737 8.36643 94.5397 8.28993 94.2101C8.22009 93.7985 8.07063 93.4045 7.84993 93.0501C7.75501 92.9166 7.62878 92.8086 7.48232 92.7354C7.33585 92.6621 7.17363 92.626 7.00993 92.6301C6.82914 92.649 6.65832 92.7222 6.51994 92.8401C6.37919 92.9804 6.27306 93.1516 6.20995 93.3401C6.09017 93.6512 5.9867 93.9683 5.89995 94.2901C5.81328 94.5717 5.74644 94.8591 5.69994 95.1501C5.69994 95.2901 5.69994 95.4201 5.69994 95.5501C5.19994 95.4401 4.69993 95.3101 4.21993 95.1701C3.35993 94.9501 2.49993 94.7001 1.62993 94.4901C1.49203 94.4871 1.35779 94.4452 1.24275 94.3691C1.12771 94.293 1.03659 94.1859 0.979935 94.0601C0.850529 94.0023 0.739327 93.9103 0.65828 93.794C0.577233 93.6777 0.529415 93.5415 0.519944 93.4001C0.519944 89.9701 -1.30006 78.5301 3.32994 77.5801C3.30491 77.6385 3.29201 77.7015 3.29201 77.7651C3.29201 77.8287 3.30491 77.8916 3.32994 77.9501C3.36413 78.0361 3.42346 78.1097 3.50017 78.1615C3.57688 78.2132 3.66741 78.2406 3.75993 78.2401C4.20019 78.3482 4.64822 78.4217 5.09993 78.4601C6.59993 78.6301 8.09994 78.6601 9.60994 78.8901C12.2172 79.3434 14.8689 79.4877 17.5099 79.3201C18.7699 79.3201 20.02 79.4101 21.28 79.4601C22.4986 79.5619 23.7104 79.7322 24.9099 79.9701C26.0194 80.0871 27.1344 80.1438 28.25 80.1401C29.2086 80.239 30.1603 80.3959 31.0999 80.6101C32.3999 80.8401 33.7199 80.8701 35.0099 81.1501C36.7199 81.5001 38.3699 82.1001 40.0099 82.5801L41.0099 82.8201H41.0799H41.1399C41.6999 83.0301 42.2699 83.2201 42.8299 83.4001L44.1099 83.8001L44.5399 83.9201L45.4699 84.1901C46.5799 84.6301 47.68 85.1001 48.81 85.4801C50.64 86.0501 52.5499 86.3901 54.3999 86.9001C54.5113 86.9303 54.6286 86.9303 54.7399 86.9001L59.2399 88.3401C59.5499 88.4301 59.8499 88.5101 60.1599 88.5801L60.8499 88.7401L61.6499 88.9001C62.4499 89.0401 63.2699 89.1601 64.0799 89.2501H64.1399L65.2599 89.3701L66.6899 89.5101C67.6899 89.6101 68.6899 89.8301 69.6899 89.8501H70.31H70.4399C70.4883 89.8658 70.5352 89.8859 70.5799 89.9101C72.5299 89.7701 74.5099 89.5901 76.3999 89.5401C77.2791 89.5253 78.157 89.4652 79.03 89.3601C79.5 89.3601 79.9599 89.2401 80.4199 89.1701L80.8899 89.1001L81.6299 88.9701L82.3699 88.8301H82.4499L83.5799 88.6001L85.2899 88.2201C86.8999 87.8501 88.5399 87.6201 90.1399 87.2201C93.9299 86.2201 97.8199 85.4201 101.55 84.2201C105.28 83.0201 109.02 81.2201 112.95 80.3501C114.24 80.0001 115.54 79.6701 116.82 79.3001H116.92C117.305 79.1664 117.719 79.1354 118.12 79.2101C118.27 79.6401 118.43 80.0701 118.57 80.5001C118.71 80.9301 118.9 81.4201 119.05 81.8901C119.2 82.3601 119.35 82.8901 119.51 83.3601C119.67 84.5501 119.97 85.6201 120.24 86.6201Z" fill="#242424"/>
<path d="M106.38 92.3301C106.38 92.3301 106.38 92.3801 106.38 92.4101C106.376 92.3836 106.376 92.3566 106.38 92.3301Z" fill="#242424"/>
<path d="M5.21006 15.5C5.32006 17.73 6.88005 19.27 8.08005 21C8.08005 20.09 8.08005 19.19 8.08005 18.28C8.08005 17.37 8.08004 16.4 8.19004 15.46L8.07004 15.36C7.83004 15.14 7.84007 14.85 7.75007 14.58C7.3762 14.0153 6.84394 13.5735 6.22004 13.31H6.03007C5.22007 13.28 5.27006 14.93 5.21006 15.5ZM70.4201 90.13C70.3753 90.1058 70.3285 90.0858 70.2801 90.07H70.1501H69.5301C68.5301 90.07 67.5301 89.83 66.5301 89.73L65.1 89.59L63.98 89.47H63.92C62.8353 89.3561 61.7571 89.1859 60.69 88.96L60.01 88.8C59.7 88.73 59.4001 88.65 59.0901 88.56L54.5901 87.12C54.4787 87.1502 54.3614 87.1502 54.2501 87.12C52.4001 86.61 50.49 86.27 48.66 85.7C47.53 85.32 46.43 84.85 45.32 84.41L44.39 84.14L43.9601 84.02L42.6801 83.62C42.1201 83.44 41.5501 83.25 40.9901 83.04L40.8601 82.99L39.8601 82.75C38.18 82.27 36.53 81.67 34.8601 81.32C33.57 81.04 32.25 81.01 30.95 80.78C30.0104 80.5659 29.0587 80.409 28.1 80.31C26.9845 80.3138 25.8695 80.257 24.76 80.14C23.5606 79.9021 22.3486 79.7318 21.13 79.63C19.87 79.58 18.6201 79.51 17.3601 79.49H15.8001C13.6766 79.6098 11.5466 79.462 9.46006 79.05C7.97006 78.82 6.46005 78.78 4.95005 78.62C4.49834 78.5817 4.05031 78.5081 3.61005 78.4C3.51753 78.4006 3.427 78.3732 3.35029 78.3214C3.27357 78.2697 3.21425 78.196 3.18006 78.11C3.15503 78.0516 3.14213 77.9886 3.14213 77.925C3.14213 77.8614 3.15503 77.7985 3.18006 77.74C3.20915 77.66 3.26135 77.5904 3.33005 77.54C3.33005 77.43 3.33007 77.32 3.28007 77.21C3.22007 76.87 3.19004 76.52 3.16004 76.21C2.25004 73.56 2.42006 70.62 2.27006 67.85C2.14023 64.519 2.51787 61.1875 3.39005 57.97C4.01005 55.91 4.84006 53.97 5.56006 51.9C6.86895 48.2193 7.83963 44.427 8.46006 40.57C8.70596 39.2117 8.86296 37.8388 8.93006 36.46C8.82006 32.72 8.51004 29 8.29004 25.26C7.20329 24.6008 6.28558 23.6968 5.61005 22.62C2.82005 19.9 1.01007 15.62 3.28007 11.98C4.93007 9.62002 7.54005 10.87 8.92005 12.79V12.74C9.03107 12.5686 9.16573 12.4138 9.32004 12.28C9.28066 12.208 9.26002 12.1271 9.26002 12.045C9.26002 11.9629 9.28066 11.8821 9.32004 11.81C9.72004 11.23 10.6 11.21 11.23 11.03C13.2023 10.8629 15.1885 10.9978 17.1201 11.43C18.4601 11.64 19.8001 11.77 21.1201 11.98C22.9201 12.25 24.6901 12.74 26.5001 12.9C28.935 13.03 31.3751 13.03 33.8101 12.9C38.2501 12.74 42.6101 12.21 47.0201 11.9C48.4385 11.7533 49.8641 11.6865 51.29 11.7C53.2 11.7 54.1201 13.14 54.5201 14.84C54.9501 17.5 54.66 20.23 54.8601 22.91C55.0534 26.5767 55.2467 30.2434 55.44 33.91C55.44 34.14 55.44 34.38 55.39 34.61C55.31 35.47 55.24 36.34 55.2 37.21C55.16 38.08 55.1201 38.71 55.0901 39.47C55.0901 39.85 55.0901 40.24 55.0901 40.62C55.0765 41.0374 55.0932 41.4551 55.14 41.87C55.1825 42.2685 55.256 42.663 55.3601 43.05C55.5558 43.7377 55.8968 44.3754 56.3601 44.92V44.98L56.6201 45.37C57.8701 47.04 59.39 48.48 60.79 50.02C61.9586 51.4305 63.2144 52.7665 64.5501 54.02C67.55 56.25 70.6401 58.34 73.7401 60.42C76.3051 61.9921 79.1884 62.9725 82.1801 63.29C83.6901 63.57 85.18 63.95 86.69 64.23C88.9 64.56 91.1301 64.76 93.3401 65.13C97.8601 65.97 102.66 65.68 106.9 67.7C112.02 69.83 114.9 72.17 116.28 77.7C116.337 77.9063 116.347 78.1226 116.311 78.3334C116.274 78.5442 116.192 78.7445 116.07 78.92C116.105 79.0307 116.105 79.1494 116.07 79.26C116.08 79.3028 116.08 79.3472 116.07 79.39C116.202 79.3441 116.342 79.3284 116.48 79.344C116.619 79.3596 116.752 79.406 116.87 79.48C116.837 79.4742 116.803 79.4742 116.77 79.48C115.49 79.85 114.19 80.18 112.89 80.53C108.97 81.43 105.32 83.17 101.5 84.4C97.6801 85.63 93.8801 86.4 90.0901 87.4C88.4901 87.83 86.8501 88.06 85.2401 88.4L83.5201 88.78H83.32L82.3901 88.98H82.3101L81.57 89.12L80.8301 89.25C80.2101 89.35 79.59 89.44 78.97 89.51C78.097 89.6151 77.2192 89.6752 76.3401 89.69C74.4501 89.74 72.4701 89.92 70.5201 90.06L70.4201 90.13Z" fill="#995921"/>
<path d="M8.61003 28.77C8.55003 26.9 8.67003 25.12 8.61003 23.29C8.4385 20.9336 8.42181 18.5685 8.56004 16.21C8.57162 15.1742 8.66524 14.141 8.84004 13.12C8.87049 13.0767 8.91091 13.0413 8.9579 13.0169C9.00489 12.9925 9.05707 12.9797 9.11003 12.9797C9.16299 12.9797 9.21517 12.9925 9.26216 13.0169C9.30915 13.0413 9.34957 13.0767 9.38002 13.12C9.54002 13.31 9.49002 13.58 9.51002 13.81C9.51002 16.47 9.29004 19.14 9.46004 21.81C9.62052 24.1397 9.65722 26.4764 9.57002 28.81C9.56739 28.873 9.55238 28.9349 9.52583 28.9922C9.49928 29.0494 9.46173 29.1008 9.4153 29.1436C9.32153 29.2298 9.19733 29.2753 9.07002 29.27C8.94272 29.2647 8.82273 29.209 8.73646 29.1153C8.6502 29.0215 8.60473 28.8973 8.61003 28.77Z" fill="#5F301F"/>
<path d="M23.44 12.4099C23.31 13.8499 23.14 15.2899 22.92 16.7099V16.7599C21.64 25.3499 21.63 34.0499 21.11 42.6999C20.78 47.9299 20.83 53.1699 20.84 58.4099C20.84 58.5956 20.7662 58.7736 20.6349 58.9049C20.5037 59.0362 20.3256 59.1099 20.14 59.1099C19.9543 59.1099 19.7763 59.0362 19.645 58.9049C19.5137 58.7736 19.44 58.5956 19.44 58.4099C19.33 53.1699 19.26 47.9399 19.51 42.7099C19.84 36.2999 20.07 29.8799 20.67 23.4899C21.01 19.6999 21.75 15.9499 22.16 12.1699L23.44 12.4099Z" fill="#5F301F"/>
<path d="M50.04 46.05C49.9521 45.9114 49.9218 45.744 49.9554 45.5834C49.989 45.4228 50.0839 45.2817 50.22 45.19C50.96 44.74 51.71 44.32 52.45 43.91C53.03 43.59 53.64 43.27 54.24 42.99C54.3873 42.9172 54.5573 42.9058 54.713 42.9583C54.8686 43.0108 54.997 43.1229 55.07 43.27C55.1053 43.3496 55.1236 43.4358 55.1238 43.5229C55.1241 43.61 55.1062 43.6962 55.0715 43.7761C55.0367 43.856 54.9857 43.9278 54.9218 43.987C54.8579 44.0462 54.7824 44.0914 54.7 44.12C54.14 44.37 53.6 44.68 53.07 44.98C52.34 45.4 51.6201 45.8 50.9001 46.23C50.7615 46.3179 50.5941 46.3483 50.4335 46.3146C50.2729 46.281 50.1317 46.1861 50.04 46.05Z" fill="#5F301F"/>
<path d="M53.61 47.67C52.88 47.11 54 46.2401 54.3 45.7201C54.6 45.2001 55 44.58 55.6 44.55C55.732 44.5619 55.8553 44.6211 55.9472 44.7166C56.0391 44.8122 56.0933 44.9377 56.1 45.0701C56.1045 45.1763 56.0787 45.2816 56.0256 45.3737C55.9725 45.4657 55.8942 45.5408 55.8 45.5901C55.64 45.7601 55.5 45.9501 55.35 46.1301C54.9926 46.5756 54.6589 47.0396 54.35 47.5201C54.2676 47.6328 54.146 47.7108 54.0091 47.7385C53.8722 47.7663 53.7299 47.7418 53.61 47.67Z" fill="#5F301F"/>
<path d="M15.1 74.22C13.91 74.15 14.1 72.04 15.16 71.96C16.42 71.91 16.37 74.34 15.1 74.22Z" fill="#5F301F"/>
<path d="M15.0601 76.36C14.8701 75.15 16.38 74.58 16.66 75.87C16.59 76.23 16.66 76.63 16.41 76.92C16.3016 77.0363 16.1603 77.1167 16.0049 77.1504C15.8495 77.1841 15.6875 77.1695 15.5407 77.1086C15.3938 77.0476 15.2691 76.9433 15.1832 76.8095C15.0973 76.6757 15.0543 76.5189 15.0601 76.36Z" fill="#5F301F"/>
<path d="M17.69 74.21C17.25 74.21 17.25 73.6999 17.3 73.3599C17.3102 73.2415 17.3659 73.1316 17.4554 73.0532C17.5449 72.9749 17.6612 72.9344 17.78 72.94C18.22 72.94 18.21 73.46 18.17 73.8C18.1662 73.8587 18.1507 73.9161 18.1244 73.9687C18.0981 74.0214 18.0614 74.0682 18.0167 74.1064C17.9719 74.1447 17.9199 74.1735 17.8638 74.1913C17.8077 74.2091 17.7486 74.2154 17.69 74.21Z" fill="#5F301F"/>
<path d="M10.44 59.2701C9.44005 59.1701 9.70007 58.0401 9.75007 57.3401C9.76028 57.2146 9.79886 57.0932 9.86293 56.9848C9.92699 56.8765 10.0148 56.7842 10.1199 56.7148C10.2249 56.6455 10.3443 56.6009 10.469 56.5845C10.5938 56.5681 10.7207 56.5802 10.8401 56.6201C11.6901 56.9101 11.2701 57.8501 11.3201 58.5101C11.3022 58.7268 11.1999 58.9278 11.0354 59.0699C10.8708 59.2121 10.657 59.2839 10.44 59.2701Z" fill="#C3844F"/>
<path d="M10.7101 61.6999C10.7045 61.5255 10.7673 61.3558 10.8849 61.227C11.0026 61.0981 11.1659 61.0203 11.3401 61.0099C11.4704 61.0041 11.5995 61.0371 11.7112 61.1047C11.8228 61.1723 11.9118 61.2714 11.9671 61.3896C12.0224 61.5077 12.0415 61.6397 12.0218 61.7687C12.0022 61.8976 11.9447 62.0179 11.8567 62.1143C11.7687 62.2106 11.6542 62.2788 11.5275 62.31C11.4009 62.3413 11.2677 62.3343 11.145 62.29C11.0223 62.2456 10.9155 62.1659 10.8381 62.0609C10.7607 61.9559 10.7161 61.8302 10.7101 61.6999Z" fill="#C3844F"/>
<path d="M11.9499 58.8101C11.8184 58.69 11.7249 58.534 11.6812 58.3613C11.6374 58.1886 11.6454 58.0069 11.7039 57.8387C11.7625 57.6705 11.8691 57.5231 12.0106 57.4149C12.1521 57.3068 12.3223 57.2424 12.5 57.23C12.7334 57.2204 12.9618 57.2989 13.1399 57.45C13.316 57.6157 13.4262 57.8395 13.4499 58.08C13.4623 58.202 13.4499 58.3252 13.4134 58.4422C13.377 58.5593 13.3173 58.6677 13.2379 58.7611C13.1586 58.8545 13.0611 58.9309 12.9515 58.9857C12.8419 59.0405 12.7223 59.0726 12.5999 59.08C12.3577 59.0718 12.1267 58.9759 11.9499 58.8101Z" fill="#C3844F"/>
<path d="M44.61 23.97C43.17 23.87 43.84 21.23 45.14 21.97C45.88 22.53 45.67 24.05 44.61 23.97Z" fill="#C3844F"/>
<path d="M45.13 28.31C44.55 28.25 44.71 27.6 44.85 27.22C44.99 26.84 44.96 26.69 45.26 26.71C45.56 26.73 45.56 27.06 45.57 27.29C45.61 27.68 45.7 28.34 45.13 28.31Z" fill="#C3844F"/>
<path d="M46.5401 25.2399C45.6001 25.1699 45.8401 23.5599 46.7501 23.7499C47.6601 23.9399 47.3401 25.3099 46.5401 25.2399Z" fill="#C3844F"/>
<path d="M69.69 83.6201C69.7348 83.159 69.8252 82.7034 69.96 82.2601C70.0291 82.1174 70.1458 82.0032 70.2901 81.9375C70.4344 81.8717 70.5972 81.8584 70.7502 81.8999C70.9033 81.9415 71.037 82.0352 71.1282 82.1648C71.2195 82.2945 71.2626 82.452 71.25 82.6101C71.25 82.9501 71.25 83.2901 71.25 83.6101C71.2775 83.7271 71.2782 83.8487 71.2522 83.9661C71.2261 84.0834 71.174 84.1933 71.0997 84.2877C71.0254 84.3821 70.9307 84.4586 70.8228 84.5114C70.7149 84.5642 70.5964 84.592 70.4763 84.5928C70.3561 84.5936 70.2373 84.5673 70.1288 84.5158C70.0202 84.4644 69.9245 84.3891 69.849 84.2957C69.7735 84.2023 69.7199 84.093 69.6924 83.9761C69.6649 83.8591 69.6641 83.7374 69.69 83.6201Z" fill="#C3844F"/>
<path d="M70.94 85.6801C70.86 85.0601 70.88 84.1501 71.7 84.1001C72.52 84.0501 72.63 84.9501 72.53 85.5901C72.5059 85.7777 72.417 85.9508 72.2786 86.0797C72.1402 86.2085 71.9612 86.2849 71.7724 86.2956C71.5837 86.3063 71.3971 86.2506 71.2451 86.1382C71.093 86.0258 70.9851 85.8637 70.94 85.6801Z" fill="#C3844F"/>
<path d="M73.36 83.8401C72.16 83.7501 72.36 81.8401 73.29 81.5501C73.478 81.5223 73.67 81.5486 73.8436 81.626C74.0172 81.7034 74.1651 81.8287 74.27 81.9872C74.375 82.1456 74.4326 82.3307 74.4361 82.5207C74.4397 82.7107 74.389 82.8978 74.29 83.0601C74.2541 83.2799 74.1405 83.4796 73.9698 83.6227C73.7991 83.7658 73.5827 83.843 73.36 83.8401Z" fill="#C3844F"/>
<path d="M37.8 66.8201C36.71 66.5501 37.27 65.3801 37.54 64.6701C37.75 64.1901 37.85 63.3701 38.54 63.4101C39.54 63.5601 38.95 64.6501 38.89 65.2801C38.83 65.9101 38.8 66.9501 37.8 66.8201Z" fill="#C3844F"/>
<path d="M40.47 66.29C40.3314 66.2692 40.1987 66.2196 40.0805 66.1442C39.9623 66.0688 39.8612 65.9695 39.7839 65.8526C39.7066 65.7357 39.6547 65.6038 39.6317 65.4655C39.6086 65.3272 39.6149 65.1857 39.6501 65.05C39.6882 64.9365 39.735 64.8262 39.7901 64.72C41.0601 63 42.48 66.23 40.47 66.29Z" fill="#C3844F"/>
<path d="M39.61 71.4999C38.49 71.4199 38.47 69.6599 39.33 69.1999C40.95 68.5199 41.18 71.6199 39.61 71.4999Z" fill="#C3844F"/>
<path d="M61.3199 68.4899C61.3199 67.8599 61.32 67.01 61.84 66.6C61.9819 66.5114 62.1455 66.4636 62.3128 66.462C62.4802 66.4603 62.6447 66.5048 62.7883 66.5906C62.932 66.6764 63.0492 66.8001 63.1271 66.9482C63.205 67.0963 63.2406 67.263 63.2299 67.4299C63.1899 67.7453 63.1899 68.0646 63.2299 68.38C63.2445 68.6332 63.1579 68.8819 62.9891 69.0713C62.8204 69.2607 62.5832 69.3753 62.33 69.3899C62.0767 69.4045 61.828 69.3179 61.6385 69.1491C61.4491 68.9803 61.3345 68.7432 61.3199 68.4899Z" fill="#5F301F"/>
<path d="M63.14 70.5301C63.14 69.8201 63.04 68.6901 63.85 68.4001C65.2 68.1101 64.98 69.5801 64.85 70.4001C64.8123 70.5909 64.7131 70.7641 64.5676 70.8931C64.4221 71.0222 64.2383 71.1001 64.0444 71.1148C63.8505 71.1295 63.6571 71.0804 63.4938 70.9748C63.3304 70.8692 63.2062 70.713 63.14 70.5301Z" fill="#5F301F"/>
<path d="M63.93 67.24C63.7523 67.0785 63.6387 66.8584 63.6099 66.62C63.599 66.3803 63.6833 66.1459 63.8444 65.968C64.0055 65.7901 64.2303 65.683 64.4699 65.67C64.7074 65.6616 64.9389 65.7454 65.116 65.9038C65.2931 66.0623 65.402 66.2831 65.4199 66.52C65.4309 66.6417 65.4175 66.7644 65.3805 66.8808C65.3435 66.9972 65.2838 67.1052 65.2046 67.1982C65.1255 67.2913 65.0286 67.3677 64.9197 67.423C64.8107 67.4782 64.6918 67.5112 64.5699 67.52C64.3299 67.5067 64.1027 67.4073 63.93 67.24Z" fill="#5F301F"/>
</g>
<defs>
<clipPath id="clip0_54_5148">
<rect width="143.61" height="100" fill="white"/>
</clipPath>
</defs>
</svg>
