<svg width="262" height="243" viewBox="0 0 262 243" fill="none" xmlns="http://www.w3.org/2000/svg">
<g clip-path="url(#clip0_47_4478)">
<path d="M261.16 226.95C258.807 205.137 256.44 183.327 254.06 161.52C253.28 154.313 252.51 147.1 251.75 139.88C249.96 123.03 248.12 105.6 246.02 88.49C243.32 66.49 231.84 50.9999 211.89 42.5699C198.75 37.0099 184.79 31.2599 170.41 25.4799C165.15 23.3599 162.41 19.9099 161.76 14.5999L161.62 13.4199C161.403 11.2402 161.07 9.07375 160.62 6.92994C159.62 2.37994 156.94 0.139941 152.56 0.0999414C137.79 -0.0300586 123.02 -0.0300586 108.64 0.0999414C103.9 0.0999414 101.06 2.73994 100.19 7.82994L99.9999 8.92994C99.6955 10.4384 99.4884 11.9649 99.3799 13.4999C99.0799 19.4999 96.13 23.2899 89.8299 25.7799C76.13 31.1799 62.17 36.9199 48.33 42.8499C29.99 50.7099 18.6799 65.1899 15.6299 84.7299C13.5799 97.8599 12.26 111.31 10.99 124.31C10.43 129.96 9.85995 135.81 9.22995 141.54L8.46994 148.54C6.82327 163.62 5.18329 178.7 3.54995 193.78C3.22995 196.78 2.89995 199.78 2.54995 202.7C1.63995 210.75 0.709953 219.08 0.049953 227.29C-0.300047 231.63 0.749941 235.29 3.09994 237.86C5.44994 240.43 9.18995 241.93 13.7299 241.99C20.5399 242.07 27.3299 242.04 33.6599 241.99C42.0799 241.94 46.39 238.38 48.08 230.1C50.3533 218.973 52.6033 207.843 54.83 196.71C56.2833 189.523 57.7366 182.33 59.1899 175.13C59.2015 175.042 59.2216 174.954 59.2499 174.87C59.5099 177.19 59.7899 179.52 60.0599 181.87C60.8999 188.99 61.76 196.34 62.37 203.59C62.76 208.22 62.9499 212.95 63.1299 217.53C63.2699 221.14 63.4099 224.87 63.6599 228.53C64.2399 237.33 69.1099 241.98 77.7199 241.99C113.39 241.99 148.94 241.99 183.4 241.99C191.74 241.99 196.78 237.22 197.23 228.92C197.37 226.29 197.47 223.62 197.56 221.03C197.72 216.77 197.88 212.36 198.24 208.03C198.95 199.45 199.83 190.73 200.68 182.3C200.97 179.4 201.26 176.51 201.54 173.61L202.35 177.61C203.35 182.55 204.35 187.493 205.35 192.44C206.103 196.107 206.843 199.773 207.57 203.44C209.41 212.61 211.31 222.09 213.31 231.38C214.75 238.08 219.31 241.83 226.18 241.95C230.24 242.02 234.05 242.05 237.66 242.05C241.27 242.05 244.84 242.05 248.17 241.94C250.028 241.946 251.867 241.562 253.567 240.813C255.267 240.064 256.791 238.966 258.04 237.59C259.275 236.133 260.191 234.433 260.728 232.601C261.266 230.768 261.413 228.843 261.16 226.95ZM208.39 138.29C211.81 124.83 211.72 110.95 211.64 97.5299C211.64 95.1233 211.64 92.7166 211.64 90.3099C211.64 90.1699 211.64 90.02 211.64 89.86C211.761 89.1218 211.619 88.3646 211.24 87.7199C210.29 86.4499 209.24 85.28 208.03 85.27C207.285 85.3688 206.577 85.6569 205.975 86.1068C205.373 86.5567 204.896 87.1534 204.59 87.8399C204.257 88.8957 204.144 90.0089 204.26 91.11C204.26 91.48 204.26 91.8499 204.26 92.2199C204.2 95.1299 204.2 98.1 204.21 100.96C204.35 107.369 204.109 113.78 203.49 120.16C202.1 132.08 199.95 144.88 196.94 159.28C193.05 177.91 190.85 198.57 190.02 224.28V225.68C190.02 226.59 190.02 227.45 189.92 228.31C189.56 232.39 187.76 234.19 183.74 234.52C182.921 234.565 182.099 234.565 181.28 234.52H79.6899C78.8199 234.52 77.9899 234.52 77.1699 234.47C73.2399 234.09 71.66 232.47 71.3299 228.58C70.9999 224.69 70.7399 221.4 70.6899 217.95C70.2761 195.93 67.6733 174.005 62.9199 152.5C58.0299 129.59 56.16 110.69 57.02 93.02C57.1933 91.2136 57.0374 89.3907 56.5599 87.64C56.1099 86.26 54.16 85.3599 52.99 85.2499C51.82 85.1399 50.2999 86.5999 49.86 87.6499C49.515 88.6626 49.3657 89.7316 49.4199 90.8C49.4199 91.03 49.4199 91.2699 49.4199 91.4999C48.5837 110.646 50.3259 129.818 54.5999 148.5C55.508 152.667 55.4567 156.986 54.4499 161.13C51.0799 177.37 47.76 193.91 44.55 209.9C43.3566 215.8 42.17 221.7 40.99 227.6C39.83 233.33 38.44 234.5 32.68 234.55C26.92 234.6 20.97 234.62 14.83 234.55C11.83 234.55 9.82994 233.89 8.75994 232.66C7.68994 231.43 7.23994 229.21 7.59994 225.92C8.97994 213.447 10.3333 200.973 11.6599 188.5C12.5733 180.007 13.4866 171.513 14.4 163.02C16.79 141.08 18.9999 121.02 21.1599 101.65C21.3399 100.01 21.5 98.36 21.65 96.71C21.9792 92.1288 22.6173 87.5751 23.5599 83.08C27.3499 67.08 36.7799 55.7799 51.5599 49.5899L60.6699 45.77C70.92 41.45 81.5299 36.9899 92.0799 32.9399C101.31 29.3999 106.2 23.0599 107.02 13.5399C107.08 12.8799 107.14 12.2099 107.22 11.5399C107.44 9.75994 107.61 8.35994 108.04 7.95994C108.47 7.55994 109.61 7.55994 111.5 7.54994H127.89H149.79C150.658 7.57173 151.523 7.65191 152.38 7.78994L153.15 7.89994C153.25 8.49994 153.36 9.09994 153.46 9.68994C153.77 11.4399 154.07 13.0999 154.23 14.7599C155.06 23.1499 159.43 29.0199 167.23 32.1899L173.53 34.7499C185.39 39.5699 197.66 44.5599 209.64 49.6599C225.64 56.4799 235.15 68.66 237.91 85.7299C239.6 96.1799 240.67 106.92 241.71 117.3C242.137 121.627 242.583 125.96 243.05 130.3C245.01 148.053 246.943 165.803 248.85 183.55L249.85 192.84C251.04 203.76 252.26 215.05 253.33 226.17C253.66 229.57 253.33 231.61 252.26 232.78C251.19 233.95 249.06 234.54 245.4 234.56C239.59 234.56 233.88 234.56 229.07 234.56C222.44 234.56 221.25 233.56 219.96 227.3C218.67 221.04 217.47 214.78 216.28 208.67C213.79 195.9 211.22 182.67 208.18 169.83C205.657 159.459 205.729 148.626 208.39 138.29Z" fill="#4287C7"/>
</g>
<defs>
<clipPath id="clip0_47_4478">
<rect width="261.25" height="242.07" fill="white"/>
</clipPath>
</defs>
</svg>
