<svg width="97" height="104" viewBox="0 0 97 104" fill="none" xmlns="http://www.w3.org/2000/svg">
<g clip-path="url(#clip0_41_8)">
<path d="M48.39 103.27C39.3493 102.48 30.3911 100.932 21.61 98.6401C14.33 96.6401 4.79003 95.73 0.870034 88.3801C-1.87997 81.9901 2.74001 75.22 2.94001 68.68C3.41001 63.99 3.06002 55.7401 9.48002 55.5601C9.74002 54.0601 10.05 52.5601 10.39 51.0701C11.8682 44.5836 13.8749 38.229 16.39 32.07C19.8 23.78 23.92 15.45 30.54 9.24005C35.96 4.13005 44.19 0.350049 51.66 0.0100492C56.351 -0.0780243 61.0115 0.781754 65.3623 2.53787C69.7131 4.29399 73.6645 6.9103 76.98 10.23C82.71 15.9 84.98 23.8801 87.42 31.34C89.86 38.8 91.99 46.2701 92.94 54.01C93.26 56.62 93.46 59.2601 93.56 61.8801C93.6236 64.0488 93.5568 66.2193 93.36 68.3801C94.388 68.9488 95.2294 69.8028 95.783 70.839C96.3366 71.8752 96.5787 73.0494 96.48 74.22C96.22 78.11 95.08 81.8801 94.56 85.7401C94 89.91 93.99 94.44 91.56 98.08C88.82 102.96 77.14 101.86 71.88 102.7C66.57 103.17 61.24 103.7 55.88 103.7C53.3773 103.697 50.8766 103.554 48.39 103.27Z" fill="#BE3ACC"/>
<path d="M81.19 70.9199C77.31 70.7299 73.47 70.1199 69.61 69.7099C67.61 69.4999 65.61 69.2399 63.61 68.9499C57.82 68.0099 52.04 66.9499 46.24 66.1699C36.24 64.3199 25.89 64.0299 16.15 60.8699C13.8918 60.127 11.7194 59.1447 9.67 57.9399C9.51863 57.8533 9.38874 57.7336 9.28999 57.5899C9.24908 57.5323 9.22502 57.4645 9.2205 57.394C9.21599 57.3236 9.23122 57.2532 9.26445 57.1909C9.29768 57.1286 9.34761 57.0768 9.40864 57.0413C9.46968 57.0058 9.53941 56.988 9.61 56.9899C10.266 57.1475 10.903 57.3755 11.51 57.6699C13.2698 58.3892 15.0694 59.0069 16.9 59.5199C20.0747 60.3751 23.2969 61.0429 26.55 61.5199C31.4 62.2699 36.3 62.5999 41.14 63.3499C49.89 64.5999 58.61 66.0499 67.37 67.1799C73.3948 67.9424 79.4697 68.2366 85.54 68.0599C85.98 68.0599 86.42 68.0599 86.86 68.0599C87.2107 68.0856 87.5396 68.2396 87.7839 68.4924C88.0282 68.7453 88.1708 69.0794 88.1844 69.4307C88.198 69.7821 88.0817 70.1261 87.8577 70.3971C87.6337 70.6682 87.3176 70.8471 86.97 70.8999C85.97 70.9899 84.97 71.0299 83.92 71.0299C82.87 71.0299 82.1 70.9599 81.19 70.9199Z" fill="#AE22B2"/>
<path d="M5.05003 93.0201C4.97003 91.0201 5.05002 89.1001 5.17002 87.1301C5.42465 82.3442 5.92532 77.5745 6.67002 72.8401C7.34002 68.9901 7.81002 63.5401 9.98002 60.3001C12.55 56.5401 13.73 59.3801 12.38 59.5801C9.72001 62.0201 9.25001 67.2301 8.57001 70.6601C7.85001 74.9201 7.13001 79.2001 6.78001 83.5101C6.53001 86.6901 6.32001 89.8901 6.32001 93.0801L6.38001 93.8401C5.90001 93.5901 5.47003 93.3401 5.05003 93.0201Z" fill="#AE22B2"/>
<path d="M12.33 96.3399C12.2 94.8399 12.12 93.3399 12.11 91.8299C12.1315 87.5139 12.4086 83.2031 12.94 78.9199C13.25 75.8199 13.67 72.7199 14.15 69.6299C14.5682 66.6326 15.2611 63.6802 16.22 60.8099C16.1 60.3699 16.83 60.1099 16.96 60.5899C16.944 61.0972 16.853 61.5993 16.69 62.0799C16.49 62.8599 16.34 63.5399 16.18 64.2899C15.18 69.1599 14.64 74.1199 14.18 79.0599C13.94 81.9399 13.6 84.7999 13.5 87.6799C13.3592 90.6813 13.4327 93.6889 13.72 96.6799L12.33 96.3399Z" fill="#AE22B2"/>
<path d="M18.04 97.7498C18.04 97.4398 18.09 97.1398 18.12 96.8398C18.39 93.5398 18.6 90.3798 19.03 87.1498C19.56 83.2898 20.1 79.4398 20.4 75.5598C20.65 72.9798 20.86 70.3798 21.27 67.8198C21.4998 65.9297 22.0051 64.0834 22.77 62.3398C22.86 61.9098 23.56 61.9098 23.55 62.3998C23.0186 64.3675 22.6408 66.3735 22.42 68.3998C22 72.3298 21.85 76.3098 21.51 80.2398C21.14 83.9198 20.51 87.5698 20.24 91.2398C20.06 93.3198 19.96 95.4398 19.77 97.5098L19.71 98.1398L18.04 97.7498Z" fill="#AE22B2"/>
<path d="M24.48 99.34C24.48 99.08 24.57 98.82 24.61 98.57C24.87 97.12 25.1 95.66 25.3 94.21C26.07 88.65 26.79 83.0799 27.66 77.5399C28.3 73.9999 29.02 70.48 29.74 66.96C30.01 65.68 30.29 64.55 30.56 63.31C30.5998 63.2028 30.6714 63.1104 30.7652 63.0451C30.8591 62.9798 30.9707 62.9448 31.085 62.9448C31.1993 62.9448 31.3109 62.9798 31.4047 63.0451C31.4986 63.1104 31.5702 63.2028 31.61 63.31C30.61 69 29.49 74.76 28.71 80.52C28.32 83.41 27.93 86.29 27.47 89.17C27 92.69 26.47 96.17 25.97 99.74L24.48 99.34Z" fill="#AE22B2"/>
<path d="M34.67 101.47C34.67 101.07 34.75 100.66 34.8 100.26C35.09 97.9399 35.46 95.6399 35.8 93.3299C36.41 88.4499 36.8 83.5499 37.3 78.6599C37.57 75.6599 37.8 72.6599 38.3 69.6599C38.62 67.8333 39 66.0199 39.44 64.2199C39.4358 64.1297 39.4536 64.0398 39.4917 63.9579C39.5299 63.876 39.5872 63.8046 39.6589 63.7496C39.7307 63.6947 39.8146 63.658 39.9036 63.6425C39.9926 63.6271 40.084 63.6334 40.1701 63.6609C40.2561 63.6885 40.3342 63.7364 40.3977 63.8006C40.4612 63.8649 40.5082 63.9435 40.5347 64.0299C40.5612 64.1162 40.5665 64.2077 40.55 64.2966C40.5335 64.3854 40.4957 64.4689 40.44 64.5399C39.637 68.5302 39.1323 72.5747 38.93 76.6399C38.51 82.7399 38.13 88.8399 37.34 94.8999C37.06 96.9899 36.78 99.0799 36.48 101.16C36.48 101.37 36.41 101.59 36.38 101.8L34.67 101.47Z" fill="#AE22B2"/>
<path d="M44.35 102.84C44.35 102.67 44.4 102.5 44.43 102.33C44.81 100.04 45.2 97.76 45.56 95.47C46.26 90.92 46.84 86.35 47.43 81.78C47.88 78.42 48.3 75.05 48.48 71.66C48.635 69.8734 48.635 68.0767 48.48 66.29C48.08 65.93 48.63 65.22 49.08 65.58C49.78 66.25 49.62 70.01 49.66 71.14C49.66 75.94 49.06 80.71 48.66 85.49C48.22 90.12 47.66 94.75 46.96 99.35C46.78 100.59 46.6 101.83 46.37 103.06L44.35 102.84Z" fill="#AE22B2"/>
<path d="M55.09 103.68C55.23 102.68 55.42 101.68 55.63 100.68C56.26 97.5898 56.76 94.4598 57.17 91.3298C57.75 86.4498 58.41 81.5898 58.9 76.7098C59.1533 73.7937 59.2568 70.8665 59.21 67.9398C59.206 67.8081 59.2421 67.6782 59.3135 67.5675C59.3849 67.4568 59.4884 67.3704 59.61 67.3198C59.7095 67.2853 59.8169 67.2807 59.919 67.3065C60.0211 67.3323 60.1134 67.3873 60.1846 67.4649C60.2558 67.5425 60.3027 67.6392 60.3197 67.7431C60.3367 67.847 60.3228 67.9536 60.28 68.0498C60.96 75.4198 59.81 82.7198 59.11 90.0498C58.64 94.2998 58.03 98.5298 57.18 102.71C57.12 103.02 57.05 103.33 56.99 103.64H55.09V103.68Z" fill="#AE22B2"/>
<path d="M64.29 99.76C66.24 91.76 67.29 83.5201 68.78 75.3801C69.11 73.1701 69.7 71.0001 69.88 68.7801C69.8949 68.6937 69.9333 68.613 69.9908 68.5469C70.0483 68.4807 70.1228 68.4316 70.2063 68.4048C70.2898 68.378 70.379 68.3746 70.4642 68.3949C70.5495 68.4152 70.6276 68.4585 70.69 68.5201C70.95 68.8001 70.85 69.23 70.86 69.58C70.81 70.31 70.71 71.0301 70.61 71.7501C70.26 74.2001 69.95 76.6701 69.61 79.1301C68.97 84.2001 68.42 89.2901 67.56 94.33C67.05 97.33 66.38 100.33 65.72 103.23L63.44 103.4C63.74 102.19 64.02 100.97 64.29 99.76Z" fill="#AE22B2"/>
<path d="M73.85 100.23C75.5 91.4699 76.38 82.5699 77.37 73.7199C77.46 72.8099 77.49 71.9699 77.55 71.0799C77.5656 70.9784 77.6171 70.8859 77.695 70.819C77.773 70.7521 77.8723 70.7153 77.975 70.7153C78.0777 70.7153 78.177 70.7521 78.255 70.819C78.3329 70.8859 78.3844 70.9784 78.4 71.0799C78.47 73.7999 78.11 76.5099 77.92 79.2199C77.32 86.0899 76.75 92.97 75.57 99.77C75.42 100.64 75.24 101.5 75.06 102.37C74.47 102.37 73.9 102.44 73.37 102.49C73.53 101.76 73.67 101 73.85 100.23Z" fill="#AE22B2"/>
<path d="M83.43 101.5C84.09 98.9002 84.84 96.2702 85.38 93.6402C86.3598 89.2024 86.8096 84.664 86.72 80.1202C86.7117 78.2861 86.6083 76.4536 86.41 74.6302C86.3579 73.4215 86.0868 72.2322 85.61 71.1202C84.71 70.7302 85.8 69.5402 86.5 70.7902C86.9203 71.583 87.2011 72.4422 87.33 73.3302C87.5833 74.7101 87.7669 76.1019 87.88 77.5002C88.2231 81.1589 88.2231 84.8416 87.88 88.5002C87.3426 92.7691 86.497 96.9934 85.35 101.14L85.26 101.51C84.65 101.62 84.02 101.72 83.38 101.8L83.43 101.5Z" fill="#AE22B2"/>
<path d="M89.84 98.7501C90.19 97.2801 90.53 95.8101 90.84 94.3401C91.8998 89.926 92.7309 85.46 93.33 80.9601C93.72 77.9601 93.88 74.8701 92.59 72.1001C92.1 71.0301 91.48 70.0401 90.98 68.9801C90.9416 68.8725 90.939 68.7555 90.9725 68.6463C91.0061 68.5371 91.074 68.4417 91.1662 68.3742C91.2583 68.3068 91.3698 68.2709 91.484 68.272C91.5982 68.2731 91.7091 68.311 91.8 68.3801C92.1618 68.7408 92.4745 69.1476 92.73 69.5901C93.2955 70.4015 93.7938 71.2576 94.22 72.1501C95.112 74.3696 95.4782 76.7655 95.29 79.1501C94.825 85.1745 93.821 91.145 92.29 96.9901C92.0961 97.371 91.8825 97.7415 91.65 98.1001C91.1349 98.9444 90.4028 99.635 89.53 100.1L89.84 98.7501Z" fill="#AE22B2"/>
<path d="M41.29 11.8299C40.7607 10.8453 40.4533 9.75687 40.3894 8.64089C40.3254 7.52491 40.5066 6.40846 40.92 5.36991C41.26 4.68991 41.48 3.79991 42.19 3.36991C42.2882 3.33104 42.3949 3.31837 42.4995 3.33313C42.6041 3.34788 42.7032 3.38956 42.7868 3.45408C42.8705 3.5186 42.936 3.60375 42.9768 3.70118C43.0177 3.79862 43.0326 3.905 43.02 4.00991C43.0308 4.1275 43.0061 4.24565 42.9491 4.34905C42.892 4.45246 42.8052 4.53636 42.7 4.58991C41.9452 6.28354 41.8454 8.19695 42.42 9.95991C42.52 10.5199 42.87 11.0599 42.77 11.6299C42.7229 11.7987 42.6203 11.9468 42.4788 12.0502C42.3373 12.1536 42.1651 12.2063 41.99 12.1999C41.8506 12.2085 41.7115 12.1785 41.588 12.1133C41.4645 12.048 41.3614 11.9499 41.29 11.8299Z" fill="#AE22B2"/>
<path d="M35.82 13.7502C35.5455 13.7263 35.2918 13.5944 35.1145 13.3834C34.9373 13.1724 34.8511 12.8997 34.875 12.6252C34.8989 12.3507 35.0308 12.0969 35.2418 11.9197C35.4528 11.7425 35.7255 11.6563 36 11.6802C38.5346 11.9004 41.0851 11.513 43.44 10.5502C44.0546 10.2761 44.6271 9.91585 45.14 9.4802C45.43 9.2302 45.69 8.8002 46.14 8.9302C47.39 9.4702 45.5 10.9302 44.99 11.4102C42.8121 13.0555 40.1384 13.9091 37.41 13.8302C36.87 13.8302 36.34 13.8002 35.82 13.7502Z" fill="#AE22B2"/>
<path d="M37.73 20.2401C35.64 19.0101 34.81 15.6401 34.73 13.3301C34.7003 11.5752 34.8986 9.82388 35.32 8.12008C35.374 7.99093 35.4651 7.88063 35.5816 7.80305C35.6982 7.72547 35.835 7.68408 35.975 7.68408C36.115 7.68408 36.2519 7.72547 36.3684 7.80305C36.485 7.88063 36.576 7.99093 36.63 8.12008C36.3233 10.0182 36.2762 11.9493 36.49 13.8601C36.7237 15.1852 37.2275 16.448 37.97 17.5701C38.2 17.9501 38.41 18.3401 38.67 18.7001C38.7668 18.8463 38.8235 19.0153 38.8343 19.1903C38.8451 19.3653 38.8098 19.54 38.7318 19.697C38.6538 19.854 38.5359 19.9878 38.3899 20.0848C38.2439 20.1819 38.075 20.2389 37.9 20.2501L37.73 20.2401Z" fill="#AE22B2"/>
<path d="M30.36 22.3398C29.51 22.2198 28.19 22.2598 28.2 21.0998C28.21 19.9398 29.31 20.0998 30.2 20.0998H30.76C32.3429 20.1374 33.9237 19.9625 35.46 19.5798C37.3672 19.2352 39.178 18.4849 40.77 17.3798C40.8739 17.3019 41.0002 17.2598 41.13 17.2598C41.2598 17.2598 41.3862 17.3019 41.49 17.3798C41.98 17.8098 41.49 18.3798 41.11 18.6498C39.6326 19.8749 37.9358 20.8081 36.11 21.3998C34.5491 21.974 32.9108 22.311 31.25 22.3998C30.9523 22.4005 30.6549 22.3804 30.36 22.3398Z" fill="#AE22B2"/>
<path d="M30.27 28.83C28.8763 27.5197 27.961 25.7807 27.67 23.89C27.2229 21.9048 27.4154 19.8291 28.22 17.96C29 16.15 30.47 17.45 29.48 18.13C28.48 20.39 29.38 23.92 30.68 25.93C31.07 26.47 31.44 27.03 31.82 27.58C31.9208 27.7291 31.9795 27.9026 31.99 28.0823C32.0004 28.262 31.9621 28.4412 31.8791 28.601C31.7962 28.7607 31.6716 28.8951 31.5187 28.99C31.3657 29.0849 31.19 29.1367 31.01 29.14C30.8719 29.1422 30.7349 29.1158 30.6076 29.0624C30.4802 29.0091 30.3653 28.9299 30.27 28.83Z" fill="#AE22B2"/>
<path d="M23.4 30.9301C23.1094 30.8648 22.8527 30.6954 22.6783 30.4539C22.504 30.2123 22.424 29.9153 22.4535 29.6189C22.483 29.3225 22.62 29.0471 22.8386 28.8447C23.0571 28.6423 23.3422 28.5268 23.64 28.5201C24.36 28.5201 25.08 28.5201 25.8 28.5201C28.3721 28.6717 30.9468 28.2693 33.35 27.3401C33.83 27.1701 34.3 26.9801 34.78 26.8301C34.995 26.739 35.234 26.7214 35.46 26.7801C35.5683 26.8048 35.6661 26.8628 35.7396 26.9461C35.8131 27.0294 35.8586 27.1336 35.8697 27.2441C35.8807 27.3547 35.8568 27.4659 35.8012 27.562C35.7457 27.6582 35.6613 27.7345 35.56 27.7801C34.24 28.3401 32.97 29.1701 31.66 29.7801C29.6058 30.6392 27.3963 31.0647 25.17 31.0301C24.58 31.0001 23.99 30.9801 23.4 30.9301Z" fill="#AE22B2"/>
<path d="M26.53 37.3401C26.2433 37.3247 25.9725 37.2036 25.77 37.0001C25.2463 36.4891 24.7679 35.9337 24.34 35.3401C22.5915 33.1876 21.6884 30.4711 21.8 27.7001C21.801 27.0085 21.9547 26.3255 22.25 25.7001C22.3253 25.6123 22.4244 25.5481 22.5354 25.5153C22.6463 25.4825 22.7644 25.4825 22.8753 25.5153C22.9863 25.548 23.0854 25.6122 23.1608 25.7C23.2361 25.7878 23.2845 25.8955 23.3 26.0101C23.3 26.3101 23.09 26.5301 23.1 26.8301C23.0355 28.0646 23.231 29.2988 23.6737 30.453C24.1164 31.6071 24.7965 32.6554 25.67 33.5301C26.24 34.1701 26.83 34.8001 27.38 35.4601C27.5758 35.6764 27.6829 35.9584 27.68 36.2501C27.6748 36.5393 27.5569 36.815 27.3515 37.0186C27.146 37.2222 26.8692 37.3376 26.58 37.3401H26.53Z" fill="#AE22B2"/>
<path d="M18.75 39.4898C18.7187 39.1896 18.8056 38.8891 18.9923 38.6519C19.179 38.4148 19.4508 38.2598 19.75 38.2198C20.31 38.1598 20.86 38.0598 21.41 37.9998C23.0569 37.9038 24.6808 37.5669 26.23 36.9998C27.5657 36.4257 28.859 35.7573 30.1 34.9998C30.2034 34.9098 30.3243 34.8421 30.455 34.8008C30.5858 34.7595 30.7236 34.7456 30.86 34.7598C30.9719 34.7947 31.0697 34.8645 31.1391 34.959C31.2086 35.0534 31.246 35.1676 31.246 35.2848C31.246 35.402 31.2086 35.5162 31.1391 35.6106C31.0697 35.7051 30.9719 35.7749 30.86 35.8098C29.73 36.6698 28.58 37.5098 27.39 38.2898C25.7517 39.3764 23.8883 40.0773 21.94 40.3398C21.2443 40.4411 20.5429 40.4979 19.84 40.5098C19.5679 40.4933 19.3102 40.3824 19.1112 40.1962C18.9122 40.01 18.7844 39.7602 18.75 39.4898Z" fill="#AE22B2"/>
<path d="M23.2 44.6098C20.77 42.7598 17.91 39.8998 17.99 36.6098C17.99 36.2598 17.94 35.8398 18.25 35.6098C18.3343 35.5508 18.4345 35.5186 18.5374 35.5176C18.6403 35.5166 18.7411 35.5467 18.8266 35.6041C18.9121 35.6614 18.9782 35.7433 19.0163 35.8389C19.0544 35.9345 19.0626 36.0394 19.04 36.1398C19.0746 36.7778 19.2236 37.4045 19.48 37.9898C20.48 40.2098 22.77 41.3798 24.48 42.9898C24.6407 43.1292 24.7529 43.3163 24.8 43.5238C24.8471 43.7313 24.8269 43.9485 24.7421 44.1436C24.6573 44.3388 24.5125 44.5019 24.3287 44.6091C24.1448 44.7163 23.9316 44.7621 23.72 44.7398C23.538 44.7446 23.3582 44.6996 23.2 44.6098Z" fill="#AE22B2"/>
<path d="M17.19 48.61C16.69 47.08 18.66 46.93 19.63 46.45C20.7215 46.0742 21.7706 45.5848 22.76 44.99C24.1194 44.1115 25.38 43.0889 26.52 41.94C26.6311 41.8119 26.7861 41.7299 26.9545 41.7102C27.1229 41.6904 27.2926 41.7343 27.4304 41.8332C27.5681 41.9322 27.6639 42.079 27.699 42.2449C27.7341 42.4108 27.7059 42.5838 27.62 42.73C25.8602 45.0519 23.619 46.9657 21.05 48.34C20.28 48.6 19.16 49.34 18.27 49.34C18.0373 49.3419 17.8094 49.2732 17.6166 49.1428C17.4237 49.0125 17.275 48.8267 17.19 48.61Z" fill="#AE22B2"/>
<path d="M20.18 52.8801C19.3657 52.309 18.6695 51.5857 18.13 50.7501C16.8348 49.1194 16.1614 47.0814 16.23 45.0001C16.19 44.9098 16.1795 44.8093 16.1999 44.7127C16.2203 44.6162 16.2706 44.5285 16.3436 44.4621C16.4166 44.3957 16.5087 44.354 16.6068 44.3428C16.7049 44.3317 16.8039 44.3517 16.89 44.4001C17.21 44.6101 17.2 45.0301 17.27 45.4001C17.3534 46.1441 17.5455 46.8718 17.84 47.5601C18.5392 48.8145 19.5053 49.9 20.67 50.7401C21.05 51.0301 21.57 51.2501 21.67 51.7401C21.7126 51.8918 21.7188 52.0514 21.6881 52.206C21.6573 52.3605 21.5905 52.5056 21.493 52.6294C21.3955 52.7532 21.2701 52.8523 21.1271 52.9184C20.9841 52.9846 20.8275 53.016 20.67 53.0101C20.4977 53.0135 20.3279 52.9685 20.18 52.8801Z" fill="#AE22B2"/>
<path d="M12.83 57.2C12.32 55.5 14.69 55.31 15.77 54.75C17.1955 54.1967 18.5734 53.5278 19.89 52.75C21.2305 51.8403 22.43 50.7386 23.45 49.48C23.6318 49.389 23.8401 49.3655 24.0377 49.4135C24.2353 49.4614 24.4094 49.5779 24.5293 49.7421C24.6492 49.9064 24.707 50.1078 24.6925 50.3106C24.678 50.5134 24.592 50.7045 24.45 50.85C24.1787 51.1132 23.9248 51.3938 23.69 51.69C22.3812 53.2564 20.8156 54.5887 19.06 55.63C18.12 56.11 15.53 57.91 13.96 57.91C13.7199 57.9319 13.4792 57.8742 13.275 57.7459C13.0708 57.6177 12.9145 57.4258 12.83 57.2Z" fill="#AE22B2"/>
<path d="M14.55 56.28C13.3448 55.4226 12.4334 54.2143 11.94 52.82C11.16 50 11.94 46.56 14.55 44.93C15.29 44.49 16.55 43.93 17.18 44.76C17.2476 44.8606 17.2801 44.9807 17.2724 45.1017C17.2647 45.2227 17.2173 45.3378 17.1375 45.429C17.0576 45.5203 16.9499 45.5826 16.831 45.6063C16.7121 45.6299 16.5887 45.6137 16.48 45.56C15.7687 45.8584 15.1409 46.3259 14.6512 46.9218C14.1615 47.5178 13.8247 48.2243 13.67 48.98C13.3917 50.2151 13.4963 51.5058 13.97 52.68C14.4384 53.5207 15.0095 54.3 15.67 55C15.7841 55.1237 15.86 55.2778 15.8883 55.4437C15.9166 55.6096 15.8961 55.7802 15.8295 55.9347C15.7628 56.0893 15.6527 56.2211 15.5126 56.3144C15.3724 56.4076 15.2083 56.4582 15.04 56.46C14.8628 56.448 14.6928 56.3855 14.55 56.28Z" fill="#AE22B2"/>
<path d="M21.98 59.5902C21.8569 59.4199 21.8057 59.208 21.8375 59.0003C21.8693 58.7926 21.9816 58.6058 22.15 58.4802C22.6698 58.123 23.1523 57.7142 23.59 57.2602C24.4091 56.3397 24.9182 55.1851 25.0456 53.9596C25.173 52.7341 24.9122 51.4995 24.3 50.4302C24.3 50.3502 24.18 50.3302 24.13 50.2602C24.0759 50.2095 24.0361 50.1454 24.0148 50.0743C23.9934 50.0033 23.9913 49.9279 24.0086 49.8558C24.0259 49.7836 24.0619 49.7173 24.1131 49.6637C24.1643 49.61 24.2288 49.5708 24.3 49.5502C25.08 49.4302 25.61 50.6602 25.94 51.2202C26.4481 52.1993 26.6803 53.2983 26.6115 54.3993C26.5428 55.5002 26.1759 56.5618 25.55 57.4702C24.8935 58.4378 24.0204 59.239 23 59.8102C22.8882 59.8768 22.7602 59.9114 22.63 59.9102C22.5044 59.9102 22.3805 59.8813 22.2678 59.8259C22.1551 59.7704 22.0566 59.6897 21.98 59.5902Z" fill="#AE22B2"/>
<path d="M15.73 45.8801C14.8996 44.8668 14.3589 43.6476 14.1653 42.3518C13.9716 41.056 14.1322 39.732 14.63 38.5201C14.8395 37.9025 15.1969 37.3454 15.6709 36.8974C16.145 36.4495 16.7214 36.1243 17.35 35.9501C18.08 35.7001 19.35 35.9501 19.35 36.8701C19.3616 37.0004 19.3303 37.131 19.2608 37.2418C19.1914 37.3527 19.0876 37.4378 18.9653 37.4842C18.843 37.5307 18.7089 37.5359 18.5834 37.499C18.4578 37.4622 18.3478 37.3853 18.27 37.2801C17.7377 37.4263 17.262 37.7298 16.9051 38.1509C16.5482 38.572 16.3269 39.0911 16.27 39.6401C15.9986 41.0886 16.213 42.5861 16.88 43.9001C16.996 44.1787 17.1366 44.4464 17.3 44.7001C17.391 44.8569 17.4377 45.0355 17.4351 45.2167C17.4325 45.398 17.3806 45.5751 17.2851 45.7292C17.1896 45.8833 17.054 46.0085 16.8928 46.0914C16.7316 46.1744 16.5509 46.212 16.37 46.2001C16.247 46.194 16.1266 46.1624 16.0164 46.1073C15.9063 46.0522 15.8087 45.9749 15.73 45.8801Z" fill="#AE22B2"/>
<path d="M22.67 51.2001C22.07 50.3201 23.14 49.7501 23.77 49.3301C24.3952 48.9633 24.9934 48.5523 25.56 48.1001C27 46.8201 29.56 44.2701 27.31 42.5801C26.76 42.5801 26.65 41.7901 27.11 41.5801C27.2755 41.5237 27.4518 41.506 27.6252 41.5286C27.7986 41.5511 27.9644 41.6132 28.11 41.7101C30.11 42.6601 30.29 45.1301 29.24 46.8501C28.0434 48.7391 26.3428 50.2561 24.33 51.2301C24.0298 51.4258 23.6867 51.5459 23.33 51.5801C23.1971 51.5766 23.0671 51.5401 22.9519 51.4737C22.8366 51.4074 22.7398 51.3133 22.67 51.2001Z" fill="#AE22B2"/>
<path d="M24.74 42.57C25.44 42.04 26.12 41.49 26.8 40.93C28.45 39.44 30.36 37.53 30.57 35.21C30.553 35.0512 30.5991 34.892 30.6982 34.7668C30.7973 34.6415 30.9415 34.5601 31.1 34.54C32.45 34.62 31.69 36.82 31.4 37.54C30.35 39.91 27.66 43.38 25.11 44.06C24.9549 44.0246 24.8126 43.9469 24.699 43.8355C24.5855 43.724 24.505 43.5833 24.4667 43.4289C24.4283 43.2744 24.4336 43.1124 24.4819 42.9608C24.5301 42.8092 24.6195 42.6739 24.74 42.57Z" fill="#AE22B2"/>
<path d="M18.31 37.7299C17.6757 35.0929 17.882 32.3237 18.9 29.8099C19.4232 28.2122 20.4832 26.8448 21.9 25.9399C22.0865 25.8127 22.3105 25.7524 22.5357 25.7687C22.7608 25.7851 22.9738 25.8771 23.14 26.0299C23.2345 26.1197 23.2966 26.2382 23.3166 26.3671C23.3366 26.4959 23.3134 26.6277 23.2506 26.7419C23.1878 26.8562 23.0889 26.9464 22.9694 26.9985C22.8499 27.0506 22.7165 27.0616 22.59 27.0299C20.02 29.0299 19.52 33.0299 19.86 36.0299C19.86 36.4899 19.98 36.9399 20.04 37.3899C20.0577 37.5176 20.0471 37.6478 20.009 37.771C19.9708 37.8942 19.906 38.0076 19.8192 38.103C19.7324 38.1984 19.6256 38.2735 19.5065 38.3231C19.3874 38.3727 19.2589 38.3955 19.13 38.3899C18.9395 38.3862 18.7556 38.3194 18.6072 38.2C18.4588 38.0805 18.3543 37.9152 18.31 37.7299Z" fill="#AE22B2"/>
<path d="M27.89 37.2202C27.73 37.1686 27.5884 37.0717 27.4823 36.9413C27.3763 36.8109 27.3103 36.6525 27.2923 36.4854C27.2743 36.3183 27.3051 36.1495 27.381 35.9995C27.4569 35.8495 27.5746 35.7247 27.72 35.6402C28.31 35.3002 28.88 34.9202 29.46 34.5702C30.2242 34.0653 30.9619 33.5213 31.67 32.9402C32.6561 32.018 33.4453 30.9057 33.99 29.6702C34.3111 28.842 34.6818 28.0339 35.1 27.2502C35.1633 27.1925 35.2427 27.1556 35.3276 27.1443C35.4125 27.133 35.4988 27.148 35.575 27.1871C35.6512 27.2263 35.7135 27.2878 35.7537 27.3634C35.794 27.4391 35.8101 27.5252 35.8 27.6102C35.6927 28.2841 35.5491 28.9518 35.37 29.6102C34.8116 32.0489 33.3594 34.1898 31.3 35.6102C30.4509 36.233 29.5353 36.7596 28.57 37.1802C28.4367 37.2486 28.2897 37.2862 28.14 37.2902C28.0529 37.2834 27.9679 37.2596 27.89 37.2202Z" fill="#AE22B2"/>
<path d="M21.98 28.4199C20.98 25.5299 22.7 21.9199 24.52 19.6799C25.69 18.3099 27.25 16.5899 29.23 16.8899C29.3173 16.9023 29.401 16.9333 29.4754 16.9806C29.5499 17.0279 29.6134 17.0906 29.6616 17.1645C29.7099 17.2383 29.7419 17.3216 29.7554 17.4087C29.7689 17.4959 29.7637 17.5849 29.74 17.6699C29.58 18.2099 28.97 18.0299 28.58 18.2699C26.01 19.7599 24.1 23.3799 23.72 26.2699C23.7018 26.8378 23.7285 27.4063 23.8 27.9699C23.8106 28.1039 23.7919 28.2386 23.7454 28.3647C23.6988 28.4908 23.6255 28.6053 23.5305 28.7004C23.4354 28.7954 23.3209 28.8688 23.1948 28.9153C23.0687 28.9618 22.934 28.9805 22.8 28.9699C22.6237 28.9721 22.4509 28.9207 22.3045 28.8225C22.158 28.7243 22.0449 28.5839 21.98 28.4199Z" fill="#AE22B2"/>
<path d="M31.43 28.5501C31.3769 28.3947 31.357 28.2298 31.3718 28.0662C31.3866 27.9025 31.4357 27.7439 31.5159 27.6005C31.5961 27.4571 31.7056 27.3322 31.8372 27.2339C31.9689 27.1357 32.1197 27.0662 32.28 27.0301C33.0176 26.7022 33.7355 26.3316 34.43 25.9201C37 24.2001 39.92 21.6401 40.2 18.3701C40.131 18.2818 40.0872 18.1765 40.0732 18.0652C40.0593 17.954 40.0758 17.8411 40.1209 17.7385C40.1661 17.6359 40.2382 17.5475 40.3296 17.4826C40.421 17.4178 40.5283 17.3789 40.64 17.3701C42.08 17.4701 41.34 20.3701 40.97 21.2401C39.8274 23.9492 37.9326 26.2742 35.51 27.9401C34.6434 28.5235 33.6826 28.9531 32.67 29.2101C32.584 29.2253 32.496 29.2253 32.41 29.2101C32.2011 29.2035 31.9983 29.1381 31.8249 29.0213C31.6515 28.9046 31.5147 28.7412 31.43 28.5501Z" fill="#AE22B2"/>
<path d="M27.93 20.6C27.711 19.2576 27.8348 17.8817 28.29 16.6C28.7544 14.6225 29.5598 12.7411 30.67 11.04C31.2163 10.1889 31.9517 9.4753 32.819 8.95494C33.6862 8.43459 34.6619 8.12148 35.67 8.04002C35.8168 8.03239 35.9636 8.05509 36.1012 8.1067C36.2389 8.15832 36.3644 8.23774 36.47 8.34002C36.5771 8.44297 36.6437 8.58097 36.6576 8.72889C36.6716 8.87681 36.6319 9.02482 36.5459 9.14597C36.4599 9.26711 36.3333 9.35335 36.189 9.38896C36.0448 9.42458 35.8925 9.40721 35.76 9.34002C32.68 10.1 31.29 13.34 30.58 16.16C30.1338 17.5216 29.878 18.9384 29.82 20.37C29.8177 20.4962 29.7895 20.6205 29.7372 20.7353C29.6848 20.8501 29.6094 20.9529 29.5156 21.0373C29.4218 21.1218 29.3116 21.186 29.192 21.226C29.0723 21.266 28.9457 21.281 28.82 21.27C28.6175 21.2763 28.419 21.2133 28.2572 21.0915C28.0954 20.9697 27.98 20.7963 27.93 20.6Z" fill="#AE22B2"/>
<path d="M38.5 19.0401C38.06 18.1901 38.87 17.7501 39.5 17.4301C41.93 15.5801 44.84 13.4301 45.34 10.2401C44.69 8.75005 47.58 8.59005 46.28 12.1201C46.16 13.6101 41.49 19.4801 39.28 19.4801C39.1228 19.4812 38.9682 19.4411 38.8313 19.364C38.6945 19.2868 38.5803 19.1751 38.5 19.0401Z" fill="#AE22B2"/>
<path d="M35.58 11.8702C34.09 11.7502 34.94 9.38022 35.26 8.52022C36.2107 6.40038 37.8885 4.69067 39.99 3.70022C40.62 3.44022 42.39 2.99022 42.6 3.95022C42.6067 4.03421 42.5916 4.1185 42.5563 4.19497C42.5209 4.27144 42.4664 4.33749 42.398 4.38675C42.3297 4.43601 42.2498 4.46681 42.166 4.47617C42.0823 4.48554 41.9975 4.47316 41.92 4.44022H41.73C39.45 5.01022 37.83 7.09022 36.92 9.15022C36.7146 9.75825 36.5673 10.3844 36.48 11.0202C36.4675 11.2414 36.3719 11.4498 36.2125 11.6036C36.0531 11.7575 35.8415 11.8455 35.62 11.8502L35.58 11.8702Z" fill="#AE22B2"/>
<path d="M41.67 11.4399C41.5934 11.207 41.605 10.954 41.7027 10.7291C41.8005 10.5041 41.9774 10.3229 42.2 10.2199C42.8694 9.96766 43.518 9.66339 44.14 9.30995C45.69 8.24995 48.14 5.08995 47.49 3.12995C47.3911 3.05481 47.32 2.94892 47.2878 2.82894C47.2557 2.70896 47.2643 2.5817 47.3124 2.46717C47.3605 2.35265 47.4453 2.25737 47.5535 2.19632C47.6617 2.13528 47.7871 2.11193 47.91 2.12995C48.2108 2.3036 48.4612 2.55261 48.6366 2.85245C48.8119 3.15229 48.9061 3.49262 48.91 3.83995C48.9282 5.50872 48.4325 7.14267 47.49 8.51995C47.059 9.25692 46.5272 9.93008 45.91 10.5199C44.9946 11.2701 43.9155 11.7942 42.76 12.0499C42.684 12.0643 42.606 12.0643 42.53 12.0499C42.344 12.0385 42.165 11.9753 42.0131 11.8675C41.8611 11.7597 41.7423 11.6116 41.67 11.4399Z" fill="#AE22B2"/>
<path d="M56.56 10.6501C54.47 9.65008 51.78 4.89008 52.25 2.65008C52.3382 2.51374 52.4627 2.40478 52.6096 2.33554C52.7564 2.26629 52.9197 2.23952 53.081 2.25825C53.2422 2.27698 53.3951 2.34046 53.5221 2.44151C53.6492 2.54257 53.7455 2.67716 53.8 2.83008C54.0023 3.68174 54.3399 4.49542 54.8 5.24008C55.662 6.58533 56.6679 7.83269 57.8 8.96008C57.933 9.11698 58.0193 9.30801 58.0491 9.51148C58.079 9.71495 58.0512 9.92272 57.9689 10.1112C57.8867 10.2997 57.7532 10.4613 57.5837 10.5778C57.4142 10.6943 57.2155 10.7609 57.01 10.7701C56.8527 10.7661 56.6985 10.7249 56.56 10.6501Z" fill="#AE22B2"/>
<path d="M52.73 13.5898C51.88 12.1898 53.85 11.5898 54.73 10.9298C56.1103 10.0326 57.385 8.98268 58.53 7.79984C59.2939 6.97542 59.9461 6.0542 60.47 5.05984C60.78 4.60984 60.87 3.68984 61.62 3.89984C62.5 4.27984 61.72 5.26984 61.49 5.89984C60.2057 8.27906 58.4898 10.3985 56.43 12.1498C55.69 12.7298 54.64 14.1498 53.63 14.1498C53.4465 14.1339 53.2693 14.0749 53.1129 13.9776C52.9566 13.8803 52.8254 13.7474 52.73 13.5898Z" fill="#AE22B2"/>
<path d="M57.39 18.0002C52.61 17.7302 50.22 12.6402 49.29 8.5402C49.2599 8.40241 49.2849 8.25831 49.3596 8.13872C49.4344 8.01912 49.5529 7.93351 49.69 7.90019C50.39 7.79019 50.49 8.90019 50.76 9.39019C51.6945 11.7024 53.3451 13.6545 55.47 14.9602C56.25 15.3802 57.09 15.6802 57.88 16.0502C58.1224 16.1212 58.3291 16.2813 58.4583 16.4984C58.5875 16.7155 58.6298 16.9735 58.5766 17.2205C58.5234 17.4674 58.3786 17.6851 58.1715 17.8298C57.9644 17.9744 57.7102 18.0353 57.46 18.0002H57.39Z" fill="#AE22B2"/>
<path d="M52.55 22.23C51.69 20.71 53.98 20.07 54.87 19.29C56.4758 18.4229 57.8692 17.2105 58.95 15.74C59.7361 14.6974 60.3786 13.5538 60.86 12.34C60.8825 12.2435 60.9246 12.1526 60.9838 12.0731C61.043 11.9936 61.118 11.9272 61.2041 11.878C61.2902 11.8289 61.3855 11.798 61.484 11.7874C61.5826 11.7767 61.6823 11.7866 61.7769 11.8162C61.8714 11.8459 61.9589 11.8948 62.0337 11.9599C62.1085 12.0249 62.169 12.1047 62.2116 12.1942C62.2541 12.2838 62.2777 12.3811 62.2809 12.4802C62.2841 12.5793 62.2667 12.678 62.23 12.77C61.9569 13.5873 61.6226 14.3829 61.23 15.15C60.2949 17.5844 58.6418 19.6769 56.49 21.15C55.67 21.55 54.49 22.76 53.49 22.76C53.3015 22.7571 53.1168 22.7071 52.9526 22.6145C52.7885 22.5219 52.65 22.3897 52.55 22.23Z" fill="#AE22B2"/>
<path d="M57.48 27.3401C55.3564 26.3536 53.4703 24.9212 51.9501 23.1404C50.4298 21.3596 49.3111 19.2721 48.67 17.0201C48.576 16.8815 48.5333 16.7145 48.5491 16.5479C48.565 16.3812 48.6384 16.2253 48.7568 16.1069C48.8752 15.9885 49.0311 15.9151 49.1978 15.8992C49.3644 15.8834 49.5314 15.9261 49.67 16.0201C50.22 17.0201 50.59 18.1701 51.23 19.1601C52.89 22.0101 56.04 23.3601 58.7 25.0601C58.9309 25.2108 59.1075 25.4316 59.2037 25.6901C59.3 25.9485 59.3109 26.231 59.2349 26.4961C59.1588 26.7612 58.9998 26.9949 58.7811 27.163C58.5625 27.3311 58.2957 27.4247 58.02 27.4301C57.8357 27.4376 57.6519 27.4069 57.48 27.3401Z" fill="#AE22B2"/>
<path d="M49.51 31.9502C49.06 30.3802 51.16 30.1602 52.13 29.5602C54.6288 28.5329 56.9196 27.0588 58.89 25.2102C59.6497 24.4434 60.2751 23.5544 60.74 22.5802C60.8159 22.4236 60.9453 22.2992 61.1048 22.2295C61.2643 22.1598 61.4435 22.1494 61.61 22.2002C62.91 22.8602 61.18 24.7602 60.79 25.6102C59.1295 27.9656 56.9323 29.892 54.38 31.2302C53.48 31.5202 51.78 32.7102 50.61 32.7102C50.3683 32.7237 50.129 32.6563 49.9298 32.5187C49.7306 32.3811 49.5829 32.1811 49.51 31.9502Z" fill="#AE22B2"/>
<path d="M55.87 38.4602C51.58 36.4602 46.94 29.4602 45.87 24.9002C45.8517 24.79 45.8634 24.677 45.9039 24.5729C45.9445 24.4689 46.0124 24.3778 46.1005 24.3091C46.1886 24.2405 46.2936 24.1969 46.4044 24.183C46.5152 24.1691 46.6277 24.1854 46.73 24.2302C46.8415 24.2831 46.934 24.3691 46.9948 24.4764C47.0557 24.5838 47.0819 24.7073 47.07 24.8302C47.1367 25.0724 47.2203 25.3096 47.32 25.5402C48.7841 28.8338 50.9355 31.7762 53.63 34.1702C54.6353 35.1 55.7307 35.9274 56.9 36.6402C57.1421 36.7236 57.343 36.8967 57.4613 37.1238C57.5796 37.351 57.6062 37.6149 57.5357 37.861C57.4652 38.1072 57.3029 38.317 57.0823 38.4471C56.8617 38.5771 56.5996 38.6176 56.35 38.5602C56.1846 38.5627 56.0207 38.5285 55.87 38.4602Z" fill="#AE22B2"/>
<path d="M47.67 44.9799C47.4205 44.8555 47.2129 44.6608 47.0726 44.4199C46.9323 44.179 46.8655 43.9024 46.8803 43.624C46.8952 43.3456 46.9911 43.0776 47.1563 42.8531C47.3215 42.6285 47.5487 42.4571 47.81 42.3599C49.62 41.4899 51.53 40.8599 53.29 39.8699C55.7664 38.291 57.8384 36.1539 59.34 33.6299C59.65 33.0999 60.25 32.2399 60.85 32.9699C61.09 33.3099 60.9 33.6599 60.67 33.9699C60.14 34.9699 59.58 35.9099 59.01 36.8699C57.1515 40.203 54.2443 42.829 50.74 44.3399C49.9658 44.7072 49.1448 44.9663 48.3 45.1099C48.0836 45.1068 47.8699 45.0627 47.67 44.9799Z" fill="#AE22B2"/>
<path d="M53.34 49.2798C50.7856 48.2751 48.6294 46.4631 47.2 44.1198C46.0741 42.5837 45.1624 40.9016 44.49 39.1198C44.3236 38.6104 44.2162 38.0836 44.17 37.5498C44.08 37.0398 44.55 36.5498 45.06 36.8098C45.1774 36.8755 45.266 36.9826 45.3086 37.1102C45.3511 37.2379 45.3445 37.3768 45.29 37.4998C45.79 40.1598 49.02 43.4998 51.15 45.1298C52.21 45.8198 53.32 46.4198 54.37 47.1298C54.585 47.2741 54.7489 47.4825 54.8385 47.7254C54.9281 47.9684 54.9387 48.2334 54.8689 48.4827C54.7991 48.732 54.6524 48.9529 54.4497 49.114C54.247 49.2751 53.9987 49.3681 53.74 49.3798C53.6018 49.3706 53.4663 49.3367 53.34 49.2798Z" fill="#AE22B2"/>
<path d="M45.53 53.7099C45.4146 53.3716 45.437 53.0015 45.5923 52.6797C45.7476 52.3578 46.0234 52.11 46.36 51.9898C46.95 51.7298 47.55 51.4398 48.15 51.1798C49.31 50.6698 50.5 50.1799 51.63 49.6399C53.3981 48.7335 55.0361 47.5933 56.5 46.2499C57.24 45.5999 57.84 44.7898 58.56 44.1198C58.6756 44.0503 58.8123 44.0247 58.9452 44.0479C59.0781 44.0711 59.1981 44.1414 59.2833 44.246C59.3684 44.3507 59.4129 44.4825 59.4087 44.6173C59.4044 44.7521 59.3516 44.8808 59.26 44.9798C58.2185 46.4643 57.0509 47.8562 55.77 49.1399C54.2763 50.7639 52.4967 52.0994 50.52 53.0798C49.4682 53.6507 48.3751 54.1421 47.25 54.5498C47.1119 54.5982 46.9663 54.6219 46.82 54.6198C46.5377 54.6183 46.2627 54.5302 46.032 54.3675C45.8014 54.2048 45.6261 53.9753 45.53 53.7099Z" fill="#AE22B2"/>
<path d="M50.73 57.59C48.5533 56.9427 46.627 55.6445 45.21 53.87C44.0494 52.5092 43.105 50.9779 42.41 49.33C42.21 48.81 41.96 48.33 41.8 47.77C41.7808 47.6725 41.7923 47.5714 41.833 47.4808C41.8737 47.3901 41.9415 47.3143 42.0271 47.2638C42.1127 47.2133 42.2119 47.1907 42.3109 47.1989C42.4099 47.2072 42.504 47.246 42.58 47.31C43.09 47.94 43.4 48.73 43.9 49.38C44.988 50.9427 46.3063 52.3318 47.81 53.5C48.97 54.32 50.21 54.92 51.4 55.65C51.6372 55.7456 51.8323 55.9229 51.95 56.15C52.0373 56.305 52.0817 56.4805 52.0785 56.6584C52.0754 56.8363 52.0248 57.0101 51.9321 57.162C51.8394 57.3138 51.7078 57.4381 51.551 57.5222C51.3942 57.6062 51.2178 57.6469 51.04 57.64C50.9344 57.643 50.8293 57.626 50.73 57.59Z" fill="#AE22B2"/>
<path d="M43.77 64.3902C43.4156 64.349 43.0868 64.1852 42.8404 63.9272C42.594 63.6692 42.4456 63.3332 42.4207 62.9773C42.3958 62.6214 42.496 62.2681 42.704 61.9782C42.9121 61.6884 43.2149 61.4804 43.56 61.3902C45.2342 60.7173 46.8641 59.9391 48.44 59.0602C50.2251 57.8224 51.8981 56.4304 53.44 54.9002C53.972 54.3803 54.5706 53.9331 55.22 53.5702C55.3433 53.546 55.4707 53.552 55.5913 53.5877C55.7118 53.6234 55.822 53.6876 55.9123 53.7751C56.0027 53.8625 56.0706 53.9704 56.1102 54.0897C56.1499 54.209 56.1601 54.3361 56.14 54.4602C56.1096 54.6058 56.0392 54.7399 55.9367 54.8477C55.8343 54.9554 55.7038 55.0325 55.56 55.0702C53.9 56.7302 52.69 58.7902 51.04 60.4802C49.19 62.0802 46.47 64.4002 43.92 64.4002L43.77 64.3902Z" fill="#AE22B2"/>
<path d="M40.91 60.03C40.7313 58.6672 40.9655 57.2821 41.5823 56.0539C42.1992 54.8256 43.1702 53.8106 44.37 53.14C44.95 52.75 46.37 52.21 46.3 53.39C46.2717 53.5255 46.1995 53.6479 46.0947 53.7382C45.9898 53.8286 45.8582 53.8819 45.72 53.89C45.1196 54.236 44.5961 54.7009 44.1817 55.2563C43.7673 55.8117 43.4707 56.4459 43.31 57.12C42.995 58.973 43.3723 60.8771 44.37 62.47C45.28 63.57 45.64 65.21 43.76 65.37C41.67 64.74 41.17 61.93 40.91 60.03Z" fill="#AE22B2"/>
<path d="M52.54 66.0601C52.4115 65.8654 52.3552 65.6318 52.3807 65.3999C52.4063 65.1679 52.5122 64.9522 52.68 64.7901C53.29 64.1901 53.95 63.6501 54.54 63.0301C56.78 60.7101 57.74 57.7101 55.59 54.9701C55.5091 54.856 55.4113 54.7549 55.3 54.6701C55.1965 54.6226 55.1124 54.5412 55.0615 54.4394C55.0106 54.3376 54.9959 54.2214 55.02 54.1101C55.11 53.6201 55.69 53.5901 56.02 53.8401C59.87 56.9101 59.28 61.3101 56.09 64.6201C55.51 65.1601 54.27 66.4501 53.29 66.4501C53.1441 66.4438 53.0013 66.4057 52.8717 66.3383C52.7422 66.2709 52.6289 66.176 52.54 66.0601Z" fill="#AE22B2"/>
<path d="M50.31 57.8102C49.43 56.6802 50.88 56.0102 51.59 55.3602C53.02 54.1902 54.69 53.3602 56.07 52.1102C57.6602 50.1384 58.4429 47.6367 58.26 45.1102C58.26 44.9402 58.14 44.8102 58.13 44.6402C58.1198 44.5201 58.1479 44.3999 58.2103 44.2968C58.2727 44.1938 58.3662 44.1131 58.4773 44.0664C58.5884 44.0198 58.7114 44.0095 58.8286 44.0371C58.9459 44.0648 59.0514 44.1288 59.13 44.2202C60.01 45.5902 59.63 48.7802 59.18 50.3102C58.9247 51.3653 58.4604 52.3584 57.8145 53.231C57.1687 54.1035 56.3545 54.8377 55.42 55.3902C54.2 56.2902 52.94 57.1302 51.66 57.9402C51.49 58.0588 51.2873 58.1217 51.08 58.1202C50.937 58.1266 50.7942 58.1023 50.6613 58.0488C50.5285 57.9953 50.4087 57.914 50.31 57.8102Z" fill="#AE22B2"/>
<path d="M45.46 53.6402C43.3644 51.6496 41.8503 49.126 41.08 46.3402C40.6652 45.0502 40.5255 43.6875 40.67 42.3402C40.8502 40.561 41.6543 38.9031 42.94 37.6602C43.76 36.9302 45.57 36.7602 45.82 38.1002C45.8465 38.201 45.8319 38.3081 45.7794 38.3982C45.7269 38.4882 45.6408 38.5537 45.54 38.5802C45.4392 38.6067 45.3321 38.5921 45.242 38.5396C45.152 38.4871 45.0865 38.401 45.06 38.3002C44.25 38.1702 43.76 39.4102 43.49 40.0102C42.49 42.3502 42.97 44.5602 43.95 46.8002C44.8478 48.7172 45.951 50.5311 47.24 52.2102C47.4104 52.4477 47.483 52.7415 47.4429 53.031C47.4028 53.3205 47.253 53.5835 47.0246 53.7658C46.7961 53.948 46.5064 54.0356 46.2152 54.0103C45.9241 53.9851 45.6537 53.849 45.46 53.6302V53.6402Z" fill="#AE22B2"/>
<path d="M53.94 48.3399C53.02 47.1599 54.8 46.3399 55.41 45.4899C56.02 44.6399 56.89 43.9399 57.55 43.0999C59.25 40.4399 61.28 37.2699 60.1 34.0299C59.95 33.6699 59.57 33.3499 59.79 32.9299C59.8698 32.7683 60.0097 32.6443 60.1798 32.5845C60.3499 32.5247 60.5366 32.5338 60.7 32.6099C62.24 34.0199 62.45 37.0899 61.89 39.0299C61.1131 42.1277 59.4151 44.9171 57.02 47.0299C56.33 47.4799 55.52 48.6199 54.67 48.6199C54.5358 48.6247 54.4019 48.6023 54.2765 48.5542C54.1511 48.5061 54.0366 48.4332 53.94 48.3399Z" fill="#AE22B2"/>
<path d="M46.79 43.0198C44.7088 41.0226 43.3479 38.3923 42.92 35.5398C42.05 32.0198 42.65 27.6798 45.52 25.2298C45.99 24.8198 47.18 24.7198 47.12 25.5798C47.0947 25.6988 47.0292 25.8056 46.9345 25.8821C46.8398 25.9586 46.7217 26.0001 46.6 25.9998C45.42 26.8598 44.76 28.9998 44.6 30.3698C44.4385 31.7548 44.5507 33.158 44.93 34.4998C45.3174 36.0864 45.902 37.6183 46.67 39.0598C47.19 39.9298 47.86 40.6898 48.46 41.5098C48.5766 41.6816 48.644 41.8821 48.655 42.0895C48.666 42.2969 48.6201 42.5033 48.5223 42.6866C48.4245 42.8698 48.2785 43.0228 48.1001 43.1291C47.9217 43.2354 47.7177 43.291 47.51 43.2898C47.2451 43.2902 46.9892 43.1943 46.79 43.0198Z" fill="#AE22B2"/>
<path d="M55.46 38.53C54.46 37.53 56.11 36.53 56.59 35.63C59.24 31.83 62.07 27.47 61.08 22.63C61.0405 22.514 61.0341 22.3892 61.0615 22.2697C61.089 22.1502 61.1491 22.0407 61.2353 21.9534C61.3215 21.8662 61.4303 21.8047 61.5494 21.7759C61.6686 21.747 61.7935 21.7519 61.91 21.79C62.59 22.09 62.37 23.06 62.61 23.67C63.31 27.47 61.99 31.29 59.88 34.43C59.24 35.33 57.41 38.74 56 38.74C55.8013 38.7338 55.6107 38.6597 55.46 38.53Z" fill="#AE22B2"/>
<path d="M49.24 30.7198C47.4285 28.8643 46.2581 26.478 45.9 23.9098C45.72 21.9098 45.72 19.7998 46.8 18.0898C47.21 17.4398 48.25 15.8298 49.13 16.5298C49.1802 16.5797 49.2146 16.6433 49.2288 16.7127C49.2431 16.7821 49.2365 16.8541 49.21 16.9198C48.1726 18.3305 47.7016 20.0788 47.89 21.8198C48.0898 24.1774 48.9378 26.4339 50.34 28.3398C50.78 29.0498 51.62 29.9998 50.79 30.7598C50.5912 30.9427 50.3302 31.0429 50.06 31.0398C49.909 31.0434 49.7587 31.017 49.6179 30.9621C49.4771 30.9072 49.3487 30.8248 49.24 30.7198Z" fill="#AE22B2"/>
<path d="M57.45 27.6899C57.2183 27.4904 57.0739 27.2081 57.0478 26.9034C57.0216 26.5988 57.1157 26.296 57.31 26.0599C57.93 25.3699 58.5 24.6099 59.05 23.8599C61.12 20.7399 63.74 16.4299 61.31 12.8599C60.49 12.8599 60.84 11.6599 61.55 11.8599C62.26 12.0599 62.8 12.9499 63.22 13.6299C63.9922 15.1215 64.2622 16.8225 63.99 18.4799C63.9375 19.0244 63.8234 19.5611 63.65 20.0799C62.7749 22.9846 61.1625 25.6132 58.97 27.7099C58.7615 27.9053 58.4857 28.0127 58.2 28.0099C57.9193 27.9984 57.6525 27.8846 57.45 27.6899Z" fill="#AE22B2"/>
<path d="M52.46 22.1798C51.5289 21.4855 50.7239 20.6365 50.08 19.6698C49.3033 18.706 48.6639 17.6392 48.18 16.4998C47.3495 14.3851 47.3495 12.0345 48.18 9.91981C48.54 9.25981 49.02 8.3398 49.86 8.2998C50.11 8.2998 50.22 8.4898 50.37 8.6398C50.436 8.70708 50.476 8.79546 50.4832 8.88939C50.4903 8.98332 50.4641 9.07676 50.4091 9.15325C50.3542 9.22974 50.274 9.28437 50.1826 9.30752C50.0913 9.33068 49.9948 9.32086 49.91 9.27981C48.71 11.0898 49.08 13.5498 49.82 15.4798C50.5785 16.9509 51.5084 18.3271 52.59 19.5798C52.9197 19.9967 53.2808 20.3878 53.67 20.7498C53.8137 20.8745 53.9163 21.0398 53.964 21.2239C54.0118 21.4081 54.0025 21.6024 53.9375 21.7812C53.8725 21.96 53.7548 22.1148 53.5999 22.2253C53.445 22.3357 53.2602 22.3966 53.07 22.3998C52.8469 22.402 52.6304 22.3239 52.46 22.1798Z" fill="#AE22B2"/>
<path d="M57.75 17.95C57.4833 17.7742 57.2962 17.5008 57.2289 17.1885C57.1616 16.8763 57.2194 16.5501 57.39 16.28C58.27 14.97 59.24 13.72 60.06 12.37C61.06 10.52 62.12 6.93998 61.06 4.98998C60.29 4.61998 60.94 3.73998 61.64 4.10998C62.95 4.91998 63.04 7.36998 63.02 8.75998C62.9652 10.6427 62.5047 12.4915 61.67 14.18C61.22 14.98 60.75 15.75 60.23 16.5C59.71 17.25 59.23 18.15 58.44 18.15C58.1958 18.1489 57.9568 18.0796 57.75 17.95Z" fill="#AE22B2"/>
<path d="M51.45 13.23C50.51 12.96 49.94 11.67 49.34 10.95C48.5364 9.64474 48.2145 8.09959 48.43 6.58202C48.6455 5.06445 49.3848 3.66998 50.52 2.64001C51.17 1.85001 53.46 1.22001 53.32 2.83001C53.2772 2.95862 53.1975 3.07179 53.0908 3.15537C52.9841 3.23896 52.8551 3.28926 52.72 3.30001C52.1952 3.63155 51.7728 4.1024 51.5 4.66001C51.069 5.56774 50.8979 6.57711 51.0055 7.57617C51.1132 8.57524 51.4955 9.52496 52.11 10.32C52.33 10.71 52.52 11.12 52.74 11.51C52.8287 11.6938 52.8699 11.8969 52.8598 12.1008C52.8497 12.3046 52.7886 12.5026 52.6821 12.6768C52.5757 12.8509 52.4272 12.9955 52.2504 13.0974C52.0736 13.1993 51.874 13.2552 51.67 13.26L51.45 13.23Z" fill="#AE22B2"/>
<path d="M76.13 14.8599C72.9 13.0899 70.32 10.3199 67.13 8.40993C66.8676 8.28171 66.6511 8.07568 66.51 7.81993C66.4794 7.73158 66.4705 7.63712 66.4843 7.54462C66.498 7.45211 66.5339 7.3643 66.5889 7.28867C66.6439 7.21303 66.7164 7.15182 66.8002 7.11025C66.8839 7.06868 66.9765 7.04799 67.07 7.04993C67.4728 7.16308 67.8594 7.32778 68.22 7.53993C70.9837 9.12462 73.6365 10.8954 76.16 12.8399C76.43 13.0499 76.71 13.2399 76.98 13.4599C77.1101 13.5705 77.2035 13.7181 77.2476 13.8831C77.2917 14.048 77.2845 14.2225 77.2269 14.3832C77.1693 14.544 77.0642 14.6834 76.9254 14.7829C76.7866 14.8823 76.6207 14.9371 76.45 14.9399C76.3397 14.9312 76.2315 14.9041 76.13 14.8599Z" fill="#AE22B2"/>
<path d="M73.02 23.1401C71.6 22.3201 73.11 20.5801 73.53 19.5401C74.571 17.7933 75.4737 15.9677 76.23 14.0801C76.45 13.4401 76.67 12.8101 76.83 12.1501C76.9 11.6801 77.03 11.0501 77.63 11.0801C77.7193 11.084 77.807 11.1054 77.8881 11.1432C77.9691 11.181 78.0419 11.2344 78.1023 11.3003C78.1626 11.3663 78.2094 11.4435 78.2399 11.5275C78.2704 11.6116 78.284 11.7008 78.28 11.7901C77.9598 14.6687 77.1623 17.4738 75.92 20.0901C75.37 20.9701 74.64 23.2201 73.43 23.2201C73.2892 23.2226 73.1495 23.1954 73.02 23.1401Z" fill="#AE22B2"/>
<path d="M79.85 26.2102C74.79 25.2602 70.46 21.7702 67.53 17.6502C67.4 17.4502 67.27 17.2102 67.42 16.9902C67.4733 16.9087 67.5539 16.8488 67.6474 16.8213C67.7408 16.7939 67.841 16.8005 67.93 16.8402C67.9874 16.855 68.0402 16.8837 68.0839 16.9239C68.1275 16.964 68.1605 17.0143 68.18 17.0702C68.61 17.5502 69.07 17.9902 69.53 18.4302C71.8045 20.4529 74.4454 22.0212 77.31 23.0502C78.31 23.4102 79.31 23.7802 80.36 24.1302C80.598 24.2124 80.7998 24.3752 80.9305 24.5904C81.0612 24.8056 81.1127 25.0597 81.0759 25.3088C81.0391 25.5579 80.9165 25.7863 80.7292 25.9545C80.5418 26.1228 80.3016 26.2203 80.05 26.2302L79.85 26.2102Z" fill="#AE22B2"/>
<path d="M75.55 34.3399C74.06 33.1699 76.18 31.5699 76.7 30.3399C77.7792 28.7731 78.6908 27.0972 79.42 25.3399C80.0502 23.7013 80.4604 21.9864 80.64 20.2399C80.6366 20.1292 80.6569 20.0189 80.6994 19.9166C80.7419 19.8143 80.8058 19.7222 80.8867 19.6465C80.9676 19.5708 81.0638 19.5132 81.1687 19.4775C81.2736 19.4418 81.385 19.429 81.4953 19.4397C81.6056 19.4505 81.7123 19.4846 81.8084 19.5398C81.9045 19.595 81.9877 19.6701 82.0525 19.76C82.1173 19.8499 82.1622 19.9526 82.1841 20.0612C82.2061 20.1698 82.2047 20.2819 82.18 20.3899C82.09 21.3899 82.04 22.3899 81.86 23.3899C81.3388 26.637 80.1246 29.7339 78.3 32.4699C77.72 33.1699 77.14 34.5699 76.18 34.5699C75.9529 34.5526 75.7349 34.473 75.55 34.3399Z" fill="#AE22B2"/>
<path d="M82.17 36.82C78.6921 36.4498 75.4456 34.9006 72.97 32.43C72.06 31.62 71.21 30.73 70.38 29.83C69.8648 29.3203 69.3932 28.7684 68.97 28.18C68.9168 28.0496 68.912 27.9044 68.9565 27.7707C69.001 27.6371 69.0919 27.5237 69.2127 27.4513C69.3335 27.3788 69.4763 27.3519 69.6152 27.3755C69.7541 27.3991 69.8799 27.4717 69.97 27.58C70.36 28.01 70.92 28.5 71.29 28.89C73.3486 31.0333 75.8742 32.6725 78.67 33.68C79.902 34.0408 81.1587 34.3115 82.43 34.49C82.7085 34.5525 82.955 34.7138 83.1237 34.944C83.2925 35.1743 83.372 35.4579 83.3476 35.7424C83.3231 36.0268 83.1965 36.2927 82.991 36.4909C82.7855 36.689 82.5151 36.806 82.23 36.82H82.17Z" fill="#AE22B2"/>
<path d="M76.5 46.72C75.02 45.43 78.09 43.32 78.8 42.18C80.3382 40.3204 81.5765 38.2319 82.47 35.99C83.0806 34.4355 83.5493 32.829 83.87 31.19C83.8766 31.08 83.9079 30.9729 83.9618 30.8767C84.0157 30.7805 84.0906 30.6978 84.181 30.6348C84.2714 30.5717 84.3748 30.5299 84.4837 30.5125C84.5925 30.4952 84.7039 30.5027 84.8094 30.5345C84.9149 30.5663 85.0119 30.6216 85.093 30.6962C85.1741 30.7708 85.2372 30.8629 85.2777 30.9654C85.3182 31.0679 85.3349 31.1783 85.3266 31.2882C85.3184 31.3981 85.2853 31.5047 85.23 31.6C85.0043 33.1418 84.6972 34.6706 84.31 36.18C83.649 38.8936 82.4633 41.4516 80.82 43.71C80.03 44.53 78.55 46.97 77.2 46.97C76.9454 46.9664 76.6992 46.8785 76.5 46.72Z" fill="#AE22B2"/>
<path d="M84.42 50.2601C79.31 50.0101 74.99 46.7201 71.67 43.0801C70.8846 42.1645 70.2131 41.1571 69.67 40.0801C69.43 39.5001 68.51 38.5501 69.4 38.0801C69.4787 38.0543 69.5619 38.0451 69.6444 38.0531C69.7269 38.0611 69.8068 38.086 69.8791 38.1264C69.9515 38.1668 70.0147 38.2218 70.0647 38.2878C70.1148 38.3538 70.1506 38.4295 70.17 38.5101C71.2052 40.2887 72.5856 41.8425 74.23 43.0801L75.44 43.9601C77.3174 45.3094 79.4303 46.2963 81.67 46.8701C82.67 47.0901 83.67 47.2701 84.67 47.5401C84.9701 47.5958 85.2459 47.7424 85.46 47.9601C85.6361 48.1568 85.752 48.3999 85.794 48.6606C85.8361 48.9212 85.8025 49.1885 85.6972 49.4306C85.5919 49.6727 85.4194 49.8796 85.2001 50.0266C84.9808 50.1736 84.724 50.2546 84.46 50.2601H84.42Z" fill="#AE22B2"/>
<path d="M78.13 57.9099C76.72 56.2799 79.84 54.5399 80.72 53.3299C82.0077 51.9695 83.0922 50.4303 83.94 48.7599C84.7328 47.1691 85.3369 45.491 85.74 43.7599C85.7669 43.6312 85.8207 43.5097 85.898 43.4033C85.9753 43.297 86.0743 43.2082 86.1884 43.1429C86.3025 43.0776 86.4291 43.0372 86.56 43.0244C86.6908 43.0116 86.8229 43.0268 86.9475 43.0688C87.072 43.1108 87.1863 43.1787 87.2827 43.2681C87.3791 43.3575 87.4554 43.4663 87.5067 43.5874C87.558 43.7084 87.583 43.839 87.5801 43.9704C87.5772 44.1019 87.5465 44.2312 87.49 44.3499C86.49 48.1099 85.42 52.0099 82.95 55.0899C82.07 55.9499 80.51 58.3399 79.08 58.3399C78.9008 58.3359 78.7243 58.2958 78.5611 58.2219C78.3978 58.148 78.2512 58.0419 78.13 57.9099Z" fill="#AE22B2"/>
<path d="M84.46 60.6501C82.3293 60.4873 80.2588 59.8665 78.39 58.8301C75.3487 57.3076 72.7774 54.9886 70.95 52.1201C70.9154 52.0267 70.9144 51.9241 70.947 51.83C70.9797 51.7359 71.0441 51.6561 71.1291 51.6041C71.2141 51.5522 71.3145 51.5313 71.4131 51.5452C71.5118 51.5591 71.6026 51.6068 71.67 51.6801C72.583 52.7234 73.6055 53.6655 74.72 54.4901C77.1004 56.0101 79.7758 57.0087 82.57 57.4201C83.3 57.5501 84.03 57.7401 84.74 57.9301C85.0434 57.9827 85.3211 58.1338 85.53 58.3601C85.7072 58.5557 85.8242 58.7983 85.8669 59.0588C85.9096 59.3193 85.8761 59.5866 85.7704 59.8285C85.6648 60.0704 85.4915 60.2766 85.2715 60.4224C85.0514 60.5681 84.7939 60.6472 84.53 60.6501H84.46Z" fill="#AE22B2"/>
<path d="M78.44 69.4C77.5 67.87 79.7 66.78 80.44 65.74C81.8417 64.1407 83.0346 62.3699 83.99 60.47C84.9288 58.8425 85.6995 57.1236 86.29 55.34C86.3039 55.1848 86.3539 55.035 86.4359 54.9026C86.5179 54.7702 86.6298 54.6587 86.7625 54.5772C86.8952 54.4956 87.0452 54.4462 87.2004 54.4329C87.3556 54.4195 87.5118 54.4426 87.6565 54.5004C87.8012 54.5581 87.9304 54.6488 88.0338 54.7653C88.1372 54.8818 88.212 55.0209 88.2522 55.1714C88.2924 55.3219 88.2968 55.4797 88.2652 55.6323C88.2335 55.7848 88.1667 55.9278 88.07 56.05C86.31 60.82 85.07 66.54 80.61 69.57C80.3084 69.8278 79.9266 69.9727 79.53 69.98C79.314 69.984 79.1005 69.9328 78.9098 69.8314C78.719 69.7299 78.5573 69.5814 78.44 69.4Z" fill="#AE22B2"/>
<path d="M80.33 69.4099C77.33 68.9899 75.13 66.5999 73.12 64.5499C71.5415 62.9738 70.3889 61.0229 69.77 58.8799C69.3023 57.6304 69.2084 56.2718 69.5 54.9699C69.75 53.9699 70.18 52.1699 71.41 52.1299C71.5656 52.1402 71.7111 52.2107 71.8156 52.3264C71.9202 52.4421 71.9755 52.594 71.97 52.7499C71.9751 52.8345 71.9606 52.9191 71.9277 52.9971C71.8947 53.0752 71.8442 53.1446 71.78 53.1999C71.3884 54.0765 71.2004 55.0303 71.23 55.9899C71.5383 58.1277 72.4508 60.133 73.86 61.7699C75.5494 63.8089 77.6131 65.506 79.94 66.7699C80.564 66.9943 81.2177 67.1257 81.88 67.1599C82.177 67.1599 82.4619 67.2779 82.672 67.4879C82.882 67.698 83 67.9828 83 68.2799C83 68.5769 82.882 68.8618 82.672 69.0718C82.4619 69.2819 82.177 69.3999 81.88 69.3999H81.28C80.9638 69.4222 80.6466 69.4255 80.33 69.4099Z" fill="#AE22B2"/>
<path d="M85.89 70.4199C84.75 69.4199 86.95 67.7299 87.3 66.6199C88.71 63.4799 89.79 59.3699 87.75 56.2799C87.559 56.2117 87.3983 56.0783 87.2961 55.9032C87.194 55.7281 87.157 55.5225 87.1916 55.3227C87.2263 55.123 87.3305 54.9419 87.4857 54.8115C87.6409 54.681 87.8373 54.6096 88.04 54.6099C91.39 56.3999 91.23 61.6699 90.2 64.8499C89.9 66.0199 88.1 70.6199 86.46 70.6199C86.2539 70.6136 86.0549 70.5437 85.89 70.4199Z" fill="#AE22B2"/>
<path d="M74.41 55.61C72.6424 54.6431 71.128 53.2726 69.99 51.61C67.65 48.03 66.1 43.29 67.94 39.18C68.15 38.74 68.33 38.18 68.86 38C68.9431 37.9828 69.0289 37.9831 69.112 38.0009C69.195 38.0188 69.2734 38.0538 69.3421 38.1037C69.4108 38.1536 69.4683 38.2173 69.511 38.2907C69.5537 38.3641 69.5806 38.4456 69.59 38.53C68.9179 40.2455 68.6875 42.1023 68.92 43.93C69.3901 46.8525 70.692 49.5778 72.67 51.78C73.59 52.57 74.57 53.29 75.5 54.06C75.6312 54.2313 75.7036 54.4405 75.7061 54.6563C75.7087 54.8721 75.6414 55.0829 75.5143 55.2573C75.3871 55.4317 75.207 55.5603 75.0007 55.6238C74.7945 55.6874 74.5732 55.6825 74.37 55.61H74.41Z" fill="#AE22B2"/>
<path d="M84.56 60.0699C84.3455 59.9659 84.1797 59.7826 84.0976 59.5588C84.0155 59.3349 84.0236 59.0879 84.12 58.8699C84.84 57.4699 85.7 56.1499 86.49 54.7799C87.71 51.8899 88.85 46.9899 87 44.2299C86.8894 44.1471 86.808 44.0311 86.7678 43.8989C86.7275 43.7667 86.7305 43.625 86.7762 43.4946C86.8219 43.3642 86.908 43.2517 87.022 43.1735C87.1359 43.0954 87.2719 43.0555 87.41 43.0599C91 44.8899 89.83 54.3399 87.54 57.0599C86.95 57.9699 86.29 58.8399 85.7 59.7499C85.6175 59.8791 85.5036 59.9853 85.369 60.0588C85.2344 60.1322 85.0834 60.1704 84.93 60.1699C84.8014 60.1607 84.6758 60.1268 84.56 60.0699Z" fill="#AE22B2"/>
<path d="M70.12 41.2301C66.38 38.2301 65.2 32.0601 68.12 28.1501C69.3 26.5701 71 28.1501 69.7 28.9101C69.0152 30.4201 68.7821 32.096 69.0287 33.7356C69.2754 35.3752 69.9913 36.9084 71.09 38.1501C71.49 38.7901 72.18 39.3301 72.31 40.1501C72.3196 40.3353 72.2911 40.5206 72.2264 40.6944C72.1617 40.8683 72.0622 41.027 71.9338 41.161C71.8055 41.2949 71.6511 41.4012 71.4802 41.4733C71.3093 41.5453 71.1255 41.5817 70.94 41.5801C70.787 41.5787 70.6358 41.5471 70.495 41.487C70.3543 41.4269 70.2268 41.3396 70.12 41.2301Z" fill="#AE22B2"/>
<path d="M84.05 49.3399C83.9102 49.2738 83.785 49.1803 83.6818 49.065C83.5786 48.9497 83.4996 48.815 83.4492 48.6687C83.3989 48.5224 83.3784 48.3675 83.3888 48.2132C83.3992 48.0588 83.4405 47.9081 83.51 47.7699C84.11 46.1299 84.75 44.4999 85.2 42.7699C85.6683 40.5967 85.9229 38.3828 85.96 36.1599C86.0116 34.5056 85.5619 32.8742 84.67 31.4799C84.44 31.1699 83.96 30.9599 84.12 30.4799C84.47 29.6399 85.44 30.3699 85.85 30.7799C87.3788 32.5183 88.2028 34.7653 88.16 37.0799C88.3592 40.0961 87.9126 43.1201 86.85 45.9499C86.48 46.9499 86.04 47.8599 85.59 48.7999C85.4927 48.9981 85.3418 49.165 85.1545 49.2816C84.9671 49.3983 84.7507 49.4601 84.53 49.4599C84.3629 49.4573 84.1987 49.4162 84.05 49.3399Z" fill="#AE22B2"/>
<path d="M75.67 46.0799C74.79 45.0799 73.91 44.0799 72.96 43.0799C72.01 42.0799 71.11 40.9199 70.12 39.9099C69.93 39.7099 69.63 39.5799 69.62 39.2599C69.6126 39.1594 69.6315 39.0586 69.6749 38.9676C69.7182 38.8766 69.7846 38.7985 69.8674 38.741C69.9501 38.6834 70.0465 38.6485 70.1469 38.6395C70.2473 38.6305 70.3483 38.6479 70.44 38.6899C71.3 39.4499 72.18 40.3899 73 41.1799C74.35 42.3799 75.88 43.3699 77.15 44.6699C77.337 44.8662 77.4383 45.1287 77.4317 45.3997C77.4252 45.6706 77.3112 45.9279 77.115 46.1149C76.9187 46.3019 76.6562 46.4032 76.3852 46.3967C76.1142 46.3901 75.8569 46.2762 75.67 46.0799Z" fill="#AE22B2"/>
<path d="M71.27 30.27C67.46 28.55 64.27 23.08 65.61 18.94C67.23 14.35 70.04 17.34 67.91 17.94C65.76 21.06 68.5 25.39 71.06 27.38C71.57 27.74 72.06 28.12 72.57 28.5C72.7434 28.6508 72.8673 28.8505 72.9252 29.073C72.9832 29.2954 72.9725 29.5302 72.8946 29.7465C72.8168 29.9628 72.6754 30.1504 72.4889 30.2849C72.3025 30.4194 72.0798 30.4944 71.85 30.5C71.637 30.4872 71.4338 30.4066 71.27 30.27Z" fill="#AE22B2"/>
<path d="M82.9 35.7402C81.69 35.3302 82.28 33.9202 82.49 33.0302C82.8337 31.838 83.0845 30.6211 83.24 29.3902C83.51 26.5302 83.5 23.2402 81.73 20.8402C79.89 20.1302 82.39 17.1502 84.73 22.9402C85.8678 26.2059 85.9725 29.7428 85.03 33.0702C84.7 34.0002 84.36 35.7802 83.17 35.7802C83.0787 35.7778 82.9881 35.7644 82.9 35.7402Z" fill="#AE22B2"/>
<path d="M75.12 33.7001C73.92 32.5901 73.01 31.22 71.91 30.03C71.62 29.67 71.22 29.39 70.97 29.03C70.9379 28.9638 70.9258 28.8895 70.935 28.8165C70.9443 28.7434 70.9746 28.6746 71.0223 28.6184C71.07 28.5623 71.133 28.5212 71.2036 28.5002C71.2742 28.4792 71.3494 28.4791 71.42 28.5C71.88 28.6734 72.314 28.9089 72.71 29.2001C73.99 30.0601 75.29 30.8701 76.61 31.6501C76.8404 31.8003 77.0166 32.0202 77.1132 32.2777C77.2097 32.5352 77.2214 32.8168 77.1466 33.0814C77.0718 33.3461 76.9144 33.5799 76.6973 33.7487C76.4803 33.9176 76.2149 34.0126 75.94 34.0201C75.6381 34.0103 75.3487 33.8974 75.12 33.7001Z" fill="#AE22B2"/>
<path d="M73.84 22.9401C72.4361 22.622 71.144 21.9311 70.1 20.9401C68.1162 19.2737 66.6057 17.1148 65.72 14.6801C65.2343 13.5662 65.0114 12.3554 65.0687 11.1416C65.1259 9.92776 65.4617 8.74336 66.05 7.68009C66.28 7.21009 66.98 6.94009 67.33 7.44009C67.4098 7.55075 67.4527 7.68369 67.4527 7.82009C67.4527 7.95648 67.4098 8.08943 67.33 8.20009C66.9374 9.10251 66.761 10.0841 66.8148 11.0668C66.8687 12.0494 67.1512 13.0059 67.64 13.8601C68.478 15.4973 69.5946 16.976 70.94 18.2301C72.0433 19.2367 73.231 20.1467 74.49 20.9501C74.6893 21.0725 74.8434 21.2564 74.9292 21.4739C75.015 21.6915 75.0279 21.9311 74.9658 22.1566C74.9038 22.3821 74.7703 22.5814 74.5853 22.7245C74.4003 22.8675 74.1739 22.9467 73.94 22.9501L73.84 22.9401Z" fill="#AE22B2"/>
<path d="M66.37 8.70012C64.37 7.61012 65.03 4.48012 66.16 2.87012C66.7733 3.13012 67.3733 3.41012 67.96 3.71012C67.7554 4.21682 67.6638 4.76203 67.6914 5.30777C67.719 5.8535 67.8653 6.38666 68.12 6.87012C68.1924 7.08477 68.2131 7.31348 68.1805 7.53765C68.1479 7.76182 68.0628 7.97514 67.9323 8.16026C67.8017 8.34539 67.6293 8.4971 67.4291 8.60306C67.2289 8.70903 67.0065 8.76627 66.78 8.77012C66.6403 8.77042 66.5016 8.74675 66.37 8.70012Z" fill="#AE22B2"/>
<path d="M52.27 2.54984C52.1875 2.49511 52.1198 2.42081 52.073 2.33357C52.0261 2.24633 52.0016 2.14885 52.0016 2.04984C52.0016 1.95083 52.0261 1.85336 52.073 1.76612C52.1198 1.67887 52.1875 1.60457 52.27 1.54984L54.54 0.0898438C55.6424 0.149915 56.7407 0.270094 57.83 0.449844C57.468 0.676398 57.0904 0.876903 56.7 1.04984L55.32 1.68984C54.63 1.99984 53.92 2.25984 53.21 2.52984C53.0102 2.61591 52.7971 2.66666 52.58 2.67984C52.4676 2.66233 52.3612 2.61771 52.27 2.54984Z" fill="#AE22B2"/>
<path d="M59.67 7.89986C59.5373 7.81046 59.4238 7.69565 59.3358 7.56207C59.2478 7.42848 59.1872 7.27878 59.1574 7.12162C59.1277 6.96446 59.1294 6.80296 59.1624 6.64646C59.1955 6.48996 59.2592 6.34157 59.35 6.20986C60.0118 5.0655 60.545 3.85145 60.94 2.58986C61.0693 2.1058 61.1497 1.60998 61.18 1.10986C61.67 1.23986 62.18 1.37986 62.64 1.53986C62.8389 2.87954 62.733 4.24684 62.33 5.53986C61.97 6.41986 61.33 8.07986 60.33 8.07986C60.0984 8.07621 59.8714 8.01431 59.67 7.89986Z" fill="#AE22B2"/>
<path d="M41.82 4.25984C40.66 3.47984 42.16 2.77984 42.76 2.31984C43.08 2.06984 43.38 1.81984 43.67 1.55984C45.1953 1.03014 46.7602 0.622195 48.35 0.339844C47.06 1.65984 43.77 4.22984 42.04 4.23984L41.82 4.25984Z" fill="#AE22B2"/>
<path d="M33.13 74.0099C31.59 73.9499 31.68 71.5699 33.13 71.4099C33.3005 71.404 33.4704 71.4338 33.6286 71.4976C33.7869 71.5613 33.93 71.6576 34.0487 71.7801C34.1675 71.9026 34.2592 72.0487 34.318 72.2088C34.3768 72.369 34.4013 72.5397 34.39 72.7099C34.4082 72.8725 34.3921 73.037 34.3428 73.1929C34.2934 73.3489 34.2119 73.4927 34.1036 73.6152C33.9952 73.7377 33.8624 73.8361 33.7136 73.9041C33.5649 73.9721 33.4035 74.0081 33.24 74.0099H33.13Z" fill="#AE22B2"/>
<path d="M33.28 83.9002C32 83.7802 32.43 82.3102 32.66 81.4702C32.82 80.8902 32.91 79.9402 33.74 80.0702C34.57 80.2002 34.32 81.0702 34.32 81.7102C34.32 82.5202 34.46 83.9002 33.32 83.9002H33.28Z" fill="#AE22B2"/>
<path d="M42.56 78.9401C42.3907 78.9248 42.2268 78.8722 42.0802 78.786C41.9337 78.6998 41.808 78.5822 41.7124 78.4416C41.6168 78.301 41.5535 78.1409 41.5271 77.9729C41.5008 77.805 41.512 77.6332 41.56 77.4701L41.68 77.1501C41.7611 76.9514 41.8995 76.7814 42.0776 76.6617C42.2557 76.542 42.4654 76.478 42.68 76.478C42.8946 76.478 43.1043 76.542 43.2824 76.6617C43.4605 76.7814 43.599 76.9514 43.68 77.1501C43.7624 77.3285 43.8008 77.5241 43.7921 77.7204C43.7833 77.9168 43.7276 78.1081 43.6297 78.2785C43.5318 78.4489 43.3945 78.5934 43.2292 78.6998C43.064 78.8062 42.8757 78.8715 42.68 78.8901L42.56 78.9401Z" fill="#AE22B2"/>
<path d="M42.32 86.9601C41.32 86.9601 41.17 85.8601 41.39 85.0801C41.39 84.8149 41.4953 84.5605 41.6829 84.373C41.8704 84.1854 42.1248 84.0801 42.39 84.0801C42.6552 84.0801 42.9095 84.1854 43.0971 84.373C43.2846 84.5605 43.39 84.8149 43.39 85.0801C43.65 85.8801 43.39 86.9701 42.39 86.9701L42.32 86.9601Z" fill="#AE22B2"/>
<path d="M50.73 80.91C50.7434 80.6287 50.8653 80.3635 51.07 80.17C51.2856 79.9743 51.569 79.8703 51.86 79.88C52.142 79.903 52.4041 80.0349 52.5907 80.2476C52.7773 80.4604 52.8739 80.7374 52.86 81.02C52.8536 81.1604 52.8194 81.2981 52.7593 81.4252C52.6992 81.5522 52.6144 81.666 52.51 81.76C52.3526 81.9088 52.1541 82.0068 51.9403 82.0414C51.7265 82.076 51.5072 82.0454 51.311 81.9538C51.1148 81.8621 50.9506 81.7136 50.8399 81.5275C50.7291 81.3413 50.6769 81.1262 50.69 80.91H50.73Z" fill="#AE22B2"/>
<path d="M52.13 89.9299C51.13 89.8499 51.38 88.7299 51.47 88.0599C51.4928 87.9421 51.5402 87.8303 51.6089 87.7318C51.6776 87.6333 51.7661 87.5503 51.8688 87.4881C51.9716 87.4259 52.0862 87.3859 52.2053 87.3707C52.3244 87.3555 52.4454 87.3654 52.5604 87.3998C52.6755 87.4341 52.7821 87.4922 52.8733 87.5703C52.9646 87.6484 53.0384 87.7447 53.0902 87.853C53.142 87.9614 53.1705 88.0793 53.1739 88.1994C53.1773 88.3194 53.1555 88.4388 53.11 88.5499C52.96 89.0999 52.91 89.9299 52.18 89.9299H52.13Z" fill="#AE22B2"/>
<path d="M53.67 76.6101C52.2 76.5501 52.42 73.7301 53.85 73.8001C55.28 73.8701 55.11 76.6101 53.73 76.6101H53.67Z" fill="#AE22B2"/>
<path d="M60.89 55.2299C60.7 53.9999 62.24 53.8299 62.5 54.9899C62.5475 55.1158 62.5625 55.2517 62.5435 55.385C62.5246 55.5182 62.4723 55.6445 62.3915 55.7522C62.3108 55.8599 62.2041 55.9455 62.0815 56.001C61.9589 56.0565 61.8242 56.0802 61.69 56.0699C61.5807 56.073 61.4719 56.0531 61.3707 56.0114C61.2696 55.9698 61.1783 55.9073 61.1029 55.8281C61.0274 55.7489 60.9695 55.6547 60.9328 55.5516C60.8961 55.4485 60.8816 55.3389 60.89 55.2299Z" fill="#AE22B2"/>
<path d="M62.32 62.1501C62.3002 61.7971 62.3002 61.4432 62.32 61.0901V61.0301C62.3028 60.8333 62.3508 60.6363 62.4567 60.4695C62.5625 60.3027 62.7203 60.1754 62.9057 60.1072C63.0911 60.0389 63.2938 60.0336 63.4825 60.0919C63.6712 60.1503 63.8355 60.2691 63.95 60.4301C64.1127 60.9391 64.2102 61.4666 64.24 62.0001C64.2505 62.1341 64.2319 62.2688 64.1853 62.3949C64.1388 62.521 64.0655 62.6355 63.9705 62.7306C63.8754 62.8256 63.7609 62.899 63.6348 62.9455C63.5087 62.992 63.374 63.0107 63.24 63.0001C63.007 63.0032 62.7817 62.9167 62.6105 62.7586C62.4393 62.6005 62.3353 62.3827 62.32 62.1501Z" fill="#AE22B2"/>
<path d="M63.6 55.4902C63.5525 55.3278 63.5541 55.1549 63.6044 54.9933C63.6548 54.8318 63.7517 54.6886 63.883 54.5819C64.0143 54.4751 64.1742 54.4095 64.3426 54.3932C64.5111 54.3769 64.6806 54.4106 64.83 54.4902C65.0353 54.6589 65.1844 54.886 65.2576 55.1414C65.3309 55.3968 65.3247 55.6684 65.24 55.9202C65.1766 56.0655 65.0715 56.1887 64.9379 56.2742C64.8044 56.3597 64.6485 56.4035 64.49 56.4002C64.3698 56.4062 64.2497 56.3866 64.1377 56.3427C64.0257 56.2988 63.9242 56.2316 63.8401 56.1456C63.756 56.0596 63.691 55.9567 63.6496 55.8437C63.6083 55.7307 63.5913 55.6102 63.6 55.4902Z" fill="#AE22B2"/>
<path d="M33.41 45.24C33.1733 45.1938 32.9638 45.0574 32.8257 44.8596C32.6876 44.6618 32.6318 44.4181 32.67 44.18C32.9 43.42 33.01 42.36 33.79 41.99C33.9893 41.9638 34.1919 41.9982 34.3713 42.0889C34.5507 42.1795 34.6987 42.3221 34.7958 42.4981C34.893 42.6741 34.9349 42.8752 34.916 43.0754C34.8971 43.2755 34.8183 43.4653 34.69 43.62C34.52 44.27 34.41 45.26 33.61 45.26L33.41 45.24Z" fill="#AE22B2"/>
<path d="M32.88 52.11C31.05 51.79 32.56 48.11 34.07 49.01C34.1917 49.0886 34.2949 49.1927 34.3724 49.315C34.4499 49.4374 34.4999 49.5752 34.5189 49.7188C34.538 49.8624 34.5255 50.0084 34.4826 50.1468C34.4396 50.2851 34.3671 50.4124 34.27 50.52C34.19 51.23 33.89 52.13 33.1 52.13L32.88 52.11Z" fill="#AE22B2"/>
<path d="M35.67 48.6501C34.26 48.3501 34.84 46.7501 34.97 45.7501C34.9578 45.5727 34.9855 45.3948 35.0511 45.2294C35.1168 45.0641 35.2186 44.9156 35.3492 44.7948C35.4798 44.6741 35.6358 44.5841 35.8058 44.5316C35.9757 44.4791 36.1552 44.4653 36.3312 44.4913C36.5072 44.5173 36.675 44.5824 36.8225 44.6819C36.97 44.7813 37.0933 44.9126 37.1833 45.066C37.2734 45.2194 37.328 45.391 37.343 45.5682C37.3579 45.7455 37.333 45.9238 37.27 46.0901C37.12 47.0901 37.14 48.6701 35.9 48.6701L35.67 48.6501Z" fill="#AE22B2"/>
<path d="M16.56 74.4901C15.09 74.4401 15.35 71.8301 16.72 71.8801C18.09 71.9301 17.98 74.5001 16.63 74.5001L16.56 74.4901Z" fill="#AE22B2"/>
<path d="M17.35 79.2002C15.8 79.1102 16.88 76.3702 17.99 77.6002C18.43 78.2002 18.22 79.2002 17.38 79.2002H17.35Z" fill="#AE22B2"/>
<path d="M19.12 74.1601C18.38 74.0301 18.61 72.7201 19.36 72.8601C20.11 73.0001 19.88 74.1701 19.23 74.1701L19.12 74.1601Z" fill="#AE22B2"/>
<path d="M25.08 71.9902C23.7 71.9402 23.84 69.6902 25.19 69.7702C26.54 69.8502 26.45 72.0002 25.19 72.0002L25.08 71.9902Z" fill="#AE22B2"/>
<path d="M62.58 48.4799C60.49 48.3799 60.94 44.4799 63 44.8399C64.8 45.1499 64.43 48.4799 62.66 48.4799H62.58Z" fill="#BE3BCC"/>
<path d="M63.92 52.5701C61.99 52.4601 62.57 49.4701 64.34 49.9201C64.6412 50.0191 64.8983 50.2202 65.067 50.4886C65.2356 50.757 65.3052 51.0759 65.2637 51.3902C65.2222 51.7045 65.0722 51.9945 64.8396 52.2099C64.6071 52.4253 64.3065 52.5528 63.99 52.5701H63.92Z" fill="#BE3BCC"/>
<path d="M61.4 48.1702C61.11 47.1702 62.4 46.6402 62.61 47.6902C62.6539 47.801 62.6715 47.9205 62.6614 48.0393C62.6512 48.1581 62.6137 48.2729 62.5517 48.3747C62.4896 48.4765 62.4048 48.5625 62.3038 48.6259C62.2029 48.6893 62.0886 48.7285 61.97 48.7402C61.73 48.7402 61.49 48.5702 61.4 48.1702Z" fill="#D753EA"/>
<path d="M64.25 48.7398C64.34 47.4298 65.61 47.3498 65.66 48.7398C65.6855 48.8439 65.6861 48.9527 65.6615 49.0571C65.637 49.1615 65.5881 49.2586 65.5189 49.3405C65.4497 49.4225 65.362 49.4868 65.2632 49.5284C65.1643 49.57 65.057 49.5876 64.95 49.5798C64.8427 49.5906 64.7343 49.5748 64.6344 49.534C64.5345 49.4932 64.4461 49.4285 64.377 49.3456C64.3079 49.2627 64.2603 49.1641 64.2381 49.0585C64.216 48.9529 64.22 48.8434 64.25 48.7398Z" fill="#D753EA"/>
<path d="M62.44 76.3399C62.4146 76.22 62.4151 76.0961 62.4415 75.9765C62.4679 75.8568 62.5196 75.7442 62.593 75.6462C62.6665 75.5481 62.76 75.4669 62.8674 75.4079C62.9748 75.3489 63.0936 75.3136 63.2158 75.3043C63.3379 75.2949 63.4607 75.3118 63.5758 75.3537C63.6909 75.3957 63.7957 75.4618 63.8832 75.5475C63.9707 75.6333 64.0389 75.7367 64.0832 75.851C64.1275 75.9652 64.1468 76.0876 64.14 76.2099C64.1685 76.335 64.1673 76.465 64.1364 76.5895C64.1055 76.714 64.0458 76.8295 63.9622 76.9268C63.8785 77.0241 63.7733 77.1003 63.6548 77.1495C63.5363 77.1987 63.4079 77.2194 63.28 77.2099C63.165 77.2178 63.0497 77.2005 62.9422 77.1591C62.8346 77.1178 62.7374 77.0534 62.6574 76.9705C62.5774 76.8876 62.5164 76.7882 62.4789 76.6793C62.4413 76.5703 62.428 76.4545 62.44 76.3399Z" fill="#D753EA"/>
<path d="M62.25 85.1302C62.37 84.0302 61.75 82.0402 63.14 81.6502C65.02 81.4402 64.46 83.9202 64.46 85.0902C64.4338 85.3652 64.3061 85.6205 64.1017 85.8063C63.8974 85.9921 63.6311 86.095 63.355 86.095C63.0788 86.095 62.8125 85.9921 62.6082 85.8063C62.4039 85.6205 62.2761 85.3652 62.25 85.0902V85.1302Z" fill="#D753EA"/>
<path d="M12.13 70.8602C10.76 70.1502 12.57 68.1602 13.36 69.5302C13.4274 69.68 13.4569 69.8442 13.4458 70.0081C13.4348 70.1721 13.3834 70.3308 13.2964 70.4702C13.2094 70.6096 13.0894 70.7254 12.947 70.8073C12.8046 70.8893 12.6442 70.935 12.48 70.9402C12.3591 70.9376 12.24 70.9104 12.13 70.8602Z" fill="#D753EA"/>
<path d="M18.38 68.2502C18.2532 68.2214 18.1346 68.1641 18.0331 68.0829C17.9316 68.0016 17.8499 67.8983 17.7941 67.7809C17.7382 67.6635 17.7098 67.5349 17.7108 67.4049C17.7118 67.2748 17.7423 67.1467 17.8 67.0302C17.8549 66.8586 17.9675 66.7112 18.1188 66.6132C18.27 66.5152 18.4505 66.4726 18.6296 66.4926C18.8087 66.5127 18.9753 66.5941 19.1012 66.7231C19.227 66.8521 19.3044 67.0207 19.32 67.2002C19.3496 67.3237 19.3515 67.4521 19.3256 67.5764C19.2997 67.7007 19.2467 67.8177 19.1702 67.919C19.0937 68.0204 18.9957 68.1035 18.8833 68.1625C18.7709 68.2215 18.6468 68.2549 18.52 68.2602L18.38 68.2502Z" fill="#D753EA"/>
<path d="M23.91 85.4998C22.78 85.4298 22.91 84.1998 23.06 83.3898C23.0971 83.1246 23.2381 82.885 23.4519 82.7237C23.6657 82.5624 23.9348 82.4926 24.2 82.5298C24.4652 82.5669 24.7048 82.7079 24.8661 82.9217C25.0274 83.1355 25.0971 83.4046 25.06 83.6698C25.06 84.4298 24.92 85.4998 23.96 85.4998H23.91Z" fill="#D753EA"/>
<path d="M29.48 91.7299C29.11 90.1399 31.56 89.9199 31.37 91.5499C31.3823 91.6843 31.3649 91.8197 31.319 91.9466C31.2731 92.0736 31.1998 92.1888 31.1044 92.2842C31.0089 92.3797 30.8937 92.4529 30.7668 92.4988C30.6399 92.5448 30.5044 92.5622 30.37 92.5499C30.1443 92.5554 29.9252 92.473 29.7591 92.32C29.593 92.167 29.4929 91.9553 29.48 91.7299Z" fill="#D753EA"/>
<path d="M81.6 80.2398H81.67C81.62 80.1098 81.56 79.9898 81.5 79.8598L81.6 80.2398ZM82.02 82.9298C80.89 82.8298 81.31 81.5298 81.39 80.7798C81.5 80.2398 81.39 79.5298 81.92 79.2198C83.19 78.8098 83.02 80.2198 82.92 80.9698C82.82 81.7198 83.03 82.9698 82 82.9698L82.02 82.9298Z" fill="#D753EA"/>
<path d="M38.67 29.4798C37.88 29.1998 38.21 28.1498 38.93 28.0498C39.0227 28.0445 39.1153 28.0607 39.2007 28.0973C39.286 28.1338 39.3617 28.1897 39.4218 28.2604C39.4819 28.3312 39.5247 28.4149 39.547 28.505C39.5692 28.5952 39.5703 28.6892 39.55 28.7798C39.5489 28.9624 39.4812 29.1382 39.3597 29.2744C39.2382 29.4107 39.0712 29.4979 38.89 29.5198C38.8147 29.5211 38.74 29.5075 38.67 29.4798Z" fill="#D753EA"/>
<path d="M45.93 32.34C45.8973 32.1902 45.8995 32.0349 45.9365 31.886C45.9734 31.7372 46.0441 31.5989 46.1431 31.4817C46.242 31.3646 46.3666 31.2717 46.5071 31.2104C46.6477 31.1491 46.8005 31.1209 46.9536 31.128C47.1068 31.1352 47.2563 31.1775 47.3905 31.2516C47.5248 31.3257 47.6401 31.4298 47.7277 31.5556C47.8154 31.6815 47.8729 31.8258 47.8958 31.9774C47.9187 32.129 47.9065 32.2839 47.86 32.43C47.8399 32.6811 47.7257 32.9154 47.5403 33.086C47.3549 33.2565 47.1119 33.3508 46.86 33.35C46.6054 33.3322 46.3672 33.2176 46.1943 33.0299C46.0214 32.8421 45.9268 32.5953 45.93 32.34Z" fill="#D753EA"/>
</g>
<defs>
<clipPath id="clip0_41_8">
<rect width="96.52" height="103.68" fill="white"/>
</clipPath>
</defs>
</svg>
