<svg width="161" height="90" viewBox="0 0 161 90" fill="none" xmlns="http://www.w3.org/2000/svg">
<g clip-path="url(#clip0_55_5843)">
<path d="M122.78 41.8399C122.905 44.2216 122.905 46.6082 122.78 48.9899C122.427 52.7216 121.693 56.4074 120.59 59.9899C119.65 64.0699 121.31 67.4499 119.15 71.4199C116.99 75.3899 107.48 75.2099 103.38 75.3199C100.84 75.3199 98.29 75.3199 95.75 75.1899C93.3571 75.205 90.9827 74.7708 88.75 73.9099C87.9219 73.4994 87.1292 73.0211 86.38 72.4799C85.68 72.0999 84.99 71.4199 84.14 71.4799C82.8476 72.0188 81.5974 72.6539 80.4 73.3799C78.1299 74.7149 75.5926 75.5311 72.97 75.7699C66.9409 76.5598 60.8574 76.8575 54.78 76.6599C41.87 76.4299 28.78 76.0599 16.24 72.7799C12.8 71.8299 9.23998 71.0299 6.17998 69.1099C3.4927 67.3346 1.47038 64.7179 0.429984 61.6699C-1.00002 54.9499 1.28997 47.5799 5.03997 41.9699C6.4009 40.0278 7.97026 38.2405 9.71999 36.6399C11.8735 34.8 14.392 33.4368 17.11 32.6399C28.89 28.4099 42.11 29.3699 53.43 23.6399C57 21.7599 59.91 18.9299 62.72 16.0899C67.43 11.6799 71.23 6.44987 76.14 2.25987C76.8716 1.59981 77.6691 1.01675 78.52 0.519879C78.5897 0.394979 78.6987 0.296562 78.83 0.23988C79.7168 -0.0662974 80.6683 -0.135257 81.59 0.0398679C83.8979 0.346122 86.0991 1.19986 88.01 2.52986C89.7294 3.42484 91.1943 4.74067 92.2679 6.35463C93.3416 7.96858 93.989 9.82812 94.15 11.7599C94.81 15.3599 93.63 18.7599 91.77 21.7599C94.3788 23.405 97.3461 24.3964 100.42 24.6499C102.267 24.8207 104.129 24.7297 105.95 24.3799C105.97 25.4804 106.08 26.5775 106.28 27.6599C106.805 30.1439 107.858 32.486 109.367 34.5272C110.877 36.5684 112.808 38.2609 115.03 39.4899C117.434 40.7739 120.068 41.5724 122.78 41.8399Z" fill="#F4EDE6"/>
<path d="M38.47 41.5799C37.39 38.1399 37.04 34.4899 35.47 31.2199C35.25 29.9999 32.68 27.9499 34.01 27.0499C37.88 26.9099 41.01 35.9899 41.35 39.2799C41.46 40.4899 41.9 42.3299 40.35 42.7199C40.1517 42.7705 39.9452 42.7811 39.7427 42.751C39.5402 42.7209 39.3457 42.6507 39.1707 42.5446C38.9957 42.4384 38.8435 42.2985 38.7232 42.1328C38.6029 41.9672 38.5168 41.7792 38.47 41.5799Z" fill="#B5ABA3"/>
<path d="M47.38 38.8901C47.0681 38.6413 46.861 38.2844 46.8 37.8901C46.63 36.8901 46.26 35.8901 46.01 34.9601C45.573 32.311 44.6436 29.7671 43.27 27.4601C42.89 26.7901 42.09 25.7501 42.88 25.1001C43.36 24.7601 43.83 25.0201 44.19 25.3901C45.9173 26.7932 47.2679 28.6043 48.12 30.6601C49.1277 32.8029 49.7408 35.1098 49.93 37.4701C49.9667 37.784 49.9089 38.1017 49.7642 38.3827C49.6195 38.6636 49.3943 38.8951 49.1174 39.0475C48.8405 39.1999 48.5245 39.2663 48.2097 39.2383C47.8949 39.2102 47.5956 39.089 47.35 38.8901H47.38Z" fill="#B5ABA3"/>
<path d="M36.52 37.7901C32.52 37.5701 28.21 37.0801 26.2 33.0801C25.8526 32.3547 25.5747 31.5979 25.37 30.8201C25.25 30.5252 25.25 30.195 25.37 29.9001C25.4249 29.8203 25.4974 29.7542 25.582 29.707C25.6666 29.6598 25.7609 29.6327 25.8577 29.6278C25.9544 29.623 26.0509 29.6405 26.1398 29.6791C26.2286 29.7176 26.3074 29.7761 26.37 29.8501C26.8073 31.7147 27.8651 33.3754 29.37 34.5601C31.3 35.9501 33.65 36.0801 35.93 36.3201C41.8188 36.7194 47.7346 36.3293 53.52 35.1601C57.8378 34.4085 62.1083 33.4068 66.31 32.1601C69.1 31.3301 71.76 30.1601 74.47 29.0801C76.47 28.2801 78.47 27.4901 80.4 26.5101C82.33 25.5301 84.23 24.3501 86.12 23.2401C87.46 22.4601 88.78 21.6401 90.12 20.9101C90.2646 20.8319 90.4342 20.8143 90.5918 20.8612C90.7493 20.9081 90.8817 21.0156 90.96 21.1601C91.036 21.3066 91.0525 21.4769 91.0059 21.6353C90.9593 21.7937 90.8533 21.928 90.71 22.0101C89.49 22.7201 88.28 23.4601 87.06 24.1801C83.2988 26.4807 79.3438 28.4482 75.24 30.0601C72.49 31.1601 69.78 32.4101 66.94 33.3001C61.2708 35.0547 55.4684 36.3456 49.59 37.1601C45.2685 37.8381 40.8867 38.0493 36.52 37.7901Z" fill="#B5ABA3"/>
<path d="M53 36.4699C51.56 32.2899 50.85 27.4699 47.37 24.3599C47.1968 24.347 47.0329 24.2766 46.9043 24.16C46.7756 24.0434 46.6896 23.8872 46.6597 23.7162C46.6299 23.5451 46.658 23.369 46.7395 23.2157C46.8211 23.0624 46.9514 22.9407 47.11 22.8699C49.97 22.6599 52.11 26.1399 53.6 28.2399C54.99 30.5299 56.06 33.1299 55.6 35.8499C55.6299 36.1735 55.5422 36.4971 55.3527 36.7612C55.1633 37.0252 54.885 37.2121 54.5689 37.2875C54.2527 37.3629 53.92 37.3217 53.6318 37.1715C53.3436 37.0213 53.1193 36.7722 53 36.4699Z" fill="#B5ABA3"/>
<path d="M61.49 35.67C61.31 34.82 60.9 33.59 60.68 32.87C60.2271 31.0348 59.6457 29.2337 58.94 27.48C57.9671 25.4706 56.6961 23.6197 55.17 21.99C54.77 21.52 54.36 21.05 53.92 20.6C53.56 20.39 53.45 19.81 53.92 19.6C54.0832 19.575 54.2498 19.5834 54.4097 19.6246C54.5695 19.6659 54.7193 19.7392 54.85 19.84C55.17 20.01 55.46 20.2 55.77 20.39C56.5967 20.8572 57.3918 21.3784 58.15 21.95C61.97 25.13 63.98 30.03 64.87 34.83C64.9252 35.052 64.9361 35.2826 64.9021 35.5087C64.8681 35.7349 64.79 35.9521 64.672 36.148C64.5541 36.344 64.3987 36.5148 64.2148 36.6506C64.0309 36.7865 63.822 36.8849 63.6 36.94C63.3781 36.9952 63.1475 37.0061 62.9213 36.9721C62.6952 36.9381 62.4779 36.8599 62.282 36.742C62.0861 36.6241 61.9153 36.4687 61.7794 36.2848C61.6435 36.1009 61.5452 35.892 61.49 35.67Z" fill="#B5ABA3"/>
<path d="M70.8 32.5301C69.59 28.8301 68.36 25.0001 65.8 22.0101C64.493 20.5489 62.952 19.3154 61.24 18.3601C60.6 18.0101 59.13 17.8101 59.9 16.7901C61.03 16.0401 62.53 16.8901 63.66 17.3101C68.32 19.1701 71.37 23.5801 73.3 28.0501C73.8171 29.2128 74.2125 30.426 74.48 31.6701C74.594 32.1581 74.5096 32.6714 74.2451 33.0971C73.9807 33.5228 73.558 33.826 73.07 33.9401C72.582 34.0541 72.0687 33.9696 71.643 33.7052C71.2173 33.4408 70.9141 33.0181 70.8 32.5301Z" fill="#B5ABA3"/>
<path d="M40.45 69.9901C34.1381 69.6688 27.8486 69.0012 21.61 67.9901C16.31 67.0801 10.98 66.3101 5.72999 65.1401C4.25999 64.7101 2.49 64.4401 1.49 63.2101C1.43549 63.0973 1.41227 62.9719 1.42274 62.8471C1.4332 62.7222 1.47697 62.6025 1.54951 62.5003C1.62204 62.3982 1.72067 62.3173 1.83509 62.2663C1.94951 62.2152 2.07551 62.1959 2.19999 62.2101C5.78999 63.7201 9.76 64.0601 13.56 64.8001C21.8528 66.3539 30.2208 67.4754 38.63 68.1601C45.05 68.5001 51.49 68.5101 57.92 68.4801C62.08 68.4801 66.25 68.6501 70.4 68.2101C74.15 67.7701 77.93 67.4301 81.67 66.8501C83.06 66.6601 84.43 66.3801 85.83 66.2401C87.23 66.1001 88.75 66.2401 90.2 66.2901C94.89 66.2901 99.56 65.7601 104.2 65.4701C108.006 65.1518 111.783 64.5501 115.5 63.6701L117.18 63.2601C117.885 63.1436 118.563 62.8996 119.18 62.5401C119.282 62.4539 119.414 62.4118 119.547 62.4231C119.681 62.4343 119.804 62.498 119.89 62.6001C119.976 62.7022 120.018 62.8344 120.007 62.9675C119.996 63.1007 119.932 63.2239 119.83 63.3101C119.191 63.8672 118.431 64.2678 117.61 64.4801C116.09 64.9901 114.54 65.4801 112.98 65.8101C108.148 66.8826 103.219 67.4556 98.27 67.5201C95.51 67.6301 92.75 67.8501 89.99 67.7001C88.54 67.6301 87.09 67.4401 85.64 67.4601C84.49 67.5701 83.35 67.7901 82.2 67.9701C79.67 68.4201 77.12 68.7701 74.57 69.0901C72.02 69.4101 69.57 69.8201 67.09 69.9301C58.25 70.1101 49.34 70.2701 40.45 69.9901Z" fill="#B5ABA3"/>
<path d="M122.7 39.8502C122.7 40.5102 122.75 41.1702 122.78 41.8502C120.07 41.5951 117.437 40.8103 115.03 39.5402C112.804 38.3069 110.87 36.6082 109.36 34.5598C107.85 32.5114 106.799 30.1614 106.28 27.6702C106.08 26.5878 105.97 25.4907 105.95 24.3902L106.19 24.3302L106.36 24.2802L106.6 24.2102L106.79 24.1502L106.99 24.0802L107.17 24.0202H107.25C108.06 23.7202 108.85 23.3702 109.66 23.0202C111.532 22.2655 113.544 21.9244 115.56 22.0202C117.81 22.1802 120.42 23.1202 121.19 25.4402C122.38 28.9502 122.53 32.7202 122.64 36.4402C122.64 37.5902 122.66 38.7202 122.7 39.8502Z" fill="#C1831F"/>
<path d="M32.04 66.6701C31.8424 66.6358 31.666 66.5256 31.5483 66.3631C31.4306 66.2006 31.381 65.9986 31.41 65.8001C31.54 64.8001 31.65 63.7201 31.75 62.6801C31.948 60.2889 32.0015 57.8878 31.91 55.4901C31.7797 48.4031 30.3141 41.4041 27.59 34.8601C27.1831 33.9746 26.7257 33.1132 26.22 32.2801C25.96 31.8701 25.7 31.4701 25.43 31.0701C25.16 30.6701 24.82 30.2901 25.18 29.9301C25.77 29.4501 26.33 30.3801 26.73 30.7301C27.2436 31.2947 27.7149 31.8963 28.14 32.5301C32.7 39.6501 33.67 48.4101 33.76 56.7001C33.7822 58.9875 33.6385 61.2735 33.33 63.5401C33.23 64.2501 33.12 64.9601 32.98 65.6701C32.93 66.1701 32.66 66.7601 32.04 66.6701Z" fill="#B5ABA3"/>
<path d="M91.26 65.2302C91.0326 65.1313 90.8535 64.9465 90.7617 64.7161C90.6699 64.4857 90.6729 64.2284 90.77 64.0002C91.07 63.1802 91.42 62.3802 91.77 61.5902C92.9298 59.1089 94.5174 56.8511 96.46 54.9202C99.1584 51.957 102.223 49.3493 105.58 47.1602C107.946 45.8279 110.402 44.6618 112.93 43.6702C114.584 43.0083 116.281 42.4603 118.01 42.0302C118.53 41.9602 119.32 41.5502 119.63 42.1902C119.94 42.8302 118.99 42.9702 118.52 43.1902L116.06 44.0902C112.246 45.5012 108.616 47.3681 105.25 49.6502C103.698 50.7953 102.246 52.0698 100.91 53.4602C98.8243 55.4683 96.9203 57.6568 95.22 60.0002C94.22 61.5702 93.34 63.2802 92.44 64.9302C92.3122 65.1137 92.1226 65.245 91.9059 65.3001C91.6892 65.3552 91.4599 65.3304 91.26 65.2302Z" fill="#B5ABA3"/>
<path d="M103.45 56.27C103.29 55.9715 103.255 55.6218 103.353 55.2976C103.45 54.9734 103.672 54.7009 103.97 54.54C104.369 54.3379 104.829 54.2915 105.26 54.41H105.19C107.76 55.07 104.64 58.33 103.45 56.27Z" fill="#B5ABA3"/>
<path d="M102.23 61.7602C101.28 61.1102 102.47 59.9102 103.29 59.9502C103.401 59.9656 103.504 60.0152 103.586 60.0921C103.668 60.1689 103.723 60.2693 103.745 60.3791C103.767 60.489 103.754 60.6031 103.709 60.7054C103.663 60.8077 103.587 60.8933 103.49 60.9502C103.3 61.5202 102.93 62.1202 102.23 61.7602Z" fill="#B5ABA3"/>
<path d="M106.84 57.9501C106.637 57.785 106.499 57.5526 106.451 57.2949C106.404 57.0372 106.45 56.7711 106.582 56.5444C106.713 56.3177 106.921 56.1453 107.168 56.0584C107.416 55.9715 107.686 55.9756 107.93 56.0701C109.44 56.6001 108.11 58.9801 106.84 57.9501Z" fill="#B5ABA3"/>
<path d="M75.47 26.0498C75.3488 26.0652 75.2263 26.0347 75.1264 25.9644C75.0265 25.8941 74.9564 25.789 74.93 25.6698C74.9242 25.5991 74.9336 25.5281 74.9574 25.4613C74.9812 25.3945 75.019 25.3336 75.0682 25.2825C75.1174 25.2314 75.1768 25.1914 75.2427 25.1651C75.3085 25.1388 75.3791 25.1267 75.45 25.1298C76.0111 25.0353 76.5655 24.9051 77.11 24.7398C80.32 23.5998 83.59 22.1398 86.01 19.7398C86.9757 18.7113 87.7234 17.498 88.208 16.173C88.6926 14.848 88.9042 13.4387 88.83 12.0298C88.8554 11.0017 88.6514 9.98097 88.2328 9.04168C87.8142 8.10239 87.1915 7.2682 86.41 6.59979C85.8943 6.1391 85.3498 5.71158 84.78 5.31979C84.17 4.90979 83.55 4.52981 82.93 4.14981C82.8397 4.07787 82.7784 3.97581 82.7573 3.86233C82.7361 3.74886 82.7566 3.63156 82.8149 3.53195C82.8732 3.43233 82.9655 3.35707 83.0748 3.31994C83.1841 3.28282 83.3031 3.28631 83.41 3.3298C83.99 3.6498 84.57 3.9598 85.13 4.3298C86.2958 5.02209 87.3594 5.87363 88.29 6.8598C89.7876 8.65713 90.5264 10.967 90.35 13.2998C90.2389 15.6905 89.3782 17.9856 87.89 19.8598C85.33 23.1798 79.53 25.7698 75.42 26.1698L75.47 26.0498Z" fill="#B5ABA3"/>
<path d="M78.68 14.5399C76.68 14.4699 76.96 11.3699 78.95 11.5399C81.05 11.5399 80.46 14.5899 78.68 14.5399Z" fill="#B5ABA3"/>
<path d="M77.35 20.3198C76.56 19.2498 78.19 18.0298 79.2 18.4098C81.08 19.3598 78.43 21.7398 77.35 20.3198Z" fill="#B5ABA3"/>
<path d="M47.7 64.39C46.8 64.06 45.44 63.07 46.89 62.39C49.93 62.06 49.48 64.85 47.7 64.39Z" fill="#B5ABA3"/>
<path d="M54.43 61.5601C52.24 61.5601 52.72 58.72 54.81 59.01C56.69 59.07 56.24 61.9701 54.43 61.5601Z" fill="#B5ABA3"/>
<path d="M57.65 65.4902C56.2 65.4902 56.12 63.8202 57.58 63.7002C58.93 63.3602 59.05 65.6702 57.65 65.4902Z" fill="#B5ABA3"/>
<path d="M160.17 54.5402C160.317 56.9208 160.333 59.3077 160.22 61.6902C159.876 65.4224 159.145 69.1088 158.04 72.6902C157.1 76.7702 158.75 80.1502 156.59 84.1202C154.43 88.0902 144.93 87.9102 140.83 88.0202C138.29 88.0202 135.74 88.0202 133.2 87.8902C130.807 87.9063 128.432 87.4721 126.2 86.6102C125.37 86.1975 124.574 85.7193 123.82 85.1802C123.13 84.8002 122.43 84.1202 121.59 84.1802C120.298 84.7191 119.047 85.3542 117.85 86.0802C115.577 87.4166 113.036 88.2328 110.41 88.4702C104.384 89.2602 98.3041 89.5578 92.23 89.3602C79.31 89.1302 66.23 88.7602 53.68 85.4802C50.25 84.5302 46.68 83.7302 43.6301 81.8102C40.9169 80.0397 38.8722 77.4143 37.8201 74.3502C36.3901 67.6302 38.67 60.2602 42.42 54.6502C43.7845 52.7079 45.3571 50.9206 47.11 49.3202C49.2613 47.4826 51.776 46.1195 54.49 45.3202C66.27 41.0902 79.4901 42.0602 90.8201 36.3202C94.3801 34.4402 97.29 31.6102 100.11 28.7702C104.82 24.3702 108.61 19.1302 113.53 14.9402C114.268 14.2988 115.072 13.7389 115.93 13.2702C115.997 13.1433 116.107 13.0441 116.24 12.9902C117.127 12.6836 118.078 12.6146 119 12.7902C121.308 13.0964 123.509 13.9502 125.42 15.2802C127.139 16.1742 128.604 17.49 129.676 19.1043C130.748 20.7187 131.393 22.5787 131.55 24.5102C132.21 28.1102 131.04 31.5102 129.17 34.5102C131.78 36.1539 134.747 37.1452 137.82 37.4002C139.67 37.5707 141.535 37.4798 143.36 37.1302C143.375 38.231 143.485 39.3285 143.69 40.4102C144.213 42.895 145.265 45.2378 146.775 47.2793C148.285 49.3207 150.217 51.0128 152.44 52.2402C154.841 53.5055 157.468 54.287 160.17 54.5402Z" fill="#F4EDE6"/>
<path d="M75.86 54.2801C74.79 50.8401 74.44 47.1901 72.86 43.9201C72.64 42.7001 70.07 40.6501 71.4 39.7501C75.26 39.6101 78.4 48.6901 78.73 51.9801C78.84 53.1901 79.28 55.0301 77.73 55.4201C77.331 55.5138 76.9112 55.4468 76.5613 55.2335C76.2114 55.0202 75.9595 54.6777 75.86 54.2801Z" fill="#B5ABA3"/>
<path d="M84.77 51.5898C84.461 51.3385 84.2547 50.9828 84.19 50.5898C84.02 49.5898 83.65 48.6398 83.41 47.6598C82.973 45.0106 82.0436 42.4668 80.67 40.1598C80.28 39.4898 79.49 38.4498 80.27 37.7998C80.75 37.4598 81.27 37.7198 81.58 38.0898C83.3104 39.4899 84.6616 41.3019 85.51 43.3598C86.5268 45.5017 87.1533 47.8078 87.36 50.1698C87.3936 50.4839 87.3335 50.8008 87.1873 51.0808C87.0411 51.3608 86.8152 51.5912 86.5383 51.743C86.2613 51.8949 85.9456 51.9613 85.631 51.9341C85.3163 51.9068 85.0167 51.787 84.77 51.5898Z" fill="#B5ABA3"/>
<path d="M73.93 50.49C69.93 50.27 65.61 49.7799 63.61 45.7799C63.2567 45.0594 62.9753 44.3057 62.77 43.5299C62.6554 43.2305 62.6554 42.8993 62.77 42.5999C62.8249 42.5201 62.8975 42.4541 62.982 42.4069C63.0666 42.3597 63.1609 42.3326 63.2577 42.3277C63.3544 42.3229 63.451 42.3404 63.5398 42.379C63.6287 42.4175 63.7075 42.476 63.77 42.55C64.2118 44.4127 65.2687 46.0721 66.77 47.26C68.71 48.65 71.05 48.78 73.34 49.02C79.2289 49.4205 85.1448 49.0304 90.93 47.86C95.2478 47.1084 99.5184 46.1067 103.72 44.86C106.51 44.03 109.18 42.8599 111.88 41.7799C113.88 40.9799 115.88 40.19 117.81 39.21C119.74 38.23 121.64 37.0499 123.54 35.9399C124.87 35.1599 126.2 34.34 127.54 33.61C127.687 33.5339 127.857 33.5175 128.015 33.5641C128.174 33.6107 128.308 33.7167 128.39 33.86C128.463 34.0082 128.476 34.1785 128.428 34.3363C128.38 34.4942 128.273 34.6278 128.13 34.71C126.91 35.42 125.7 36.1599 124.49 36.8799C120.729 39.1806 116.774 41.148 112.67 42.76C109.91 43.86 107.21 45.1099 104.37 45.9999C98.6975 47.7546 92.8917 49.0455 87.01 49.86C82.6853 50.5393 78.3 50.7505 73.93 50.49Z" fill="#B5ABA3"/>
<path d="M90.4 49.1701C88.95 44.9901 88.24 40.1701 84.76 37.0601C84.5817 37.055 84.4108 36.9882 84.2763 36.871C84.1419 36.7539 84.0522 36.5937 84.0227 36.4179C83.9932 36.242 84.0257 36.0613 84.1145 35.9067C84.2034 35.7521 84.3432 35.6331 84.51 35.5701C87.37 35.3601 89.51 38.8401 90.99 40.9401C92.38 43.2301 93.45 45.8301 92.99 48.5501C93.0304 48.8771 92.9489 49.2074 92.7611 49.4781C92.5733 49.7488 92.2924 49.9408 91.972 50.0175C91.6517 50.0942 91.3143 50.0502 91.0243 49.8939C90.7343 49.7376 90.512 49.4799 90.4 49.1701Z" fill="#B5ABA3"/>
<path d="M98.93 48.3699C98.74 47.5199 98.34 46.2899 98.12 45.5699C97.6671 43.7347 97.0857 41.9336 96.38 40.1799C95.4011 38.174 94.1307 36.3239 92.61 34.6899C92.2 34.2199 91.8 33.7499 91.36 33.2999C91 33.0899 90.89 32.5099 91.36 32.2999C91.5248 32.2747 91.693 32.283 91.8545 32.3242C92.016 32.3654 92.1675 32.4388 92.3 32.5399C92.61 32.7099 92.91 32.8999 93.21 33.0899C94.0182 33.5636 94.7933 34.0914 95.53 34.6699C99.36 37.8599 101.36 42.7499 102.25 47.5499C102.287 47.9615 102.175 48.3727 101.935 48.7091C101.695 49.0456 101.343 49.285 100.942 49.3841C100.541 49.4832 100.117 49.4354 99.7482 49.2494C99.3792 49.0633 99.089 48.7514 98.93 48.3699Z" fill="#B5ABA3"/>
<path d="M108.2 45.2301C106.98 41.5301 105.75 37.7001 103.2 34.7101C101.893 33.2489 100.352 32.0154 98.64 31.0601C98.01 30.7101 96.54 30.5101 97.31 29.5001C98.44 28.7401 99.94 29.5901 101.06 30.0101C105.73 31.8701 108.78 36.2801 110.71 40.7501C111.223 41.9145 111.618 43.1272 111.89 44.3701C112.004 44.8594 111.919 45.374 111.654 45.8006C111.388 46.2273 110.964 46.531 110.475 46.6451C109.986 46.7591 109.471 46.6741 109.044 46.4088C108.618 46.1434 108.314 45.7194 108.2 45.2301Z" fill="#B5ABA3"/>
<path d="M77.84 82.6701C71.5314 82.3488 65.2453 81.6812 59.01 80.6701C53.7 79.7601 48.37 78.9901 43.12 77.8201C41.65 77.3901 39.89 77.1201 38.88 75.8901C38.8248 75.7765 38.8014 75.6501 38.8122 75.5242C38.8231 75.3983 38.8677 75.2778 38.9415 75.1753C39.0154 75.0727 39.1155 74.9921 39.2315 74.9419C39.3474 74.8917 39.4747 74.8738 39.6 74.8901C43.18 76.4001 47.15 76.7401 50.95 77.4801C59.2427 79.0339 67.6107 80.1555 76.02 80.8401C82.45 81.1801 88.89 81.1901 95.32 81.1601C99.48 81.1601 103.65 81.3301 107.79 80.8901C111.55 80.4501 115.32 80.1101 119.07 79.5301C120.45 79.3401 121.83 79.0601 123.22 78.9201C124.61 78.7801 126.14 78.9201 127.6 78.9701C132.29 78.9701 136.96 78.4401 141.6 78.1501C145.406 77.8326 149.183 77.2309 152.9 76.3501L154.58 75.9401C155.285 75.8225 155.962 75.5786 156.58 75.2201C156.68 75.1518 156.8 75.1204 156.921 75.1314C157.041 75.1423 157.154 75.1949 157.24 75.2801C157.287 75.3266 157.324 75.3819 157.349 75.4428C157.375 75.5038 157.388 75.5691 157.388 75.6351C157.388 75.7011 157.375 75.7665 157.349 75.8274C157.324 75.8883 157.287 75.9437 157.24 75.9901C156.602 76.5491 155.842 76.9499 155.02 77.1601C153.5 77.6701 151.96 78.1601 150.4 78.4901C145.568 79.5621 140.639 80.1351 135.69 80.2001C132.93 80.3101 130.17 80.5301 127.4 80.3801C125.95 80.3101 124.51 80.1201 123.06 80.1401C121.9 80.2501 120.76 80.4801 119.62 80.6501C117.09 81.1001 114.54 81.4501 111.99 81.7701C109.44 82.0901 106.99 82.5001 104.5 82.6101C95.65 82.8101 86.74 82.9701 77.84 82.6701Z" fill="#B5ABA3"/>
<path d="M160.09 52.5498C160.09 53.2098 160.09 53.8698 160.17 54.5498C157.463 54.2948 154.834 53.5099 152.43 52.2398C150.207 51.0124 148.275 49.3203 146.765 47.2789C145.255 45.2374 144.203 42.8946 143.68 40.4098C143.475 39.3281 143.365 38.2306 143.35 37.1298L143.58 37.0698L143.75 37.0198L143.99 36.9498L144.19 36.8898L144.38 36.8198L144.57 36.7598H144.64C145.46 36.4598 146.25 36.1098 147.05 35.7598C148.925 35.0055 150.941 34.6644 152.96 34.7598C155.2 34.9198 157.82 35.8598 158.59 38.1798C159.607 41.7391 160.095 45.4285 160.04 49.1298C160.03 50.2898 160.05 51.4198 160.09 52.5498Z" fill="#C1831F"/>
<path d="M69.43 79.3601C69.2335 79.3234 69.0586 79.2127 68.9414 79.0508C68.8242 78.8889 68.7735 78.6882 68.8 78.4901C68.94 77.4901 69.05 76.4101 69.14 75.3701C69.3463 72.9793 69.4031 70.578 69.31 68.1801C69.1697 61.0941 67.7045 54.097 64.99 47.5501C64.5791 46.6665 64.1218 45.8053 63.62 44.9701C63.36 44.5601 63.09 44.1601 62.82 43.7601C62.55 43.3601 62.22 42.9801 62.58 42.6201C63.16 42.1401 63.73 43.0701 64.12 43.4201C64.6396 43.9795 65.1113 44.5816 65.53 45.2201C70.1 52.3401 71.06 61.1001 71.16 69.3901C71.1822 71.6775 71.0384 73.9635 70.73 76.2301C70.63 76.9367 70.51 77.6467 70.37 78.3601C70.32 78.8701 70.05 79.4601 69.43 79.3601Z" fill="#B5ABA3"/>
<path d="M128.65 77.9299C128.434 77.8182 128.267 77.6317 128.178 77.4053C128.09 77.179 128.087 76.9282 128.17 76.6999C128.47 75.8799 128.82 75.0799 129.17 74.2899C130.356 71.821 131.967 69.5802 133.93 67.6699C136.631 64.709 139.695 62.1016 143.05 59.9099C145.403 58.5641 147.845 57.3814 150.36 56.3699C152.014 55.7095 153.712 55.1615 155.44 54.7299C155.96 54.6599 156.76 54.2499 157.06 54.8899C157.36 55.5299 156.42 55.6699 155.95 55.8899L153.5 56.7899C149.683 58.2009 146.05 60.0677 142.68 62.3499C141.134 63.4976 139.685 64.772 138.35 66.1599C136.258 68.1652 134.351 70.3539 132.65 72.6999C131.65 74.2699 130.78 75.9799 129.88 77.6299C129.749 77.8241 129.551 77.9625 129.323 78.018C129.096 78.0735 128.856 78.0421 128.65 77.9299Z" fill="#B5ABA3"/>
<path d="M140.84 68.9699C140.683 68.6709 140.649 68.3222 140.747 67.9987C140.844 67.6753 141.064 67.4028 141.36 67.24C141.763 67.0381 142.225 66.9919 142.66 67.1099H142.58C145.16 67.7699 142.04 71.0299 140.84 68.9699Z" fill="#B5ABA3"/>
<path d="M139.62 74.4599C138.68 73.8099 139.86 72.6099 140.69 72.6499C140.801 72.6653 140.904 72.7149 140.986 72.7917C141.068 72.8686 141.123 72.969 141.145 73.0789C141.167 73.1888 141.154 73.3028 141.109 73.4051C141.063 73.5074 140.987 73.593 140.89 73.6499C140.7 74.2199 140.31 74.8199 139.62 74.4599Z" fill="#B5ABA3"/>
<path d="M144.23 70.6702C144.03 70.5047 143.895 70.274 143.849 70.0187C143.803 69.7635 143.849 69.5001 143.978 69.2752C144.107 69.0503 144.312 68.8783 144.555 68.7895C144.799 68.7008 145.066 68.701 145.31 68.7902C146.83 69.3002 145.51 71.6702 144.23 70.6702Z" fill="#B5ABA3"/>
<path d="M112.87 38.75C112.746 38.756 112.625 38.7149 112.531 38.6352C112.436 38.5554 112.375 38.4428 112.36 38.32C112.354 38.2493 112.364 38.1783 112.387 38.1115C112.411 38.0447 112.449 37.9838 112.498 37.9327C112.547 37.8817 112.607 37.8416 112.673 37.8153C112.738 37.789 112.809 37.7769 112.88 37.78C113.438 37.6855 113.989 37.5553 114.53 37.39C117.75 36.25 121.02 34.79 123.44 32.34C124.404 31.3102 125.15 30.0967 125.635 28.772C126.119 27.4474 126.332 26.0387 126.26 24.63C126.286 23.6009 126.082 22.5789 125.661 21.6392C125.241 20.6996 124.615 19.8661 123.83 19.2C123.314 18.7393 122.77 18.3118 122.2 17.92C121.6 17.51 120.97 17.13 120.35 16.75C120.296 16.7181 120.25 16.676 120.213 16.6259C120.176 16.5759 120.149 16.519 120.134 16.4585C120.119 16.398 120.116 16.3352 120.126 16.2736C120.136 16.2121 120.157 16.1531 120.19 16.1C120.255 15.9922 120.359 15.9141 120.48 15.8823C120.602 15.8505 120.731 15.8677 120.84 15.93C121.41 16.25 122 16.56 122.56 16.93C123.724 17.6249 124.787 18.4762 125.72 19.46C127.199 21.2689 127.916 23.5819 127.72 25.91C127.612 28.2983 126.751 30.5912 125.26 32.46C122.71 35.78 116.91 38.37 112.79 38.77L112.87 38.75Z" fill="#B5ABA3"/>
<path d="M116.07 27.2401C114.07 27.1701 114.35 24.0701 116.35 24.2401C118.45 24.2401 117.85 27.2901 116.07 27.2401Z" fill="#B5ABA3"/>
<path d="M114.74 33.02C113.96 31.95 115.58 30.73 116.6 31.11C118.47 32.06 115.83 34.44 114.74 33.02Z" fill="#B5ABA3"/>
<path d="M85.1 77.0902C84.2 76.7602 82.84 75.7702 84.29 75.0902C87.35 74.7602 86.93 77.5502 85.1 77.0902Z" fill="#B5ABA3"/>
<path d="M91.82 74.2602C89.64 74.2602 90.12 71.4202 92.2 71.7102C94.08 71.7702 93.64 74.6702 91.82 74.2602Z" fill="#B5ABA3"/>
<path d="M95.05 78.1899C93.6 78.1899 93.51 76.5199 94.97 76.3999C96.36 76.0599 96.45 78.4099 95.05 78.1899Z" fill="#B5ABA3"/>
<path d="M37.12 74.6099C36.33 74.0599 36.57 70.9298 36.56 69.9698C36.7099 64.2977 38.4417 58.7803 41.56 54.0399C43.0169 51.6493 45.0397 49.6539 47.45 48.2299C50.2317 46.4742 53.2393 45.105 56.39 44.1598C57.8993 43.6863 59.4354 43.3023 60.99 43.0099C64.05 42.2999 67.1 41.5199 70.2 41.0099C75.9041 40.0679 81.5249 38.6769 87.01 36.8499C90.4679 35.5783 93.7482 33.8676 96.77 31.7599C99.52 29.8399 101.41 27.0599 103.95 24.9299C105.82 23.3653 107.599 21.696 109.28 19.9299C109.384 19.8415 109.517 19.794 109.653 19.7965C109.789 19.7989 109.92 19.8511 110.021 19.9431C110.121 20.0352 110.185 20.1609 110.2 20.2965C110.214 20.4322 110.179 20.5685 110.1 20.6799C109.57 21.3099 109.1 21.9599 108.55 22.5999C107.07 24.3699 105.3 25.8599 103.68 27.4799C102.06 29.0999 100.82 30.6799 99.27 32.1499C98.0966 33.2625 96.778 34.2111 95.35 34.9698C86.94 39.8498 77.19 41.5199 67.74 43.2599C65.43 43.7199 63.15 44.2599 60.84 44.7299C59.3916 44.9621 57.9614 45.2963 56.56 45.7299C52.2 47.0499 47.87 49.0399 44.74 52.4299C43.2039 54.3714 41.9234 56.5022 40.93 58.7699C39.368 62.5733 38.3578 66.5805 37.93 70.6699C37.8416 71.7207 37.8082 72.7755 37.83 73.8299C38.06 74.3399 37.66 74.8899 37.12 74.6099Z" fill="#B5ABA3"/>
</g>
<defs>
<clipPath id="clip0_55_5843">
<rect width="160.3" height="89.45" fill="white"/>
</clipPath>
</defs>
</svg>
