<svg width="139" height="340" viewBox="0 0 139 340" fill="none" xmlns="http://www.w3.org/2000/svg">
<g clip-path="url(#clip0_41_784)">
<path d="M137.62 62.5802C137.483 57.1257 136.905 51.6913 135.89 46.3302C133.24 32.5702 127.45 19.6302 121.72 6.84024C120.8 4.84024 119.72 2.62024 117.81 1.51024C116.158 0.754607 114.341 0.43115 112.53 0.570236L25.87 -0.00976562C23.73 -0.00976562 21.43 -0.00977111 19.69 1.25023C18.16 2.34023 17.36 4.16023 16.62 5.89023C10.16 21.1402 3.11999 35.3802 1.38999 52.1002C-0.390007 69.2002 1.75999 86.5302 5.38999 103.26C11.21 130.26 20.64 156.7 22.91 184.26C25.16 211.67 20.24 239.16 20.51 266.66C20.75 290.96 25.02 315.01 29.29 338.94L57.29 338.36C70.63 245.13 61.48 150.02 71.24 56.3602C75.43 58.4802 75.9 64.1802 75.8 68.8802C73.8 158.97 68.59 249.58 81.02 338.88L108.54 339.77C114.46 313.913 117.29 287.445 116.97 260.92C116.61 231.92 112.48 202.76 116.12 173.97C120.79 136.38 138.61 99.6402 137.62 62.5802Z" fill="#282828"/>
<path d="M74.65 112.56C74.7114 112.473 74.7555 112.374 74.78 112.27C74.72 113.58 74.67 114.89 74.62 116.21L74.65 112.56Z" fill="#282828"/>
<path d="M72.96 150.99C72.96 148.61 72.91 146.24 72.88 143.86L73.01 140.58C73.01 139.39 73.13 138.2 73.19 137.01C73.31 134.78 73.52 132.55 73.71 130.33V130.45C73.9 128.26 74.12 126.06 74.28 123.87C74.33 123.07 74.39 122.27 74.44 121.47L74.38 123.75C74.28 127.984 74.2133 132.207 74.18 136.42C74.18 140.9 74.18 145.38 74.18 149.86C74.18 151.23 74.18 152.59 74.18 153.96C74.04 154.71 73.91 155.46 73.77 156.21C73.55 158.6 73.38 161 73.22 163.4L73.1 165.16C73.05 160.39 73 155.66 72.96 150.99Z" fill="#282828"/>
<path d="M138.09 68.3501C138.085 68.3832 138.085 68.417 138.09 68.4501C138.09 68.4501 138.09 68.3801 138.09 68.3501Z" fill="#282828"/>
<path d="M51.91 13.26C42.91 12.85 33.98 11.49 25.06 10.26C23.5027 10.0036 21.9282 9.86656 20.35 9.84999C19.69 9.99999 18.68 9.64999 19.08 8.84999C21 6.35999 38.21 9.63998 42.31 9.68998C55.0353 10.8496 67.8243 11.1503 80.59 10.59C88.38 10.75 96.1 9.83998 103.83 9.10998C107.7 8.71596 111.532 8.01374 115.29 7.00999C115.569 6.94021 115.865 6.97585 116.119 7.11009C116.374 7.24433 116.57 7.46774 116.67 7.73759C116.771 8.00744 116.768 8.30479 116.663 8.57275C116.557 8.84071 116.357 9.06046 116.1 9.18998C106.6 12.26 96.37 12.63 86.47 13.34C74.95 13.45 63.41 14.12 51.91 13.26Z" fill="black"/>
<path d="M71.41 53.9301C70.76 40.6801 70.81 27.2701 68.7 14.1501C68.6372 13.9911 68.6356 13.8143 68.6957 13.6542C68.7558 13.4941 68.8732 13.3619 69.0251 13.2835C69.1771 13.205 69.3528 13.1857 69.5181 13.2295C69.6835 13.2732 69.8267 13.3768 69.92 13.5201C70.1702 14.1223 70.3416 14.7542 70.43 15.4001C70.73 17.0801 76.04 61.5401 71.41 53.9301Z" fill="black"/>
<path d="M73.31 56.09C73.2037 56.0654 73.1034 56.0198 73.015 55.956C72.9265 55.8921 72.8517 55.8113 72.7949 55.7181C72.7381 55.625 72.7004 55.5215 72.6841 55.4136C72.6678 55.3058 72.6732 55.1957 72.7 55.09C72.78 54.65 72.85 54.15 72.91 53.8C73.2 52.02 73.51 50.18 73.79 48.42C74.86 41.69 76.2 35.02 76.84 28.24C77.37 23.75 77.5 19.24 77.84 14.72C77.8599 14.5807 77.9343 14.4551 78.0468 14.3707C78.1593 14.2863 78.3007 14.2501 78.44 14.27C78.5792 14.2899 78.7049 14.3643 78.7893 14.4768C78.8736 14.5893 78.9099 14.7307 78.89 14.87C78.8827 14.9365 78.8827 15.0035 78.89 15.07C78.89 16.69 78.84 18.31 78.79 19.93C78.4951 28.725 77.5458 37.4859 75.95 46.14C75.43 49.28 75.04 52.36 74.32 55.45C74.2989 55.56 74.2555 55.6646 74.1925 55.7572C74.1295 55.8499 74.0481 55.9286 73.9535 55.9886C73.8589 56.0485 73.7529 56.0885 73.6423 56.1059C73.5316 56.1234 73.4185 56.1179 73.31 56.09Z" fill="black"/>
<path d="M72.0501 6.88994C72.4601 6.79994 73.05 6.88995 73.32 6.50995C73.38 5.50995 72.44 4.68995 71.68 4.14995C70.9 4.47995 69.9 4.98994 69.78 5.91994V5.85994C69.78 5.85994 69.78 5.85995 69.78 5.79995C69.73 6.90995 71.2501 6.98994 72.0501 6.88994ZM70.65 8.98995C67.09 8.39995 66.8801 4.39996 70.2001 3.19996C70.1225 3.02824 70.0951 2.83811 70.121 2.65149C70.1468 2.46487 70.2248 2.28933 70.346 2.14512C70.4672 2.0009 70.6268 1.89387 70.8062 1.83634C70.9856 1.77881 71.1776 1.77313 71.3601 1.81995C72.7977 2.21158 74.0381 3.12411 74.84 4.37995C75.2554 4.93229 75.4673 5.6111 75.44 6.30165C75.4127 6.99221 75.1478 7.65215 74.69 8.16994C74.1061 8.57058 73.4474 8.84964 72.7534 8.99051C72.0593 9.13139 71.344 9.1312 70.65 8.98995Z" fill="black"/>
<path d="M4.40997 50.1102C3.98002 50.0618 3.58215 49.8593 3.28997 49.5402C3.22927 49.4666 3.18874 49.3785 3.17239 49.2845C3.15603 49.1905 3.1644 49.0939 3.19668 49.0041C3.22896 48.9143 3.28404 48.8345 3.3565 48.7724C3.42896 48.7104 3.51631 48.6683 3.60998 48.6502C4.05998 48.5502 4.51996 48.5202 4.95996 48.4002C8.77996 47.4002 11.67 44.4002 14.23 41.5702C18.379 36.8686 21.9417 31.6806 24.84 26.1202C26.3654 23.433 27.7019 20.6429 28.84 17.7702C29.4875 16.0829 30.0024 14.3476 30.38 12.5802C30.57 11.7102 30.73 10.8402 30.87 9.96016L30.96 9.42016C31.0138 9.21823 31.1296 9.03827 31.2911 8.90554C31.4525 8.77281 31.6515 8.694 31.86 8.68017C33.95 8.62017 32.51 14.2202 32.24 15.4402C30.8413 20.3644 28.8253 25.092 26.24 29.5102C24.3278 33.2498 22.0393 36.7848 19.41 40.0602C15.84 44.2602 10.48 50.7002 4.40997 50.1102Z" fill="black"/>
<path d="M133.46 57.0398C129.259 55.3751 125.38 52.9893 122 49.9898C119.305 47.4449 117.01 44.5086 115.19 41.2798C111.05 34.1756 107.697 26.641 105.19 18.8098C104.9 17.8098 102.46 10.3398 104.32 10.9698C104.428 11.0084 104.516 11.0874 104.566 11.1901C104.617 11.2927 104.625 11.411 104.59 11.5198C104.985 13.109 105.469 14.6748 106.04 16.2098C107.97 21.4235 110.269 26.493 112.92 31.3798C114.92 34.9498 116.76 38.5698 119 41.9698C120.2 43.7387 121.538 45.4105 123 46.9698C124.627 48.5765 126.39 50.0386 128.27 51.3398C130.126 52.7742 132.19 53.9173 134.39 54.7298C134.668 54.8716 134.883 55.1125 134.993 55.4051C135.102 55.6976 135.099 56.0205 134.982 56.3103C134.865 56.6 134.644 56.8356 134.363 56.9707C134.081 57.1057 133.759 57.1303 133.46 57.0398Z" fill="black"/>
<path d="M38.99 333.3C36.1861 333.347 33.384 333.133 30.62 332.66C30.5406 332.632 30.4715 332.581 30.4215 332.513C30.3716 332.445 30.3432 332.364 30.34 332.28C30.34 331.82 30.87 331.77 31.22 331.79C31.82 331.79 32.41 331.79 33 331.85C35.5173 331.945 38.0382 331.845 40.54 331.55C42.83 331.13 45.16 331.01 47.45 330.64C49.1486 330.216 50.8896 329.984 52.64 329.95C52.7874 329.946 52.9327 329.986 53.0581 330.064C53.1835 330.141 53.2835 330.254 53.3461 330.387C53.4086 330.521 53.431 330.67 53.4103 330.816C53.3897 330.962 53.3271 331.099 53.23 331.21C52.89 331.57 52.34 331.45 51.89 331.52C50.8 331.64 49.74 331.91 48.67 332.13C47.2417 332.425 45.795 332.622 44.34 332.72C42.55 332.88 40.78 333.23 38.99 333.3Z" fill="black"/>
<path d="M103.02 333.07C98.83 332.76 94.66 332.83 90.47 332.77C87.84 332.66 85.21 332.52 82.59 332.28C82.4894 332.254 82.3992 332.198 82.3314 332.119C82.2637 332.04 82.2215 331.943 82.2106 331.839C82.1998 331.736 82.2207 331.632 82.2706 331.541C82.3205 331.45 82.3971 331.376 82.49 331.33C84.2186 331.123 85.9594 331.036 87.7 331.07C91.25 331.07 94.79 330.79 98.34 330.78C100.4 330.78 102.46 330.86 104.52 330.78C104.791 330.779 105.053 330.88 105.254 331.062C105.455 331.244 105.581 331.494 105.607 331.764C105.633 332.034 105.558 332.304 105.396 332.522C105.234 332.739 104.996 332.888 104.73 332.94C104.167 333.048 103.593 333.091 103.02 333.07Z" fill="black"/>
</g>
<defs>
<clipPath id="clip0_41_784">
<rect width="138.09" height="339.72" fill="white"/>
</clipPath>
</defs>
</svg>
